<svg width="32" height="32" viewBox="0 0 32 32" fill="none" xmlns="http://www.w3.org/2000/svg">
<path fill-rule="evenodd" clip-rule="evenodd" d="M0 16C0 7.16344 7.16344 0 16 0C24.8366 0 32 7.16344 32 16C32 24.8366 24.8366 32 16 32C7.16344 32 0 24.8366 0 16Z" fill="#4C6C91"/>
<path fill-rule="evenodd" clip-rule="evenodd" d="M16.8369 20.7176C16.8369 20.7176 17.1449 20.684 17.3026 20.5177C17.447 20.3653 17.442 20.0777 17.442 20.0777C17.442 20.0777 17.4228 18.7347 18.0581 18.5364C18.6841 18.3414 19.488 19.8351 20.3411 20.4095C20.9855 20.8438 21.4746 20.7487 21.4746 20.7487L23.7543 20.7176C23.7543 20.7176 24.9463 20.6455 24.3812 19.7253C24.3344 19.6499 24.0514 19.0444 22.6867 17.8006C21.2568 16.4986 21.4488 16.7092 23.17 14.4568C24.2184 13.0852 24.6374 12.2478 24.5064 11.8897C24.382 11.5472 23.6107 11.6381 23.6107 11.6381L21.0447 11.6537C21.0447 11.6537 20.8544 11.6283 20.7134 11.7111C20.5756 11.7922 20.4863 11.9815 20.4863 11.9815C20.4863 11.9815 20.0806 13.0425 19.5389 13.9455C18.3961 15.8497 17.9395 15.9505 17.7526 15.8325C17.3177 15.5564 17.4262 14.7247 17.4262 14.1339C17.4262 12.2879 17.7117 11.5185 16.8711 11.3194C16.5923 11.253 16.3869 11.2096 15.6732 11.2022C14.7575 11.1932 13.9829 11.2055 13.5438 11.4161C13.2517 11.5562 13.0263 11.8692 13.164 11.8872C13.3335 11.9094 13.7175 11.9888 13.9211 12.2609C14.1841 12.6124 14.1749 13.4006 14.1749 13.4006C14.1749 13.4006 14.326 15.5736 13.8218 15.8432C13.4762 16.0283 13.0021 15.6506 11.9829 13.9226C11.4612 13.0376 11.0672 12.0593 11.0672 12.0593C11.0672 12.0593 10.9912 11.8766 10.8552 11.7783C10.6907 11.6595 10.4612 11.6226 10.4612 11.6226L8.02293 11.6381C8.02293 11.6381 7.65649 11.648 7.52209 11.8045C7.40273 11.943 7.51291 12.2306 7.51291 12.2306C7.51291 12.2306 9.42194 16.615 11.5839 18.8248C13.5664 20.8503 15.8168 20.7176 15.8168 20.7176H16.8369Z" fill="white"/>
</svg>
