<svg width="16" height="18" viewBox="0 0 16 18" fill="none" xmlns="http://www.w3.org/2000/svg">
    <path fill-rule="evenodd" clip-rule="evenodd" d="M8.1282 12.8667L10.4962 10.475C10.7355 10.225 10.7355 9.83334 10.4879 9.59167C10.2487 9.35 9.86088 9.35 9.6216 9.59167L8.30972 10.925V6.90834C8.30972 6.55834 8.03744 6.28334 7.69916 6.28334C7.36088 6.28334 7.08035 6.55834 7.08035 6.90834V10.925L5.76847 9.59167C5.52919 9.35 5.1414 9.35 4.90213 9.59167C4.66286 9.83334 4.66286 10.225 4.90213 10.475L7.26187 12.8667C7.31962 12.925 7.38563 12.9667 7.45989 13C7.53414 13.0333 7.61665 13.05 7.69916 13.05C7.78167 13.05 7.85593 13.0333 7.93018 13C8.00444 12.9667 8.07045 12.925 8.1282 12.8667ZM14.1071 6.52134C14.3011 6.51911 14.5122 6.51667 14.7041 6.51667C14.9186 6.51667 15.0837 6.68333 15.0837 6.89167V13.5917C15.0837 15.6583 13.417 17.3333 11.3708 17.3333H4.81138C2.65792 17.3333 0.916992 15.575 0.916992 13.4083V4.425C0.916992 2.35833 2.57541 0.666668 4.63811 0.666668H9.04406C9.25033 0.666668 9.42359 0.841668 9.42359 1.05V3.73333C9.42359 5.25834 10.6612 6.50833 12.1794 6.51667C12.5281 6.51667 12.8401 6.51931 13.1125 6.52162C13.3235 6.52341 13.5107 6.525 13.6728 6.525C13.7902 6.525 13.9425 6.52324 14.1071 6.52134ZM14.3374 5.3051C13.66 5.3076 12.8605 5.3051 12.2854 5.29927C11.3729 5.29927 10.6212 4.5401 10.6212 3.61843V1.42177C10.6212 1.0626 11.0527 0.884266 11.2986 1.14343C11.9338 1.80991 12.9061 2.8312 13.7281 3.69457C14.0613 4.04459 14.3699 4.36866 14.6212 4.6326C14.8621 4.8851 14.6856 5.30427 14.3374 5.3051Z" fill="#6D7895"/>
</svg>
