<svg width="16" height="18" viewBox="0 0 16 18" fill="none" xmlns="http://www.w3.org/2000/svg">
    <path fill-rule="evenodd" clip-rule="evenodd"
          d="M14.9059 3.36914C15.2301 3.36914 15.5 3.6383 15.5 3.9808V4.29746C15.5 4.63163 15.2301 4.90913 14.9059 4.90913H1.09488C0.769883 4.90913 0.5 4.63163 0.5 4.29746V3.9808C0.5 3.6383 0.769883 3.36914 1.09488 3.36914H3.52464C4.01821 3.36914 4.44775 3.01831 4.55879 2.52332L4.68603 1.95499C4.88378 1.18083 5.53458 0.666668 6.27939 0.666668H9.72061C10.4573 0.666668 11.1154 1.18083 11.3059 1.91416L11.442 2.52248C11.5522 3.01831 11.9818 3.36914 12.4762 3.36914H14.9059ZM13.6715 14.945C13.9252 12.5809 14.3693 6.96429 14.3693 6.90762C14.3855 6.73596 14.3296 6.57346 14.2186 6.44263C14.0994 6.32013 13.9487 6.24763 13.7825 6.24763H2.22376C2.05681 6.24763 1.89796 6.32013 1.78774 6.44263C1.67589 6.57346 1.62078 6.73596 1.62889 6.90762C1.63037 6.91804 1.64631 7.11588 1.67295 7.44663C1.79131 8.916 2.12097 13.0085 2.33399 14.945C2.48473 16.3717 3.42081 17.2684 4.77671 17.3009C5.82302 17.325 6.90093 17.3334 8.00316 17.3334C9.04136 17.3334 10.0958 17.325 11.1745 17.3009C12.5774 17.2767 13.5127 16.3959 13.6715 14.945Z"
          fill="#6D7895"/>
</svg>
