<svg width="40" height="40" viewBox="0 0 40 40" fill="none" xmlns="http://www.w3.org/2000/svg">
<path d="M25.9608 10.6419H14.0389C12.1361 10.6419 10.5879 12.1901 10.5879 14.093V26.0148C10.5879 27.9177 12.1361 29.4663 14.0389 29.4663H25.9608C27.8637 29.4663 29.4123 27.9182 29.4123 26.0148V14.093C29.4123 12.1901 27.8641 10.6419 25.9608 10.6419ZM19.9999 26.251C16.5831 26.251 13.8032 23.4711 13.8032 20.0539C13.8032 16.6372 16.5831 13.8572 19.9999 13.8572C23.4171 13.8572 26.197 16.6372 26.197 20.0539C26.197 23.4707 23.4166 26.251 19.9999 26.251ZM26.3962 15.1385C25.5873 15.1385 24.9296 14.4807 24.9296 13.6723C24.9296 12.8639 25.5873 12.2061 26.3962 12.2061C27.2046 12.2061 27.8623 12.8639 27.8623 13.6723C27.8623 14.4807 27.2046 15.1385 26.3962 15.1385Z" fill="#6A453B"/>
<path d="M20.0004 16.4759C18.028 16.4759 16.4219 18.0811 16.4219 20.0535C16.4219 22.0268 18.028 23.6324 20.0004 23.6324C21.9737 23.6324 23.5785 22.0268 23.5785 20.0535C23.5785 18.0815 21.9732 16.4759 20.0004 16.4759Z" fill="#6A453B"/>
<path d="M20 0C8.95475 0 0 8.95475 0 20C0 31.0453 8.95475 40 20 40C31.0453 40 40 31.0453 40 20C40 8.95475 31.0453 0 20 0ZM32.0306 26.0148C32.0306 29.3621 29.3081 32.0845 25.9609 32.0845H14.0391C10.6923 32.0845 7.96943 29.3621 7.96943 26.0148V14.093C7.96943 10.7462 10.6923 8.02335 14.0391 8.02335H25.9609C29.3081 8.02335 32.0306 10.7462 32.0306 14.093V26.0148Z" fill="#6A453B"/>
</svg>
