<svg width="40" height="40" viewBox="0 0 40 40" fill="none" xmlns="http://www.w3.org/2000/svg">
<g clip-path="url(#clip0)">
<path d="M20 40.0001C31.0458 40.0001 40.0001 31.0458 40.0001 20C40.0001 8.95432 31.0458 0 20 0C8.95432 0 0 8.95432 0 20C0 31.0458 8.95432 40.0001 20 40.0001Z" fill="#D42028"/>
<path d="M14.637 10.3862C11.6305 11.5771 9.58853 13.8711 9.01789 16.9613C8.66763 18.8602 8.80065 20.93 9.63849 22.703C9.82544 23.0968 10.0494 23.4764 10.3159 23.8273C10.445 23.9984 10.5837 24.162 10.734 24.3174C11.0009 24.222 11.2582 24.1032 11.5039 23.9643C12.5202 23.3908 13.2699 22.5069 14.1402 21.7644C11.231 18.3941 14.3139 14.2183 18.1703 13.2872C21.7603 12.422 26.626 13.9153 27.7149 17.6094C28.1652 19.1391 27.8703 20.8303 26.6228 21.9379C25.9707 22.5177 25.1424 22.9008 24.2669 23.0568C23.7556 23.1474 23.2307 23.1616 22.7137 23.1111C22.4257 23.0821 22.1396 23.0334 21.8576 22.9671C21.38 22.8547 20.9553 22.8712 20.9553 22.3561C20.9553 21.0104 20.9553 19.6641 20.9553 18.3175C20.9553 17.6452 20.9553 16.9716 20.9553 16.2979C20.9553 15.8852 20.9958 15.9628 20.6534 15.9205C20.3831 15.8874 20.1134 15.8612 19.8428 15.8397C18.8903 15.7652 17.8945 15.714 16.9499 15.8766C16.5966 15.9376 16.5741 15.8808 16.5741 16.2641C16.5741 16.5746 16.5741 16.885 16.5741 17.1945C16.5741 17.9493 16.5741 18.7037 16.5741 19.4585C16.5741 21.714 16.744 23.9961 16.6508 26.248C16.6236 26.9191 16.605 28.5297 15.8541 28.862C14.9837 29.247 14.2141 28.4328 13.411 28.2633C13.5216 29.3939 12.8141 31.6335 14.132 32.2042C15.3402 32.7271 16.7307 32.922 18.0044 32.49C20.6733 31.5848 21.5363 28.6147 21.1981 26.1742C25.3177 27.4052 29.7643 25.3458 31.5259 21.6259C32.7806 18.9769 32.2506 15.6868 30.3618 13.4345C26.8239 9.21424 19.6435 8.40518 14.637 10.3862Z" fill="white"/>
</g>
<defs>
<clipPath id="clip0">
<rect width="40" height="40" fill="white"/>
</clipPath>
</defs>
</svg>
