<svg width="40" height="40" viewBox="0 0 40 40" fill="none" xmlns="http://www.w3.org/2000/svg">
<circle cx="20" cy="20" r="20" fill="#7AA5DA"/>
<path fill-rule="evenodd" clip-rule="evenodd" d="M31.4242 11.6555C31.5993 10.8178 30.7751 10.1202 29.9777 10.4313L9.03765 18.5902C8.36022 18.8555 8.40062 19.8278 9.0996 20.0339L14.4208 21.6056L16.406 27.9073C16.6134 28.5646 17.4471 28.7653 17.9306 28.2723L20.6821 25.4629L26.0801 29.4252C26.74 29.91 27.6814 29.5491 27.8484 28.7477L31.4242 11.6555ZM27.0511 13.8185C27.3151 13.6542 27.5858 14.0178 27.3528 14.2239L17.6262 22.8246C17.5291 22.9108 17.4672 23.0293 17.4537 23.1586L17.1036 28.4003C17.0901 28.5094 16.9393 28.5242 16.9083 28.4192L15.3419 21.541C15.2706 21.3134 15.3635 21.067 15.5655 20.9417L27.0511 13.8185Z" fill="white"/>
<path d="M27.0513 13.8185C27.3153 13.6542 27.586 14.0178 27.353 14.2239L17.6264 22.8246C17.5295 22.9108 17.4675 23.0293 17.454 23.1586L17.1039 28.4003C17.0904 28.5094 16.9396 28.5242 16.9086 28.4191L15.3422 21.541C15.2708 21.3134 15.3638 21.0669 15.5658 20.9417L27.0513 13.8185Z" fill="#9EC2E5"/>
<path d="M16.9649 28.4904C16.7117 28.4002 16.4976 28.1981 16.406 27.9072L14.4208 21.6055L9.0996 20.0338C8.40062 19.8277 8.36022 18.8553 9.03765 18.59L29.9776 10.4312C30.4921 10.2305 31.0187 10.45 31.2787 10.8568C31.2301 10.7827 31.1723 10.7141 31.1076 10.6534L16.9016 22.2507V22.7584L16.8234 22.7019L16.9016 25.8992V28.4635C16.9218 28.473 16.9433 28.481 16.9648 28.4877V28.4904H16.9649Z" fill="white"/>
<path d="M17.9131 28.3459C17.8717 28.3804 17.8303 28.4126 17.7867 28.4424V28.4402C17.8304 28.4103 17.8717 28.3804 17.9131 28.3459Z" fill="#DADDE0"/>
<path d="M17.8129 28.4207V28.4229C17.8129 28.4229 17.8129 28.4207 17.8107 28.4229C17.8107 28.4229 17.8107 28.4229 17.8129 28.4207Z" fill="#DADDE0"/>
<path d="M17.625 28.5284C17.6802 28.4924 17.7327 28.4479 17.7839 28.395C17.7327 28.4478 17.6788 28.4923 17.625 28.5284Z" fill="#DADDE0"/>
<path d="M17.1855 28.577C17.3041 28.5977 17.4239 28.5816 17.5411 28.5218C17.4563 28.5678 17.3687 28.5885 17.2812 28.5885C17.2542 28.5885 17.2273 28.5862 17.2017 28.5816C17.1963 28.5817 17.1909 28.5817 17.1855 28.577Z" fill="#DADDE0"/>
<path d="M17.3355 28.5763C17.2903 28.5763 17.245 28.5741 17.2021 28.5694C17.245 28.5741 17.2903 28.5763 17.3355 28.5763Z" fill="white"/>
<path d="M17.2277 28.5699C17.2366 28.5745 17.2455 28.5745 17.2544 28.5745C17.2077 28.5722 17.1655 28.5653 17.1211 28.5561C17.1566 28.5631 17.1921 28.5677 17.2277 28.5699Z" fill="white"/>
<path d="M17.2271 28.5728C17.1957 28.5705 17.1643 28.5659 17.133 28.5591C17.1192 28.5568 17.1056 28.5545 17.0938 28.5499C17.1369 28.5591 17.1819 28.5683 17.2271 28.5728Z" fill="#DADDE0"/>
<path d="M16.9932 28.5172C17.0376 28.5333 17.0821 28.547 17.1265 28.5609C17.1083 28.5564 17.0902 28.5517 17.072 28.5472C17.0639 28.5449 17.0558 28.5426 17.0498 28.538C17.0315 28.5333 17.0113 28.5264 16.9932 28.5172Z" fill="#DADDE0"/>
<path d="M17.0611 28.5408C17.0817 28.5453 17.1024 28.55 17.1231 28.5545C17.1024 28.5522 17.0817 28.5477 17.0611 28.5408Z" fill="white"/>
<path d="M17.0159 28.5244C17.0366 28.5336 17.0596 28.5405 17.0803 28.5451C17.0458 28.5381 17.0114 28.5267 16.9768 28.5129C16.9906 28.5175 17.002 28.5221 17.0159 28.5244Z" fill="white"/>
<path d="M17.0312 28.5301C17.0175 28.5278 17.0059 28.5231 16.9922 28.5186C16.9899 28.5209 16.9852 28.5186 16.983 28.5163V28.5118C16.999 28.5209 17.0151 28.5254 17.0312 28.5301Z" fill="#DADDE0"/>
<path d="M16.9072 25.8993L17.0152 28.4878C16.9784 28.4811 16.9416 28.4729 16.9072 28.4636V25.8993Z" fill="#D1D1D1"/>
<path d="M16.9566 22.7586V25.8993L16.8232 22.702L16.9566 22.7586Z" fill="#DADDE0"/>
<path d="M27.353 14.2238L17.6264 22.8245C17.5295 22.9107 17.4675 23.0292 17.454 23.1585L17.1045 28.4007C17.0911 28.5098 16.9402 28.5246 16.9078 28.4195L15.3422 21.541C15.2708 21.3134 15.3638 21.067 15.5658 20.9417L27.0514 13.8185C27.3154 13.6542 27.5861 14.0178 27.353 14.2238Z" fill="#ADBCC9"/>
</svg>
