<svg width="40" height="40" viewBox="0 0 40 40" fill="none" xmlns="http://www.w3.org/2000/svg">
<g clip-path="url(#clip0)">
<path d="M20 40.0001C31.0458 40.0001 40.0001 31.0458 40.0001 20C40.0001 8.95432 31.0458 0 20 0C8.95432 0 0 8.95432 0 20C0 31.0458 8.95432 40.0001 20 40.0001Z" fill="#13B3CA"/>
<path d="M26.1427 25.563H20.4384C19.6451 25.563 18.9711 25.2854 18.4172 24.728C17.8614 24.1699 17.5857 23.496 17.5857 22.6989V20.6689H25.7133C26.446 20.6689 27.0776 20.4055 27.6019 19.8822C28.1261 19.3548 28.3895 18.7242 28.3895 17.9899C28.3895 17.2541 28.1261 16.624 27.6006 16.0982C27.0744 15.574 26.4409 15.3109 25.7051 15.3109H17.5856V11.1173C17.5856 10.3234 17.303 9.64378 16.7399 9.07787C16.1806 8.51104 15.5045 8.22644 14.7181 8.22644C13.9093 8.22644 13.2225 8.5069 12.6616 9.06141C12.1004 9.61786 11.8203 10.3032 11.8203 11.1202V22.7011C11.8203 25.0832 12.6616 27.1179 14.3474 28.8076C16.0332 30.499 18.0654 31.3432 20.4416 31.3432H26.1447C26.9361 31.3432 27.6157 31.0589 28.1813 30.4914C28.747 29.927 29.029 29.2465 29.029 28.4535C29.029 27.6602 28.747 26.9809 28.1813 26.4137C27.6156 25.8484 26.9351 25.563 26.1427 25.563Z" fill="white"/>
</g>
<defs>
<clipPath id="clip0">
<rect width="40" height="40" fill="white"/>
</clipPath>
</defs>
</svg>
