<svg width="40" height="40" viewBox="0 0 40 40" fill="none" xmlns="http://www.w3.org/2000/svg">
<circle cx="20" cy="20" r="20" fill="#6F3FAA"/>
<path fill-rule="evenodd" clip-rule="evenodd" d="M30.5739 14.0302L30.5805 14.0566C31.2411 17.0737 31.2411 20.1332 30.5804 23.1503L30.5739 23.1767C30.0395 25.3369 27.6303 27.6552 25.4178 28.1374L25.3929 28.1426C23.6039 28.4838 21.8018 28.6542 20.0004 28.6542C19.4704 28.6542 18.9401 28.6377 18.4101 28.6081L15.9668 31.1478C15.3619 31.7778 14.2982 31.3491 14.2982 30.4762V28.0646C12.1683 27.4564 9.93855 25.2447 9.42621 23.1766L9.42027 23.1502C8.75965 20.1332 8.75965 17.0735 9.42027 14.0566L9.42621 14.0302C9.96129 11.8699 12.3706 9.55166 14.5823 9.06939L14.608 9.06424C18.1858 8.38158 21.8143 8.38158 25.3929 9.06424L25.4179 9.06939C27.6304 9.55166 30.0396 11.8698 30.5739 14.0302ZM25.0073 26.1981C26.4608 25.8744 28.29 24.1222 28.6468 22.7128C29.2421 19.9857 29.2421 17.2212 28.6469 14.4941C28.2901 13.0846 26.4615 11.3324 25.0074 11.0087C21.685 10.3767 18.3156 10.3767 14.9925 11.0087C13.539 11.3324 11.7105 13.0846 11.353 14.4941C10.7584 17.2211 10.7584 19.9856 11.353 22.7127C11.7105 24.1221 13.539 25.8743 14.9925 26.1981L14.9936 26.1983C15.0584 26.2111 15.1055 26.2671 15.1055 26.3331V30.3281C15.1055 30.5278 15.3493 30.6263 15.488 30.4816L17.3855 28.5341L19.1695 26.7027C19.196 26.6753 19.2326 26.6605 19.2708 26.6616C21.1867 26.7146 23.1046 26.56 25.0073 26.1981Z" fill="white"/>
<path d="M23.1615 24.5567C22.9381 24.4888 22.7252 24.4432 22.5273 24.3613C20.478 23.511 18.5921 22.4142 17.0982 20.7328C16.2487 19.7767 15.5838 18.6973 15.0218 17.5549C14.7552 17.0132 14.5306 16.4503 14.3016 15.891C14.0929 15.381 14.4004 14.8541 14.7241 14.4697C15.0279 14.109 15.4189 13.8331 15.8424 13.6295C16.1729 13.4708 16.4988 13.5624 16.7402 13.8424C17.2619 14.4481 17.7413 15.0846 18.1293 15.7867C18.3679 16.2185 18.3025 16.7463 17.8699 17.0401C17.7647 17.1115 17.6689 17.1954 17.5711 17.276C17.4851 17.3467 17.4043 17.4181 17.3454 17.5138C17.2379 17.6889 17.2327 17.8956 17.3019 18.086C17.8353 19.5517 18.7343 20.6915 20.2096 21.3055C20.4457 21.4037 20.6828 21.518 20.9548 21.4863C21.4103 21.4331 21.5578 20.9335 21.877 20.6724C22.1889 20.4174 22.5877 20.414 22.9237 20.6267C23.2599 20.8395 23.5857 21.0677 23.9096 21.2986C24.2275 21.5252 24.544 21.7467 24.8372 22.005C25.1193 22.2534 25.2164 22.5792 25.0575 22.9161C24.7669 23.5334 24.3439 24.0467 23.7338 24.3745C23.5615 24.4669 23.3557 24.4968 23.1615 24.5567C23.3557 24.4968 22.9381 24.4888 23.1615 24.5567Z" fill="white"/>
<path d="M20.0055 12.9237C22.6859 12.9989 24.8875 14.7777 25.3593 17.4277C25.4397 17.8793 25.4683 18.3408 25.5041 18.7992C25.5192 18.9919 25.41 19.1751 25.202 19.1776C24.9872 19.1802 24.8905 19.0004 24.8765 18.8078C24.8489 18.4264 24.8297 18.0432 24.7772 17.6651C24.4997 15.6683 22.9075 14.0163 20.92 13.6619C20.6209 13.6085 20.315 13.5945 20.0119 13.5627C19.8204 13.5426 19.5697 13.5311 19.5272 13.2929C19.4917 13.0933 19.6601 12.9344 19.8502 12.9242C19.9017 12.9212 19.9536 12.9236 20.0055 12.9237C19.9536 12.9236 22.6861 12.9989 20.0055 12.9237Z" fill="white"/>
<path d="M24.079 18.2047C24.0746 18.2382 24.0723 18.3169 24.0526 18.3909C23.9815 18.66 23.5734 18.6937 23.4796 18.4222C23.4517 18.3417 23.4475 18.2499 23.4474 18.1632C23.4464 17.5956 23.3231 17.0284 23.0368 16.5344C22.7425 16.0267 22.2928 15.6 21.7655 15.3417C21.4466 15.1856 21.1018 15.0885 20.7523 15.0307C20.5996 15.0054 20.4452 14.9902 20.2917 14.9688C20.1057 14.9429 20.0063 14.8244 20.0152 14.6411C20.0234 14.4694 20.1489 14.3457 20.3361 14.3564C20.9512 14.3913 21.5454 14.5244 22.0924 14.8139C23.2044 15.4029 23.8397 16.3324 24.0252 17.5738C24.0336 17.6301 24.047 17.6857 24.0513 17.7421C24.0618 17.8813 24.0684 18.0208 24.079 18.2047C24.0684 18.0208 24.0746 18.2381 24.079 18.2047Z" fill="white"/>
<path d="M22.4118 18.1397C22.1876 18.1437 22.0676 18.0195 22.0444 17.814C22.0284 17.6708 22.0156 17.5255 21.9814 17.3859C21.914 17.1112 21.768 16.8566 21.5369 16.6883C21.4278 16.6088 21.3042 16.5509 21.1747 16.5134C21.0103 16.4658 20.8393 16.479 20.6753 16.4388C20.4971 16.3951 20.3986 16.2508 20.4266 16.0837C20.4521 15.9315 20.6 15.8127 20.7664 15.8248C21.8056 15.8998 22.5483 16.4371 22.6543 17.6605C22.6619 17.7469 22.6707 17.838 22.6515 17.9208C22.6186 18.0619 22.5139 18.1328 22.4118 18.1397C22.5139 18.1328 22.1875 18.1437 22.4118 18.1397Z" fill="white"/>
<path d="M23.1685 24.6013C23.3827 24.4992 22.922 24.4854 23.1685 24.6013V24.6013Z" fill="white"/>
<path d="M20.0428 12.9521C20.0389 12.9521 20.0352 12.9517 20.0313 12.9517C20.0276 12.9514 20.0324 12.9517 20.0428 12.9521Z" fill="white"/>
<path d="M20.0059 12.9397C20.0081 12.9397 20.0103 12.9401 20.0126 12.9401C20.1613 12.9492 22.5807 13.0629 20.0059 12.9397Z" fill="white"/>
<path d="M24.1088 18.2572C24.0907 17.9443 24.1012 18.3139 24.1088 18.2572V18.2572Z" fill="white"/>
<path d="M22.4457 18.1681C22.4517 18.1677 22.4574 18.1646 22.4631 18.164C22.447 18.164 22.4222 18.1644 22.3967 18.1653C22.4133 18.1657 22.4283 18.1682 22.4457 18.1681Z" fill="white"/>
<path d="M22.4644 18.1674C22.4477 18.1677 22.4329 18.1651 22.4169 18.1646C22.3365 18.1669 22.2536 18.1713 22.4644 18.1674Z" fill="white"/>
<path d="M22.4497 18.164C22.4437 18.1646 22.4379 18.1677 22.4322 18.1681C22.477 18.165 22.4731 18.164 22.4497 18.164Z" fill="white"/>
</svg>
