<svg width="40" height="40" viewBox="0 0 40 40" fill="none" xmlns="http://www.w3.org/2000/svg">
<path d="M0 20C0 31.0457 8.95431 40 20 40C31.0457 40 40 31.0457 40 20C40 8.95431 31.0457 0 20 0C8.95431 0 0 8.95431 0 20Z" fill="#1BD741"/>
<path d="M6.01172 34.0034L7.97103 27.0446C6.71108 24.9041 6.0477 22.4687 6.0477 19.9669C6.0477 12.2636 12.3147 5.99661 20.018 5.99661C27.7212 5.99661 33.9881 12.2636 33.9881 19.9669C33.9881 27.6701 27.7212 33.9371 20.018 33.9371C17.6177 33.9371 15.2674 33.3227 13.1881 32.1561L6.01172 34.0034ZM13.555 29.6145L13.9826 29.8756C15.7955 30.9823 17.8825 31.5673 20.018 31.5673C26.4145 31.5673 31.6183 26.3634 31.6183 19.9669C31.6183 13.5704 26.4145 8.36643 20.018 8.36643C13.6215 8.36643 8.41752 13.5704 8.41752 19.9669C8.41752 22.1956 9.05097 24.36 10.2492 26.2259L10.5372 26.6743L9.4089 30.6818L13.555 29.6145Z" fill="white"/>
<path d="M16.0939 13.4647L15.1874 13.4153C14.9026 13.3998 14.6233 13.4949 14.4081 13.6819C13.9687 14.0635 13.266 14.8013 13.0501 15.7627C12.7283 17.1963 13.2257 18.9517 14.513 20.7072C15.8004 22.4626 18.1994 25.2712 22.4416 26.4708C23.8087 26.8574 24.884 26.5968 25.7137 26.066C26.3709 25.6457 26.8239 24.971 26.9871 24.2083L27.1319 23.5322C27.1779 23.3174 27.0688 23.0994 26.8692 23.0074L23.8055 21.5952C23.6066 21.5036 23.3708 21.5615 23.237 21.7349L22.0343 23.294C21.9435 23.4118 21.7879 23.4585 21.6475 23.4092C20.8238 23.1197 18.0648 21.9642 16.551 19.0481C16.4853 18.9216 16.5016 18.7681 16.5948 18.6602L17.7442 17.3305C17.8617 17.1947 17.8913 17.0038 17.8208 16.8388L16.5002 13.7492C16.4298 13.5847 16.2723 13.4745 16.0939 13.4647Z" fill="white"/>
</svg>
