<svg width="40" height="40" viewBox="0 0 40 40" fill="none" xmlns="http://www.w3.org/2000/svg">
<g clip-path="url(#clip0)">
<path d="M20 40.0001C31.0458 40.0001 40.0001 31.0458 40.0001 20C40.0001 8.95432 31.0458 0 20 0C8.95432 0 0 8.95432 0 20C0 31.0458 8.95432 40.0001 20 40.0001Z" fill="#D42428"/>
<path d="M30.4666 16.1406C30.4666 14.464 29.1084 13.105 27.4327 13.105H13.1984C11.523 13.105 10.165 14.4643 10.165 16.1406V24.2805C10.165 25.9571 11.5233 27.3161 13.1984 27.3161H27.4324C29.1085 27.3161 30.4664 25.9568 30.4664 24.2805V16.1406H30.4666ZM18.285 23.6445V15.9991L24.0829 19.822L18.285 23.6445Z" fill="white"/>
</g>
<defs>
<clipPath id="clip0">
<rect width="40" height="40" fill="white"/>
</clipPath>
</defs>
</svg>
