<svg width="24" height="24" viewBox="0 0 24 24" fill="none" xmlns="http://www.w3.org/2000/svg">
<path d="M16.5002 3V12L13.4995 9.75L10.5002 12V3H6.75C6.45453 3 6.16194 3.0582 5.88896 3.17127C5.61598 3.28434 5.36794 3.45008 5.15901 3.65901C4.95008 3.86794 4.78434 4.11598 4.67127 4.38896C4.5582 4.66194 4.5 4.95453 4.5 5.25V21C4.5 20.7045 4.5582 20.4119 4.67127 20.139C4.78434 19.866 4.95008 19.6179 5.15901 19.409C5.36794 19.2001 5.61598 19.0343 5.88896 18.9213C6.16194 18.8082 6.45453 18.75 6.75 18.75H19.5V3H16.5002Z" fill="#FFDDD4"/>
<path d="M4.5 21C4.5 20.4033 4.73705 19.831 5.15901 19.409C5.58097 18.9871 6.15326 18.75 6.75 18.75H19.5V3H6.75C6.15326 3 5.58097 3.23705 5.15901 3.65901C4.73705 4.08097 4.5 4.65326 4.5 5.25V21Z" stroke="#E9856B" stroke-width="2" stroke-linecap="round" stroke-linejoin="round"/>
<path d="M4.5 21V21.75H18" stroke="#E9856B" stroke-width="2" stroke-linecap="round" stroke-linejoin="round"/>
<path d="M16.5002 3V12L13.4996 9.75L10.5002 12V3" stroke="#E9856B" stroke-width="2" stroke-linecap="round" stroke-linejoin="round"/>
</svg>
