<svg width="9" height="15" viewBox="0 0 9 15" fill="none" xmlns="http://www.w3.org/2000/svg">
<path d="M8.1 9H0.9C0.4041 9 0 9.38486 0 9.85714C0 10.0191 0.0449998 10.1717 0.1386 10.3217C0.1548 10.3474 0.1728 10.3723 0.1926 10.3954L3.8448 14.736C4.0248 14.9066 4.257 15 4.5 15C4.743 15 4.9752 14.9066 5.2074 14.682L8.8074 10.3963C8.8272 10.3731 8.8452 10.3474 8.8614 10.3226C8.955 10.1717 9 10.0191 9 9.85714C9 9.38486 8.5959 9 8.1 9Z" fill="#727486"/>
<path d="M0.9 6H8.1C8.5959 6 9 5.61542 9 5.14347C9 4.98158 8.955 4.82912 8.8614 4.67923C8.8452 4.65353 8.8272 4.62869 8.8074 4.60557L5.1552 0.268094C4.7952 -0.0710921 4.257 -0.12591 3.7926 0.322912L0.1926 4.60557C0.1728 4.62869 0.1548 4.65439 0.1386 4.67923C0.0449998 4.82912 0 4.98158 0 5.14347C0 5.61542 0.4041 6 0.9 6Z" fill="#727486"/>
</svg>
