<svg width="117" height="88" viewBox="0 0 117 88" fill="none" xmlns="http://www.w3.org/2000/svg">
<path d="M36.1956 37.3692L5.74367 6.91632C4.42923 5.60276 2.2996 5.60276 0.985163 6.91632C-0.328388 8.23076 -0.328388 10.3604 0.985163 11.6748L31.438 42.1268L36.1956 37.3692Z" fill="#BF7765"/>
<path d="M50.6741 49.9777C50.6741 38.0213 60.3673 28.3281 72.3245 28.3281C84.2809 28.3281 93.9741 38.0213 93.9741 49.9777H50.6741Z" fill="#FFDCD4"/>
<path d="M72.3244 28.3281C71.5608 28.3281 70.8071 28.3682 70.064 28.4456C80.9586 29.5758 89.4531 38.784 89.4531 49.9777H93.974C93.974 38.0213 84.2808 28.3281 72.3244 28.3281Z" fill="#FFB4A1"/>
<path d="M58.0498 49.9778C58.0498 42.0947 64.4405 35.7031 72.3244 35.7031C80.2075 35.7031 86.5991 42.0947 86.5991 49.9778H58.0498Z" fill="#FFB4A1"/>
<path d="M65.1873 49.9776C65.1873 46.0361 68.3821 42.8403 72.3246 42.8403C76.2661 42.8403 79.4619 46.0361 79.4619 49.9776H65.1873Z" fill="#FFDCD4"/>
<path d="M72.3245 42.8403C71.5779 42.8403 70.8588 42.9551 70.1833 43.1678C73.0783 44.0773 75.1795 46.7819 75.1795 49.9776H79.4619C79.4619 46.0361 76.2661 42.8403 72.3245 42.8403Z" fill="#FFDCD4"/>
<path d="M56.5947 24.2326C57.1857 23.6417 58.1646 23.6755 58.6959 24.3207C63.7641 30.4889 63.417 39.6161 57.6538 45.3785C51.5221 51.5111 41.5806 51.5111 35.448 45.3785L56.5947 24.2326Z" fill="#E68F7A"/>
<path d="M61.9976 31.4653C61.6238 34.8969 60.1251 38.2289 57.4954 40.8586C52.1664 46.1876 43.9612 46.8826 37.8784 42.9491L35.448 45.3786C41.5806 51.5112 51.5221 51.5112 57.6547 45.3786C61.4378 41.5946 62.8839 36.3609 61.9976 31.4653Z" fill="#CE7E6A"/>
<path d="M52.1869 28.6406C55.299 31.7527 55.299 36.7996 52.1869 39.9117C49.0738 43.0238 44.0279 43.0238 40.9158 39.9117L52.1869 28.6406Z" fill="#CE7E6A"/>
<path d="M31.8153 26.4921C31.8678 25.6386 31.1594 24.9302 30.306 24.9827C26.4223 25.223 16.3161 26.3515 11.0192 31.6475C2.94476 39.7228 9.00079 47.7972 9.00079 47.7972C9.00079 47.7972 17.0761 53.8541 25.1505 45.7788C30.4475 40.4819 31.575 30.3758 31.8153 26.4921Z" fill="#E68F7A"/>
<path d="M28.2751 25.1518C27.7927 29.8133 26.3145 37.8726 21.7794 42.4077C16.2689 47.9183 10.7593 46.8477 7.81445 45.6115C8.39024 46.982 9.00074 47.7972 9.00074 47.7972C9.00074 47.7972 17.0752 53.8533 25.1505 45.7788C30.4465 40.4819 31.575 30.3758 31.8143 26.4921C31.8677 25.6377 31.1593 24.9302 30.305 24.9827C29.7461 25.0174 29.0591 25.0708 28.2751 25.1518Z" fill="#FFDCD4"/>
<path d="M30.6806 0.803277C29.8173 0.743651 29.1 1.46005 29.1606 2.32418C29.3964 5.70684 30.3949 13.6398 34.6123 17.8581C41.2424 24.4881 47.8724 19.5151 47.8724 19.5151C47.8724 19.5151 52.8445 12.8851 46.2145 6.25594C41.997 2.03762 34.0632 1.03911 30.6806 0.803277Z" fill="#E68F7A"/>
<path d="M46.2145 6.25514C45.676 5.71673 45.0762 5.23171 44.4337 4.79297C48.49 10.7102 44.4533 16.0961 44.4533 16.0961C44.4533 16.0961 39.0674 20.1329 33.1501 16.0765C33.5889 16.719 34.0739 17.3189 34.6123 17.8582C41.2424 24.4873 47.8724 19.5152 47.8724 19.5152C47.8724 19.5152 52.8445 12.8852 46.2145 6.25514Z" fill="#FFDCD4"/>
<path d="M80.5788 14.6027C79.7155 14.5422 78.9982 15.2595 79.0587 16.1227C79.2946 19.5054 80.2922 27.4383 84.5105 31.6566C91.1406 38.2867 97.7697 33.3146 97.7697 33.3146C97.7697 33.3146 102.743 26.6845 96.1127 20.0545C91.8943 15.8361 83.9614 14.8385 80.5788 14.6027Z" fill="#E68F7A"/>
<path d="M96.1126 20.0547C95.5902 19.5314 95.0091 19.0579 94.3879 18.6299C98.5083 24.5684 94.444 29.9882 94.444 29.9882C94.444 29.9882 89.0252 34.0516 83.0857 29.9312C83.5146 30.5533 83.9881 31.1335 84.5105 31.6568C91.1405 38.2869 97.7706 33.3139 97.7706 33.3139C97.7706 33.3139 102.743 26.6847 96.1126 20.0547Z" fill="#FFDCD4"/>
<path d="M40.6828 40.4618C40.6828 45.7178 36.4218 49.978 31.1658 49.978C25.9107 49.978 21.6497 45.7178 21.6497 40.4618C21.6497 35.2059 25.9107 30.9448 31.1658 30.9448C36.4218 30.9448 40.6828 35.2059 40.6828 40.4618Z" fill="#FFB4A1"/>
<path d="M36.6681 32.6997C37.7716 34.2535 38.4222 36.1509 38.4222 38.2013C38.4222 43.4573 34.1612 47.7174 28.9061 47.7174C26.8548 47.7174 24.9574 47.0669 23.4036 45.9634C25.1283 48.392 27.9609 49.9779 31.1656 49.9779C36.4216 49.9779 40.6826 45.7177 40.6826 40.4618C40.6817 37.2562 39.0959 34.4235 36.6681 32.6997Z" fill="#FFDCD4"/>
<path d="M34.7342 40.4617C34.7342 42.4321 33.1368 44.0304 31.1656 44.0304C29.1953 44.0304 27.5969 42.4321 27.5969 40.4617C27.5969 38.4905 29.1953 36.8931 31.1656 36.8931C33.1368 36.8931 34.7342 38.4905 34.7342 40.4617Z" fill="#FFDCD4"/>
<path d="M83.2681 49.978C83.2681 41.3064 90.2977 34.2759 98.9702 34.2759C107.642 34.2759 114.672 41.3064 114.672 49.978H83.2681Z" fill="#E68F7A"/>
<path d="M98.9702 34.2759C98.325 34.2759 97.6914 34.3195 97.0667 34.3951C104.84 35.3349 110.865 41.9507 110.865 49.978H114.672C114.672 41.3064 107.642 34.2759 98.9702 34.2759Z" fill="#CE7E6A"/>
<path d="M91 49.9777C91 45.5761 94.5687 42.0083 98.9703 42.0083C103.372 42.0083 106.94 45.5761 106.94 49.9777H91Z" fill="#CE7E6A"/>
<path d="M9.00086 49.5816C8.54432 49.5816 8.08778 49.4072 7.73893 49.0592C7.0421 48.3624 7.0421 47.2322 7.73893 46.5362L14.9955 39.2788C15.6923 38.5829 16.8225 38.5829 17.5185 39.2788C18.2162 39.9756 18.2162 41.1058 17.5185 41.8027L10.2628 49.0592C9.91394 49.4072 9.4574 49.5816 9.00086 49.5816Z" fill="#FFDCD4"/>
<path d="M49.7228 25.3539C49.7112 25.3539 49.6997 25.3539 49.689 25.3539C48.7029 25.3352 47.9198 24.5218 47.9385 23.5367C47.9607 22.3353 46.9124 21.0698 46.6303 20.7966C46.624 20.7903 46.6169 20.7832 46.6107 20.777L40.3695 14.5358C39.6727 13.839 39.6727 12.7088 40.3695 12.0129C41.0664 11.316 42.1966 11.316 42.8925 12.0129L49.1257 18.2451C49.4265 18.5397 51.5596 20.7316 51.5062 23.6034C51.4884 24.577 50.6928 25.3539 49.7228 25.3539Z" fill="#FFDCD4"/>
<path d="M97.7705 35.099C97.3139 35.099 96.8574 34.9246 96.5094 34.5766L90.2665 28.3337C89.5697 27.6369 89.5697 26.5075 90.2665 25.8107C90.9633 25.1139 92.0927 25.1139 92.7904 25.8107L99.0324 32.0527C99.7292 32.7496 99.7292 33.8798 99.0324 34.5766C98.6845 34.9246 98.227 35.099 97.7705 35.099Z" fill="#FFDCD4"/>
<path d="M94.6878 79.9839L94.2259 81.1399C92.7806 84.7531 89.2814 87.1212 85.3897 87.1212H31.6614C27.7697 87.1212 24.2704 84.7522 22.8252 81.1399L22.3633 79.9839H94.6878Z" fill="#E7C7BF"/>
<path d="M58.5251 45.7256H2.30845C1.11148 45.7256 0.211755 46.8167 0.44047 47.9923L3.6665 64.5843C5.40544 73.5273 13.2387 79.9847 22.349 79.9847H94.7011C103.812 79.9847 111.645 73.5282 113.384 64.5843L116.61 47.9923C116.838 46.8167 115.939 45.7256 114.742 45.7256L58.5251 45.7256Z" fill="#FFD9CA"/>
<path d="M98.6337 64.5842C96.8947 73.5272 89.0615 79.9837 79.9512 79.9837H94.701C103.812 79.9837 111.645 73.5272 113.384 64.5842L116.61 47.9913C116.838 46.8166 115.939 45.7246 114.742 45.7246H102.301L98.6337 64.5842Z" fill="#F5CDC2"/>
</svg>
