<svg width="18" height="18" viewBox="0 0 18 18" fill="none" xmlns="http://www.w3.org/2000/svg">
<path d="M16 0H2C0.89543 0 0 0.89543 0 2V16C0 17.1046 0.89543 18 2 18H16C17.1046 18 18 17.1046 18 16V2C18 0.89543 17.1046 0 16 0Z" fill="#E9856B"/>
<path fill-rule="evenodd" clip-rule="evenodd" d="M9 3C8.4477 3 8 3.44772 8 4V8H4C3.44772 8 3 8.4477 3 9C3 9.5523 3.44772 10 4 10H8V14C8 14.5523 8.4477 15 9 15C9.5523 15 10 14.5523 10 14V10H14C14.5523 10 15 9.5523 15 9C15 8.4477 14.5523 8 14 8H10V4C10 3.44772 9.5523 3 9 3Z" fill="white"/>
</svg>
