<svg width="40" height="40" viewBox="0 0 40 40" fill="none" xmlns="http://www.w3.org/2000/svg">
<path d="M34.448 30.289L20.0004 38.2223L5.55273 30.289V14.4226L20.0004 6.48926L34.448 14.4226V30.289Z" fill="#F5B7A1"/>
<path d="M5.55273 14.4226V14.4229L20.0004 22.3563L34.448 14.4229V14.4226L20.0004 6.48926L5.55273 14.4226Z" fill="#E9856B"/>
<path d="M5.55273 14.4275V30.289L20.0004 38.2223L20.0089 38.2178V22.356L5.56128 14.4226L5.55273 14.4275Z" fill="#F8A88B"/>
<path d="M34.4476 14.4229L39.2188 19.1937L24.7711 27.1271L20 22.356L34.4476 14.4229Z" fill="#F09F82"/>
<path d="M5.55237 14.4229L0.78125 19.1937L15.2289 27.1271L20 22.356L5.55237 14.4229Z" fill="#F09F82"/>
<path d="M34.4476 14.4229L39.2188 9.6521L24.7711 1.71875L20 6.48987L34.4476 14.4229Z" fill="#F09F82"/>
<path d="M5.55237 14.4229L0.78125 9.6521L15.2289 1.71875L20 6.48987L5.55237 14.4229Z" fill="#F09F82"/>
</svg>
