<svg width="24" height="24" viewBox="0 0 24 24" fill="none" xmlns="http://www.w3.org/2000/svg">
<path d="M19.4995 2.99973H17.2495V2.24973C17.2495 2.05081 17.1705 1.86005 17.0298 1.7194C16.8892 1.57874 16.6984 1.49973 16.4995 1.49973C16.3006 1.49973 16.1098 1.57874 15.9692 1.7194C15.8285 1.86005 15.7495 2.05081 15.7495 2.24973V2.99973H8.24951V2.24973C8.24951 2.05081 8.17049 1.86005 8.02984 1.7194C7.88919 1.57874 7.69842 1.49973 7.49951 1.49973C7.3006 1.49973 7.10983 1.57874 6.96918 1.7194C6.82853 1.86005 6.74951 2.05081 6.74951 2.24973V2.99973H4.49951C4.10181 3.00012 3.7205 3.15828 3.43929 3.4395C3.15807 3.72072 2.9999 4.10202 2.99951 4.49973V19.4997C2.9999 19.8974 3.15807 20.2787 3.43929 20.56C3.7205 20.8412 4.10181 20.9993 4.49951 20.9997H19.4995C19.8972 20.9993 20.2785 20.8412 20.5597 20.56C20.841 20.2787 20.9991 19.8974 20.9995 19.4997V4.49973C20.9991 4.10202 20.841 3.72072 20.5597 3.4395C20.2785 3.15828 19.8972 3.00012 19.4995 2.99973ZM19.4995 7.49973H4.49951V4.49973H6.74951V5.24973C6.74951 5.44864 6.82853 5.6394 6.96918 5.78006C7.10983 5.92071 7.3006 5.99973 7.49951 5.99973C7.69842 5.99973 7.88919 5.92071 8.02984 5.78006C8.17049 5.6394 8.24951 5.44864 8.24951 5.24973V4.49973H15.7495V5.24973C15.7495 5.44864 15.8285 5.6394 15.9692 5.78006C16.1098 5.92071 16.3006 5.99973 16.4995 5.99973C16.6984 5.99973 16.8892 5.92071 17.0298 5.78006C17.1705 5.6394 17.2495 5.44864 17.2495 5.24973V4.49973H19.4995V7.49973Z" fill="#727486"/>
</svg>
