<svg width="21" height="16" viewBox="0 0 21 16" fill="none" xmlns="http://www.w3.org/2000/svg">
<path fill-rule="evenodd" clip-rule="evenodd" d="M7.4353 8.83524C7.4353 7.17831 8.77873 5.83524 10.4353 5.83524C12.0926 5.83524 13.4353 7.17831 13.4353 8.83524C13.4353 10.4914 12.0926 11.8352 10.4353 11.8352C8.77873 11.8352 7.4353 10.4914 7.4353 8.83524ZM15.8137 4.73012C15.8137 5.0828 16.0981 5.36911 16.447 5.36911C16.7959 5.36911 17.0793 5.0828 17.0793 4.73012C17.0793 4.37744 16.7959 4.09113 16.447 4.09113C16.0981 4.09113 15.8137 4.37744 15.8137 4.73012ZM5.7301 8.84944C5.7301 11.4509 7.83385 13.5604 10.4306 13.5604C13.0264 13.5604 15.1311 11.4509 15.1311 8.84944C15.1311 6.24796 13.0264 4.13947 10.4306 4.13947C7.83385 4.13947 5.7301 6.24796 5.7301 8.84944ZM20.8555 4.89129C20.8564 4.97946 20.8564 5.06763 20.8564 5.15675V5.87254V12.7631V13.4788C20.8564 13.568 20.8564 13.6561 20.8555 13.7443C20.8555 13.8201 20.8545 13.8941 20.8526 13.969C20.8479 14.1321 20.8384 14.2951 20.81 14.4563C20.7806 14.6203 20.7332 14.772 20.6592 14.9208C20.5853 15.0668 20.4895 15.1996 20.3748 15.3152C20.261 15.4309 20.1283 15.5276 19.9842 15.6025C19.8373 15.6774 19.6875 15.7258 19.5253 15.7551C19.3661 15.7845 19.204 15.794 19.0428 15.7978C18.9688 15.7997 18.8949 15.8006 18.8209 15.8016H18.5583H2.2981H2.03549C1.96154 15.8006 1.88759 15.7997 1.81364 15.7978C1.65247 15.794 1.49035 15.7845 1.33108 15.7551C1.16896 15.7258 1.01917 15.6774 0.872218 15.6025C0.728112 15.5276 0.595383 15.4309 0.481616 15.3152C0.3669 15.1996 0.271146 15.0668 0.198145 14.9208C0.123248 14.772 0.0748969 14.6203 0.0464551 14.4563C0.0180132 14.2951 0.0075845 14.1321 0.00379225 13.969C0.00252278 13.9188 0.00210323 13.8691 0.00168006 13.819C0.00147117 13.7942 0.00126139 13.7694 0.000948063 13.7443C0 13.6561 0 13.568 0 13.4788V12.7631V5.62509V5.15675C0 5.06763 0 4.97946 0.000948063 4.89129C0.00126408 4.86633 0.00147476 4.84136 0.00168544 4.8164C0.0021068 4.76646 0.00252816 4.71653 0.00379225 4.6666C0.0075845 4.50448 0.0180132 4.33952 0.0464551 4.1793C0.0748969 4.01528 0.123248 3.86359 0.198145 3.71475C0.271146 3.56969 0.3669 3.43602 0.481616 3.32035C0.595383 3.20374 0.728112 3.10799 0.872218 3.03309C1.01917 2.95819 1.16896 2.90984 1.33108 2.88045C1.49035 2.85106 1.65247 2.84158 1.81364 2.83779C1.88759 2.83589 1.96154 2.83494 2.03549 2.83494C2.12366 2.834 2.21088 2.834 2.2981 2.834H3.00536H3.8425C3.94299 2.834 4.04254 2.834 4.14209 2.83305C4.18361 2.83259 4.1827 2.83235 4.18054 2.83179C4.17827 2.8312 4.17462 2.83026 4.21793 2.82831C4.24362 2.82778 4.26933 2.82736 4.29505 2.82694C4.45345 2.82436 4.61215 2.82178 4.76875 2.79323C4.95268 2.76005 5.12428 2.69274 5.29114 2.60456C5.4561 2.52019 5.60684 2.41211 5.73673 2.27938C5.82559 2.18923 5.92802 1.89131 6.02588 1.60667C6.07209 1.47225 6.11729 1.34079 6.15956 1.23556C6.18516 1.15877 6.21645 1.08387 6.25342 1.00898C6.33685 0.842117 6.44588 0.687582 6.57671 0.554854C6.70754 0.422125 6.85828 0.311201 7.0223 0.225876C7.19011 0.138654 7.36171 0.084615 7.54563 0.0514328C7.72671 0.0173028 7.91253 0.00782132 8.09551 0.00213361C8.17988 -0.000711203 12.6159 -0.000711203 12.7002 0.00213361C12.8842 0.00782132 13.07 0.0173028 13.2511 0.0514328C13.4359 0.084615 13.6075 0.138654 13.7753 0.225876C13.9384 0.311201 14.0892 0.423073 14.2209 0.555802C14.3499 0.688531 14.4599 0.843065 14.5433 1.00898C14.5656 1.05298 14.58 1.09044 14.5966 1.13347C14.6082 1.16368 14.6209 1.19663 14.6381 1.23651C14.685 1.34629 14.7361 1.49471 14.7882 1.6463C14.8824 1.92016 14.9802 2.20437 15.0638 2.28981C15.1946 2.42254 15.3444 2.52967 15.5084 2.61405C15.6762 2.70127 15.8478 2.76953 16.0327 2.80366C16.1374 2.82269 16.2437 2.82646 16.3505 2.83025C16.382 2.83137 16.4136 2.83248 16.4451 2.834H17.8511H18.5583C18.6455 2.834 18.7337 2.834 18.8209 2.83494C18.8949 2.83494 18.9688 2.83589 19.0428 2.83779C19.204 2.84158 19.3661 2.85106 19.5253 2.88045C19.6875 2.90984 19.8373 2.95819 19.9842 3.03309C20.1283 3.10799 20.261 3.20374 20.3748 3.32035C20.4895 3.43602 20.5853 3.56969 20.6592 3.71475C20.6682 3.73284 20.6768 3.74991 20.685 3.76624C20.7444 3.88419 20.7842 3.96305 20.81 4.1063C20.8384 4.26747 20.8479 4.50448 20.8526 4.6666C20.8545 4.7415 20.8555 4.81639 20.8555 4.89129ZM3.98283 2.19974H2.02034C1.95397 2.19974 1.89899 2.14475 1.89899 2.07744V1.71149C1.89899 1.70343 1.89946 1.69513 1.89993 1.68684C1.90041 1.67854 1.90088 1.67024 1.90088 1.66219C1.90088 1.65415 1.90192 1.64577 1.90296 1.63747C1.90363 1.63205 1.9043 1.62666 1.90468 1.62142C1.90468 1.59108 1.90657 1.56074 1.91226 1.53135C1.91795 1.50102 1.92553 1.47257 1.93975 1.44508C1.95397 1.41853 1.97009 1.39388 1.99095 1.37303C2.01275 1.35122 2.03646 1.33321 2.063 1.31994C2.08955 1.30571 2.11704 1.29623 2.14643 1.29149C2.17582 1.2858 2.20521 1.28391 2.2346 1.28296C2.24136 1.28296 2.24837 1.28272 2.25524 1.28247C2.26187 1.28224 2.26837 1.28201 2.27442 1.28201H3.73254C3.73918 1.28201 3.74605 1.28225 3.75292 1.28249C3.7598 1.28272 3.76667 1.28296 3.77331 1.28296C3.8027 1.28391 3.83209 1.2858 3.86148 1.29149C3.89087 1.29623 3.91836 1.30571 3.94585 1.31994C3.97145 1.33321 3.99515 1.35122 4.01696 1.37303C4.03782 1.39388 4.05488 1.41853 4.06815 1.44508C4.08238 1.47257 4.09091 1.50102 4.09565 1.53135C4.10039 1.56074 4.10323 1.59108 4.10418 1.62142C4.10513 1.63469 4.10513 1.64891 4.10513 1.66219V2.07744C4.10513 2.14475 4.05014 2.19974 3.98283 2.19974Z" fill="white"/>
</svg>
