<svg width="16" height="16" viewBox="0 0 16 16" fill="none" xmlns="http://www.w3.org/2000/svg">
<path fill-rule="evenodd" clip-rule="evenodd" d="M0 8C0 3.58876 3.58876 0 8 0C12.4112 0 16 3.58876 16 8C16 12.4112 12.4112 16 8 16C3.58876 16 0 12.4112 0 8ZM1.94376 8.00004C1.94376 11.3394 4.66053 14.0561 7.99979 14.0561C11.3391 14.0561 14.0558 11.3394 14.0558 8.00004C14.0558 4.6607 11.3391 1.94401 7.99979 1.94401C4.66053 1.94401 1.94376 4.6607 1.94376 8.00004Z" fill="#E9856B"/>
<path d="M10.0765 8.09988H7.8729V5.45037C7.8729 5.2274 7.69213 5.04663 7.46917 5.04663C7.2462 5.04663 7.06543 5.2274 7.06543 5.45037V8.50361C7.06543 8.72658 7.2462 8.90735 7.46917 8.90735H10.0765C10.2995 8.90735 10.4802 8.72658 10.4802 8.50361C10.4802 8.28065 10.2995 8.09988 10.0765 8.09988Z" fill="#E9856B" stroke="#E9856B"/>
</svg>
