<svg width="16" height="16" viewBox="0 0 16 16" fill="none" xmlns="http://www.w3.org/2000/svg">
    <g clip-path="url(#clip0)">
        <path class='_svg-orange'
              d="M9.76221 8.00064L15.7444 2.0182C15.9089 1.85352 15.9997 1.63381 16 1.39953C16 1.16513 15.9092 0.94516 15.7444 0.780737L15.2202 0.256639C15.0553 0.0915662 14.8356 0.00115967 14.6011 0.00115967C14.367 0.00115967 14.1473 0.0915662 13.9824 0.256639L8.00026 6.23869L2.01782 0.256639C1.85327 0.0915662 1.63343 0.00115967 1.39902 0.00115967C1.16488 0.00115967 0.945041 0.0915662 0.780488 0.256639L0.256 0.780737C-0.0853333 1.12207 -0.0853333 1.67726 0.256 2.0182L6.23831 8.00064L0.256 13.9828C0.0913171 14.1478 0.000650406 14.3675 0.000650406 14.6017C0.000650406 14.836 0.0913171 15.0557 0.256 15.2205L0.780358 15.7446C0.944911 15.9096 1.16488 16.0001 1.39889 16.0001C1.6333 16.0001 1.85314 15.9096 2.01769 15.7446L8.00013 9.76246L13.9823 15.7446C14.1471 15.9096 14.3668 16.0001 14.601 16.0001H14.6012C14.8355 16.0001 15.0552 15.9096 15.22 15.7446L15.7443 15.2205C15.9088 15.0559 15.9996 14.836 15.9996 14.6017C15.9996 14.3675 15.9088 14.1478 15.7443 13.9829L9.76221 8.00064Z"
              fill="#D22513"/>
    </g>
<defs>
<clipPath id="clip0">
<rect width="16" height="16" fill="white"/>
</clipPath>
</defs>
</svg>
