<svg width="18" height="18" viewBox="0 0 18 18" fill="none" xmlns="http://www.w3.org/2000/svg">
<path d="M9 18C13.9706 18 18 13.9706 18 9C18 4.02944 13.9706 0 9 0C4.02944 0 0 4.02944 0 9C0 13.9706 4.02944 18 9 18Z" fill="#EEEEF2"/>
<path fill-rule="evenodd" clip-rule="evenodd" d="M4.74266 4.75736C4.35214 5.14788 4.35214 5.78105 4.74266 6.17157L7.57109 9L4.74266 11.8284C4.35214 12.219 4.35214 12.8521 4.74266 13.2426C5.13318 13.6332 5.76635 13.6332 6.15687 13.2426L8.9853 10.4142L11.8137 13.2426C12.2042 13.6332 12.8374 13.6332 13.2279 13.2426C13.6184 12.8521 13.6184 12.219 13.2279 11.8284L10.3995 9L13.2279 6.17157C13.6184 5.78105 13.6184 5.14788 13.2279 4.75736C12.8374 4.36684 12.2042 4.36683 11.8137 4.75736L8.9853 7.58579L6.15687 4.75736C5.76635 4.36684 5.13318 4.36684 4.74266 4.75736Z" fill="#727486"/>
</svg>
