<svg width="18" height="18" viewBox="0 0 18 18" fill="none" xmlns="http://www.w3.org/2000/svg">
<g clip-path="url(#clip0)">
<path d="M13.5946 10.7017C12.3435 10.7017 11.3257 11.7195 11.3257 12.9706C11.3257 14.2217 12.3435 15.2395 13.5946 15.2395C14.8459 15.2395 15.8635 14.2217 15.8635 12.9706C15.8635 11.7195 14.8457 10.7017 13.5946 10.7017ZM13.5946 14.105C12.969 14.105 12.4601 13.5962 12.4601 12.9706C12.4601 12.3449 12.969 11.8361 13.5946 11.8361C14.2202 11.8361 14.7291 12.3449 14.7291 12.9706C14.7291 13.5963 14.2202 14.105 13.5946 14.105Z" fill="white"/>
<path d="M5.84307 10.7017C4.59197 10.7017 3.57416 11.7195 3.57416 12.9706C3.57416 14.2217 4.59197 15.2395 5.84307 15.2395C7.09418 15.2395 8.11199 14.2217 8.11199 12.9706C8.11199 11.7195 7.09418 10.7017 5.84307 10.7017ZM5.84307 14.105C5.21743 14.105 4.70861 13.5962 4.70861 12.9706C4.70861 12.3449 5.21743 11.8361 5.84307 11.8361C6.46854 11.8361 6.97753 12.3449 6.97753 12.9706C6.97753 13.5963 6.46871 14.105 5.84307 14.105Z" fill="white"/>
<path d="M15.1228 4.20714C15.0264 4.01561 14.8303 3.89478 14.6159 3.89478H11.6285V5.02923H14.2661L15.8106 8.10133L16.8245 7.59156L15.1228 4.20714Z" fill="white"/>
<path d="M11.8929 12.4224H7.60089V13.5568H11.8929V12.4224Z" fill="white"/>
<path d="M4.14075 12.4224H2.17439C1.86108 12.4224 1.60718 12.6763 1.60718 12.9896C1.60718 13.3029 1.86111 13.5568 2.17439 13.5568H4.14078C4.4541 13.5568 4.708 13.3029 4.708 12.9896C4.708 12.6763 4.45406 12.4224 4.14075 12.4224Z" fill="white"/>
<path d="M17.8809 8.95461L16.7652 7.51763C16.658 7.37922 16.4925 7.29829 16.3173 7.29829H12.1954V3.32771C12.1954 3.0144 11.9415 2.7605 11.6282 2.7605H2.17439C1.86108 2.7605 1.60718 3.01443 1.60718 3.32771C1.60718 3.64099 1.86111 3.89492 2.17439 3.89492H11.0609V7.8655C11.0609 8.17881 11.3149 8.43271 11.6282 8.43271H16.0395L16.8656 9.49682V12.4222H15.2962C14.9829 12.4222 14.729 12.6761 14.729 12.9894C14.729 13.3027 14.9829 13.5566 15.2962 13.5566H17.4328C17.7461 13.5566 18 13.3027 18 12.9894V9.30251C18 9.17658 17.958 9.05406 17.8809 8.95461Z" fill="white"/>
<path d="M4.10231 9.54834H1.49305C1.17974 9.54834 0.925842 9.80227 0.925842 10.1155C0.925842 10.4289 1.17978 10.6828 1.49305 10.6828H4.10228C4.41559 10.6828 4.66949 10.4288 4.66949 10.1155C4.66953 9.80227 4.41559 9.54834 4.10231 9.54834Z" fill="white"/>
<path d="M5.40756 7.31714H0.567211C0.253934 7.31714 0 7.57107 0 7.88438C0 8.1977 0.253934 8.4516 0.567211 8.4516H5.40756C5.72087 8.4516 5.97477 8.19766 5.97477 7.88438C5.97477 7.57111 5.72087 7.31714 5.40756 7.31714Z" fill="white"/>
<path d="M6.3334 5.08618H1.49305C1.17974 5.08618 0.925842 5.34012 0.925842 5.65339C0.925842 5.9667 1.17978 6.2206 1.49305 6.2206H6.3334C6.64671 6.2206 6.90061 5.96667 6.90061 5.65339C6.90065 5.34012 6.64671 5.08618 6.3334 5.08618Z" fill="white"/>
</g>
<defs>
<clipPath id="clip0">
<rect width="18" height="18" fill="white"/>
</clipPath>
</defs>
</svg>
