<svg width="24" height="24" viewBox="0 0 24 24" fill="none" xmlns="http://www.w3.org/2000/svg">
<path fill-rule="evenodd" clip-rule="evenodd" d="M14.9719 3.28412C14.9719 4.52975 13.962 5.53962 12.7164 5.53962C11.4707 5.53962 10.4609 4.52975 10.4609 3.28412C10.4609 2.03843 11.4707 1.02863 12.7164 1.02863C13.962 1.02863 14.9719 2.03843 14.9719 3.28412Z" class='_co' fill="#E9856B"/>
<mask id="mask0" mask-type="alpha" maskUnits="userSpaceOnUse" x="8" y="6" width="10" height="18">
<path fill-rule="evenodd" clip-rule="evenodd" d="M8 6.09117H17.4075V23.0286H8V6.09117Z" fill="white"/>
</mask>
<g mask="url(#mask0)">
<path fill-rule="evenodd" clip-rule="evenodd" d="M9.93866 12.4223V8.86241C9.93866 8.77423 10.0102 8.70273 10.0984 8.70273C10.1866 8.70273 10.2582 8.77423 10.2582 8.86241V11.6046L9.93866 12.4223ZM15.34 8.70273H15.3401C15.4283 8.70273 15.4998 8.77423 15.4998 8.86241V12.5015L15.1803 11.6836V8.86241C15.1803 8.77423 15.2518 8.70273 15.34 8.70273ZM17.4075 17.3845L16.163 14.1991C16.6958 13.7328 17.0356 13.0516 17.0356 12.2879V8.63662C17.0356 7.23083 15.8959 6.09117 14.4901 6.09117H10.9173C9.51156 6.09117 8.37197 7.23083 8.37197 8.63662V12.2879C8.37197 13.0516 8.71189 13.7326 9.24459 14.199L8 17.3845H10.2581V21.8296C10.2581 22.4598 10.7435 23.0091 11.3734 23.0281C12.025 23.0477 12.5595 22.5252 12.5595 21.8779V17.3845H12.8789V21.8296C12.8789 22.4598 13.3644 23.0091 13.9942 23.0281C14.6459 23.0477 15.1803 22.5252 15.1803 21.8779V17.3845H17.4075Z" class='_co'  fill="#E9856B"/>
</g>
</svg>
