<svg width="16" height="17" viewBox="0 0 16 17" fill="none" xmlns="http://www.w3.org/2000/svg">
<path d="M4.66338 14.5137C3.92026 13.6693 3.17717 12.7911 2.70426 11.7439C2.23138 10.6293 2.09626 9.34572 2.33272 8.12972C2.56917 6.91372 3.10959 5.76527 3.8865 4.78572C3.81896 5.63018 4.12296 6.50839 4.69717 7.15018C4.35938 5.52885 4.89984 3.77239 5.98072 2.48884C7.06159 1.2053 7.91577 0.747063 9.46953 0.172852C8.89989 1.52014 9.22338 1.88081 9.52738 2.96172C9.83138 4.0426 10.4732 4.98839 11.0474 5.96794C11.6216 6.94748 12.162 7.96081 12.1958 9.07548C12.4998 8.50127 12.8376 7.92703 13.0403 7.28527C13.243 6.64348 12.6431 5.8036 12.4743 5.16181C13.0823 5.90493 13.925 7.15018 14.1607 7.89327C14.3964 8.63636 14.4252 9.68348 14.3239 10.6293C14.1887 11.6764 13.9185 12.7573 13.3443 13.6355C12.6688 14.6826 11.5879 15.4257 10.4057 15.831C8.31138 16.2026 6.25093 15.8986 4.66338 14.5137Z" fill="#FF9175"/>
<path d="M4.66357 14.5138C3.92045 13.6693 7.88273 16.4516 9.58614 15.2019C11.3129 13.935 11.6515 12.9975 11.9229 11.2927C12.1942 9.5879 10.2413 4.67086 10.8155 5.65041C11.3897 6.62995 12.0318 7.32716 12.4744 8.27978C12.6433 7.89332 12.6508 7.76637 12.6928 7.09082C12.7347 6.41528 12.6433 5.80365 12.4744 5.16187C13.0824 5.90499 13.8949 6.76322 14.2903 7.7582C14.6857 8.75318 14.6501 9.62356 14.5487 10.5693C14.4136 11.6165 13.9187 12.7573 13.3445 13.6355C12.669 14.6827 11.5881 15.4257 10.4058 15.8311C8.31157 16.2027 6.25111 15.8987 4.66357 14.5138Z" fill="#F48164"/>
<path d="M7.23071 15.7634C10.0005 16.8443 12.7365 13.5678 11.2165 11.0345C11.2165 11.0007 11.1827 11.0007 11.1827 10.967C11.1827 11.9289 10.8876 12.0816 10.5652 12.5937C10.5652 12.4351 10.4396 12.183 10.0342 11.3723C9.62889 10.5954 9.05467 9.88607 8.61555 9.14295C8.17643 8.36607 7.83867 7.48783 8.04134 6.60962C7.23067 7.21762 6.65646 8.12962 6.42001 9.10916C6.18355 10.0887 6.31867 11.1696 6.7578 12.0816C6.25113 11.7101 5.87958 11.1021 5.8458 10.4603C5.30534 11.1021 4.96758 11.9465 5.00134 12.791C5.00137 14.1083 6.04846 15.2905 7.23071 15.7634Z" fill="#FFF5AF"/>
<path d="M7.23071 15.7635C10.0005 16.8444 11.2781 14.2238 11.4917 13.6147C11.353 13.7916 9.57335 16.5004 7.23071 14.6727C4.88806 12.845 5.87958 11.1022 5.8458 10.4604C5.30534 11.1022 4.96758 11.9467 5.00134 12.7911C5.00137 14.1084 6.04846 15.2907 7.23071 15.7635Z" fill="#FBEC80"/>
</svg>
