<svg width="17" height="24" viewBox="0 0 17 24" fill="none" xmlns="http://www.w3.org/2000/svg">
<path d="M11.4224 5.54268C10.6801 5.54268 9.97822 5.71479 9.35314 6.02022C9.30826 6.15173 9.28369 6.29041 9.28369 6.43167V6.43495C9.28369 7.02229 9.36289 7.60008 9.51421 8.15533C10.0195 7.69909 10.6884 7.42114 11.4223 7.42114C12.998 7.42114 14.2753 8.70056 14.2753 10.2788C14.2753 11.357 13.6786 12.2946 12.7984 12.781C13.1615 13.2588 13.4981 13.7939 13.7761 14.3855C15.1947 13.5681 16.1506 12.0358 16.1506 10.2788C16.1507 7.66311 14.0338 5.54268 11.4224 5.54268V5.54268Z" fill="#727486"/>
<path d="M10.0284 1.77229H4.35303V0.886536C4.35303 0.396905 4.74993 0 5.23952 0H9.14184C9.63142 0 10.0283 0.396905 10.0283 0.886536V1.77229H10.0284Z" fill="#979AAF"/>
<path d="M3.70634 23.6434C3.17431 23.6434 2.66723 23.4144 2.31747 23.0128C1.0356 21.541 0 19.7273 0 17.709C0 14.7668 1.6169 12.6428 3.05416 11.3359C4.43674 10.0788 5.23877 8.30531 5.23877 6.43494V6.43166C5.23877 6.12181 5.12596 5.82257 4.92148 5.59006L4.07323 4.62557C3.66773 4.16453 3.444 3.57118 3.444 2.95673V2.23454C3.444 1.97927 3.6506 1.77234 3.90546 1.77234H10.6167C10.8715 1.77234 11.0781 1.97927 11.0781 2.23454V2.95673C11.0781 3.57118 10.8545 4.16453 10.449 4.62557L9.60071 5.59006C9.39623 5.82257 9.28342 6.12181 9.28342 6.43166V6.43494C9.28342 8.30531 10.0854 10.0788 11.468 11.3359C12.9053 12.6428 14.5222 14.7668 14.5222 17.709C14.5222 19.7273 13.4866 21.541 12.2047 23.0128C11.855 23.4144 11.3479 23.6434 10.8159 23.6434H3.70634Z" fill="#979AAF"/>
<path d="M11.468 11.3359C11.1558 11.052 10.8734 10.7415 10.623 10.4097H3.89923C3.64875 10.7415 3.36642 11.052 3.05416 11.3359C1.6169 12.6427 0 14.7667 0 17.709C0 19.7273 1.0356 21.5409 2.31747 23.0128C2.66723 23.4144 3.17431 23.6434 3.70634 23.6434H10.8159C11.3479 23.6434 11.855 23.4144 12.2047 23.0128C13.4866 21.541 14.5222 19.7273 14.5222 17.709C14.5222 14.7668 12.9053 12.6427 11.468 11.3359Z" fill="#727486"/>
</svg>
