<svg width="24" height="19" viewBox="0 0 24 19" fill="none" xmlns="http://www.w3.org/2000/svg">
    <path fill-rule="evenodd" clip-rule="evenodd"
          d="M4.98674 4.94042L6.31442 5.96874C4.13083 7.43205 2.47742 9.33822 1.77834 10.2123C2.99635 11.7319 7.11096 16.3803 11.8617 16.3803C13.8547 16.3803 15.7329 15.5661 17.3325 14.5078L18.6615 15.5387C16.7582 16.8871 14.4201 17.9892 11.8617 17.9892C5.41222 17.9892 0.362248 10.9857 0.150543 10.6875C-0.0501809 10.4046 -0.0501809 10.0208 0.150543 9.73794C0.277161 9.55976 2.13446 6.98295 4.98674 4.94042ZM8.08966 7.34463L9.3381 8.31312C8.958 8.84587 8.73329 9.50288 8.73329 10.2129C8.73329 11.9872 10.1366 13.4306 11.8617 13.4306C12.8653 13.4306 13.7601 12.942 14.3329 12.1838L15.5814 13.1522C14.7227 14.2992 13.3746 15.0396 11.8617 15.0396C9.27421 15.0396 7.16906 12.8743 7.16906 10.2129C7.16906 9.13963 7.5114 8.14706 8.08966 7.34463ZM11.8617 2.43652C18.3111 2.43652 23.3608 9.44002 23.5728 9.73823C23.7738 10.0208 23.7738 10.4048 23.5728 10.6877C23.4754 10.8246 22.356 12.378 20.5486 14.0169L19.264 13.0212C20.5208 11.9169 21.4613 10.8181 21.945 10.2134C20.7264 8.69296 16.6121 4.04541 11.8617 4.04541C10.7196 4.04541 9.61525 4.31275 8.57943 4.74016L7.14752 3.62969C8.58197 2.91614 10.1739 2.43652 11.8617 2.43652ZM11.8617 5.38616C14.4491 5.38616 16.5542 7.55147 16.5542 10.2129C16.5542 10.4411 16.5388 10.6657 16.5088 10.8856L14.9463 9.67506C14.6968 8.15586 13.4085 6.9951 11.8617 6.9951C11.744 6.9951 11.6278 7.00181 11.5135 7.01489L9.95236 5.80392C10.5359 5.53549 11.1822 5.38616 11.8617 5.38616Z"
          fill="#9EA4AB"/>
    <path d="M23.9997 17.2769L2.41357 0.545654L1.48407 1.81441L23.0702 18.5457L23.9997 17.2769Z" fill="#9EA4AB"/>
</svg>
