<svg width="24" height="24" viewBox="0 0 24 24" fill="none" xmlns="http://www.w3.org/2000/svg">
<path d="M16.8751 0.395478C13.6721 0.262458 10.8757 2.54581 10.3655 5.71073C10.3231 5.95793 10.2967 6.2076 10.2864 6.45819C10.1801 7.19236 9.95154 7.90353 9.61017 8.56214C9.09605 9.50734 8.24576 10.504 5.82147 10.6977C5.64746 10.6977 5.4774 10.7333 5.30734 10.761C2.24716 11.261 0.000119664 13.9049 0 17.0056C0 17.1717 0 17.3378 0.019774 17.504C0.279758 20.7951 3.0263 23.3333 6.32768 23.3333H6.84181C18.5876 22.3723 22.4158 12.9876 22.8904 7.62486C22.8904 7.40734 22.926 7.19378 22.9339 6.98813C23.0057 5.3102 22.4075 3.67255 21.271 2.43597C20.1346 1.19939 18.5532 0.465321 16.8751 0.395478Z" fill="#727486"/>
<path d="M22.8904 7.62486C22.4158 13.0871 18.5876 22.646 6.8339 23.6249C6.65989 23.6249 6.48983 23.6249 6.31977 23.6249C3.02423 23.6209 0.283415 21.0413 0.019774 17.6954C0 17.5262 0 17.357 0 17.1797C0 17.4094 0.177966 21.9934 7.11864 21.6108C13.9763 21.2079 18.9831 17.1797 22.8904 7.62486Z" fill="#979AAF"/>
<path d="M12.6553 7.18192C12.5437 8.16205 12.2613 9.11505 11.8209 9.99774C11.2158 11.1842 10.0412 12.7661 6.85761 13.0469H6.72314C6.1753 13.0459 5.66696 12.7615 5.37943 12.2952C5.0919 11.8289 5.06612 11.247 5.31128 10.7571C5.48134 10.7294 5.65139 10.7096 5.8254 10.6938C8.2497 10.5 9.09998 9.50734 9.6141 8.55819C9.95231 7.90031 10.1782 7.19053 10.2825 6.45819C10.2927 6.2076 10.3192 5.95793 10.3616 5.71073C10.8614 5.4584 11.4573 5.48904 11.9286 5.79131C12.3998 6.09357 12.6762 6.62243 12.6553 7.18192Z" fill="#979AAF"/>
</svg>
