<svg width="24" height="24" viewBox="0 0 24 24" fill="none" xmlns="http://www.w3.org/2000/svg">
<mask id="mask0" mask-type="alpha" maskUnits="userSpaceOnUse" x="8" y="6" width="9" height="17">
<path fill-rule="evenodd" clip-rule="evenodd" d="M8 6.06259H16.6636V23H8V6.06259Z" fill="white"/>
</mask>
<g mask="url(#mask0)">
<path fill-rule="evenodd" clip-rule="evenodd" d="M14.1182 6.06259H10.5454C9.13966 6.06259 8 7.20218 8 8.60797V12.2592C8 13.1968 8.50722 14.0156 9.26196 14.4572C9.3968 14.536 9.56672 14.4405 9.56672 14.2844V8.83383C9.56672 8.74564 9.63822 8.67407 9.72648 8.67407C9.81466 8.67407 9.88623 8.74564 9.88623 8.83383V21.801C9.88623 22.4311 10.3717 22.9805 11.0015 22.9995C11.6531 23.0191 12.1876 22.4966 12.1876 21.8494V15.2698C12.1876 15.1816 12.2591 15.1101 12.3473 15.1101C12.4355 15.1101 12.5071 15.1816 12.5071 15.2698V21.801C12.5071 22.4311 12.9925 22.9806 13.6223 22.9995C14.274 23.0191 14.8084 22.4966 14.8084 21.8494V8.83383C14.8084 8.74564 14.8799 8.67407 14.9681 8.67407C15.0564 8.67407 15.1279 8.74564 15.1279 8.83383V14.2655C15.1279 14.4227 15.3002 14.5186 15.4347 14.4372C16.1712 13.9913 16.6637 13.1831 16.6637 12.2592V8.60797C16.6637 7.20218 15.524 6.06259 14.1182 6.06259Z" fill="#E9856B"/>
</g>
<mask id="mask1" mask-type="alpha" maskUnits="userSpaceOnUse" x="10" y="1" width="5" height="5">
<path fill-rule="evenodd" clip-rule="evenodd" d="M10.0894 1H14.6003V5.51093H10.0894V1Z" fill="white"/>
</mask>
<g mask="url(#mask1)">
<path fill-rule="evenodd" clip-rule="evenodd" d="M14.6003 3.2555C14.6003 4.50112 13.5905 5.51093 12.3449 5.51093C11.0991 5.51093 10.0894 4.50112 10.0894 3.2555C10.0894 2.0098 11.0991 1 12.3449 1C13.5905 1 14.6003 2.0098 14.6003 3.2555Z" fill="#E9856B"/>
</g>
</svg>
