<svg width="23" height="20" viewBox="0 0 23 20" fill="none" xmlns="http://www.w3.org/2000/svg">
<path d="M17.342 17.4551C15.3649 17.4551 13.1156 16.7323 10.6585 15.3076C8.68377 14.1623 6.64281 13.7975 4.84185 13.4755C3.00201 13.1452 1.12569 12.8044 0.00537109 11.5315C0.123931 16.6761 5.76537 14.3615 11.1721 17.4955C17.8263 21.3532 21.9035 19.2321 22.5231 14.7057C21.446 16.4433 19.6417 17.4551 17.342 17.4551Z" fill="#979AAF"/>
<path fill-rule="evenodd" clip-rule="evenodd" d="M5.69487 10.8216L5.69164 10.8211C3.09196 10.4006 1.37452 10.1217 1.375 7.66508C1.375 3.87356 4.95052 1.69916 11.1857 1.69916C16.7264 1.69916 21.2345 5.135 21.2345 9.35804C21.2345 10.7577 20.8342 11.9304 20.0758 12.7502C19.2929 13.596 18.1385 14.0438 16.7364 14.0438C15.1611 14.0433 13.3313 13.5024 11.2976 12.4363C9.3471 11.4131 7.4072 11.0989 5.69487 10.8216ZM9.9319 6.15164C9.9319 4.94348 8.66566 3.96332 7.10374 3.96332C5.5423 3.96332 4.27606 4.94348 4.27606 6.15164C4.27606 7.36028 5.5423 8.34044 7.10374 8.34044C8.66566 8.34044 9.9319 7.36028 9.9319 6.15164Z" fill="#727486"/>
<path fill-rule="evenodd" clip-rule="evenodd" d="M22.609 10.3756C22.609 15.7372 18.4152 18.6201 11.172 14.4211C9.0416 13.1863 6.87437 12.7981 5.02278 12.4666C2.12476 11.9476 0 11.5671 0 8.29533C0 2.93325 4.8552 0.667167 11.172 0.666687C17.4893 0.666687 22.609 5.01405 22.609 10.3756ZM21.7153 9.35757C21.7153 4.86957 16.9921 1.21869 11.1861 1.21869C4.64605 1.21869 0.894853 3.56829 0.895813 7.66557C0.895813 10.5304 2.97805 10.8681 5.61474 11.2957L5.61565 11.2958L5.61681 11.296C7.29365 11.5676 9.19353 11.8754 11.0752 12.8616C13.1785 13.9646 15.0837 14.5243 16.7373 14.5243C18.2766 14.5243 19.5525 14.0232 20.4289 13.0761C21.2699 12.166 21.7153 10.8801 21.7153 9.35757Z" fill="#979AAF"/>
<ellipse cx="7.10326" cy="6.15209" rx="1.4016" ry="1.0848" fill="#727486"/>
</svg>
