<svg width="24" height="24" viewBox="0 0 24 24" fill="none" xmlns="http://www.w3.org/2000/svg">
<path d="M4.38591 19.6141C3.66645 17.4922 3.55501 15.2113 4.06417 13.0294C4.57334 10.8474 5.68281 8.85144 7.26712 7.26712C8.85144 5.68281 10.8474 4.57334 13.0294 4.06417C15.2113 3.55501 17.4922 3.66645 19.6141 4.38591C20.3336 6.50782 20.445 8.7887 19.9358 10.9706C19.4267 13.1526 18.3172 15.1486 16.7329 16.7329C15.1486 18.3172 13.1526 19.4267 10.9706 19.9358C8.7887 20.445 6.50782 20.3336 4.38591 19.6141Z" fill="#FFDDD4"/>
<path d="M15 9L2.25 21.75" stroke="#E9856B" stroke-width="2" stroke-linecap="round" stroke-linejoin="round"/>
<path d="M4.63591 19.8641C3.91645 17.7422 3.80501 15.4613 4.31417 13.2794C4.82334 11.0974 5.93281 9.10144 7.51712 7.51712C9.10144 5.93281 11.0974 4.82334 13.2794 4.31417C15.4613 3.80501 17.7422 3.91645 19.8641 4.63591C20.5836 6.75782 20.695 9.0387 20.1858 11.2206C19.6767 13.4026 18.5672 15.3986 16.9829 16.9829C15.3986 18.5672 13.4026 19.6767 11.2206 20.1858C9.0387 20.695 6.75782 20.5836 4.63591 19.8641Z" stroke="#E9856B" stroke-width="2" stroke-linecap="round" stroke-linejoin="round"/>
</svg>
