<svg width="13" height="24" viewBox="0 0 13 24" fill="none" xmlns="http://www.w3.org/2000/svg">
<path fill-rule="evenodd" clip-rule="evenodd" d="M11.5248 1.82547C11.5248 2.62323 10.8971 3.26906 10.1095 3.30995C10.3255 5.26354 10.8041 6.36904 11.2563 7.4132C11.7815 8.62626 12.2709 9.75652 12.2709 12.0376V20.975C12.2709 22.2093 11.2669 23.2133 10.0326 23.2133H2.57176C1.33753 23.2133 0.333496 22.2093 0.333496 20.975V12.0376C0.333496 9.75959 0.823522 8.62601 1.34908 7.41024C1.80114 6.36448 2.2795 5.25792 2.4949 3.3099C1.70723 3.26906 1.07955 2.62323 1.07955 1.82547C1.07955 1.00135 1.74763 0.333313 2.57176 0.333313H10.0326C10.8567 0.333313 11.5248 1.00135 11.5248 1.82547ZM2.39246 8.75207C3.5559 8.60818 4.78154 8.86808 5.81503 9.55712C7.72447 10.8301 9.32822 9.83735 10.0781 9.37319C10.1935 9.30173 10.2887 9.2428 10.3617 9.20659C10.1994 8.66449 9.99121 8.13619 9.73832 7.63046C9.13133 6.41581 8.75386 4.76264 8.60898 3.31763H3.99549C3.85056 4.76264 3.47309 6.41581 2.86614 7.63046C2.68458 7.99364 2.52759 8.36892 2.39246 8.75207Z" fill="#727486"/>
<rect x="0.901367" y="0.333328" width="11.1467" height="2.93333" rx="1.46667" fill="#979AAF"/>
</svg>
