<svg width="33" height="33" viewBox="0 0 33 33" fill="none" xmlns="http://www.w3.org/2000/svg">
<path d="M32.6808 31.691L23.4727 32.47L14.3179 31.691L23.4727 14.0876L32.6808 31.691Z" fill="#B0CAFE"/>
<path d="M23.4729 14.0876L32.681 31.691L23.4729 32.47" fill="#8FB2FB"/>
<path d="M23.4724 29.3024L28.7417 24.1616L25.7611 18.5014L23.4724 16.2686L21.1836 18.5014L18.2562 24.1616L23.4724 29.3024Z" fill="#D0DFFF"/>
<path d="M23.4729 29.3024L28.7423 24.1616L25.7616 18.5014L23.4729 16.2686" fill="#B0CAFE"/>
<path d="M27.4109 31.3276L13.8916 32.47L0.212524 31.5872L13.8916 5.41568L27.4109 31.3276Z" fill="#8FB2FB"/>
<path d="M13.892 5.41568L27.571 31.5872L13.892 32.47" fill="#83A8F4"/>
<path d="M13.8917 27.7965L21.6094 20.215L17.2449 11.8547L13.8917 8.58325L10.4852 11.8547L6.12073 20.215L13.8917 27.7965Z" fill="#BBD2FF"/>
<path d="M13.892 27.7965L21.6097 20.215L17.2452 11.8547L13.892 8.58325" fill="#B0CAFE"/>
<path d="M16.0743 18.2937L18.2565 20.4228L20.5452 18.2418L13.892 5.41568L7.18555 18.2418L9.47426 20.4228L11.6565 18.2937L13.892 20.4228L16.0743 18.2937Z" fill="#D0DFFF"/>
<path d="M13.892 20.4228L16.0742 18.2937L18.2565 20.4228L20.5452 18.2418L13.892 5.41568" fill="#BBD2FF"/>
<ellipse cx="13.8385" cy="1.00181" rx="0.798387" ry="0.778914" fill="#FF9F86"/>
<path d="M13.8385 2.09235C13.6789 2.09235 13.6789 2.09235 13.3063 1.98849V6.81776C13.3063 7.02547 13.6256 7.18126 13.8385 7.18126C14.0514 7.18126 14.3708 7.02547 14.3708 6.81776V1.98849C14.3708 2.19621 13.9982 2.09235 13.8385 2.09235Z" fill="#BBD2FF"/>
<path d="M13.8387 7.18126C14.0516 7.18126 14.371 7.02547 14.371 6.81776V1.98849C14.1049 2.09235 13.9984 2.09235 13.8387 2.09235" fill="#83A8F4"/>
<path d="M14.3796 0.469543C14.7054 0.73448 14.7054 1.21137 14.3796 1.52929C14.0537 1.84721 13.6192 1.84721 13.2933 1.52929" fill="#F57F60"/>
<ellipse rx="0.408319" ry="0.408325" transform="matrix(-0.715584 -0.698527 0.715979 -0.698122 13.5616 0.570282)" fill="white"/>
<path d="M21.5567 4.42906L22.5148 3.3905H16.5002V5.46761H22.5148L21.5567 4.42906Z" fill="#FF9F86"/>
<path d="M22.5148 5.46761L21.5567 4.42906L22.5148 3.3905H16.5002" fill="#F57F60"/>
<rect x="14.3711" y="2.35193" width="4.25806" height="1.55783" fill="#FFB4A1"/>
<path d="M14.3711 2.35193H18.6292V3.90976" fill="#FF9F86"/>
<rect y="31.4314" width="33" height="1.03855" fill="#7BA2F3"/>
</svg>
