<svg width="32" height="32" viewBox="0 0 32 32" fill="none" xmlns="http://www.w3.org/2000/svg">
<path d="M22.7566 24.4087C21.8185 27.5477 16.689 27.5477 16.689 27.5477C16.689 27.5477 11.56 27.5477 10.6219 24.4087C9.86281 21.8713 11.5518 18.7751 12.2264 16.2209C12.3867 15.6155 12.4895 15.0408 12.4895 14.5113L16.689 7.70381L20.889 14.5113C20.889 15.0408 20.9917 15.6155 21.1521 16.2209C21.8266 18.7751 23.5157 21.8713 22.7566 24.4087Z" fill="#979AAF"/>
<path d="M28.046 11.8291C28.046 7.50518 22.9615 4 16.6895 4C10.4175 4 5.33301 7.50518 5.33301 11.8291C5.33301 16.153 10.4175 14.3074 16.6895 14.3074C22.9615 14.3074 28.046 16.1529 28.046 11.8291Z" fill="#727486"/>
</svg>
