<svg width="24" height="24" viewBox="0 0 24 24" fill="none" xmlns="http://www.w3.org/2000/svg">
    <path d="M21.7203 11.6724L15.6068 6.95736C15.1872 6.6377 14.5679 6.93738 14.5679 7.47681V9.99416H9.43327C9.07365 9.99416 8.79395 10.2739 8.79395 10.6335V13.7502C8.79395 14.1098 9.07365 14.3895 9.43327 14.3895H14.5679V16.9269C14.5679 17.4663 15.1872 17.766 15.6068 17.4463L21.7203 12.7113C22.06 12.4516 22.06 11.9321 21.7203 11.6724Z" fill="#E9856B"/>
    <path d="M9.47318 16.9863H6.53627C6.45636 16.9863 6.39642 16.9264 6.39642 16.8465V7.53627C6.39642 7.45636 6.45636 7.39642 6.53627 7.39642H9.47318C9.7329 7.39642 9.93269 7.19663 9.93269 6.9369V4.45952C9.93269 4.19979 9.7329 4 9.47318 4H3.45952C3.19979 4 3 4.19979 3 4.45952V19.9232C3 20.1829 3.19979 20.3827 3.45952 20.3827H9.47318C9.7329 20.3827 9.93269 20.1829 9.93269 19.9232V17.4458C9.93269 17.1861 9.7329 16.9863 9.47318 16.9863Z" fill="#E9856B"/>
</svg>
