<svg width="24" height="24" viewBox="0 0 24 24" fill="none" xmlns="http://www.w3.org/2000/svg">
<path d="M19.5 3.75H4.5C4.30109 3.75 4.11032 3.82902 3.96967 3.96967C3.82902 4.11032 3.75 4.30109 3.75 4.5V19.5C3.75 19.6989 3.82902 19.8897 3.96967 20.0303C4.11032 20.171 4.30109 20.25 4.5 20.25H19.5C19.6989 20.25 19.8897 20.171 20.0303 20.0303C20.171 19.8897 20.25 19.6989 20.25 19.5V4.5C20.25 4.30109 20.171 4.11032 20.0303 3.96967C19.8897 3.82902 19.6989 3.75 19.5 3.75ZM5.41727 20.25C5.75765 18.7587 6.59428 17.4271 7.79017 16.4734C8.98606 15.5196 10.4703 15.0001 12 15C11.2583 15 10.5333 14.7801 9.91661 14.368C9.29993 13.956 8.81928 13.3703 8.53545 12.6851C8.25162 11.9998 8.17736 11.2458 8.32205 10.5184C8.46675 9.79098 8.8239 9.1228 9.34835 8.59835C9.8728 8.0739 10.541 7.71675 11.2684 7.57205C11.9958 7.42736 12.7498 7.50162 13.4351 7.78545C14.1203 8.06928 14.706 8.54993 15.118 9.16661C15.5301 9.7833 15.75 10.5083 15.75 11.25C15.75 12.2446 15.3549 13.1984 14.6516 13.9016C13.9484 14.6049 12.9946 15 12 15C13.5297 15.0001 15.0139 15.5196 16.2098 16.4734C17.4057 17.4271 18.2424 18.7587 18.5827 20.25H5.41727Z" fill="#FFDDD4"/>
<path d="M12 15C14.0711 15 15.75 13.3211 15.75 11.25C15.75 9.17893 14.0711 7.5 12 7.5C9.92893 7.5 8.25 9.17893 8.25 11.25C8.25 13.3211 9.92893 15 12 15Z" stroke="#E9856B" stroke-width="2" stroke-linecap="round" stroke-linejoin="round"/>
<path d="M19.5 3.75H4.5C4.08579 3.75 3.75 4.08579 3.75 4.5V19.5C3.75 19.9142 4.08579 20.25 4.5 20.25H19.5C19.9142 20.25 20.25 19.9142 20.25 19.5V4.5C20.25 4.08579 19.9142 3.75 19.5 3.75Z" stroke="#E9856B" stroke-width="2" stroke-linecap="round" stroke-linejoin="round"/>
<path d="M5.41727 20.25C5.75754 18.7586 6.59413 17.427 7.79005 16.4732C8.98597 15.5194 10.4703 15 12 15C13.5297 15 15.014 15.5194 16.2099 16.4732C17.4059 17.427 18.2425 18.7586 18.5827 20.25" stroke="#E9856B" stroke-width="2" stroke-linecap="round" stroke-linejoin="round"/>
</svg>
