<svg width="24" height="20" viewBox="0 0 24 20" fill="none" xmlns="http://www.w3.org/2000/svg">
<path d="M20.3667 5.0379C20.4484 4.82308 20.4934 4.59021 20.4934 4.34678C20.4934 3.27112 19.6207 2.3992 18.5442 2.3992C18.256 2.3992 17.9827 2.46212 17.7365 2.57432C17.7152 1.51718 16.8515 0.666672 15.7883 0.666672C15.2501 0.666672 14.7631 0.884566 14.4104 1.23671C14.0576 0.884508 13.5704 0.666672 13.0324 0.666672C12.4944 0.666672 12.0072 0.884566 11.6545 1.23677C11.3018 0.884508 10.8145 0.666672 10.2765 0.666672C9.73842 0.666672 9.25132 0.884566 8.89854 1.23677C8.54587 0.884508 8.05865 0.666672 7.52065 0.666672C6.45753 0.666672 5.59379 1.51724 5.57238 2.57432C5.32621 2.46212 5.05295 2.3992 4.76482 2.3992C3.68818 2.3992 2.8155 3.27107 2.8155 4.34678C2.8155 4.59021 2.86054 4.82314 2.94227 5.0379C2.07998 5.23896 1.4375 6.01122 1.4375 6.93405C1.4375 8.00971 2.31024 8.88163 3.38688 8.88163C3.92494 8.88163 4.41209 8.66385 4.76482 8.31165C5.11743 8.66391 5.60471 8.88163 6.14271 8.88163C6.68077 8.88163 7.16792 8.66385 7.52071 8.31165C7.87344 8.66391 8.36059 8.88163 8.89859 8.88163C9.43671 8.88163 9.92381 8.66385 10.2766 8.31165C10.6293 8.66391 11.1164 8.88163 11.6545 8.88163C12.1925 8.88163 12.6798 8.66385 13.0325 8.3117C13.3852 8.66391 13.8724 8.88163 14.4104 8.88163C14.9484 8.88163 15.4356 8.66385 15.7884 8.31165C16.1411 8.66391 16.6284 8.88163 17.1664 8.88163C17.7044 8.88163 18.1916 8.66385 18.5443 8.31165C18.897 8.66391 19.3841 8.88163 19.9223 8.88163C20.9988 8.88163 21.8716 8.00976 21.8716 6.93405C21.8715 6.01111 21.229 5.23896 20.3667 5.0379Z" fill="#979AAF"/>
<path d="M11.654 19.4686C5.22812 19.4686 0 14.3531 0 8.06497C0 7.61531 0.372927 7.25063 0.832396 7.25063H22.4755C22.9354 7.25063 23.308 7.61531 23.308 8.06497C23.308 14.3531 18.08 19.4686 11.654 19.4686Z" fill="#727486"/>
</svg>
