<svg width="18" height="18" viewBox="0 0 18 18" fill="none" xmlns="http://www.w3.org/2000/svg">
<path d="M15.3633 4.53516H14.8711V2.63672C14.8711 1.18283 13.6883 0 12.2344 0H5.76562C4.31174 0 3.12891 1.18283 3.12891 2.63672V4.53516H2.63672C1.18283 4.53516 0 5.71799 0 7.17188V11.3906C0 12.8445 1.18283 14.0273 2.63672 14.0273H3.12891V16.418C3.12891 17.2903 3.83861 18 4.71094 18H13.2891C14.1614 18 14.8711 17.2903 14.8711 16.418V14.0273H15.3633C16.8172 14.0273 18 12.8445 18 11.3906V7.17188C18 5.71799 16.8172 4.53516 15.3633 4.53516ZM4.18359 2.63672C4.18359 1.76439 4.89329 1.05469 5.76562 1.05469H12.2344C13.1067 1.05469 13.8164 1.76439 13.8164 2.63672V4.53516H4.18359V2.63672ZM13.8164 16.418C13.8164 16.7087 13.5798 16.9453 13.2891 16.9453H4.71094C4.42016 16.9453 4.18359 16.7087 4.18359 16.418V11.2148H13.8164V16.418ZM16.9453 11.3906C16.9453 12.263 16.2356 12.9727 15.3633 12.9727H14.8711V11.2148H15.1875C15.4787 11.2148 15.7148 10.9787 15.7148 10.6875C15.7148 10.3963 15.4787 10.1602 15.1875 10.1602H2.8125C2.52127 10.1602 2.28516 10.3963 2.28516 10.6875C2.28516 10.9787 2.52127 11.2148 2.8125 11.2148H3.12891V12.9727H2.63672C1.76439 12.9727 1.05469 12.263 1.05469 11.3906V7.17188C1.05469 6.29954 1.76439 5.58984 2.63672 5.58984H15.3633C16.2356 5.58984 16.9453 6.29954 16.9453 7.17188V11.3906Z" fill="black"/>
</svg>
