<svg width="24" height="24" viewBox="0 0 24 24" fill="none" xmlns="http://www.w3.org/2000/svg">
<path d="M20.25 4.5H3.75C3.55109 4.5 3.36032 4.57902 3.21967 4.71967C3.07902 4.86032 3 5.05109 3 5.25V18.75C3 18.9489 3.07902 19.1397 3.21967 19.2803C3.36032 19.421 3.55109 19.5 3.75 19.5H20.25C20.4489 19.5 20.6397 19.421 20.7803 19.2803C20.921 19.1397 21 18.9489 21 18.75V5.25C21 5.05109 20.921 4.86032 20.7803 4.71967C20.6397 4.57902 20.4489 4.5 20.25 4.5ZM8.63442 13.5C8.18941 13.5 7.7544 13.368 7.38439 13.1208C7.01437 12.8736 6.72599 12.5222 6.55569 12.111C6.38539 11.6999 6.34083 11.2475 6.42765 10.811C6.51447 10.3746 6.72876 9.97368 7.04343 9.65901C7.3581 9.34434 7.75901 9.13005 8.19546 9.04323C8.63192 8.95642 9.08432 9.00097 9.49546 9.17127C9.90659 9.34157 10.258 9.62996 10.5052 9.99997C10.7525 10.37 10.8844 10.805 10.8844 11.25C10.8844 11.5455 10.8262 11.8381 10.7131 12.111C10.6001 12.384 10.4343 12.6321 10.2254 12.841C10.0165 13.0499 9.76844 13.2157 9.49546 13.3287C9.22247 13.4418 8.92989 13.5 8.63442 13.5Z" fill="#D3D3D3"/>
<path d="M14.25 10.5H18" stroke="black" stroke-width="2" stroke-linecap="round" stroke-linejoin="round"/>
<path d="M14.25 13.5H18" stroke="black" stroke-width="2" stroke-linecap="round" stroke-linejoin="round"/>
<path d="M8.6344 13.5C9.87704 13.5 10.8844 12.4926 10.8844 11.25C10.8844 10.0074 9.87704 9 8.6344 9C7.39176 9 6.3844 10.0074 6.3844 11.25C6.3844 12.4926 7.39176 13.5 8.6344 13.5Z" stroke="black" stroke-width="2" stroke-linecap="round" stroke-linejoin="round"/>
<path d="M5.72888 15.75C5.89534 15.106 6.27103 14.5355 6.79692 14.1283C7.32281 13.721 7.96911 13.5 8.63425 13.5C9.2994 13.5 9.94571 13.7209 10.4716 14.1282C10.9976 14.5354 11.3733 15.1058 11.5398 15.7498" stroke="black" stroke-width="2" stroke-linecap="round" stroke-linejoin="round"/>
<path d="M20.25 4.5H3.75C3.33579 4.5 3 4.83579 3 5.25V18.75C3 19.1642 3.33579 19.5 3.75 19.5H20.25C20.6642 19.5 21 19.1642 21 18.75V5.25C21 4.83579 20.6642 4.5 20.25 4.5Z" stroke="black" stroke-width="2" stroke-linecap="round" stroke-linejoin="round"/>
</svg>
