<svg width="39" height="30" viewBox="0 0 39 30" fill="none" xmlns="http://www.w3.org/2000/svg">
<path d="M12.0652 13.123L1.91456 2.9721C1.47641 2.53424 0.766535 2.53424 0.328388 2.9721C-0.109463 3.41024 -0.109463 4.12012 0.328388 4.55826L10.4793 14.7089L12.0652 13.123Z" fill="#9BACB2"/>
<path d="M16.8914 17.3259C16.8914 13.3405 20.1224 10.1094 24.1082 10.1094C28.0936 10.1094 31.3247 13.3405 31.3247 17.3259H16.8914Z" fill="#F781BF"/>
<path d="M24.1082 10.1094C23.8537 10.1094 23.6024 10.1228 23.3547 10.1486C26.9863 10.5253 29.8178 13.5947 29.8178 17.3259H31.3247C31.3247 13.3405 28.0937 10.1094 24.1082 10.1094Z" fill="#F464B7"/>
<path d="M19.35 17.3259C19.35 14.6982 21.4802 12.5677 24.1082 12.5677C26.7359 12.5677 28.8664 14.6982 28.8664 17.3259H19.35Z" fill="#FFA4D8"/>
<path d="M21.729 17.3259C21.729 16.0121 22.794 14.9468 24.1081 14.9468C25.422 14.9468 26.4872 16.0121 26.4872 17.3259H21.729Z" fill="#F781BF"/>
<path d="M24.1081 14.9468C23.8593 14.9468 23.6196 14.9851 23.3944 15.056C24.3594 15.3592 25.0598 16.2607 25.0598 17.3259H26.4872C26.4872 16.0121 25.422 14.9468 24.1081 14.9468Z" fill="#F464B7"/>
<path d="M18.865 8.74424C19.0619 8.54727 19.3882 8.55854 19.5653 8.77361C21.2547 10.8297 21.139 13.8721 19.218 15.7929C17.1741 17.8371 13.8602 17.8371 11.816 15.7929L18.865 8.74424Z" fill="#FB4239"/>
<path d="M20.6659 11.1551C20.5413 12.299 20.0418 13.4096 19.1652 14.2862C17.3888 16.0625 14.6538 16.2942 12.6262 14.983L11.816 15.7929C13.8602 17.8371 17.1741 17.8371 19.2183 15.7929C20.4793 14.5315 20.9614 12.7869 20.6659 11.1551Z" fill="#E31F1D"/>
<path d="M17.3957 10.2135C18.4331 11.2509 18.4331 12.9332 17.3957 13.9706C16.358 15.0079 14.676 15.0079 13.6387 13.9706L17.3957 10.2135Z" fill="#FF7373"/>
<path d="M10.6051 9.49744C10.6226 9.21295 10.3865 8.97682 10.102 8.99432C8.80746 9.07442 5.43874 9.45057 3.6731 11.2159C0.981626 13.9077 3.00031 16.5992 3.00031 16.5992C3.00031 16.5992 5.69208 18.6181 8.38355 15.9264C10.1492 14.1607 10.525 10.792 10.6051 9.49744Z" fill="#A1F3F1"/>
<path d="M9.42506 9.05069C9.26428 10.6045 8.77155 13.291 7.25984 14.8027C5.423 16.6395 3.58646 16.2826 2.60486 15.8706C2.79679 16.3274 3.00029 16.5992 3.00029 16.5992C3.00029 16.5992 5.69176 18.6178 8.38353 15.9264C10.1489 14.1607 10.525 10.792 10.6048 9.49744C10.6226 9.21266 10.3865 8.97682 10.1017 8.99432C9.91542 9.00589 9.68641 9.02369 9.42506 9.05069Z" fill="#77A2A1"/>
<path d="M10.2269 0.934416C9.93911 0.91454 9.70001 1.15334 9.72018 1.44138C9.7988 2.56894 10.1316 5.21325 11.5374 6.61935C13.7475 8.82937 15.9575 7.17171 15.9575 7.17171C15.9575 7.17171 17.6148 4.96169 15.4048 2.75197C13.999 1.34586 11.3544 1.01303 10.2269 0.934416Z" fill="#A1F3F1"/>
<path d="M15.4048 2.75167C15.2253 2.5722 15.0254 2.41053 14.8112 2.26428C16.1633 4.23669 14.8178 6.03199 14.8178 6.03199C14.8178 6.03199 13.0225 7.37758 11.05 6.02546C11.1963 6.23964 11.358 6.43958 11.5374 6.61935C13.7475 8.82907 15.9575 7.17171 15.9575 7.17171C15.9575 7.17171 17.6148 4.96169 15.4048 2.75167Z" fill="#77A2A1"/>
<path d="M26.8595 5.53424C26.5718 5.51407 26.3327 5.75317 26.3529 6.04091C26.4315 7.16847 26.764 9.81277 28.1701 11.2189C30.3801 13.4289 32.5899 11.7715 32.5899 11.7715C32.5899 11.7715 34.2475 9.56151 32.0375 7.3515C30.6314 5.94539 27.9871 5.61285 26.8595 5.53424Z" fill="#A1F3F1"/>
<path d="M32.0375 7.35149C31.8634 7.17706 31.6697 7.01924 31.4626 6.87656C32.8361 8.85608 31.4813 10.6627 31.4813 10.6627C31.4813 10.6627 29.675 12.0171 27.6952 10.6437C27.8382 10.851 27.996 11.0444 28.1701 11.2189C30.3801 13.4289 32.5902 11.7712 32.5902 11.7712C32.5902 11.7712 34.2475 9.5615 32.0375 7.35149Z" fill="#77A2A1"/>
<path d="M13.5609 14.1539C13.5609 15.9059 12.1406 17.3259 10.3886 17.3259C8.6369 17.3259 7.21655 15.9059 7.21655 14.1539C7.21655 12.4019 8.6369 10.9816 10.3886 10.9816C12.1406 10.9816 13.5609 12.4019 13.5609 14.1539Z" fill="#F27F41"/>
<path d="M12.2228 11.5665C12.5906 12.0845 12.8075 12.7169 12.8075 13.4004C12.8075 15.1524 11.3871 16.5724 9.63544 16.5724C8.95166 16.5724 8.31921 16.3556 7.80127 15.9877C8.37617 16.7973 9.3204 17.3259 10.3886 17.3259C12.1406 17.3259 13.561 15.9059 13.561 14.1539C13.5607 13.0854 13.032 12.1411 12.2228 11.5665Z" fill="#FC7800"/>
<path d="M11.5781 14.1539C11.5781 14.8107 11.0456 15.3434 10.3885 15.3434C9.73175 15.3434 9.19897 14.8107 9.19897 14.1539C9.19897 13.4968 9.73175 12.9643 10.3885 12.9643C11.0456 12.9643 11.5781 13.4968 11.5781 14.1539Z" fill="#FFD15F"/>
<path d="M27.756 17.3259C27.756 14.4354 30.0992 12.0919 32.99 12.0919C35.8805 12.0919 38.224 14.4354 38.224 17.3259H27.756Z" fill="#FB4239"/>
<path d="M32.9901 12.0919C32.775 12.0919 32.5638 12.1064 32.3556 12.1316C34.9468 12.4449 36.9551 14.6502 36.9551 17.3259H38.2241C38.2241 14.4354 35.8806 12.0919 32.9901 12.0919Z" fill="#E31F1D"/>
<path d="M30.3333 17.3259C30.3333 15.8587 31.5228 14.6695 32.99 14.6695C34.4572 14.6695 35.6465 15.8587 35.6465 17.3259H30.3333Z" fill="#FF7373"/>
<path d="M24.8219 3.21001C24.8219 4.962 23.4016 6.38234 21.6496 6.38234C19.8979 6.38234 18.4775 4.962 18.4775 3.21001C18.4775 1.45801 19.8979 0.0379639 21.6496 0.0379639C23.4016 0.0379639 24.8219 1.45801 24.8219 3.21001Z" fill="#FF9F86"/>
<path d="M23.4606 0.606049C23.8183 1.11984 24.0287 1.74369 24.0287 2.41708C24.0287 4.16877 22.6086 5.58912 20.8566 5.58912C20.1832 5.58912 19.5594 5.3788 19.0459 5.02104C19.619 5.84334 20.5713 6.38205 21.6496 6.38205C23.4016 6.38205 24.8219 4.96201 24.8219 3.21001C24.8219 2.13141 24.2832 1.17947 23.4606 0.606049V0.606049Z" fill="#FC7800"/>
<path d="M22.8391 3.21C22.8391 3.86707 22.3066 4.39955 21.6495 4.39955C20.9927 4.39955 20.46 3.86707 20.46 3.21C20.46 2.55322 20.9927 2.02045 21.6495 2.02045C22.3066 2.02045 22.8391 2.55322 22.8391 3.21Z" fill="#FFD15F"/>
<path d="M3.00025 17.1939C2.84807 17.1939 2.69589 17.1358 2.5796 17.0198C2.34733 16.7875 2.34733 16.4108 2.5796 16.1788L4.99846 13.7596C5.23073 13.5277 5.60747 13.5277 5.83945 13.7596C6.07202 13.9919 6.07202 14.3687 5.83945 14.6009L3.42089 17.0198C3.30461 17.1358 3.15243 17.1939 3.00025 17.1939Z" fill="#77A2A1"/>
<path d="M16.5742 9.11803C16.5703 9.11803 16.5665 9.11803 16.5629 9.11803C16.2342 9.1118 15.9732 8.84067 15.9794 8.51228C15.9868 8.1118 15.6374 7.68997 15.5433 7.5989C15.5413 7.59683 15.5389 7.59445 15.5368 7.59238L13.4564 5.51199C13.2242 5.27972 13.2242 4.90298 13.4564 4.671C13.6887 4.43873 14.0654 4.43873 14.2974 4.671L16.3751 6.74842C16.4754 6.84661 17.1865 7.57725 17.1687 8.53453C17.1627 8.85906 16.8975 9.11803 16.5742 9.11803Z" fill="#77A2A1"/>
<path d="M32.5902 12.3663C32.438 12.3663 32.2858 12.3082 32.1699 12.1922L30.0889 10.1112C29.8566 9.87893 29.8566 9.50249 30.0889 9.27021C30.3212 9.03794 30.6976 9.03794 30.9302 9.27021L33.0108 11.3509C33.2431 11.5832 33.2431 11.9599 33.0108 12.1922C32.8949 12.3082 32.7424 12.3663 32.5902 12.3663Z" fill="#77A2A1"/>
<path d="M31.5626 27.328L31.4087 27.7133C30.9269 28.9177 29.7605 29.7071 28.4633 29.7071H10.5538C9.2566 29.7071 8.09018 28.9174 7.60843 27.7133L7.45447 27.328H31.5626Z" fill="#8097C2"/>
<path d="M19.5083 15.9086H0.769444C0.370454 15.9086 0.0705444 16.2723 0.146783 16.6641L1.22213 22.1948C1.80177 25.1758 4.41286 27.3283 7.44963 27.3283H31.567C34.6041 27.3283 37.2148 25.1761 37.7945 22.1948L38.8698 16.6641C38.9461 16.2723 38.6462 15.9086 38.2472 15.9086L19.5083 15.9086Z" fill="#90A9D9"/>
<path d="M32.8779 22.1948C32.2982 25.1758 29.6872 27.328 26.6504 27.328H31.567C34.6041 27.328 37.2149 25.1758 37.7945 22.1948L38.8702 16.6638C38.9461 16.2722 38.6462 15.9083 38.2472 15.9083H34.1004L32.8779 22.1948Z" fill="#8097C2"/>
</svg>
