<svg width="18" height="14" viewBox="0 0 18 14" fill="none" xmlns="http://www.w3.org/2000/svg">
<path d="M17.3857 4.76222L13.3099 0.686432C12.9738 0.350113 12.6326 0.179688 12.2963 0.179688C11.8346 0.179688 11.2953 0.530975 11.2953 1.52084V2.82396C5.52008 3.07802 0.712739 7.47997 0.00480744 13.2617C-0.0244437 13.4999 0.110963 13.7278 0.334123 13.8161C0.397294 13.8411 0.462937 13.8531 0.527894 13.8531C0.692277 13.8531 0.851854 13.7761 0.953477 13.6373C2.89916 10.9788 6.02326 9.39172 9.31023 9.39172C9.97243 9.39172 10.6383 9.45654 11.2953 9.58481V10.9783C11.2953 11.9682 11.8346 12.3194 12.2963 12.3194H12.2965C12.6328 12.3194 12.9738 12.1489 13.3099 11.8127L17.3857 7.73691C18.2059 6.91678 18.2059 5.58235 17.3857 4.76222ZM16.6402 6.99135L12.5644 11.067C12.486 11.1454 12.4211 11.1949 12.3734 11.2248C12.3607 11.1699 12.3499 11.0891 12.3499 10.9783V9.15923C12.3499 8.91492 12.1818 8.70247 11.9439 8.64616C11.077 8.44113 10.1909 8.33731 9.31023 8.33731C7.48705 8.33731 5.67348 8.77841 4.06563 9.61324C3.11971 10.1043 2.24217 10.7318 1.46626 11.4673C2.85878 7.0228 7.01491 3.86697 11.8227 3.86697C12.1138 3.86697 12.3499 3.63091 12.3499 3.33963V1.52084C12.3499 1.41002 12.3607 1.32927 12.3734 1.2742C12.4211 1.30414 12.486 1.35371 12.5644 1.43199L16.6402 5.50778C17.0491 5.91675 17.0491 6.58225 16.6402 6.99135Z" fill="black"/>
</svg>
