<svg width="24" height="22" viewBox="0 0 24 22" fill="none" xmlns="http://www.w3.org/2000/svg">
<path d="M12.3057 5.77308C12.017 8.07982 12.9927 10.2052 14.6933 11.4837C16.6747 10.5187 18.1562 8.60239 18.445 6.29569C18.7337 3.98898 17.758 1.86349 16.0574 0.585009C14.076 1.55006 12.5944 3.46633 12.3057 5.77308Z" fill="#727486"/>
<path d="M8.93301 10.7396C10.544 12.4156 12.8098 12.9949 14.8735 12.478C15.3705 10.3308 14.8136 7.97347 13.2027 6.29741C11.5918 4.62135 9.32596 4.04204 7.26217 4.55902C6.76527 6.70619 7.32203 9.06346 8.93301 10.7396Z" fill="#727486"/>
<path d="M19.7723 12.7089C17.6345 13.6222 15.3225 13.2702 13.6248 11.9879C14.0063 9.81727 15.44 7.86492 17.5777 6.95154C19.7155 6.03815 22.0276 6.39023 23.7253 7.6725C23.3437 9.84313 21.9102 11.7955 19.7723 12.7089Z" fill="#727486"/>
<path d="M4.78863 8.88017C6.48813 12.8467 8.70467 16.5711 11.3808 19.9564L12.9441 21.9342L11.2768 21.7402C8.296 21.3934 5.54871 19.9567 3.56325 17.7066L3.48392 17.6167C1.44758 15.3089 0.332996 12.3592 0.333985 9.30497C0.33403 9.22933 0.33403 9.15471 0.334075 9.08127C0.33439 8.03662 1.18131 7.19011 2.22591 7.19011C3.34134 7.19011 4.3494 7.8549 4.78863 8.88017Z" fill="#727486"/>
<rect x="0.966797" y="4.80888" width="0.670372" height="3.35186" transform="rotate(-9 0.966797 4.80888)" fill="#727486"/>
<path d="M2.22595 7.19011C1.18131 7.19011 0.33439 8.03662 0.334075 9.08122C0.334075 9.15467 0.33403 9.22933 0.333985 9.30488C0.333895 9.54981 0.341806 9.79401 0.355965 10.0373L0.756679 9.70047C1.06943 9.43762 1.47936 9.32035 1.88385 9.37815L2.50661 9.4671C2.80646 8.88502 3.46207 8.57946 4.10066 8.72415L4.78872 8.88008C4.34944 7.8549 3.34139 7.19011 2.22595 7.19011Z" fill="#979AAF"/>
<rect x="13.8999" y="9.91986" width="1.21886" height="6.09429" transform="rotate(8 13.8999 9.91986)" fill="#727486"/>
</svg>
