<svg width="24" height="24" viewBox="0 0 24 24" fill="none" xmlns="http://www.w3.org/2000/svg">
<g clip-path="url(#clip0)">
<path d="M12 16.5C14.4853 16.5 16.5 14.4853 16.5 12C16.5 9.51472 14.4853 7.5 12 7.5C9.51472 7.5 7.5 9.51472 7.5 12C7.5 14.4853 9.51472 16.5 12 16.5Z" fill="#FFDDD4"/>
<path d="M12 12L21 3" stroke="#E9856B" stroke-width="2" stroke-linecap="round" stroke-linejoin="round"/>
<path d="M18.364 5.63604C16.7697 4.04493 14.6363 3.11014 12.3859 3.01662C10.1354 2.9231 7.93183 3.67766 6.21106 5.13101C4.49029 6.58436 3.37768 8.63064 3.09335 10.865C2.80902 13.0994 3.37368 15.3591 4.67562 17.1971C5.97756 19.0351 7.92195 20.3175 10.1241 20.7906C12.3263 21.2637 14.6258 20.893 16.5677 19.7518C18.5096 18.6107 19.9525 16.7823 20.611 14.6283C21.2694 12.4743 21.0953 10.1516 20.1233 8.11973" stroke="#E9856B" stroke-width="2" stroke-linecap="round" stroke-linejoin="round"/>
<path d="M15.182 8.81802C14.438 8.07408 13.4569 7.61435 12.4091 7.51873C11.3614 7.42311 10.3132 7.69763 9.4469 8.2946C8.58055 8.89157 7.95077 9.77323 7.66701 10.7863C7.38325 11.7995 7.46345 12.88 7.89368 13.8401C8.32391 14.8002 9.07696 15.5792 10.0219 16.0418C10.9669 16.5043 12.0441 16.621 13.0663 16.3718C14.0884 16.1225 14.9909 15.523 15.6169 14.6773C16.2429 13.8317 16.5528 12.7935 16.4927 11.7431" stroke="#E9856B" stroke-width="2" stroke-linecap="round" stroke-linejoin="round"/>
</g>
<defs>
<clipPath id="clip0">
<rect width="24" height="24" fill="white"/>
</clipPath>
</defs>
</svg>
