<svg width="24" height="24" viewBox="0 0 24 24" fill="none" xmlns="http://www.w3.org/2000/svg">
<path d="M12 16.5C14.4853 16.5 16.5 14.4853 16.5 12C16.5 9.51472 14.4853 7.5 12 7.5C9.51472 7.5 7.5 9.51472 7.5 12C7.5 14.4853 9.51472 16.5 12 16.5Z" fill="#D3D3D3"/>
<path d="M12 12L21 3" stroke="black" stroke-width="2" stroke-linecap="round" stroke-linejoin="round"/>
<path d="M18.3639 5.63603C16.7697 4.04491 14.6363 3.11013 12.3858 3.01661C10.1354 2.92309 7.9318 3.67764 6.21102 5.13099C4.49025 6.58434 3.37764 8.63062 3.09331 10.865C2.80898 13.0994 3.37364 15.3591 4.67559 17.1971C5.97753 19.0351 7.92191 20.3175 10.1241 20.7906C12.3262 21.2636 14.6257 20.893 16.5677 19.7518C18.5096 18.6107 19.9525 16.7823 20.6109 14.6283C21.2693 12.4742 21.0953 10.1516 20.1232 8.11972" stroke="black" stroke-width="2" stroke-linecap="round" stroke-linejoin="round"/>
<path d="M15.182 8.81804C14.438 8.07411 13.4569 7.61438 12.4091 7.51875C11.3614 7.42313 10.3132 7.69766 9.44689 8.29462C8.58055 8.89159 7.95076 9.77325 7.667 10.7864C7.38324 11.7995 7.46345 12.88 7.89367 13.8401C8.3239 14.8002 9.07695 15.5793 10.0219 16.0418C10.9669 16.5043 12.0441 16.6211 13.0663 16.3718C14.0884 16.1225 14.9909 15.523 15.6169 14.6774C16.2429 13.8317 16.5528 12.7935 16.4927 11.7431" stroke="black" stroke-width="2" stroke-linecap="round" stroke-linejoin="round"/>
</svg>
