<svg width="24" height="24" viewBox="0 0 24 24" fill="none" xmlns="http://www.w3.org/2000/svg">
<path d="M11.7435 10.5905C14.1157 10.5905 16.0388 8.66744 16.0388 6.29524C16.0388 3.92305 14.1157 2 11.7435 2C9.37132 2 7.44827 3.92305 7.44827 6.29524C7.44827 8.66744 9.37132 10.5905 11.7435 10.5905Z" fill="#3D3D3D" fill-opacity="0.5"/>
<path d="M11.7435 11.085C9.95678 11.0906 8.24482 11.8029 6.98139 13.0664C5.71796 14.3298 5.00566 16.0417 5 17.8285V19.4392C5 19.8379 5.15839 20.2203 5.44032 20.5022C5.72225 20.7842 6.10463 20.9425 6.50333 20.9425H16.9837C17.3824 20.9425 17.7648 20.7842 18.0467 20.5022C18.3287 20.2203 18.4871 19.8379 18.4871 19.4392V17.8285C18.4814 16.0417 17.7691 14.3298 16.5057 13.0664C15.2422 11.8029 13.5303 11.0906 11.7435 11.085Z" fill="#3D3D3D" fill-opacity="0.5"/>
</svg>
