<svg width="22" height="24" viewBox="0 0 22 24" fill="none" xmlns="http://www.w3.org/2000/svg">
<path d="M21.2912 8.08755C21.2912 6.53129 20.0296 5.26966 18.4733 5.26966C18.3993 5.26966 18.3262 5.27341 18.2536 5.27903C18.2536 5.2759 18.2539 5.27282 18.2539 5.26966C18.2539 3.8346 17.0905 2.67122 15.6554 2.67122C15.2051 2.67122 14.7816 2.78586 14.4124 2.98744C13.9376 1.45028 12.5054 0.333344 10.8124 0.333344C9.11928 0.333344 7.68721 1.45028 7.21235 2.98744C6.84309 2.78586 6.4196 2.67122 5.96928 2.67122C4.53418 2.67122 3.37085 3.8346 3.37085 5.26966C3.37085 5.27278 3.37107 5.27586 3.37107 5.27903C3.29852 5.27341 3.22543 5.26966 3.15139 5.26966C1.59513 5.26966 0.333496 6.53124 0.333496 8.08755C0.333496 9.27934 1.07379 10.2976 2.11931 10.7095C2.04975 10.97 2.01214 11.2436 2.01214 11.5261C2.01214 13.2702 3.42611 14.6842 5.17029 14.6842C6.09397 14.6842 6.92492 14.2876 7.50237 13.6554C8.14111 14.8272 9.38382 15.6223 10.8124 15.6223C12.2409 15.6223 13.4836 14.8272 14.1224 13.6554C14.6999 14.2876 15.5308 14.6842 16.4544 14.6842C18.1986 14.6842 19.6126 13.2703 19.6126 11.5261C19.6126 11.2436 19.575 10.9701 19.5054 10.7095C20.5509 10.2976 21.2912 9.27939 21.2912 8.08755Z" fill="#727486"/>
<path d="M21.2916 8.08755C21.2916 7.50797 21.1164 6.96935 20.8164 6.52147C20.8795 6.7512 20.9139 6.99284 20.9139 7.24266C20.9139 8.32647 20.2789 9.26138 19.3608 9.69713C19.264 9.74307 19.2148 9.85087 19.236 9.95587C19.2751 10.1503 19.2959 10.3513 19.2959 10.5572C19.2959 12.2386 17.9328 13.6015 16.2515 13.6015C15.464 13.6015 14.7464 13.3024 14.2059 12.8116C14.0996 12.7152 13.9328 12.7391 13.8543 12.8592C13.2059 13.8507 12.0859 14.5059 10.8128 14.5059C9.53968 14.5059 8.41966 13.8507 7.77129 12.8592C7.69272 12.7391 7.52599 12.7152 7.41972 12.8116C6.87924 13.3024 6.16162 13.6015 5.37407 13.6015C3.69276 13.6015 2.32975 12.2385 2.32975 10.5572C2.32975 10.3513 2.35048 10.1503 2.38963 9.95587C2.41077 9.85083 2.36153 9.74307 2.26476 9.69709C1.34669 9.26134 0.711668 8.32643 0.711668 7.24262C0.711668 6.99279 0.746064 6.75116 0.8092 6.52142C0.509181 6.96935 0.333984 7.50793 0.333984 8.08751C0.333984 9.2793 1.07428 10.2976 2.1198 10.7095C2.03254 11.0363 1.99552 11.3837 2.02005 11.7435C2.12668 13.3089 3.38926 14.5728 4.95489 14.6769C5.96443 14.7441 6.88073 14.3363 7.50286 13.6553C8.14159 14.8271 9.38431 15.6222 10.8128 15.6222C12.2414 15.6222 13.4841 14.8271 14.1228 13.6553C14.7449 14.3362 15.661 14.7439 16.6704 14.6769C18.2361 14.573 19.4989 13.3092 19.6056 11.7436C19.6302 11.3838 19.5932 11.0363 19.5059 10.7094C20.5513 10.2976 21.2916 9.27939 21.2916 8.08755Z" fill="#979AAF"/>
<path d="M14.122 13.6554C13.7042 14.4219 13.0279 15.027 12.2103 15.3541C11.7892 16.0731 11.3277 16.9195 11.0273 17.6424C10.9478 17.8337 10.6762 17.8337 10.5967 17.6424C10.2963 16.9195 9.83479 16.0731 9.4137 15.3541C8.5961 15.027 7.91985 14.4219 7.50202 13.6554C7.16254 14.027 6.73498 14.3163 6.25293 14.4925C7.12877 16.2858 8.15126 19.0374 8.59629 22.7035C8.65191 23.1617 9.04208 23.5058 9.50363 23.5058H12.1204C12.5819 23.5058 12.9721 23.1617 13.0277 22.7035C13.4728 19.0374 14.4952 16.2858 15.3711 14.4925C14.889 14.3164 14.4615 14.027 14.122 13.6554V13.6554Z" fill="#727486"/>
<path d="M14.1228 13.6554C13.7051 14.4219 13.0288 15.027 12.2112 15.3541C11.9899 15.7319 11.7578 16.1448 11.5435 16.5566L14.945 15.4228C15.0891 15.0886 15.2323 14.7782 15.3719 14.4925C14.8899 14.3164 14.4623 14.027 14.1228 13.6554V13.6554Z" fill="#727486"/>
<path d="M9.4137 15.3541C8.5961 15.027 7.91985 14.4219 7.50202 13.6554C7.16254 14.027 6.73498 14.3163 6.25293 14.4925C6.36689 14.7258 6.48334 14.9757 6.60065 15.2414L10.1727 16.7342C9.93418 16.2644 9.66683 15.7863 9.4137 15.3541Z" fill="#727486"/>
<path d="M14.2665 6.7496C14.1054 7.54987 13.3986 8.15258 12.5508 8.15258C12.0505 8.15258 11.5994 7.94262 11.2805 7.60608C11.1714 7.49103 10.9855 7.51099 10.9053 7.64772C10.5598 8.23685 9.91993 8.63245 9.18756 8.63245C8.20907 8.63245 7.39609 7.9261 7.22922 6.99563C7.18898 7.14983 7.21293 7.23736 7.21293 7.23736C7.20297 7.31796 7.19727 7.39983 7.19727 7.48311C7.19727 8.58231 8.08832 9.47336 9.18751 9.47336C10.0491 9.47336 10.7826 8.92582 11.0596 8.15977C11.3677 8.65992 11.9202 8.99348 12.5507 8.99348C13.5174 8.99348 14.3011 8.20983 14.3011 7.24315C14.3011 7.24319 14.3256 7.02102 14.2665 6.7496Z" fill="#979AAF"/>
</svg>
