<svg width="339" height="264" viewBox="0 0 339 264" fill="none" xmlns="http://www.w3.org/2000/svg">
    <path d="M27.2681 204.764C22.4214 196.512 15.6854 188.339 14.0424 178.842C13.3852 176.039 13.3852 171.914 17.2462 171.292C19.7106 170.903 22.0929 172.537 23.9001 173.705C20.8606 168.489 16.4247 161.328 18.6427 155.023C20.5321 149.496 25.9538 151.987 29.6504 154.322C26.4467 149.029 21.9286 141.789 25.2144 135.718C28.0074 130.502 33.2649 133.539 36.7972 136.185C35.8114 131.281 36.3043 120.306 44.4369 121.239C51.9944 122.018 52.4052 133.227 51.9944 138.52C53.9659 137.197 56.5125 135.018 59.0591 135.718C61.5235 136.263 62.345 138.754 62.0985 140.856C61.9342 145.137 57.8269 148.251 54.9517 151.208C57.0054 150.975 60.6199 150.275 62.345 151.909C63.9879 153.388 63.0021 156.191 62.2628 157.981C60.0448 162.573 55.8553 165.765 51.5837 168.567C56.3482 169.346 61.5235 171.292 58.484 176.663C56.4304 180.477 52.2409 182.812 48.6264 185.147C51.9944 184.602 59.3877 182.968 60.4556 187.638C61.3592 191.686 56.9232 196.045 54.0481 198.302C48.7907 202.116 41.8903 204.607 35.8114 206.943L27.2681 204.764Z"
          fill="#84D4D8"/>
    <path opacity="0.7"
          d="M33.6754 201.883C29.2395 196.667 23.6535 191.296 22.257 184.447C21.7641 182.112 22.0927 179.854 24.1463 178.297C25.7071 177.207 27.843 176.818 29.7323 176.818C31.2931 176.818 33.1825 177.13 34.4147 178.141C35.7291 179.309 34.004 181.022 32.6075 181.022C30.5538 181.099 28.9109 178.687 27.9251 177.285C26.3643 175.028 25.3786 172.536 24.6392 169.968C23.8999 167.555 23.4892 164.908 24.1463 162.417C25.05 158.914 28.6644 156.113 32.6075 156.968C34.7433 157.435 40.7401 160.86 36.7149 162.729C34.3326 163.897 32.6896 159.927 32.1146 158.448C30.2252 153.777 29.8145 148.406 31.5396 143.658C32.2789 141.712 33.6754 139.143 36.222 139.299C37.8649 139.377 39.1793 140.7 40.0829 141.789C41.1508 143.191 42.5473 146.383 40.8222 147.783C40.0829 148.406 39.7543 145.759 39.7543 145.37C39.6721 144.358 39.6721 143.346 39.6721 142.334C39.6721 139.843 39.8364 137.353 40.3293 134.94C40.6579 133.383 41.3151 130.425 43.3688 130.191C45.6689 129.88 46.6547 133.15 47.0654 134.628C47.7226 136.964 47.969 139.377 48.0512 141.712C48.2154 143.891 48.2976 146.226 47.4761 148.251C47.3118 148.795 46.5725 149.729 46.8189 148.562C47.0654 147.316 48.1333 146.226 49.0369 145.37C49.6941 144.748 51.0085 143.424 51.5013 144.826C51.8299 145.837 51.6656 147.005 51.5835 148.016C51.4192 149.807 51.0906 151.519 50.5156 153.232C50.0227 154.556 49.4477 155.879 48.6262 157.046C48.2976 157.435 46.9011 158.603 47.2297 157.28C47.8047 155.411 50.0227 155.489 51.0085 156.891C52.5692 158.992 51.9942 162.417 51.337 164.675C50.5156 167.477 49.1191 170.124 47.3118 172.459C46.1618 173.938 44.1902 176.429 41.9723 176.117C41.0687 175.962 40.3293 175.028 40.2472 174.171C40.165 173.393 41.0687 172.849 41.7258 172.536C45.0939 170.903 51.5835 171.447 52.0764 175.806C52.3228 177.908 51.1727 180.165 50.187 181.955C48.9548 184.058 47.3118 186.004 45.2582 187.482C43.7795 188.572 41.5615 189.428 40.3293 187.638C39.2614 186.159 41.1508 185.38 42.383 185.147C45.8332 184.525 51.0085 185.848 51.6656 189.584C52.2407 192.775 50.1048 195.812 48.0512 198.069C45.9153 200.326 43.2866 202.194 40.5758 203.751C40.2472 203.907 40.5758 204.374 40.9044 204.218C46.1618 201.338 52.405 196.512 52.3228 190.129C52.3228 186.159 47.6404 184.525 44.1081 184.447C42.7937 184.447 40.9044 184.602 39.9186 185.536C39.0971 186.393 39.4257 187.638 40.2472 188.417C43.4509 191.296 48.2154 185.692 49.7762 183.59C51.9121 180.633 54.5408 175.417 50.8442 172.536C48.2976 170.513 43.4509 170.668 40.8222 172.381C38.1935 174.093 40.9044 177.363 43.5331 176.429C45.5046 175.728 47.0654 173.782 48.2155 172.225C49.7762 170.124 51.0085 167.711 51.8299 165.298C52.5692 163.04 52.8157 160.705 52.3228 158.292C51.9121 156.579 50.1048 154.089 47.969 155.489C47.0654 156.113 46.5725 157.046 46.5725 158.059C46.5725 158.837 47.5583 158.448 47.969 158.292C49.9405 157.357 50.8442 154.322 51.4192 152.532C51.9121 150.897 52.1585 149.184 52.3228 147.472C52.405 146.46 52.6514 144.124 51.5013 143.58C49.9405 142.802 47.8869 145.681 47.2297 146.694C46.8189 147.316 45.8332 149.029 46.8189 149.573C47.8869 150.197 48.544 147.472 48.6262 147.005C49.0369 145.059 48.9548 142.957 48.7905 141.011C48.6262 138.754 48.3797 136.496 47.7226 134.239C47.3118 132.682 46.5725 130.58 45.0117 129.802C38.9328 126.61 38.1114 144.748 39.9186 147.783C40.2472 148.329 40.8222 148.329 41.3151 148.094C42.2187 147.627 42.2187 146.07 42.3009 145.215C42.3009 142.568 40.0829 139.766 37.6185 138.754C33.3468 137.119 31.211 142.724 30.5538 145.604C29.4859 150.119 30.3895 155.334 32.2789 159.538C32.9361 161.016 34.004 162.884 35.8112 163.196C37.2899 163.43 39.015 162.028 38.8507 160.627C38.6864 158.448 35.4826 157.046 33.6754 156.424C31.1288 155.567 28.418 156.19 26.5286 157.981C22.5034 161.717 23.3249 167.166 24.9678 171.836C25.7893 174.171 26.9393 176.351 28.418 178.375C29.4038 179.62 30.7181 181.022 32.3611 181.411C34.8255 181.955 36.8791 178.842 34.6612 177.363C32.8539 176.117 30.1431 176.039 28.0894 176.273C25.7071 176.585 23.2427 177.674 22.1748 179.854C20.5319 183.045 22.5855 187.56 24.2285 190.44C26.6929 194.721 30.1431 198.302 33.3468 202.116C33.429 202.428 33.9218 202.116 33.6754 201.883Z"
          fill="#42A5B8"/>
    <path d="M35.1543 212.392C37.3722 209.511 49.6943 197.991 41.6439 196.434C38.5223 195.812 35.6471 196.512 37.2079 192.542C38.358 189.662 42.3011 184.758 40.4938 181.411C38.7687 178.375 34.3328 180.477 32.1148 181.566C33.4292 177.752 38.358 172.07 37.3722 167.867C36.3865 163.819 30.0611 166.621 27.5967 167.478C29.2397 162.884 33.5935 153.232 26.9395 150.43C21.8464 148.172 16.1782 152.532 14.946 156.969C14.1245 159.771 14.5353 162.573 14.946 165.22C11.4137 164.052 5.41695 163.274 7.38849 168.722C8.70284 172.147 12.6459 175.028 14.8639 177.752C10.6744 177.596 7.96352 179.154 10.3458 183.357C11.9887 186.549 15.4389 188.65 18.2319 190.985C11.3315 190.596 13.3852 195.423 16.6712 199.003C19.7927 202.506 26.8574 208.578 30.6362 211.613L35.1543 212.392Z"
          fill="#46AFCF"/>
    <path d="M40.576 198.614C38.3581 201.65 34.99 203.596 32.1149 206.009C29.6505 202.194 27.6789 197.991 26.1181 193.71C26.2003 193.71 26.2003 193.71 26.2824 193.632C28.0897 192.153 29.9791 190.752 31.7863 189.35C33.5114 187.95 35.4829 186.782 37.1259 185.225C37.4545 184.992 36.9616 184.525 36.7151 184.836C35.1543 186.237 33.4292 187.327 31.7863 188.572C29.8148 190.052 27.9254 191.609 25.9539 193.087C25.461 191.764 25.0502 190.441 24.7216 189.117C24.7216 189.039 24.7216 188.961 24.6395 188.961C24.3931 188.028 24.1466 187.171 23.9823 186.237C23.6537 184.758 23.3251 183.201 23.1609 181.722C23.1609 181.722 23.1609 181.722 23.243 181.644C25.8717 177.752 29.3219 174.483 32.9364 171.37C33.2649 171.136 32.7721 170.668 32.5256 170.981C29.0754 174.016 25.7896 177.208 23.1609 180.866C22.0929 173.316 22.2572 165.609 22.5858 158.059C22.5858 157.67 22.0108 157.67 21.9286 158.059C21.6001 164.13 21.5179 170.124 22.0108 176.195C18.6428 173.471 15.2747 170.668 11.9888 167.867C11.6602 167.633 11.2495 168.022 11.5781 168.256C15.0282 171.214 18.4785 174.094 22.0108 176.896C22.0108 176.896 22.0929 176.896 22.0929 176.974C22.3394 179.932 22.7501 182.89 23.3251 185.848C23.4894 186.782 23.7359 187.716 23.9823 188.65C22.3394 187.95 20.7786 186.782 19.2999 185.848C17.1641 184.603 15.1104 183.279 13.221 181.8C12.8924 181.566 12.4817 181.955 12.8103 182.19C14.6175 183.59 16.5891 184.836 18.5606 186.004C20.3678 187.093 22.2572 188.495 24.3109 189.273C25.5431 193.788 27.3504 198.302 29.5683 202.428C26.2824 200.793 22.9966 199.003 19.875 197.057C19.5464 196.823 19.2178 197.369 19.5464 197.602C22.9144 199.704 26.4467 201.572 29.9791 203.362H30.0612C30.7184 204.452 31.3756 205.542 32.0327 206.632C32.1149 206.71 32.197 206.788 32.2792 206.788H32.3613C32.4435 206.788 32.4435 206.788 32.5256 206.71C35.4829 204.14 39.0152 202.117 41.3154 198.925C41.3154 198.614 40.7403 198.302 40.576 198.614Z"
          fill="#42A5B8"/>
    <path d="M56.0194 207.177V228.038C56.0194 234.576 50.4334 239.792 43.6152 239.792H29.8967C22.9963 239.792 17.4924 234.498 17.4924 228.038V207.177H56.0194Z"
          fill="#FC6D89"/>
    <path d="M30.8825 227.805C25.7894 221.889 23.0786 214.649 21.2713 207.177H17.4104V228.038C17.4104 234.576 22.9964 239.792 29.8146 239.792H43.5332C45.2583 239.792 46.9012 239.481 48.3799 238.858C41.726 236.912 35.5649 233.643 30.8825 227.805Z"
          fill="#CF5D7F"/>
    <path d="M17.4104 207.177V212.626C17.9854 213.015 18.7248 213.17 19.4641 213.17H53.9659C54.7052 213.17 55.4445 212.937 56.0195 212.626V207.177H17.4104Z"
          fill="#CF5D7F"/>
    <path d="M57.7445 207.488C57.7445 209.434 56.1015 210.991 54.0478 210.991H19.5459C17.4923 210.991 15.8494 209.434 15.8494 207.488V204.296C15.8494 202.35 17.4923 200.793 19.5459 200.793H54.0478C56.1015 200.793 57.7445 202.35 57.7445 204.296V207.488Z"
          fill="#FC6D89"/>
    <path opacity="0.3" d="M332 117.192L308.917 115.713L308.752 96.8753L330.357 97.1084L332 117.192Z" fill="#212250"/>
    <path d="M308.766 95.9575L308.491 115.727L330.093 115.998L330.369 96.2288L308.766 95.9575Z" fill="#CBEAED"/>
    <path opacity="0.2"
          d="M316.227 106.762C313.435 103.648 310.642 99.8329 308.834 95.9408L308.588 115.713L330.193 115.946V115.635C324.607 114.468 319.76 110.809 316.227 106.762Z"
          fill="#6DC5D3"/>
    <path opacity="0.3" d="M209.716 27.9857L187.373 27.5187L186.469 7.12431H207.992L209.716 27.9857Z" fill="#212250"/>
    <path d="M208.074 6.1902H186.469V25.9619H208.074V6.1902Z" fill="#CBEAED"/>
    <path opacity="0.2"
          d="M194.027 16.9323C191.233 13.8186 188.358 10.0822 186.469 6.1902V25.9619H208.074V25.6505C202.488 24.4829 197.641 20.9022 194.027 16.9323Z"
          fill="#6DC5D3"/>
    <path opacity="0.3" d="M48.0514 114L25.9538 111.743L25.6252 92.9052H47.1478L48.0514 114Z" fill="#212250"/>
    <path d="M47.2299 92.0496H25.6252V111.821H47.2299V92.0496Z" fill="#CBEAED"/>
    <path opacity="0.2"
          d="M33.1828 102.713C30.3898 99.5997 27.5146 95.8637 25.6252 91.9714V111.743H47.2299V111.432C41.6439 110.341 36.7151 106.683 33.1828 102.713Z"
          fill="#6DC5D3"/>
    <path opacity="0.3" d="M63.0844 75.469L40.9047 75.2355L39.426 54.4519H61.0307L63.0844 75.469Z" fill="#212250"/>
    <path d="M61.0307 53.5178H39.426V73.2895H61.0307V53.5178Z" fill="#CBEAED"/>
    <path opacity="0.2"
          d="M46.9836 64.2599C44.1906 61.1462 41.3154 57.4098 39.426 53.5178V73.2895H61.0307V72.9781C55.4447 71.8883 50.598 68.2298 46.9836 64.2599Z"
          fill="#6DC5D3"/>
    <path d="M88.7963 38.9614C87.8106 40.9074 85.5926 41.8415 83.7854 41.0631L71.7097 35.6142C69.9025 34.8358 69.2453 32.5784 70.2311 30.6323L84.3604 2.37594C85.3461 0.429906 87.5641 -0.504187 89.3714 0.274226L101.447 5.72311C103.254 6.50153 103.911 8.75894 102.926 10.705L88.7963 38.9614Z"
          fill="#A3A6F3"/>
    <path d="M89.6177 33.5904C88.632 35.5365 86.414 36.4705 84.6067 35.6921L75.4063 31.5665C73.599 30.7881 72.9419 28.5307 73.9276 26.5847L84.8532 4.78912C85.8389 2.84309 88.0569 1.90899 89.8642 2.6874L99.0646 6.813C100.872 7.59141 101.529 9.84882 100.543 11.7949L89.6177 33.5904Z"
          fill="#EAEFFF"/>
    <path d="M79.9458 36.6119C80.3156 35.8741 80.0839 35.0368 79.4282 34.7417C78.7725 34.4466 77.9411 34.8055 77.5713 35.5433C77.2015 36.2811 77.4333 37.1185 78.0889 37.4136C78.7446 37.7086 79.576 37.3497 79.9458 36.6119Z"
          fill="#EAEFFF"/>
    <path d="M100.954 9.14815C98.9822 9.45951 97.0928 9.77079 95.1213 10.16C92.164 10.705 88.4674 11.0163 85.7565 12.4953C84.2779 13.2737 84.2779 13.8965 85.0172 15.1419C85.4279 15.8425 86.4958 16.5431 85.7565 17.555C84.8529 18.8783 81.4849 19.034 80.2527 19.2675C79.2669 19.4232 78.2811 19.5789 77.3775 19.7346L75.2417 23.938C79.0205 23.1596 82.7171 22.459 86.578 21.8363C88.1388 21.5249 95.1213 21.2135 93.3962 18.0999C92.4104 16.3095 89.2068 14.9084 92.9034 13.8186C95.2857 13.1181 97.75 12.8066 100.132 12.5731L100.543 11.7169C101.036 10.8607 101.118 9.92656 100.954 9.14815Z"
          fill="white"/>
    <path d="M88.1391 40.596C88.1391 40.596 86.7426 31.8 94.8751 26.7403C94.8751 26.7403 87.8926 22.9261 89.207 20.7465C89.4534 20.2795 98.6539 24.405 101.365 25.7283C101.858 25.9619 99.804 35.1471 94.3823 39.6619C94.3823 39.6619 95.8609 87.6122 95.8609 92.672C95.8609 93.3724 109.169 105.438 120.998 108.084C132.828 110.731 139.399 115.401 141.781 118.671C144.164 121.941 139.399 133.461 123.791 129.569C108.183 125.677 81.7316 104.426 78.9386 98.5882C76.1456 92.7501 88.1391 40.596 88.1391 40.596Z"
          fill="#FFC9C5"/>
    <path d="M141.781 118.593C139.399 115.246 132.827 110.576 120.997 108.006C109.168 105.438 95.8608 93.2944 95.8608 92.594C95.8608 89.1689 95.2036 66.8285 94.7929 52.1943C91.9177 51.4159 88.9604 50.4818 86.1674 49.5477C82.8816 64.7267 76.8848 94.2289 78.9385 98.5101C81.7315 104.348 108.183 125.599 123.791 129.491C139.399 133.383 144.163 121.941 141.781 118.593Z"
          fill="#F19391"/>
    <path d="M84.4425 52.35C83.3746 52.5835 78.8565 65.7387 77.2957 78.7382C75.7349 91.8933 74.9955 99.3656 78.8564 103.181C82.6352 106.995 116.644 132.526 129.295 131.826C142.028 131.203 148.845 124.509 142.356 116.102C135.867 107.695 98.9825 93.2944 98.3254 92.516C97.6681 91.7377 97.3396 56.5534 96.5181 55.1523C95.6966 53.7511 86.3319 51.8829 84.4425 52.35Z"
          fill="#A09EF2"/>
    <path d="M142.356 116.18C140.877 114.234 137.674 111.976 133.73 109.563C130.855 110.731 128.227 112.21 125.515 114C121.244 117.036 117.137 119.916 112.126 121.473C110.318 122.018 108.512 122.485 106.622 122.796C115.412 128.012 124.12 132.06 129.294 131.826C142.027 131.203 148.846 124.509 142.356 116.18Z"
          fill="#8D8BED"/>
    <path d="M276.092 66.5172C276.092 66.5172 269.849 69.553 264.427 69.2416C261.88 69.086 257.773 76.5587 253.665 82.2411L245.368 76.0917C245.368 76.0917 257.69 60.5234 262.127 57.799C266.563 55.0745 274.613 55.2302 274.613 55.2302L278.556 61.3797L276.092 66.5172Z"
          fill="#FFC9C5"/>
    <path d="M251.611 68.5411C248.243 72.511 245.45 76.0138 245.45 76.0138L253.747 82.1633C255.555 79.6724 257.362 76.8701 259.005 74.457C256.13 72.978 253.747 70.8763 251.611 68.5411Z"
          fill="#F19391"/>
    <path d="M266.07 65.1162C265.413 66.0503 265.166 69.2418 265.495 69.2418C270.588 69.164 276.092 66.5174 276.092 66.5174L278.556 61.302L276.749 58.4219C272.641 60.6793 267.713 62.4696 266.07 65.1162Z"
          fill="#F19391"/>
    <path d="M260.812 84.7321C260.566 85.5106 260.977 86.289 261.798 86.5225L294.986 96.7192C295.807 96.9533 296.629 96.5641 296.875 95.7857L312.4 50.4041C312.647 49.6257 312.237 48.8473 311.415 48.6138L278.146 38.4944C277.324 38.2609 276.503 38.6501 276.256 39.4285L260.812 84.7321Z"
          fill="#A3A6F3"/>
    <path d="M277.57 77.0259C273.217 64.4156 277.406 51.2604 279.706 38.9615L278.146 38.4944C277.324 38.2609 276.503 38.6501 276.256 39.4285L260.812 84.7321C260.566 85.5106 260.977 86.289 261.798 86.5225L291.782 95.7077C291.207 95.3185 290.631 94.8512 290.057 94.384C284.06 89.8697 279.952 83.798 277.57 77.0259Z"
          fill="#8191EF"/>
    <path d="M277.564 44.6671L264.525 82.8031L294.925 92.1354L307.963 53.9995L277.564 44.6671Z" fill="white"/>
    <path opacity="0.4"
          d="M278.228 44.7996L277.57 44.6438L264.509 82.786L286.032 89.4025C280.938 83.6423 278.146 76.7144 277.407 67.6848C276.749 59.9785 277.324 52.3501 278.228 44.7996Z"
          fill="#EAEFFF"/>
    <path d="M283.896 45.7337L283.32 47.5241C283.074 48.3804 283.485 49.2366 284.389 49.548L299.421 54.1406C300.325 54.3741 301.229 53.9849 301.557 53.1287L302.133 51.3383C302.379 50.4821 301.968 49.6258 301.064 49.3144L295.972 47.7576C296.218 46.59 295.479 45.3445 294.246 44.9553C293.014 44.5661 291.7 45.1889 291.124 46.2786L286.032 44.7218C285.128 44.4104 284.224 44.8775 283.896 45.7337ZM292.356 46.8235C292.521 46.2008 293.26 45.8894 293.836 46.123C294.492 46.2786 294.821 46.9792 294.575 47.5241C294.41 48.1468 293.671 48.4582 293.097 48.2247C292.521 48.069 292.193 47.4463 292.356 46.8235Z"
          fill="#EAEFFF"/>
    <path d="M301.146 49.3144L296.053 47.7576C296.3 46.59 295.561 45.3445 294.329 44.9553C293.26 44.644 292.11 45.0332 291.454 45.8894C292.11 45.4224 292.932 45.2667 293.753 45.5002C294.986 45.8894 295.725 47.057 295.479 48.3025L300.571 49.8593C301.475 50.0929 301.968 51.027 301.64 51.8832L301.064 53.6736C301.064 53.8292 300.982 53.9071 300.9 53.9849C301.229 53.8292 301.475 53.5179 301.64 53.1287L302.214 51.3383C302.461 50.4821 301.968 49.548 301.146 49.3144Z"
          fill="#EAEFFF"/>
    <path d="M274.202 51.7275C277.077 50.6378 280.856 63.9486 279.213 63.9486C277.57 63.9486 274.202 56.7872 274.202 56.7872C274.202 56.7872 268.206 66.5952 260.073 64.727C258.101 64.26 255.473 58.5776 274.202 51.7275Z"
          fill="#FFC9C5"/>
    <path d="M176.366 116.18C182.28 110.654 216.125 98.6653 220.56 95.7077C224.996 92.7501 246.683 67.5292 248.984 69.2417C251.366 70.9542 258.183 75.9361 258.266 78.6605C258.348 81.4628 238.633 108.785 232.635 115.401C226.557 122.018 195.834 133.15 190.331 135.174C184.826 137.197 162.975 128.634 176.366 116.18Z"
          fill="#A09EF2"/>
    <path d="M221.71 116.881C211.113 116.024 200.599 112.444 190.577 108.63C184.005 111.509 178.419 114.312 176.366 116.258C162.975 128.712 184.826 137.275 190.331 135.251C195.506 133.383 222.779 123.497 231.24 116.803C228.036 117.036 224.832 117.114 221.71 116.881Z"
          fill="#8D8BED"/>
    <path d="M288.577 175.65C287.099 176.195 292.11 180.866 294.821 182.579C297.532 184.291 295.971 186.004 293.178 185.225C290.385 184.447 283.485 181.411 282.006 176.351C281.514 174.795 269.027 169.501 260.895 167.166L266.316 157.747C266.316 157.747 281.021 165.142 283.238 165.687C285.456 166.232 305.007 167.322 305.828 168.411C306.65 169.501 298.024 170.513 298.024 170.513C298.024 170.513 310.265 174.016 310.593 175.65C310.839 177.285 300.899 174.717 300.899 174.717C300.899 174.717 312.729 180.71 311.579 182.812C310.429 184.914 302.625 179.854 298.271 177.985C293.836 176.195 289.318 175.417 288.577 175.65Z"
          fill="#FFC9C5"/>
    <path d="M301.229 175.184C299.011 174.016 296.711 173.238 294.247 172.771C293.917 172.693 294.082 172.225 294.41 172.303C296.957 172.771 299.257 173.627 301.558 174.795C301.804 174.872 301.558 175.261 301.229 175.184Z"
          fill="#F19391"/>
    <path d="M298.6 170.98C297.45 170.668 296.218 170.357 295.068 170.046C294.74 169.968 294.903 169.501 295.232 169.579C296.383 169.89 297.533 170.202 298.765 170.513C299.011 170.668 298.847 171.058 298.6 170.98Z"
          fill="#F19391"/>
    <path d="M276.831 173.627C276.831 173.627 277.816 167.944 281.184 164.364C279.624 163.118 276.912 162.184 276.912 162.184C276.912 162.184 273.38 164.908 272.23 171.681C274.366 173.238 276.831 173.627 276.831 173.627Z"
          fill="#8191EF"/>
    <path d="M272.97 165.22C272.806 165.454 272.888 165.765 273.217 165.92C273.463 166.076 273.791 165.998 273.956 165.687C274.121 165.454 274.038 165.142 273.71 164.986C273.545 164.908 273.217 164.986 272.97 165.22Z"
          fill="white"/>
    <path d="M279.509 168.253C280.397 166.753 279.835 164.855 278.252 164.014C276.67 163.171 274.667 163.705 273.779 165.204C272.89 166.703 273.453 168.602 275.035 169.443C276.617 170.285 278.621 169.753 279.509 168.253Z"
          fill="white"/>
    <path d="M278.654 167.797C279.276 166.748 278.883 165.418 277.775 164.829C276.668 164.24 275.266 164.612 274.644 165.662C274.022 166.711 274.415 168.04 275.522 168.63C276.63 169.219 278.032 168.846 278.654 167.797Z"
          fill="#EAEFFF"/>
    <path d="M276.666 166.776H276.749C276.831 166.776 276.831 166.776 276.913 166.699L277.57 165.609C277.652 165.532 277.57 165.454 277.488 165.376C277.406 165.298 277.324 165.376 277.242 165.454L276.666 166.387L276.092 165.609C276.009 165.532 275.927 165.532 275.845 165.532C275.763 165.609 275.763 165.687 275.763 165.765L276.666 166.776C276.666 166.699 276.585 166.699 276.666 166.776Z"
          fill="#8191EF"/>
    <path d="M267.63 156.89C268.863 157.981 266.891 161.873 266.07 163.507C265.248 165.142 262.045 169.112 258.348 168.333C254.734 167.555 207.006 150.819 195.752 148.016C184.087 145.059 162.154 141.556 165.604 135.329C169.054 129.023 182.855 112.054 197.641 117.892C222.696 127.778 264.016 153.543 267.63 156.89Z"
          fill="#A09EF2"/>
    <path d="M197.724 117.814C182.937 111.976 169.136 128.946 165.686 135.251C162.236 141.556 184.169 145.059 195.834 147.939C201.666 149.418 217.357 154.634 231.568 159.381C222.039 146.383 213.167 132.838 203.063 120.072C201.256 119.293 199.448 118.515 197.724 117.814Z"
          fill="#8D8BED"/>
    <path d="M101.036 264H36.7971L48.0513 236.6H89.782L101.036 264Z" fill="white"/>
    <path opacity="0.4"
          d="M96.9289 254.037L89.7821 236.678H48.0514L47.9692 236.834C55.6089 238.858 63.3308 240.648 70.8061 243.295C79.7602 246.175 88.4678 249.833 96.9289 254.037Z"
          fill="#EAEFFF"/>
    <path d="M61.2771 223.601C61.2771 223.601 57.0054 205.153 60.7842 196.512L78.1994 200.949C78.1994 200.949 69.3275 214.727 71.7098 225.002L61.2771 223.601Z"
          fill="#FFC9C5"/>
    <path d="M72.2025 214.805C74.0919 207.41 78.1993 200.949 78.1993 200.949L60.7841 196.512C60.2091 197.758 59.8805 199.237 59.634 200.793C62.3449 204.607 65.5486 208.032 69.1631 211.535C70.231 212.548 71.2989 213.637 72.2025 214.805Z"
          fill="#F19391"/>
    <path d="M59.2233 202.895C60.4555 203.985 71.4632 207.176 74.2562 206.71C76.967 206.242 80.9101 201.961 82.3887 201.105C83.8674 200.248 102.679 183.746 113.358 174.717C123.955 165.687 122.312 140.466 118.369 138.676C114.426 136.886 86.7426 164.675 74.8312 175.806C62.9199 187.015 54.9516 199.003 59.2233 202.895Z"
          fill="#A09EF2"/>
    <path d="M80.5823 242.906L53.2274 217.296C52.8167 216.907 54.3774 215.349 54.7881 215.816L82.1431 241.427C82.3896 241.66 83.4575 244.073 83.4575 244.073C83.4575 244.073 80.6645 242.984 80.5823 242.906Z"
          fill="#212250"/>
    <path d="M63.4127 220.176C63.4127 220.176 54.623 225.313 56.4302 228.894C56.4302 228.894 54.3765 230.295 55.5266 233.487C55.5266 233.487 55.0337 237.534 56.4302 239.403C57.8267 241.271 63.6592 243.995 65.9593 240.648C65.9593 240.648 67.6844 240.414 67.7665 237.846C67.7665 237.846 69.4095 237.534 69.7381 235.199C69.7381 235.199 74.3383 233.331 74.7491 229.595C75.1598 225.858 70.231 221.11 70.231 221.11L63.4127 220.176Z"
          fill="#FFC9C5"/>
    <path d="M69.4096 229.44L54.7874 215.817C54.3767 215.428 52.7337 216.907 53.2266 217.296L68.4238 231.463C68.5059 231.308 68.5059 231.23 68.5881 231.074C68.9167 230.529 69.2453 229.984 69.4096 229.44Z"
          fill="#212250"/>
    <path d="M69.7382 234.966C67.2738 233.954 68.506 231.697 69.2453 230.14C69.8204 228.816 69.9847 227.805 69.4918 226.403C69.4096 226.248 69.1632 226.325 69.2453 226.481C70.0668 228.894 68.2596 230.373 68.0131 232.552C67.8488 233.72 68.506 234.732 69.5739 235.122C69.7382 235.277 69.9025 235.044 69.7382 234.966Z"
          fill="#F19391"/>
    <path d="M56.3481 228.972C58.8946 233.176 63.1663 235.978 67.6844 237.846C67.8487 237.924 68.013 237.69 67.8487 237.612C63.3306 235.744 59.0589 233.02 56.5945 228.816C56.5124 228.66 56.2659 228.816 56.3481 228.972Z"
          fill="#F19391"/>
    <path d="M55.5266 233.565C56.9231 235.355 58.6482 236.834 60.5376 238.157C61.9341 239.169 64.152 240.648 66.0414 240.726C66.2057 240.726 66.2057 240.492 66.0414 240.492C64.3985 240.414 62.5912 239.169 61.2769 238.39C59.2232 237.068 57.3338 235.355 55.773 233.487C55.6087 233.253 55.3623 233.409 55.5266 233.565Z"
          fill="#F19391"/>
    <path d="M118.37 138.754C116.316 137.82 107.937 144.826 98.6541 153.388C97.8326 156.035 97.2576 158.681 96.929 161.406C95.6968 168.8 97.3397 175.417 94.8753 182.812C93.6431 186.393 92.4109 190.129 91.1787 193.866C97.9148 188.106 107.115 180.165 113.358 174.795C123.955 165.765 122.23 140.544 118.37 138.754Z"
          fill="#8D8BED"/>
    <path d="M136.031 111.587C133.32 113.533 124.448 155.724 124.776 163.741C125.023 171.758 126.748 206.008 127.899 208.11C129.049 210.212 181.786 220.176 195.341 208.11C208.895 196.045 191.07 114.779 188.277 111.587C185.402 108.395 145.067 104.893 136.031 111.587Z"
          fill="#A09EF2"/>
    <path d="M188.195 111.587C188.195 111.587 188.195 111.509 188.195 111.587C189.427 119.215 188.688 125.131 188.441 133.15C188.03 148.094 181.047 173.938 158.046 169.268C133.567 164.208 134.963 134.005 135.292 112.833C132.006 120.072 124.531 156.424 124.777 163.741C125.024 171.758 126.748 206.008 127.899 208.11C129.049 210.212 181.787 220.176 195.341 208.11C208.814 196.045 191.07 114.779 188.195 111.587Z"
          fill="#8D8BED"/>
    <path d="M102.844 170.825C102.844 170.825 114.755 198.613 132.417 205.697H139.235C139.235 205.697 121.738 180.555 118.698 170.825H102.844Z"
          fill="#FFC9C5"/>
    <path d="M118.205 197.913C118.205 197.913 123.545 194.41 129.131 185.848C129.131 185.848 135.784 117.036 136.688 112.444C137.592 107.851 125.845 114.857 120.998 123.964C116.151 133.15 97.6684 164.441 99.7221 170.903C101.776 177.363 115.823 198.224 118.205 197.913Z"
          fill="#A09EF2"/>
    <path d="M220.314 170.825C220.314 170.825 208.403 198.613 190.741 205.697H183.923C183.923 205.697 201.421 180.555 204.459 170.825H220.314Z"
          fill="#FFC9C5"/>
    <path d="M204.87 197.913C204.87 197.913 199.531 194.41 193.945 185.848C193.945 185.848 186.962 116.803 186.059 112.21C185.155 107.617 197.231 114.857 201.995 123.964C206.841 133.15 225.325 164.441 223.271 170.903C221.217 177.363 207.335 198.225 204.87 197.913Z"
          fill="#A09EF2"/>
    <path d="M203.801 211.924C203.801 216.206 200.105 219.708 195.587 219.708H128.473C123.955 219.708 120.258 216.206 120.258 211.924L112.044 163.663C112.044 159.381 115.74 155.879 120.258 155.879H203.884C208.402 155.879 212.098 159.381 212.098 163.663L203.801 211.924Z"
          fill="#A3A6F3"/>
    <path d="M203.802 214.65C203.802 218.931 200.106 222.434 195.588 222.434H128.473C123.955 222.434 120.258 218.931 120.258 214.65L112.044 166.388C112.044 162.107 115.74 158.604 120.258 158.604H203.885C208.403 158.604 212.1 162.107 212.1 166.388L203.802 214.65Z"
          fill="#F5F7FF"/>
    <path d="M161.99 194.411C166.073 194.411 169.383 192.319 169.383 189.741C169.383 187.161 166.073 185.07 161.99 185.07C157.906 185.07 154.597 187.161 154.597 189.741C154.597 192.319 157.906 194.411 161.99 194.411Z"
          fill="#EAEFFF"/>
    <path d="M122.148 158.604H120.176C115.658 158.604 111.961 162.107 111.961 166.388L120.176 214.65C120.176 218.931 123.873 222.434 128.391 222.434H195.505C196.245 222.434 196.984 222.356 197.641 222.2C182.28 218.542 168.068 211.458 154.76 199.159C141.864 187.716 129.952 173.938 122.148 158.604Z"
          fill="#EAEFFF"/>
    <path d="M154.35 93.3724C154.35 93.3724 154.021 106.839 152.954 109.408C152.461 110.654 150.16 115.012 152.954 117.425C155.746 119.838 163.797 121.395 168.069 116.958C170.615 114.312 169.301 111.743 167.986 109.408C166.508 106.762 167 93.3724 167 93.3724H154.35Z"
          fill="#FFC9C5"/>
    <path d="M167.082 103.103C166.836 98.5882 167 93.3724 167 93.3724H154.267C154.267 93.3724 154.186 98.0429 153.856 102.324C158.211 103.414 162.564 103.57 167.082 103.103Z"
          fill="#F19391"/>
    <path d="M146.546 42.62C143.588 39.662 140.549 36.1592 141.534 31.8001C142.521 27.4409 146.628 23.6267 151.311 22.9262C161.332 21.2136 164.7 34.1353 159.936 40.5183C157.965 43.1649 155.09 43.5541 151.803 43.3984L146.546 42.62Z"
          fill="#14133F"/>
    <path d="M153.939 22.7704C155.007 23.938 155.992 25.2613 156.732 26.9738C158.046 30.0096 159.115 35.692 159.032 41.4523C159.361 41.1409 159.607 40.8296 159.936 40.5182C164.207 34.6801 161.907 23.5488 153.939 22.7704Z"
          fill="#242763"/>
    <path d="M169.957 34.8359C167.74 33.9796 165.522 33.5126 163.222 33.3569C163.222 33.279 163.222 33.2012 163.303 33.2012C163.633 31.8779 163.633 30.6324 163.303 29.4648C163.386 27.5966 163.057 25.7284 162.4 23.8602C162.4 23.7824 162.236 23.8602 162.318 23.8602C162.811 25.4171 163.057 26.9739 163.057 28.5307C162.4 26.7404 161.168 25.1057 159.607 23.8602C156.157 21.2136 151.064 20.8244 147.532 22.6926C144.656 22.4591 141.945 23.471 139.891 26.6625C138.248 29.2313 138.906 32.1114 140.384 34.758C140.795 36.237 141.699 37.4046 142.931 38.4166C143.67 39.3507 144.409 40.2069 145.15 40.9075C145.231 40.9853 145.313 40.9075 145.231 40.8296C144.82 40.2848 144.409 39.7399 143.999 39.1171C145.724 40.1291 147.778 40.8296 149.585 41.3745C149.831 41.4524 149.914 41.141 149.668 41.0632C147.532 40.3626 145.478 39.5842 143.753 38.183C140.877 35.9256 140.795 31.8001 142.274 28.8421C142.685 27.9858 143.342 27.2853 143.999 26.7404C143.835 27.2074 143.67 27.6745 143.588 28.2194C143.588 28.2194 143.588 28.2972 143.67 28.2194C144.163 27.4409 144.656 26.7404 145.15 26.0398C147.778 24.7943 151.311 25.0279 154.021 25.4171C154.267 25.4171 154.514 25.1057 154.186 24.95C152.378 23.9381 150.57 23.1597 148.764 22.8483C149.092 22.6926 149.421 22.6148 149.749 22.4591C153.035 21.4472 156.979 23.004 159.443 25.0279C162.071 27.1296 162.482 30.3211 161.907 33.279C155.829 33.2012 149.749 35.3029 144.246 37.5603V37.6382C149.914 35.6921 155.829 33.9018 161.743 33.9796C161.743 33.9796 161.743 33.9796 161.743 34.0575C160.839 37.5603 157.553 38.8058 154.925 40.9075C154.678 41.141 155.007 41.5302 155.336 41.3745C156.321 40.7518 157.225 40.2848 158.046 39.7399C157.635 40.1291 157.225 40.5961 156.814 40.9853C156.65 41.141 156.896 41.3745 157.061 41.2189C157.964 40.5183 158.704 39.7399 159.443 38.8836C161.086 37.716 162.236 36.3927 162.975 33.9796C164.782 34.0575 166.671 34.3688 168.561 34.9137C177.598 37.4825 180.226 45.0331 182.362 52.8172C182.444 53.0507 182.69 52.9729 182.69 52.7394C181.376 44.7217 178.09 38.183 169.957 34.8359ZM144.656 25.4949C141.864 26.7404 140.467 29.6205 140.221 32.5006C139.07 28.2194 141.453 24.0159 146.628 23.3932C145.806 23.8602 145.15 24.6387 144.656 25.4949ZM152.213 24.483C153.364 24.95 153.775 24.8722 152.46 24.7943C150.242 24.5608 148.188 24.483 145.971 25.0279C146.545 24.4051 147.203 23.7824 148.025 23.3154C149.503 23.3932 150.981 23.9381 152.213 24.483Z"
          fill="#14133F"/>
    <path d="M135.127 78.5827C135.127 78.427 134.881 78.427 134.799 78.5827C134.799 80.373 134.881 82.0855 135.456 83.8759C136.031 85.5884 137.098 87.1452 138.002 88.7799C138.002 88.8577 138.167 88.7799 138.085 88.702C136.442 85.277 135.21 82.3191 135.127 78.5827Z"
          fill="#14133F"/>
    <path d="M147.039 36.0033C143.014 35.2249 143.588 27.9078 146.052 25.9618C146.463 25.6504 145.889 25.1055 145.478 25.4169C142.52 27.7521 142.11 35.8476 146.793 36.7817C147.285 36.8596 147.532 36.0811 147.039 36.0033Z"
          fill="#0D0A29"/>
    <path d="M147.039 24.7943C146.546 24.7943 146.546 25.5727 147.039 25.5727C150.407 25.4948 153.118 30.9437 152.461 33.6682C152.379 34.1352 153.118 34.3687 153.282 33.9017C154.021 30.7102 150.982 24.7164 147.039 24.7943Z"
          fill="#0D0A29"/>
    <path d="M153.446 25.8062H153.364C152.05 25.0278 150.57 24.5607 149.092 24.405C148.599 24.3272 148.599 25.1056 149.092 25.1834C152.871 25.4948 157.142 28.6085 156.321 32.5784C156.239 33.0454 156.978 33.2789 157.142 32.8119C157.553 30.6323 156.65 28.6085 155.089 27.1295C157.553 28.2193 159.854 30.6323 159.443 33.1233C159.361 33.5903 160.182 33.8238 160.264 33.3568C160.757 29.7761 156.978 26.2732 153.446 25.8062Z"
          fill="#0D0A29"/>
    <path d="M142.11 36.782C143.096 38.9616 144.82 40.9076 146.628 42.6201L151.803 43.4764C155.007 43.632 157.964 43.165 159.936 40.5962C162.071 37.7939 162.564 33.6683 161.66 30.1655C159.443 30.5547 157.225 30.9439 155.007 31.4888C149.996 32.5786 146.053 34.6024 142.11 36.782Z"
          fill="#0D0A29"/>
    <path d="M185.237 75.9361C185.237 75.9361 187.784 72.1996 187.866 65.116C187.948 58.0325 183.923 39.5842 167.493 35.4586C151.064 31.333 138.167 38.7279 138.003 44.0212C138.003 44.0212 130.855 45.8893 129.377 53.3621C127.899 60.8349 129.788 65.5832 129.788 65.5832C129.788 65.5832 129.377 73.7564 137.263 76.0138C145.15 78.3491 174.147 82.864 185.237 75.9361Z"
          fill="#14133F"/>
    <path d="M167.493 35.4586C162.236 34.1353 157.307 33.9796 153.036 34.6023C161.743 35.9256 169.547 38.8836 175.626 45.8893C181.787 53.2064 185.237 62.5474 185.319 71.8883C185.319 73.2116 185.319 74.5349 185.237 75.7804C185.648 75.1577 187.701 71.4991 187.784 65.0383C187.948 58.0326 183.922 39.5842 167.493 35.4586Z"
          fill="#242763"/>
    <path d="M182.28 53.2843C176.447 53.44 170.779 52.8951 165.44 50.5599C160.758 48.4582 156.65 45.1888 152.871 41.8417C152.461 41.5303 151.885 42.0752 152.296 42.3866C156.403 45.8894 160.675 49.2366 165.687 51.494C170.944 53.8292 176.612 54.2184 182.362 54.0628C182.773 54.0628 182.773 53.2843 182.28 53.2843Z"
          fill="#0D0A29"/>
    <path d="M145.889 40.9075C158.704 38.6501 175.379 37.4825 181.869 50.7155C182.116 51.1825 182.773 50.7933 182.609 50.3263C175.955 36.7819 158.786 37.8717 145.643 40.2069C145.15 40.2069 145.396 40.9853 145.889 40.9075Z"
          fill="#0D0A29"/>
    <path d="M161.743 43.2427C161.251 43.2427 161.251 44.0211 161.743 44.0211C167.986 44.3325 174.723 46.8234 178.502 51.7274C178.83 52.1166 179.487 51.7274 179.241 51.3382C175.297 46.1229 168.315 43.5541 161.743 43.2427Z"
          fill="#0D0A29"/>
    <path d="M157.307 47.5241C151.311 47.8355 145.807 46.7456 140.795 43.5541C140.385 43.2427 139.974 43.9433 140.385 44.2547C145.478 47.524 151.229 48.6916 157.307 48.3803C157.883 48.2246 157.883 47.4462 157.307 47.5241Z"
          fill="#0D0A29"/>
    <path d="M139.482 50.6377C134.881 58.1883 133.156 66.673 135.703 75.1577C135.866 75.6247 136.606 75.469 136.524 74.9241C134.06 66.673 135.785 58.3439 140.221 51.0269C140.467 50.6377 139.728 50.2484 139.482 50.6377Z"
          fill="#0D0A29"/>
    <path d="M137.428 49.2366C137.757 48.8474 137.017 48.4582 136.688 48.8474C131.185 56.8651 130.446 68.2299 134.717 76.9481C134.964 77.4151 135.621 77.0259 135.456 76.5589C131.348 68.0742 132.089 57.0207 137.428 49.2366Z"
          fill="#0D0A29"/>
    <path d="M181.869 55.7753C181.705 55.3082 180.884 55.5417 181.047 56.0088C183.594 62.2361 184.744 68.7748 183.922 75.4691C183.84 75.9362 184.662 75.9362 184.744 75.4691C185.565 68.6969 184.416 62.0804 181.869 55.7753Z"
          fill="#0D0A29"/>
    <path d="M182.28 74.9242C182.28 74.9242 186.634 70.4094 190.166 71.8884C193.617 73.3674 192.384 87.3788 179.98 86.6004L182.28 74.9242Z"
          fill="#FFC9C5"/>
    <path d="M189.673 76.5589C185.483 75.8583 181.951 79.2833 182.034 83.0977C182.034 83.7982 183.184 83.7982 183.184 83.0977C183.184 82.3193 183.348 81.6186 183.677 80.918C184.333 80.451 185.155 80.0618 185.648 80.5288C186.634 81.4629 185.648 83.0198 184.416 82.942C183.677 82.942 183.677 84.0317 184.416 83.9538C186.387 83.9538 187.537 81.8521 186.469 80.2953C186.059 79.6726 185.237 79.439 184.498 79.6726C184.333 79.7504 184.251 79.8282 184.17 79.8282C185.32 78.0379 187.291 76.7924 189.591 76.6367C189.755 76.7146 189.755 76.5589 189.673 76.5589Z"
          fill="#F19391"/>
    <path d="M138.906 74.9242C138.906 74.9242 134.552 70.4094 131.02 71.8884C127.569 73.3674 128.801 87.3788 141.206 86.6004L138.906 74.9242Z"
          fill="#FFC9C5"/>
    <path d="M131.513 76.5589C135.703 75.8583 139.235 79.2833 139.152 83.0977C139.152 83.7982 138.003 83.7982 138.003 83.0977C138.003 82.3193 137.838 81.6186 137.51 80.918C136.853 80.451 136.031 80.0618 135.538 80.5288C134.552 81.4629 135.538 83.0198 136.77 82.942C137.51 82.942 137.51 84.0317 136.77 83.9538C134.799 83.9538 133.649 81.8521 134.717 80.2953C135.127 79.6726 135.949 79.439 136.688 79.6726C136.853 79.7504 136.935 79.8282 137.016 79.8282C135.867 78.0379 133.895 76.7924 131.595 76.6367C131.431 76.7146 131.348 76.5589 131.513 76.5589Z"
          fill="#F19391"/>
    <path d="M141.534 54.0628C141.534 54.0628 135.373 64.727 136.935 73.9901C138.413 83.2533 141.288 99.1325 160.593 100.067C179.898 99.1325 183.019 83.4089 183.759 74.068C183.84 72.5112 179.733 64.0265 178.501 56.398C178.501 56.398 167.575 56.6315 155.007 49.8593C154.925 49.7815 147.778 53.0508 141.534 54.0628Z"
          fill="#FFC9C5"/>
    <path d="M178.419 56.3981C178.419 56.3981 178.255 56.3981 177.926 56.3981C179.241 65.1163 180.062 74.1459 177.105 82.7084C174.23 91.271 167.329 97.4206 158.129 99.4446C157.718 99.5217 157.225 99.5997 156.814 99.6778C157.964 99.9109 159.196 99.9889 160.511 100.067C179.815 99.1325 182.937 83.409 183.676 74.0681C183.84 72.5112 179.651 63.9487 178.419 56.3981Z"
          fill="#FFD2D2"/>
    <path d="M158.785 72.7447C157.964 72.9003 158.785 79.8282 157.636 80.2174C156.157 80.7623 154.843 82.7862 156.321 84.0317C158.046 85.4328 160.921 84.4987 161.332 81.8521C161.661 79.2833 160.758 72.2776 158.785 72.7447Z"
          fill="#F19391"/>
    <path d="M174.723 75.8584C174.558 75.8584 174.065 75.9363 173.982 75.7806C173.982 75.7806 173.982 75.7806 173.901 75.7027C173.901 75.4692 173.901 75.2357 173.901 75.08C173.819 74.613 172.997 74.613 173.08 75.08C173.161 75.9363 172.915 76.9482 172.093 77.4152C170.779 78.2715 169.383 76.7925 169.383 75.6249C169.383 75.1578 168.562 75.1578 168.562 75.6249C168.643 77.1039 169.957 78.5829 171.6 78.3493C172.093 78.2715 172.422 78.1158 172.75 77.8823C172.915 78.038 173.08 78.1158 173.326 78.1937C173.819 78.2715 174.065 77.5709 173.572 77.4152C173.49 77.4152 173.326 77.4152 173.326 77.2596C173.49 77.026 173.654 76.7147 173.736 76.4811C174.065 76.559 174.393 76.559 174.723 76.559C175.215 76.559 175.215 75.7806 174.723 75.8584Z"
          fill="#14133F"/>
    <path d="M169.629 69.8645C171.026 68.8525 173.161 69.0082 174.393 70.2537C174.804 70.6429 175.38 70.098 174.969 69.7088C173.491 68.3076 170.944 67.9963 169.218 69.2417C168.808 69.4753 169.218 70.1758 169.629 69.8645Z"
          fill="#14133F"/>
    <path d="M148.845 75.6247C148.764 76.8702 147.695 77.8821 146.381 77.4929C145.313 77.2594 145.067 75.8582 145.149 75.002C145.231 74.5349 144.41 74.5349 144.327 75.002C144.327 75.2355 144.327 75.469 144.327 75.6247C144.327 75.6247 144.246 75.6247 144.246 75.7026C144.164 75.8582 143.67 75.7804 143.506 75.7804C143.014 75.7804 143.014 76.5588 143.506 76.5588C143.835 76.5588 144.164 76.5588 144.41 76.481C144.492 76.7923 144.657 77.0259 144.82 77.2594C144.738 77.3372 144.657 77.4151 144.574 77.4151C144.081 77.4929 144.246 78.2713 144.82 78.1935C145.067 78.1156 145.313 78.0378 145.396 77.8821C145.642 78.1156 145.97 78.2713 146.3 78.3492C148.024 78.8162 149.503 77.1815 149.585 75.6247C149.667 75.0798 148.845 75.1577 148.845 75.6247Z"
          fill="#14133F"/>
    <path d="M143.835 70.2538C145.067 69.0083 147.121 68.8526 148.599 69.8646C149.01 70.1759 149.421 69.4753 149.01 69.164C147.285 67.9184 144.739 68.152 143.26 69.631C142.849 70.0202 143.424 70.643 143.835 70.2538Z"
          fill="#14133F"/>
    <path d="M165.686 89.9477C163.961 91.9716 160.921 93.2944 158.129 92.672C157.635 92.594 157.389 93.2944 157.882 93.4505C160.921 94.0728 164.29 92.7501 166.179 90.4926C166.589 90.1034 166.015 89.5585 165.686 89.9477Z"
          fill="#DB6181"/>
    <path opacity="0.4"
          d="M179.322 78.7385C174.722 78.7385 171.026 82.0078 171.026 86.0555C171.026 89.4028 173.49 92.2051 176.94 93.0613C180.473 89.0914 182.197 84.0317 183.019 79.439C181.869 78.972 180.637 78.7385 179.322 78.7385Z"
          fill="#FF6E8D"/>
    <path opacity="0.4"
          d="M150.981 86.0556C150.981 82.0079 147.285 78.7385 142.685 78.7385C140.96 78.7385 139.4 79.2055 138.085 79.9839C139.152 84.4988 140.96 89.4028 144.492 93.2944C148.189 92.516 150.981 89.5585 150.981 86.0556Z"
          fill="#FF6E8D"/>
    <path d="M183.923 78.2711C183.923 78.0376 183.923 77.8041 183.923 77.5706C184.087 76.7921 184.251 75.9359 184.416 75.1575C184.744 73.912 185.237 72.5887 185.483 71.3433C185.566 70.954 184.991 70.7984 184.826 71.1876C184.826 71.2654 184.826 71.2654 184.744 71.3433C184.744 69.5529 184.416 67.7626 183.759 65.9722C183.759 65.8944 183.594 65.8944 183.594 65.9722C183.019 72.0438 181.623 77.8041 180.554 83.7979C180.226 85.6661 179.98 87.6899 180.226 89.5581C180.801 93.2164 182.608 95.8628 181.54 99.6778C181.54 99.7549 181.623 99.8329 181.705 99.7549C182.444 98.0429 183.019 96.4081 182.69 94.5401C181.951 90.3365 181.458 87.145 182.608 82.9416C182.773 82.3189 182.937 81.774 183.101 81.1513C183.594 85.0433 185.319 88.2348 183.348 92.2828C183.348 92.2828 183.348 92.3599 183.429 92.2828C184.662 90.103 185.237 88.0791 184.826 85.5882C184.333 83.253 183.923 80.8399 183.923 78.2711Z"
          fill="#14133F"/>
    <path d="M137.427 76.0139C136.113 71.3433 136.77 67.2178 137.099 62.5473C137.181 61.7689 136.031 61.7689 135.784 62.3916C133.895 67.4513 134.881 72.7445 136.524 77.7263C138.248 83.0974 142.685 91.7378 137.427 96.4081C137.346 96.4861 137.427 96.5641 137.509 96.4861C141.206 94.2289 140.795 90.0253 140.221 86.3668C139.728 82.8639 138.413 79.4389 137.427 76.0139Z"
          fill="#14133F"/>
    <path d="M182.197 55.4637C172.587 59.5115 161.004 54.0626 154.021 47.9131C154.021 47.9131 153.939 47.9131 154.021 47.9131C161.086 54.5296 172.587 59.9007 182.444 55.7751C182.608 55.6972 182.444 55.3859 182.197 55.4637Z"
          fill="#14133F"/>
    <path d="M139.81 246.487L160.428 243.606L147.942 229.127L132.17 235.122L139.81 246.487Z" fill="#F19391"/>
    <path d="M115.412 249.133C115.412 249.133 102.844 251.39 97.2575 250.69C88.3856 249.6 81.8138 244.307 82.7996 235.2C83.7854 226.092 101.529 231.775 101.529 231.775L115.412 249.133Z"
          fill="white"/>
    <path d="M120.176 234.888C115.658 234.498 101.201 230.84 94.8753 230.684C88.5499 230.451 90.8501 245.941 94.8753 247.654C98.9005 249.366 106.787 250.69 124.777 248.043C127.652 247.654 141.782 247.342 142.931 247.187C143.177 247.187 142.931 244.463 142.931 244.463C142.931 244.463 146.053 244.151 146.135 240.492C146.217 236.834 145.313 231.619 141.124 232.475C141.124 232.475 140.467 229.362 139.892 229.517C139.235 229.595 124.694 235.277 120.176 234.888Z"
          fill="#FEB650"/>
    <path d="M141.371 244.774C134.716 244.696 128.062 245.785 121.491 246.331C116.233 246.798 109.826 247.498 104.897 245.163C104.404 244.93 104.815 244.151 105.308 244.463C110.401 246.876 117.302 245.863 122.723 245.396C128.884 244.852 135.127 243.839 141.371 243.995C141.946 243.917 141.946 244.774 141.371 244.774Z"
          fill="#D1881F"/>
    <path d="M139.399 233.098C133.485 233.798 127.981 236.133 122.066 236.912C115.412 237.846 109.087 236.444 103.254 233.331C102.762 233.098 103.172 232.319 103.665 232.63C110.155 236.133 116.973 237.068 124.202 235.744C129.295 234.81 134.142 232.942 139.317 232.319C139.974 232.163 139.974 233.02 139.399 233.098Z"
          fill="#D1881F"/>
    <path d="M101.283 231.463C102.433 231.93 102.597 240.649 101.283 249.522C101.283 249.522 90.9321 251.157 85.346 240.492C79.76 229.828 92.9857 227.804 101.283 231.463Z"
          fill="white"/>
    <path d="M107.854 239.558C107.936 237.69 107.69 235.822 107.525 233.954C107.525 233.643 107.854 233.409 108.101 233.409C110.072 233.254 110.237 236.756 110.318 238.001C110.565 241.426 110.483 244.929 108.594 247.965C108.265 248.51 107.115 248.51 106.951 247.731C106.704 245.007 107.773 242.36 107.854 239.558Z"
          fill="white"/>
    <path d="M114.673 235.9C114.508 235.355 115.001 235.044 115.494 235.122C117.876 235.511 117.876 239.091 117.876 240.804C117.876 243.684 117.712 246.72 114.673 248.043C114.345 248.199 114.015 247.965 114.098 247.653C114.591 245.474 115.33 243.528 115.412 241.349C115.494 239.325 115.33 237.768 114.673 235.9Z"
          fill="white"/>
    <path d="M123.051 235.122C123.216 235.044 123.38 235.122 123.462 235.277C124.366 236.678 124.613 238.624 124.941 240.181C125.352 242.127 125.516 244.073 126.091 246.019C126.337 246.72 125.433 247.42 124.776 247.031C122.558 245.474 122.805 242.75 122.312 240.492C122.066 239.014 120.669 235.666 123.051 235.122Z"
          fill="white"/>
    <path d="M130.855 233.487C131.595 235.9 131.677 238.313 132.663 240.726C133.238 242.205 134.716 244.93 133.813 246.409C133.73 246.564 133.484 246.72 133.319 246.642C130.937 246.409 129.87 242.517 129.541 240.726C129.131 238.624 128.555 235.044 130.363 233.331C130.527 233.176 130.774 233.254 130.855 233.487Z"
          fill="white"/>
    <path d="M138.906 246.564C139.81 246.798 140.302 245.63 139.563 245.163C138.659 244.618 138.167 243.528 137.838 242.439C138.003 242.517 138.167 242.595 138.331 242.672C139.152 242.984 140.713 243.217 140.878 241.971C141.124 240.414 139.646 239.558 138.085 239.169C138.413 238.936 138.742 238.702 138.989 238.468C139.892 237.768 140.96 236.756 140.96 235.511C140.96 235.277 140.795 235.044 140.549 235.044C139.235 234.888 138.003 235.589 136.935 236.6C136.935 235.978 136.935 235.433 137.016 234.81C137.016 234.576 137.51 232.241 137.51 232.241C137.592 232.241 137.757 232.086 137.757 232.008C137.757 231.93 137.757 231.93 137.757 231.852C137.838 231.385 137.346 230.918 136.853 231.23C132.417 233.876 133.484 245.163 138.906 246.564ZM138.003 237.924C137.757 238.157 137.51 238.313 137.263 238.468C137.263 238.313 137.181 238.157 137.181 238.001C137.92 237.068 138.906 236.133 139.81 236.055C139.481 236.756 138.578 237.457 138.003 237.924ZM137.51 240.336C138.496 240.571 139.481 240.96 139.563 241.504C139.646 241.893 138.003 240.804 137.838 240.649C137.674 240.492 137.592 240.414 137.51 240.336Z"
          fill="white"/>
    <path d="M96.8468 248.977C97.0932 248.977 97.2575 248.821 97.2575 248.666C97.3397 248.432 97.1754 248.199 96.9289 248.199C96.8468 248.199 89.125 246.486 86.2498 239.714C83.4568 233.098 88.3856 230.995 88.6321 230.917C88.8785 230.84 88.9607 230.606 88.8785 230.373C88.7964 230.139 88.5499 230.062 88.3035 230.139C88.2214 230.139 82.3069 232.63 85.4283 240.025C88.4678 247.187 96.4361 248.977 96.7646 249.055C96.7646 248.977 96.8468 248.977 96.8468 248.977Z"
          fill="#D1881F"/>
    <path d="M136.195 232.942C144.903 229.984 200.517 206.164 215.714 199.159C230.747 192.231 249.723 197.134 244.136 211.069C238.797 224.457 206.677 245.552 150.488 245.241C137.592 239.714 136.195 232.942 136.195 232.942Z"
          fill="#4E5AF2"/>
    <path d="M204.542 229.673C192.22 227.727 180.719 223.835 169.219 219.397C153.939 225.859 140.139 231.619 136.114 232.942C136.114 232.942 137.51 239.636 150.407 245.163C186.88 245.396 213.167 236.6 228.611 226.715C220.725 228.972 212.674 230.84 204.542 229.673Z"
          fill="#04619C"/>
    <path opacity="0.3"
          d="M143.096 246.72C143.096 245.941 143.014 244.541 143.014 244.541C143.014 244.541 146.135 244.229 146.217 240.57C146.299 236.912 145.396 231.697 141.206 232.553C141.206 232.553 140.549 229.44 139.974 229.595C139.317 229.751 124.777 235.433 120.341 235.044C119.355 234.966 117.959 234.732 116.233 234.421C120.834 235.978 125.352 237.768 129.705 239.792C133.977 241.66 138.659 243.995 143.096 246.72Z"
          fill="#D1881F"/>
    <path d="M189.098 232.241L170.615 227.649L172.34 245.085L192.137 245.474L189.098 232.241Z" fill="#FFC9C5"/>
    <path d="M189.098 232.241L181.54 230.373C179.404 232.63 176.694 234.265 176.201 237.846C175.79 240.492 176.776 242.983 178.255 245.163L192.055 245.474L189.098 232.241Z"
          fill="#F19391"/>
    <path d="M208.321 248.899C208.321 248.899 220.889 251.156 226.476 250.456C235.347 249.366 241.919 244.073 240.933 234.966C239.947 225.858 222.203 231.541 222.203 231.541L208.321 248.899Z"
          fill="white"/>
    <path d="M203.555 234.654C208.074 234.265 222.532 230.606 228.857 230.451C235.182 230.217 232.882 245.707 228.857 247.42C224.832 249.133 216.946 250.456 198.956 247.809C196.081 247.42 181.951 247.109 180.801 246.953C180.554 246.953 180.801 244.229 180.801 244.229C180.801 244.229 177.679 243.917 177.598 240.258C177.515 236.6 178.419 231.385 182.608 232.241C182.608 232.241 183.266 229.127 183.84 229.284C184.498 229.284 199.12 235.044 203.555 234.654Z"
          fill="#FEB650"/>
    <path d="M182.362 244.463C189.016 244.385 195.67 245.474 202.242 246.019C207.499 246.487 213.906 247.187 218.835 244.852C219.328 244.618 218.917 243.839 218.424 244.151C213.332 246.564 206.431 245.552 201.01 245.085C194.849 244.541 188.605 243.528 182.362 243.684C181.787 243.606 181.787 244.463 182.362 244.463Z"
          fill="#D1881F"/>
    <path d="M184.415 232.786C190.33 233.487 195.834 235.822 201.749 236.6C208.403 237.535 214.728 236.133 220.56 233.02C221.053 232.786 220.643 232.008 220.149 232.319C213.66 235.822 206.841 236.756 199.613 235.433C194.519 234.498 189.673 232.63 184.498 232.008C183.84 231.93 183.84 232.708 184.415 232.786Z"
          fill="#D1881F"/>
    <path d="M222.45 231.152C221.299 231.619 221.136 240.336 222.45 249.211C222.45 249.211 232.8 250.845 238.387 240.181C244.054 229.517 230.829 227.493 222.45 231.152Z"
          fill="white"/>
    <path d="M215.878 239.325C215.796 237.456 216.042 235.588 216.207 233.72C216.207 233.409 215.878 233.175 215.632 233.175C213.66 233.02 213.496 236.522 213.414 237.768C213.167 241.193 213.25 244.696 215.139 247.731C215.467 248.277 216.618 248.277 216.782 247.498C217.11 244.696 216.042 242.049 215.878 239.325Z"
          fill="white"/>
    <path d="M209.142 235.666C209.307 235.122 208.814 234.81 208.321 234.888C205.939 235.277 205.939 238.858 205.939 240.57C205.939 243.45 206.102 246.486 209.142 247.809C209.471 247.965 209.799 247.731 209.718 247.42C209.225 245.241 208.485 243.295 208.403 241.115C208.321 239.091 208.485 237.457 209.142 235.666Z"
          fill="white"/>
    <path d="M200.763 234.81C200.599 234.732 200.434 234.81 200.352 234.966C199.449 236.366 199.202 238.312 198.874 239.869C198.463 241.815 198.298 243.761 197.724 245.707C197.477 246.409 198.381 247.109 199.038 246.72C201.256 245.163 201.01 242.439 201.503 240.18C201.749 238.702 203.063 235.355 200.763 234.81Z"
          fill="white"/>
    <path d="M192.959 233.176C192.22 235.588 192.137 238.001 191.152 240.414C190.577 241.893 189.098 244.618 190.002 246.096C190.084 246.253 190.331 246.409 190.494 246.331C192.877 246.096 193.945 242.204 194.273 240.414C194.684 238.312 195.259 234.732 193.452 233.02C193.288 232.942 193.041 232.942 192.959 233.176Z"
          fill="white"/>
    <path d="M186.715 230.917C186.223 230.606 185.73 231.073 185.812 231.541C185.812 231.619 185.812 231.619 185.812 231.696C185.812 231.774 185.976 231.93 186.058 231.93C186.058 231.93 186.552 234.265 186.552 234.498C186.634 235.122 186.716 235.666 186.634 236.289C185.565 235.355 184.333 234.576 183.02 234.732C182.773 234.732 182.609 235.044 182.609 235.199C182.609 236.444 183.676 237.457 184.58 238.157C184.826 238.39 185.155 238.624 185.483 238.858C183.922 239.247 182.444 240.103 182.69 241.66C182.855 242.906 184.416 242.75 185.237 242.36C185.402 242.282 185.565 242.204 185.73 242.127C185.402 243.217 184.909 244.228 184.005 244.852C183.266 245.318 183.676 246.486 184.662 246.253C190.331 244.852 191.316 233.565 186.715 230.917ZM184.005 235.744C184.991 235.9 185.895 236.756 186.634 237.69C186.634 237.846 186.552 238.001 186.552 238.157C186.305 238.001 186.058 237.768 185.812 237.612C185.237 237.145 184.333 236.444 184.005 235.744ZM185.976 240.336C185.812 240.492 184.169 241.582 184.251 241.193C184.416 240.648 185.319 240.258 186.305 240.025C186.223 240.103 186.058 240.258 185.976 240.336Z"
          fill="white"/>
    <path d="M227.46 249.366C227.214 249.366 227.05 249.21 227.05 249.055C226.967 248.821 227.132 248.588 227.378 248.588C227.46 248.588 235.182 246.875 238.057 240.103C240.851 233.487 235.922 231.385 235.675 231.307C235.429 231.23 235.347 230.995 235.429 230.762C235.511 230.528 235.758 230.451 236.004 230.528C236.086 230.528 242.001 233.02 238.879 240.414C235.84 247.576 227.871 249.366 227.543 249.444C227.46 249.366 227.46 249.366 227.46 249.366Z"
          fill="#D1881F"/>
    <path d="M175.709 227.649C175.709 227.649 176.613 237.301 173.162 246.331C173.162 246.331 122.724 235.744 102.269 229.205C78.4464 221.655 83.211 197.291 91.7543 196.045C112.866 193.165 139.81 216.206 175.709 227.649Z"
          fill="#4E5AF2"/>
    <path d="M120.669 224.224C111.961 220.643 103.419 215.972 97.1754 209.2C93.5609 205.308 91.5894 201.183 90.6036 196.434C82.7996 199.47 79.5138 222.044 102.269 229.205C122.723 235.666 173.161 246.331 173.161 246.331C173.243 246.019 173.408 245.785 173.49 245.474C172.422 244.696 171.272 243.917 170.122 243.217C154.843 234.187 136.935 230.995 120.669 224.224Z"
          fill="#3843ED"/>
    <path d="M316.179 241.971H326.365L316.755 196.279L316.179 241.971Z" fill="#EAEFFF"/>
    <path d="M316.918 197.291V197.213C316.836 197.135 316.836 197.135 316.755 197.135C316.672 197.135 316.672 197.213 316.59 197.213L318.15 241.115C318.15 241.193 318.233 241.271 318.397 241.271C318.479 241.271 318.561 241.193 318.561 241.038L317.247 203.207L321.19 241.038C321.19 241.115 321.273 241.193 321.354 241.193C321.436 241.193 321.519 241.115 321.519 240.96L317.494 202.272L324.64 241.038C324.64 241.115 324.722 241.193 324.805 241.193C324.887 241.193 324.969 241.037 324.969 240.96L316.918 197.291Z"
          fill="#EAEFFF"/>
    <path d="M316.755 241.971H252.351L255.884 196.279H316.755V241.971Z" fill="#EAEFFF"/>
    <path d="M314.29 205.775C314.29 206.632 313.55 207.332 312.647 207.332H260.073C259.169 207.332 258.43 206.632 258.43 205.775V201.805C258.43 200.949 259.169 200.248 260.073 200.248H312.647C313.55 200.248 314.29 200.949 314.29 201.805V205.775Z"
          fill="#FF6C8B"/>
    <path d="M265.002 214.338C265.002 215.272 264.18 216.051 263.194 216.051H260.237C259.252 216.051 258.512 215.272 258.512 214.338L258.594 212.236C258.594 211.302 259.415 210.524 260.401 210.524H263.359C264.344 210.524 265.084 211.302 265.084 212.236L265.002 214.338Z"
          fill="white"/>
    <path d="M272.724 214.338C272.724 215.272 271.902 216.051 270.916 216.051H267.958C266.973 216.051 266.234 215.272 266.234 214.338L266.316 212.236C266.316 211.302 267.137 210.524 268.123 210.524H271.081C272.066 210.524 272.806 211.302 272.806 212.236L272.724 214.338Z"
          fill="white"/>
    <path d="M280.445 214.338C280.445 215.272 279.624 216.051 278.639 216.051H275.681C274.695 216.051 273.956 215.272 273.956 214.338L274.038 212.236C274.038 211.302 274.86 210.524 275.845 210.524H278.803C279.789 210.524 280.528 211.302 280.528 212.236L280.445 214.338Z"
          fill="white"/>
    <path d="M288.167 214.338C288.167 215.272 287.346 216.051 286.361 216.051H283.403C282.417 216.051 281.678 215.272 281.678 214.338L281.76 212.236C281.76 211.302 282.582 210.524 283.567 210.524H286.524C287.51 210.524 288.25 211.302 288.25 212.236L288.167 214.338Z"
          fill="white"/>
    <path d="M295.89 214.338C295.89 215.272 295.068 216.051 294.082 216.051H291.124C290.139 216.051 289.399 215.272 289.399 214.338L289.482 212.236C289.482 211.302 290.303 210.524 291.289 210.524H294.247C295.232 210.524 295.971 211.302 295.971 212.236L295.89 214.338Z"
          fill="white"/>
    <path d="M264.755 221.733C264.755 222.667 263.934 223.445 262.948 223.445H259.991C259.005 223.445 258.266 222.667 258.266 221.733L258.348 219.631C258.348 218.697 259.169 217.919 260.156 217.919H263.112C264.098 217.919 264.837 218.697 264.837 219.631L264.755 221.733Z"
          fill="white"/>
    <path d="M272.477 221.733C272.477 222.667 271.656 223.445 270.67 223.445H267.712C266.727 223.445 265.987 222.667 265.987 221.733L266.069 219.631C266.069 218.697 266.891 217.919 267.877 217.919H270.834C271.82 217.919 272.559 218.697 272.559 219.631L272.477 221.733Z"
          fill="white"/>
    <path d="M280.199 221.733C280.199 222.667 279.378 223.445 278.392 223.445H275.434C274.449 223.445 273.71 222.667 273.71 221.733L273.791 219.631C273.791 218.697 274.613 217.919 275.599 217.919H278.556C279.541 217.919 280.281 218.697 280.281 219.631L280.199 221.733Z"
          fill="white"/>
    <path d="M287.921 221.733C287.921 222.667 287.099 223.445 286.113 223.445H283.157C282.171 223.445 281.431 222.667 281.431 221.733L281.514 219.631C281.514 218.697 282.335 217.919 283.32 217.919H286.278C287.264 217.919 288.003 218.697 288.003 219.631L287.921 221.733Z"
          fill="white"/>
    <path d="M295.642 221.733C295.642 222.667 294.821 223.445 293.836 223.445H290.878C289.892 223.445 289.153 222.667 289.153 221.733L289.235 219.631C289.235 218.697 290.057 217.919 291.042 217.919H293.999C294.985 217.919 295.725 218.697 295.725 219.631L295.642 221.733Z"
          fill="white"/>
    <path d="M264.426 229.049C264.426 229.984 263.605 230.762 262.62 230.762H259.662C258.676 230.762 257.937 229.984 257.937 229.049L258.019 226.948C258.019 226.014 258.841 225.235 259.826 225.235H262.783C263.77 225.235 264.509 226.014 264.509 226.948L264.426 229.049Z"
          fill="white"/>
    <path d="M272.148 229.049C272.148 229.984 271.327 230.762 270.341 230.762H267.384C266.398 230.762 265.659 229.984 265.659 229.049L265.741 226.948C265.741 226.014 266.563 225.235 267.549 225.235H270.505C271.491 225.235 272.231 226.014 272.231 226.948L272.148 229.049Z"
          fill="white"/>
    <path d="M279.953 229.049C279.953 229.984 279.131 230.762 278.146 230.762H275.188C274.202 230.762 273.463 229.984 273.463 229.049L273.545 226.948C273.545 226.014 274.367 225.235 275.353 225.235H278.31C279.296 225.235 280.035 226.014 280.035 226.948L279.953 229.049Z"
          fill="white"/>
    <path d="M287.675 229.049C287.675 229.984 286.853 230.762 285.867 230.762H282.91C281.925 230.762 281.185 229.984 281.185 229.049L281.267 226.948C281.267 226.014 282.088 225.235 283.075 225.235H286.032C287.017 225.235 287.756 226.014 287.756 226.948L287.675 229.049Z"
          fill="white"/>
    <path d="M295.396 229.049C295.396 229.984 294.575 230.762 293.589 230.762H290.631C289.646 230.762 288.907 229.984 288.907 229.049L288.988 226.948C288.988 226.014 289.81 225.235 290.796 225.235H293.753C294.739 225.235 295.479 226.014 295.479 226.948L295.396 229.049Z"
          fill="white"/>
    <path d="M264.18 236.367C264.18 237.301 263.359 238.079 262.373 238.079H259.415C258.43 238.079 257.691 237.301 257.691 236.367L257.772 234.265C257.772 233.331 258.594 232.552 259.58 232.552H262.537C263.523 232.552 264.263 233.331 264.263 234.265L264.18 236.367Z"
          fill="white"/>
    <path d="M271.902 236.367C271.902 237.301 271.081 238.079 270.094 238.079H267.138C266.152 238.079 265.413 237.301 265.413 236.367L265.495 234.265C265.495 233.331 266.316 232.552 267.302 232.552H270.259C271.245 232.552 271.984 233.331 271.984 234.265L271.902 236.367Z"
          fill="white"/>
    <path d="M279.624 236.367C279.624 237.301 278.802 238.079 277.817 238.079H274.86C273.873 238.079 273.134 237.301 273.134 236.367L273.217 234.265C273.217 233.331 274.038 232.552 275.023 232.552H277.981C278.967 232.552 279.706 233.331 279.706 234.265L279.624 236.367Z"
          fill="white"/>
    <path d="M287.346 236.367C287.346 237.301 286.524 238.079 285.539 238.079H282.582C281.595 238.079 280.856 237.301 280.856 236.367L280.939 234.265C280.939 233.331 281.76 232.552 282.746 232.552H285.703C286.689 232.552 287.428 233.331 287.428 234.265L287.346 236.367Z"
          fill="white"/>
    <path d="M295.149 236.367C295.149 237.301 294.328 238.079 293.343 238.079H290.385C289.399 238.079 288.66 237.301 288.66 236.367L288.742 234.265C288.742 233.331 289.564 232.552 290.549 232.552H293.506C294.493 232.552 295.232 233.331 295.232 234.265L295.149 236.367Z"
          fill="white"/>
    <path d="M303.693 214.338C303.693 215.272 302.872 216.051 301.886 216.051H298.928C297.943 216.051 297.203 215.272 297.203 214.338L297.285 212.236C297.285 211.302 298.107 210.524 299.093 210.524H302.05C303.036 210.524 303.775 211.302 303.775 212.236L303.693 214.338Z"
          fill="#EAEFFF"/>
    <path d="M311.415 214.338C311.415 215.272 310.594 216.051 309.608 216.051H306.65C305.665 216.051 304.926 215.272 304.926 214.338L305.007 212.236C305.007 211.302 305.829 210.524 306.815 210.524H309.772C310.757 210.524 311.498 211.302 311.498 212.236L311.415 214.338Z"
          fill="#EAEFFF"/>
    <path d="M303.364 221.733C303.364 222.667 302.543 223.445 301.557 223.445H298.6C297.614 223.445 296.875 222.667 296.875 221.733L296.957 219.631C296.957 218.697 297.778 217.919 298.764 217.919H301.721C302.707 217.919 303.446 218.697 303.446 219.631L303.364 221.733Z"
          fill="#EAEFFF"/>
    <path d="M311.087 221.733C311.087 222.667 310.265 223.445 309.279 223.445H306.321C305.336 223.445 304.596 222.667 304.596 221.733L304.679 219.631C304.679 218.697 305.5 217.919 306.486 217.919H309.444C310.429 217.919 311.168 218.697 311.168 219.631L311.087 221.733Z"
          fill="#EAEFFF"/>
    <path d="M303.118 229.049C303.118 229.984 302.296 230.762 301.31 230.762H298.354C297.368 230.762 296.628 229.984 296.628 229.049L296.711 226.948C296.711 226.014 297.531 225.235 298.517 225.235H301.475C302.46 225.235 303.2 226.014 303.2 226.948L303.118 229.049Z"
          fill="#EAEFFF"/>
    <path d="M310.84 229.049C310.84 229.984 310.018 230.762 309.033 230.762H306.076C305.089 230.762 304.35 229.984 304.35 229.049L304.433 226.948C304.433 226.014 305.254 225.235 306.239 225.235H309.197C310.183 225.235 310.922 226.014 310.922 226.948L310.84 229.049Z"
          fill="#EAEFFF"/>
    <path d="M302.871 236.367C302.871 237.301 302.05 238.079 301.064 238.079H298.107C297.121 238.079 296.382 237.301 296.382 236.367L296.464 234.265C296.464 233.331 297.285 232.552 298.272 232.552H301.228C302.214 232.552 302.953 233.331 302.953 234.265L302.871 236.367Z"
          fill="#EAEFFF"/>
    <path d="M310.594 236.367C310.594 237.301 309.772 238.079 308.786 238.079H305.829C304.843 238.079 304.103 237.301 304.103 236.367L304.186 234.265C304.186 233.331 305.007 232.552 305.993 232.552H308.951C309.936 232.552 310.675 233.331 310.675 234.265L310.594 236.367Z"
          fill="#EAEFFF"/>
    <path d="M260.813 197.991C260.813 198.614 260.237 199.159 259.58 199.159C258.924 199.159 258.348 198.614 258.348 197.991V193.087C258.348 192.464 258.924 191.92 259.58 191.92C260.237 191.92 260.813 192.464 260.813 193.087V197.991Z"
          fill="#A3A6F3"/>
    <path d="M271.163 197.991C271.163 198.614 270.588 199.159 269.931 199.159C269.273 199.159 268.699 198.614 268.699 197.991V193.087C268.699 192.464 269.273 191.92 269.931 191.92C270.588 191.92 271.163 192.464 271.163 193.087V197.991Z"
          fill="#A3A6F3"/>
    <path d="M281.595 197.991C281.595 198.614 281.021 199.159 280.363 199.159C279.706 199.159 279.131 198.614 279.131 197.991V193.087C279.131 192.464 279.706 191.92 280.363 191.92C281.021 191.92 281.595 192.464 281.595 193.087V197.991Z"
          fill="#A3A6F3"/>
    <path d="M292.028 197.991C292.028 198.614 291.452 199.159 290.796 199.159C290.139 199.159 289.563 198.614 289.563 197.991V193.087C289.563 192.464 290.139 191.92 290.796 191.92C291.452 191.92 292.028 192.464 292.028 193.087V197.991Z"
          fill="#A3A6F3"/>
    <path d="M302.379 197.991C302.379 198.614 301.804 199.159 301.147 199.159C300.489 199.159 299.915 198.614 299.915 197.991V193.087C299.915 192.464 300.489 191.92 301.147 191.92C301.804 191.92 302.379 192.464 302.379 193.087V197.991Z"
          fill="#A3A6F3"/>
    <path d="M312.811 197.991C312.811 198.614 312.237 199.159 311.579 199.159C310.922 199.159 310.347 198.614 310.347 197.991V193.087C310.347 192.464 310.922 191.92 311.579 191.92C312.237 191.92 312.811 192.464 312.811 193.087V197.991Z"
          fill="#A3A6F3"/>
</svg>
