<svg width="339" height="300" viewBox="0 0 339 300" fill="none" xmlns="http://www.w3.org/2000/svg">
    <g clip-path="url(#clip0_705_1955)">
        <g opacity="0.79">
            <path opacity="0.79"
                  d="M159.599 268.815C158.79 270.586 158.336 272.508 158.184 274.482C158.184 274.785 158.133 275.089 158.235 275.342C158.487 276 159.346 276.202 160.003 276C160.66 275.797 161.165 275.241 161.62 274.735C161.974 281.363 165.158 287.84 170.16 292.192C170.413 292.394 170.716 292.647 171.02 292.597C171.272 292.546 171.525 292.394 171.727 292.192C176.477 287.486 179.054 280.655 178.498 273.976C179.661 274.735 181.328 273.47 181.429 272.053C181.53 270.636 180.671 269.371 179.913 268.207"
                  fill="white"/>
        </g>
        <path d="M185.876 257.277V246.651H155.001V257.277V257.227C150.958 259.858 148.987 264.463 148.987 269.624H191.839C191.89 264.412 189.919 259.909 185.876 257.277Z"
              fill="#18004C"/>
        <path d="M165.107 249.182C171.879 251.965 185.927 257.227 185.927 257.227V246.601H158.892C160.913 247.512 163.035 248.321 165.107 249.182Z"
              fill="#0A0A0A"/>
        <path d="M198.56 206.931L210.233 220.593C213.063 223.932 214.377 228.284 213.821 232.635L210.638 257.328C210.436 259.049 208.768 260.263 207.05 259.959C205.534 259.706 204.422 258.34 204.523 256.772L205.13 245.64C205.483 238.809 200.784 232.686 194.113 231.32L198.56 206.931Z"
              fill="#FF3040"/>
        <path d="M143.075 206.931L131.401 220.593C128.572 223.932 127.258 228.284 127.814 232.635L130.997 257.328C131.199 259.049 132.867 260.263 134.585 259.959C136.101 259.706 137.213 258.34 137.112 256.772L136.505 245.64C136.152 238.809 140.851 232.686 147.522 231.32L143.075 206.931Z"
              fill="#FF3040"/>
        <path d="M206.039 215.684L198.56 206.931L194.113 231.32C195.427 231.573 196.69 232.028 197.802 232.635C200.43 226.968 203.159 221.25 206.039 215.684Z"
              fill="#CF0019"/>
        <path d="M136.859 222.566C139.386 225.855 142.014 229.093 144.591 232.332C145.551 231.876 146.511 231.573 147.572 231.32L143.125 206.931L133.726 217.961C134.838 219.581 135.899 221.301 136.859 222.566Z"
              fill="#CF0019"/>
        <path d="M148.835 243.008C148.835 243.008 141.609 224.438 141.963 204.907C142.317 185.375 137.516 142.011 151.21 113.827C159.397 97.0274 164.551 90.1458 167.331 87.3122C168.594 86.0472 170.716 86.199 171.778 87.6158C176.073 93.3842 187.19 108.615 189.97 115.193C193.406 123.441 201.289 139.228 198.56 206.88C198.56 206.88 197.196 231.978 192.395 242.958H148.835V243.008Z"
              fill="white"/>
        <path opacity="0.37"
              d="M149.24 136.141C151.261 122.682 154.495 108.767 162.581 97.5334C162.934 97.078 163.339 96.7238 163.743 96.4708C165.815 93.1312 167.887 89.8422 169.958 86.5026C169.049 86.3508 168.089 86.6038 167.331 87.3122C164.501 90.1458 159.397 97.0274 151.211 113.827C137.466 142.011 142.317 185.274 141.963 204.856C141.609 224.438 148.835 242.958 148.835 242.958L192.749 242.755C149.998 242.351 146.511 203.895 145.955 182.643C145.551 167.108 146.966 151.473 149.24 136.141Z"
              fill="#95A1E6"/>
        <path d="M184.462 114.231C186.331 114.535 188.151 114.889 190.02 115.243C187.291 108.615 176.174 93.4348 171.828 87.6664C170.767 86.199 168.645 86.0472 167.381 87.3628C164.551 90.1964 159.448 97.078 151.261 113.877C151.11 114.231 150.907 114.586 150.756 114.99C161.671 112.207 173.294 112.46 184.462 114.231Z"
              fill="#FF3040"/>
        <path d="M162.884 101.48C166.118 97.1792 169.15 92.7264 172.384 88.4254C172.182 88.1218 171.98 87.8688 171.778 87.6158C170.717 86.1484 168.594 85.9966 167.331 87.3122C164.501 90.1458 159.397 97.0274 151.211 113.827C151.059 114.181 150.857 114.535 150.705 114.94C152.272 114.535 153.838 114.231 155.405 113.978C157.123 109.424 159.953 105.376 162.884 101.48Z"
              fill="#CF0019"/>
        <path d="M190.879 248.625H150.655C148.836 248.625 147.37 247.158 147.37 245.336C147.37 243.514 148.836 242.047 150.655 242.047H190.879C192.699 242.047 194.164 243.514 194.164 245.336C194.164 247.158 192.699 248.625 190.879 248.625Z"
              fill="#18004C"/>
        <path d="M169.857 129.26C160.307 129.26 152.575 137.001 152.575 146.565C152.575 156.128 160.307 163.87 169.857 163.87C179.408 163.87 187.14 156.128 187.14 146.565C187.14 137.052 179.408 129.26 169.857 129.26ZM169.857 158.861C163.086 158.861 157.578 153.345 157.578 146.565C157.578 139.784 163.086 134.269 169.857 134.269C176.629 134.269 182.137 139.784 182.137 146.565C182.086 153.396 176.629 158.861 169.857 158.861Z"
              fill="#18004C"/>
        <path opacity="0.37"
              d="M169.857 158.911C176.639 158.911 182.137 153.406 182.137 146.615C182.137 139.825 176.639 134.32 169.857 134.32C163.076 134.32 157.578 139.825 157.578 146.615C157.578 153.406 163.076 158.911 169.857 158.911Z"
              fill="#95A1E6"/>
        <g opacity="0.6">
            <path opacity="0.6"
                  d="M157.628 147.476C158.083 153.851 163.339 158.911 169.857 158.911C170.868 158.911 171.828 158.759 172.788 158.557C167.685 154.914 162.631 151.22 157.628 147.476Z"
                  fill="#FCFAF5"/>
            <path opacity="0.6"
                  d="M179.206 154.509C181.025 152.384 182.086 149.601 182.086 146.615C182.086 139.835 176.578 134.32 169.807 134.32C165.41 134.32 161.57 136.647 159.397 140.088C165.966 144.996 172.536 149.803 179.206 154.509Z"
                  fill="#FCFAF5"/>
        </g>
        <path d="M169.857 133.004C170.499 133.004 171.02 132.483 171.02 131.84C171.02 131.197 170.499 130.676 169.857 130.676C169.215 130.676 168.695 131.197 168.695 131.84C168.695 132.483 169.215 133.004 169.857 133.004Z"
              stroke="#4F6AFF" stroke-width="0.3478" stroke-miterlimit="10"/>
        <path d="M169.857 162.504C170.499 162.504 171.02 161.983 171.02 161.34C171.02 160.697 170.499 160.176 169.857 160.176C169.215 160.176 168.695 160.697 168.695 161.34C168.695 161.983 169.215 162.504 169.857 162.504Z"
              stroke="#4F6AFF" stroke-width="0.3478" stroke-miterlimit="10"/>
        <path d="M181.102 137.004C181.556 136.55 181.556 135.813 181.102 135.358C180.648 134.904 179.912 134.904 179.458 135.358C179.004 135.813 179.004 136.55 179.458 137.004C179.912 137.459 180.648 137.459 181.102 137.004Z"
              stroke="#4F6AFF" stroke-width="0.3478" stroke-miterlimit="10"/>
        <path d="M160.275 157.848C160.729 157.394 160.729 156.657 160.275 156.202C159.821 155.748 159.085 155.748 158.631 156.202C158.178 156.657 158.178 157.394 158.631 157.848C159.085 158.303 159.821 158.303 160.275 157.848Z"
              stroke="#4F6AFF" stroke-width="0.3478" stroke-miterlimit="10"/>
        <path d="M184.563 147.779C185.205 147.779 185.725 147.258 185.725 146.615C185.725 145.973 185.205 145.451 184.563 145.451C183.921 145.451 183.4 145.973 183.4 146.615C183.4 147.258 183.921 147.779 184.563 147.779Z"
              stroke="#4F6AFF" stroke-width="0.3478" stroke-miterlimit="10"/>
        <path d="M155.102 147.779C155.744 147.779 156.264 147.258 156.264 146.615C156.264 145.973 155.744 145.451 155.102 145.451C154.46 145.451 153.939 145.973 153.939 146.615C153.939 147.258 154.46 147.779 155.102 147.779Z"
              stroke="#4F6AFF" stroke-width="0.3478" stroke-miterlimit="10"/>
        <path d="M181.095 157.85C181.549 157.396 181.549 156.659 181.095 156.205C180.641 155.75 179.906 155.75 179.452 156.205C178.998 156.659 178.998 157.396 179.452 157.85C179.906 158.305 180.642 158.305 181.095 157.85Z"
              stroke="#4F6AFF" stroke-width="0.3478" stroke-miterlimit="10"/>
        <path d="M160.281 137.002C160.735 136.547 160.735 135.81 160.281 135.356C159.828 134.901 159.092 134.901 158.638 135.356C158.184 135.81 158.184 136.547 158.638 137.002C159.092 137.456 159.828 137.456 160.281 137.002Z"
              stroke="#4F6AFF" stroke-width="0.3478" stroke-miterlimit="10"/>
        <path d="M141.811 171.409C141.811 171.409 170.817 161.593 197.903 170.954" stroke="#4F6AFF"
              stroke-width="0.6955" stroke-miterlimit="10" stroke-dasharray="5.56 5.56"/>
        <path d="M145.349 129.158C153.434 127.033 174.254 122.783 194.669 128.703" stroke="#4F6AFF"
              stroke-width="0.6955" stroke-miterlimit="10" stroke-dasharray="5.56 5.56"/>
        <path d="M141.811 178.443C141.811 178.443 170.817 168.626 197.903 177.987" stroke="#4F6AFF"
              stroke-width="0.6955" stroke-miterlimit="10" stroke-dasharray="5.56 5.56"/>
        <g opacity="0.79">
            <path opacity="0.79"
                  d="M181.328 277.214C181.985 279.592 182.996 281.869 184.259 283.893C185.522 285.968 187.089 287.84 188.908 289.409C190.727 290.977 192.799 292.293 195.023 293.254C197.246 294.216 199.621 294.874 202.047 295.228C199.571 295.329 197.044 294.874 194.719 294.013C192.344 293.153 190.171 291.838 188.251 290.218C186.331 288.549 184.764 286.575 183.552 284.349C182.389 282.122 181.581 279.694 181.328 277.214Z"
                  fill="white"/>
        </g>
        <g opacity="0.79">
            <path opacity="0.79"
                  d="M160.054 279.592C159.801 281.819 159.144 283.944 158.235 286.019C157.325 288.043 156.112 289.965 154.697 291.736C153.282 293.457 151.615 295.025 149.795 296.29C147.976 297.606 145.955 298.618 143.833 299.276C145.803 298.213 147.623 296.999 149.29 295.633C150.958 294.266 152.524 292.748 153.889 291.028C155.253 289.358 156.466 287.537 157.527 285.614C158.588 283.742 159.397 281.718 160.054 279.592Z"
                  fill="white"/>
        </g>
        <g opacity="0.79">
            <path opacity="0.79"
                  d="M162.075 291.382C161.924 292.141 161.671 292.85 161.418 293.558C161.166 294.266 160.862 294.975 160.509 295.633C160.155 296.29 159.801 296.948 159.397 297.606C158.993 298.264 158.538 298.871 158.032 299.428C158.184 298.669 158.437 297.96 158.689 297.252C158.942 296.543 159.245 295.835 159.599 295.177C159.953 294.519 160.306 293.862 160.711 293.204C161.115 292.597 161.519 291.989 162.075 291.382Z"
                  fill="white"/>
        </g>
        <g opacity="0.79">
            <path opacity="0.79"
                  d="M171.121 296.442C171.373 296.746 171.525 297.049 171.676 297.404C171.828 297.707 171.879 298.061 171.929 298.416C171.98 298.77 172.03 299.073 171.98 299.428C171.98 299.782 171.929 300.136 171.777 300.49C171.525 300.187 171.373 299.883 171.222 299.529C171.07 299.225 171.019 298.871 170.969 298.517C170.918 298.163 170.868 297.859 170.918 297.505C170.918 297.151 170.969 296.796 171.121 296.442Z"
                  fill="white"/>
        </g>
        <g opacity="0.79">
            <path opacity="0.79"
                  d="M177.892 291.028L179.256 293.204C179.711 293.912 180.166 294.57 180.671 295.278C181.177 295.936 181.682 296.594 182.187 297.252L183.855 299.175C183.046 298.82 182.288 298.365 181.632 297.808C180.975 297.252 180.368 296.594 179.812 295.886C179.307 295.177 178.852 294.418 178.498 293.609C178.195 292.748 177.993 291.888 177.892 291.028Z"
                  fill="white"/>
        </g>
        <path d="M96.2306 41.2335C95.1694 39.0577 95.6242 36.2241 97.3423 34.5037C99.0099 32.7833 101.789 32.2267 104.013 33.1881C103.962 28.2799 107.449 24.0801 111.391 21.1453C113.412 19.6273 115.686 18.3117 118.213 18.0587C121.497 17.7045 124.832 19.2225 127.258 21.4489C129.734 23.6753 131.452 26.5595 133.069 29.4943C134.08 27.7739 136.455 27.0655 138.224 27.9763C139.992 28.8871 140.902 31.1641 140.144 33.0363C144.035 32.3785 148.128 35.7181 148.33 39.6649"
              fill="white"/>
        <path d="M224.282 19.4248C225.141 17.6032 224.787 15.225 223.373 13.8082C221.958 12.3408 219.633 11.8854 217.763 12.695C217.814 8.59638 214.883 5.05438 211.598 2.62558C209.88 1.36058 208.01 0.247384 205.888 0.0449836C203.109 -0.258616 200.38 1.00638 198.308 2.87858C196.236 4.75078 194.771 7.17958 193.406 9.60838C192.547 8.19158 190.576 7.58438 189.06 8.34338C187.595 9.10238 186.837 11.0252 187.443 12.5432C184.159 11.9866 180.722 14.7696 180.571 18.1092"
              fill="white"/>
        <path d="M61.4637 70.2778C62.1712 68.8104 61.868 66.9888 60.7563 65.825C59.6445 64.6612 57.7748 64.307 56.3093 64.9648C56.3599 61.7264 54.0353 58.9434 51.4581 57.0206C50.0937 56.0086 48.6283 55.1484 46.9607 54.946C44.7877 54.693 42.6148 55.705 40.9472 57.1724C39.3301 58.6398 38.1679 60.5626 37.1067 62.4854C36.4497 61.3722 34.8327 60.9168 33.6704 61.4734C32.5081 62.03 31.9017 63.5986 32.4071 64.813C29.8299 64.3576 27.1011 66.584 27 69.2152"
              fill="white"/>
        <path d="M292.35 70.2778C293.058 68.8104 292.755 66.9888 291.643 65.825C290.531 64.6612 288.662 64.307 287.196 64.9648C287.247 61.7264 284.922 58.9434 282.345 57.0206C280.98 56.0086 279.515 55.1484 277.847 54.946C275.674 54.693 273.502 55.705 271.834 57.1724C270.217 58.6398 269.055 60.5626 267.993 62.4854C267.336 61.3722 265.719 60.9168 264.557 61.4734C263.395 62.03 262.788 63.5986 263.294 64.813C260.717 64.3576 257.988 66.584 257.887 69.2152"
              fill="white"/>
        <path d="M252.732 88.6963C254.044 88.6963 255.107 87.6315 255.107 86.3181C255.107 85.0046 254.044 83.9399 252.732 83.9399C251.421 83.9399 250.357 85.0046 250.357 86.3181C250.357 87.6315 251.421 88.6963 252.732 88.6963Z"
              fill="white"/>
        <path d="M122.306 67.4442C123.422 67.4442 124.327 66.5381 124.327 65.4202C124.327 64.3024 123.422 63.3962 122.306 63.3962C121.189 63.3962 120.284 64.3024 120.284 65.4202C120.284 66.5381 121.189 67.4442 122.306 67.4442Z"
              fill="white"/>
        <path d="M136.455 45.9393C137.767 45.9393 138.83 44.8746 138.83 43.5611C138.83 42.2477 137.767 41.1829 136.455 41.1829C135.143 41.1829 134.08 42.2477 134.08 43.5611C134.08 44.8746 135.143 45.9393 136.455 45.9393Z"
              fill="white"/>
        <path d="M128.724 40.1708C129.086 40.1708 129.381 39.8763 129.381 39.513C129.381 39.1497 129.086 38.8552 128.724 38.8552C128.361 38.8552 128.067 39.1497 128.067 39.513C128.067 39.8763 128.361 40.1708 128.724 40.1708Z"
              fill="white"/>
        <path d="M203.007 47.5585C203.928 47.5585 204.675 46.8109 204.675 45.8887C204.675 44.9665 203.928 44.2189 203.007 44.2189C202.086 44.2189 201.34 44.9665 201.34 45.8887C201.34 46.8109 202.086 47.5585 203.007 47.5585Z"
              fill="white"/>
        <path d="M310.189 173.805C311.5 173.805 312.564 172.741 312.564 171.427C312.564 170.114 311.5 169.049 310.189 169.049C308.877 169.049 307.813 170.114 307.813 171.427C307.813 172.741 308.877 173.805 310.189 173.805Z"
              fill="white"/>
        <path d="M62.4743 121.637C63.2278 121.637 63.8387 121.025 63.8387 120.271C63.8387 119.516 63.2278 118.904 62.4743 118.904C61.7207 118.904 61.1099 119.516 61.1099 120.271C61.1099 121.025 61.7207 121.637 62.4743 121.637Z"
              fill="white"/>
        <path d="M58.4822 93.402C60.3521 93.402 61.8679 91.8841 61.8679 90.0118C61.8679 88.1394 60.3521 86.6216 58.4822 86.6216C56.6123 86.6216 55.0964 88.1394 55.0964 90.0118C55.0964 91.8841 56.6123 93.402 58.4822 93.402Z"
              fill="white"/>
    </g>
    <defs>
        <clipPath id="clip0_705_1955">
            <rect width="339" height="300" fill="white"/>
        </clipPath>
    </defs>
</svg>
