<svg width="339" height="264" viewBox="0 0 339 264" fill="none" xmlns="http://www.w3.org/2000/svg">
    <path d="M27.6258 204.764C22.6936 196.512 15.8387 188.339 14.1667 178.842C13.498 176.039 13.498 171.914 17.427 171.292C19.9349 170.903 22.3592 172.537 24.1983 173.705C21.1052 168.489 16.591 161.328 18.8481 155.023C20.7708 149.496 26.2882 151.987 30.05 154.322C26.7898 149.029 22.192 141.789 25.5358 135.718C28.3781 130.502 33.7283 133.539 37.3229 136.185C36.3198 131.281 36.8214 120.306 45.0974 121.239C52.7883 122.018 53.2063 133.227 52.7883 138.52C54.7946 137.197 57.3861 135.018 59.9776 135.718C62.4855 136.263 63.3214 138.754 63.0706 140.856C62.9034 145.137 58.7236 148.251 55.7978 151.208C57.8877 150.975 61.5659 150.275 63.3214 151.909C64.9934 153.388 63.9902 156.191 63.2378 157.981C60.9807 162.573 56.7173 165.765 52.3703 168.567C57.2189 169.346 62.4855 171.292 59.3924 176.663C57.3025 180.477 53.0391 182.812 49.3608 185.147C52.7883 184.602 60.312 182.968 61.3987 187.638C62.3183 191.686 57.8041 196.045 54.8782 198.302C49.528 202.116 42.5059 204.607 36.3198 206.943L27.6258 204.764Z"
          fill="#84D4D8"/>
    <path opacity="0.7"
          d="M34.1462 201.883C29.632 196.667 23.9474 191.296 22.5263 184.447C22.0247 182.112 22.3591 179.854 24.449 178.297C26.0373 177.207 28.2108 176.818 30.1335 176.818C31.7219 176.818 33.6446 177.13 34.8985 178.141C36.2361 179.309 34.4806 181.022 33.0594 181.022C30.9695 181.099 29.2976 178.687 28.2944 177.285C26.7061 175.028 25.7029 172.536 24.9506 169.968C24.1982 167.555 23.7802 164.908 24.449 162.417C25.3685 158.914 29.0468 156.113 33.0594 156.968C35.2329 157.435 41.3355 160.86 37.2392 162.729C34.8149 163.897 33.143 159.927 32.5578 158.448C30.6351 153.777 30.2171 148.406 31.9727 143.658C32.725 141.712 34.1462 139.143 36.7377 139.299C38.4096 139.377 39.7471 140.7 40.6667 141.789C41.7534 143.191 43.1746 146.383 41.4191 147.783C40.6667 148.406 40.3323 145.759 40.3323 145.37C40.2487 144.358 40.2487 143.346 40.2487 142.334C40.2487 139.843 40.4159 137.353 40.9175 134.94C41.2519 133.383 41.9206 130.425 44.0106 130.191C46.3513 129.88 47.3544 133.15 47.7724 134.628C48.4412 136.964 48.692 139.377 48.7755 141.712C48.9427 143.891 49.0263 146.226 48.1904 148.251C48.0232 148.795 47.2708 149.729 47.5216 148.562C47.7724 147.316 48.8591 146.226 49.7787 145.37C50.4475 144.748 51.785 143.424 52.2866 144.826C52.621 145.837 52.4538 147.005 52.3702 148.016C52.203 149.807 51.8686 151.519 51.2834 153.232C50.7819 154.556 50.1967 155.879 49.3607 157.046C49.0263 157.435 47.6052 158.603 47.9396 157.28C48.5248 155.411 50.7819 155.489 51.785 156.891C53.3734 158.992 52.7882 162.417 52.1194 164.675C51.2834 167.477 49.8623 170.124 48.0232 172.459C46.8528 173.938 44.8465 176.429 42.5894 176.117C41.6699 175.962 40.9175 175.028 40.8339 174.171C40.7503 173.393 41.6699 172.849 42.3386 172.536C45.7661 170.903 52.3702 171.447 52.8718 175.806C53.1226 177.908 51.9522 180.165 50.9491 181.955C49.6951 184.058 48.0232 186.004 45.9333 187.482C44.4285 188.572 42.1714 189.428 40.9175 187.638C39.8307 186.159 41.7534 185.38 43.0074 185.147C46.5184 184.525 51.785 185.848 52.4538 189.584C53.039 192.775 50.8655 195.812 48.7755 198.069C46.602 200.326 43.927 202.194 41.1683 203.751C40.8339 203.907 41.1683 204.374 41.5027 204.218C46.8528 201.338 53.2062 196.512 53.1226 190.129C53.1226 186.159 48.3576 184.525 44.7629 184.447C43.4254 184.447 41.5027 184.602 40.4995 185.536C39.6635 186.393 39.9979 187.638 40.8339 188.417C44.0941 191.296 48.9427 185.692 50.5311 183.59C52.7046 180.633 55.3797 175.417 51.6178 172.536C49.0263 170.513 44.0941 170.668 41.4191 172.381C38.744 174.093 41.5027 177.363 44.1777 176.429C46.1841 175.728 47.7724 173.782 48.9427 172.225C50.5311 170.124 51.785 167.711 52.621 165.298C53.3734 163.04 53.6241 160.705 53.1226 158.292C52.7046 156.579 50.8655 154.089 48.692 155.489C47.7724 156.113 47.2708 157.046 47.2708 158.059C47.2708 158.837 48.274 158.448 48.692 158.292C50.6983 157.357 51.6178 154.322 52.203 152.532C52.7046 150.897 52.9554 149.184 53.1226 147.472C53.2062 146.46 53.4569 144.124 52.2866 143.58C50.6983 142.802 48.6084 145.681 47.9396 146.694C47.5216 147.316 46.5184 149.029 47.5216 149.573C48.6084 150.197 49.2771 147.472 49.3607 147.005C49.7787 145.059 49.6951 142.957 49.5279 141.011C49.3607 138.754 49.1099 136.496 48.4412 134.239C48.0232 132.682 47.2708 130.58 45.6825 129.802C39.4963 126.61 38.6604 144.748 40.4995 147.783C40.8339 148.329 41.4191 148.329 41.9206 148.094C42.8402 147.627 42.8402 146.07 42.9238 145.215C42.9238 142.568 40.6667 139.766 38.1588 138.754C33.8118 137.119 31.6383 142.724 30.9695 145.604C29.8828 150.119 30.8023 155.334 32.725 159.538C33.3938 161.016 34.4806 162.884 36.3197 163.196C37.8244 163.43 39.5799 162.028 39.4127 160.627C39.2456 158.448 35.9853 157.046 34.1462 156.424C31.5547 155.567 28.796 156.19 26.8733 157.981C22.7771 161.717 23.613 167.166 25.285 171.836C26.1209 174.171 27.2913 176.351 28.796 178.375C29.7992 179.62 31.1367 181.022 32.8086 181.411C35.3165 181.955 37.4064 178.842 35.1493 177.363C33.3102 176.117 30.5515 176.039 28.4616 176.273C26.0373 176.585 23.5294 177.674 22.4427 179.854C20.7707 183.045 22.8607 187.56 24.5326 190.44C27.0405 194.721 30.5515 198.302 33.8118 202.116C33.8954 202.428 34.397 202.116 34.1462 201.883Z"
          fill="#42A5B8"/>
    <path d="M35.651 212.392C37.9081 209.511 50.4475 197.991 42.2551 196.434C39.0784 195.812 36.1526 196.512 37.7409 192.542C38.9112 189.662 42.9239 184.758 41.0847 181.411C39.3292 178.375 34.815 180.477 32.5579 181.566C33.8954 177.752 38.9112 172.07 37.9081 167.867C36.9049 163.819 30.468 166.621 27.9601 167.478C29.632 162.884 34.0626 153.232 27.2913 150.43C22.1084 148.172 16.3402 152.532 15.0862 156.969C14.2502 159.771 14.6682 162.573 15.0862 165.22C11.4916 164.052 5.38902 163.274 7.39534 168.722C8.73288 172.147 12.7455 175.028 15.0026 177.752C10.7392 177.596 7.98051 179.154 10.4048 183.357C12.0767 186.549 15.5878 188.65 18.4301 190.985C11.408 190.596 13.4979 195.423 16.8418 199.003C20.0184 202.506 27.2077 208.578 31.0532 211.613L35.651 212.392Z"
          fill="#46AFCF"/>
    <path d="M41.1684 198.614C38.9113 201.65 35.4838 203.596 32.558 206.009C30.0501 202.194 28.0438 197.991 26.4554 193.71C26.539 193.71 26.539 193.71 26.6226 193.632C28.4617 192.153 30.3845 190.752 32.2236 189.35C33.9791 187.95 35.9854 186.782 37.6573 185.225C37.9917 184.992 37.4902 184.525 37.2394 184.836C35.651 186.237 33.8955 187.327 32.2236 188.572C30.2173 190.052 28.2945 191.609 26.2882 193.087C25.7866 191.764 25.3687 190.441 25.0343 189.117C25.0343 189.039 25.0343 188.961 24.9507 188.961C24.6999 188.028 24.4491 187.171 24.2819 186.237C23.9475 184.758 23.6131 183.201 23.4459 181.722C23.4459 181.722 23.4459 181.722 23.5295 181.644C26.2046 177.752 29.7157 174.483 33.3939 171.37C33.7283 171.136 33.2267 170.668 32.9759 170.981C29.4649 174.016 26.121 177.208 23.4459 180.866C22.3592 173.316 22.5264 165.609 22.8608 158.059C22.8608 157.67 22.2756 157.67 22.192 158.059C21.8576 164.13 21.774 170.124 22.2756 176.195C18.8481 173.471 15.4207 170.668 12.0768 167.867C11.7424 167.633 11.3244 168.022 11.6588 168.256C15.1699 171.214 18.681 174.094 22.2756 176.896C22.2756 176.896 22.3592 176.896 22.3592 176.974C22.61 179.932 23.028 182.89 23.6131 185.848C23.7803 186.782 24.0311 187.716 24.2819 188.65C22.61 187.95 21.0217 186.782 19.5169 185.848C17.3434 184.603 15.2535 183.279 13.3308 181.8C12.9964 181.566 12.5784 181.955 12.9128 182.19C14.7519 183.59 16.7582 184.836 18.7645 186.004C20.6037 187.093 22.5264 188.495 24.6163 189.273C25.8702 193.788 27.7094 198.302 29.9665 202.428C26.6226 200.793 23.2788 199.003 20.1021 197.057C19.7677 196.823 19.4333 197.369 19.7677 197.602C23.1952 199.704 26.7898 201.572 30.3845 203.362H30.4681C31.1368 204.452 31.8056 205.542 32.4744 206.632C32.558 206.71 32.6416 206.788 32.7252 206.788H32.8088C32.8923 206.788 32.8923 206.788 32.9759 206.71C35.9854 204.14 39.5801 202.117 41.9208 198.925C41.9208 198.614 41.3356 198.302 41.1684 198.614Z"
          fill="#42A5B8"/>
    <path d="M56.8845 207.177V228.038C56.8845 234.576 51.1999 239.792 44.2614 239.792H30.3008C23.2787 239.792 17.6777 234.498 17.6777 228.038V207.177H56.8845Z"
          fill="#FC6D89"/>
    <path d="M31.3039 227.805C26.121 221.889 23.3623 214.649 21.5231 207.177H17.5941V228.038C17.5941 234.576 23.2787 239.792 30.2172 239.792H44.1778C45.9333 239.792 47.6052 239.481 49.11 238.858C42.3387 236.912 36.0689 233.643 31.3039 227.805Z"
          fill="#CF5D7F"/>
    <path d="M17.5941 207.177V212.626C18.1793 213.015 18.9317 213.17 19.684 213.17H54.7945C55.5469 213.17 56.2993 212.937 56.8844 212.626V207.177H17.5941Z"
          fill="#CF5D7F"/>
    <path d="M58.6399 207.488C58.6399 209.434 56.968 210.991 54.8781 210.991H19.7676C17.6777 210.991 16.0057 209.434 16.0057 207.488V204.296C16.0057 202.35 17.6777 200.793 19.7676 200.793H54.8781C56.968 200.793 58.6399 202.35 58.6399 204.296V207.488Z"
          fill="#FC6D89"/>
    <path opacity="0.3" d="M213.293 27.9857L190.555 27.5187L189.636 7.12431H211.538L213.293 27.9857Z" fill="#212250"/>
    <path d="M211.621 6.1902H189.636V25.9619H211.621V6.1902Z" fill="#CBEAED"/>
    <path opacity="0.2"
          d="M197.327 16.9323C194.484 13.8186 191.558 10.0822 189.636 6.1902V25.9619H211.621V25.6505C205.937 24.4829 201.005 20.9022 197.327 16.9323Z"
          fill="#6DC5D3"/>
    <path opacity="0.3" d="M48.7756 114L26.2881 111.743L25.9537 92.9052H47.856L48.7756 114Z" fill="#212250"/>
    <path d="M47.9396 92.0496H25.9537V111.821H47.9396V92.0496Z" fill="#CBEAED"/>
    <path opacity="0.2"
          d="M33.6446 102.713C30.8023 99.5997 27.8765 95.8637 25.9537 91.9714V111.743H47.9396V111.432C42.255 110.341 37.2393 106.683 33.6446 102.713Z"
          fill="#6DC5D3"/>
    <path d="M90.2395 38.9614C89.2363 40.9074 86.9792 41.8415 85.1401 41.0631L72.8514 35.6142C71.0123 34.8358 70.3435 32.5784 71.3467 30.6323L85.7253 2.37594C86.7284 0.429906 88.9855 -0.504187 90.8247 0.274226L103.113 5.72311C104.952 6.50153 105.621 8.75894 104.618 10.705L90.2395 38.9614Z"
          fill="#A3A6F3"/>
    <path d="M91.0755 33.5904C90.0723 35.5364 87.8152 36.4705 85.9761 35.6921L76.6133 31.5665C74.7742 30.7881 74.1054 28.5307 75.1085 26.5847L86.2269 4.78912C87.23 2.84309 89.4871 1.90899 91.3263 2.6874L100.689 6.813C102.528 7.59141 103.197 9.84882 102.194 11.7949L91.0755 33.5904Z"
          fill="#EAEFFF"/>
    <path d="M81.233 36.6119C81.6093 35.8741 81.3735 35.0368 80.7062 34.7417C80.0389 34.4466 79.1929 34.8055 78.8166 35.5433C78.4402 36.2811 78.6762 37.1185 79.3434 37.4137C80.0107 37.7087 80.8567 37.3497 81.233 36.6119Z"
          fill="#EAEFFF"/>
    <path d="M102.612 9.14816C100.605 9.45953 98.6827 9.7708 96.6764 10.16C93.6669 10.705 89.9051 11.0164 87.1464 12.4953C85.6417 13.2738 85.6417 13.8965 86.394 15.1419C86.812 15.8425 87.8988 16.5431 87.1464 17.555C86.2268 18.8783 82.7994 19.034 81.5454 19.2675C80.5423 19.4232 79.5391 19.5789 78.6196 19.7346L76.446 23.938C80.2915 23.1596 84.0533 22.459 87.9824 21.8363C89.5707 21.5249 96.6764 21.2136 94.9209 18.0999C93.9177 16.3096 90.6574 14.9084 94.4193 13.8186C96.8436 13.1181 99.3515 12.8066 101.776 12.5731L102.194 11.7169C102.695 10.8607 102.779 9.92658 102.612 9.14816Z"
          fill="white"/>
    <path d="M89.5707 40.596C89.5707 40.596 88.1495 31.8 96.4256 26.7403C96.4256 26.7403 89.3199 22.9261 90.6574 20.7465C90.9082 20.2795 100.271 24.405 103.03 25.7284C103.531 25.9619 101.441 35.1471 95.924 39.6619C95.924 39.6619 97.4287 87.6122 97.4287 92.6721C97.4287 93.3724 110.971 105.438 123.009 108.084C135.048 110.731 141.735 115.401 144.159 118.671C146.583 121.941 141.735 133.461 125.852 129.569C109.969 125.677 83.0502 104.426 80.2079 98.5882C77.3656 92.7501 89.5707 40.596 89.5707 40.596Z"
          fill="#FFC9C5"/>
    <path d="M144.159 118.593C141.735 115.246 135.048 110.576 123.009 108.006C110.971 105.438 97.4287 93.2944 97.4287 92.594C97.4287 89.1689 96.7599 66.8285 96.342 52.1943C93.4161 51.4159 90.4066 50.4818 87.5643 49.5477C84.2205 64.7268 78.1179 94.2289 80.2078 98.5102C83.0501 104.348 109.969 125.599 125.852 129.491C141.735 133.383 146.583 121.941 144.159 118.593Z"
          fill="#F19391"/>
    <path d="M85.8088 52.35C84.7221 52.5835 80.1243 65.7387 78.536 78.7382C76.9476 91.8933 76.1953 99.3656 80.1243 103.181C83.9697 106.995 118.579 132.526 131.452 131.826C144.41 131.203 151.349 124.509 144.744 116.102C138.14 107.695 100.605 93.2944 99.9366 92.516C99.2679 91.7377 98.9335 56.5534 98.0975 55.1523C97.2616 53.7511 87.7316 51.8829 85.8088 52.35Z"
          fill="#A09EF2"/>
    <path d="M144.744 116.18C143.24 114.234 139.98 111.976 135.966 109.563C133.04 110.731 130.366 112.21 127.607 114C123.26 117.036 119.08 119.916 113.981 121.473C112.141 122.018 110.303 122.485 108.38 122.796C117.325 128.012 126.186 132.06 131.452 131.826C144.41 131.203 151.349 124.509 144.744 116.18Z"
          fill="#8D8BED"/>
    <path d="M280.84 66.5172C280.84 66.5172 274.486 69.553 268.968 69.2416C266.377 69.0859 262.197 76.5587 258.017 82.2411L249.575 76.0917C249.575 76.0917 262.114 60.5234 266.628 57.799C271.142 55.0745 279.334 55.2302 279.334 55.2302L283.347 61.3797L280.84 66.5172Z"
          fill="#FFC9C5"/>
    <path d="M255.927 68.5411C252.501 72.511 249.657 76.0138 249.657 76.0138L258.101 82.1633C259.94 79.6724 261.779 76.8701 263.451 74.457C260.525 72.978 258.101 70.8763 255.927 68.5411Z"
          fill="#F19391"/>
    <path d="M270.64 65.1162C269.972 66.0503 269.721 69.2418 270.056 69.2418C275.238 69.164 280.84 66.5174 280.84 66.5174L283.347 61.302L281.508 58.4219C277.328 60.6793 272.312 62.4696 270.64 65.1162Z"
          fill="#F19391"/>
    <path d="M265.29 84.7321C265.04 85.5106 265.458 86.289 266.294 86.5225L300.067 96.7192C300.903 96.9533 301.739 96.5641 301.989 95.7857L317.789 50.4041C318.04 49.6257 317.622 48.8473 316.786 48.6138L282.929 38.4944C282.093 38.2609 281.257 38.6501 281.006 39.4285L265.29 84.7321Z"
          fill="#A3A6F3"/>
    <path d="M282.344 77.0259C277.914 64.4156 282.177 51.2604 284.518 38.9615L282.929 38.4944C282.093 38.2609 281.257 38.6501 281.006 39.4285L265.29 84.7321C265.04 85.5106 265.458 86.289 266.294 86.5225L296.807 95.7077C296.221 95.3185 295.635 94.8512 295.051 94.384C288.948 89.8697 284.768 83.798 282.344 77.0259Z"
          fill="#8191EF"/>
    <path d="M282.338 44.6671L269.069 82.8031L300.005 92.1354L313.273 53.9995L282.338 44.6671Z" fill="white"/>
    <path opacity="0.4"
          d="M283.013 44.7996L282.344 44.6438L269.052 82.786L290.955 89.4025C285.772 83.6423 282.929 76.7144 282.177 67.6848C281.508 59.9785 282.093 52.3502 283.013 44.7996Z"
          fill="#EAEFFF"/>
    <path d="M288.781 45.7337L288.196 47.5241C287.945 48.3804 288.363 49.2366 289.283 49.548L304.581 54.1406C305.5 54.3741 306.42 53.9849 306.754 53.1287L307.339 51.3383C307.59 50.4821 307.172 49.6258 306.253 49.3144L301.069 47.7576C301.321 46.59 300.568 45.3445 299.314 44.9553C298.06 44.5661 296.723 45.1889 296.137 46.2786L290.955 44.7218C290.035 44.4104 289.115 44.8775 288.781 45.7337ZM297.391 46.8235C297.559 46.2008 298.311 45.8894 298.896 46.123C299.565 46.2786 299.899 46.9792 299.649 47.5241C299.481 48.1468 298.729 48.4582 298.143 48.2247C297.559 48.069 297.225 47.4463 297.391 46.8235Z"
          fill="#EAEFFF"/>
    <path d="M306.336 49.3144L301.153 47.7576C301.404 46.59 300.651 45.3445 299.397 44.9553C298.311 44.644 297.141 45.0332 296.471 45.8894C297.141 45.4224 297.977 45.2667 298.813 45.5002C300.067 45.8894 300.819 47.057 300.568 48.3025L305.751 49.8593C306.671 50.0929 307.172 51.027 306.838 51.8832L306.253 53.6736C306.253 53.8292 306.169 53.9071 306.085 53.9849C306.42 53.8292 306.671 53.5179 306.838 53.1287L307.423 51.3383C307.674 50.4821 307.172 49.548 306.336 49.3144Z"
          fill="#EAEFFF"/>
    <path d="M278.916 51.7275C281.842 50.6378 285.688 63.9486 284.016 63.9486C282.344 63.9486 278.916 56.7872 278.916 56.7872C278.916 56.7872 272.814 66.5952 264.538 64.727C262.532 64.26 259.857 58.5776 278.916 51.7275Z"
          fill="#FFC9C5"/>
    <path d="M179.354 116.18C185.372 110.654 219.814 98.6653 224.328 95.7077C228.842 92.7501 250.911 67.5292 253.253 69.2417C255.677 70.9542 262.615 75.9361 262.699 78.6605C262.783 81.4628 242.719 108.785 236.617 115.401C230.43 122.018 199.166 133.15 193.565 135.174C187.964 137.197 165.727 128.634 179.354 116.18Z"
          fill="#A09EF2"/>
    <path d="M225.498 116.881C214.715 116.024 204.015 112.444 193.816 108.63C187.128 111.509 181.444 114.312 179.354 116.258C165.727 128.712 187.964 137.275 193.565 135.251C198.831 133.383 226.586 123.497 235.196 116.803C231.936 117.036 228.676 117.114 225.498 116.881Z"
          fill="#8D8BED"/>
    <path d="M293.546 175.65C292.041 176.195 297.141 180.866 299.899 182.579C302.658 184.291 301.069 186.004 298.227 185.225C295.385 184.447 288.363 181.411 286.858 176.351C286.356 174.795 273.65 169.501 265.374 167.166L270.892 157.747C270.892 157.747 285.855 165.142 288.112 165.687C290.369 166.232 310.265 167.322 311.101 168.411C311.937 169.501 303.159 170.513 303.159 170.513C303.159 170.513 315.616 174.016 315.95 175.65C316.2 177.285 306.085 174.717 306.085 174.717C306.085 174.717 318.124 180.71 316.953 182.812C315.782 184.914 307.841 179.854 303.411 177.985C298.897 176.195 294.298 175.417 293.546 175.65Z"
          fill="#FFC9C5"/>
    <path d="M306.419 175.184C304.163 174.016 301.821 173.238 299.314 172.771C298.979 172.693 299.147 172.225 299.481 172.303C302.073 172.771 304.413 173.627 306.754 174.795C307.005 174.872 306.754 175.261 306.419 175.184Z"
          fill="#F19391"/>
    <path d="M303.745 170.98C302.575 170.668 301.321 170.357 300.151 170.046C299.815 169.968 299.983 169.501 300.317 169.579C301.487 169.89 302.658 170.202 303.911 170.513C304.163 170.668 303.995 171.058 303.745 170.98Z"
          fill="#F19391"/>
    <path d="M281.592 173.627C281.592 173.627 282.594 167.944 286.022 164.364C284.434 163.118 281.675 162.184 281.675 162.184C281.675 162.184 278.08 164.908 276.91 171.681C279.084 173.238 281.592 173.627 281.592 173.627Z"
          fill="#8191EF"/>
    <path d="M277.662 165.22C277.496 165.454 277.579 165.765 277.914 165.92C278.164 166.076 278.498 165.998 278.666 165.687C278.833 165.454 278.75 165.142 278.415 164.986C278.248 164.908 277.914 164.986 277.662 165.22Z"
          fill="white"/>
    <path d="M284.317 168.253C285.221 166.753 284.649 164.855 283.038 164.014C281.428 163.171 279.39 163.705 278.486 165.204C277.581 166.703 278.154 168.602 279.764 169.443C281.374 170.285 283.413 169.753 284.317 168.253Z"
          fill="white"/>
    <path d="M283.447 167.797C284.08 166.748 283.68 165.418 282.552 164.829C281.426 164.24 279.999 164.612 279.366 165.662C278.733 166.711 279.133 168.04 280.26 168.63C281.387 169.219 282.814 168.846 283.447 167.797Z"
          fill="#EAEFFF"/>
    <path d="M281.424 166.776H281.508C281.592 166.776 281.592 166.776 281.675 166.699L282.344 165.609C282.428 165.532 282.344 165.454 282.26 165.376C282.177 165.298 282.093 165.376 282.01 165.454L281.424 166.387L280.84 165.609C280.756 165.532 280.672 165.532 280.588 165.532C280.505 165.609 280.505 165.687 280.505 165.765L281.424 166.776C281.341 166.699 281.424 166.699 281.424 166.776Z"
          fill="#8191EF"/>
    <path d="M272.229 156.89C273.482 157.981 271.476 161.873 270.64 163.507C269.804 165.142 266.544 169.112 262.783 168.333C259.105 167.555 210.535 150.819 199.082 148.016C187.212 145.059 164.891 141.556 168.402 135.329C171.913 129.023 185.958 112.054 201.005 117.892C226.502 127.778 268.55 153.543 272.229 156.89Z"
          fill="#A09EF2"/>
    <path d="M201.089 117.814C186.041 111.976 171.997 128.946 168.486 135.251C164.975 141.556 187.295 145.059 199.165 147.939C205.101 149.418 221.068 154.634 235.53 159.381C225.832 146.383 216.804 132.838 206.523 120.072C204.683 119.293 202.843 118.515 201.089 117.814Z"
          fill="#8D8BED"/>
    <path d="M102.695 264H37.3229L48.7756 236.6H91.2426L102.695 264Z" fill="white"/>
    <path opacity="0.4"
          d="M98.5155 254.037L91.2426 236.678H48.7756L48.692 236.834C56.4665 238.858 64.3246 240.648 71.9318 243.295C81.0438 246.175 89.9051 249.833 98.5155 254.037Z"
          fill="#EAEFFF"/>
    <path d="M62.2347 223.601C62.2347 223.601 57.8877 205.153 61.7331 196.512L79.4555 200.949C79.4555 200.949 70.4271 214.727 72.8514 225.002L62.2347 223.601Z"
          fill="#FFC9C5"/>
    <path d="M73.353 214.805C75.2757 207.41 79.4555 200.949 79.4555 200.949L61.7331 196.512C61.1479 197.758 60.8135 199.237 60.5627 200.793C63.3214 204.607 66.5817 208.032 70.2599 211.535C71.3467 212.548 72.4334 213.637 73.353 214.805Z"
          fill="#F19391"/>
    <path d="M60.1447 202.895C61.3987 203.985 72.6006 207.176 75.4429 206.71C78.2015 206.242 82.2142 201.961 83.7189 201.105C85.2236 200.248 104.367 183.746 115.235 174.717C126.019 165.687 124.347 140.466 120.334 138.676C116.321 136.886 88.1495 164.675 76.028 175.806C63.9066 187.015 55.7977 199.003 60.1447 202.895Z"
          fill="#A09EF2"/>
    <path d="M81.8805 242.906L54.043 217.296C53.625 216.907 55.2132 215.349 55.6312 215.816L83.4688 241.427C83.7196 241.66 84.8063 244.073 84.8063 244.073C84.8063 244.073 81.9641 242.984 81.8805 242.906Z"
          fill="#212250"/>
    <path d="M64.408 220.176C64.408 220.176 55.4632 225.313 57.3023 228.894C57.3023 228.894 55.2124 230.295 56.3828 233.487C56.3828 233.487 55.8812 237.534 57.3023 239.403C58.7235 241.271 64.6588 243.995 66.9995 240.648C66.9995 240.648 68.755 240.414 68.8386 237.846C68.8386 237.846 70.5106 237.534 70.8449 235.199C70.8449 235.199 75.5263 233.331 75.9443 229.595C76.3623 225.858 71.3465 221.11 71.3465 221.11L64.408 220.176Z"
          fill="#FFC9C5"/>
    <path d="M70.5106 229.44L55.6304 215.817C55.2124 215.428 53.5405 216.907 54.0421 217.296L69.5074 231.463C69.591 231.308 69.591 231.23 69.6746 231.074C70.009 230.529 70.3434 229.984 70.5106 229.44Z"
          fill="#212250"/>
    <path d="M70.845 234.966C68.3371 233.954 69.5911 231.697 70.3434 230.14C70.9286 228.816 71.0958 227.805 70.5942 226.403C70.5106 226.248 70.2598 226.325 70.3434 226.481C71.1794 228.894 69.3403 230.373 69.0895 232.552C68.9223 233.72 69.5911 234.732 70.6778 235.122C70.845 235.277 71.0122 235.044 70.845 234.966Z"
          fill="#F19391"/>
    <path d="M57.2189 228.972C59.8103 233.176 64.1574 235.978 68.7552 237.846C68.9224 237.924 69.0895 237.69 68.9223 237.612C64.3245 235.744 59.9775 233.02 57.4696 228.816C57.386 228.66 57.1353 228.816 57.2189 228.972Z"
          fill="#F19391"/>
    <path d="M56.3828 233.565C57.8039 235.355 59.5594 236.834 61.4822 238.157C62.9033 239.169 65.1604 240.648 67.0831 240.726C67.2503 240.726 67.2503 240.492 67.0831 240.492C65.4112 240.414 63.5721 239.169 62.2345 238.39C60.1446 237.068 58.2219 235.355 56.6336 233.487C56.4664 233.253 56.2156 233.409 56.3828 233.565Z"
          fill="#F19391"/>
    <path d="M120.334 138.754C118.244 137.82 109.717 144.826 100.271 153.388C99.435 156.035 98.8498 158.681 98.5154 161.406C97.2615 168.8 98.9334 175.417 96.4255 182.812C95.1716 186.393 93.9176 190.129 92.6637 193.866C99.5186 188.106 108.881 180.165 115.235 174.795C126.018 165.765 124.263 140.544 120.334 138.754Z"
          fill="#8D8BED"/>
    <path d="M138.308 111.587C135.548 113.533 126.52 155.724 126.854 163.741C127.106 171.758 128.861 206.008 130.032 208.11C131.202 210.212 184.87 220.176 198.664 208.11C212.457 196.045 194.317 114.779 191.475 111.587C188.549 108.395 147.503 104.893 138.308 111.587Z"
          fill="#A09EF2"/>
    <path d="M191.391 111.587C191.391 111.587 191.391 111.509 191.391 111.587C192.645 119.215 191.893 125.131 191.642 133.15C191.224 148.094 184.118 173.938 160.711 169.268C135.8 164.208 137.22 134.005 137.555 112.833C134.212 120.072 126.604 156.424 126.854 163.741C127.106 171.758 128.861 206.008 130.032 208.11C131.202 210.212 184.87 220.176 198.664 208.11C212.374 196.045 194.317 114.779 191.391 111.587Z"
          fill="#8D8BED"/>
    <path d="M104.534 170.825C104.534 170.825 116.656 198.613 134.63 205.697H141.568C141.568 205.697 123.762 180.555 120.669 170.825H104.534Z"
          fill="#FFC9C5"/>
    <path d="M120.167 197.913C120.167 197.913 125.601 194.41 131.286 185.848C131.286 185.848 138.056 117.036 138.976 112.444C139.896 107.851 127.942 114.857 123.009 123.964C118.077 133.15 99.2679 164.441 101.358 170.903C103.448 177.363 117.743 198.224 120.167 197.913Z"
          fill="#A09EF2"/>
    <path d="M224.078 170.825C224.078 170.825 211.956 198.613 193.983 205.697H187.044C187.044 205.697 204.85 180.555 207.943 170.825H224.078Z"
          fill="#FFC9C5"/>
    <path d="M208.361 197.913C208.361 197.913 202.927 194.41 197.243 185.848C197.243 185.848 190.137 116.803 189.218 112.21C188.298 107.617 200.587 114.857 205.435 123.964C210.367 133.15 229.176 164.441 227.086 170.903C224.997 177.363 210.869 198.225 208.361 197.913Z"
          fill="#A09EF2"/>
    <path d="M207.274 211.924C207.274 216.206 203.512 219.708 198.914 219.708H130.616C126.019 219.708 122.257 216.206 122.257 211.924L113.897 163.663C113.897 159.381 117.659 155.879 122.257 155.879H207.358C211.955 155.879 215.717 159.381 215.717 163.663L207.274 211.924Z"
          fill="#A3A6F3"/>
    <path d="M207.275 214.65C207.275 218.931 203.513 222.434 198.915 222.434H130.616C126.019 222.434 122.257 218.931 122.257 214.65L113.897 166.388C113.897 162.107 117.659 158.604 122.257 158.604H207.359C211.956 158.604 215.718 162.107 215.718 166.388L207.275 214.65Z"
          fill="#F5F7FF"/>
    <path d="M164.724 194.411C168.879 194.411 172.248 192.319 172.248 189.741C172.248 187.161 168.879 185.07 164.724 185.07C160.568 185.07 157.201 187.161 157.201 189.741C157.201 192.319 160.568 194.411 164.724 194.411Z"
          fill="#EAEFFF"/>
    <path d="M124.18 158.604H122.173C117.575 158.604 113.813 162.107 113.813 166.388L122.173 214.65C122.173 218.931 125.935 222.434 130.533 222.434H198.831C199.583 222.434 200.336 222.356 201.005 222.2C185.372 218.542 170.91 211.458 157.367 199.159C144.243 187.716 132.122 173.938 124.18 158.604Z"
          fill="#EAEFFF"/>
    <path d="M156.949 93.3724C156.949 93.3724 156.615 106.839 155.529 109.408C155.027 110.654 152.686 115.012 155.529 117.425C158.371 119.838 166.563 121.395 170.91 116.958C173.502 114.312 172.164 111.743 170.826 109.408C169.322 106.762 169.823 93.3724 169.823 93.3724H156.949Z"
          fill="#FFC9C5"/>
    <path d="M169.907 103.103C169.656 98.5882 169.823 93.3724 169.823 93.3724H156.865C156.865 93.3724 156.783 98.0429 156.447 102.324C160.879 103.414 165.309 103.57 169.907 103.103Z"
          fill="#F19391"/>
    <path d="M149.008 42.62C145.998 39.662 142.905 36.1592 143.908 31.8001C144.912 27.4409 149.091 23.6267 153.857 22.9262C164.055 21.2136 167.483 34.1353 162.634 40.5183C160.627 43.1649 157.701 43.5541 154.358 43.3984L149.008 42.62Z"
          fill="#14133F"/>
    <path d="M156.531 22.7704C157.619 23.938 158.621 25.2613 159.373 26.9738C160.711 30.0096 161.798 35.692 161.715 41.4523C162.049 41.1409 162.299 40.8296 162.634 40.5182C166.981 34.6801 164.641 23.5488 156.531 22.7704Z"
          fill="#242763"/>
    <path d="M172.833 34.8359C170.576 33.9796 168.319 33.5126 165.978 33.3569C165.978 33.279 165.978 33.2012 166.061 33.2012C166.396 31.8779 166.396 30.6324 166.061 29.4648C166.145 27.5966 165.811 25.7284 165.142 23.8602C165.142 23.7824 164.975 23.8602 165.058 23.8602C165.56 25.4171 165.811 26.9739 165.811 28.5307C165.142 26.7404 163.888 25.1057 162.299 23.8602C158.789 21.2136 153.605 20.8244 150.011 22.6926C147.085 22.4591 144.326 23.471 142.236 26.6625C140.564 29.2313 141.234 32.1114 142.738 34.758C143.156 36.237 144.076 37.4046 145.33 38.4166C146.082 39.3507 146.834 40.2069 147.587 40.9075C147.67 40.9853 147.754 40.9075 147.67 40.8296C147.252 40.2848 146.834 39.7399 146.416 39.1171C148.172 40.1291 150.262 40.8296 152.101 41.3745C152.351 41.4524 152.435 41.141 152.185 41.0632C150.011 40.3626 147.921 39.5842 146.165 38.183C143.24 35.9256 143.156 31.8001 144.661 28.8421C145.079 27.9858 145.748 27.2853 146.416 26.7404C146.249 27.2074 146.082 27.6745 145.998 28.2194C145.998 28.2194 145.998 28.2972 146.082 28.2194C146.583 27.4409 147.085 26.7404 147.587 26.0398C150.262 24.7943 153.857 25.0279 156.615 25.4171C156.865 25.4171 157.117 25.1057 156.783 24.95C154.943 23.9381 153.104 23.1597 151.265 22.8483C151.599 22.6926 151.933 22.6148 152.268 22.4591C155.611 21.4472 159.625 23.004 162.133 25.0279C164.807 27.1296 165.225 30.3211 164.64 33.279C158.455 33.2012 152.268 35.3029 146.667 37.5603V37.6382C152.435 35.6921 158.455 33.9018 164.473 33.9796C164.473 33.9796 164.473 33.9796 164.473 34.0575C163.553 37.5603 160.209 38.8058 157.535 40.9075C157.283 41.141 157.619 41.5302 157.953 41.3745C158.955 40.7518 159.875 40.2848 160.711 39.7399C160.293 40.1291 159.875 40.5961 159.457 40.9853C159.291 41.141 159.541 41.3745 159.709 41.2189C160.627 40.5183 161.38 39.7399 162.133 38.8836C163.805 37.716 164.975 36.3927 165.727 33.9796C167.566 34.0575 169.489 34.3688 171.412 34.9137C180.608 37.4825 183.282 45.0331 185.456 52.8172C185.54 53.0507 185.79 52.9729 185.79 52.7394C184.452 44.7217 181.108 38.183 172.833 34.8359ZM147.085 25.4949C144.243 26.7404 142.822 29.6205 142.571 32.5006C141.4 28.2194 143.825 24.0159 149.091 23.3932C148.255 23.8602 147.587 24.6387 147.085 25.4949ZM154.776 24.483C155.947 24.95 156.365 24.8722 155.027 24.7943C152.769 24.5608 150.68 24.483 148.423 25.0279C149.008 24.4051 149.677 23.7824 150.513 23.3154C152.017 23.3932 153.522 23.9381 154.776 24.483Z"
          fill="#14133F"/>
    <path d="M137.388 78.5827C137.388 78.427 137.138 78.427 137.054 78.5827C137.054 80.373 137.138 82.0855 137.722 83.8759C138.308 85.5884 139.394 87.1452 140.314 88.7799C140.314 88.8577 140.481 88.7799 140.398 88.702C138.726 85.277 137.472 82.3191 137.388 78.5827Z"
          fill="#14133F"/>
    <path d="M149.509 36.0033C145.413 35.2249 145.998 27.9078 148.506 25.9618C148.924 25.6504 148.339 25.1055 147.921 25.4169C144.912 27.7521 144.494 35.8476 149.259 36.7817C149.76 36.8596 150.011 36.0811 149.509 36.0033Z"
          fill="#0D0A29"/>
    <path d="M149.509 24.7943C149.008 24.7943 149.008 25.5727 149.509 25.5727C152.937 25.4948 155.695 30.9437 155.027 33.6682C154.943 34.1352 155.695 34.3687 155.863 33.9017C156.615 30.7102 153.522 24.7164 149.509 24.7943Z"
          fill="#0D0A29"/>
    <path d="M156.029 25.8062H155.947C154.609 25.0278 153.104 24.5607 151.599 24.405C151.097 24.3272 151.097 25.1056 151.599 25.1834C155.445 25.4948 159.791 28.6085 158.955 32.5784C158.873 33.0454 159.625 33.2789 159.791 32.8119C160.209 30.6323 159.291 28.6085 157.701 27.1295C160.209 28.2193 162.551 30.6323 162.133 33.1233C162.049 33.5903 162.885 33.8238 162.969 33.3568C163.47 29.7761 159.625 26.2732 156.029 25.8062Z"
          fill="#0D0A29"/>
    <path d="M144.494 36.782C145.497 38.9616 147.252 40.9076 149.091 42.6201L154.358 43.4764C157.618 43.632 160.627 43.165 162.633 40.5962C164.807 37.7939 165.309 33.6683 164.389 30.1655C162.133 30.5547 159.875 30.9439 157.618 31.4888C152.519 32.5786 148.506 34.6024 144.494 36.782Z"
          fill="#0D0A29"/>
    <path d="M188.382 75.9361C188.382 75.9361 190.973 72.1996 191.057 65.116C191.14 58.0325 187.044 39.5842 170.325 35.4586C153.605 31.333 140.481 38.7279 140.314 44.0212C140.314 44.0212 133.04 45.8893 131.536 53.3621C130.032 60.8349 131.954 65.5832 131.954 65.5832C131.954 65.5832 131.536 73.7564 139.562 76.0138C147.587 78.3491 177.096 82.864 188.382 75.9361Z"
          fill="#14133F"/>
    <path d="M170.325 35.4586C164.975 34.1353 159.959 33.9796 155.611 34.6024C164.473 35.9257 172.415 38.8836 178.6 45.8893C184.87 53.2064 188.382 62.5474 188.465 71.8883C188.465 73.2116 188.465 74.5349 188.382 75.7804C188.8 75.1577 190.89 71.4991 190.973 65.0383C191.14 58.0326 187.044 39.5842 170.325 35.4586Z"
          fill="#242763"/>
    <path d="M185.372 53.2843C179.436 53.44 173.668 52.8951 168.235 50.5599C163.47 48.4582 159.29 45.1888 155.445 41.8417C155.027 41.5303 154.441 42.0752 154.859 42.3866C159.039 45.8894 163.386 49.2366 168.486 51.494C173.836 53.8292 179.604 54.2184 185.456 54.0628C185.874 54.0628 185.874 53.2843 185.372 53.2843Z"
          fill="#0D0A29"/>
    <path d="M148.339 40.9075C161.38 38.6501 178.35 37.4825 184.954 50.7155C185.204 51.1825 185.874 50.7933 185.706 50.3263C178.935 36.7819 161.463 37.8717 148.088 40.2069C147.587 40.2069 147.837 40.9853 148.339 40.9075Z"
          fill="#0D0A29"/>
    <path d="M164.473 43.2427C163.971 43.2427 163.971 44.0211 164.473 44.0211C170.826 44.3325 177.682 46.8234 181.526 51.7274C181.861 52.1166 182.53 51.7274 182.28 51.3382C178.266 46.1229 171.161 43.5541 164.473 43.2427Z"
          fill="#0D0A29"/>
    <path d="M159.959 47.5241C153.857 47.8355 148.255 46.7456 143.156 43.5541C142.738 43.2427 142.32 43.9433 142.738 44.2547C147.921 47.524 153.773 48.6916 159.959 48.3803C160.544 48.2246 160.544 47.4463 159.959 47.5241Z"
          fill="#0D0A29"/>
    <path d="M141.818 50.6377C137.137 58.1883 135.382 66.673 137.973 75.1577C138.14 75.6247 138.892 75.469 138.809 74.9241C136.301 66.673 138.056 58.3439 142.571 51.0269C142.822 50.6377 142.069 50.2484 141.818 50.6377Z"
          fill="#0D0A29"/>
    <path d="M139.728 49.2366C140.063 48.8474 139.31 48.4582 138.976 48.8474C133.376 56.8651 132.622 68.2299 136.97 76.9481C137.22 77.4151 137.89 77.0259 137.722 76.5589C133.542 68.0742 134.294 57.0207 139.728 49.2366Z"
          fill="#0D0A29"/>
    <path d="M184.954 55.7753C184.786 55.3082 183.95 55.5417 184.118 56.0088C186.71 62.2361 187.88 68.7748 187.044 75.4691C186.96 75.9362 187.796 75.9362 187.88 75.4691C188.716 68.6969 187.546 62.0804 184.954 55.7753Z"
          fill="#0D0A29"/>
    <path d="M185.372 74.9242C185.372 74.9242 189.803 70.4094 193.398 71.8884C196.909 73.3674 195.655 87.3788 183.032 86.6004L185.372 74.9242Z"
          fill="#FFC9C5"/>
    <path d="M192.896 76.5589C188.632 75.8583 185.038 79.2833 185.122 83.0977C185.122 83.7982 186.292 83.7982 186.292 83.0977C186.292 82.3193 186.459 81.6186 186.794 80.918C187.462 80.451 188.298 80.0618 188.8 80.5288C189.803 81.4629 188.8 83.0198 187.546 82.942C186.794 82.942 186.794 84.0317 187.546 83.9538C189.552 83.9538 190.722 81.8521 189.636 80.2953C189.218 79.6726 188.382 79.439 187.63 79.6726C187.462 79.7504 187.378 79.8282 187.295 79.8282C188.466 78.0379 190.472 76.7924 192.812 76.6367C192.98 76.7146 192.98 76.5589 192.896 76.5589Z"
          fill="#F19391"/>
    <path d="M141.233 74.9242C141.233 74.9242 136.802 70.4094 133.208 71.8884C129.696 73.3674 130.95 87.3788 143.574 86.6004L141.233 74.9242Z"
          fill="#FFC9C5"/>
    <path d="M133.71 76.5589C137.973 75.8583 141.568 79.2833 141.484 83.0977C141.484 83.7982 140.314 83.7982 140.314 83.0977C140.314 82.3193 140.146 81.6186 139.812 80.918C139.144 80.451 138.308 80.0618 137.806 80.5288C136.802 81.4629 137.806 83.0198 139.06 82.942C139.812 82.942 139.812 84.0317 139.06 83.9538C137.054 83.9538 135.883 81.8521 136.97 80.2953C137.388 79.6726 138.224 79.439 138.976 79.6726C139.144 79.7504 139.227 79.8282 139.31 79.8282C138.14 78.0379 136.134 76.7924 133.794 76.6367C133.626 76.7146 133.542 76.5589 133.71 76.5589Z"
          fill="#F19391"/>
    <path d="M143.908 54.0628C143.908 54.0628 137.638 64.727 139.227 73.9901C140.732 83.2533 143.657 99.1325 163.303 100.067C182.948 99.1325 186.124 83.4089 186.877 74.068C186.96 72.5112 182.78 64.0264 181.526 56.398C181.526 56.398 170.408 56.6315 157.619 49.8593C157.535 49.7815 150.261 53.0508 143.908 54.0628Z"
          fill="#FFC9C5"/>
    <path d="M181.444 56.3981C181.444 56.3981 181.276 56.3981 180.942 56.3981C182.28 65.1163 183.116 74.1459 180.106 82.7085C177.18 91.271 170.158 97.4206 160.795 99.4446C160.377 99.5217 159.875 99.5997 159.457 99.6778C160.627 99.9109 161.881 99.9889 163.219 100.067C182.864 99.1325 186.041 83.409 186.794 74.0681C186.96 72.5112 182.698 63.9487 181.444 56.3981Z"
          fill="#FFD2D2"/>
    <path d="M161.463 72.7447C160.627 72.9003 161.463 79.8282 160.293 80.2174C158.789 80.7623 157.451 82.7862 158.955 84.0317C160.711 85.4328 163.637 84.4987 164.055 81.8521C164.389 79.2833 163.469 72.2776 161.463 72.7447Z"
          fill="#F19391"/>
    <path d="M177.682 75.8584C177.514 75.8584 177.012 75.9363 176.929 75.7806C176.929 75.7806 176.929 75.7806 176.846 75.7027C176.846 75.4692 176.846 75.2357 176.846 75.08C176.762 74.613 175.926 74.613 176.01 75.08C176.093 75.9363 175.842 76.9482 175.006 77.4152C173.668 78.2715 172.248 76.7925 172.248 75.6249C172.248 75.1578 171.412 75.1578 171.412 75.6249C171.495 77.1039 172.833 78.5829 174.504 78.3493C175.006 78.2715 175.34 78.1158 175.675 77.8823C175.842 78.038 176.01 78.1158 176.26 78.1937C176.762 78.2715 177.012 77.5709 176.511 77.4152C176.428 77.4152 176.26 77.4152 176.26 77.2596C176.428 77.026 176.594 76.7147 176.678 76.4811C177.012 76.559 177.347 76.559 177.682 76.559C178.182 76.559 178.182 75.7806 177.682 75.8584Z"
          fill="#14133F"/>
    <path d="M172.498 69.8645C173.92 68.8525 176.093 69.0082 177.347 70.2537C177.765 70.6429 178.35 70.098 177.932 69.7088C176.428 68.3076 173.836 67.9963 172.08 69.2417C171.662 69.4753 172.08 70.1758 172.498 69.8645Z"
          fill="#14133F"/>
    <path d="M151.348 75.6247C151.265 76.8702 150.178 77.8821 148.84 77.4929C147.754 77.2594 147.503 75.8582 147.586 75.002C147.67 74.5349 146.834 74.5349 146.75 75.002C146.75 75.2355 146.75 75.469 146.75 75.6247C146.75 75.6247 146.667 75.6247 146.667 75.7026C146.583 75.8582 146.082 75.7804 145.914 75.7804C145.413 75.7804 145.413 76.5588 145.914 76.5588C146.249 76.5588 146.583 76.5588 146.834 76.481C146.918 76.7923 147.085 77.0259 147.252 77.2594C147.168 77.3372 147.085 77.4151 147.001 77.4151C146.5 77.4929 146.667 78.2713 147.252 78.1935C147.503 78.1156 147.754 78.0378 147.837 77.8821C148.088 78.1156 148.422 78.2713 148.757 78.3492C150.512 78.8162 152.017 77.1815 152.101 75.6247C152.184 75.0798 151.348 75.1577 151.348 75.6247Z"
          fill="#14133F"/>
    <path d="M146.249 70.2538C147.503 69.0083 149.593 68.8526 151.098 69.8646C151.516 70.1759 151.933 69.4753 151.516 69.164C149.76 67.9184 147.169 68.152 145.664 69.631C145.246 70.0202 145.831 70.643 146.249 70.2538Z"
          fill="#14133F"/>
    <path d="M168.486 89.9477C166.73 91.9716 163.637 93.2944 160.795 92.672C160.293 92.594 160.043 93.2944 160.544 93.4505C163.637 94.0728 167.065 92.7501 168.987 90.4926C169.405 90.1034 168.82 89.5585 168.486 89.9477Z"
          fill="#DB6181"/>
    <path opacity="0.4"
          d="M182.362 78.7385C177.681 78.7385 173.919 82.0078 173.919 86.0555C173.919 89.4028 176.427 92.2051 179.938 93.0613C183.532 89.0914 185.288 84.0317 186.124 79.439C184.954 78.972 183.7 78.7385 182.362 78.7385Z"
          fill="#FF6E8D"/>
    <path opacity="0.4"
          d="M153.522 86.0556C153.522 82.0079 149.76 78.7385 145.078 78.7385C143.323 78.7385 141.735 79.2055 140.397 79.9839C141.484 84.4988 143.323 89.4028 146.918 93.2944C150.679 92.516 153.522 89.5585 153.522 86.0556Z"
          fill="#FF6E8D"/>
    <path d="M187.044 78.2711C187.044 78.0376 187.044 77.8041 187.044 77.5706C187.212 76.7921 187.378 75.9359 187.546 75.1575C187.88 73.912 188.382 72.5887 188.632 71.3433C188.716 70.954 188.13 70.7984 187.964 71.1876C187.964 71.2654 187.964 71.2654 187.88 71.3433C187.88 69.5529 187.546 67.7626 186.876 65.9722C186.876 65.8944 186.71 65.8944 186.71 65.9722C186.124 72.0438 184.704 77.8041 183.616 83.7979C183.282 85.6661 183.032 87.6899 183.282 89.5581C183.868 93.2164 185.706 95.8628 184.62 99.6778C184.62 99.7549 184.704 99.8329 184.786 99.7549C185.54 98.0429 186.124 96.4081 185.79 94.5401C185.038 90.3365 184.536 87.145 185.706 82.9416C185.874 82.3189 186.04 81.774 186.208 81.1513C186.71 85.0433 188.466 88.2348 186.458 92.2828C186.458 92.2828 186.458 92.3599 186.542 92.2828C187.796 90.103 188.382 88.0791 187.964 85.5882C187.462 83.253 187.044 80.8399 187.044 78.2711Z"
          fill="#14133F"/>
    <path d="M139.728 76.0138C138.39 71.3433 139.06 67.2178 139.394 62.5473C139.478 61.7689 138.308 61.7689 138.056 62.3916C136.134 67.4513 137.136 72.7445 138.808 77.7263C140.564 83.0974 145.078 91.7378 139.728 96.408C139.644 96.4861 139.728 96.5641 139.812 96.4861C143.574 94.2289 143.156 90.0253 142.57 86.3668C142.069 82.8639 140.732 79.4389 139.728 76.0138Z"
          fill="#14133F"/>
    <path d="M185.288 55.4637C175.508 59.5115 163.721 54.0626 156.615 47.9131C156.615 47.9131 156.531 47.9131 156.615 47.9131C163.804 54.5296 175.508 59.9007 185.54 55.7751C185.706 55.6972 185.54 55.3859 185.288 55.4637Z"
          fill="#14133F"/>
    <path d="M142.153 246.487L163.135 243.606L150.429 229.127L134.378 235.122L142.153 246.487Z" fill="#F19391"/>
    <path d="M117.325 249.133C117.325 249.133 104.534 251.39 98.8499 250.69C89.8215 249.6 83.1337 244.307 84.1369 235.2C85.1401 226.092 103.197 231.775 103.197 231.775L117.325 249.133Z"
          fill="white"/>
    <path d="M122.173 234.888C117.575 234.498 102.862 230.84 96.4257 230.684C89.9887 230.451 92.3294 245.941 96.4257 247.654C100.522 249.366 108.547 250.69 126.854 248.043C129.78 247.654 144.159 247.342 145.329 247.187C145.58 247.187 145.329 244.463 145.329 244.463C145.329 244.463 148.506 244.151 148.59 240.492C148.673 236.834 147.754 231.619 143.49 232.475C143.49 232.475 142.822 229.362 142.236 229.517C141.568 229.595 126.771 235.277 122.173 234.888Z"
          fill="#FEB650"/>
    <path d="M143.741 244.774C136.97 244.696 130.198 245.785 123.511 246.331C118.161 246.798 111.64 247.498 106.625 245.163C106.123 244.93 106.541 244.151 107.043 244.463C112.225 246.876 119.247 245.863 124.765 245.396C131.034 244.852 137.388 243.839 143.741 243.995C144.326 243.917 144.326 244.774 143.741 244.774Z"
          fill="#D1881F"/>
    <path d="M141.735 233.098C135.716 233.798 130.115 236.133 124.096 236.912C117.325 237.846 110.887 236.444 104.952 233.331C104.451 233.098 104.869 232.319 105.37 232.63C111.975 236.133 118.913 237.068 126.27 235.744C131.452 234.81 136.384 232.942 141.652 232.319C142.32 232.163 142.32 233.02 141.735 233.098Z"
          fill="#D1881F"/>
    <path d="M102.946 231.463C104.117 231.93 104.284 240.649 102.946 249.522C102.946 249.522 92.4131 251.157 86.7285 240.492C81.0439 229.828 94.503 227.804 102.946 231.463Z"
          fill="white"/>
    <path d="M109.633 239.558C109.717 237.69 109.467 235.822 109.299 233.954C109.299 233.643 109.633 233.409 109.885 233.409C111.891 233.254 112.058 236.756 112.141 238.001C112.393 241.426 112.309 244.929 110.387 247.965C110.051 248.51 108.881 248.51 108.715 247.731C108.463 245.007 109.551 242.36 109.633 239.558Z"
          fill="white"/>
    <path d="M116.572 235.9C116.405 235.355 116.907 235.044 117.408 235.122C119.833 235.511 119.833 239.091 119.833 240.804C119.833 243.684 119.665 246.72 116.572 248.043C116.238 248.199 115.903 247.965 115.987 247.653C116.489 245.474 117.241 243.528 117.325 241.349C117.408 239.325 117.241 237.768 116.572 235.9Z"
          fill="white"/>
    <path d="M125.099 235.122C125.266 235.044 125.434 235.122 125.517 235.277C126.436 236.678 126.688 238.624 127.022 240.181C127.44 242.127 127.607 244.073 128.192 246.019C128.443 246.72 127.524 247.42 126.854 247.031C124.598 245.474 124.848 242.75 124.347 240.492C124.096 239.014 122.675 235.666 125.099 235.122Z"
          fill="white"/>
    <path d="M133.04 233.487C133.794 235.9 133.876 238.313 134.88 240.726C135.466 242.205 136.97 244.93 136.05 246.409C135.966 246.564 135.716 246.72 135.548 246.642C133.124 246.409 132.038 242.517 131.704 240.726C131.286 238.624 130.7 235.044 132.54 233.331C132.706 233.176 132.958 233.254 133.04 233.487Z"
          fill="white"/>
    <path d="M141.234 246.564C142.153 246.798 142.654 245.63 141.902 245.163C140.982 244.618 140.481 243.528 140.146 242.439C140.314 242.517 140.481 242.595 140.648 242.672C141.484 242.984 143.072 243.217 143.24 241.971C143.49 240.414 141.986 239.558 140.398 239.169C140.732 238.936 141.066 238.702 141.317 238.468C142.236 237.768 143.323 236.756 143.323 235.511C143.323 235.277 143.156 235.044 142.905 235.044C141.568 234.888 140.314 235.589 139.227 236.6C139.227 235.978 139.227 235.433 139.31 234.81C139.31 234.576 139.812 232.241 139.812 232.241C139.896 232.241 140.063 232.086 140.063 232.008C140.063 231.93 140.063 231.93 140.063 231.852C140.146 231.385 139.645 230.918 139.144 231.23C134.63 233.876 135.716 245.163 141.234 246.564ZM140.314 237.924C140.063 238.157 139.812 238.313 139.562 238.468C139.562 238.313 139.478 238.157 139.478 238.001C140.23 237.068 141.234 236.133 142.153 236.055C141.818 236.756 140.899 237.457 140.314 237.924ZM139.812 240.336C140.816 240.571 141.818 240.96 141.902 241.504C141.986 241.893 140.314 240.804 140.146 240.649C139.98 240.492 139.896 240.414 139.812 240.336Z"
          fill="white"/>
    <path d="M98.4319 248.977C98.6827 248.977 98.8499 248.821 98.8499 248.666C98.9335 248.432 98.7663 248.199 98.5155 248.199C98.4319 248.199 90.5738 246.486 87.6479 239.714C84.8057 233.098 89.8214 230.995 90.0722 230.917C90.323 230.84 90.4066 230.606 90.323 230.373C90.2394 230.139 89.9886 230.062 89.7378 230.139C89.6543 230.139 83.6353 232.63 86.812 240.025C89.905 247.187 98.0139 248.977 98.3483 249.055C98.3483 248.977 98.4319 248.977 98.4319 248.977Z"
          fill="#D1881F"/>
    <path d="M138.474 232.942C147.336 229.984 203.93 206.164 219.395 199.159C234.694 192.231 254.005 197.134 248.32 211.069C242.886 224.457 210.199 245.552 153.02 245.241C139.896 239.714 138.474 232.942 138.474 232.942Z"
          fill="#4E5AF2"/>
    <path d="M208.027 229.673C195.487 227.727 183.784 223.835 172.08 219.397C156.531 225.859 142.487 231.619 138.391 232.942C138.391 232.942 139.812 239.636 152.937 245.163C190.054 245.396 216.804 236.6 232.52 226.715C224.496 228.972 216.303 230.84 208.027 229.673Z"
          fill="#04619C"/>
    <path opacity="0.3"
          d="M145.497 246.72C145.497 245.941 145.413 244.541 145.413 244.541C145.413 244.541 148.59 244.229 148.673 240.57C148.757 236.912 147.837 231.697 143.574 232.553C143.574 232.553 142.905 229.44 142.32 229.595C141.651 229.751 126.854 235.433 122.34 235.044C121.337 234.966 119.916 234.732 118.161 234.421C122.842 235.978 127.44 237.768 131.87 239.792C136.218 241.66 140.982 243.995 145.497 246.72Z"
          fill="#D1881F"/>
    <path d="M192.311 232.241L173.502 227.649L175.257 245.085L195.404 245.474L192.311 232.241Z" fill="#FFC9C5"/>
    <path d="M192.311 232.241L184.62 230.373C182.446 232.63 179.688 234.265 179.186 237.846C178.768 240.492 179.772 242.983 181.276 245.163L195.32 245.474L192.311 232.241Z"
          fill="#F19391"/>
    <path d="M211.873 248.899C211.873 248.899 224.662 251.156 230.348 250.456C239.376 249.366 246.063 244.073 245.06 234.966C244.057 225.858 226 231.541 226 231.541L211.873 248.899Z"
          fill="white"/>
    <path d="M207.023 234.654C211.621 234.265 226.334 230.606 232.772 230.451C239.208 230.217 236.868 245.707 232.772 247.42C228.676 249.133 220.65 250.456 202.343 247.809C199.417 247.42 185.038 247.109 183.868 246.953C183.616 246.953 183.868 244.228 183.868 244.228C183.868 244.228 180.69 243.917 180.608 240.258C180.524 236.6 181.444 231.385 185.706 232.241C185.706 232.241 186.376 229.127 186.96 229.284C187.63 229.284 202.509 235.044 207.023 234.654Z"
          fill="#FEB650"/>
    <path d="M185.456 244.463C192.227 244.385 198.999 245.474 205.687 246.019C211.037 246.487 217.557 247.187 222.572 244.852C223.074 244.618 222.656 243.839 222.154 244.151C216.972 246.564 209.949 245.552 204.433 245.085C198.163 244.541 191.809 243.528 185.456 243.684C184.87 243.606 184.87 244.463 185.456 244.463Z"
          fill="#D1881F"/>
    <path d="M187.546 232.786C193.565 233.487 199.165 235.822 205.185 236.6C211.956 237.535 218.393 236.133 224.328 233.02C224.83 232.786 224.412 232.008 223.91 232.319C217.306 235.822 210.367 236.756 203.011 235.433C197.828 234.498 192.896 232.63 187.629 232.008C186.96 231.93 186.96 232.708 187.546 232.786Z"
          fill="#D1881F"/>
    <path d="M226.25 231.152C225.08 231.619 224.914 240.336 226.25 249.211C226.25 249.211 236.784 250.845 242.469 240.181C248.237 229.517 234.778 227.493 226.25 231.152Z"
          fill="white"/>
    <path d="M219.563 239.325C219.48 237.456 219.73 235.588 219.898 233.72C219.898 233.409 219.563 233.175 219.312 233.175C217.306 233.02 217.139 236.522 217.055 237.768C216.804 241.193 216.888 244.696 218.811 247.731C219.145 248.277 220.316 248.277 220.483 247.498C220.817 244.696 219.73 242.049 219.563 239.325Z"
          fill="white"/>
    <path d="M212.709 235.666C212.875 235.122 212.374 234.81 211.873 234.888C209.448 235.277 209.448 238.858 209.448 240.57C209.448 243.45 209.615 246.486 212.709 247.809C213.043 247.965 213.377 247.731 213.293 247.42C212.792 245.241 212.039 243.295 211.956 241.115C211.873 239.091 212.039 237.457 212.709 235.666Z"
          fill="white"/>
    <path d="M204.181 234.81C204.015 234.732 203.847 234.81 203.763 234.966C202.843 236.366 202.593 238.312 202.259 239.869C201.841 241.815 201.673 243.761 201.089 245.707C200.837 246.409 201.757 247.109 202.425 246.72C204.683 245.163 204.433 242.439 204.933 240.18C205.185 238.702 206.522 235.355 204.181 234.81Z"
          fill="white"/>
    <path d="M196.24 233.176C195.487 235.588 195.404 238.001 194.401 240.414C193.816 241.893 192.311 244.618 193.23 246.096C193.314 246.253 193.565 246.409 193.732 246.331C196.156 246.097 197.243 242.204 197.577 240.414C197.995 238.312 198.581 234.732 196.741 233.02C196.574 232.942 196.323 232.942 196.24 233.176Z"
          fill="white"/>
    <path d="M189.886 230.917C189.385 230.606 188.883 231.073 188.967 231.541C188.967 231.619 188.967 231.619 188.967 231.696C188.967 231.774 189.134 231.93 189.218 231.93C189.218 231.93 189.719 234.265 189.719 234.498C189.803 235.122 189.886 235.666 189.803 236.289C188.716 235.355 187.462 234.576 186.124 234.732C185.874 234.732 185.706 235.044 185.706 235.199C185.706 236.444 186.794 237.457 187.713 238.157C187.964 238.39 188.298 238.624 188.632 238.858C187.044 239.247 185.54 240.103 185.79 241.66C185.958 242.906 187.546 242.75 188.382 242.36C188.549 242.282 188.716 242.204 188.883 242.127C188.549 243.217 188.047 244.228 187.128 244.852C186.376 245.318 186.794 246.486 187.796 246.253C193.565 244.852 194.568 233.565 189.886 230.917ZM187.128 235.744C188.131 235.9 189.05 236.756 189.803 237.69C189.803 237.846 189.719 238.001 189.719 238.157C189.468 238.001 189.218 237.768 188.967 237.612C188.382 237.145 187.462 236.444 187.128 235.744ZM189.134 240.336C188.967 240.492 187.295 241.582 187.378 241.193C187.546 240.648 188.465 240.258 189.468 240.025C189.385 240.103 189.218 240.258 189.134 240.336Z"
          fill="white"/>
    <path d="M231.35 249.366C231.1 249.366 230.932 249.21 230.932 249.055C230.848 248.821 231.016 248.588 231.266 248.588C231.35 248.588 239.208 246.875 242.134 240.103C244.977 233.487 239.961 231.385 239.71 231.307C239.459 231.23 239.376 230.995 239.459 230.762C239.543 230.528 239.794 230.451 240.044 230.528C240.128 230.528 246.147 233.02 242.97 240.414C239.877 247.576 231.768 249.366 231.434 249.444C231.35 249.366 231.35 249.366 231.35 249.366Z"
          fill="#D1881F"/>
    <path d="M178.685 227.649C178.685 227.649 179.605 237.301 176.094 246.331C176.094 246.331 124.766 235.744 103.95 229.205C79.7068 221.655 84.5554 197.291 93.2494 196.045C114.734 193.165 142.153 216.206 178.685 227.649Z"
          fill="#4E5AF2"/>
    <path d="M122.675 224.224C113.813 220.643 105.12 215.972 98.7664 209.2C95.0881 205.308 93.0818 201.183 92.0787 196.434C84.137 199.47 80.7931 222.044 103.949 229.205C124.765 235.666 176.093 246.331 176.093 246.331C176.176 246.019 176.344 245.785 176.428 245.474C175.341 244.696 174.17 243.917 173 243.217C157.451 234.187 139.227 230.995 122.675 224.224Z"
          fill="#3843ED"/>
    <path d="M321.634 241.971H332L322.22 196.279L321.634 241.971Z" fill="#EAEFFF"/>
    <path d="M322.386 197.291V197.213C322.304 197.135 322.304 197.135 322.22 197.135C322.136 197.135 322.136 197.213 322.052 197.213L323.64 241.115C323.64 241.193 323.724 241.271 323.892 241.271C323.976 241.271 324.058 241.193 324.058 241.038L322.722 203.207L326.734 241.038C326.734 241.115 326.818 241.193 326.901 241.193C326.984 241.193 327.068 241.115 327.068 240.96L322.972 202.272L330.245 241.038C330.245 241.115 330.328 241.193 330.412 241.193C330.496 241.193 330.579 241.037 330.579 240.96L322.386 197.291Z"
          fill="#EAEFFF"/>
    <path d="M322.22 241.971H256.68L260.275 196.279H322.22V241.971Z" fill="#EAEFFF"/>
    <path d="M319.712 205.775C319.712 206.632 318.96 207.332 318.04 207.332H264.538C263.618 207.332 262.866 206.632 262.866 205.775V201.805C262.866 200.949 263.618 200.248 264.538 200.248H318.04C318.96 200.248 319.712 200.949 319.712 201.805V205.775Z"
          fill="#FF6C8B"/>
    <path d="M269.554 214.338C269.554 215.272 268.718 216.051 267.714 216.051H264.705C263.702 216.051 262.95 215.272 262.95 214.338L263.033 212.236C263.033 211.302 263.869 210.524 264.872 210.524H267.882C268.885 210.524 269.638 211.302 269.638 212.236L269.554 214.338Z"
          fill="white"/>
    <path d="M277.412 214.338C277.412 215.272 276.576 216.051 275.573 216.051H272.564C271.56 216.051 270.808 215.272 270.808 214.338L270.892 212.236C270.892 211.302 271.728 210.524 272.73 210.524H275.74C276.744 210.524 277.496 211.302 277.496 212.236L277.412 214.338Z"
          fill="white"/>
    <path d="M285.27 214.338C285.27 215.272 284.434 216.051 283.431 216.051H280.422C279.418 216.051 278.666 215.272 278.666 214.338L278.75 212.236C278.75 211.302 279.586 210.524 280.588 210.524H283.598C284.601 210.524 285.353 211.302 285.353 212.236L285.27 214.338Z"
          fill="white"/>
    <path d="M293.128 214.338C293.128 215.272 292.292 216.051 291.289 216.051H288.279C287.276 216.051 286.524 215.272 286.524 214.338L286.607 212.236C286.607 211.302 287.443 210.524 288.447 210.524H291.456C292.459 210.524 293.211 211.302 293.211 212.236L293.128 214.338Z"
          fill="white"/>
    <path d="M300.987 214.338C300.987 215.272 300.151 216.051 299.147 216.051H296.137C295.135 216.051 294.382 215.272 294.382 214.338L294.465 212.236C294.465 211.302 295.301 210.524 296.305 210.524H299.315C300.317 210.524 301.069 211.302 301.069 212.236L300.987 214.338Z"
          fill="white"/>
    <path d="M269.303 221.733C269.303 222.667 268.467 223.445 267.464 223.445H264.454C263.451 223.445 262.699 222.667 262.699 221.733L262.783 219.631C262.783 218.697 263.618 217.919 264.622 217.919H267.631C268.634 217.919 269.386 218.697 269.386 219.631L269.303 221.733Z"
          fill="white"/>
    <path d="M277.161 221.733C277.161 222.667 276.325 223.445 275.322 223.445H272.312C271.31 223.445 270.556 222.667 270.556 221.733L270.64 219.631C270.64 218.697 271.476 217.919 272.48 217.919H275.489C276.492 217.919 277.244 218.697 277.244 219.631L277.161 221.733Z"
          fill="white"/>
    <path d="M285.019 221.733C285.019 222.667 284.183 223.445 283.18 223.445H280.17C279.168 223.445 278.416 222.667 278.416 221.733L278.498 219.631C278.498 218.697 279.334 217.919 280.338 217.919H283.348C284.351 217.919 285.103 218.697 285.103 219.631L285.019 221.733Z"
          fill="white"/>
    <path d="M292.877 221.733C292.877 222.667 292.041 223.445 291.038 223.445H288.029C287.026 223.445 286.273 222.667 286.273 221.733L286.357 219.631C286.357 218.697 287.193 217.919 288.196 217.919H291.205C292.209 217.919 292.961 218.697 292.961 219.631L292.877 221.733Z"
          fill="white"/>
    <path d="M300.735 221.733C300.735 222.667 299.899 223.445 298.896 223.445H295.887C294.883 223.445 294.131 222.667 294.131 221.733L294.215 219.631C294.215 218.697 295.051 217.919 296.054 217.919H299.063C300.067 217.919 300.819 218.697 300.819 219.631L300.735 221.733Z"
          fill="white"/>
    <path d="M268.968 229.049C268.968 229.984 268.132 230.762 267.13 230.762H264.12C263.117 230.762 262.365 229.984 262.365 229.049L262.448 226.948C262.448 226.014 263.284 225.235 264.287 225.235H267.296C268.3 225.235 269.052 226.014 269.052 226.948L268.968 229.049Z"
          fill="white"/>
    <path d="M276.826 229.049C276.826 229.984 275.99 230.762 274.988 230.762H271.978C270.975 230.762 270.222 229.984 270.222 229.049L270.306 226.948C270.306 226.014 271.142 225.235 272.145 225.235H275.154C276.158 225.235 276.91 226.014 276.91 226.948L276.826 229.049Z"
          fill="white"/>
    <path d="M284.768 229.049C284.768 229.984 283.932 230.762 282.929 230.762H279.92C278.916 230.762 278.164 229.984 278.164 229.049L278.248 226.948C278.248 226.014 279.084 225.235 280.087 225.235H283.096C284.1 225.235 284.852 226.014 284.852 226.948L284.768 229.049Z"
          fill="white"/>
    <path d="M292.627 229.049C292.627 229.984 291.791 230.762 290.787 230.762H287.778C286.775 230.762 286.022 229.984 286.022 229.049L286.106 226.948C286.106 226.014 286.942 225.235 287.945 225.235H290.955C291.957 225.235 292.71 226.014 292.71 226.948L292.627 229.049Z"
          fill="white"/>
    <path d="M300.485 229.049C300.485 229.984 299.649 230.762 298.645 230.762H295.636C294.633 230.762 293.881 229.984 293.881 229.049L293.964 226.948C293.964 226.014 294.8 225.235 295.803 225.235H298.813C299.815 225.235 300.569 226.014 300.569 226.948L300.485 229.049Z"
          fill="white"/>
    <path d="M268.718 236.367C268.718 237.301 267.882 238.079 266.878 238.079H263.869C262.866 238.079 262.114 237.301 262.114 236.367L262.197 234.265C262.197 233.331 263.033 232.552 264.036 232.552H267.046C268.049 232.552 268.802 233.331 268.802 234.265L268.718 236.367Z"
          fill="white"/>
    <path d="M276.576 236.367C276.576 237.301 275.74 238.079 274.736 238.079H271.728C270.724 238.079 269.972 237.301 269.972 236.367L270.056 234.265C270.056 233.331 270.892 232.552 271.894 232.552H274.904C275.907 232.552 276.66 233.331 276.66 234.265L276.576 236.367Z"
          fill="white"/>
    <path d="M284.434 236.367C284.434 237.301 283.598 238.079 282.595 238.079H279.586C278.582 238.079 277.83 237.301 277.83 236.367L277.914 234.265C277.914 233.331 278.75 232.552 279.752 232.552H282.762C283.765 232.552 284.518 233.331 284.518 234.265L284.434 236.367Z"
          fill="white"/>
    <path d="M292.292 236.367C292.292 237.301 291.456 238.079 290.453 238.079H287.443C286.44 238.079 285.688 237.301 285.688 236.367L285.772 234.265C285.772 233.331 286.608 232.552 287.611 232.552H290.62C291.623 232.552 292.375 233.331 292.375 234.265L292.292 236.367Z"
          fill="white"/>
    <path d="M300.233 236.367C300.233 237.301 299.397 238.079 298.395 238.079H295.385C294.382 238.079 293.629 237.301 293.629 236.367L293.713 234.265C293.713 233.331 294.549 232.552 295.553 232.552H298.561C299.565 232.552 300.317 233.331 300.317 234.265L300.233 236.367Z"
          fill="white"/>
    <path d="M308.928 214.338C308.928 215.272 308.092 216.051 307.088 216.051H304.079C303.076 216.051 302.324 215.272 302.324 214.338L302.407 212.236C302.407 211.302 303.243 210.524 304.246 210.524H307.256C308.259 210.524 309.011 211.302 309.011 212.236L308.928 214.338Z"
          fill="#EAEFFF"/>
    <path d="M316.786 214.338C316.786 215.272 315.95 216.051 314.947 216.051H311.937C310.934 216.051 310.182 215.272 310.182 214.338L310.265 212.236C310.265 211.302 311.101 210.524 312.104 210.524H315.114C316.117 210.524 316.87 211.302 316.87 212.236L316.786 214.338Z"
          fill="#EAEFFF"/>
    <path d="M308.594 221.733C308.594 222.667 307.758 223.445 306.754 223.445H303.745C302.742 223.445 301.989 222.667 301.989 221.733L302.073 219.631C302.073 218.697 302.909 217.919 303.912 217.919H306.922C307.925 217.919 308.677 218.697 308.677 219.631L308.594 221.733Z"
          fill="#EAEFFF"/>
    <path d="M316.452 221.733C316.452 222.667 315.616 223.445 314.612 223.445H311.602C310.6 223.445 309.847 222.667 309.847 221.733L309.93 219.631C309.93 218.697 310.766 217.919 311.77 217.919H314.78C315.782 217.919 316.534 218.697 316.534 219.631L316.452 221.733Z"
          fill="#EAEFFF"/>
    <path d="M308.342 229.049C308.342 229.984 307.506 230.762 306.504 230.762H303.494C302.491 230.762 301.739 229.984 301.739 229.049L301.822 226.948C301.822 226.014 302.658 225.235 303.661 225.235H306.671C307.674 225.235 308.426 226.014 308.426 226.948L308.342 229.049Z"
          fill="#EAEFFF"/>
    <path d="M316.2 229.049C316.2 229.984 315.364 230.762 314.362 230.762H311.352C310.349 230.762 309.596 229.984 309.596 229.049L309.68 226.948C309.68 226.014 310.516 225.235 311.52 225.235H314.528C315.532 225.235 316.284 226.014 316.284 226.948L316.2 229.049Z"
          fill="#EAEFFF"/>
    <path d="M308.092 236.367C308.092 237.301 307.256 238.079 306.253 238.079H303.243C302.24 238.079 301.487 237.301 301.487 236.367L301.571 234.265C301.571 233.331 302.407 232.552 303.411 232.552H306.42C307.423 232.552 308.176 233.331 308.176 234.265L308.092 236.367Z"
          fill="#EAEFFF"/>
    <path d="M315.95 236.367C315.95 237.301 315.114 238.079 314.11 238.079H311.101C310.098 238.079 309.346 237.301 309.346 236.367L309.429 234.265C309.429 233.331 310.265 232.552 311.268 232.552H314.278C315.28 232.552 316.034 233.331 316.034 234.265L315.95 236.367Z"
          fill="#EAEFFF"/>
    <path d="M265.29 197.991C265.29 198.614 264.705 199.159 264.036 199.159C263.368 199.159 262.782 198.614 262.782 197.991V193.087C262.782 192.464 263.368 191.92 264.036 191.92C264.705 191.92 265.29 192.464 265.29 193.087V197.991Z"
          fill="#A3A6F3"/>
    <path d="M275.824 197.991C275.824 198.614 275.238 199.159 274.57 199.159C273.9 199.159 273.316 198.614 273.316 197.991V193.087C273.316 192.464 273.9 191.92 274.57 191.92C275.238 191.92 275.824 192.464 275.824 193.087V197.991Z"
          fill="#A3A6F3"/>
    <path d="M286.44 197.991C286.44 198.614 285.855 199.159 285.186 199.159C284.518 199.159 283.932 198.614 283.932 197.991V193.087C283.932 192.464 284.518 191.92 285.186 191.92C285.855 191.92 286.44 192.464 286.44 193.087V197.991Z"
          fill="#A3A6F3"/>
    <path d="M297.057 197.991C297.057 198.614 296.471 199.159 295.803 199.159C295.135 199.159 294.549 198.614 294.549 197.991V193.087C294.549 192.464 295.135 191.92 295.803 191.92C296.471 191.92 297.057 192.464 297.057 193.087V197.991Z"
          fill="#A3A6F3"/>
    <path d="M307.59 197.991C307.59 198.614 307.005 199.159 306.336 199.159C305.667 199.159 305.083 198.614 305.083 197.991V193.087C305.083 192.464 305.667 191.92 306.336 191.92C307.005 191.92 307.59 192.464 307.59 193.087V197.991Z"
          fill="#A3A6F3"/>
    <path d="M318.207 197.991C318.207 198.614 317.622 199.159 316.953 199.159C316.284 199.159 315.699 198.614 315.699 197.991V193.087C315.699 192.464 316.284 191.92 316.953 191.92C317.622 191.92 318.207 192.464 318.207 193.087V197.991Z"
          fill="#A3A6F3"/>
</svg>
