<svg width="360" height="178" viewBox="0 0 360 178" fill="none" xmlns="http://www.w3.org/2000/svg">
    <g clip-path="url(#clip0_705_602)">
        <g opacity="0.68">
            <path opacity="0.68"
                  d="M9.59649 178.885C5.9581 174.787 6.00863 162.896 8.88903 158.241C11.7694 153.585 17.8334 151.157 23.1394 152.573C20.6633 142.909 22.6846 132.637 25.7166 123.074C27.9401 115.99 30.8205 108.906 35.8738 103.491C43.6054 95.0918 55.7334 91.7016 67.1034 92.6124C78.4734 93.5232 89.237 98.229 99.0405 104.099C105.559 78.7986 112.836 52.0818 131.685 33.967C155.739 10.8934 195.761 8.21158 224.161 25.618C252.561 43.0244 268.378 77.8372 265.598 111.081C276.008 110.019 287.176 111.638 295.464 118.014C303.751 124.389 308.248 136.381 303.852 145.894C325.531 140.935 349.736 156.47 354.234 178.278"
                  fill="#A5CDF2"/>
        </g>
        <g opacity="0.24">
            <path opacity="0.24"
                  d="M9.59649 178.885C5.9581 175.495 6.00863 165.78 8.88903 161.934C11.7694 158.139 17.8334 156.115 23.1394 157.279C20.6633 149.335 22.6846 140.885 25.7166 133.092C27.9401 127.273 30.8205 121.505 35.8738 117.002C43.6054 110.12 55.7334 107.337 67.1034 108.045C78.4734 108.754 89.237 112.65 99.0405 117.457C105.559 96.711 112.836 74.8012 131.685 59.9248C155.739 41.0004 195.761 38.8246 224.161 53.0432C252.561 67.2618 268.378 95.9014 265.598 123.124C276.008 122.264 287.176 123.58 295.464 128.791C303.751 134.003 308.248 143.87 303.852 151.663C325.531 147.564 349.736 160.366 354.234 178.228"
                  fill="#A5CDF2"/>
        </g>
        <g opacity="0.28">
            <g opacity="0.28">
                <g opacity="0.28">
                    <g opacity="0.28">
                        <path opacity="0.28"
                              d="M143.004 123.984C141.034 127.982 138.962 131.928 136.89 135.875C134.515 140.328 132.089 144.781 129.562 149.183C133.1 158.645 135.93 168.411 138.052 178.329L161.904 178.278C161.853 178.278 154.576 151.915 143.004 123.984Z"
                              fill="#4F6AFF"/>
                        <path opacity="0.28"
                              d="M126.682 141.998C127.44 143.769 128.147 145.54 128.855 147.361C133.504 139.215 137.9 130.916 142.094 122.517C142.145 122.416 142.246 122.314 142.296 122.264C141.64 120.746 141.033 119.228 140.326 117.71C135.525 125.603 131.028 133.699 126.783 141.947C126.732 141.897 126.732 141.947 126.682 141.998Z"
                              fill="#4F6AFF"/>
                        <path opacity="0.28"
                              d="M99.7481 151.511C102.123 155.862 104.549 160.163 106.469 164.768C108.137 168.765 109.653 173.117 109.602 177.519C112.23 173.876 114.757 170.182 117.182 166.438C120.922 160.72 124.459 154.951 127.845 149.031C122.892 135.875 116.525 123.276 108.996 111.385C104.448 104.25 99.4449 97.4192 94.0379 90.8918C93.9873 90.8918 93.9873 90.8918 93.9368 90.8918C90.2984 91.2966 86.66 91.7521 83.0721 92.3593C80.2423 92.8147 77.4124 93.3712 74.5825 93.9278C75.3405 96.4578 76.4017 98.7855 77.8167 100.86C87.5696 115.129 74.1783 109.816 66.5477 113.611C66.0929 113.864 65.5876 114.168 65.1328 114.522C70.8431 116.799 75.5932 120.645 79.9391 124.895C87.8728 132.789 94.3916 141.745 99.7481 151.511Z"
                              fill="#4F6AFF"/>
                        <path opacity="0.28"
                              d="M131.28 158.848C130.421 156.166 129.512 153.535 128.552 150.853C123.044 160.265 117.182 169.524 110.814 178.379L136.485 178.329C135.07 171.751 133.352 165.274 131.28 158.848Z"
                              fill="#4F6AFF"/>
                        <path opacity="0.28"
                              d="M92.8752 89.5257C87.5187 83.2007 81.7579 77.1793 75.5928 71.5121C72.9651 77.8371 72.5103 85.6801 74.1779 92.4605C80.343 91.1955 86.6091 90.2341 92.8752 89.5257Z"
                              fill="#4F6AFF"/>
                        <path opacity="0.28"
                              d="M87.3163 60.2283C87.0637 62.404 88.9839 64.681 91.3085 64.3774C93.3803 64.0738 94.7447 61.6957 94.1889 59.7223C94.1889 59.6717 94.1383 59.5705 94.1383 59.5199C91.6622 59.2163 89.3882 59.4187 87.3163 60.0259C87.3163 60.0765 87.3163 60.1777 87.3163 60.2283Z"
                              fill="#4F6AFF"/>
                        <path opacity="0.28"
                              d="M104.144 163.25C102.173 158.999 99.8488 154.901 97.5748 150.752C94.947 145.945 91.9151 141.391 88.5799 137.039C85.2952 132.738 81.6568 128.741 77.7657 124.996C73.8746 121.303 69.5793 117.912 64.526 115.939C64.2733 115.838 64.1217 115.635 64.0206 115.382C58.6641 120.392 54.1161 132.485 66.4968 142.909C80.7472 154.952 77.7657 156.419 75.4917 165.426C73.2177 174.432 76.8056 178.379 76.8056 178.379L107.985 178.329C108.338 173.167 106.317 167.956 104.144 163.25Z"
                              fill="#4F6AFF"/>
                        <path opacity="0.28"
                              d="M76.2998 70.0953C83.5766 76.7745 90.3986 83.9597 96.6142 91.6509C107.732 105.363 117.08 120.493 124.357 136.584C124.913 137.748 125.418 138.962 125.924 140.176C130.067 132.232 134.413 124.44 139.062 116.799C139.214 116.496 139.517 116.394 139.77 116.445C127.894 89.4751 112.33 63.2137 95.7046 59.8235C96.2099 62.5559 94.2897 65.4907 91.4598 65.8955C88.4278 66.3509 85.5979 63.5679 85.7495 60.5825C81.5047 62.2523 78.3717 65.7437 76.2998 70.0953C76.2493 70.0447 76.2998 70.0953 76.2998 70.0953Z"
                              fill="#4F6AFF"/>
                    </g>
                    <g opacity="0.28">
                        <path opacity="0.28"
                              d="M121.882 178.784C121.882 178.784 111.169 162.592 99.647 148.171C96.4129 152.067 93.2798 156.065 90.2478 160.163L90.1973 160.214C94.9979 165.881 99.5965 171.751 103.841 177.823C103.993 178.025 103.942 178.227 103.791 178.379L121.882 178.784Z"
                              fill="white"/>
                        <path opacity="0.28"
                              d="M89.5909 159.455C92.6229 155.356 95.8065 151.359 99.0406 147.412C97.3225 145.287 95.5538 143.162 93.8357 141.188C91.1574 146.198 88.6813 151.308 87.2158 156.824C88.0749 157.684 88.8329 158.544 89.5909 159.455Z"
                              fill="white"/>
                        <path opacity="0.28"
                              d="M103.032 178.329C101.264 175.799 99.4445 173.268 97.5242 170.84C96.9683 170.131 96.4125 169.423 95.8566 168.664C95.8061 168.664 95.8061 168.664 95.7555 168.664C88.3777 168.664 80.8987 168.512 73.5714 169.929C72.965 170.03 72.7123 169.119 73.3187 169.018C80.4945 167.652 87.8218 167.703 95.0986 167.703C89.7926 160.973 84.1329 154.547 78.1194 148.475C78.0183 149.183 77.7151 149.79 77.0582 150.144C71.3479 153.484 70.8426 141.542 60.837 146.349C50.8314 151.106 80.3934 177.873 80.3934 177.873L103.032 178.329Z"
                              fill="white"/>
                        <path opacity="0.28"
                              d="M83.1223 152.219C84.2845 153.433 85.3963 154.648 86.508 155.913C88.024 150.448 90.5001 145.337 93.1784 140.379C85.6489 131.777 78.5743 125.401 74.6832 126.261C65.7388 128.235 76.8056 140.682 78.0689 147.007C79.7871 148.728 81.4547 150.448 83.1223 152.219Z"
                              fill="white"/>
                    </g>
                </g>
            </g>
        </g>
        <g opacity="0.28">
            <g opacity="0.28">
                <g opacity="0.28">
                    <g opacity="0.28">
                        <path opacity="0.28"
                              d="M210.618 123.984C212.589 127.982 214.661 131.928 216.733 135.875C219.108 140.328 221.533 144.781 224.06 149.183C220.523 158.645 217.693 168.411 215.57 178.329L191.719 178.278C191.769 178.278 199.046 151.915 210.618 123.984Z"
                              fill="#4F6AFF"/>
                        <path opacity="0.28"
                              d="M226.89 141.998C226.132 143.769 225.425 145.54 224.717 147.361C220.068 139.215 215.672 130.916 211.478 122.517C211.427 122.416 211.326 122.314 211.275 122.264C211.932 120.746 212.539 119.228 213.246 117.71C218.047 125.603 222.544 133.699 226.789 141.947C226.84 141.897 226.89 141.947 226.89 141.998Z"
                              fill="#4F6AFF"/>
                        <path opacity="0.28"
                              d="M253.875 151.511C251.5 155.862 249.074 160.163 247.154 164.768C245.486 168.765 243.97 173.117 244.021 177.519C241.393 173.876 238.866 170.182 236.441 166.438C232.701 160.72 229.164 154.951 225.778 149.031C230.731 135.875 237.098 123.276 244.627 111.385C249.175 104.25 254.178 97.4192 259.585 90.8918C259.636 90.8918 259.636 90.8918 259.686 90.8918C263.325 91.2966 266.963 91.7521 270.551 92.3593C273.381 92.8147 276.211 93.3712 279.04 93.9278C278.282 96.4578 277.221 98.7855 275.806 100.86C266.053 115.129 279.445 109.816 287.075 113.611C287.53 113.864 288.035 114.168 288.49 114.522C282.78 116.799 278.03 120.645 273.684 124.895C265.75 132.789 259.231 141.745 253.875 151.511Z"
                              fill="#4F6AFF"/>
                        <path opacity="0.28"
                              d="M222.292 158.848C223.151 156.166 224.061 153.535 225.021 150.853C230.529 160.265 236.391 169.524 242.758 178.379L217.087 178.329C218.552 171.751 220.271 165.274 222.292 158.848Z"
                              fill="#4F6AFF"/>
                        <path opacity="0.28"
                              d="M260.747 89.5257C266.104 83.2007 271.864 77.1793 278.029 71.5121C280.657 77.8371 281.112 85.6801 279.444 92.4605C273.229 91.1955 267.013 90.2341 260.747 89.5257Z"
                              fill="#4F6AFF"/>
                        <path opacity="0.28"
                              d="M266.306 60.2283C266.558 62.404 264.638 64.681 262.314 64.3774C260.242 64.0738 258.877 61.6957 259.433 59.7223C259.433 59.6717 259.484 59.5705 259.484 59.5199C261.96 59.2163 264.234 59.4187 266.306 60.0259C266.306 60.0765 266.306 60.1777 266.306 60.2283Z"
                              fill="#4F6AFF"/>
                        <path opacity="0.28"
                              d="M249.427 163.25C251.398 158.999 253.723 154.901 255.997 150.752C258.625 145.945 261.657 141.391 264.992 137.039C268.276 132.738 271.915 128.741 275.806 124.996C279.697 121.303 283.992 117.912 289.046 115.939C289.298 115.838 289.45 115.635 289.551 115.382C294.907 120.392 299.455 132.485 287.075 142.909C272.824 154.952 275.806 156.419 278.08 165.426C280.354 174.432 276.766 178.379 276.766 178.379L245.587 178.329C245.284 173.167 247.305 167.956 249.427 163.25Z"
                              fill="#4F6AFF"/>
                        <path opacity="0.28"
                              d="M277.322 70.0953C270.046 76.7745 263.224 83.9597 257.008 91.6509C245.891 105.363 236.542 120.493 229.265 136.584C228.709 137.748 228.204 138.962 227.699 140.176C223.555 132.232 219.209 124.44 214.56 116.799C214.408 116.496 214.105 116.394 213.853 116.445C225.728 89.4751 241.292 63.2137 257.918 59.8235C257.412 62.5559 259.333 65.4907 262.162 65.8955C265.194 66.3509 268.024 63.5679 267.873 60.5825C272.067 62.2523 275.251 65.7437 277.322 70.0953C277.322 70.0447 277.322 70.0953 277.322 70.0953Z"
                              fill="#4F6AFF"/>
                    </g>
                    <g opacity="0.28">
                        <path opacity="0.28"
                              d="M231.69 178.784C231.69 178.784 242.403 162.592 253.925 148.171C257.159 152.067 260.292 156.065 263.324 160.163L263.375 160.214C258.574 165.881 253.976 171.751 249.731 177.823C249.579 178.025 249.63 178.227 249.781 178.379L231.69 178.784Z"
                              fill="white"/>
                        <path opacity="0.28"
                              d="M264.032 159.455C261 155.356 257.816 151.359 254.582 147.412C256.3 145.287 258.069 143.162 259.787 141.188C262.465 146.198 264.941 151.308 266.407 156.824C265.548 157.684 264.79 158.544 264.032 159.455Z"
                              fill="white"/>
                        <path opacity="0.28"
                              d="M250.59 178.329C252.358 175.799 254.178 173.268 256.098 170.84C256.654 170.131 257.21 169.423 257.765 168.664C257.816 168.664 257.816 168.664 257.866 168.664C265.244 168.664 272.723 168.512 280.051 169.929C280.657 170.03 280.91 169.119 280.303 169.018C273.128 167.652 265.8 167.703 258.523 167.703C263.829 160.973 269.489 154.547 275.503 148.475C275.604 149.183 275.907 149.79 276.564 150.144C282.274 153.484 282.779 141.542 292.785 146.349C302.791 151.106 273.229 177.873 273.229 177.873L250.59 178.329C250.539 178.329 250.539 178.329 250.59 178.329Z"
                              fill="white"/>
                        <path opacity="0.28"
                              d="M275.554 147.007C276.767 140.682 287.884 128.235 278.94 126.261C275.048 125.401 267.974 131.777 260.444 140.379C263.123 145.337 265.649 150.448 267.115 155.913C268.226 154.648 269.338 153.433 270.5 152.219C272.118 150.448 273.836 148.728 275.554 147.007Z"
                              fill="white"/>
                    </g>
                </g>
            </g>
        </g>
        <path d="M190.203 170.967V160.341H159.327V170.967V170.916C155.284 173.548 153.313 178.152 153.313 183.313H196.166C196.216 178.102 194.245 173.598 190.203 170.967Z"
              fill="#18004C"/>
        <path d="M169.433 162.871C176.205 165.654 190.253 170.917 190.253 170.917V160.291H163.218C165.239 161.201 167.362 162.011 169.433 162.871Z"
              fill="#0A0A0A"/>
        <path d="M202.886 120.62L214.56 134.282C217.389 137.622 218.703 141.973 218.147 146.325L214.964 171.018C214.762 172.738 213.094 173.952 211.376 173.649C209.86 173.396 208.748 172.03 208.849 170.461L209.456 159.329C209.809 152.498 205.11 146.375 198.439 145.009L202.886 120.62Z"
              fill="#FF3040"/>
        <path d="M147.401 120.62L135.728 134.282C132.898 137.622 131.584 141.973 132.14 146.325L135.323 171.018C135.526 172.738 137.193 173.952 138.911 173.649C140.427 173.396 141.539 172.03 141.438 170.461L140.832 159.329C140.478 152.498 145.177 146.375 151.848 145.009L147.401 120.62Z"
              fill="#FF3040"/>
        <path d="M210.365 129.374L202.886 120.62L198.439 145.009C199.753 145.262 201.017 145.718 202.128 146.325C204.756 140.658 207.485 134.94 210.365 129.374Z"
              fill="#CF0019"/>
        <path d="M141.185 136.255C143.712 139.544 146.339 142.783 148.916 146.021C149.877 145.566 150.837 145.262 151.898 145.009L147.451 120.62L138.052 131.651C139.163 133.27 140.225 134.99 141.185 136.255Z"
              fill="#CF0019"/>
        <path d="M153.162 156.698C153.162 156.698 145.935 138.128 146.289 118.596C146.643 99.0645 141.842 55.7003 155.537 27.5161C163.723 10.7169 168.877 3.83534 171.657 1.00174C172.92 -0.263263 175.042 -0.111462 176.104 1.30534C180.399 7.07374 191.516 22.3043 194.296 28.8823C197.732 37.1301 205.615 52.9173 202.886 120.57C202.886 120.57 201.522 145.667 196.721 156.647H153.162V156.698Z"
              fill="white"/>
        <path opacity="0.37"
              d="M153.566 49.8306C155.587 36.371 158.821 22.456 166.907 11.2228C167.26 10.7674 167.664 10.4132 168.069 10.1602C170.141 6.82062 172.213 3.53162 174.284 0.192024C173.375 0.0402244 172.415 0.293223 171.657 1.00162C168.827 3.83522 163.723 10.7168 155.536 27.516C141.791 55.7002 146.643 98.9632 146.289 118.545C145.935 138.128 153.161 156.647 153.161 156.647L197.075 156.445C154.324 156.04 150.837 117.584 150.281 96.332C149.877 80.7978 151.292 65.1624 153.566 49.8306Z"
              fill="#95A1E6"/>
        <path d="M188.788 27.921C190.657 28.2246 192.477 28.5788 194.346 28.933C191.618 22.3044 180.5 7.12437 176.154 1.35597C175.093 -0.111436 172.971 -0.263235 171.707 1.05237C168.878 3.88597 163.774 10.7676 155.587 27.5668C155.436 27.921 155.234 28.2752 155.082 28.68C165.997 25.897 177.62 26.15 188.788 27.921Z"
              fill="#FF3040"/>
        <path d="M167.21 15.1697C170.444 10.8687 173.476 6.4159 176.71 2.11491C176.508 1.81131 176.306 1.55831 176.104 1.30531C175.042 -0.162094 172.92 -0.313895 171.657 1.00171C168.827 3.8353 163.723 10.7169 155.537 27.5161C155.385 27.8703 155.183 28.2245 155.031 28.6293C156.598 28.2245 158.164 27.9209 159.731 27.6679C161.449 23.1139 164.279 19.0659 167.21 15.1697Z"
              fill="#CF0019"/>
        <path d="M195.205 162.314H154.981C153.162 162.314 151.696 160.847 151.696 159.025C151.696 157.204 153.162 155.736 154.981 155.736H195.205C197.025 155.736 198.49 157.204 198.49 159.025C198.49 160.847 197.025 162.314 195.205 162.314Z"
              fill="#18004C"/>
        <path d="M174.184 42.9492C164.633 42.9492 156.901 50.691 156.901 60.2544C156.901 69.8178 164.633 77.5596 174.184 77.5596C183.735 77.5596 191.466 69.8178 191.466 60.2544C191.466 50.7416 183.735 42.9492 174.184 42.9492ZM174.184 72.5502C167.412 72.5502 161.904 67.0348 161.904 60.2544C161.904 53.474 167.412 47.9586 174.184 47.9586C180.955 47.9586 186.463 53.474 186.463 60.2544C186.413 67.0854 180.955 72.5502 174.184 72.5502Z"
              fill="#18004C"/>
        <path opacity="0.37"
              d="M174.184 72.6008C180.966 72.6008 186.463 67.0957 186.463 60.305C186.463 53.5142 180.966 48.0092 174.184 48.0092C167.402 48.0092 161.904 53.5142 161.904 60.305C161.904 67.0957 167.402 72.6008 174.184 72.6008Z"
              fill="#95A1E6"/>
        <g opacity="0.6">
            <path opacity="0.6"
                  d="M161.954 61.1652C162.409 67.5408 167.664 72.6008 174.183 72.6008C175.194 72.6008 176.154 72.449 177.114 72.2466C172.01 68.6034 166.957 64.9096 161.954 61.1652Z"
                  fill="#FCFAF5"/>
            <path opacity="0.6"
                  d="M183.532 68.1986C185.351 66.0734 186.412 63.2904 186.412 60.305C186.412 53.5246 180.904 48.0092 174.133 48.0092C169.736 48.0092 165.896 50.3368 163.723 53.7776C170.292 58.6858 176.861 63.4928 183.532 68.1986Z"
                  fill="#FCFAF5"/>
        </g>
        <path d="M174.184 46.6934C174.826 46.6934 175.346 46.1724 175.346 45.5296C175.346 44.8869 174.826 44.3658 174.184 44.3658C173.542 44.3658 173.021 44.8869 173.021 45.5296C173.021 46.1724 173.542 46.6934 174.184 46.6934Z"
              stroke="#4F6AFF" stroke-width="0.3478" stroke-miterlimit="10"/>
        <path d="M174.184 76.1932C174.826 76.1932 175.346 75.6722 175.346 75.0294C175.346 74.3866 174.826 73.8656 174.184 73.8656C173.542 73.8656 173.021 74.3866 173.021 75.0294C173.021 75.6722 173.542 76.1932 174.184 76.1932Z"
              stroke="#4F6AFF" stroke-width="0.3478" stroke-miterlimit="10"/>
        <path d="M185.428 50.6936C185.882 50.2392 185.882 49.5023 185.428 49.0478C184.975 48.5933 184.239 48.5933 183.785 49.0478C183.331 49.5023 183.331 50.2392 183.785 50.6936C184.239 51.1481 184.975 51.1481 185.428 50.6936Z"
              stroke="#4F6AFF" stroke-width="0.3478" stroke-miterlimit="10"/>
        <path d="M164.601 71.5375C165.055 71.083 165.055 70.3462 164.601 69.8917C164.147 69.4372 163.411 69.4372 162.958 69.8917C162.504 70.3462 162.504 71.083 162.958 71.5375C163.411 71.992 164.147 71.992 164.601 71.5375Z"
              stroke="#4F6AFF" stroke-width="0.3478" stroke-miterlimit="10"/>
        <path d="M188.889 61.4686C189.531 61.4686 190.051 60.9475 190.051 60.3048C190.051 59.662 189.531 59.141 188.889 59.141C188.247 59.141 187.727 59.662 187.727 60.3048C187.727 60.9475 188.247 61.4686 188.889 61.4686Z"
              stroke="#4F6AFF" stroke-width="0.3478" stroke-miterlimit="10"/>
        <path d="M159.428 61.4686C160.07 61.4686 160.59 60.9475 160.59 60.3048C160.59 59.662 160.07 59.141 159.428 59.141C158.786 59.141 158.266 59.662 158.266 60.3048C158.266 60.9475 158.786 61.4686 159.428 61.4686Z"
              stroke="#4F6AFF" stroke-width="0.3478" stroke-miterlimit="10"/>
        <path d="M185.423 71.5398C185.876 71.0853 185.876 70.3485 185.423 69.894C184.969 69.4395 184.233 69.4395 183.779 69.894C183.325 70.3485 183.325 71.0854 183.779 71.5398C184.233 71.9943 184.969 71.9943 185.423 71.5398Z"
              stroke="#4F6AFF" stroke-width="0.3478" stroke-miterlimit="10"/>
        <path d="M164.608 50.6912C165.062 50.2367 165.062 49.4998 164.608 49.0454C164.154 48.5909 163.418 48.5909 162.964 49.0454C162.511 49.4999 162.511 50.2367 162.964 50.6912C163.418 51.1457 164.154 51.1457 164.608 50.6912Z"
              stroke="#4F6AFF" stroke-width="0.3478" stroke-miterlimit="10"/>
        <path d="M146.138 85.0989C146.138 85.0989 175.144 75.2825 202.23 84.6435" stroke="#4F6AFF" stroke-width="0.6955"
              stroke-miterlimit="10" stroke-dasharray="5.56 5.56"/>
        <path d="M149.675 42.848C157.76 40.7228 178.58 36.4724 198.995 42.3926" stroke="#4F6AFF" stroke-width="0.6955"
              stroke-miterlimit="10" stroke-dasharray="5.56 5.56"/>
        <path d="M146.138 92.1323C146.138 92.1323 175.144 82.3159 202.23 91.6769" stroke="#4F6AFF" stroke-width="0.6955"
              stroke-miterlimit="10" stroke-dasharray="5.56 5.56"/>
        <path d="M16.3802 148.98H57.4639V145.994H16.3802V148.98Z" fill="#18004C"/>
        <path d="M40.4611 181.112L56.8844 149.132H16.5083L0.0849609 181.112" stroke="#18004C" stroke-width="0.679"
              stroke-miterlimit="10"/>
        <path d="M50.7192 160.517H10.5957" stroke="#18004C" stroke-width="0.679" stroke-miterlimit="10"/>
        <path d="M43.644 174.23H3.52051" stroke="#18004C" stroke-width="0.679" stroke-miterlimit="10"/>
        <path d="M41.0162 181.82L43.3913 177.165L41.1678 177.215L38.7422 181.921L41.0162 181.82Z" fill="#4F6AFF"/>
        <path d="M1.09529 181.82L3.47035 177.165L1.19635 177.215L-1.17871 181.921L1.09529 181.82Z" fill="#4F6AFF"/>
        <path d="M65.5755 178.936L56.8838 149.132" stroke="#18004C" stroke-width="0.679" stroke-miterlimit="10"/>
        <path d="M25.3011 178.936L16.6094 149.132" stroke="#18004C" stroke-width="0.679" stroke-miterlimit="10"/>
        <path d="M63.403 55.1682C63.403 55.1682 54.7113 68.476 52.3362 66.8062C52.3362 66.8062 48.5463 64.8834 49.9107 57.0404C49.9107 56.2814 49.9107 55.7754 49.9107 55.6236C49.9107 55.6236 49.3043 47.8818 48.0409 46.3132C47.8893 46.1614 47.4851 45.8072 47.5356 45.8072C51.4267 44.8458 52.9427 53.0936 54.0039 57.597C54.0544 57.7994 61.3817 52.0816 61.3817 52.0816C61.3817 52.0816 65.2728 46.971 65.5254 47.2746C65.9297 47.6794 64.4137 50.007 64.4137 50.007C64.4137 50.007 64.5148 50.26 64.818 50.4118C65.1212 50.5636 65.2728 50.7154 65.3738 51.1202C65.4749 51.525 65.8792 51.7274 65.9297 51.9804C65.9297 52.1828 64.2116 54.561 63.403 55.1682Z"
              fill="#FEB38C"/>
        <path d="M61.4824 52.0817C61.4824 52.0817 62.2404 49.8553 62.5942 49.9059C62.8974 49.9565 64.3628 50.6143 64.3123 51.1709C64.2618 51.7275 63.049 51.2721 63.049 51.2721C63.049 51.2721 63.3016 52.5371 62.6447 52.6889C62.0383 52.8407 61.4824 52.0817 61.4824 52.0817Z"
              fill="#FEB38C"/>
        <path d="M63.4023 51.1708C63.4023 51.1708 63.3518 51.7274 63.8066 51.8286C63.8066 51.8286 63.9077 52.4358 64.5141 52.284C64.5141 52.284 64.3625 52.537 64.7162 52.5876C64.7162 52.5876 63.2002 54.2574 63.4023 51.1708Z"
              fill="#F79A88"/>
        <path d="M63.0996 50.0576C63.4028 50.1588 63.706 50.26 64.0092 50.4118C64.1608 50.4624 64.3124 50.513 64.464 50.6648C64.5145 50.7154 64.6156 50.8166 64.6661 50.9178C64.7167 51.019 64.6661 51.1708 64.5651 51.272C64.2619 51.525 63.8576 51.525 63.5544 51.525C63.4533 51.525 63.3523 51.525 63.3523 51.525C63.3523 51.4744 63.3523 51.6262 63.3523 51.6768L63.4028 52.1828L63.3017 51.6768C63.3017 51.5756 63.2512 51.525 63.3017 51.4238C63.4028 51.3732 63.4533 51.3732 63.5544 51.3732C63.8576 51.3732 64.2113 51.3226 64.464 51.1202C64.5145 51.0696 64.5651 50.9684 64.5145 50.9178C64.5145 50.8672 64.4135 50.766 64.3629 50.7154C64.2113 50.6142 64.0597 50.5636 63.9587 50.4624L63.0996 50.0576Z"
              fill="#EC7A65"/>
        <path d="M64.4135 49.9058C64.4135 49.9564 64.4136 50.0576 64.363 50.1082C64.3125 50.1588 64.3125 50.2094 64.2619 50.26C64.2114 50.3106 64.1609 50.3612 64.1104 50.3612C64.0598 50.4118 64.0093 50.4118 63.9082 50.4118C64.0598 50.26 64.2619 50.0576 64.4135 49.9058Z"
              fill="#EC7A65"/>
        <path d="M65.0707 50.766C64.9696 50.9178 64.9191 51.0696 64.7675 51.2214C64.6664 51.3732 64.5148 51.4744 64.3632 51.5756C64.2116 51.6768 64.06 51.778 63.9084 51.8286C63.8073 51.8792 63.7063 51.8792 63.6052 51.8792C63.5041 51.8792 63.4031 51.778 63.3525 51.7274C63.4536 51.8792 63.6557 51.8286 63.8073 51.778C63.9589 51.6768 64.1105 51.5756 64.2116 51.4744C64.6159 51.2214 64.8685 50.9684 65.0707 50.766Z"
              fill="#EC7A65"/>
        <path d="M63.8066 51.8286C63.9077 52.031 63.9582 52.1828 64.1098 52.2334C64.2109 52.284 64.413 52.2334 64.5141 52.1322C64.6657 52.031 64.8173 51.8792 64.9184 51.778C65.07 51.6262 65.2216 51.525 65.3732 51.3732C65.2721 51.525 65.1205 51.6768 64.9689 51.8286C64.8173 51.9804 64.7162 52.1322 64.5646 52.2334C64.413 52.3346 64.2109 52.4358 64.0088 52.3346C63.8572 52.2334 63.8572 51.9804 63.8066 51.8286Z"
              fill="#EC7A65"/>
        <path d="M64.5149 52.1829C64.5655 52.2841 64.616 52.3853 64.6665 52.4865C64.7171 52.5371 64.7171 52.5877 64.7676 52.5877C64.7676 52.5877 64.8182 52.5877 64.8687 52.5877C64.9698 52.5877 65.0708 52.5877 65.1719 52.5371C65.3235 52.5371 65.374 52.5371 65.5256 52.4865C65.4751 52.5877 65.3235 52.6383 65.2224 52.6889C65.1213 52.7395 64.9698 52.7901 64.8687 52.7395C64.8182 52.7395 64.7171 52.7395 64.7171 52.6889C64.6665 52.6383 64.6665 52.5877 64.616 52.5371C64.5149 52.3853 64.4644 52.2841 64.5149 52.1829Z"
              fill="#EC7A65"/>
        <path d="M38.9453 51.3732C38.9453 51.3732 33.7909 50.766 34.3973 50.4624C35.0037 50.1588 39.3496 48.5396 40.1581 48.0336C41.0172 47.5276 41.573 47.6288 41.573 47.6288L47.6876 33.4608C47.7886 32.6512 46.2726 30.6272 45.5652 30.2224C43.5438 29.0586 41.1182 28.9068 38.8442 29.3622C31.4664 30.8802 19.7932 36.1426 15.8516 39.9376C15.8516 39.9376 33.4877 56.7368 39.2485 55.9272"
              fill="#18004C"/>
        <path d="M14.7395 38.7232C18.5295 36.851 22.4711 35.1306 26.4127 33.6126C29.6468 32.3476 32.9315 31.1838 36.2667 30.3742C37.4795 30.0706 38.6923 29.8176 39.9051 29.767C40.2083 29.767 40.2083 29.3116 39.9051 29.3116C37.3784 29.3116 34.8012 30.2224 32.4261 30.9814C28.6361 32.1958 24.8967 33.6632 21.2077 35.2318C18.9337 36.1932 16.7103 37.2558 14.4868 38.3184C14.2847 38.4702 14.4868 38.8244 14.7395 38.7232Z"
              fill="#18004C"/>
        <path d="M39.9555 36.6486C39.9555 36.7498 39.8544 36.851 39.7534 36.851C39.2985 36.851 38.2373 36.7498 38.0857 37.9642C37.9341 39.1786 39.0964 39.887 39.8039 39.9376C40.006 39.9376 40.4608 39.9882 40.6124 40.14C41.0167 40.5954 41.2188 41.6074 41.5726 42.8724C42.28 45.6554 40.1071 46.9204 40.1071 46.9204C40.1071 46.9204 47.3839 50.513 47.2828 46.9204C47.2828 46.9204 46.727 40.3424 46.727 40.2918C47.2828 39.7352 49.5063 39.4822 48.0914 34.7764C46.828 30.4248 43.6444 30.7284 42.8359 30.8802C42.179 30.9814 39.8039 31.1332 39.9555 36.6486Z"
              fill="#FEB38C"/>
        <path d="M45.1104 30.4248C45.1104 30.4248 40.6634 36.2944 39.9054 36.8004C39.8549 36.8004 36.8229 29.6152 45.1104 30.4248Z"
              fill="#18004C"/>
        <path d="M38.5908 38.3185C38.5908 38.3185 39.2983 36.8005 40.2584 38.8245L38.5908 38.3185Z" fill="#EC7A65"/>
        <path d="M44.017 38.82C44.6308 38.8062 45.1172 38.2967 45.1033 37.6821C45.0895 37.0675 44.5807 36.5804 43.9669 36.5943C43.3531 36.6082 42.8667 37.1176 42.8805 37.7323C42.8944 38.3469 43.4032 38.8339 44.017 38.82Z"
              fill="#F79A88"/>
        <path d="M48.5463 37.0534C48.041 36.9522 47.6873 36.5474 47.6367 35.9908C47.6367 35.586 47.8389 35.2318 48.142 35.0294C48.142 35.0294 48.6474 36.2438 48.5463 37.0534Z"
              fill="#F79A88"/>
        <path d="M47.5856 36.4968L45.918 37.3064C45.918 37.3064 46.7265 37.9136 47.1813 37.5594C47.6361 37.2558 47.5856 36.4968 47.5856 36.4968Z"
              fill="white"/>
        <path d="M46.3223 35.2825L46.5749 36.4463L47.1308 36.1933C47.2319 36.1427 47.2318 35.9909 47.1813 35.9403L46.3223 35.2825Z"
              fill="#EC7A65"/>
        <path d="M44.1999 34.8271C44.0483 35.0295 44.1494 34.3211 44.3515 34.1693C44.6042 34.0175 44.9074 34.0175 45.0085 34.2705C45.059 34.2199 44.5537 34.3211 44.1999 34.8271Z"
              fill="#1E274D"/>
        <path d="M47.3327 33.6632C47.5854 33.7138 47.08 33.2584 46.7768 33.2584C46.4736 33.2584 46.2715 33.5114 46.2715 33.7644C46.322 33.7138 46.7768 33.4608 47.3327 33.6632Z"
              fill="#1E274D"/>
        <path d="M45.5175 36.0061C45.621 35.9643 45.6372 35.7623 45.5536 35.555C45.47 35.3477 45.3183 35.2135 45.2148 35.2554C45.1113 35.2972 45.0951 35.4992 45.1787 35.7065C45.2623 35.9139 45.414 36.048 45.5175 36.0061Z"
              fill="#1E274D"/>
        <path d="M47.0167 35.2589C47.1202 35.217 47.1448 35.0361 47.0717 34.8547C46.9986 34.6733 46.8554 34.5601 46.7519 34.602C46.6484 34.6438 46.6237 34.8248 46.6968 35.0062C46.77 35.1876 46.9132 35.3007 47.0167 35.2589Z"
              fill="#1E274D"/>
        <path d="M46.7269 40.2413C46.7269 40.2413 44.655 40.6461 43.5938 40.5449C42.5832 40.4943 47.7881 46.5157 46.7269 40.2413Z"
              fill="#1E274D"/>
        <path d="M44.3516 30.9814C44.4526 32.3982 43.5936 33.8656 42.684 34.8776C41.8249 35.839 40.511 36.5474 39.1972 36.4462C38.894 36.3956 38.9445 36.851 39.1972 36.9016C40.6121 37.0534 42.0776 36.2438 42.9872 35.2318C43.9978 34.1186 44.9074 32.6006 44.8064 31.032C44.8064 30.6778 44.3516 30.6778 44.3516 30.9814Z"
              fill="#18004C"/>
        <path d="M40.6623 42.3664C41.1926 42.3664 41.6224 41.936 41.6224 41.405C41.6224 40.874 41.1926 40.4436 40.6623 40.4436C40.132 40.4436 39.7021 40.874 39.7021 41.405C39.7021 41.936 40.132 42.3664 40.6623 42.3664Z"
              fill="white"/>
        <path d="M40.6623 44.2892C41.1926 44.2892 41.6224 43.8588 41.6224 43.3279C41.6224 42.7969 41.1926 42.3665 40.6623 42.3665C40.132 42.3665 39.7021 42.7969 39.7021 43.3279C39.7021 43.8588 40.132 44.2892 40.6623 44.2892Z"
              fill="white"/>
        <path d="M41.9261 39.381L40.6122 41.2532L39.3994 39.2798L41.9261 39.381Z" fill="#4F6AFF"/>
        <path d="M41.2695 136.027L42.0781 141.745C42.0781 141.745 43.3414 145.54 44.5542 144.072C45.767 142.605 46.9293 141.846 46.9293 141.846L47.3335 135.926L41.2695 136.027Z"
              fill="#F5836B"/>
        <path d="M44.4024 136.229L44.6045 143.971C44.6045 143.971 40.8145 144.528 42.2294 141.998L41.4209 136.634L44.4024 136.229Z"
              fill="#FEB38C"/>
        <path d="M28.2318 136.179L26.4631 141.846C26.4631 141.846 25.0987 143.01 24.6439 143.01C23.7343 142.959 23.2795 141.441 23.2795 141.441L23.1279 136.179H28.2318Z"
              fill="#F5836B"/>
        <path d="M25.6541 134.661L24.3908 144.072C24.3908 144.072 21.8641 144.73 23.2791 142.2L22.9759 134.964L25.6541 134.661Z"
              fill="#FEB38C"/>
        <path d="M47.2829 141.745L52.033 145.59C52.2856 145.793 52.0835 146.096 51.7298 146.096L44.7057 146.147C44.5541 146.147 44.4025 146.096 44.3519 145.945L43.8466 144.831C43.695 144.528 43.3918 144.477 43.3918 144.831L43.1391 145.894C43.1391 146.046 41.4715 145.995 41.4715 145.843C41.3705 144.933 41.5726 141.846 41.7242 140.986C41.7242 140.885 41.8758 140.783 42.0274 140.733C42.179 140.733 42.3306 140.733 42.4317 140.834C42.8865 141.289 44.4025 142.656 45.211 142.403C45.7669 142.2 46.4743 141.897 46.6765 141.694C46.8786 141.644 47.1313 141.644 47.2829 141.745Z"
              fill="#FF3040"/>
        <path d="M23.1782 141.239L20.4494 145.793C20.1462 146.248 20.2978 146.754 20.8537 147.058C21.7128 147.564 22.3697 148.576 22.9255 148.576C23.8857 148.626 25.4017 147.564 26.2607 147.21C26.8671 146.957 27.3219 146.602 27.2209 146.096L26.5639 141.542C26.5639 141.492 26.4629 141.441 26.4123 141.492L25.3511 142.453C24.9974 142.757 24.0878 142.706 23.8857 142.352C23.7341 142.099 23.3298 141.239 23.3298 141.239C23.3298 141.188 23.2287 141.188 23.1782 141.239Z"
              fill="#FF3040"/>
        <path d="M36.5193 65.2883C34.4475 68.9315 33.3863 71.5626 32.224 76.2178C30.8596 81.5815 18.1757 126.919 17.5693 136.685C19.2369 137.09 32.3251 137.039 33.3863 136.988C36.772 127.273 41.32 95.6483 42.7855 89.5257C42.9876 88.5643 44.4531 88.7667 44.352 89.7281C43.5435 96.7109 38.4396 126.211 36.2667 136.988C37.1763 137.444 50.6181 137.343 51.6288 137.191C52.7405 125.199 58.6529 79.7093 49.7591 64.9847C45.6153 64.4281 40.6125 65.1871 36.5193 65.2883Z"
              fill="#4F6AFF"/>
        <path d="M48.7993 65.5919C48.7993 65.5919 52.7409 75.5601 52.7409 88.2607C52.7409 100.961 48.2939 136.786 48.2939 136.786"
              stroke="white" stroke-width="0.314" stroke-miterlimit="10"/>
        <path d="M20.1465 136.584L38.4901 66.1484" stroke="white" stroke-width="0.314" stroke-miterlimit="10"/>
        <path d="M41.0677 66.5027C41.0677 66.5027 40.9666 78.1407 35.7617 77.1793" stroke="white" stroke-width="0.314"
              stroke-miterlimit="10"/>
        <path d="M51.8306 77.736C46.6256 78.6468 47.3331 66.2498 47.3331 66.2498" stroke="white" stroke-width="0.314"
              stroke-miterlimit="10"/>
        <path opacity="0.21"
              d="M49.7594 65.6931L32.8813 79.4563C32.8813 79.4563 32.7802 70.6519 35.7617 65.0353L49.7594 65.6931Z"
              fill="#1E274D"/>
        <path d="M48.748 46.3639C48.6469 46.6675 51.9821 54.9659 51.8305 57.7995C51.6789 60.6331 51.7294 64.7317 51.881 65.1365C51.881 65.1365 47.6868 67.6159 35.5082 65.6931C31.7688 62.4041 35.0534 51.2721 36.3168 47.7807C36.3168 47.7807 38.6918 46.5663 39.753 46.5157C39.753 46.4651 44.2 48.2361 48.748 46.3639Z"
              fill="#18004C"/>
        <path d="M39.7529 46.4147L41.4711 44.1377C41.4711 44.1377 43.5429 45.6051 46.6255 46.6677L46.5749 50.6651C46.5749 50.7663 46.4233 50.8675 46.3223 50.7663C45.3621 50.3109 41.0163 48.3375 39.7529 46.4147Z"
              fill="white"/>
        <path d="M47.03 44.0363C47.03 44.0363 47.5353 45.8579 46.5752 46.6169L47.9396 50.5131C48.0407 50.8167 48.2428 50.8167 48.2933 50.6649C48.4954 49.6529 48.8997 47.5277 48.6471 46.2121L47.03 44.0363Z"
              fill="white"/>
        <path d="M47.3833 51.3733C47.5507 51.3733 47.6865 51.1468 47.6865 50.8673C47.6865 50.5879 47.5507 50.3613 47.3833 50.3613C47.2158 50.3613 47.0801 50.5879 47.0801 50.8673C47.0801 51.1468 47.2158 51.3733 47.3833 51.3733Z"
              fill="white"/>
        <path d="M47.5346 53.5998C47.7021 53.5998 47.8378 53.3732 47.8378 53.0938C47.8378 52.8143 47.7021 52.5878 47.5346 52.5878C47.3672 52.5878 47.2314 52.8143 47.2314 53.0938C47.2314 53.3732 47.3672 53.5998 47.5346 53.5998Z"
              fill="white"/>
        <path d="M47.6362 56.079C47.8037 56.079 47.9394 55.8525 47.9394 55.573C47.9394 55.2936 47.8037 55.067 47.6362 55.067C47.4688 55.067 47.333 55.2936 47.333 55.573C47.333 55.8525 47.4688 56.079 47.6362 56.079Z"
              fill="white"/>
        <path d="M47.6362 58.8621C47.8037 58.8621 47.9394 58.6355 47.9394 58.3561C47.9394 58.0766 47.8037 57.8501 47.6362 57.8501C47.4688 57.8501 47.333 58.0766 47.333 58.3561C47.333 58.6355 47.4688 58.8621 47.6362 58.8621Z"
              fill="white"/>
        <path d="M47.6362 61.5944C47.8037 61.5944 47.9394 61.3678 47.9394 61.0884C47.9394 60.8089 47.8037 60.5824 47.6362 60.5824C47.4688 60.5824 47.333 60.8089 47.333 61.0884C47.333 61.3678 47.4688 61.5944 47.6362 61.5944Z"
              fill="white"/>
        <path d="M47.6362 64.3268C47.8037 64.3268 47.9394 64.1003 47.9394 63.8208C47.9394 63.5414 47.8037 63.3148 47.6362 63.3148C47.4688 63.3148 47.333 63.5414 47.333 63.8208C47.333 64.1003 47.4688 64.3268 47.6362 64.3268Z"
              fill="white"/>
        <path d="M38.3389 91.0944L22.623 81.025L29.1418 70.8544L42.6848 79.5576C43.847 80.3166 44.2008 81.8852 43.4428 83.049L38.3389 91.0944Z"
              fill="#98CCFE"/>
        <path d="M33.7403 83.0488C34.9404 83.0488 35.9132 82.0747 35.9132 80.8731C35.9132 79.6714 34.9404 78.6973 33.7403 78.6973C32.5402 78.6973 31.5674 79.6714 31.5674 80.8731C31.5674 82.0747 32.5402 83.0488 33.7403 83.0488Z"
              fill="white"/>
        <path opacity="0.6"
              d="M32.7794 72.8276C32.7794 72.8276 30.2527 73.9914 32.2235 81.1766C32.3246 81.5814 32.4257 81.9862 32.3246 82.391L31.8698 85.4777C31.8193 85.8319 31.7687 86.2367 32.0214 86.4391C32.3751 86.6921 34.3459 88.5136 34.5986 88.6148C35.1039 88.7666 34.5481 86.3378 34.6491 85.0728C34.6491 84.8198 34.6997 85.8824 34.7502 86.3378L34.8007 87.3498C35.4071 87.0968 35.4071 85.9331 35.4577 85.5283C35.5587 85.0223 35.4577 84.668 35.4071 84.5668C35.1545 84.0102 34.5986 82.8464 34.5481 81.8344C34.4975 81.2272 34.9018 79.0008 35.2555 74.9022L32.7794 72.8276Z"
              fill="#1E274D"/>
        <path d="M32.4766 55.3707C27.777 81.6321 30.809 86.5909 31.1627 86.7933C31.567 87.0463 33.7399 89.0703 33.9926 89.1715C34.5484 89.3739 33.942 86.6921 34.0431 85.2753C34.0431 85.0223 34.0936 86.1861 34.1442 86.6921L34.1947 87.8053C34.8516 87.5017 34.8516 86.2367 34.9527 85.8319C35.1043 85.2753 35.0032 84.8705 34.9022 84.7693C34.599 84.1621 34.0431 82.8971 33.942 81.7839C33.8915 81.1261 38.3384 59.8235 39.0964 56.6863C40.1576 52.4359 38.8438 47.5277 37.3278 47.3759C35.458 47.0723 32.8303 53.1949 32.4766 55.3707Z"
              fill="#FEB38C"/>
        <path d="M51.3315 27.1865H59.9727L62.8026 30.5261V22.5313C62.8026 19.9507 61.2361 17.8761 59.3158 17.8761H51.3315C49.4113 17.8761 47.8447 19.9507 47.8447 22.5313C47.8447 25.0613 49.4113 27.1865 51.3315 27.1865Z"
              fill="#FF3040"/>
        <path d="M55.9303 21.2662H54.4648V24.707H55.9303V21.2662Z" fill="white"/>
        <path d="M53.858 22.3795H52.3926V24.7071H53.858V22.3795Z" fill="white"/>
        <path d="M58.154 20.2543H56.6885V24.7071H58.154V20.2543Z" fill="white"/>
        <path d="M278.154 48.2867C278.154 44.9471 275.476 42.2653 272.14 42.2653C268.805 42.2653 266.127 44.9471 266.127 48.2867C266.127 51.6263 271.837 56.8381 271.837 56.8381C271.837 56.8381 278.154 51.6263 278.154 48.2867Z"
              fill="#4F6AFF"/>
        <path d="M271.837 56.8381C271.837 56.8381 278.154 51.6263 278.154 48.2867C278.154 44.9471 275.475 42.2653 272.14 42.2653"
              fill="#18004C"/>
        <path d="M270.423 54.1056C270.423 54.1056 271.181 47.7806 270.321 48.1854C269.462 48.5902 268.957 49.5516 269.917 49.754C270.877 49.9564 274.768 49.754 274.768 49.754C274.768 49.754 275.122 48.6408 274.465 48.3878C273.505 47.983 273.505 51.6768 273.303 54.308"
              stroke="white" stroke-width="0.3166" stroke-miterlimit="10"/>
        <path d="M274.263 55.4718H269.412C269.058 55.4718 268.755 55.1682 268.755 54.814C268.755 54.4598 269.058 54.1562 269.412 54.1562H274.263C274.617 54.1562 274.92 54.4598 274.92 54.814C274.97 55.1682 274.667 55.4718 274.263 55.4718Z"
              fill="#18293D"/>
        <path d="M271.938 58.5585C270.372 58.5585 269.108 57.2935 269.108 55.7249V55.2189H274.718V55.7249C274.768 57.2935 273.505 58.5585 271.938 58.5585Z"
              fill="#18293D" stroke="#EAEBEC" stroke-width="0.4326" stroke-miterlimit="10"/>
        <path d="M261.326 48.3373H264.055" stroke="white" stroke-width="0.8127" stroke-miterlimit="10"
              stroke-linecap="round"/>
        <path d="M280.428 48.3373H283.157" stroke="white" stroke-width="0.8127" stroke-miterlimit="10"
              stroke-linecap="round"/>
        <path d="M264.51 40.5955L266.43 42.5183" stroke="white" stroke-width="0.8127" stroke-miterlimit="10"
              stroke-linecap="round"/>
        <path d="M278.002 54.1056L279.973 56.079" stroke="white" stroke-width="0.8127" stroke-miterlimit="10"
              stroke-linecap="round"/>
        <path d="M272.241 37.3571V40.1401" stroke="white" stroke-width="0.8127" stroke-miterlimit="10"
              stroke-linecap="round"/>
        <path d="M279.973 40.5955L278.002 42.5183" stroke="white" stroke-width="0.8127" stroke-miterlimit="10"
              stroke-linecap="round"/>
        <path d="M266.43 54.1056L264.51 56.079" stroke="white" stroke-width="0.8127" stroke-miterlimit="10"
              stroke-linecap="round"/>
        <path d="M277.749 75.6612C277.648 74.801 280.427 64.7822 280.831 64.0738C281.893 62.151 286.693 61.7462 288.765 63.0618C292.151 65.187 297.356 74.9022 296.295 77.4322L277.749 75.6612Z"
              fill="#EF001D"/>
        <path d="M287.906 69.9432C287.906 70.0444 288.007 70.1456 288.108 70.1456C288.563 70.1456 289.624 70.0444 289.776 71.2588C289.927 72.4732 288.765 73.1816 288.057 73.2322C287.855 73.2322 287.401 73.2828 287.249 73.4346C286.845 73.89 286.643 74.902 286.289 76.167C285.581 78.95 287.754 80.215 287.754 80.215C287.754 80.215 280.477 83.8076 280.528 80.215C280.528 80.215 281.084 73.637 281.084 73.5864C280.528 73.0298 278.305 72.7768 279.719 68.071C280.983 63.7194 284.217 64.023 285.025 64.1748C285.682 64.276 288.057 64.4278 287.906 69.9432Z"
              fill="#FF9C75"/>
        <path d="M288.108 69.8422C288.108 69.9434 288.209 70.0446 288.31 70.0446C288.765 70.0446 289.826 69.9434 289.978 71.1578C290.129 72.3722 288.967 73.0806 288.26 73.1312C288.057 73.1312 287.603 73.1818 287.451 73.3336C287.047 73.789 286.845 74.801 286.491 76.066C285.783 78.849 287.956 80.114 287.956 80.114C287.956 80.114 280.68 83.7066 280.73 80.114C280.73 80.114 281.286 73.536 281.286 73.4854C280.73 72.9288 278.507 72.6758 279.922 67.97C281.185 63.6184 284.419 63.922 285.228 64.0738C285.885 64.175 288.26 64.3268 288.108 69.8422Z"
              fill="#FF9C75"/>
        <path d="M283.206 63.4665C283.206 63.4665 284.57 69.7409 286.289 70.3987C288.158 71.1071 288.007 68.1217 288.209 70.0951C288.209 70.0951 291.595 60.8353 283.206 63.4665Z"
              fill="#EF001D"/>
        <path d="M289.27 71.6132C289.27 71.6132 288.563 70.0446 287.603 72.1192L289.27 71.6132Z" fill="#E6713E"/>
        <path d="M284.949 71.0975C284.963 70.4828 284.476 69.9734 283.863 69.9595C283.249 69.9456 282.74 70.4327 282.726 71.0473C282.712 71.6619 283.199 72.1714 283.813 72.1852C284.426 72.1991 284.935 71.7121 284.949 71.0975Z"
              fill="#FF8752"/>
        <path d="M279.315 70.3481C279.821 70.2469 280.175 69.8421 280.225 69.2855C280.225 68.8807 280.023 68.5265 279.669 68.3241C279.669 68.3241 279.214 69.5385 279.315 70.3481Z"
              fill="#FF8752"/>
        <path d="M281.792 68.1219L281.286 69.7411L280.73 69.4881L281.792 68.1219Z" fill="#E6713E"/>
        <path d="M283.762 68.223C283.762 68.0712 283.813 67.8182 283.762 67.717C283.712 67.6158 283.408 67.4134 283.358 67.3628C283.105 67.211 282.853 67.2616 282.853 67.464C282.954 67.6158 283.257 67.5652 283.56 67.8182C283.611 67.9194 283.661 68.0712 283.762 68.223Z"
              fill="black"/>
        <path d="M280.427 66.8568C280.275 66.9074 280.578 66.6544 280.78 66.6038C280.983 66.5026 281.235 66.6038 281.336 66.6038C281.64 66.6544 281.741 66.8568 281.538 67.0086C281.286 67.1604 281.033 66.705 280.427 66.8568Z"
              fill="black"/>
        <path d="M282.671 69.0109C282.754 68.8036 282.738 68.6016 282.635 68.5598C282.531 68.5179 282.379 68.6521 282.296 68.8594C282.212 69.0667 282.228 69.2687 282.332 69.3105C282.435 69.3523 282.587 69.2182 282.671 69.0109Z"
              fill="black"/>
        <path d="M281.161 68.2802C281.234 68.0988 281.209 67.9178 281.105 67.876C281.002 67.8342 280.859 67.9473 280.786 68.1287C280.713 68.3101 280.737 68.4911 280.841 68.5329C280.944 68.5747 281.087 68.4616 281.161 68.2802Z"
              fill="black"/>
        <path d="M281.084 73.5865C281.084 73.5865 283.156 73.9913 284.217 73.9407C285.278 73.8395 280.73 76.5213 281.084 73.5865Z"
              fill="black"/>
        <path d="M280.428 69.8423C280.428 69.8423 280.225 70.6519 280.579 70.8037C281.236 71.0567 281.792 70.5507 281.792 70.5507L280.428 69.8423Z"
              fill="#FCFAF5"/>
        <path d="M292.757 179.796C304.73 179.796 314.436 179.23 314.436 178.531C314.436 177.832 304.73 177.266 292.757 177.266C280.784 177.266 271.078 177.832 271.078 178.531C271.078 179.23 280.784 179.796 292.757 179.796Z"
              fill="#E5F1FF"/>
        <path d="M282.246 169.625L281.488 174.989C281.488 174.989 280.275 178.531 279.163 177.165C278.051 175.799 276.94 175.04 276.94 175.04L276.586 169.474L282.246 169.625Z"
              fill="#FF7B4D"/>
        <path d="M279.315 169.828L279.113 177.114C279.113 177.114 282.651 177.671 281.337 175.242L282.095 170.182L279.315 169.828Z"
              fill="#FF8752"/>
        <path d="M300.135 169.17L301.802 174.533C301.802 174.533 303.066 175.647 303.52 175.596C304.329 175.545 304.784 174.129 304.784 174.129L304.935 169.17H300.135Z"
              fill="#FF7B4D"/>
        <path d="M302.561 167.753L303.723 176.608C303.723 176.608 306.098 177.215 304.784 174.837L305.087 168.006L302.561 167.753Z"
              fill="#FF8752"/>
        <path d="M276.536 175.039L272.038 178.683C271.786 178.834 271.988 179.138 272.291 179.138L278.911 179.189C279.062 179.189 279.214 179.138 279.265 178.986L279.77 177.974C279.921 177.671 280.225 177.671 280.174 177.974L280.427 178.986C280.427 179.138 281.993 179.087 281.993 178.936C282.094 178.075 281.892 175.191 281.741 174.382C281.741 174.28 281.589 174.179 281.437 174.129C281.286 174.129 281.134 174.129 281.084 174.23C280.629 174.685 279.214 175.95 278.456 175.697C277.951 175.545 277.294 175.191 277.092 175.039C276.94 174.888 276.687 174.888 276.536 175.039Z"
              fill="#4F6AFF"/>
        <path d="M304.885 173.977L307.412 178.227C307.664 178.632 307.513 179.138 307.058 179.442C306.249 179.897 305.592 180.858 305.087 180.858C304.177 180.858 302.762 179.948 301.954 179.593C301.398 179.34 300.994 178.986 301.044 178.531L301.701 174.23C301.701 174.179 301.802 174.179 301.853 174.179L302.813 175.09C303.116 175.394 304.026 175.343 304.228 174.989C304.38 174.736 304.733 173.926 304.733 173.926C304.784 173.926 304.834 173.926 304.885 173.977Z"
              fill="#4F6AFF"/>
        <path d="M291.342 98.6335C293.414 102.277 294.475 104.959 295.688 109.563C297.052 114.927 304.734 160.315 305.34 170.081C303.672 170.485 301.095 170.283 300.034 170.233C296.648 160.467 286.542 128.994 285.127 122.82C284.924 121.859 283.459 122.061 283.56 123.023C284.369 130.056 283.105 158.544 282.448 170.384C281.539 170.84 277.344 170.739 276.283 170.637C275.171 158.595 269.259 113.055 278.203 98.2793C282.246 97.8239 287.198 98.5323 291.342 98.6335Z"
              fill="#1B1B25"/>
        <path d="M278.709 99.9491C278.709 99.9491 275.07 108.956 275.07 121.656C275.07 134.357 277.445 166.64 277.445 166.64"
              stroke="white" stroke-width="0.3147" stroke-miterlimit="10"/>
        <path d="M302.359 166.488L289.321 99.5444" stroke="white" stroke-width="0.3147" stroke-miterlimit="10"/>
        <path d="M286.794 99.8986C286.794 99.8986 286.895 111.537 292.15 110.626" stroke="white" stroke-width="0.3147"
              stroke-miterlimit="10"/>
        <path opacity="0.21"
              d="M278.203 100.202L294.98 112.852C294.98 112.852 295.688 106.021 292.706 100.405L278.203 100.202Z"
              fill="black"/>
        <path d="M275.98 111.182C281.185 112.093 280.377 100.506 280.377 100.506" stroke="white" stroke-width="0.3147"
              stroke-miterlimit="10"/>
        <path d="M282.6 166.792L275.778 166.64" stroke="white" stroke-width="0.3147" stroke-miterlimit="10"/>
        <path d="M305.037 166.792L298.872 166.64" stroke="white" stroke-width="0.3147" stroke-miterlimit="10"/>
        <path d="M260.062 92.005C260.062 92.005 275.677 102.429 277.446 99.7974C277.446 99.7974 279.467 96.812 275.121 89.3738C274.818 88.6148 274.616 88.0582 274.616 87.957C274.616 87.957 279.265 81.6827 279.972 79.6081C280.023 79.3551 280.326 78.8997 280.276 78.8997C275.98 79.4057 275.93 89.4244 271.786 93.0676C271.634 93.2194 261.528 88.7666 261.528 88.7666C261.528 88.7666 255.615 85.0222 255.464 85.427C255.211 86.0342 257.637 87.7546 257.637 87.7546C257.637 87.7546 257.637 88.0583 257.384 88.3113C257.131 88.5643 257.03 88.8172 257.081 89.2726C257.131 89.728 256.828 90.0822 256.828 90.3352C256.879 90.487 259.001 91.7014 260.062 92.005Z"
              fill="#FF9C75"/>
        <path d="M261.376 88.6655C261.376 88.6655 259.708 86.6921 259.405 86.8945C259.102 87.0969 257.889 88.2607 258.142 88.8173C258.394 89.3739 259.456 88.4125 259.456 88.4125C259.456 88.4125 259.708 89.7787 260.416 89.6775C261.073 89.6775 261.376 88.6655 261.376 88.6655Z"
              fill="#FF9C75"/>
        <path d="M259.052 88.5137C259.052 88.5137 259.305 89.0703 258.85 89.3233C258.85 89.3233 258.951 89.9811 258.344 90.0317C258.344 90.0317 258.597 90.2341 258.294 90.4365C258.294 90.4365 260.467 91.5497 259.052 88.5137Z"
              fill="#FF8752"/>
        <path d="M258.95 87.2993C258.748 87.6029 258.546 87.9065 258.293 88.1595C258.192 88.3113 258.041 88.4125 257.99 88.5643C257.889 88.7161 257.94 88.7667 257.99 88.8173C258.243 88.9185 258.597 88.8173 258.95 88.7161C259.051 88.7161 259.102 88.6149 259.304 88.6655C259.405 88.7161 259.405 88.8173 259.405 88.8679V89.0197L259.456 89.5763L259.355 89.0703C259.355 88.9691 259.355 88.8679 259.254 88.8173C259.152 88.8173 259.102 88.8679 259.001 88.8679C258.698 88.9691 258.293 89.1209 257.94 88.9691C257.839 88.9185 257.788 88.8679 257.788 88.7667C257.788 88.6655 257.839 88.5643 257.889 88.5137C257.99 88.3619 258.142 88.2607 258.243 88.1089L258.95 87.2993Z"
              fill="#E6713E"/>
        <path d="M257.536 87.603C257.637 87.603 257.688 87.603 257.738 87.603C257.789 87.603 257.89 87.6536 257.94 87.6536C257.991 87.7042 258.041 87.7042 258.092 87.7548C258.143 87.8054 258.193 87.856 258.244 87.9066C258.041 87.856 257.789 87.7548 257.536 87.603Z"
              fill="#E6713E"/>
        <path d="M257.182 88.7162C257.384 88.7668 257.535 88.8174 257.738 88.868C257.889 88.9186 258.091 88.9692 258.243 89.0198C258.394 89.0704 258.597 89.121 258.748 89.1716C258.849 89.1716 258.9 89.2222 259.001 89.1716C259.102 89.1716 259.152 89.121 259.203 89.0704C259.152 89.2728 258.9 89.3234 258.748 89.2728C258.546 89.2222 258.394 89.1716 258.192 89.121C257.839 89.0704 257.535 88.9186 257.182 88.7162Z"
              fill="#E6713E"/>
        <path d="M258.9 89.3234C259.001 89.5258 259.052 89.7788 258.9 90.0318C258.799 90.133 258.648 90.2341 258.547 90.2341C258.395 90.2341 258.294 90.2341 258.193 90.1835C257.991 90.0823 257.789 90.0317 257.586 89.8799C257.384 89.7787 257.233 89.627 257.081 89.4752C257.283 89.5764 257.435 89.6776 257.637 89.7788C257.839 89.88 258.041 89.9812 258.243 90.0318C258.445 90.0824 258.698 90.0823 258.85 89.9305C258.951 89.7787 258.951 89.5258 258.9 89.3234Z"
              fill="#E6713E"/>
        <path d="M258.344 89.9304C258.445 90.0316 258.496 90.1834 258.496 90.3352C258.496 90.3858 258.496 90.487 258.496 90.5882C258.445 90.6894 258.344 90.74 258.294 90.7906C258.142 90.8918 257.99 90.8412 257.839 90.8412C257.788 90.8412 257.687 90.8412 257.637 90.7906C257.536 90.74 257.485 90.6894 257.435 90.6388C257.536 90.6894 257.687 90.6894 257.788 90.6894C257.94 90.6894 258.041 90.6894 258.193 90.6388C258.243 90.5882 258.294 90.5882 258.344 90.5376C258.395 90.487 258.395 90.4364 258.395 90.3352C258.395 90.1834 258.395 90.0822 258.344 89.9304Z"
              fill="#E6713E"/>
        <path d="M280.326 78.1912C280.326 78.1912 278.204 78.4947 276.789 81.2778C275.627 83.5042 271.331 92.6628 271.331 92.6628L262.791 88.969L262.033 94.3326C262.033 94.3326 275.222 102.277 277.496 100.506C279.72 98.7854 281.438 81.0248 280.326 78.1912Z"
              fill="white"/>
        <path d="M280.73 78.0394C280.831 78.343 275.879 88.2606 275.98 91.0942C276.132 93.9278 278.052 98.7348 277.9 99.1902C277.9 99.1902 280.124 100.911 292.302 99.0384C296.042 95.7494 292.757 84.6174 291.494 81.0754C291.494 81.0754 288.159 80.62 286.794 78.8996C286.794 78.849 281.387 83.0994 280.73 78.0394Z"
              fill="white"/>
        <g opacity="0.37">
            <path opacity="0.37"
                  d="M292.455 84.0608C293.819 88.8172 295.284 96.4578 292.303 99.0384C284.622 100.253 280.882 99.9998 279.215 99.6456C283.712 94.535 288.21 89.3738 292.455 84.0608Z"
                  fill="#95A1E6"/>
        </g>
        <path d="M282.701 100.961L275.323 91.9543L267.49 92.0049L273.504 100.303L277.041 100.809C277.243 100.86 282.701 100.961 282.701 100.961Z"
              fill="#4F6AFF"/>
        <path d="M278.456 95.7999V97.1155L280.225 97.7733L278.456 95.7999Z" fill="#020F2B"/>
        <path d="M286.036 102.783C279.922 101.467 276.182 100.05 275.475 99.7973C275.07 99.6455 273.908 99.1395 273.908 98.9371C273.908 98.5323 276.233 99.5949 276.182 99.4937C276.081 99.3925 273.302 98.4817 273.302 98.1275C273.302 97.6215 276.384 98.7347 276.435 98.7347C277.243 98.9877 273.453 97.8239 273.352 97.4697C273.251 97.1155 275.02 97.5709 275.121 97.5709C275.121 97.5709 276.586 98.0263 276.687 97.9251C276.738 97.8239 273.757 96.0529 274.06 95.8505C274.363 95.6481 276.637 96.7107 277.193 96.9131C277.749 97.1155 278.557 97.2167 278.759 97.0649C278.911 96.9637 278.759 96.1035 278.406 95.7493C278.406 95.7493 279.77 96.3565 280.376 97.0649C280.73 97.4191 281.033 97.9757 281.033 97.9757L286.137 98.9877L286.036 102.783Z"
              fill="#FF9C75"/>
        <path d="M288.968 84.7185C288.968 84.7185 288.26 80.0127 290.635 80.4175C294.678 81.0753 299.327 90.3351 297.558 102.682C297.002 106.679 280.781 102.783 280.781 102.783L281.842 96.9131L290.332 98.3299L288.968 84.7185Z"
              fill="white"/>
        <path d="M316.407 83.302C317.216 83.302 317.872 82.645 317.872 81.8346C317.872 81.0242 317.216 80.3672 316.407 80.3672C315.598 80.3672 314.941 81.0242 314.941 81.8346C314.941 82.645 315.598 83.302 316.407 83.302Z"
              fill="#FF3040"/>
        <path d="M320.045 78.3938C321.636 78.3938 322.926 77.1025 322.926 75.5096C322.926 73.9167 321.636 72.6254 320.045 72.6254C318.455 72.6254 317.165 73.9167 317.165 75.5096C317.165 77.1025 318.455 78.3938 320.045 78.3938Z"
              fill="#FF3040"/>
        <path d="M317.721 77.2298L316.155 76.6733C316.003 76.6227 316.003 76.4203 316.155 76.3697L319.591 75.307C319.743 75.2564 319.844 75.4082 319.793 75.5094L318.631 78.9503C318.58 79.1021 318.378 79.1021 318.328 78.9503L317.822 77.331C317.772 77.2804 317.772 77.2804 317.721 77.2298Z"
              fill="#1E274D"/>
        <path d="M305.997 89.3741C305.795 89.4247 308.069 92.6631 311 94.3835C311 94.3835 324.391 106.932 326.867 106.021C329.293 105.111 340.36 80.9745 334.296 79.9119C334.296 79.9119 332.729 78.7481 331.617 80.2155C330.506 81.6323 327.221 83.4539 322.016 95.3955C322.016 95.3955 314.537 91.4993 313.678 91.0945C313.678 91.0945 311.96 86.9453 311.657 87.6537C311.353 88.3115 312.061 90.1331 312.061 90.1331C312.061 90.1331 307.766 86.8441 307.159 87.1477C306.553 87.3501 305.997 89.3741 305.997 89.3741Z"
              fill="#FEB38C"/>
        <path d="M324.391 91.0438C328.029 84.0104 330.758 81.3286 331.617 80.1648C332.729 78.748 334.295 79.8612 334.295 79.8612C338.338 80.5696 334.699 91.651 331.162 99.1397C329.04 96.3567 326.766 93.6243 324.391 91.0438Z"
              fill="#F5836B"/>
        <path d="M327.322 81.5816C327.322 81.5816 329.646 75.0036 334.245 77.736C338.844 80.519 335.559 94.0292 333.032 96.8122L322.875 91.2462L327.322 81.5816Z"
              fill="#4F6AFF"/>
        <path d="M326.361 83.8079C327.119 83.1501 328.079 82.1887 329.04 82.4417C329.494 82.5429 329.899 82.7453 330.151 83.0995C330.707 83.7573 330.606 84.8199 330.202 85.5789C329.798 86.3379 329.141 86.9957 328.585 87.6535C327.372 89.1715 326.665 91.0437 326.563 92.9665"
              stroke="#FBEFDF" stroke-width="0.2024" stroke-miterlimit="10"/>
        <path d="M332.931 96.711C334.599 96.4074 337.277 85.8826 336.266 84.0104C336.266 84.0104 331.213 81.025 330.91 81.3286C327.625 84.7694 332.931 96.711 332.931 96.711Z"
              fill="#3054F2"/>
        <path d="M348.647 179.695C362.853 179.695 374.369 179.038 374.369 178.228C374.369 177.417 362.853 176.76 348.647 176.76C334.442 176.76 322.926 177.417 322.926 178.228C322.926 179.038 334.442 179.695 348.647 179.695Z"
              fill="#E5F1FF"/>
        <path d="M326.918 173.926L327.019 169.018L331.718 169.372L331.617 174.078L329.394 177.924L325.452 174.837L326.918 173.926Z"
              fill="#FEB38C"/>
        <path d="M327.372 169.119L331.01 176.861C331.01 176.861 330.303 175.647 331.718 174.382V169.17H327.372V169.119Z"
              fill="#F5836B"/>
        <path d="M326.159 173.572C326.159 173.572 327.423 174.989 328.989 176.203C329.949 176.912 331.364 173.825 331.819 173.471C331.92 173.37 332.021 173.471 332.072 173.623L332.627 178.683H318.68C318.529 178.683 318.327 178.531 318.377 178.278C319.085 174.483 326.159 173.572 326.159 173.572Z"
              fill="#18004C"/>
        <path d="M324.491 177.772C324.491 177.772 323.935 175.192 322.116 174.686C322.116 174.686 319.236 175.647 318.528 177.823H332.476"
              stroke="white" stroke-width="0.4048" stroke-miterlimit="10"/>
        <path d="M332.172 174.635L329.292 177.823" stroke="white" stroke-width="0.4048" stroke-miterlimit="10"/>
        <path d="M349.304 174.534L347.889 169.828L352.942 169.625L354.054 174.635L352.133 177.924L348.192 174.837L349.304 174.534Z"
              fill="#FEB38C"/>
        <path d="M348.95 169.828L353.144 175.647C353.144 175.647 353.094 175.849 354.509 174.534L352.892 169.625L348.95 169.828Z"
              fill="#F5836B"/>
        <path d="M348.646 174.179C348.646 174.179 349.91 175.596 351.476 176.811C352.437 177.519 353.851 174.432 354.306 174.078C354.407 173.977 354.508 174.078 354.559 174.23L355.115 179.29H341.168C341.016 179.29 340.814 179.138 340.864 178.885C341.572 175.141 348.646 174.179 348.646 174.179Z"
              fill="#18004C"/>
        <path d="M346.929 178.381C346.929 178.381 346.373 175.8 344.554 175.294C344.554 175.294 341.673 176.255 340.966 178.431H354.913"
              stroke="white" stroke-width="0.4048" stroke-miterlimit="10"/>
        <path d="M354.66 175.242L351.729 178.43" stroke="white" stroke-width="0.4048" stroke-miterlimit="10"/>
        <path d="M326.917 112.852C326.917 112.852 325.098 134.357 324.946 140.328C324.795 146.248 326.311 169.474 326.311 169.474H332.324C332.324 169.474 338.691 128.437 345.918 114.117L326.917 112.852Z"
              fill="#0A0A0A"/>
        <path d="M329.394 165.78L330.303 138.557L334.548 122.618" stroke="white" stroke-width="0.3264"
              stroke-miterlimit="10"/>
        <path d="M333.031 169.625L326.108 169.474L325.704 165.527H333.739L333.031 169.625Z" fill="#4F6AFF"/>
        <path d="M326.867 112.852C326.867 112.852 331.011 130.765 335.256 143.465C338.641 153.737 347.687 169.929 347.687 169.929L353.7 169.676L347.283 143.819C346.878 142.301 346.626 140.733 346.575 139.164C346.221 133.193 347.434 121.151 347.94 113.459L326.867 112.852Z"
              fill="#18004C"/>
        <path d="M350.466 165.932C350.618 165.527 342.179 140.986 342.179 137.849C342.179 134.711 342.33 123.934 342.33 123.934"
              stroke="white" stroke-width="0.3264" stroke-miterlimit="10"/>
        <path d="M354.408 169.625L347.687 169.929L345.413 166.185L353.852 165.78L354.408 169.625Z" fill="#4F6AFF"/>
        <path d="M343.138 75.4588C343.138 75.4588 352.538 76.4202 353.094 84.2126C353.7 92.005 349.758 124.237 349.758 124.237L324.188 122.618L326.614 86.0342C326.715 84.0608 327.322 82.138 328.383 80.4682C329.343 78.9502 330.505 77.1792 331.162 77.1286L341.673 74.3962L343.138 75.4588Z"
              fill="#4F6AFF"/>
        <path d="M345.261 76.319C351.527 77.2804 352.791 80.3164 353.044 84.2126C353.65 92.005 349.708 123.984 349.708 123.984L324.492 122.618"
              fill="#3054F2"/>
        <path d="M340.663 76.9768C340.057 78.9502 339.248 80.9236 338.339 82.7958C337.075 85.3258 335.357 87.8558 332.679 88.716C331.517 89.0702 330.304 89.1208 329.142 89.4244C327.979 89.728 326.767 90.3858 326.362 91.499"
              stroke="#FBEFDF" stroke-width="0.2024" stroke-miterlimit="10"/>
        <path d="M352.589 108.905C350.163 108.602 347.283 108.501 345.868 110.525C344.756 112.093 345.161 114.269 344.251 115.989C343.089 118.216 340.309 118.772 338.086 119.987C334.902 121.707 332.729 125.148 332.527 128.741"
              stroke="#FBEFDF" stroke-width="0.2024" stroke-miterlimit="10"/>
        <path d="M325.755 122.061C329.748 120.543 333.79 117.963 335.205 113.915C335.306 113.662 335.357 113.409 335.306 113.156C335.256 112.903 335.003 112.751 334.801 112.599C333.487 111.688 331.819 111.486 330.556 110.525C330.051 110.12 329.647 109.664 329.141 109.26C327.474 107.944 324.896 107.995 323.279 109.361"
              stroke="#FBEFDF" stroke-width="0.2024" stroke-miterlimit="10"/>
        <path d="M325.756 93.4724C327.929 93.7254 329.95 95.1928 330.86 97.1662C332.325 100.354 331.062 104.402 332.831 107.489C334.549 110.423 339.097 111.182 341.623 108.855C342.634 107.893 343.341 106.578 344.605 105.92C346.828 104.706 350.163 106.021 351.831 104.098"
              stroke="#FBEFDF" stroke-width="0.2024" stroke-miterlimit="10"/>
        <path d="M340.158 68.4255L342.886 75.7625L340.865 76.7745C337.732 77.9383 334.902 77.1793 334.447 75.9143L334.852 71.5627L339.248 67.5653C339.248 67.5653 339.905 68.0713 340.006 68.2231C340.107 68.3749 340.158 68.4255 340.158 68.4255Z"
              fill="#FEB38C"/>
        <path d="M339.298 67.5653L334.902 71.5627L334.75 73.1313C334.75 73.1313 338.439 73.9915 339.803 68.1725"
              fill="#F5836B"/>
        <path d="M331.566 104.908L322.976 89.3233C322.521 88.4631 321.712 87.9065 320.803 87.7041L301.347 86.3885C300.993 86.3379 300.741 86.6921 300.943 86.9957L309.18 101.771C309.635 102.581 310.342 103.137 311.252 103.34L331.162 105.515C331.465 105.617 331.768 105.212 331.566 104.908Z"
              fill="#E5F1FF"/>
        <path d="M330.91 106.021L323.127 91.0943C322.673 90.2341 321.359 89.4751 320.449 89.2727L299.832 87.9571C299.478 87.9065 299.225 88.2607 299.427 88.5643L307.664 103.34C308.119 104.149 308.827 104.706 309.736 104.908L330.455 106.578C330.809 106.73 331.061 106.325 330.91 106.021Z"
              fill="#18004C"/>
        <path d="M326.261 95.2437L322.319 96.6605L327.575 97.6725L326.261 95.2437Z" fill="#000F30"/>
        <path d="M327.019 102.783L308.574 101.771L309.585 103.694L328.282 104.857L327.019 102.783Z" fill="#FCFAF5"/>
        <path d="M326.412 101.315C327.069 101.72 334.801 108.399 341.016 111.435C342.734 112.296 344.958 110.322 345.564 108.551L351.325 93.3713L341.976 88.6149C341.926 88.7161 340.309 98.1277 338.944 101.417C338.439 102.58 338.742 102.429 337.681 102.024L329.242 97.7229C329.242 97.7229 328.534 97.0651 328.282 96.6097C327.776 95.7495 326.058 94.7881 326.058 94.7881L327.069 96.6603C327.271 96.9639 327.018 97.0651 326.412 96.7615L322.218 94.9905C322.218 94.9905 321.258 94.7881 321.763 95.1929C322.268 95.5977 323.936 96.6097 323.986 96.6603C325.048 97.2169 321.207 95.4459 321.258 95.8001C321.258 96.1543 323.481 97.4193 323.431 97.4699C323.38 97.5205 321.055 96.4073 321.005 96.7615C321.005 97.1157 323.077 98.1277 323.178 98.1277C323.329 98.1277 321.51 97.1663 321.46 97.3687C321.46 97.5205 326.058 101.113 326.412 101.315Z"
              fill="#FEB38C"/>
        <path d="M340.662 95.1423C341.37 91.8533 341.925 88.7161 341.976 88.6655L351.325 93.4219L347.686 103.036C345.412 100.354 343.088 97.7229 340.662 95.1423Z"
              fill="#F5836B"/>
        <path d="M341.724 109.108C342.583 108.551 344.654 107.894 345.412 108.956C344.654 110.626 342.583 112.245 341.016 111.486C340.763 111.385 340.511 111.233 340.309 111.132C340.511 110.322 340.915 109.614 341.724 109.108Z"
              fill="#F5836B"/>
        <path d="M342.886 81.8345C342.886 81.8345 343.947 74.8517 348.95 76.7239C353.953 78.5961 353.852 99.4939 351.881 102.732L337.529 95.8001L342.886 81.8345Z"
              fill="#4F6AFF"/>
        <path d="M344.452 76.8757C343.997 80.7719 344.503 84.8705 346.575 88.2101C348.646 91.5497 352.487 93.8773 356.378 93.4725"
              stroke="#FBEFDF" stroke-width="0.2024" stroke-miterlimit="10"/>
        <path d="M341.673 86.5403C342.582 86.9957 343.34 87.6029 344.048 88.3113C344.301 88.5643 344.503 88.8679 344.604 89.2221C344.856 90.2847 343.543 91.0943 343.34 92.2075C343.189 92.9665 343.644 93.6749 344.149 94.2315C344.705 94.7881 345.311 95.1929 345.817 95.7495C347.08 97.2169 346.979 99.6963 345.564 101.062"
              stroke="#FBEFDF" stroke-width="0.2024" stroke-miterlimit="10"/>
        <path d="M352.992 97.7229C352.386 97.2675 351.476 97.2169 350.87 97.6723C349.758 98.4313 349.859 100.05 349.354 101.315"
              stroke="#FBEFDF" stroke-width="0.2024" stroke-miterlimit="10"/>
        <path d="M331.567 60.8355C331.466 62.2523 332.679 61.6957 332.679 61.6957C335.711 63.6691 339.602 67.0593 339.602 67.0593C339.602 67.0593 341.017 66.8063 341.017 66.4521C341.067 63.7197 340.916 60.4307 340.916 60.4307C340.916 60.4307 341.775 59.8235 341.674 58.8621C341.674 58.8621 341.37 57.6983 340.41 57.9007C340.41 57.9007 340.612 57.1923 340.107 56.8381C339.602 56.4839 339.147 56.9393 339.147 56.9393C339.147 56.9393 339.096 55.6237 337.732 55.3201C336.368 55.0165 335.812 56.2815 335.812 56.2815C335.812 56.2815 335.559 55.5731 335.155 55.6237C334.75 55.6743 334.599 56.3321 334.599 56.3321C334.599 56.3321 334.498 55.2695 333.285 55.4213C332.072 55.5731 331.971 57.0405 331.971 57.0405C331.971 57.0405 331.921 56.5851 331.365 56.6863C330.607 56.7875 330.202 57.6983 330.91 58.5585C330.91 58.5585 330.354 58.9127 330.405 59.7223C330.455 60.4307 331.567 60.8355 331.567 60.8355Z"
              fill="#18004C"/>
        <path d="M339.703 66.0979C339.753 66.2497 339.905 66.3003 340.056 66.1991C340.41 65.8449 341.118 65.3895 341.37 66.7557C341.724 68.6785 339.753 68.3243 339.602 68.5773C339.298 69.0833 338.237 70.8543 336.721 71.5121C335.812 71.9169 334.397 71.9675 333.386 71.0061C332.375 70.0447 331.819 71.1579 332.224 60.7343C332.224 60.7343 332.476 61.5945 333.487 61.3921C334.194 61.2403 334.75 60.6837 335.508 60.4307C336.115 60.2789 337.833 59.8235 338.591 61.9993C338.844 62.9607 339.399 65.2377 339.703 66.0979Z"
              fill="#FEB38C"/>
        <path d="M332.324 67.7677C332.324 67.7677 332.931 68.0713 334.447 67.9195C334.447 67.9195 333.638 69.0327 333.032 68.7797C332.476 68.5773 332.324 67.7677 332.324 67.7677Z"
              fill="white"/>
        <path d="M341.067 66.6039L340.006 67.4135C340.006 67.3629 340.41 65.4401 341.067 66.6039Z" fill="#F5836B"/>
        <path d="M333.79 65.9462C333.902 65.9462 333.992 65.765 333.992 65.5414C333.992 65.3178 333.902 65.1366 333.79 65.1366C333.678 65.1366 333.588 65.3178 333.588 65.5414C333.588 65.765 333.678 65.9462 333.79 65.9462Z"
              fill="#000F30"/>
        <path d="M332.476 65.7437C332.587 65.7437 332.678 65.5625 332.678 65.3389C332.678 65.1153 332.587 64.9341 332.476 64.9341C332.364 64.9341 332.273 65.1153 332.273 65.3389C332.273 65.5625 332.364 65.7437 332.476 65.7437Z"
              fill="#000F30"/>
        <path d="M335.255 63.7198C335.559 63.9222 335.104 62.9607 334.7 62.8595C334.295 62.7583 333.891 62.9608 333.79 63.315C333.79 63.3656 334.548 63.2644 335.255 63.7198Z"
              fill="#000F30"/>
        <path d="M332.173 63.6185C332.577 63.5679 332.931 63.6185 332.931 63.6185C332.88 63.2643 332.577 63.062 332.173 63.0114"
              fill="#000F30"/>
        <path d="M332.88 65.2882L332.273 67.0592C332.273 67.1098 332.273 67.1098 332.324 67.1098L333.031 67.1604C333.031 67.1604 333.082 67.1604 333.082 67.1098L332.981 65.2882C332.93 65.2882 332.88 65.2882 332.88 65.2882Z"
              fill="#F5836B"/>
    </g>
    <defs>
        <clipPath id="clip0_705_602">
            <rect width="360" height="178" fill="white"/>
        </clipPath>
    </defs>
</svg>
