<svg width="339" height="224" viewBox="0 0 339 224" fill="none" xmlns="http://www.w3.org/2000/svg">
    <g opacity="0.28">
        <g opacity="0.28">
            <g opacity="0.28">
                <g opacity="0.28">
                    <path opacity="0.28"
                          d="M107.674 151.462C105.161 156.35 102.519 161.175 99.8762 166C96.847 171.445 93.7527 176.889 90.5295 182.271C95.0422 193.84 98.6518 205.78 101.358 217.906L131.781 217.844C131.716 217.844 122.434 185.612 107.674 151.462Z"
                          fill="#4F6AFF"/>
                    <path opacity="0.28"
                          d="M86.8562 173.487C87.823 175.652 88.7248 177.817 89.6278 180.044C95.5575 170.084 101.164 159.937 106.515 149.668C106.579 149.545 106.708 149.42 106.773 149.359C105.935 147.503 105.161 145.647 104.259 143.791C98.1352 153.441 92.3994 163.34 86.985 173.424C86.9212 173.363 86.9213 173.424 86.8562 173.487Z"
                          fill="#4F6AFF"/>
                    <path opacity="0.28"
                          d="M52.5021 185.118C55.5317 190.437 58.6247 195.696 61.0749 201.326C63.2011 206.213 65.1348 211.534 65.071 216.916C68.4217 212.462 71.6448 207.946 74.7391 203.368C79.5081 196.377 84.0207 189.323 88.3382 182.085C82.0221 166 73.9011 150.596 64.2968 136.058C58.4959 127.334 52.1153 118.983 45.2188 111.002C45.1543 111.002 45.1543 111.002 45.0899 111.002C40.4492 111.498 35.8085 112.054 31.2322 112.796C27.6229 113.354 24.0134 114.033 20.4039 114.714C21.3708 117.808 22.7243 120.653 24.5291 123.19C36.9687 140.636 19.8884 134.14 10.1557 138.78C9.57566 139.089 8.93116 139.461 8.35107 139.893C15.6344 142.677 21.6931 147.38 27.2362 152.576C37.3554 162.227 45.67 173.177 52.5021 185.118Z"
                          fill="#4F6AFF"/>
                    <path opacity="0.28"
                          d="M92.7221 194.088C91.6252 190.809 90.4657 187.592 89.2413 184.313C82.216 195.821 74.7391 207.141 66.6182 217.967L99.3596 217.906C97.5561 209.864 95.3636 201.945 92.7221 194.088Z"
                          fill="#4F6AFF"/>
                    <path opacity="0.28"
                          d="M43.7364 109.332C36.9043 101.599 29.5565 94.2363 21.6931 87.3076C18.3415 95.0408 17.7615 104.63 19.8884 112.919C27.7519 111.373 35.7441 110.198 43.7364 109.332Z"
                          fill="#4F6AFF"/>
                    <path opacity="0.28"
                          d="M36.6463 73.5114C36.3242 76.1718 38.7733 78.9558 41.7383 78.5841C44.3808 78.2136 46.1211 75.3062 45.4121 72.8927C45.4121 72.8316 45.3476 72.7069 45.3476 72.6457C42.1894 72.2741 39.289 72.5223 36.6463 73.2644C36.6463 73.3255 36.6463 73.4502 36.6463 73.5114Z"
                          fill="#4F6AFF"/>
                    <path opacity="0.28"
                          d="M58.1095 199.47C55.5955 194.273 52.631 189.262 49.7306 184.19C46.379 178.312 42.5118 172.745 38.2578 167.424C34.0683 162.165 29.4276 157.278 24.4646 152.699C19.5017 148.184 14.023 144.038 7.57766 141.626C7.25534 141.502 7.06198 141.254 6.93315 140.945C0.100939 147.07 -5.69992 161.856 10.0914 174.6C28.2674 189.325 24.4646 191.118 21.5641 202.131C18.6637 213.142 23.24 217.968 23.24 217.968L63.0086 217.906C63.4588 211.595 60.8811 205.224 58.1095 199.47Z"
                          fill="#4F6AFF"/>
                    <path opacity="0.28"
                          d="M22.5956 85.5751C31.877 93.7411 40.5783 102.527 48.5061 111.93C62.686 128.695 74.6104 147.194 83.8908 166.867C84.5999 168.29 85.2453 169.775 85.8894 171.259C91.175 161.546 96.7182 152.02 102.648 142.677C102.841 142.307 103.227 142.182 103.55 142.245C88.4034 109.27 68.5519 77.1621 47.3459 73.0162C47.9904 76.3576 45.5411 79.9461 41.9318 80.44C38.0645 80.9976 34.4551 77.595 34.6484 73.9442C29.2343 75.986 25.2381 80.2554 22.5956 85.5751C22.531 85.514 22.5956 85.5751 22.5956 85.5751Z"
                          fill="#4F6AFF"/>
                </g>
                <g opacity="0.28">
                    <path opacity="0.28"
                          d="M80.7326 218.463C80.7326 218.463 67.0684 198.666 52.3733 181.034C48.2483 185.797 44.2521 190.685 40.3848 195.696L40.3204 195.758C46.4435 202.687 52.3089 209.864 57.723 217.288C57.9169 217.535 57.8519 217.782 57.658 217.967L80.7326 218.463Z"
                          fill="white"/>
                    <path opacity="0.28"
                          d="M39.5468 194.83C43.4141 189.819 47.4747 184.932 51.5998 180.106C49.4083 177.508 47.1525 174.91 44.961 172.496C41.545 178.622 38.3867 184.869 36.5176 191.613C37.6132 192.665 38.58 193.716 39.5468 194.83Z"
                          fill="white"/>
                    <path opacity="0.28"
                          d="M56.6912 217.906C54.4361 214.813 52.1154 211.719 49.6662 208.75C48.9572 207.883 48.2482 207.018 47.5393 206.09C47.4747 206.09 47.4747 206.09 47.4103 206.09C38 206.09 28.4608 205.904 19.115 207.636C18.3416 207.76 18.0193 206.646 18.7927 206.522C27.9451 204.852 37.2911 204.915 46.5725 204.915C39.8048 196.686 32.5858 188.83 24.9159 181.406C24.7869 182.271 24.4002 183.013 23.5623 183.446C16.279 187.53 15.6345 172.929 2.8726 178.806C-9.88931 184.622 27.8163 217.349 27.8163 217.349L56.6912 217.906Z"
                          fill="white"/>
                    <path opacity="0.28"
                          d="M31.2968 185.983C32.7791 187.467 34.1972 188.953 35.6151 190.5C37.5488 183.818 40.707 177.569 44.1231 171.507C34.5194 160.99 25.4959 153.194 20.5329 154.246C9.12452 156.659 23.24 171.878 24.8513 179.611C27.0428 181.715 29.1698 183.818 31.2968 185.983Z"
                          fill="white"/>
                </g>
            </g>
        </g>
    </g>
    <g opacity="0.28">
        <g opacity="0.28">
            <g opacity="0.28">
                <g opacity="0.28">
                    <path opacity="0.28"
                          d="M193.914 151.462C196.428 156.35 199.071 161.175 201.713 166C204.742 171.445 207.836 176.889 211.059 182.271C206.547 193.84 202.938 205.78 200.231 217.906L169.808 217.844C169.873 217.844 179.155 185.612 193.914 151.462Z"
                          fill="#4F6AFF"/>
                    <path opacity="0.28"
                          d="M214.669 173.487C213.702 175.652 212.799 177.817 211.897 180.044C205.968 170.084 200.359 159.937 195.01 149.668C194.945 149.545 194.816 149.42 194.752 149.359C195.59 147.503 196.363 145.647 197.266 143.791C203.389 153.441 209.126 163.34 214.54 173.424C214.604 173.363 214.669 173.424 214.669 173.487Z"
                          fill="#4F6AFF"/>
                    <path opacity="0.28"
                          d="M249.086 185.118C246.057 190.437 242.964 195.696 240.514 201.326C238.388 206.213 236.454 211.534 236.518 216.916C233.167 212.462 229.944 207.946 226.85 203.368C222.081 196.377 217.569 189.323 213.251 182.085C219.567 166 227.688 150.596 237.292 136.058C243.093 127.334 249.474 118.983 256.371 111.002C256.435 111.002 256.435 111.002 256.5 111.002C261.14 111.498 265.781 112.054 270.356 112.796C273.966 113.354 277.576 114.033 281.185 114.714C280.218 117.808 278.865 120.653 277.06 123.19C264.621 140.636 281.7 134.14 291.434 138.78C292.014 139.089 292.658 139.461 293.238 139.893C285.954 142.677 279.896 147.38 274.352 152.576C264.234 162.227 255.919 173.177 249.086 185.118Z"
                          fill="#4F6AFF"/>
                    <path opacity="0.28"
                          d="M208.803 194.088C209.899 190.809 211.06 187.592 212.284 184.313C219.309 195.821 226.786 207.141 234.907 217.967L202.164 217.906C204.034 209.864 206.226 201.945 208.803 194.088Z"
                          fill="#4F6AFF"/>
                    <path opacity="0.28"
                          d="M257.853 109.332C264.684 101.599 272.032 94.2363 279.896 87.3076C283.248 95.0408 283.828 104.63 281.7 112.919C273.773 111.373 265.845 110.198 257.853 109.332Z"
                          fill="#4F6AFF"/>
                    <path opacity="0.28"
                          d="M264.943 73.5114C265.265 76.1718 262.816 78.9558 259.851 78.5841C257.209 78.2136 255.468 75.3062 256.177 72.8927C256.177 72.8316 256.242 72.7069 256.242 72.6457C259.4 72.2741 262.3 72.5223 264.943 73.2644C264.943 73.3255 264.943 73.4502 264.943 73.5114Z"
                          fill="#4F6AFF"/>
                    <path opacity="0.28"
                          d="M243.414 199.47C245.928 194.273 248.894 189.262 251.794 184.19C255.146 178.312 259.014 172.745 263.267 167.424C267.456 162.165 272.097 157.278 277.06 152.699C282.023 148.184 287.501 144.038 293.948 141.626C294.269 141.502 294.463 141.254 294.592 140.945C301.423 147.07 307.224 161.856 291.434 174.6C273.257 189.325 277.06 191.118 279.961 202.131C282.861 213.142 278.285 217.968 278.285 217.968L238.517 217.906C238.13 211.595 240.708 205.224 243.414 199.47Z"
                          fill="#4F6AFF"/>
                    <path opacity="0.28"
                          d="M278.994 85.5751C269.712 93.7411 261.011 102.527 253.083 111.93C238.903 128.695 226.979 147.194 217.698 166.867C216.989 168.29 216.344 169.775 215.7 171.259C210.414 161.546 204.872 152.02 198.941 142.677C198.749 142.307 198.362 142.182 198.039 142.245C213.186 109.27 233.038 77.1621 254.243 73.0162C253.599 76.3576 256.048 79.9461 259.658 80.44C263.525 80.9976 267.135 77.595 266.941 73.9442C272.29 75.986 276.351 80.2554 278.994 85.5751C278.994 85.514 278.994 85.5751 278.994 85.5751Z"
                          fill="#4F6AFF"/>
                </g>
                <g opacity="0.28">
                    <path opacity="0.28"
                          d="M220.792 218.463C220.792 218.463 234.456 198.666 249.152 181.034C253.277 185.797 257.273 190.685 261.14 195.696L261.205 195.758C255.081 202.687 249.215 209.864 243.802 217.288C243.608 217.535 243.674 217.782 243.866 217.967L220.792 218.463Z"
                          fill="white"/>
                    <path opacity="0.28"
                          d="M262.043 194.83C258.176 189.819 254.115 184.932 249.99 180.106C252.181 177.508 254.437 174.91 256.628 172.496C260.044 178.622 263.202 184.869 265.072 191.613C263.977 192.665 263.01 193.716 262.043 194.83Z"
                          fill="white"/>
                    <path opacity="0.28"
                          d="M244.898 217.906C247.153 214.813 249.474 211.719 251.923 208.75C252.632 207.883 253.342 207.018 254.049 206.09C254.115 206.09 254.115 206.09 254.18 206.09C263.589 206.09 273.128 205.904 282.475 207.636C283.248 207.76 283.57 206.646 282.796 206.522C273.645 204.852 264.298 204.915 255.016 204.915C261.784 196.686 269.003 188.83 276.674 181.406C276.803 182.271 277.189 183.013 278.027 183.446C285.31 187.53 285.954 172.929 298.717 178.806C311.479 184.622 273.773 217.349 273.773 217.349L244.898 217.906C244.833 217.906 244.833 217.906 244.898 217.906Z"
                          fill="white"/>
                    <path opacity="0.28"
                          d="M276.738 179.611C278.285 171.878 292.464 156.659 281.056 154.246C276.093 153.194 267.069 160.99 257.466 171.507C260.882 177.569 264.105 183.818 265.974 190.5C267.392 188.953 268.811 187.467 270.293 185.983C272.355 183.818 274.546 181.715 276.738 179.611Z"
                          fill="white"/>
                </g>
            </g>
        </g>
    </g>
    <path d="M167.874 208.905V195.914H128.494V208.905V208.843C123.337 212.061 120.823 217.69 120.823 224H175.48C175.545 217.629 173.031 212.122 167.874 208.905Z"
          fill="#18004C"/>
    <path d="M141.384 199.007C150.022 202.409 167.939 208.844 167.939 208.844V195.852H133.457C136.035 196.965 138.741 197.955 141.384 199.007Z"
          fill="#0A0A0A"/>
    <path d="M184.052 147.349L198.941 164.053C202.551 168.136 204.227 173.456 203.517 178.777L199.458 208.968C199.2 211.071 197.072 212.555 194.881 212.184C192.948 211.875 191.529 210.205 191.658 208.287L192.432 194.676C192.883 186.324 186.889 178.838 178.38 177.168L184.052 147.349Z"
          fill="#FF3040"/>
    <path d="M113.283 147.349L98.3928 164.053C94.7844 168.136 93.1085 173.456 93.8176 178.777L97.8775 208.968C98.1351 211.071 100.263 212.555 102.454 212.184C104.387 211.875 105.806 210.205 105.677 208.287L104.903 194.676C104.453 186.324 110.446 178.838 118.955 177.168L113.283 147.349Z"
          fill="#FF3040"/>
    <path d="M193.592 158.052L184.052 147.349L178.38 177.168C180.056 177.477 181.669 178.035 183.086 178.777C186.438 171.848 189.918 164.857 193.592 158.052Z"
          fill="#CF0019"/>
    <path d="M105.354 166.465C108.577 170.486 111.928 174.446 115.216 178.405C116.441 177.849 117.665 177.477 119.019 177.168L113.346 147.349L101.358 160.836C102.777 162.815 104.13 164.918 105.354 166.465Z"
          fill="#CF0019"/>
    <path d="M120.629 191.459C120.629 191.459 111.413 168.755 111.864 144.874C112.316 120.995 106.192 67.9752 123.66 33.5164C134.101 12.977 140.675 4.56332 144.221 1.09885C145.832 -0.447788 148.538 -0.262191 149.893 1.47005C155.371 8.52272 169.55 27.1443 173.096 35.1868C177.479 45.2709 187.533 64.5726 184.053 147.288C184.053 147.288 182.313 177.972 176.189 191.397H120.629V191.459Z"
          fill="white"/>
    <path opacity="0.37"
          d="M121.146 60.7996C123.724 44.3429 127.849 27.3298 138.162 13.5957C138.613 13.0389 139.129 12.6058 139.644 12.2965C142.287 8.21338 144.93 4.19212 147.571 0.108989C146.412 -0.0766082 145.188 0.232716 144.221 1.09883C140.611 4.56331 134.101 12.977 123.66 33.5164C106.127 67.9753 112.316 120.87 111.865 144.812C111.413 168.755 120.63 191.397 120.63 191.397L176.641 191.15C122.113 190.655 117.665 143.637 116.956 117.654C116.441 98.6611 118.246 79.5439 121.146 60.7996Z"
          fill="#95A1E6"/>
    <path d="M166.07 34.0115C168.455 34.3827 170.775 34.8158 173.16 35.2489C169.679 27.1445 155.5 8.58479 149.957 1.53212C148.603 -0.261987 145.897 -0.447584 144.285 1.16092C140.675 4.62539 134.165 13.0391 123.724 33.5785C123.53 34.0115 123.272 34.4446 123.08 34.9395C137.002 31.5369 151.826 31.8462 166.07 34.0115Z"
          fill="#FF3040"/>
    <path d="M138.549 18.4213C142.673 13.1627 146.541 7.71852 150.666 2.45995C150.408 2.08876 150.15 1.77943 149.893 1.4701C148.538 -0.323998 145.832 -0.509595 144.221 1.09891C140.611 4.56338 134.101 12.9771 123.66 33.5165C123.466 33.9495 123.208 34.3826 123.015 34.8775C125.013 34.3826 127.011 34.0114 129.009 33.7021C131.201 28.1342 134.81 23.1849 138.549 18.4213Z"
          fill="#CF0019"/>
    <path d="M174.256 198.326H122.951C120.631 198.326 118.761 196.532 118.761 194.304C118.761 192.078 120.631 190.283 122.951 190.283H174.256C176.576 190.283 178.446 192.078 178.446 194.304C178.446 196.532 176.576 198.326 174.256 198.326Z"
          fill="#18004C"/>
    <path d="M147.442 52.3856C135.262 52.3856 125.4 61.851 125.4 73.5432C125.4 85.2365 135.262 94.7022 147.442 94.7022C159.625 94.7022 169.486 85.2365 169.486 73.5432C169.486 61.9134 159.625 52.3856 147.442 52.3856ZM147.442 88.5767C138.806 88.5767 131.781 81.8339 131.781 73.5432C131.781 65.2537 138.806 58.5108 147.442 58.5108C156.08 58.5108 163.105 65.2537 163.105 73.5432C163.04 81.895 156.08 88.5767 147.442 88.5767Z"
          fill="#18004C"/>
    <path opacity="0.37"
          d="M147.443 88.6391C156.093 88.6391 163.105 81.9085 163.105 73.6055C163.105 65.3026 156.093 58.572 147.443 58.572C138.794 58.572 131.781 65.3026 131.781 73.6055C131.781 81.9085 138.794 88.6391 147.443 88.6391Z"
          fill="#95A1E6"/>
    <g opacity="0.6">
        <path opacity="0.6"
              d="M131.845 74.657C132.425 82.4526 139.129 88.6392 147.443 88.6392C148.732 88.6392 149.956 88.4533 151.181 88.2063C144.671 83.751 138.226 79.2358 131.845 74.657Z"
              fill="#FCFAF5"/>
        <path opacity="0.6"
              d="M159.367 83.2571C161.687 80.6577 163.04 77.2551 163.04 73.6055C163.04 65.316 156.015 58.572 147.379 58.572C141.77 58.572 136.873 61.4183 134.101 65.6254C142.48 71.6261 150.86 77.5033 159.367 83.2571Z"
              fill="#FCFAF5"/>
    </g>
    <path d="M147.443 56.9629C148.261 56.9629 148.926 56.3259 148.926 55.541C148.926 54.7548 148.261 54.1178 147.443 54.1178C146.624 54.1178 145.96 54.7548 145.96 55.541C145.96 56.3259 146.624 56.9629 147.443 56.9629Z"
          stroke="#4F6AFF" stroke-width="0.3478" stroke-miterlimit="10"/>
    <path d="M147.443 93.0307C148.261 93.0307 148.926 92.3938 148.926 91.6076C148.926 90.8227 148.261 90.1857 147.443 90.1857C146.624 90.1857 145.96 90.8227 145.96 91.6076C145.96 92.3938 146.624 93.0307 147.443 93.0307Z"
          stroke="#4F6AFF" stroke-width="0.3478" stroke-miterlimit="10"/>
    <path d="M161.785 61.8547C162.364 61.2984 162.364 60.3973 161.785 59.8422C161.206 59.2859 160.268 59.2859 159.688 59.8422C159.109 60.3973 159.109 61.2984 159.688 61.8547C160.268 62.4098 161.206 62.4098 161.785 61.8547Z"
          stroke="#4F6AFF" stroke-width="0.3478" stroke-miterlimit="10"/>
    <path d="M135.221 87.3394C135.8 86.7831 135.8 85.882 135.221 85.327C134.642 84.7707 133.703 84.7707 133.124 85.327C132.545 85.882 132.545 86.7831 133.124 87.3394C133.703 87.8945 134.642 87.8945 135.221 87.3394Z"
          stroke="#4F6AFF" stroke-width="0.3478" stroke-miterlimit="10"/>
    <path d="M166.2 75.0286C167.017 75.0286 167.682 74.3916 167.682 73.6055C167.682 72.8193 167.017 72.1823 166.2 72.1823C165.381 72.1823 164.716 72.8193 164.716 73.6055C164.716 74.3916 165.381 75.0286 166.2 75.0286Z"
          stroke="#4F6AFF" stroke-width="0.3478" stroke-miterlimit="10"/>
    <path d="M128.623 75.0286C129.442 75.0286 130.105 74.3916 130.105 73.6055C130.105 72.8193 129.442 72.1823 128.623 72.1823C127.804 72.1823 127.14 72.8193 127.14 73.6055C127.14 74.3916 127.804 75.0286 128.623 75.0286Z"
          stroke="#4F6AFF" stroke-width="0.3478" stroke-miterlimit="10"/>
    <path d="M161.778 87.3418C162.355 86.7855 162.355 85.8844 161.776 85.3294C161.199 84.7731 160.26 84.7743 159.681 85.3294C159.102 85.8844 159.102 86.7855 159.681 87.3418C160.26 87.8969 161.199 87.8969 161.778 87.3418Z"
          stroke="#4F6AFF" stroke-width="0.3478" stroke-miterlimit="10"/>
    <path d="M135.229 61.851C135.808 61.2959 135.808 60.3949 135.229 59.8386C134.651 59.2835 133.712 59.2835 133.133 59.8386C132.554 60.3949 132.554 61.2959 133.133 61.851C133.712 62.4073 134.651 62.4073 135.229 61.851Z"
          stroke="#4F6AFF" stroke-width="0.3478" stroke-miterlimit="10"/>
    <path d="M111.671 103.92C111.671 103.92 148.667 91.917 183.215 103.362" stroke="#4F6AFF" stroke-width="0.6955"
          stroke-miterlimit="10" stroke-dasharray="5.56 5.56"/>
    <path d="M116.183 52.2619C126.495 49.6635 153.051 44.4668 179.09 51.7051" stroke="#4F6AFF" stroke-width="0.6955"
          stroke-miterlimit="10" stroke-dasharray="5.56 5.56"/>
    <path d="M111.671 112.518C111.671 112.518 148.667 100.517 183.215 111.962" stroke="#4F6AFF" stroke-width="0.6955"
          stroke-miterlimit="10" stroke-dasharray="5.56 5.56"/>
    <path d="M35.4523 182.023H87.8537V178.372H35.4523V182.023Z" fill="#18004C"/>
    <path d="M66.1666 221.309L87.1138 182.209H35.6151L14.6676 221.309" stroke="#18004C" stroke-width="0.679"
          stroke-miterlimit="10"/>
    <path d="M79.2505 196.129H28.0741" stroke="#18004C" stroke-width="0.679" stroke-miterlimit="10"/>
    <path d="M70.2265 212.895H19.0505" stroke="#18004C" stroke-width="0.679" stroke-miterlimit="10"/>
    <path d="M66.8759 222.175L69.9052 216.483L67.0685 216.546L63.9755 222.298L66.8759 222.175Z" fill="#4F6AFF"/>
    <path d="M15.9566 222.175L18.986 216.483L16.0855 216.546L13.0563 222.298L15.9566 222.175Z" fill="#4F6AFF"/>
    <path d="M98.2003 218.649L87.1139 182.209" stroke="#18004C" stroke-width="0.679" stroke-miterlimit="10"/>
    <path d="M46.8302 218.649L35.7441 182.209" stroke="#18004C" stroke-width="0.679" stroke-miterlimit="10"/>
    <path d="M95.4286 67.3248C95.4286 67.3248 84.3422 83.5957 81.3129 81.5539C81.3129 81.5539 76.4789 79.204 78.2199 69.6148C78.2199 68.6868 78.2199 68.0682 78.2199 67.8823C78.2199 67.8823 77.4457 58.4167 75.8348 56.4983C75.6409 56.3137 75.1256 55.8797 75.1894 55.8797C80.1535 54.7047 82.0872 64.7891 83.4404 70.2946C83.5042 70.5428 92.8509 63.5518 92.8509 63.5518C92.8509 63.5518 97.8138 57.3028 98.1352 57.6745C98.6518 58.1697 96.7181 61.0148 96.7181 61.0148C96.7181 61.0148 96.847 61.3241 97.2334 61.5099C97.6199 61.6958 97.8138 61.8816 97.9426 62.3756C98.0714 62.8707 98.5867 63.1189 98.6518 63.4283C98.6518 63.6752 96.4592 66.5827 95.4286 67.3248Z"
          fill="#FEB38C"/>
    <path d="M92.9797 63.5518C92.9797 63.5518 93.9465 60.829 94.3968 60.8913C94.7845 60.9537 96.6531 61.7569 96.5893 62.438C96.5243 63.119 94.9771 62.5614 94.9771 62.5614C94.9771 62.5614 95.2998 64.1081 94.4618 64.2939C93.6889 64.4798 92.9797 63.5518 92.9797 63.5518Z"
          fill="#FEB38C"/>
    <path d="M95.4287 62.4379C95.4287 62.4379 95.3636 63.1189 95.944 63.2424C95.944 63.2424 96.0728 63.9846 96.847 63.7987C96.847 63.7987 96.6531 64.1081 97.1046 64.1704C97.1046 64.1704 95.171 66.2122 95.4287 62.4379Z"
          fill="#F79A88"/>
    <path d="M95.0421 61.0771C95.4286 61.2006 95.815 61.3241 96.2015 61.5099C96.3954 61.5723 96.5893 61.6334 96.7819 61.8192C96.8469 61.8816 96.9757 62.0051 97.0395 62.1286C97.1046 62.252 97.0395 62.4379 96.9107 62.5614C96.5242 62.8707 96.0089 62.8707 95.6224 62.8707C95.4923 62.8707 95.3635 62.8707 95.3635 62.8707C95.3635 62.8096 95.3635 62.9942 95.3635 63.0565L95.4286 63.6752L95.2998 63.0565C95.2998 62.9331 95.2347 62.8707 95.2998 62.7472C95.4286 62.6849 95.4923 62.6849 95.6224 62.6849C96.0089 62.6849 96.4592 62.6237 96.7819 62.3755C96.8469 62.3144 96.9107 62.1909 96.8469 62.1286C96.8469 62.0662 96.7181 61.9427 96.653 61.8816C96.4592 61.7569 96.2666 61.6957 96.1377 61.5723L95.0421 61.0771Z"
          fill="#EC7A65"/>
    <path d="M96.7181 60.8913C96.7181 60.9537 96.7181 61.0771 96.6531 61.1383C96.5893 61.2006 96.5893 61.263 96.5243 61.3241C96.4592 61.3865 96.3954 61.4476 96.3304 61.4476C96.2666 61.51 96.2016 61.51 96.0728 61.51C96.2666 61.3241 96.5243 61.0771 96.7181 60.8913Z"
          fill="#EC7A65"/>
    <path d="M97.5562 61.9427C97.4261 62.1285 97.3623 62.3144 97.1684 62.5002C97.0396 62.6848 96.847 62.8095 96.6532 62.933C96.4593 63.0565 96.2667 63.18 96.0728 63.2424C95.944 63.3035 95.8152 63.3035 95.6863 63.3035C95.5575 63.3035 95.4287 63.18 95.3636 63.1189C95.4925 63.3035 95.7514 63.2424 95.944 63.18C96.1379 63.0565 96.3305 62.933 96.4593 62.8095C96.9758 62.5002 97.2973 62.1909 97.5562 61.9427Z"
          fill="#EC7A65"/>
    <path d="M95.944 63.2424C96.0728 63.4894 96.1378 63.6752 96.3304 63.7376C96.4593 63.7987 96.7182 63.7376 96.847 63.6129C97.0396 63.4894 97.2335 63.3035 97.3623 63.18C97.5562 62.9942 97.7488 62.8707 97.9426 62.6849C97.8138 62.8707 97.6199 63.0566 97.4261 63.2424C97.2335 63.4282 97.1046 63.6129 96.9108 63.7376C96.7182 63.8611 96.4593 63.9845 96.2016 63.8611C96.009 63.7376 96.009 63.4282 95.944 63.2424Z"
          fill="#EC7A65"/>
    <path d="M96.847 63.6752C96.9107 63.7987 96.9758 63.9234 97.0396 64.0469C97.1046 64.108 97.1046 64.1704 97.1684 64.1704C97.1684 64.1704 97.2334 64.1704 97.2972 64.1704C97.4273 64.1704 97.5561 64.1704 97.6849 64.1081C97.8775 64.1081 97.9426 64.108 98.1352 64.0469C98.0714 64.1704 97.8775 64.2328 97.7487 64.2939C97.6199 64.3562 97.4273 64.4174 97.2972 64.3562C97.2334 64.3562 97.1046 64.3562 97.1046 64.2939C97.0395 64.2328 97.0395 64.1704 96.9758 64.1081C96.847 63.9234 96.7819 63.7987 96.847 63.6752Z"
          fill="#EC7A65"/>
    <path d="M64.2331 62.6849C64.2331 62.6849 57.658 61.9427 58.4322 61.5723C59.2051 61.2006 64.7484 59.2211 65.7802 58.6025C66.8758 57.9838 67.585 58.1073 67.585 58.1073L75.3833 40.7848C75.5121 39.795 73.5785 37.3203 72.6767 36.8254C70.0977 35.4025 67.0047 35.2169 64.1042 35.7737C54.6938 37.6297 39.8048 44.0637 34.7773 48.7036C34.7773 48.7036 57.2715 69.2431 64.6195 68.2528"
          fill="#18004C"/>
    <path d="M33.3592 47.2189C38.1933 44.9299 43.2207 42.8265 48.2481 40.9705C52.3732 39.4239 56.5623 38.0009 60.8173 37.0111C62.3632 36.6399 63.9103 36.3306 65.4575 36.2687C65.8439 36.2687 65.8439 35.7119 65.4575 35.7119C62.2343 35.7119 58.9474 36.8255 55.9182 37.7535C51.0841 39.2383 46.3145 41.0324 41.6094 42.9502C38.7089 44.1256 35.8729 45.4248 33.037 46.724C32.7791 46.9096 33.037 47.3426 33.3592 47.2189Z"
          fill="#18004C"/>
    <path d="M65.5213 44.6823C65.5213 44.8061 65.3924 44.9298 65.2636 44.9298C64.6846 44.9298 63.33 44.8061 63.1374 46.2908C62.9435 47.7756 64.4256 48.6417 65.3287 48.7036C65.5863 48.7036 66.1667 48.7655 66.3593 48.9511C66.8758 49.5079 67.1335 50.7452 67.585 52.2918C68.4867 55.695 65.7151 57.2404 65.7151 57.2404C65.7151 57.2404 74.9968 61.6334 74.868 57.2404C74.868 57.2404 74.1588 49.1985 74.1588 49.1367C74.868 48.4561 77.7033 48.1468 75.8985 42.3933C74.2876 37.0729 70.2265 37.4441 69.1959 37.6297C68.3579 37.7534 65.3287 37.939 65.5213 44.6823Z"
          fill="#FEB38C"/>
    <path d="M72.0965 37.0728C72.0965 37.0728 66.4244 44.2492 65.4576 44.8679C65.3926 44.8679 61.5253 36.083 72.0965 37.0728Z"
          fill="#18004C"/>
    <path d="M63.7816 46.7241C63.7816 46.7241 64.6847 44.8681 65.9091 47.3427L63.7816 46.7241Z" fill="#EC7A65"/>
    <path d="M70.7022 47.3373C71.4854 47.3203 72.1053 46.6974 72.0874 45.9459C72.0708 45.1945 71.4216 44.5991 70.6385 44.616C69.8553 44.6329 69.2354 45.2559 69.2533 46.0073C69.2699 46.7588 69.9191 47.3542 70.7022 47.3373Z"
          fill="#F79A88"/>
    <path d="M76.4787 45.1774C75.8346 45.0536 75.3831 44.5587 75.3193 43.8782C75.3193 43.3832 75.577 42.9501 75.9634 42.7026C75.9634 42.7026 76.6076 44.1874 76.4787 45.1774Z"
          fill="#F79A88"/>
    <path d="M75.2544 44.4967L73.127 45.4866C73.127 45.4866 74.1588 46.2289 74.7392 45.7959C75.3195 45.4247 75.2544 44.4967 75.2544 44.4967Z"
          fill="white"/>
    <path d="M73.6436 43.0121L73.965 44.435L74.6741 44.1257C74.803 44.0638 74.803 43.8782 74.7392 43.8163L73.6436 43.0121Z"
          fill="#EC7A65"/>
    <path d="M70.9357 42.4553C70.7431 42.7028 70.872 41.8367 71.1296 41.6511C71.4523 41.4655 71.8388 41.4655 71.9676 41.7748C72.0314 41.7129 71.3872 41.8367 70.9357 42.4553Z"
          fill="#1E274D"/>
    <path d="M74.9316 41.0322C75.2543 41.0941 74.6102 40.5373 74.2225 40.5373C73.836 40.5373 73.5784 40.8466 73.5784 41.156C73.6434 41.0941 74.2225 40.7848 74.9316 41.0322Z"
          fill="#1E274D"/>
    <path d="M72.6155 43.8968C72.7482 43.8457 72.7686 43.5987 72.6614 43.3452C72.5556 43.0918 72.3617 42.9278 72.2303 42.9789C72.0977 43.0302 72.0773 43.2771 72.1844 43.5306C72.2903 43.784 72.4841 43.948 72.6155 43.8968Z"
          fill="#1E274D"/>
    <path d="M74.5287 42.9832C74.6601 42.9321 74.692 42.7108 74.5989 42.489C74.5057 42.2672 74.3234 42.1289 74.1907 42.1801C74.0593 42.2312 74.0274 42.4525 74.1206 42.6743C74.2137 42.896 74.3961 43.0343 74.5287 42.9832Z"
          fill="#1E274D"/>
    <path d="M74.1588 49.0751C74.1588 49.0751 71.516 49.57 70.1627 49.4463C68.8732 49.3844 75.5121 56.7465 74.1588 49.0751Z"
          fill="#1E274D"/>
    <path d="M71.1295 37.7534C71.2584 39.4856 70.1627 41.2798 69.0021 42.5171C67.9064 43.6925 66.2304 44.5586 64.5545 44.4349C64.168 44.373 64.233 44.9298 64.5545 44.9917C66.3593 45.1773 68.2291 44.1874 69.3885 42.9501C70.678 41.5891 71.8387 39.7331 71.7099 37.8153C71.7099 37.3822 71.1295 37.3822 71.1295 37.7534Z"
          fill="#18004C"/>
    <path d="M66.4243 51.6732C67.1003 51.6732 67.6487 51.147 67.6487 50.4978C67.6487 49.8487 67.1003 49.3223 66.4243 49.3223C65.7483 49.3223 65.1998 49.8487 65.1998 50.4978C65.1998 51.147 65.7483 51.6732 66.4243 51.6732Z"
          fill="white"/>
    <path d="M66.4243 54.0237C67.1003 54.0237 67.6487 53.4977 67.6487 52.8486C67.6487 52.1994 67.1003 51.6732 66.4243 51.6732C65.7483 51.6732 65.1998 52.1994 65.1998 52.8486C65.1998 53.4977 65.7483 54.0237 66.4243 54.0237Z"
          fill="white"/>
    <path d="M68.0352 48.0231L66.3592 50.3121L64.8134 47.8994L68.0352 48.0231Z" fill="#4F6AFF"/>
    <path d="M67.1973 166.186L68.2291 173.177C68.2291 173.177 69.8401 177.817 71.3872 176.024C72.9344 174.229 74.4165 173.301 74.4165 173.301L74.9318 166.063L67.1973 166.186Z"
          fill="#F5836B"/>
    <path d="M71.1933 166.433L71.4522 175.899C71.4522 175.899 66.6182 176.58 68.4217 173.487L67.3911 166.928L71.1933 166.433Z"
          fill="#FEB38C"/>
    <path d="M50.5686 166.372L48.3128 173.301C48.3128 173.301 46.5725 174.724 45.9925 174.724C44.8323 174.662 44.2522 172.806 44.2522 172.806L44.0588 166.372H50.5686Z"
          fill="#F5836B"/>
    <path d="M47.2813 164.516L45.6699 176.024C45.6699 176.024 42.4471 176.827 44.2519 173.734L43.8652 164.887L47.2813 164.516Z"
          fill="#FEB38C"/>
    <path d="M74.8679 173.177L80.9264 177.878C81.2491 178.127 80.9902 178.497 80.54 178.497L71.581 178.559C71.3871 178.559 71.1933 178.497 71.1295 178.312L70.4854 176.95C70.2915 176.58 69.905 176.518 69.905 176.95L69.5823 178.25C69.5823 178.436 67.4549 178.374 67.4549 178.188C67.326 177.075 67.5849 173.301 67.7775 172.249C67.7775 172.126 67.9714 172.002 68.164 171.94C68.3579 171.94 68.5518 171.94 68.6806 172.064C69.2596 172.621 71.1933 174.291 72.2251 173.982C72.9343 173.734 73.8361 173.363 74.0937 173.115C74.3526 173.054 74.674 173.054 74.8679 173.177Z"
          fill="#FF3040"/>
    <path d="M44.1231 172.559L40.6426 178.127C40.2559 178.683 40.4492 179.301 41.1583 179.673C42.2539 180.292 43.0919 181.529 43.8008 181.529C45.0255 181.591 46.9591 180.292 48.0548 179.859C48.8282 179.55 49.4083 179.117 49.2795 178.498L48.4415 172.93C48.4415 172.868 48.3127 172.806 48.2481 172.868L46.8946 174.043C46.4435 174.415 45.2833 174.352 45.0255 173.919C44.8322 173.61 44.3165 172.559 44.3165 172.559C44.3165 172.496 44.1875 172.496 44.1231 172.559Z"
          fill="#FF3040"/>
    <path d="M61.1388 79.6979C58.496 84.1532 57.1427 87.37 55.6606 93.0614C53.9196 99.6196 37.7422 155.05 36.9688 166.991C39.0957 167.486 55.7894 167.424 57.1427 167.362C61.4615 155.483 67.2623 116.817 69.1309 109.332C69.3886 108.156 71.2584 108.404 71.1296 109.579C70.0977 118.117 63.5877 154.185 60.8173 167.362C61.9768 167.919 79.1217 167.795 80.4112 167.609C81.8283 152.948 89.3702 97.3296 78.0261 79.3275C72.7405 78.6465 66.3593 79.5745 61.1388 79.6979Z"
          fill="#4F6AFF"/>
    <path d="M76.8015 80.0695C76.8015 80.0695 81.8282 92.2568 81.8282 107.786C81.8282 123.313 76.1561 167.114 76.1561 167.114"
          stroke="white" stroke-width="0.314" stroke-miterlimit="10"/>
    <path d="M40.2559 166.867L63.6527 80.7506" stroke="white" stroke-width="0.314" stroke-miterlimit="10"/>
    <path d="M66.9396 81.1834C66.9396 81.1834 66.8107 95.4125 60.1719 94.2363" stroke="white" stroke-width="0.314"
          stroke-miterlimit="10"/>
    <path d="M80.6689 94.9174C74.03 96.0312 74.9318 80.8741 74.9318 80.8741" stroke="white" stroke-width="0.314"
          stroke-miterlimit="10"/>
    <path opacity="0.21"
          d="M78.0261 80.1932L56.4986 97.0204C56.4986 97.0204 56.3697 86.2562 60.1719 79.3887L78.0261 80.1932Z"
          fill="#1E274D"/>
    <path d="M76.7365 56.5607C76.6077 56.9324 80.8614 67.0779 80.6688 70.5428C80.475 74.0066 80.54 79.0182 80.7326 79.5134C80.7326 79.5134 75.3833 82.5443 59.8505 80.1931C55.0802 76.1719 59.2702 62.5614 60.8811 58.2932C60.8811 58.2932 63.9103 56.8077 65.2636 56.7466C65.2636 56.6842 70.9357 58.8495 76.7365 56.5607Z"
          fill="#18004C"/>
    <path d="M65.2637 56.623L67.4549 53.8391C67.4549 53.8391 70.0977 55.6327 74.03 56.9323L73.965 61.8192C73.965 61.9427 73.7724 62.0674 73.6435 61.9427C72.4191 61.3864 66.8759 58.9741 65.2637 56.623Z"
          fill="white"/>
    <path d="M74.5452 53.7144C74.5452 53.7144 75.1906 55.942 73.9648 56.87L75.7059 61.6334C75.8347 62.0051 76.0923 62.0051 76.1561 61.8192C76.415 60.5819 76.9303 57.9838 76.6076 56.3748L74.5452 53.7144Z"
          fill="white"/>
    <path d="M74.9968 62.6849C75.2098 62.6849 75.3833 62.4086 75.3833 62.0662C75.3833 61.7251 75.2098 61.4476 74.9968 61.4476C74.7825 61.4476 74.6104 61.7251 74.6104 62.0662C74.6104 62.4086 74.7825 62.6849 74.9968 62.6849Z"
          fill="white"/>
    <path d="M75.1894 65.4077C75.4037 65.4077 75.5772 65.1302 75.5772 64.7891C75.5772 64.4467 75.4037 64.1704 75.1894 64.1704C74.9764 64.1704 74.803 64.4467 74.803 64.7891C74.803 65.1302 74.9764 65.4077 75.1894 65.4077Z"
          fill="white"/>
    <path d="M75.3194 68.4386C75.5324 68.4386 75.7059 68.1623 75.7059 67.8199C75.7059 67.4788 75.5324 67.2013 75.3194 67.2013C75.1051 67.2013 74.9316 67.4788 74.9316 67.8199C74.9316 68.1623 75.1051 68.4386 75.3194 68.4386Z"
          fill="white"/>
    <path d="M75.3194 71.8412C75.5324 71.8412 75.7059 71.5649 75.7059 71.2225C75.7059 70.8814 75.5324 70.6039 75.3194 70.6039C75.1051 70.6039 74.9316 70.8814 74.9316 71.2225C74.9316 71.5649 75.1051 71.8412 75.3194 71.8412Z"
          fill="white"/>
    <path d="M75.3194 75.1827C75.5324 75.1827 75.7059 74.9051 75.7059 74.564C75.7059 74.2217 75.5324 73.9454 75.3194 73.9454C75.1051 73.9454 74.9316 74.2217 74.9316 74.564C74.9316 74.9051 75.1051 75.1827 75.3194 75.1827Z"
          fill="white"/>
    <path d="M75.3194 78.523C75.5324 78.523 75.7059 78.2454 75.7059 77.9043C75.7059 77.562 75.5324 77.2856 75.3194 77.2856C75.1051 77.2856 74.9316 77.562 74.9316 77.9043C74.9316 78.2454 75.1051 78.523 75.3194 78.523Z"
          fill="white"/>
    <path d="M63.4588 111.249L43.4142 98.9386L51.7288 86.5032L69.002 97.145C70.4854 98.073 70.9356 99.9901 69.9688 101.413L63.4588 111.249Z"
          fill="#98CCFE"/>
    <path d="M57.5941 101.413C59.1247 101.413 60.3657 100.222 60.3657 98.7527C60.3657 97.2831 59.1247 96.0923 57.5941 96.0923C56.0635 96.0923 54.8225 97.2831 54.8225 98.7527C54.8225 100.222 56.0635 101.413 57.5941 101.413Z"
          fill="white"/>
    <path opacity="0.6"
          d="M56.3696 88.9166C56.3696 88.9166 53.1465 90.3386 55.6605 99.1244C55.7893 99.6184 55.9181 100.114 55.7893 100.609L55.209 104.383C55.1452 104.816 55.0801 105.311 55.4028 105.558C55.8544 105.867 58.367 108.095 58.6897 108.218C59.3339 108.404 58.6247 105.434 58.7548 103.888C58.7548 103.579 58.8186 104.877 58.8836 105.434L58.9474 106.672C59.7216 106.362 59.7216 104.939 59.7854 104.444C59.9142 103.825 59.7854 103.393 59.7216 103.269C59.3989 102.588 58.6897 101.165 58.6247 99.9277C58.5609 99.1856 59.0762 96.464 59.5277 91.4524L56.3696 88.9166Z"
          fill="#1E274D"/>
    <path d="M55.9832 67.573C49.9884 99.6807 53.8557 105.744 54.3072 105.991C54.8225 106.3 57.5941 108.775 57.9168 108.898C58.6247 109.146 57.8517 105.867 57.9806 104.135C57.9806 103.825 58.0456 105.249 58.1094 105.867L58.1744 107.228C59.0124 106.858 59.0124 105.311 59.1413 104.816C59.3339 104.135 59.205 103.64 59.0762 103.516C58.6897 102.774 57.9806 101.227 57.8517 99.8666C57.7867 99.0621 63.4587 73.0162 64.4255 69.1807C65.7801 63.9845 64.1041 57.9838 62.1705 57.798C59.7854 57.4263 56.4334 64.9125 55.9832 67.573Z"
          fill="#FEB38C"/>
    <path d="M92.7858 33.1135H103.807L107.417 37.1966V27.4219C107.417 24.2667 105.419 21.7302 102.969 21.7302H92.7858C90.3369 21.7302 88.3383 24.2667 88.3383 27.4219C88.3383 30.5151 90.3369 33.1135 92.7858 33.1135Z"
          fill="#FF3040"/>
    <path d="M98.6518 25.8751H96.782V30.0819H98.6518V25.8751Z" fill="white"/>
    <path d="M96.0089 27.2363H94.139V30.0821H96.0089V27.2363Z" fill="white"/>
    <path d="M101.487 24.6379H99.6185V30.082H101.487V24.6379Z" fill="white"/>
    <path d="M216.28 58.9118C216.28 54.8282 212.864 51.5496 208.609 51.5496C204.355 51.5496 200.94 54.8282 200.94 58.9118C200.94 62.9942 208.223 69.3666 208.223 69.3666C208.223 69.3666 216.28 62.9942 216.28 58.9118Z"
          fill="#4F6AFF"/>
    <path d="M208.223 69.3666C208.223 69.3666 216.28 62.9942 216.28 58.9118C216.28 54.8282 212.864 51.5496 208.609 51.5496"
          fill="#18004C"/>
    <path d="M206.418 66.0264C206.418 66.0264 207.385 58.2932 206.289 58.7884C205.194 59.2823 204.549 60.4585 205.774 60.7055C206.998 60.9537 211.961 60.7055 211.961 60.7055C211.961 60.7055 212.413 59.3447 211.575 59.0353C210.35 58.5402 210.35 63.0566 210.093 66.2734"
          stroke="white" stroke-width="0.3166" stroke-miterlimit="10"/>
    <path d="M211.317 67.6965H205.13C204.678 67.6965 204.292 67.3248 204.292 66.892C204.292 66.4592 204.678 66.0875 205.13 66.0875H211.317C211.769 66.0875 212.155 66.4592 212.155 66.892C212.219 67.3248 211.832 67.6965 211.317 67.6965Z"
          fill="#18293D"/>
    <path d="M208.352 71.4707C206.354 71.4707 204.742 69.9241 204.742 68.0057V67.3871H211.897V68.0057C211.961 69.9241 210.35 71.4707 208.352 71.4707Z"
          fill="#18293D" stroke="#EAEBEC" stroke-width="0.4326" stroke-miterlimit="10"/>
    <path d="M194.816 58.9729H198.297" stroke="white" stroke-width="0.8127" stroke-miterlimit="10"
          stroke-linecap="round"/>
    <path d="M219.18 58.9729H222.661" stroke="white" stroke-width="0.8127" stroke-miterlimit="10"
          stroke-linecap="round"/>
    <path d="M198.877 49.508L201.326 51.8589" stroke="white" stroke-width="0.8127" stroke-miterlimit="10"
          stroke-linecap="round"/>
    <path d="M216.086 66.0264L218.6 68.4386" stroke="white" stroke-width="0.8127" stroke-miterlimit="10"
          stroke-linecap="round"/>
    <path d="M208.739 45.5486V48.9512" stroke="white" stroke-width="0.8127" stroke-miterlimit="10"
          stroke-linecap="round"/>
    <path d="M218.6 49.508L216.086 51.8589" stroke="white" stroke-width="0.8127" stroke-miterlimit="10"
          stroke-linecap="round"/>
    <path d="M201.326 66.0264L198.877 68.4386" stroke="white" stroke-width="0.8127" stroke-miterlimit="10"
          stroke-linecap="round"/>
    <path d="M215.765 92.3804C215.636 91.3289 219.181 79.0793 219.696 78.2136C221.049 75.8625 227.173 75.3673 229.815 76.9763C234.134 79.5744 240.773 91.4524 239.418 94.5457L215.765 92.3804Z"
          fill="#EF001D"/>
    <path d="M228.72 85.3893C228.72 85.514 228.849 85.6375 228.977 85.6375C229.558 85.6375 230.911 85.514 231.105 86.9983C231.297 88.4826 229.815 89.3494 228.912 89.4106C228.655 89.4106 228.076 89.4729 227.882 89.6588C227.366 90.2151 227.109 91.4524 226.657 92.999C225.754 96.4016 228.526 97.9482 228.526 97.9482C228.526 97.9482 219.244 102.341 219.309 97.9482C219.309 97.9482 220.018 89.9057 220.018 89.8446C219.309 89.1636 216.474 88.8543 218.277 83.1005C219.89 77.7808 224.014 78.1513 225.045 78.3371C225.883 78.4606 228.912 78.6464 228.72 85.3893Z"
          fill="#FF9C75"/>
    <path d="M228.977 85.2658C228.977 85.3893 229.106 85.514 229.235 85.514C229.815 85.514 231.169 85.3893 231.362 86.8748C231.555 88.3591 230.073 89.2259 229.171 89.287C228.912 89.287 228.333 89.3494 228.139 89.5352C227.624 90.0915 227.366 91.3288 226.915 92.8755C226.012 96.2781 228.783 97.8247 228.783 97.8247C228.783 97.8247 219.503 102.218 219.567 97.8247C219.567 97.8247 220.276 89.7822 220.276 89.7199C219.567 89.0401 216.731 88.7307 218.536 82.977C220.147 77.6561 224.272 78.0277 225.304 78.2136C226.142 78.3371 229.171 78.5229 228.977 85.2658Z"
          fill="#FF9C75"/>
    <path d="M222.725 77.4715C222.725 77.4715 224.466 85.1423 226.657 85.9468C229.043 86.8124 228.849 83.1629 229.106 85.5751C229.106 85.5751 233.425 74.2535 222.725 77.4715Z"
          fill="#EF001D"/>
    <path d="M230.459 87.4311C230.459 87.4311 229.558 85.5141 228.333 88.0498L230.459 87.4311Z" fill="#E6713E"/>
    <path d="M224.948 86.8015C224.966 86.0496 224.345 85.426 223.562 85.4102C222.78 85.393 222.131 85.9885 222.113 86.7392C222.095 87.4911 222.715 88.1146 223.498 88.1305C224.281 88.1476 224.93 87.5522 224.948 86.8015Z"
          fill="#FF8752"/>
    <path d="M217.762 85.8845C218.407 85.761 218.858 85.2658 218.923 84.586C218.923 84.0909 218.665 83.658 218.214 83.4099C218.214 83.4099 217.633 84.8954 217.762 85.8845Z"
          fill="#FF8752"/>
    <path d="M220.92 83.1629L220.276 85.1424L219.567 84.833L220.92 83.1629Z" fill="#E6713E"/>
    <path d="M223.434 83.2863C223.434 83.1004 223.499 82.7911 223.434 82.6676C223.37 82.5441 222.983 82.2972 222.919 82.2348C222.596 82.049 222.275 82.1113 222.275 82.3583C222.403 82.5441 222.79 82.4818 223.176 82.7911C223.241 82.9158 223.305 83.1004 223.434 83.2863Z"
          fill="black"/>
    <path d="M219.18 81.6162C218.986 81.6785 219.374 81.3692 219.632 81.3068C219.89 81.1833 220.211 81.3068 220.341 81.3068C220.727 81.3692 220.856 81.6162 220.599 81.802C220.276 81.9879 219.953 81.4303 219.18 81.6162Z"
          fill="black"/>
    <path d="M222.043 84.2498C222.149 83.9967 222.128 83.7497 221.997 83.6984C221.864 83.647 221.67 83.8109 221.564 84.0652C221.457 84.3183 221.478 84.5652 221.61 84.6166C221.742 84.6667 221.936 84.5029 222.043 84.2498Z"
          fill="black"/>
    <path d="M220.115 83.3561C220.209 83.1348 220.177 82.9135 220.045 82.8622C219.913 82.8108 219.73 82.949 219.637 83.1715C219.544 83.3928 219.576 83.6141 219.707 83.6654C219.84 83.7168 220.022 83.5786 220.115 83.3561Z"
          fill="black"/>
    <path d="M220.019 89.8446C220.019 89.8446 222.661 90.3385 224.015 90.2774C225.368 90.1539 219.567 93.4318 220.019 89.8446Z"
          fill="black"/>
    <path d="M219.18 85.2658C219.18 85.2658 218.923 86.2561 219.374 86.442C220.211 86.7513 220.92 86.1327 220.92 86.1327L219.18 85.2658Z"
          fill="#FCFAF5"/>
    <path d="M234.907 219.7C250.178 219.7 262.558 219.008 262.558 218.153C262.558 217.299 250.178 216.607 234.907 216.607C219.636 216.607 207.256 217.299 207.256 218.153C207.256 219.008 219.636 219.7 234.907 219.7Z"
          fill="#E5F1FF"/>
    <path d="M221.5 207.264L220.534 213.823C220.534 213.823 218.986 218.153 217.569 216.483C216.151 214.813 214.733 213.885 214.733 213.885L214.281 207.08L221.5 207.264Z"
          fill="#FF7B4D"/>
    <path d="M217.762 207.513L217.504 216.421C217.504 216.421 222.016 217.102 220.341 214.132L221.308 207.946L217.762 207.513Z"
          fill="#FF8752"/>
    <path d="M244.318 206.708L246.445 213.266C246.445 213.266 248.056 214.627 248.636 214.565C249.667 214.504 250.247 212.771 250.247 212.771L250.441 206.708H244.318Z"
          fill="#FF7B4D"/>
    <path d="M247.412 204.976L248.894 215.802C248.894 215.802 251.923 216.544 250.247 213.637L250.634 205.285L247.412 204.976Z"
          fill="#FF8752"/>
    <path d="M214.217 213.885L208.48 218.339C208.159 218.525 208.417 218.896 208.803 218.896L217.247 218.958C217.441 218.958 217.633 218.895 217.698 218.71L218.342 217.472C218.536 217.102 218.923 217.102 218.858 217.472L219.18 218.71C219.18 218.895 221.178 218.834 221.178 218.649C221.308 217.597 221.049 214.07 220.856 213.081C220.856 212.957 220.662 212.832 220.47 212.771C220.276 212.771 220.082 212.771 220.018 212.895C219.438 213.451 217.633 214.998 216.666 214.688C216.022 214.504 215.184 214.07 214.927 213.885C214.733 213.699 214.41 213.699 214.217 213.885Z"
          fill="#4F6AFF"/>
    <path d="M250.376 212.585L253.599 217.782C253.921 218.277 253.728 218.895 253.148 219.267C252.116 219.823 251.278 221 250.634 221C249.474 221 247.669 219.886 246.638 219.453C245.928 219.144 245.413 218.71 245.478 218.153L246.315 212.895C246.315 212.832 246.445 212.832 246.509 212.832L247.733 213.946C248.12 214.318 249.28 214.256 249.538 213.823C249.732 213.513 250.182 212.523 250.182 212.523C250.247 212.523 250.312 212.523 250.376 212.585Z"
          fill="#4F6AFF"/>
    <path d="M233.102 120.468C235.745 124.922 237.098 128.201 238.646 133.83C240.385 140.389 250.182 195.882 250.956 207.822C248.829 208.317 245.542 208.069 244.189 208.008C239.87 196.068 226.979 157.587 225.175 150.039C224.916 148.864 223.048 149.111 223.177 150.287C224.208 158.886 222.596 193.716 221.758 208.192C220.599 208.75 215.248 208.627 213.895 208.502C212.477 193.779 204.936 138.1 216.344 120.034C221.501 119.478 227.817 120.343 233.102 120.468Z"
          fill="#1B1B25"/>
    <path d="M216.989 122.076C216.989 122.076 212.348 133.088 212.348 148.617C212.348 164.144 215.377 203.615 215.377 203.615"
          stroke="white" stroke-width="0.3147" stroke-miterlimit="10"/>
    <path d="M247.153 203.429L230.525 121.582" stroke="white" stroke-width="0.3147" stroke-miterlimit="10"/>
    <path d="M227.301 122.015C227.301 122.015 227.43 136.244 234.134 135.13" stroke="white" stroke-width="0.3147"
          stroke-miterlimit="10"/>
    <path opacity="0.21"
          d="M216.344 122.385L237.744 137.852C237.744 137.852 238.645 129.5 234.843 122.633L216.344 122.385Z"
          fill="black"/>
    <path d="M213.508 135.81C220.147 136.924 219.115 122.757 219.115 122.757" stroke="white" stroke-width="0.3147"
          stroke-miterlimit="10"/>
    <path d="M221.952 203.801L213.251 203.615" stroke="white" stroke-width="0.3147" stroke-miterlimit="10"/>
    <path d="M250.57 203.801L242.707 203.615" stroke="white" stroke-width="0.3147" stroke-miterlimit="10"/>
    <path d="M193.205 112.363C193.205 112.363 213.122 125.108 215.377 121.891C215.377 121.891 217.956 118.24 212.413 109.146C212.026 108.218 211.769 107.537 211.769 107.414C211.769 107.414 217.698 99.7431 218.6 97.2062C218.665 96.8968 219.051 96.3405 218.986 96.3405C213.508 96.9592 213.443 109.209 208.159 113.663C207.965 113.849 195.074 108.404 195.074 108.404C195.074 108.404 187.533 103.826 187.339 104.321C187.018 105.063 190.111 107.167 190.111 107.167C190.111 107.167 190.111 107.537 189.79 107.847C189.467 108.156 189.338 108.465 189.403 109.023C189.467 109.579 189.08 110.012 189.08 110.321C189.144 110.507 191.852 111.993 193.205 112.363Z"
          fill="#FF9C75"/>
    <path d="M194.881 108.281C194.881 108.281 192.754 105.867 192.367 106.116C191.981 106.362 190.434 107.786 190.756 108.467C191.078 109.146 192.432 107.971 192.432 107.971C192.432 107.971 192.754 109.642 193.657 109.518C194.495 109.518 194.881 108.281 194.881 108.281Z"
          fill="#FF9C75"/>
    <path d="M191.916 108.095C191.916 108.095 192.238 108.775 191.658 109.084C191.658 109.084 191.787 109.889 191.014 109.951C191.014 109.951 191.337 110.198 190.949 110.446C190.949 110.446 193.721 111.807 191.916 108.095Z"
          fill="#FF8752"/>
    <path d="M191.787 106.609C191.529 106.981 191.272 107.353 190.949 107.662C190.82 107.847 190.628 107.971 190.563 108.156C190.434 108.342 190.499 108.404 190.563 108.465C190.885 108.59 191.336 108.465 191.787 108.342C191.916 108.342 191.981 108.218 192.239 108.281C192.367 108.342 192.367 108.465 192.367 108.528V108.714L192.432 109.393L192.304 108.775C192.304 108.651 192.304 108.528 192.174 108.465C192.045 108.465 191.981 108.528 191.852 108.528C191.466 108.651 190.949 108.837 190.499 108.651C190.369 108.59 190.305 108.528 190.305 108.404C190.305 108.281 190.37 108.156 190.434 108.095C190.563 107.909 190.756 107.786 190.885 107.6L191.787 106.609Z"
          fill="#E6713E"/>
    <path d="M189.982 106.981C190.111 106.981 190.176 106.981 190.24 106.981C190.305 106.981 190.434 107.044 190.499 107.044C190.563 107.105 190.628 107.105 190.691 107.167C190.756 107.229 190.82 107.291 190.885 107.353C190.628 107.291 190.305 107.167 189.982 106.981Z"
          fill="#E6713E"/>
    <path d="M189.532 108.342C189.79 108.404 189.982 108.467 190.24 108.528C190.434 108.59 190.691 108.651 190.885 108.714C191.078 108.776 191.337 108.837 191.529 108.899C191.658 108.899 191.723 108.961 191.852 108.899C191.981 108.899 192.045 108.837 192.11 108.776C192.045 109.023 191.723 109.085 191.529 109.023C191.272 108.961 191.078 108.899 190.82 108.837C190.37 108.776 189.982 108.59 189.532 108.342Z"
          fill="#E6713E"/>
    <path d="M191.723 109.084C191.852 109.332 191.916 109.642 191.723 109.951C191.595 110.074 191.401 110.198 191.272 110.198C191.078 110.198 190.949 110.198 190.82 110.137C190.563 110.012 190.305 109.951 190.047 109.765C189.79 109.642 189.596 109.456 189.403 109.27C189.661 109.393 189.854 109.518 190.111 109.642C190.37 109.765 190.628 109.889 190.885 109.951C191.143 110.012 191.466 110.012 191.658 109.827C191.787 109.642 191.787 109.332 191.723 109.084Z"
          fill="#E6713E"/>
    <path d="M191.014 109.827C191.143 109.951 191.207 110.137 191.207 110.321C191.207 110.384 191.207 110.507 191.207 110.631C191.143 110.755 191.014 110.817 190.949 110.879C190.756 111.002 190.563 110.94 190.369 110.94C190.305 110.94 190.176 110.94 190.111 110.879C189.982 110.817 189.918 110.755 189.853 110.693C189.982 110.755 190.176 110.755 190.305 110.755C190.499 110.755 190.628 110.755 190.82 110.693C190.885 110.631 190.949 110.631 191.014 110.57C191.078 110.507 191.078 110.446 191.078 110.321C191.078 110.137 191.078 110.012 191.014 109.827Z"
          fill="#E6713E"/>
    <path d="M219.052 95.4736C219.052 95.4736 216.344 95.8453 214.54 99.2479C213.057 101.97 207.579 113.168 207.579 113.168L196.686 108.651L195.719 115.209C195.719 115.209 212.541 124.922 215.442 122.757C218.277 120.653 220.47 98.9386 219.052 95.4736Z"
          fill="white"/>
    <path d="M219.567 95.289C219.696 95.6595 213.38 107.786 213.508 111.249C213.702 114.714 216.151 120.592 215.957 121.148C215.957 121.148 218.794 123.252 234.327 120.963C239.097 116.942 234.907 103.332 233.296 99.0009C233.296 99.0009 229.042 98.4434 227.301 96.3405C227.301 96.2781 220.405 101.476 219.567 95.289Z"
          fill="white"/>
    <g opacity="0.37">
        <path opacity="0.37"
              d="M234.521 102.651C236.26 108.465 238.13 117.808 234.327 120.963C224.53 122.448 219.761 122.138 217.633 121.705C223.37 115.456 229.106 109.146 234.521 102.651Z"
              fill="#95A1E6"/>
    </g>
    <path d="M222.081 123.313L212.67 112.301L202.68 112.363L210.35 122.509L214.862 123.127C215.119 123.19 222.081 123.313 222.081 123.313Z"
          fill="#4F6AFF"/>
    <path d="M216.667 117.003V118.612L218.923 119.415L216.667 117.003Z" fill="#020F2B"/>
    <path d="M226.335 125.541C218.536 123.932 213.766 122.199 212.864 121.89C212.348 121.705 210.866 121.087 210.866 120.839C210.866 120.343 213.831 121.643 213.766 121.52C213.637 121.396 210.093 120.282 210.093 119.849C210.093 119.231 214.024 120.592 214.089 120.592C215.119 120.901 210.285 119.478 210.156 119.045C210.028 118.612 212.284 119.168 212.413 119.168C212.413 119.168 214.281 119.725 214.41 119.601C214.475 119.478 210.673 117.312 211.059 117.066C211.446 116.817 214.346 118.117 215.056 118.364C215.765 118.612 216.795 118.736 217.053 118.55C217.247 118.426 217.053 117.375 216.603 116.941C216.603 116.941 218.342 117.684 219.115 118.55C219.567 118.983 219.953 119.664 219.953 119.664L226.463 120.901L226.335 125.541Z"
          fill="#FF9C75"/>
    <path d="M230.073 103.455C230.073 103.455 229.171 97.7013 232.2 98.1965C237.356 98.9998 243.286 110.321 241.03 125.417C240.321 130.304 219.632 125.541 219.632 125.541L220.985 118.364L231.813 120.096L230.073 103.455Z"
          fill="white"/>
    <path d="M265.072 101.723C266.104 101.723 266.941 100.919 266.941 99.929C266.941 98.9374 266.104 98.1342 265.072 98.1342C264.039 98.1342 263.202 98.9374 263.202 99.929C263.202 100.919 264.039 101.723 265.072 101.723Z"
          fill="#FF3040"/>
    <path d="M269.712 95.7219C271.741 95.7219 273.386 94.1422 273.386 92.1958C273.386 90.2481 271.741 88.6685 269.712 88.6685C267.683 88.6685 266.039 90.2481 266.039 92.1958C266.039 94.1422 267.683 95.7219 269.712 95.7219Z"
          fill="#FF3040"/>
    <path d="M266.748 94.2986L264.749 93.6176C264.556 93.5565 264.556 93.3083 264.749 93.2472L269.132 91.9475C269.326 91.8852 269.455 92.071 269.39 92.1945L267.908 96.4016C267.844 96.5874 267.585 96.5874 267.521 96.4016L266.877 94.4221C266.812 94.3598 266.812 94.3598 266.748 94.2986Z"
          fill="#1E274D"/>
    <path d="M251.794 109.146C251.537 109.209 254.437 113.168 258.176 115.272C258.176 115.272 275.255 130.614 278.414 129.5C281.508 128.387 295.622 98.8775 287.888 97.5778C287.888 97.5778 285.89 96.1546 284.472 97.9495C283.054 99.6807 278.865 101.908 272.226 116.508C272.226 116.508 262.687 111.745 261.591 111.251C261.591 111.251 259.4 106.177 259.014 107.043C258.626 107.847 259.529 110.074 259.529 110.074C259.529 110.074 254.049 106.053 253.276 106.425C252.504 106.672 251.794 109.146 251.794 109.146Z"
          fill="#FEB38C"/>
    <path d="M275.255 111.188C279.896 102.588 283.376 99.3102 284.472 97.8871C285.89 96.1546 287.888 97.5154 287.888 97.5154C293.044 98.3822 288.404 111.93 283.892 121.087C281.185 117.684 278.285 114.343 275.255 111.188Z"
          fill="#F5836B"/>
    <path d="M278.994 99.6196C278.994 99.6196 281.958 91.5771 287.824 94.9173C293.689 98.3199 289.5 114.838 286.277 118.24L273.322 111.435L278.994 99.6196Z"
          fill="#4F6AFF"/>
    <path d="M277.77 102.341C278.736 101.537 279.961 100.362 281.185 100.671C281.766 100.795 282.281 101.042 282.604 101.476C283.313 102.279 283.184 103.578 282.667 104.506C282.152 105.434 281.314 106.239 280.605 107.042C279.058 108.898 278.156 111.188 278.027 113.538"
          stroke="#FBEFDF" stroke-width="0.2024" stroke-miterlimit="10"/>
    <path d="M286.148 118.117C288.275 117.745 291.691 104.878 290.402 102.588C290.402 102.588 283.957 98.9386 283.57 99.3103C279.38 103.516 286.148 118.117 286.148 118.117Z"
          fill="#3054F2"/>
    <path d="M306.194 219.577C324.313 219.577 339 218.773 339 217.783C339 216.791 324.313 215.988 306.194 215.988C288.074 215.988 273.386 216.791 273.386 217.783C273.386 218.773 288.074 219.577 306.194 219.577Z"
          fill="#E5F1FF"/>
    <path d="M278.479 212.523L278.607 206.522L284.601 206.955L284.472 212.709L281.637 217.411L276.609 213.637L278.479 212.523Z"
          fill="#FEB38C"/>
    <path d="M279.058 206.646L283.699 216.112C283.699 216.112 282.796 214.627 284.601 213.081V206.708H279.058V206.646Z"
          fill="#F5836B"/>
    <path d="M277.512 212.09C277.512 212.09 279.123 213.823 281.12 215.307C282.346 216.174 284.151 212.4 284.73 211.967C284.858 211.843 284.987 211.967 285.052 212.153L285.762 218.339H267.972C267.779 218.339 267.521 218.153 267.585 217.844C268.488 213.204 277.512 212.09 277.512 212.09Z"
          fill="#18004C"/>
    <path d="M275.384 217.225C275.384 217.225 274.675 214.071 272.355 213.452C272.355 213.452 268.682 214.627 267.779 217.288H285.568"
          stroke="white" stroke-width="0.4048" stroke-miterlimit="10"/>
    <path d="M285.181 213.39L281.508 217.288" stroke="white" stroke-width="0.4048" stroke-miterlimit="10"/>
    <path d="M307.031 213.266L305.227 207.513L311.672 207.264L313.09 213.39L310.641 217.411L305.613 213.637L307.031 213.266Z"
          fill="#FEB38C"/>
    <path d="M306.58 207.513L311.929 214.627C311.929 214.627 311.865 214.874 313.67 213.266L311.608 207.264L306.58 207.513Z"
          fill="#F5836B"/>
    <path d="M306.193 212.832C306.193 212.832 307.804 214.565 309.803 216.05C311.027 216.916 312.832 213.142 313.413 212.709C313.541 212.585 313.67 212.709 313.734 212.895L314.443 219.081H296.654C296.46 219.081 296.203 218.895 296.268 218.586C297.169 214.009 306.193 212.832 306.193 212.832Z"
          fill="#18004C"/>
    <path d="M304.002 217.97C304.002 217.97 303.293 214.814 300.973 214.196C300.973 214.196 297.298 215.371 296.397 218.031H314.186"
          stroke="white" stroke-width="0.4048" stroke-miterlimit="10"/>
    <path d="M313.863 214.132L310.124 218.03" stroke="white" stroke-width="0.4048" stroke-miterlimit="10"/>
    <path d="M278.479 137.852C278.479 137.852 276.157 164.144 275.965 171.445C275.771 178.683 277.704 207.08 277.704 207.08H285.375C285.375 207.08 293.496 156.906 302.713 139.398L278.479 137.852Z"
          fill="#0A0A0A"/>
    <path d="M281.637 202.563L282.796 169.28L288.21 149.792" stroke="white" stroke-width="0.3264"
          stroke-miterlimit="10"/>
    <path d="M286.277 207.264L277.447 207.08L276.931 202.254H287.18L286.277 207.264Z" fill="#4F6AFF"/>
    <path d="M278.413 137.852C278.413 137.852 283.699 159.753 289.113 175.28C293.431 187.839 304.969 207.636 304.969 207.636L312.638 207.327L304.454 175.713C303.937 173.857 303.616 171.94 303.551 170.022C303.099 162.721 304.646 147.998 305.29 138.594L278.413 137.852Z"
          fill="#18004C"/>
    <path d="M308.513 202.749C308.707 202.254 297.944 172.249 297.944 168.414C297.944 164.577 298.136 151.401 298.136 151.401"
          stroke="white" stroke-width="0.3264" stroke-miterlimit="10"/>
    <path d="M313.541 207.265L304.969 207.636L302.068 203.059L312.832 202.563L313.541 207.265Z" fill="#4F6AFF"/>
    <path d="M299.168 92.1334C299.168 92.1334 311.156 93.3084 311.865 102.836C312.638 112.363 307.612 151.771 307.612 151.771L274.998 149.792L278.091 105.063C278.22 102.651 278.994 100.299 280.347 98.2576C281.571 96.4017 283.054 94.2363 283.892 94.1752L297.298 90.8337L299.168 92.1334Z"
          fill="#4F6AFF"/>
    <path d="M301.874 93.1848C309.867 94.3598 311.479 98.0717 311.8 102.836C312.574 112.363 307.547 151.462 307.547 151.462L275.384 149.792"
          fill="#3054F2"/>
    <path d="M296.01 93.9893C295.236 96.4016 294.205 98.8151 293.045 101.104C291.434 104.197 289.242 107.29 285.825 108.342C284.343 108.775 282.796 108.837 281.314 109.208C279.832 109.579 278.285 110.384 277.77 111.744"
          stroke="#FBEFDF" stroke-width="0.2024" stroke-miterlimit="10"/>
    <path d="M311.221 133.026C308.127 132.655 304.454 132.532 302.649 135.007C301.23 136.924 301.746 139.584 300.586 141.687C299.103 144.41 295.558 145.09 292.722 146.575C288.662 148.678 285.89 152.885 285.633 157.278"
          stroke="#FBEFDF" stroke-width="0.2024" stroke-miterlimit="10"/>
    <path d="M276.995 149.111C282.087 147.255 287.244 144.1 289.048 139.151C289.177 138.842 289.242 138.533 289.177 138.223C289.114 137.914 288.791 137.728 288.533 137.542C286.857 136.428 284.73 136.181 283.119 135.006C282.475 134.511 281.958 133.954 281.314 133.46C279.187 131.851 275.9 131.913 273.837 133.583"
          stroke="#FBEFDF" stroke-width="0.2024" stroke-miterlimit="10"/>
    <path d="M276.995 114.157C279.767 114.466 282.346 116.261 283.505 118.673C285.375 122.571 283.763 127.52 286.019 131.295C288.21 134.882 294.011 135.81 297.234 132.965C298.523 131.788 299.426 130.181 301.037 129.376C303.873 127.892 308.127 129.5 310.255 127.149"
          stroke="#FBEFDF" stroke-width="0.2024" stroke-miterlimit="10"/>
    <path d="M295.365 83.5346L298.845 92.5051L296.268 93.7424C292.272 95.1643 288.662 94.2363 288.082 92.6897L288.597 87.37L294.205 82.4819C294.205 82.4819 295.043 83.1005 295.172 83.2864C295.301 83.4722 295.365 83.5346 295.365 83.5346Z"
          fill="#FEB38C"/>
    <path d="M294.269 82.4819L288.662 87.37L288.468 89.2871C288.468 89.2871 293.173 90.3398 294.914 83.2252"
          fill="#F5836B"/>
    <path d="M284.408 128.139L273.451 109.084C272.87 108.033 271.84 107.353 270.679 107.105L245.865 105.497C245.413 105.434 245.09 105.867 245.348 106.239L255.854 124.303C256.434 125.294 257.337 125.974 258.497 126.222L283.892 128.881C284.279 129.006 284.666 128.511 284.408 128.139Z"
          fill="#E5F1FF"/>
    <path d="M283.57 129.5L273.644 111.249C273.064 110.198 271.388 109.27 270.227 109.023L243.931 107.414C243.479 107.353 243.157 107.786 243.414 108.156L253.92 126.222C254.501 127.211 255.404 127.892 256.563 128.139L282.99 130.181C283.441 130.367 283.763 129.871 283.57 129.5Z"
          fill="#18004C"/>
    <path d="M277.64 116.323L272.613 118.055L279.316 119.292L277.64 116.323Z" fill="#000F30"/>
    <path d="M278.607 125.541L255.081 124.303L256.371 126.655L280.218 128.077L278.607 125.541Z" fill="#FCFAF5"/>
    <path d="M277.833 123.746C278.671 124.241 288.533 132.407 296.46 136.119C298.653 137.172 301.488 134.758 302.261 132.593L309.609 114.033L297.686 108.218C297.621 108.342 295.558 119.849 293.819 123.871C293.173 125.293 293.56 125.108 292.206 124.613L281.443 119.354C281.443 119.354 280.541 118.55 280.218 117.993C279.574 116.941 277.383 115.766 277.383 115.766L278.671 118.055C278.929 118.426 278.607 118.55 277.833 118.178L272.484 116.013C272.484 116.013 271.259 115.766 271.903 116.261C272.549 116.756 274.675 117.993 274.74 118.055C276.093 118.736 271.194 116.57 271.259 117.003C271.259 117.436 274.095 118.983 274.031 119.045C273.966 119.106 271.002 117.745 270.937 118.178C270.937 118.612 273.579 119.849 273.708 119.849C273.902 119.849 271.582 118.673 271.517 118.921C271.517 119.106 277.383 123.499 277.833 123.746Z"
          fill="#FEB38C"/>
    <path d="M296.01 116.199C296.912 112.177 297.621 108.342 297.686 108.281L309.609 114.096L304.969 125.85C302.069 122.571 299.103 119.354 296.01 116.199Z"
          fill="#F5836B"/>
    <path d="M297.363 133.274C298.459 132.593 301.102 131.79 302.069 133.088C301.102 135.13 298.459 137.109 296.46 136.181C296.139 136.058 295.816 135.872 295.558 135.749C295.816 134.758 296.331 133.893 297.363 133.274Z"
          fill="#F5836B"/>
    <path d="M298.845 99.9289C298.845 99.9289 300.199 91.3912 306.58 93.68C312.961 95.9687 312.832 121.519 310.318 125.478L292.014 117.003L298.845 99.9289Z"
          fill="#4F6AFF"/>
    <path d="M300.844 93.8658C300.264 98.6292 300.908 103.641 303.551 107.723C306.193 111.807 311.091 114.652 316.055 114.158"
          stroke="#FBEFDF" stroke-width="0.2024" stroke-miterlimit="10"/>
    <path d="M297.298 105.681C298.459 106.239 299.426 106.981 300.327 107.847C300.65 108.156 300.908 108.528 301.037 108.961C301.359 110.26 299.683 111.249 299.426 112.61C299.232 113.538 299.812 114.405 300.456 115.085C301.165 115.766 301.94 116.261 302.584 116.941C304.195 118.736 304.066 121.766 302.261 123.437"
          stroke="#FBEFDF" stroke-width="0.2024" stroke-miterlimit="10"/>
    <path d="M311.737 119.354C310.962 118.797 309.803 118.736 309.029 119.292C307.612 120.22 307.74 122.199 307.095 123.746"
          stroke="#FBEFDF" stroke-width="0.2024" stroke-miterlimit="10"/>
    <path d="M284.408 74.2547C284.28 75.986 285.825 75.3062 285.825 75.3062C289.693 77.7184 294.657 81.8632 294.657 81.8632C294.657 81.8632 296.46 81.5539 296.46 81.1211C296.525 77.7808 296.332 73.7595 296.332 73.7595C296.332 73.7595 297.427 73.0174 297.298 71.8412C297.298 71.8412 296.912 70.4181 295.687 70.6663C295.687 70.6663 295.945 69.7994 295.301 69.3666C294.657 68.9338 294.076 69.4901 294.076 69.4901C294.076 69.4901 294.011 67.8823 292.272 67.5106C290.531 67.1402 289.821 68.6868 289.821 68.6868C289.821 68.6868 289.5 67.82 288.985 67.8823C288.468 67.9434 288.276 68.7479 288.276 68.7479C288.276 68.7479 288.147 67.4495 286.6 67.6341C285.052 67.8199 284.924 69.6148 284.924 69.6148C284.924 69.6148 284.859 69.0573 284.151 69.1807C283.184 69.3055 282.667 70.4181 283.57 71.4708C283.57 71.4708 282.861 71.9036 282.925 72.8927C282.99 73.7595 284.408 74.2547 284.408 74.2547Z"
          fill="#18004C"/>
    <path d="M294.786 80.6882C294.849 80.8741 295.043 80.9352 295.236 80.8117C295.687 80.3789 296.589 79.8214 296.912 81.4927C297.363 83.8426 294.849 83.4098 294.656 83.7191C294.269 84.3378 292.916 86.5031 290.982 87.3076C289.821 87.8028 288.018 87.8639 286.728 86.6889C285.439 85.514 284.73 86.8748 285.246 74.13C285.246 74.13 285.568 75.1814 286.857 74.9345C287.759 74.7486 288.468 74.0688 289.435 73.7595C290.209 73.5737 292.4 73.0162 293.367 75.6766C293.689 76.8528 294.398 79.6367 294.786 80.6882Z"
          fill="#FEB38C"/>
    <path d="M285.375 82.7301C285.375 82.7301 286.148 83.1006 288.082 82.9147C288.082 82.9147 287.051 84.2767 286.277 83.9674C285.568 83.7192 285.375 82.7301 285.375 82.7301Z"
          fill="white"/>
    <path d="M296.525 81.3069L295.172 82.296C295.172 82.2349 295.687 79.8837 296.525 81.3069Z" fill="#F5836B"/>
    <path d="M287.244 80.5024C287.386 80.5024 287.501 80.2811 287.501 80.0073C287.501 79.7346 287.386 79.5133 287.244 79.5133C287.102 79.5133 286.986 79.7346 286.986 80.0073C286.986 80.2811 287.102 80.5024 287.244 80.5024Z"
          fill="#000F30"/>
    <path d="M285.568 80.2555C285.71 80.2555 285.825 80.033 285.825 79.7603C285.825 79.4864 285.71 79.2651 285.568 79.2651C285.426 79.2651 285.31 79.4864 285.31 79.7603C285.31 80.033 285.426 80.2555 285.568 80.2555Z"
          fill="#000F30"/>
    <path d="M289.114 77.7808C289.5 78.0277 288.92 76.8528 288.404 76.7293C287.888 76.6046 287.372 76.8528 287.244 77.2856C287.244 77.348 288.21 77.2233 289.114 77.7808Z"
          fill="#000F30"/>
    <path d="M285.181 77.6573C285.696 77.595 286.148 77.6573 286.148 77.6573C286.084 77.2233 285.696 76.9763 285.181 76.9139"
          fill="#000F30"/>
    <path d="M286.084 79.6979L285.31 81.8632C285.31 81.9256 285.31 81.9256 285.375 81.9256L286.277 81.9867C286.277 81.9867 286.342 81.9867 286.342 81.9256L286.213 79.6979C286.148 79.6979 286.084 79.6979 286.084 79.6979Z"
          fill="#F5836B"/>
</svg>
