<svg width="339" height="214" viewBox="0 0 339 214" fill="none" xmlns="http://www.w3.org/2000/svg">
    <g clip-path="url(#clip0_705_1571)">
        <g opacity="0.68">
            <path opacity="0.68"
                  d="M2.53648 213.839C-1.01804 209.835 -0.968671 198.218 1.84532 193.67C4.65932 189.122 10.5835 186.749 15.7672 188.134C13.3481 178.692 15.3229 168.657 18.285 159.314C20.4572 152.393 23.2712 145.473 28.208 140.183C35.7613 131.977 47.6097 128.665 58.7176 129.555C69.8255 130.445 80.3409 135.042 89.9184 140.776C96.2869 116.06 103.396 89.9588 121.81 72.2616C145.31 49.72 184.409 47.1 212.154 64.1051C239.899 81.1102 255.352 115.12 252.636 147.598C262.806 146.56 273.717 148.142 281.813 154.371C289.909 160.599 294.303 172.315 290.008 181.608C311.187 176.764 334.835 191.94 339.228 213.246"
                  fill="#A5CDF2"/>
        </g>
        <g opacity="0.24">
            <path opacity="0.24"
                  d="M2.53648 213.839C-1.01804 210.527 -0.968671 201.036 1.84532 197.279C4.65932 193.571 10.5835 191.594 15.7672 192.731C13.3481 184.97 15.3229 176.714 18.285 169.102C20.4572 163.417 23.2712 157.781 28.208 153.382C35.7613 146.659 47.6097 143.94 58.7176 144.632C69.8255 145.324 80.3409 149.131 89.9184 153.827C96.2869 133.559 103.396 112.154 121.81 97.621C145.31 79.1329 184.409 77.0073 212.154 90.898C239.899 104.789 255.352 132.768 252.636 159.363C262.806 158.523 273.717 159.808 281.813 164.9C289.909 169.992 294.303 179.631 290.008 187.244C311.187 183.24 334.835 195.746 339.228 213.196"
                  fill="#A5CDF2"/>
        </g>
        <g opacity="0.28">
            <g opacity="0.28">
                <g opacity="0.28">
                    <g opacity="0.28">
                        <path opacity="0.28"
                              d="M132.869 121.126C130.944 125.031 128.92 128.887 126.895 132.743C124.575 137.093 122.205 141.443 119.737 145.744C123.193 154.988 125.957 164.528 128.031 174.217L151.333 174.168C151.283 174.168 144.174 148.413 132.869 121.126Z"
                              fill="#4F6AFF"/>
                        <path opacity="0.28"
                              d="M116.923 138.724C117.663 140.454 118.355 142.184 119.046 143.964C123.588 136.005 127.883 127.898 131.98 119.692C132.03 119.593 132.128 119.494 132.178 119.445C131.536 117.962 130.943 116.479 130.252 114.996C125.562 122.707 121.169 130.617 117.022 138.674C116.972 138.625 116.972 138.674 116.923 138.724Z"
                              fill="#4F6AFF"/>
                        <path opacity="0.28"
                              d="M90.6098 148.018C92.9301 152.269 95.2998 156.471 97.1758 160.969C98.8049 164.874 100.286 169.126 100.237 173.426C102.804 169.867 105.272 166.259 107.642 162.6C111.295 157.014 114.751 151.379 118.059 145.595C113.22 132.743 107 120.434 99.6442 108.817C95.201 101.847 90.3136 95.1732 85.0311 88.7963C84.9818 88.7963 84.9818 88.7963 84.9324 88.7963C81.3779 89.1918 77.8234 89.6367 74.3182 90.2299C71.5536 90.6748 68.789 91.2186 66.0244 91.7623C66.7649 94.234 67.8016 96.5079 69.1839 98.5347C78.712 112.475 65.6294 107.284 58.1748 110.992C57.7305 111.239 57.2368 111.536 56.7925 111.882C62.3711 114.106 67.0117 117.863 71.2574 122.016C79.0082 129.727 85.3767 138.477 90.6098 148.018Z"
                              fill="#4F6AFF"/>
                        <path opacity="0.28"
                              d="M121.416 155.185C120.576 152.565 119.688 149.995 118.75 147.375C113.369 156.57 107.642 165.616 101.421 174.267L126.5 174.217C125.118 167.791 123.44 161.463 121.416 155.185Z"
                              fill="#4F6AFF"/>
                        <path opacity="0.28"
                              d="M83.8957 87.4616C78.6627 81.2824 73.0347 75.3998 67.0117 69.8633C64.4446 76.0425 64.0003 83.7046 65.6294 90.3287C71.6524 89.0929 77.774 88.1536 83.8957 87.4616Z"
                              fill="#4F6AFF"/>
                        <path opacity="0.28"
                              d="M78.4652 58.8396C78.2184 60.9653 80.0944 63.1898 82.3653 62.8932C84.3894 62.5966 85.7224 60.2732 85.1793 58.3453C85.1793 58.2959 85.13 58.197 85.13 58.1476C82.7109 57.851 80.4893 58.0487 78.4652 58.6419C78.4652 58.6913 78.4652 58.7902 78.4652 58.8396Z"
                              fill="#4F6AFF"/>
                        <path opacity="0.28"
                              d="M94.9048 159.486C92.9794 155.334 90.7085 151.33 88.4869 147.276C85.9198 142.58 82.9577 138.131 79.6994 133.88C76.4904 129.678 72.9359 125.773 69.1345 122.115C65.3332 118.506 61.1369 115.194 56.2 113.266C55.9532 113.167 55.8051 112.969 55.7064 112.722C50.4733 117.616 46.0302 129.431 58.1254 139.614C72.0473 151.379 69.1345 152.813 66.913 161.612C64.6914 170.411 68.1965 174.267 68.1965 174.267L98.6568 174.217C99.0024 169.175 97.0276 164.083 94.9048 159.486Z"
                              fill="#4F6AFF"/>
                        <path opacity="0.28"
                              d="M67.7028 68.4793C74.8119 75.0045 81.4766 82.024 87.5489 89.5379C98.4099 102.934 107.543 117.715 114.652 133.435C115.195 134.572 115.689 135.758 116.183 136.945C120.231 129.184 124.476 121.571 129.018 114.106C129.166 113.81 129.463 113.711 129.709 113.76C118.108 87.4123 102.902 61.7563 86.6603 58.4443C87.154 61.1137 85.278 63.9808 82.5133 64.3763C79.5512 64.8212 76.7866 62.1023 76.9347 59.1858C72.7878 60.8171 69.7269 64.228 67.7028 68.4793C67.7028 68.4793 67.6535 68.4298 67.7028 68.4793Z"
                              fill="#4F6AFF"/>
                    </g>
                    <g opacity="0.28">
                        <path opacity="0.28"
                              d="M112.233 174.662C112.233 174.662 101.767 158.843 90.5109 144.755C87.3513 148.561 84.2905 152.466 81.3284 156.471L81.2791 156.52C85.969 162.057 90.4615 167.791 94.6085 173.723C94.7566 173.921 94.7072 174.118 94.5591 174.267L112.233 174.662Z"
                              fill="white"/>
                        <path opacity="0.28"
                              d="M80.6868 155.779C83.6489 151.774 86.7591 147.869 89.9186 144.013C88.2401 141.937 86.5122 139.861 84.8337 137.933C82.2172 142.827 79.7981 147.82 78.3665 153.208C79.2057 154.048 79.9462 154.889 80.6868 155.779Z"
                              fill="white"/>
                        <path opacity="0.28"
                              d="M93.8188 174.217C92.0909 171.746 90.3136 169.274 88.4376 166.901C87.8946 166.209 87.3515 165.517 86.8085 164.775C86.7591 164.775 86.7591 164.775 86.7097 164.775C79.502 164.775 72.1954 164.627 65.037 166.011C64.4446 166.11 64.1978 165.22 64.7902 165.121C71.8005 163.787 78.9589 163.836 86.0679 163.836C80.8843 157.262 75.355 150.984 69.4802 145.051C69.3814 145.744 69.0852 146.337 68.4434 146.683C62.8648 149.945 62.3711 138.279 52.5962 142.975C42.8213 147.622 71.7018 173.772 71.7018 173.772L93.8188 174.217Z"
                              fill="white"/>
                        <path opacity="0.28"
                              d="M74.3677 148.71C75.5032 149.896 76.5893 151.082 77.6754 152.318C79.1564 146.979 81.5755 141.987 84.192 137.142C76.8361 128.738 69.9245 122.51 66.1232 123.35C57.385 125.278 68.1966 137.439 69.4309 143.618C71.1094 145.299 72.7385 146.979 74.3677 148.71Z"
                              fill="white"/>
                    </g>
                </g>
            </g>
        </g>
        <g opacity="0.28">
            <g opacity="0.28">
                <g opacity="0.28">
                    <g opacity="0.28">
                        <path opacity="0.28"
                              d="M198.924 121.126C200.849 125.031 202.873 128.887 204.898 132.743C207.218 137.093 209.588 141.443 212.056 145.744C208.6 154.988 205.836 164.528 203.762 174.217L180.46 174.168C180.51 174.168 187.619 148.413 198.924 121.126Z"
                              fill="#4F6AFF"/>
                        <path opacity="0.28"
                              d="M214.82 138.724C214.08 140.454 213.389 142.184 212.698 143.964C208.156 136.005 203.861 127.898 199.763 119.692C199.714 119.593 199.615 119.494 199.566 119.445C200.207 117.962 200.8 116.479 201.491 114.996C206.181 122.708 210.575 130.617 214.722 138.675C214.771 138.625 214.82 138.675 214.82 138.724Z"
                              fill="#4F6AFF"/>
                        <path opacity="0.28"
                              d="M241.183 148.018C238.863 152.269 236.493 156.471 234.617 160.969C232.988 164.874 231.507 169.126 231.557 173.426C228.989 169.867 226.521 166.259 224.151 162.6C220.498 157.014 217.042 151.379 213.735 145.595C218.573 132.743 224.793 120.434 232.149 108.817C236.592 101.847 241.48 95.1732 246.762 88.7963C246.811 88.7963 246.811 88.7963 246.861 88.7963C250.415 89.1918 253.97 89.6367 257.475 90.2299C260.24 90.6748 263.004 91.2186 265.769 91.7623C265.028 94.234 263.991 96.5079 262.609 98.5347C253.081 112.475 266.164 107.284 273.618 110.992C274.063 111.239 274.556 111.536 275.001 111.882C269.422 114.106 264.781 117.863 260.536 122.016C252.785 129.727 246.416 138.477 241.183 148.018Z"
                              fill="#4F6AFF"/>
                        <path opacity="0.28"
                              d="M210.328 155.185C211.167 152.565 212.056 149.995 212.994 147.375C218.375 156.57 224.102 165.616 230.322 174.267L205.243 174.217C206.675 167.791 208.353 161.463 210.328 155.185Z"
                              fill="#4F6AFF"/>
                        <path opacity="0.28"
                              d="M247.897 87.4616C253.13 81.2824 258.758 75.3998 264.781 69.8633C267.348 76.0425 267.793 83.7046 266.164 90.3287C260.091 89.0929 254.019 88.1536 247.897 87.4616Z"
                              fill="#4F6AFF"/>
                        <path opacity="0.28"
                              d="M253.328 58.8396C253.575 60.9653 251.699 63.1898 249.428 62.8932C247.404 62.5966 246.071 60.2732 246.614 58.3453C246.614 58.2959 246.663 58.197 246.663 58.1476C249.082 57.851 251.304 58.0487 253.328 58.6419C253.328 58.6913 253.328 58.7902 253.328 58.8396Z"
                              fill="#4F6AFF"/>
                        <path opacity="0.28"
                              d="M236.839 159.486C238.764 155.334 241.035 151.33 243.257 147.276C245.824 142.58 248.786 138.131 252.044 133.88C255.253 129.678 258.808 125.773 262.609 122.115C266.41 118.506 270.607 115.194 275.543 113.266C275.79 113.167 275.938 112.969 276.037 112.722C281.27 117.616 285.713 129.431 273.618 139.614C259.696 151.379 262.609 152.813 264.831 161.612C267.052 170.411 263.547 174.267 263.547 174.267L233.087 174.217C232.791 169.175 234.765 164.083 236.839 159.486Z"
                              fill="#4F6AFF"/>
                        <path opacity="0.28"
                              d="M264.09 68.4793C256.981 75.0045 250.316 82.024 244.244 89.5379C233.383 102.934 224.25 117.715 217.141 133.435C216.598 134.572 216.104 135.758 215.61 136.945C211.562 129.184 207.317 121.571 202.775 114.106C202.627 113.81 202.33 113.711 202.083 113.76C213.685 87.4123 228.89 61.7563 245.133 58.4443C244.639 61.1137 246.515 63.9808 249.28 64.3763C252.242 64.8212 255.006 62.1023 254.858 59.1858C258.956 60.8171 262.066 64.228 264.09 68.4793C264.09 68.4793 264.09 68.4298 264.09 68.4793Z"
                              fill="#4F6AFF"/>
                    </g>
                    <g opacity="0.28">
                        <path opacity="0.28"
                              d="M219.51 174.662C219.51 174.662 229.977 158.843 241.233 144.755C244.392 148.561 247.453 152.466 250.415 156.471L250.464 156.52C245.774 162.057 241.282 167.791 237.135 173.723C236.987 173.921 237.036 174.118 237.184 174.267L219.51 174.662Z"
                              fill="white"/>
                        <path opacity="0.28"
                              d="M251.106 155.779C248.144 151.774 245.034 147.869 241.874 144.013C243.553 141.937 245.281 139.861 246.959 137.933C249.576 142.827 251.995 147.82 253.426 153.208C252.587 154.048 251.847 154.889 251.106 155.779Z"
                              fill="white"/>
                        <path opacity="0.28"
                              d="M237.974 174.217C239.702 171.745 241.479 169.274 243.355 166.901C243.898 166.209 244.442 165.517 244.985 164.775C245.034 164.775 245.034 164.775 245.083 164.775C252.291 164.775 259.598 164.627 266.756 166.011C267.348 166.11 267.595 165.22 267.003 165.121C259.993 163.787 252.834 163.836 245.725 163.836C250.909 157.261 256.438 150.983 262.313 145.051C262.412 145.744 262.708 146.337 263.35 146.683C268.928 149.945 269.422 138.279 279.197 142.975C288.972 147.622 260.091 173.772 260.091 173.772L237.974 174.217C237.925 174.217 237.925 174.217 237.974 174.217Z"
                              fill="white"/>
                        <path opacity="0.28"
                              d="M262.362 143.618C263.547 137.439 274.408 125.278 265.67 123.35C261.868 122.51 254.957 128.738 247.601 137.142C250.218 141.987 252.686 146.979 254.118 152.318C255.204 151.082 256.29 149.896 257.425 148.71C259.005 146.979 260.684 145.299 262.362 143.618Z"
                              fill="white"/>
                    </g>
                </g>
            </g>
        </g>
        <g opacity="0.61">
            <path opacity="0.61"
                  d="M24.0613 213.839C25.4436 206.721 35.959 199.602 43.0187 201.283C45.0428 193.176 56.1013 188.974 63.0129 193.67C65.2838 185.019 68.0484 175.627 75.5524 170.783C84.0437 165.246 95.8921 167.965 103.742 174.391C111.591 180.818 116.331 190.21 120.872 199.256C121.613 196.982 124.822 196.389 126.895 197.576C128.969 198.762 130.154 201.036 131.19 203.211C142.595 197.576 150.691 185.761 151.876 173.057L173.055 168.558C175.079 177.308 177.399 186.552 183.866 192.78C190.334 199.009 202.429 200.097 207.464 192.682C208.6 191.05 209.39 188.974 211.167 188.134C214.672 186.453 218.079 190.605 219.807 194.115C222.917 187.985 232.79 186.997 237.085 192.336C240.64 180.126 253.673 171.524 266.311 173.007C278.9 174.49 289.564 185.959 290.156 198.663C298.5 195.45 312.471 204.595 314.939 213.196"
                  fill="white"/>
        </g>
        <path d="M178.979 167.025V156.644H148.815V167.025V166.976C144.866 169.546 142.94 174.045 142.94 179.087H184.804C184.854 173.995 182.929 169.596 178.979 167.025Z"
              fill="#18004C"/>
        <path d="M158.689 159.116C165.304 161.835 179.028 166.976 179.028 166.976V156.595H152.616C154.591 157.485 156.664 158.276 158.689 159.116Z"
              fill="#0A0A0A"/>
        <path d="M191.371 117.839L202.775 131.186C205.539 134.449 206.823 138.7 206.28 142.951L203.17 167.075C202.972 168.755 201.343 169.942 199.664 169.645C198.183 169.398 197.097 168.063 197.196 166.531L197.788 155.656C198.134 148.982 193.543 143.001 187.026 141.666L191.371 117.839Z"
              fill="#FF3040"/>
        <path d="M137.164 117.839L125.76 131.186C122.995 134.449 121.712 138.7 122.255 142.951L125.365 167.075C125.563 168.756 127.192 169.942 128.87 169.645C130.351 169.398 131.437 168.063 131.339 166.531L130.746 155.656C130.401 148.982 134.992 143.001 141.508 141.666L137.164 117.839Z"
              fill="#FF3040"/>
        <path d="M198.677 126.391L191.37 117.839L187.026 141.666C188.309 141.913 189.544 142.358 190.63 142.951C193.197 137.415 195.863 131.829 198.677 126.391Z"
              fill="#CF0019"/>
        <path d="M131.092 133.114C133.56 136.327 136.127 139.491 138.645 142.655C139.583 142.21 140.521 141.913 141.558 141.666L137.214 117.839L128.031 128.616C129.117 130.197 130.154 131.878 131.092 133.114Z"
              fill="#CF0019"/>
        <path d="M142.792 153.085C142.792 153.085 135.732 134.943 136.078 115.862C136.424 96.7805 131.734 54.4161 145.112 26.8816C153.11 10.4697 158.146 3.7468 160.861 0.978528C162.095 -0.257308 164.169 -0.109006 165.205 1.27513C169.402 6.91054 180.263 21.79 182.978 28.2163C186.335 36.274 194.036 51.6972 191.37 117.79C191.37 117.79 190.038 142.309 185.348 153.036H142.792V153.085Z"
              fill="white"/>
        <path opacity="0.37"
              d="M143.187 48.6818C145.162 35.5325 148.321 21.9383 156.22 10.9641C156.566 10.5192 156.961 10.1731 157.356 9.92595C159.38 6.66335 161.404 3.45017 163.428 0.187568C162.539 0.0392682 161.601 0.286435 160.861 0.978503C158.096 3.74677 153.11 10.4697 145.112 26.8816C131.684 54.416 136.424 96.6816 136.078 115.812C135.732 134.943 142.792 153.036 142.792 153.036L185.693 152.838C143.928 152.443 140.521 114.873 139.978 94.1111C139.583 78.935 140.965 63.6601 143.187 48.6818Z"
              fill="#95A1E6"/>
        <path d="M177.597 27.2771C179.423 27.5737 181.201 27.9198 183.027 28.2658C180.361 21.79 169.5 6.95999 165.255 1.32458C164.218 -0.108988 162.145 -0.257287 160.91 1.02798C158.146 3.79625 153.16 10.5192 145.162 26.9311C145.014 27.2771 144.816 27.6232 144.668 28.0186C155.332 25.2998 166.686 25.547 177.597 27.2771Z"
              fill="#FF3040"/>
        <path d="M156.516 14.8199C159.676 10.6181 162.638 6.26792 165.798 2.06608C165.6 1.76948 165.403 1.52231 165.205 1.27514C164.168 -0.158425 162.095 -0.306726 160.861 0.978543C158.096 3.74681 153.11 10.4698 145.112 26.8817C144.964 27.2277 144.767 27.5737 144.619 27.9692C146.149 27.5737 147.679 27.2771 149.21 27.03C150.888 22.581 153.653 18.6263 156.516 14.8199Z"
              fill="#CF0019"/>
        <path d="M183.866 158.572H144.569C142.792 158.572 141.36 157.139 141.36 155.359C141.36 153.58 142.792 152.146 144.569 152.146H183.866C185.644 152.146 187.075 153.58 187.075 155.359C187.075 157.139 185.644 158.572 183.866 158.572Z"
              fill="#18004C"/>
        <path d="M163.329 41.9589C153.999 41.9589 146.445 49.5222 146.445 58.8652C146.445 68.2081 153.999 75.7714 163.329 75.7714C172.66 75.7714 180.213 68.2081 180.213 58.8652C180.213 49.5717 172.66 41.9589 163.329 41.9589ZM163.329 70.8775C156.714 70.8775 151.333 65.4892 151.333 58.8652C151.333 52.2411 156.714 46.8528 163.329 46.8528C169.945 46.8528 175.326 52.2411 175.326 58.8652C175.276 65.5387 169.945 70.8775 163.329 70.8775Z"
              fill="#18004C"/>
        <path opacity="0.37"
              d="M163.329 70.927C169.955 70.927 175.326 65.5489 175.326 58.9147C175.326 52.2804 169.955 46.9023 163.329 46.9023C156.704 46.9023 151.333 52.2804 151.333 58.9147C151.333 65.5489 156.704 70.927 163.329 70.927Z"
              fill="#95A1E6"/>
        <g opacity="0.6">
            <path opacity="0.6"
                  d="M151.382 59.755C151.827 65.9836 156.961 70.927 163.329 70.927C164.317 70.927 165.255 70.7787 166.193 70.5809C161.207 67.0217 156.27 63.4131 151.382 59.755Z"
                  fill="#FCFAF5"/>
            <path opacity="0.6"
                  d="M172.462 66.6263C174.24 64.5501 175.276 61.8312 175.276 58.9147C175.276 52.2906 169.895 46.9023 163.28 46.9023C158.985 46.9023 155.233 49.1763 153.11 52.5378C159.528 57.3328 165.946 62.029 172.462 66.6263Z"
                  fill="#FCFAF5"/>
        </g>
        <path d="M163.329 45.6169C163.956 45.6169 164.465 45.1079 164.465 44.4799C164.465 43.852 163.956 43.343 163.329 43.343C162.702 43.343 162.194 43.852 162.194 44.4799C162.194 45.1079 162.702 45.6169 163.329 45.6169Z"
              stroke="#4F6AFF" stroke-width="0.3478" stroke-miterlimit="10"/>
        <path d="M163.329 74.4365C163.956 74.4365 164.465 73.9275 164.465 73.2996C164.465 72.6716 163.956 72.1626 163.329 72.1626C162.702 72.1626 162.194 72.6716 162.194 73.2996C162.194 73.9275 162.702 74.4365 163.329 74.4365Z"
              stroke="#4F6AFF" stroke-width="0.3478" stroke-miterlimit="10"/>
        <path d="M174.314 49.5249C174.758 49.0809 174.758 48.361 174.314 47.917C173.871 47.473 173.152 47.473 172.709 47.917C172.265 48.361 172.265 49.0809 172.709 49.5249C173.152 49.9689 173.871 49.9689 174.314 49.5249Z"
              stroke="#4F6AFF" stroke-width="0.3478" stroke-miterlimit="10"/>
        <path d="M153.968 69.8883C154.411 69.4443 154.411 68.7244 153.968 68.2804C153.524 67.8364 152.805 67.8364 152.362 68.2804C151.919 68.7244 151.919 69.4443 152.362 69.8883C152.805 70.3323 153.524 70.3323 153.968 69.8883Z"
              stroke="#4F6AFF" stroke-width="0.3478" stroke-miterlimit="10"/>
        <path d="M177.696 60.0514C178.323 60.0514 178.831 59.5424 178.831 58.9144C178.831 58.2865 178.323 57.7775 177.696 57.7775C177.068 57.7775 176.56 58.2865 176.56 58.9144C176.56 59.5424 177.068 60.0514 177.696 60.0514Z"
              stroke="#4F6AFF" stroke-width="0.3478" stroke-miterlimit="10"/>
        <path d="M148.914 60.0514C149.541 60.0514 150.049 59.5424 150.049 58.9144C150.049 58.2865 149.541 57.7775 148.914 57.7775C148.287 57.7775 147.778 58.2865 147.778 58.9144C147.778 59.5424 148.287 60.0514 148.914 60.0514Z"
              stroke="#4F6AFF" stroke-width="0.3478" stroke-miterlimit="10"/>
        <path d="M174.308 69.8905C174.752 69.4465 174.752 68.7266 174.308 68.2826C173.865 67.8386 173.146 67.8386 172.702 68.2826C172.259 68.7266 172.259 69.4465 172.702 69.8905C173.146 70.3345 173.865 70.3345 174.308 69.8905Z"
              stroke="#4F6AFF" stroke-width="0.3478" stroke-miterlimit="10"/>
        <path d="M153.974 49.5225C154.418 49.0785 154.418 48.3586 153.974 47.9146C153.531 47.4706 152.812 47.4706 152.368 47.9146C151.925 48.3586 151.925 49.0785 152.368 49.5225C152.812 49.9665 153.531 49.9665 153.974 49.5225Z"
              stroke="#4F6AFF" stroke-width="0.3478" stroke-miterlimit="10"/>
        <path d="M135.93 83.1369C135.93 83.1369 164.267 73.5469 190.729 82.692" stroke="#4F6AFF" stroke-width="0.6955"
              stroke-miterlimit="10" stroke-dasharray="5.56 5.56"/>
        <path d="M139.385 41.86C147.284 39.7838 167.624 35.6314 187.569 41.4151" stroke="#4F6AFF" stroke-width="0.6955"
              stroke-miterlimit="10" stroke-dasharray="5.56 5.56"/>
        <path d="M135.93 90.0081C135.93 90.0081 164.267 80.418 190.729 89.5632" stroke="#4F6AFF" stroke-width="0.6955"
              stroke-miterlimit="10" stroke-dasharray="5.56 5.56"/>
        <g opacity="0.79">
            <path opacity="0.79"
                  d="M174.536 186.502C175.177 188.826 176.165 191.05 177.399 193.028C178.633 195.054 180.164 196.883 181.941 198.416C183.718 199.948 185.742 201.234 187.914 202.173C190.087 203.112 192.407 203.755 194.777 204.101C192.358 204.2 189.889 203.755 187.618 202.914C185.298 202.074 183.175 200.789 181.299 199.207C179.423 197.575 177.893 195.648 176.708 193.473C175.572 191.297 174.782 188.925 174.536 186.502Z"
                  fill="white"/>
        </g>
        <g opacity="0.79">
            <path opacity="0.79"
                  d="M153.752 188.826C153.505 191.001 152.863 193.077 151.975 195.104C151.086 197.081 149.901 198.96 148.519 200.69C147.136 202.37 145.507 203.903 143.73 205.139C141.953 206.424 139.978 207.413 137.905 208.055C139.83 207.017 141.607 205.831 143.236 204.496C144.865 203.161 146.396 201.678 147.729 199.998C149.062 198.366 150.247 196.587 151.283 194.708C152.32 192.879 153.11 190.902 153.752 188.826Z"
                  fill="white"/>
        </g>
        <g opacity="0.79">
            <path opacity="0.79"
                  d="M155.727 200.344C155.578 201.085 155.332 201.777 155.085 202.469C154.838 203.161 154.542 203.854 154.196 204.496C153.851 205.139 153.505 205.781 153.11 206.424C152.715 207.067 152.271 207.66 151.777 208.204C151.925 207.462 152.172 206.77 152.419 206.078C152.666 205.386 152.962 204.694 153.308 204.051C153.653 203.409 153.999 202.766 154.394 202.123C154.789 201.53 155.184 200.937 155.727 200.344Z"
                  fill="white"/>
        </g>
        <g opacity="0.79">
            <path opacity="0.79"
                  d="M164.563 205.287C164.81 205.584 164.958 205.88 165.106 206.226C165.255 206.523 165.304 206.869 165.353 207.215C165.403 207.561 165.452 207.858 165.403 208.204C165.403 208.55 165.353 208.896 165.205 209.242C164.958 208.945 164.81 208.649 164.662 208.302C164.514 208.006 164.465 207.66 164.415 207.314C164.366 206.968 164.317 206.671 164.366 206.325C164.366 205.979 164.415 205.633 164.563 205.287Z"
                  fill="white"/>
        </g>
        <g opacity="0.79">
            <path opacity="0.79"
                  d="M171.179 199.998L172.512 202.123C172.956 202.816 173.401 203.458 173.894 204.15C174.388 204.793 174.882 205.435 175.375 206.078L177.004 207.957C176.215 207.611 175.474 207.166 174.832 206.622C174.19 206.078 173.598 205.435 173.055 204.743C172.561 204.051 172.117 203.31 171.771 202.519C171.475 201.679 171.278 200.838 171.179 199.998Z"
                  fill="white"/>
        </g>
    </g>
    <defs>
        <clipPath id="clip0_705_1571">
            <rect width="339" height="213.951" fill="white"/>
        </clipPath>
    </defs>
</svg>
