<svg width="600" height="336" viewBox="0 0 600 336" fill="none" xmlns="http://www.w3.org/2000/svg">
    <path opacity="0.5" d="M609.256 336.477C609.213 336.563 609.148 336.649 609.105 336.735C608.76 337.358 608.394 337.982 608.028 338.627L44.3833 338.455C44.3833 338.455 43.845 337.853 42.8546 336.67C42.79 336.606 42.7469 336.541 42.6824 336.455C40.1632 333.445 35.1034 327.081 29.1607 318.137C13.4214 294.358 -8.38977 252.262 -4.70793 205.542C-3.67443 192.363 -0.616992 178.796 5.19645 165.186C22.809 123.885 75.3237 96.0425 122.649 95.4835C140.973 95.2685 158.499 99.1385 172.925 107.889C175.487 109.437 178.695 110.641 182.442 111.458C185.585 112.146 189.116 112.576 192.949 112.705C223.674 113.78 273.67 96.494 303.318 52.978C319.057 29.8655 343.237 14.751 371.012 6.8605C372.304 6.495 373.618 6.151 374.91 5.807C381.218 4.1945 387.721 2.926 394.309 2.0445C395.493 1.894 396.699 1.7435 397.883 1.593C427.187 -1.804 458.58 1.7005 487.389 11.4185C491.178 12.687 494.925 14.0845 498.628 15.568C552.822 37.4765 594.98 82.218 591.277 144.697C591.126 147.169 590.911 149.663 590.61 152.201C590.05 157.017 589.232 161.919 588.133 166.928C587.488 169.874 586.734 172.862 585.873 175.894C563.545 255.121 652.813 258.69 609.256 336.477Z" fill="#DCEAFF"/>
    <path d="M609.256 336.477L170.535 336.52L174.324 205.585V170.046H190.731V142.246H223.459V165.832H233.449V122.23H235.624V119.177H236.011V122.23H243.913V119.177H244.301V122.23H255.476V119.177H255.863V122.23H262.904V119.177H263.292V122.23H266.177V162.951H277.222V156.35L290.249 156.415V145.751H292.875V143.644H293.22V145.751H303.275H305.277V143.644H305.622V145.751H308.055V166.971H323.557V174.776H332.192V170.239H340.18V152.244H344.163V143.837H344.766V152.244H354.326V136.506H355.273V152.244H361.603V152.029V150.029V148.137V144.998V142.999V139.86V137.86V134.721V132.55V129.411V126.637V123.498V121.413H363.476V119.069H363.778V121.413H377.73V119.069H378.032V121.413H380.572V137.86H382.359H382.338V134.721H382.359V132.55H382.338V129.411H382.359V127.239H382.338V124.1H382.359H399.283H402.19C402.34 124.186 402.491 124.272 402.642 124.358V145.342H405.764V142.311H441.506V165.896H452.422V122.23H454.79V119.177H455.221V122.23H463.834V119.177H464.264V122.23H476.472V119.177H476.903V122.23H484.59V119.177H485.02V122.23H488.185V162.951H500.243V156.35L514.454 156.415V145.751H517.317V143.644H517.705V145.751H528.686H530.882V143.644H531.269V145.751H533.918V166.971H550.841V174.776H560.25V170.239H568.971V152.244H573.32V143.837H573.987V152.244H584.43V136.506H585.464V152.244H590.588C590.028 157.06 589.21 161.962 588.112 166.971C587.466 169.917 586.712 172.905 585.851 175.937C563.545 255.121 652.813 258.69 609.256 336.477Z" fill="#DFEBFA"/>
    <path d="M498.628 15.611V336.499H487.389V11.44C491.2 12.73 494.946 14.106 498.628 15.611Z" fill="#AFCDFB"/>
    <path d="M182.442 111.48V336.692H42.8546C42.79 336.628 42.747 336.563 42.6824 336.477C40.1632 333.467 35.1034 327.103 29.1607 318.159C13.4214 294.38 -8.38977 252.283 -4.70793 205.564C-3.67443 192.384 -0.616991 178.818 5.19645 165.208C22.809 123.885 75.3237 96.0425 122.649 95.4835C140.8 95.677 158.09 99.59 172.451 107.889C175.143 109.459 178.523 110.663 182.442 111.48Z" fill="#CEE1FD"/>
    <path d="M397.905 1.61451V41.1315C397.905 44.206 397.151 46.7215 396.225 46.7215H395.989C395.063 46.7215 394.309 44.206 394.309 41.1315V2.06601C395.515 1.89401 396.699 1.74351 397.905 1.61451Z" fill="#9FC1F4"/>
    <path d="M395.17 37.2185C382.123 37.2185 371.551 48.377 371.551 62.1585H418.79C418.79 48.377 408.218 37.2185 395.17 37.2185Z" fill="#FFC864"/>
    <path d="M397.065 37.5195C396.376 37.369 395.687 37.3045 394.998 37.3045C386.493 37.3045 379.603 48.4415 379.603 62.1585H383.759C383.737 49.5595 389.551 39.1535 397.065 37.5195Z" fill="#FFDD90"/>
    <path d="M550.712 299.712C550.712 299.712 544.425 292.381 550.325 287.737C550.325 287.737 554.631 285.135 558.14 285.35C558.14 285.35 553.167 293.692 554.782 294.509C556.396 295.348 559.648 284.834 559.648 284.834C559.648 284.834 569.444 283.888 572.609 285.393C572.609 285.393 564.234 292.23 565.999 292.639C567.765 293.047 576.808 286.318 576.808 286.318C576.808 286.318 585.937 287.866 585.442 293.434C584.947 298.981 581.803 300.701 580.425 300.55C579.047 300.4 570.952 297.326 570.779 298.444C570.607 299.562 575.473 303.259 578.875 303.431C578.875 303.431 572.437 310.505 568.174 308.462C563.889 306.42 563.545 303.174 560.875 301.97C558.205 300.744 555.944 300.766 557.042 301.991C558.14 303.238 562.963 304.442 564.492 307.13C566.021 309.817 567.377 311.644 562.963 310.978C558.55 310.311 551.358 307.087 551.035 303.389C550.712 299.712 550.712 299.712 550.712 299.712Z" fill="#58C65C"/>
    <path d="M580.964 293.585C580.964 293.585 556.181 292.639 550.712 299.712C550.712 299.712 549.506 303.324 545.782 306.635L545.2 308.205C545.2 308.205 549.485 303.69 551.035 303.41C551.014 303.41 548.624 294.638 580.964 293.585Z" fill="#58C65C"/>
    <path d="M545.76 306.614C545.76 306.614 540.442 310.548 540.076 317.557L541.045 317.643C541.045 317.643 542.746 310.376 545.803 307.538C548.882 304.722 545.76 306.614 545.76 306.614Z" fill="#58C65C"/>
    <path d="M528.729 290.51C528.729 290.51 538.719 284.92 534.068 277.33C534.068 277.33 530.344 272.665 526.339 271.482C526.339 271.482 528.47 282.792 526.339 283.071C524.207 283.329 524.875 270.3 524.875 270.3C524.875 270.3 514.346 265.247 510.212 265.634C510.212 265.634 516.736 276.686 514.604 276.406C512.473 276.127 505.131 264.968 505.131 264.968C505.131 264.968 494.343 262.968 492.599 269.354C490.877 275.739 493.676 278.943 495.269 279.33C496.863 279.739 507.133 279.588 506.875 280.921C506.616 282.254 499.683 284.383 495.807 283.179C495.807 283.179 500.071 293.692 505.669 293.155C511.267 292.617 513.011 289.156 516.456 288.898C519.922 288.64 522.463 289.564 520.719 290.489C518.997 291.413 513.119 290.79 510.32 293.176C507.52 295.563 505.26 297.025 510.449 298.078C515.638 299.153 524.982 298.487 526.834 294.488C528.729 290.51 528.729 290.51 528.729 290.51Z" fill="#58C65C"/>
    <path d="M497.53 271.332C497.53 271.332 525.521 280.383 528.729 290.488C528.729 290.488 528.6 295.003 531.399 300.206V302.206C531.399 302.206 528.47 295.412 526.877 294.487C526.856 294.487 533.121 285.715 497.53 271.332Z" fill="#58C65C"/>
    <path d="M531.399 300.206C531.399 300.206 535.705 306.743 533.25 314.719L532.131 314.418C532.131 314.418 533.207 305.646 530.946 301.217C528.707 296.831 531.399 300.206 531.399 300.206Z" fill="#58C65C"/>
    <path d="M544.64 282.792C544.64 282.792 531.463 275.417 537.621 265.42C537.621 265.42 542.552 259.271 547.805 257.701C547.805 257.701 544.985 272.622 547.805 272.966C550.626 273.31 549.743 256.132 549.743 256.132C549.743 256.132 563.631 249.467 569.078 249.983C569.078 249.983 560.466 264.538 563.286 264.194C566.107 263.85 575.753 249.101 575.753 249.101C575.753 249.101 589.985 246.478 592.267 254.885C594.55 263.313 590.868 267.527 588.758 268.043C586.648 268.559 573.126 268.387 573.471 270.15C573.815 271.913 582.966 274.708 588.047 273.138C588.047 273.138 582.428 287.006 575.042 286.296C567.657 285.587 565.375 281.029 560.81 280.685C556.246 280.341 552.908 281.566 555.191 282.792C557.473 284.017 565.203 283.2 568.906 286.318C572.609 289.435 575.581 291.37 568.734 292.789C561.887 294.186 549.571 293.305 547.116 288.059C544.662 282.813 544.64 282.792 544.64 282.792Z" fill="#84DF88"/>
    <path d="M585.744 257.529C585.744 257.529 548.839 269.461 544.619 282.792C544.619 282.792 544.791 288.747 541.109 295.605V298.229C541.109 298.229 544.985 289.285 547.073 288.059C547.095 288.059 538.827 276.47 585.744 257.529Z" fill="#84DF88"/>
    <path d="M541.131 295.605C541.131 295.605 535.447 304.227 538.676 314.74L540.14 314.353C540.14 314.353 538.719 302.786 541.691 296.96C544.662 291.133 541.131 295.605 541.131 295.605Z" fill="#84DF88"/>
    <path d="M544.188 337.509C558.442 337.509 570.004 325.963 570.004 311.73H518.372C518.372 325.963 529.934 337.509 544.188 337.509Z" fill="#9FC1F4"/>
    <path d="M550.54 337.315C549.485 337.444 548.43 337.509 547.332 337.509C533.078 337.509 521.516 325.963 521.516 311.73H527.932C527.932 324.888 537.793 335.724 550.54 337.315Z" fill="#AFCDFB"/>
    <path d="M570.607 311.73H517.533V312.526H570.607V311.73Z" fill="#9FC1F4"/>
    <path d="M424.022 336.241L398.659 231.105L400.424 226.978L425.551 336.241C425.616 336.52 425.4 336.778 425.12 336.778H424.711C424.367 336.778 424.087 336.563 424.022 336.241Z" fill="#77A4E5"/>
    <path d="M309.541 336.778C309.024 336.778 308.615 336.305 308.701 335.789L316.172 290.575H319.38L310.466 336.004C310.38 336.456 309.993 336.778 309.541 336.778Z" fill="#77A4E5"/>
    <path d="M381.197 336.778C380.68 336.778 380.271 336.305 380.357 335.789L387.828 290.575H391.036L382.122 336.004C382.036 336.456 381.649 336.778 381.197 336.778Z" fill="#77A4E5"/>
    <path d="M398.572 290.682H309.347L327.842 174.947H417.068L398.572 290.682Z" fill="#F5FBFF"/>
    <path d="M405.247 289.779H302.78V293.176H405.247V289.779Z" fill="#77A4E5"/>
    <path d="M363.175 199.156C363.11 200.081 362.981 200.962 362.766 201.844C360.914 210.121 353.529 216.442 345.196 216.464C335.981 216.485 329.069 208.746 329.78 199.199C330.491 189.653 338.522 181.892 347.759 181.892C349.696 181.892 351.527 182.236 353.206 182.859C353.96 183.139 354.692 183.483 355.381 183.87C356.866 184.708 358.201 185.805 359.321 187.095C359.945 187.804 360.505 188.6 361 189.417C361.28 189.89 361.539 190.406 361.775 190.922C362.421 192.362 362.874 193.91 363.089 195.544C363.197 196.361 363.24 197.221 363.24 198.081C363.218 198.425 363.197 198.791 363.175 199.156Z" fill="#BDD1F9"/>
    <path d="M361.754 190.922L346.467 199.199C346.467 199.199 352.775 188.105 355.359 183.87C356.845 184.708 358.18 185.805 359.299 187.095C359.924 187.804 360.484 188.6 360.979 189.417C361.28 189.911 361.539 190.406 361.754 190.922Z" fill="white"/>
    <path d="M363.347 188.815L349.395 196.383C349.395 196.383 355.144 186.257 357.512 182.387C358.869 183.161 360.096 184.15 361.108 185.332C361.668 185.977 362.185 186.708 362.637 187.461C362.895 187.891 363.132 188.342 363.347 188.815Z" fill="#FFDD90"/>
    <path d="M391.467 281.867H318.024L325.452 239.555H398.895L391.467 281.867ZM318.627 281.437H391.036L398.314 239.985H325.904L318.627 281.437Z" fill="#BDD1F9"/>
    <path d="M387.096 276.062H321.964C321.964 276.062 333.526 269.87 336.692 270.193C339.857 270.515 344.421 273.03 347.35 273.116C350.278 273.202 353.443 264.431 356.716 264.839C359.967 265.248 361.194 273.03 362.895 272.256C364.596 271.482 369.656 271.16 372.563 272.256C375.491 273.353 379.733 268.795 382.295 268.945C384.857 269.117 387.096 276.062 387.096 276.062Z" fill="#FFDD90"/>
    <path d="M337.617 263.635H325.194L325.302 262.969H337.747L337.617 263.635Z" fill="#FFDD90"/>
    <path d="M337.381 265.054L324.936 265.032L325.043 264.387H337.488L337.381 265.054Z" fill="#FFDD90"/>
    <path d="M325.689 254.863H390.821C390.821 254.863 381.433 248.671 378.161 248.994C374.866 249.316 369.441 251.832 366.469 251.918C363.498 252.025 363.412 243.231 360.01 243.64C356.608 244.048 352.646 251.81 351.225 251.058C349.804 250.305 344.852 249.961 341.558 251.058C338.263 252.154 335.594 247.596 332.988 247.746C330.361 247.897 325.689 254.863 325.689 254.863Z" fill="#BDD1F9"/>
    <path d="M341.149 243.64H328.703L328.811 242.973H341.256L341.149 243.64Z" fill="#BDD1F9"/>
    <path d="M340.89 245.038H328.445L328.574 244.392H340.998L340.89 245.038Z" fill="#BDD1F9"/>
    <path d="M329.909 233.664H327.046L329.543 220.291H332.385L329.909 233.664Z" fill="#BDD1F9"/>
    <path d="M333.806 233.664H330.943L332.881 223.301H335.723L333.806 233.664Z" fill="#BDD1F9"/>
    <path d="M337.704 233.664H334.84L336.842 222.85H339.706L337.704 233.664Z" fill="#BDD1F9"/>
    <path d="M341.579 233.664H338.737L340.266 225.451H343.108L341.579 233.664Z" fill="#BDD1F9"/>
    <path d="M345.476 233.664H342.613L344.249 224.849H347.113L345.476 233.664Z" fill="#BDD1F9"/>
    <path d="M349.373 233.664H346.51L347.78 226.827H350.644L349.373 233.664Z" fill="#BDD1F9"/>
    <path d="M368.127 233.664H365.264L367.761 220.291H370.603L368.127 233.664Z" fill="#FFDD90"/>
    <path d="M372.024 233.664H369.161L371.077 223.301H373.941L372.024 233.664Z" fill="#FFDD90"/>
    <path d="M375.922 233.664H373.058L375.06 222.85H377.924L375.922 233.664Z" fill="#FFDD90"/>
    <path d="M379.797 233.664H376.955L378.462 225.451H381.326L379.797 233.664Z" fill="#FFDD90"/>
    <path d="M383.694 233.664H380.831L382.467 224.849H385.331L383.694 233.664Z" fill="#FFDD90"/>
    <path d="M387.591 233.664H384.728L385.998 226.827H388.862L387.591 233.664Z" fill="#FFDD90"/>
    <path d="M381.886 190.019H372.584L372.821 188.75H382.122L381.886 190.019Z" fill="#BDD1F9"/>
    <path d="M393.297 190.019H383.027L383.264 188.75H393.534L393.297 190.019Z" fill="#BDD1F9"/>
    <path d="M400.618 190.019H394.072L394.309 188.75H400.855L400.618 190.019Z" fill="#BDD1F9"/>
    <path d="M406.733 190.019H401.673L401.91 188.75H406.97L406.733 190.019Z" fill="#BDD1F9"/>
    <path d="M380.874 195.437H371.572L371.809 194.169H381.111L380.874 195.437Z" fill="#BDD1F9"/>
    <path d="M392.264 195.437H381.993L382.252 194.169H392.501L392.264 195.437Z" fill="#BDD1F9"/>
    <path d="M399.584 195.437H393.039L393.276 194.169H399.821L399.584 195.437Z" fill="#BDD1F9"/>
    <path d="M405.699 195.437H400.639L400.898 194.169H405.936L405.699 195.437Z" fill="#BDD1F9"/>
    <path d="M387.419 187.052H373.144L373.381 185.784H387.656L387.419 187.052Z" fill="#BDD1F9"/>
    <path d="M397.001 187.052H388.776L389.013 185.784H397.237L397.001 187.052Z" fill="#BDD1F9"/>
    <path d="M407.293 187.052H398.163L398.4 185.784H407.529L407.293 187.052Z" fill="#BDD1F9"/>
    <path d="M386.321 192.814H372.067L372.304 191.545H386.558L386.321 192.814Z" fill="#BDD1F9"/>
    <path d="M395.902 192.814H387.678L387.914 191.545H396.139L395.902 192.814Z" fill="#BDD1F9"/>
    <path d="M406.195 192.814H397.065L397.302 191.545H406.431L406.195 192.814Z" fill="#BDD1F9"/>
    <path d="M379.84 200.877H370.539L370.776 199.608H380.077L379.84 200.877Z" fill="#BDD1F9"/>
    <path d="M391.252 200.877H380.981L381.218 199.608H391.489L391.252 200.877Z" fill="#BDD1F9"/>
    <path d="M398.572 200.877H392.027L392.264 199.608H398.809L398.572 200.877Z" fill="#BDD1F9"/>
    <path d="M404.687 200.877H399.627L399.864 199.608H404.924L404.687 200.877Z" fill="#BDD1F9"/>
    <path d="M385.309 198.253H371.034L371.271 196.985H385.546L385.309 198.253Z" fill="#BDD1F9"/>
    <path d="M394.891 198.253H386.666L386.902 196.985H395.127L394.891 198.253Z" fill="#BDD1F9"/>
    <path d="M405.182 198.253H396.053L396.29 196.985H405.419L405.182 198.253Z" fill="#BDD1F9"/>
    <path d="M378.893 205.972H369.591L369.828 204.682H379.13L378.893 205.972Z" fill="#BDD1F9"/>
    <path d="M390.283 205.972H380.034L380.271 204.682H390.541L390.283 205.972Z" fill="#BDD1F9"/>
    <path d="M397.603 205.972H391.058L391.295 204.682H397.862L397.603 205.972Z" fill="#BDD1F9"/>
    <path d="M403.718 205.972H398.68L398.917 204.682H403.955L403.718 205.972Z" fill="#BDD1F9"/>
    <path d="M384.34 203.327H370.086L370.323 202.059H384.577L384.34 203.327Z" fill="#BDD1F9"/>
    <path d="M393.922 203.327H385.697L385.955 202.059H394.18L393.922 203.327Z" fill="#BDD1F9"/>
    <path d="M404.235 203.327H395.084L395.321 202.059H404.472L404.235 203.327Z" fill="#BDD1F9"/>
    <path d="M357.728 222.269H353.163L353.292 221.646H357.835L357.728 222.269Z" fill="#BDD1F9"/>
    <path d="M363.304 222.269H358.287L358.395 221.646H363.433L363.304 222.269Z" fill="#BDD1F9"/>
    <path d="M357.232 224.935H352.668L352.797 224.311H357.34L357.232 224.935Z" fill="#BDD1F9"/>
    <path d="M362.809 224.935H357.771L357.9 224.311H362.917L362.809 224.935Z" fill="#BDD1F9"/>
    <path d="M360.419 220.828H353.443L353.551 220.205H360.548L360.419 220.828Z" fill="#BDD1F9"/>
    <path d="M365.113 220.828H361.086L361.216 220.205H365.242L365.113 220.828Z" fill="#BDD1F9"/>
    <path d="M359.902 223.645H352.905L353.034 223.021H360.01L359.902 223.645Z" fill="#BDD1F9"/>
    <path d="M364.596 223.645H360.57L360.677 223.021H364.704L364.596 223.645Z" fill="#BDD1F9"/>
    <path d="M394.18 222.269H389.637L389.745 221.646H394.309L394.18 222.269Z" fill="#BDD1F9"/>
    <path d="M399.778 222.269H394.74L394.869 221.646H399.886L399.778 222.269Z" fill="#BDD1F9"/>
    <path d="M393.685 224.935H389.142L389.249 224.311H393.792L393.685 224.935Z" fill="#BDD1F9"/>
    <path d="M399.261 224.935H394.245L394.352 224.311H399.391L399.261 224.935Z" fill="#BDD1F9"/>
    <path d="M396.893 220.828H389.917L390.024 220.205H397.001L396.893 220.828Z" fill="#BDD1F9"/>
    <path d="M401.587 220.828H397.56L397.668 220.205H401.694L401.587 220.828Z" fill="#BDD1F9"/>
    <path d="M396.355 223.645H389.379L389.486 223.021H396.484L396.355 223.645Z" fill="#BDD1F9"/>
    <path d="M401.049 223.645H397.022L397.151 223.021H401.156L401.049 223.645Z" fill="#BDD1F9"/>
    <path d="M418.403 335.058C418.252 337.23 415.173 337.251 411.685 336.843C408.197 336.434 409.123 337.316 404.235 337.38C399.347 337.445 397.668 335.832 397.431 335.144C397.216 334.521 399.563 334.005 402.082 333.403C402.405 333.317 402.706 333.252 403.029 333.166C405.871 332.457 407.745 330.328 410.178 328.479C412.482 326.716 415.453 320.374 415.453 320.374L422.128 320.073C422.128 320.073 419.328 325.77 418.273 328.221C417.649 329.662 417.907 331.446 418.187 332.801C418.317 333.532 418.467 334.284 418.403 335.058Z" fill="#FFC864"/>
    <path d="M411.685 336.864C408.197 336.456 409.123 337.337 404.235 337.402C399.347 337.466 397.668 335.853 397.431 335.165C397.216 334.542 399.563 334.026 402.082 333.424L402.103 333.467C402.103 333.467 405.247 335.144 409.273 334.757C412.546 334.435 415.905 333.059 418.166 332.822C418.317 333.553 418.446 334.327 418.403 335.08C418.252 337.23 415.173 337.251 411.685 336.864Z" fill="#233862"/>
    <path d="M464.48 335.51C464.329 337.681 461.25 337.702 457.762 337.315C454.274 336.907 455.2 337.788 450.312 337.875C445.424 337.939 443.745 336.348 443.508 335.638C443.293 335.015 445.64 334.499 448.159 333.875C448.482 333.789 448.783 333.725 449.106 333.639C451.948 332.908 453.822 330.801 456.255 328.93C458.558 327.167 456.255 316.783 456.255 316.783L463.597 316.074C463.597 316.074 463.252 324.824 463.252 328.801C463.252 330.371 463.984 331.876 464.243 333.252C464.393 333.983 464.523 334.736 464.48 335.51Z" fill="#FFC864"/>
    <path d="M457.762 337.315C454.274 336.907 455.2 337.789 450.312 337.874C445.424 337.939 443.745 336.348 443.508 335.639C443.293 335.015 445.64 334.499 448.159 333.875L448.18 333.919C448.18 333.919 451.324 335.596 455.35 335.187C458.623 334.865 461.96 333.488 464.243 333.23C464.393 333.961 464.523 334.735 464.48 335.488C464.307 337.681 461.25 337.724 457.762 337.315Z" fill="#233862"/>
    <path d="M443.056 155.834C441.786 150.652 443.616 148.223 445.274 146.955C446.049 145.041 446.953 143.665 447.857 143.149C449.515 142.203 451.518 142.095 452.917 142.181C452.551 141.816 451.841 141.666 451.841 141.666C452.702 141.537 454.64 142.396 454.64 142.396C466.697 137.752 468.592 155.49 468.334 159.597C468.075 163.725 468.118 168.562 474.384 171.809C486.355 178.001 470.401 201.328 470.401 201.328C470.702 197.996 455.329 180.43 447.298 175.184C445.338 172.303 444.649 167.251 444.606 166.842C444.951 170.863 445.64 173.12 446.243 174.389C442.625 171.013 442.087 162.951 443.056 155.834Z" fill="#A9453D"/>
    <path d="M447.814 175.442C447.771 175.464 451.69 177.485 454.64 176.689C457.417 175.937 459.226 172.346 459.183 172.346C458.02 172.11 457.676 170.497 457.697 163.595L457.159 163.703L448.245 165.466C448.245 165.466 448.439 168.261 448.46 170.906C448.46 173.099 448.331 175.206 447.814 175.442Z" fill="#FFC864"/>
    <path d="M448.245 165.444C448.245 165.444 448.439 168.239 448.46 170.884C453.456 170.734 456.082 166.197 457.159 163.681L448.245 165.444Z" fill="#FFC864"/>
    <path d="M411.986 323.899C411.556 325.275 412.525 326.673 413.967 326.737L417.455 326.909L421.137 327.017C422.063 327.038 422.946 326.651 423.527 325.92C426.477 322.308 435.52 310.311 441.01 292.853C441.161 292.359 441.333 291.864 441.506 291.37C445.123 280.813 452.659 267.548 456.621 255.551C457.245 253.638 457.826 251.832 458.322 250.133C458.494 249.596 458.645 249.058 458.795 248.521C461.724 238.394 462.563 231.729 463.338 224.634L434.723 224.871C434.702 224.892 428.695 271.655 411.986 323.899Z" fill="#2A4E96"/>
    <path d="M438.707 208.488C438.771 222.076 436.704 227.924 436.704 227.924C436.704 227.924 448.955 234.137 463.511 229.558C463.683 229.493 473.932 226.612 473.932 226.612C473.695 226.053 471.671 216.959 471.434 216.464C468.355 209.864 467.515 207.112 467.149 205.069C466.482 201.285 466.46 197.372 466.805 193.674C467.688 183.892 470.336 175.786 470.336 175.786C466.374 174.883 462.649 173.292 458.515 171.766C457.568 172.948 454.661 174.174 452.142 174.131C449.235 174.066 448.31 172.819 448.46 171.465C445.36 173.185 442.905 174.797 442.905 174.797C440.278 179.355 434.96 183.784 434.573 190.772C434.486 192.492 438.707 208.101 438.707 208.488Z" fill="white"/>
    <path d="M463.317 209.992C464.566 211.755 466.956 222.506 472.941 223.86C469.862 216.206 467.537 212.852 467.171 210.487C466.504 206.101 466.482 201.543 466.826 197.265C464.824 193.76 463.338 191.373 463.338 191.373C463.188 190.814 460.173 181.483 459.204 189.825C458.214 198.146 461.917 208.014 463.317 209.992Z" fill="#5F9AA8"/>
    <path d="M446.587 167.938C446.587 167.938 458.386 168.132 458.408 160.8C458.408 153.469 459.937 148.546 452.401 148.116C444.865 147.686 443.4 150.48 442.798 152.931C442.195 155.361 443.508 167.702 446.587 167.938Z" fill="#FFC864"/>
    <path d="M447.018 147.922C447.018 147.922 450.247 156.543 455.2 157.812C460.152 159.08 462.305 157.769 462.305 157.769C462.305 157.769 458.494 154.759 457.719 149.491C457.74 149.47 449.451 143.815 447.018 147.922Z" fill="#A9453D"/>
    <path d="M447.814 148.61C447.814 148.61 445.403 150.523 444.821 152.394C444.24 154.264 443.96 158.113 442.841 157.984C442.841 157.984 440.408 152.136 443.142 148.825C446.049 145.321 447.814 148.61 447.814 148.61Z" fill="#A9453D"/>
    <path d="M428.006 217.926L422.451 234.889L425.616 236.158L434.831 221.173L428.006 217.926Z" fill="#FFC864"/>
    <path d="M443.034 173.808C443.034 173.808 436.467 176.41 434.551 180.473C432.656 184.537 429.771 211.777 428.63 214.572C427.489 217.367 426.628 219.581 426.628 219.581C426.628 219.581 429.943 222.376 433.281 222.57C436.618 222.763 443.034 173.808 443.034 173.808Z" fill="#FFDD90"/>
    <path d="M448.46 171.465C448.46 171.465 441.635 188.299 441.441 191.718C441.247 195.136 440.644 247.467 440.644 247.467C440.644 247.467 441.054 249.875 436.424 248.865C431.795 247.854 430.611 246.865 430.611 246.865C430.611 246.865 435.025 214.572 433.819 203.349C432.613 192.126 443.056 173.808 443.056 173.808L448.46 171.465Z" fill="#FFDD90"/>
    <path d="M417.455 326.909L421.46 327.038C422.171 327.06 422.86 326.759 423.312 326.2C426.003 322.953 435.369 310.784 441.01 292.875C441.161 292.38 441.333 291.886 441.506 291.391C445.123 280.835 452.659 267.57 456.621 255.573C457.245 253.659 457.826 251.853 458.322 250.155C458.494 249.617 458.645 249.08 458.795 248.542L454.575 245.36C454.575 245.36 441.915 265.806 438.018 285.07C434.594 301.797 420.965 321.921 417.455 326.909Z" fill="#1E3D70"/>
    <path d="M454.123 286.855C454.058 295.713 454.467 315.45 455.544 325.104C455.652 325.985 456.384 326.652 457.288 326.652H460.281C461.53 326.652 462.477 326.652 463.102 326.63C463.64 326.63 464.113 326.243 464.2 325.706C467.171 310.613 469.303 298.078 470.853 287.264C472.145 278.191 473.307 270.429 474.19 263.742C475.094 257.013 475.719 251.38 475.934 246.607C475.977 245.854 475.999 245.123 475.999 244.414C476.02 243.704 476.02 243.016 476.02 242.328L451.302 239.92C451.625 256.346 454.166 281.416 454.123 286.855Z" fill="#2A4E96"/>
    <path d="M460.281 326.652C461.422 326.652 462.283 326.652 462.908 326.63C463.575 326.63 464.135 326.157 464.264 325.512C467.214 310.505 469.324 298.035 470.874 287.264C472.166 278.191 473.329 270.429 474.212 263.742C475.116 257.013 475.74 251.38 475.956 246.607L466.891 251.939C466.891 251.939 472.683 253.981 470.465 269.419C468.247 284.856 463.36 324.48 460.281 326.652Z" fill="#1E3D70"/>
    <path d="M459.118 246.456C459.118 246.456 460.862 252.734 466.891 251.939C472.92 251.144 481.489 247.532 481.489 247.532C481.489 247.532 478.906 239.404 475.719 228.74C471.843 215.819 467.042 199.157 464.781 188.665C464.157 185.719 463.704 183.268 463.554 181.505L458.558 171.83C458.558 171.83 451.109 188.536 450.7 192.75C450.269 196.921 459.118 246.456 459.118 246.456Z" fill="#FFDD90"/>
    <path d="M465.125 192.083L458.537 171.787C458.558 171.787 466.869 174.259 471.047 176.366C471.047 176.366 473.652 179.742 475.288 187.503C475.288 187.503 476.989 206.144 473.178 212.959C473.178 212.959 461.121 215.367 441.85 208.745V204.338C441.85 204.338 462.929 205.434 467.257 205.95L465.125 192.083Z" fill="#FFC864"/>
    <path d="M459.377 201.543C459.656 208.358 461.25 221.602 475.568 228.676C475.611 228.697 475.654 228.719 475.676 228.74C471.8 215.819 466.999 199.156 464.738 188.664C462.133 192.577 459.226 197.78 459.377 201.543Z" fill="#FFC864"/>
    <path d="M458.537 171.809C458.537 171.809 470.767 172.669 473.716 179.226C476.666 185.784 477.592 207.563 473.846 213.992C473.846 213.992 468.678 215.454 459.549 213.755C459.441 213.734 459.334 213.712 459.204 213.691C459.204 213.691 456.298 206.574 458.903 205.177C458.903 205.177 466.611 205.585 465.793 203.048C464.975 200.511 458.537 171.809 458.537 171.809Z" fill="#FFDD90"/>
    <path d="M427.876 207.068L428.242 208.229L448.31 201.994C448.31 201.994 448.568 201.693 448.439 201.285C448.288 200.833 447.943 200.833 447.943 200.833L427.876 207.068Z" fill="#A9453D"/>
    <path d="M426.412 208.165L427.876 207.069L428.221 208.23L426.412 208.165Z" fill="#A9453D"/>
    <path d="M423.226 234.438C423.226 234.438 418.144 237.254 417.455 239.383C416.788 241.533 417.24 246.005 418.058 245.94C418.876 245.876 420.082 241.124 420.75 240.78C421.417 240.436 422.364 239.447 422.364 240.178C422.364 240.909 421.697 242.242 422.02 242.457C422.364 242.651 423.419 240.587 424.173 240.178C424.905 239.77 425.228 236.48 425.939 235.577C426.649 234.674 423.226 234.438 423.226 234.438Z" fill="#FFC864"/>
    <path d="M441.85 204.338C441.85 204.338 437.307 201.543 435.391 201.973C433.474 202.403 428.608 205.929 430.955 206.682C433.302 207.434 435.197 206.639 436.101 207.198C437.006 207.757 437.673 208.767 441.872 208.746C446.07 208.724 441.85 204.338 441.85 204.338Z" fill="#FFC864"/>
    <g opacity="0.6">
        <g opacity="0.6">
            <path opacity="0.6" d="M221.37 336.778H221.306C220.853 336.778 220.509 336.413 220.509 335.983L221.715 284.254L225.246 283.845L222.253 335.983C222.188 336.413 221.822 336.778 221.37 336.778Z" fill="#77A4E5"/>
        </g>
        <g opacity="0.6">
            <path opacity="0.6" d="M200.851 336.778H200.786C200.334 336.778 199.99 336.413 199.99 335.983L201.195 284.254L204.727 283.845L201.734 335.983C201.669 336.413 201.303 336.778 200.851 336.778Z" fill="#77A4E5"/>
        </g>
        <g opacity="0.6">
            <path opacity="0.6" d="M257.478 336.778H257.543C257.995 336.778 258.339 336.413 258.339 335.983L257.134 284.254L253.602 283.845L256.595 335.983C256.638 336.413 257.026 336.778 257.478 336.778Z" fill="#77A4E5"/>
        </g>
        <path opacity="0.6" d="M198.526 281.029V245.575C198.526 239.34 203.586 234.288 209.83 234.288H235.409C241.653 234.288 246.713 239.34 246.713 245.575V282.383L198.526 281.029Z" fill="#77A4E5"/>
        <path opacity="0.6" d="M251.299 286.618H201.906C200.033 286.618 198.504 285.092 198.504 283.221V281.007H251.277V286.618H251.299Z" fill="#77A4E5"/>
        <path opacity="0.6" d="M257.22 286.618H219.863C218.485 286.618 217.344 285.5 217.344 284.103V283.522C217.344 282.146 218.464 281.007 219.863 281.007H257.22C258.598 281.007 259.739 282.125 259.739 283.522V284.103C259.739 285.5 258.598 286.618 257.22 286.618Z" fill="#77A4E5"/>
    </g>
    <path d="M285.167 316.138C285.533 317.922 288.074 317.621 290.916 316.933C293.758 316.245 293.091 317.062 297.117 316.611C301.143 316.159 302.392 314.654 302.5 314.052C302.608 313.515 300.605 313.321 298.474 313.085C298.194 313.063 297.935 313.02 297.655 312.977C295.244 312.676 293.457 311.107 291.261 309.838C289.172 308.634 286.072 303.69 286.072 303.69L280.517 304.12C280.517 304.12 283.423 308.527 284.543 310.462C285.21 311.601 285.167 313.085 285.081 314.246C285.081 314.869 285.038 315.514 285.167 316.138Z" fill="#FFC864"/>
    <path d="M290.916 316.933C293.758 316.245 293.091 317.062 297.117 316.611C301.143 316.159 302.392 314.655 302.5 314.053C302.608 313.515 300.605 313.322 298.474 313.085L298.452 313.128C298.452 313.128 296.019 314.848 292.66 314.934C289.926 314.998 287.019 314.225 285.124 314.246C285.081 314.87 285.038 315.514 285.167 316.138C285.533 317.922 288.074 317.621 290.916 316.933Z" fill="#233862"/>
    <path d="M237.497 324.115C236.399 325.555 238.294 327.275 240.705 328.93C243.117 330.586 242.04 330.629 245.055 333.381C248.069 336.133 250.007 336.025 250.545 335.724C251.019 335.445 249.835 333.832 248.607 332.069C248.457 331.854 248.306 331.618 248.134 331.403C246.756 329.382 246.756 327.039 246.26 324.545C245.787 322.18 249.662 313.494 249.662 313.494L243.461 312.72C243.461 312.72 242.643 317.966 241.954 320.073C241.545 321.32 239.822 322.137 238.897 322.825C238.401 323.212 237.885 323.599 237.497 324.115Z" fill="#FFC864"/>
    <path d="M240.705 328.93C243.095 330.607 242.04 330.629 245.055 333.381C248.069 336.133 250.007 336.025 250.545 335.724C251.019 335.445 249.834 333.832 248.607 332.069L248.564 332.091C248.564 332.091 245.679 331.403 243.375 328.952C241.502 326.931 240.167 324.244 238.897 322.846C238.401 323.233 237.885 323.62 237.497 324.136C236.399 325.555 238.315 327.275 240.705 328.93Z" fill="#233862"/>
    <path d="M262.839 279.738L257.177 294.96L249.77 314.848C249.77 314.848 247.767 315.041 245.83 314.482C244.064 313.966 242.019 312.633 242.019 312.633C242.019 312.633 244.064 291.284 247.897 279.029C248.887 275.89 249.985 273.331 251.191 271.912C257.177 264.903 262.839 279.738 262.839 279.738Z" fill="#163560"/>
    <path d="M257.09 255.573C253.387 254.369 242.191 255.1 231.554 257.164L229.918 254.326L206.944 252.541C206.944 252.541 199.365 269.333 203.521 280.018C204.124 281.588 205.351 282.598 207.418 282.641H207.762C207.762 282.641 221.435 282.641 225.87 282.641C237.303 282.641 250.05 274.794 251.708 274.471C254.399 273.934 255.497 279.33 258.189 284.985C260.88 290.639 283.574 310.054 283.574 310.054C283.574 310.054 287.062 310.097 288.505 309.559C290.055 308.979 290.615 308.226 290.615 308.226C290.615 308.226 265.466 258.26 257.09 255.573Z" fill="#2A4E96"/>
    <path d="M221.865 184.881C218.636 184.107 214.243 185.01 213.511 185.096C204.791 186.106 202.832 199.651 203.478 203.435C204.683 210.401 201.325 212.379 197.32 217.948C189.289 229.128 194.844 238.351 201.368 240.63C205.286 242.006 210.626 238.265 210.626 238.265C210.734 238.308 224.492 225.172 231.318 218.786C242.794 214.078 230.112 186.837 221.865 184.881Z" fill="#233862"/>
    <path d="M223.739 216.786C223.782 216.808 220.186 219.151 217.258 218.657C214.502 218.205 211.595 214.615 211.617 214.593C212.736 214.249 213.705 212.959 213.016 206.273L213.533 206.316L222.339 207.155C222.339 207.155 222.425 209.885 222.662 212.443C222.899 214.572 223.222 216.593 223.739 216.786Z" fill="#FFC864"/>
    <path d="M222.361 207.155C222.361 207.155 222.447 209.885 222.684 212.444C217.839 212.788 214.846 208.638 213.554 206.316L222.361 207.155Z" fill="#FFC864"/>
    <path d="M224.212 209.412C224.212 209.412 212.801 210.745 212.09 203.629C211.38 196.512 209.42 191.911 216.655 190.75C223.911 189.589 225.59 192.169 226.43 194.491C227.27 196.813 227.162 208.875 224.212 209.412Z" fill="#FFC864"/>
    <path d="M225.052 190.836C225.052 190.836 219.54 198.705 214.868 200.425C210.195 202.145 207.978 201.07 207.978 201.07C207.978 201.07 210.217 197.996 210.949 193.782C211.164 192.535 212.026 191.503 213.231 191.094C216.59 189.912 223.05 188.106 225.052 190.836Z" fill="#233862"/>
    <path d="M220.509 191.416C220.509 191.416 223.459 193.093 224.621 194.598C225.763 196.039 226.968 199.887 226.796 201.586C226.796 201.586 228.648 193.502 225.676 190.556C222.533 187.46 220.509 191.416 220.509 191.416Z" fill="#233862"/>
    <path d="M232.523 235.642C232.179 258.647 232.437 253.853 229.918 256.024C229.315 256.54 227.593 256.863 225.353 257.013C218.291 257.486 205.868 256.325 205.394 255.014C203.758 250.499 204.92 249.101 203.564 242.2C203.413 241.469 203.241 240.673 203.047 239.813C201.906 235.062 200.808 233.449 204.834 225.838C208.473 218.937 212.413 213.411 212.758 213.626C222.382 219.324 223.007 214.443 223.007 214.443C223.007 214.443 232.674 224.419 232.523 235.642Z" fill="white"/>
    <path d="M257.177 294.96L249.619 315.665C249.619 315.665 246.906 316.547 244.925 316.267C242.901 315.966 241.803 314.87 241.803 314.87C241.803 314.87 244.107 291.284 247.94 279.029L257.177 294.96Z" fill="#2A4E96"/>
    <path d="M222.985 214.422C222.985 214.422 232.889 216.099 234.052 220.356C235.215 224.613 243.72 248.069 243.72 248.069C243.72 248.069 237.023 250.542 234.698 248.22C232.373 245.898 226.602 226.677 226.602 226.677L222.985 214.422Z" fill="white"/>
    <path d="M225.332 257.013C218.27 257.486 205.846 256.325 205.372 255.014C203.736 250.499 204.899 249.101 203.542 242.2L206.858 234.674C206.858 234.674 206.384 243.296 209.55 246.113C212.693 248.929 222.447 251.531 223.975 253.874C224.707 254.971 225.203 256.11 225.332 257.013Z" fill="#DFEBFD"/>
    <path d="M225.913 252.09C225.913 252.09 228.023 253.895 228.626 254.046C229.229 254.196 229.574 254.046 229.574 254.046L228.045 252.262L225.913 252.09Z" fill="#FFC864"/>
    <path d="M225.074 249.961L230.392 251.337C230.392 251.337 230.263 251.724 229.66 251.81C229.057 251.896 227.442 251.659 227.442 251.659L225.074 249.961Z" fill="#FFC864"/>
    <path d="M216.052 252.906C216.052 252.906 223.652 249.531 225.095 249.982C226.538 250.434 230.176 252.369 230.758 253.186C231.339 254.003 227.765 253.078 226.645 253.014C225.913 252.971 224.255 253.96 223.416 254.433C219.906 256.432 217.473 256.26 217.473 256.26L216.052 252.906Z" fill="#FFC864"/>
    <path d="M212.736 213.605C212.736 213.605 201.971 215.626 199.99 218.593C195.64 225.086 186.382 252.025 191.571 255.637C197.406 259.701 218.14 256.69 218.14 256.69C218.14 256.69 218.829 253.466 217.861 251.918C216.892 250.37 201.303 247.832 200.571 247.123C199.86 246.413 207.676 236.007 206.858 234.008C204.188 227.644 212.736 213.605 212.736 213.605Z" fill="white"/>
    <path d="M255.26 251.745C255.26 251.745 262.796 253.766 263.571 254.949C264.347 256.11 265.854 259.679 265.789 260.625C265.725 261.55 263.679 258.776 262.904 258.067C262.409 257.615 260.6 257.336 259.717 257.185C257.478 256.82 256.401 255.809 255.562 255.293C255.002 254.949 254.313 255.014 254.313 255.014L255.26 251.745Z" fill="#FFC864"/>
    <path d="M262.925 256.992C262.925 256.992 263.378 259.55 263.722 260.001C264.067 260.453 264.39 260.56 264.39 260.56L264.347 258.346L262.925 256.992Z" fill="#FFC864"/>
    <path d="M263.571 254.949L266.629 259.099C266.629 259.099 266.306 259.292 265.811 259.013C265.315 258.733 264.282 257.594 264.282 257.594L263.571 254.949Z" fill="#FFC864"/>
    <path d="M255.562 255.293C255.562 255.293 256.251 256.991 257.65 257.593C259.05 258.195 260.062 259.12 260.299 258.776C260.514 258.453 259.244 256.734 259.244 256.734L255.562 255.293Z" fill="#FFC864"/>
    <path d="M241.717 242.522L257.564 252.52C257.564 252.52 255.906 254.734 255.347 254.949C252.418 256.024 239.22 254.992 234.698 248.22L241.717 242.522Z" fill="white"/>
    <path d="M235.43 253.38C236.356 253.38 245.657 252.735 245.657 252.735C245.657 252.735 245.399 254.39 245.959 255.25L236.894 256.992L235.043 256.454L235.43 253.38Z" fill="#F9DDBF"/>
    <path d="M219.928 254.885L235.43 253.401C235.43 253.401 234.892 256.261 236.916 257.013L219.82 258.26C219.82 258.26 218.442 256.304 219.928 254.885Z" fill="#FFDD90"/>
    <path d="M245.636 252.95L235.15 253.745C235.15 253.745 235.236 253.38 235.43 253.38C235.624 253.38 245.851 252.627 245.851 252.627L245.808 252.907L245.636 252.95Z" fill="#FFDD90"/>
    <path d="M236.916 256.992L246.131 255.25L246.067 255.014L236.227 256.884L236.916 256.992Z" fill="#FFDD90"/>
    <path d="M129.518 336.692H129.432C128.937 336.692 128.549 336.284 128.549 335.789L129.884 278.019L133.803 277.567L130.465 335.789C130.422 336.305 130.013 336.692 129.518 336.692Z" fill="#77A4E5"/>
    <path d="M106.738 336.692H106.652C106.156 336.692 105.769 336.284 105.769 335.789L107.104 278.019L111.023 277.567L107.685 335.789C107.642 336.305 107.233 336.692 106.738 336.692Z" fill="#77A4E5"/>
    <path d="M169.587 336.692H169.674C170.169 336.692 170.556 336.284 170.556 335.789L169.221 278.019L165.303 277.567L168.64 335.789C168.662 336.305 169.092 336.692 169.587 336.692Z" fill="#77A4E5"/>
    <path d="M104.155 274.45V234.868C104.155 227.902 109.774 222.248 116.707 222.248H145.107C152.04 222.248 157.66 227.902 157.66 234.868V275.954L104.155 274.45Z" fill="#77A4E5"/>
    <path d="M162.741 280.685H107.922C105.833 280.685 104.133 278.986 104.133 276.9V274.428H162.719V280.685H162.741Z" fill="#77A4E5"/>
    <path d="M169.308 280.685H127.838C126.288 280.685 125.039 279.438 125.039 277.89V277.223C125.039 275.675 126.288 274.428 127.838 274.428H169.286C170.836 274.428 172.085 275.675 172.085 277.223V277.89C172.085 279.438 170.836 280.685 169.308 280.685Z" fill="#77A4E5"/>
    <path d="M147.001 207.628C147.001 207.628 144.633 209.648 144.116 214.873C143.728 218.85 146.484 249.703 148.573 252.154C154.429 259.055 161.75 256.131 164.614 257.185L167.327 254.755C167.327 254.755 157.81 247.747 157.078 245.446C154.279 236.653 156.001 210.96 147.001 207.628Z" fill="#F9DDBF"/>
    <path d="M145.3 182.473C145.3 182.473 145.451 176.818 137.98 175.7C130.508 174.582 128.441 176.345 127.171 178.237C125.901 180.15 123.511 187.912 123.747 191.008C123.984 194.104 132.511 197.931 132.382 199.737C132.231 201.522 145.3 182.473 145.3 182.473Z" fill="#163560"/>
    <path d="M179.966 331.812C179.729 333.725 182.334 334.284 185.37 334.564C188.406 334.822 187.458 335.424 191.614 336.348C195.77 337.273 197.471 336.176 197.793 335.617C198.073 335.123 196.179 334.263 194.133 333.274C193.875 333.145 193.616 333.037 193.358 332.908C191.076 331.79 189.848 329.619 188.104 327.576C186.446 325.641 185.025 319.621 185.025 319.621L179.406 318.18C179.406 318.18 180.805 323.598 181.279 325.92C181.559 327.275 181.021 328.758 180.547 329.898C180.31 330.5 180.052 331.124 179.966 331.812Z" fill="#FFC864"/>
    <path d="M185.37 334.542C188.406 334.8 187.459 335.402 191.614 336.327C195.77 337.251 197.471 336.155 197.794 335.596C198.073 335.101 196.179 334.241 194.133 333.252L194.09 333.295C194.09 333.295 191.119 334.198 187.76 333.145C185.025 332.284 182.42 330.5 180.525 329.898C180.267 330.521 180.03 331.145 179.944 331.811C179.729 333.725 182.334 334.284 185.37 334.542Z" fill="#233862"/>
    <path d="M137.85 253.831C137.85 253.831 175.466 257.722 181.667 263.484C187.868 269.225 186.769 322.803 186.769 322.803C185.801 323.813 185.09 323.77 183.561 323.663C182.097 323.555 179.104 322.287 179.104 322.287C179.104 322.287 171.052 295.992 170.944 289.886C170.836 283.802 169.566 273.46 167.004 272.858C164.442 272.256 133.996 275.653 130.659 266.064C127.322 256.454 132.855 248.563 132.855 248.563L137.85 253.831Z" fill="#FFC864"/>
    <path d="M120.281 263.484C121.896 264.559 124.803 266.236 129.669 266.408C138.389 266.731 149.262 265.677 151.394 263.678C151.953 263.162 152.212 262.302 152.298 261.205C152.535 257.873 150.941 252.369 149.865 247.832C149.176 244.887 148.702 242.328 149.09 241.017C150.274 237.039 153.934 228.955 154.257 226.311C154.58 223.645 151.394 209.412 147.001 207.649C142.609 205.886 125.664 207.649 125.664 207.649C119.032 208.982 118.752 223.086 120.97 235.083C121.035 235.384 121.078 235.706 121.142 236.007C123.511 248.176 115.759 260.453 120.281 263.484Z" fill="#F9DDBF"/>
    <path d="M142.178 210.229C142.049 211.003 139.939 212.25 135.417 211.068C131.068 209.928 130.551 208.509 130.551 207.585C130.551 206.488 132.446 205.005 132.425 198.211L132.941 198.318L141.705 200.06C141.705 200.06 141.511 202.812 141.489 205.392C141.468 207.542 142.372 208.939 142.178 210.229Z" fill="#FFC864"/>
    <path d="M141.683 200.016C141.683 200.016 141.489 202.769 141.468 205.349C136.559 205.22 133.975 200.747 132.92 198.275L141.683 200.016Z" fill="#FFC864"/>
    <path d="M143.319 202.489C143.319 202.489 131.736 202.683 131.714 195.48C131.714 188.277 130.207 183.44 137.614 183.01C145.02 182.58 146.463 185.332 147.044 187.74C147.626 190.126 146.334 202.253 143.319 202.489Z" fill="#FFC864"/>
    <path d="M142.889 182.816C142.889 182.816 139.724 191.266 134.836 192.534C129.97 193.781 127.86 192.491 127.86 192.491C127.86 192.491 131.585 189.524 132.36 184.364C132.382 184.343 140.499 178.796 142.889 182.816Z" fill="#163560"/>
    <path d="M142.114 183.504C142.114 183.504 144.482 185.396 145.064 187.224C145.645 189.051 145.903 192.835 147.001 192.706C147.001 192.706 149.391 186.966 146.7 183.698C143.836 180.258 142.114 183.504 142.114 183.504Z" fill="#163560"/>
    <path d="M151.717 333.381C151.695 335.316 154.343 335.574 157.401 335.488C160.458 335.402 159.575 336.111 163.796 336.541C168.016 336.971 169.588 335.681 169.846 335.101C170.083 334.563 168.08 333.94 165.949 333.209C165.69 333.123 165.41 333.015 165.152 332.929C162.762 332.069 161.298 330.07 159.339 328.242C157.487 326.522 161.578 318.18 161.578 318.18L156.217 315.536C156.217 315.536 155.205 321.491 153.891 326.694C153.547 328.049 152.449 330.263 152.104 331.424C151.91 332.048 151.738 332.693 151.717 333.381Z" fill="#FFC864"/>
    <path d="M120.518 262.044C122.133 263.119 124.803 266.237 129.69 266.409C137.721 264.581 146.872 262.452 152.32 261.184C152.556 257.851 150.963 252.348 149.886 247.811C143.535 249.746 134.104 243.146 130.917 240.544C127.58 237.814 127.688 228.698 127.688 228.698L120.97 235.062C121.035 235.363 121.078 235.685 121.142 235.986C123.511 248.177 115.975 259.034 120.518 262.044Z" fill="#FFE6A3"/>
    <path d="M157.401 335.488C160.458 335.402 159.575 336.111 163.796 336.541C168.016 336.971 169.588 335.681 169.846 335.101C170.083 334.563 168.08 333.94 165.949 333.209L165.927 333.252C165.927 333.252 163.085 334.499 159.619 333.832C156.798 333.295 154.02 331.833 152.083 331.446C151.91 332.091 151.717 332.736 151.717 333.424C151.695 335.294 154.343 335.574 157.401 335.488Z" fill="#233862"/>
    <path d="M129.733 256.11C139.293 255.83 167.8 258.109 173.291 262.237C180.03 267.312 160.76 322.223 160.76 322.223C160.76 322.223 158.521 322.438 157.81 322.352C154.753 322.008 153.504 321.083 153.504 321.083C153.504 321.083 153.568 288.769 155.829 282.577C157.918 276.858 159.188 274.837 156.583 274.493C153.977 274.149 121.444 278.298 118.731 268.494C116.621 260.84 119.743 253.745 119.743 253.745C119.743 253.745 120.927 256.368 129.733 256.11Z" fill="#FFDD90"/>
    <path d="M125.664 207.627C125.664 207.627 119.032 208.186 118.515 213.432C118.128 217.41 115.243 245.596 117.31 248.047C123.166 254.949 142.652 256.411 145.516 257.465L146.312 254.196C146.312 254.196 125.492 243.726 125.814 241.34C126.137 238.975 132.015 206.681 125.664 207.627Z" fill="#F9DDBF"/>
    <path d="M130.788 178.538C130.788 178.538 131.262 175.528 127.063 174.732C122.865 173.958 122.8 182.859 122.348 184.988C121.896 187.138 123.015 188.428 124.609 188.557C126.202 188.686 130.788 178.538 130.788 178.538Z" fill="#163560"/>
    <path d="M146.528 254.067C146.528 254.067 152.449 252.39 153.87 252.777C155.291 253.164 160.114 256.368 159.446 257.228C158.757 258.088 154.494 256.712 152.535 256.97C150.575 257.228 149.047 258.195 147.647 257.98C146.226 257.765 144.762 257.228 144.762 257.228L146.528 254.067Z" fill="#FFC864"/>
    <path d="M146.528 254.067C146.528 254.067 149.434 252.584 150.252 251.724C150.36 251.616 150.532 251.638 150.618 251.767C150.834 252.111 151.049 252.777 150.037 253.465C148.573 254.411 146.528 254.067 146.528 254.067Z" fill="#FFC864"/>
    <path d="M167.305 254.777C167.305 254.777 173.463 255.121 174.669 255.938C175.875 256.776 179.406 261.356 178.48 261.958C177.554 262.56 173.98 259.872 172.042 259.485C170.104 259.098 168.36 259.529 167.09 258.862C165.82 258.195 164.614 257.206 164.614 257.206L167.305 254.777Z" fill="#FFC864"/>
    <path d="M125.061 337.187H100.02C98.8143 335.725 99.2664 330.307 99.4387 328.544C99.4817 328.178 99.5033 327.985 99.5033 327.985C99.5033 327.985 108.051 321.169 109.214 326.394C109.257 326.566 109.3 326.716 109.343 326.866C110.829 331.747 117.46 333.983 121.293 334.607C123.791 334.994 124.716 336.284 125.061 337.187Z" fill="#1B3051"/>
    <path d="M56.7638 255.981C57.6681 255.981 99.6325 263.85 106.566 272.428C110.032 276.707 110.549 326.222 110.549 326.222C110.549 326.222 106.264 331.532 96.9842 328.458C96.9842 328.458 90.1803 294.595 90.697 284.318C90.8262 281.48 62.0174 283.91 56.7423 282.534C51.4671 281.179 38.5914 269.72 41.4336 264.129C44.2972 258.561 56.7638 255.981 56.7638 255.981Z" fill="#233862"/>
    <path d="M87.1443 253.659C87.1443 253.659 89.8357 255.981 92.5917 256.626C94.1635 256.992 95.6922 257.421 96.5966 257.83C99.0942 258.969 103.81 264.065 103.379 264.581C101.979 266.215 96.2951 261.979 95.197 262.28C94.1205 262.581 96.9841 265.032 95.843 265.699C95.2401 266.043 94.1205 263.914 93.087 263.613C91.6659 263.205 90.7401 261.077 90.3094 260.926C89.4913 260.647 86.0247 257.55 86.0247 257.55L87.1443 253.659Z" fill="#FFC864"/>
    <path d="M136.128 337.187H111.087C109.881 335.725 110.334 330.307 110.506 328.544C110.549 328.178 110.57 327.985 110.57 327.985C110.57 327.985 119.118 321.169 120.281 326.394C120.324 326.566 120.367 326.716 120.41 326.866C121.896 331.747 128.527 333.983 132.36 334.607C134.858 334.994 135.783 336.284 136.128 337.187Z" fill="#1E3C68"/>
    <path d="M69.1442 255.981C70.0485 255.981 112.013 263.85 118.946 272.428C122.413 276.707 122.929 326.222 122.929 326.222C122.929 326.222 118.645 331.532 109.365 328.458C109.365 328.458 102.561 294.595 103.077 284.318C103.207 281.48 74.3979 283.91 69.1227 282.534C63.8475 281.179 50.9719 269.72 53.814 264.129C56.6561 258.561 69.1442 255.981 69.1442 255.981Z" fill="#2B478B"/>
    <path d="M66.5175 205.069C63.5031 204.811 60.338 204.015 57.6035 203.134C54.1801 202.016 51.4241 200.404 53.2112 197.286C54.8475 194.405 57.4959 187.977 57.3236 182.666L63.6969 187.783L68.0247 191.266C68.0247 191.266 68.0031 193.308 67.5295 196.92C67.4433 197.565 67.3357 198.275 67.228 199.049C67.1419 199.651 67.4218 200.275 67.9385 200.597C67.9816 200.619 68.0031 200.64 68.0462 200.661C70.1347 201.973 69.0366 205.262 66.5175 205.069Z" fill="#FFC864"/>
    <path d="M67.9815 190.406C67.9815 190.406 68.1968 191.158 67.8308 193.911C63.9767 193.287 60.381 190.213 60.381 190.213C62.3403 189.675 63.0509 187.568 64.515 187.761L67.9815 190.406Z" fill="#FFC864"/>
    <path d="M71.5558 191.03C71.5558 191.03 56.7422 193.481 55.3427 184.257C53.9432 175.012 51.101 169.1 60.5102 167.143C69.9194 165.187 72.2878 168.433 73.5151 171.4C74.6993 174.367 75.3668 190.148 71.5558 191.03Z" fill="#FFC864"/>
    <path d="M75.6682 167.315C76.3141 169.551 74.5916 172.26 71.7495 173.141C67.5079 174.474 68.4337 179.656 66.539 179.591C64.6227 179.527 63.8475 176.603 62.1466 178.925C60.6825 180.903 63.3523 183.268 63.1801 184.365C62.8571 186.235 59.9289 190.062 57.2805 189.869C54.6322 189.675 49.68 177.119 50.6704 173.227C51.6609 169.336 55.6226 165.251 59.3691 164.67C63.1155 164.111 68.326 165.724 69.5318 165.724C70.716 165.745 75.3237 166.111 75.6682 167.315Z" fill="#2B478B"/>
    <path d="M79.35 253.208C79.0917 255.336 78.661 256.798 77.9505 257.271C75.7328 258.755 72.8046 260.582 69.5318 262.41C57.9265 268.86 42.0579 275.095 38.8282 264.194C35.0387 251.38 37.5364 227.322 41.2397 212.358C43.3713 203.736 49.3139 194.706 53.2972 194.728C60.1226 194.749 69.9194 196.534 73.8811 206.295C75.4098 210.079 77.6706 223.172 78.8118 235.169C79.5223 242.307 79.8237 249.058 79.35 253.208Z" fill="white"/>
    <path d="M52.6298 194.792L54.18 191.309C54.18 191.309 67.8739 192.707 70.1992 200.554C70.1992 200.576 59.6059 194.964 52.6298 194.792Z" fill="#DFEBFD"/>
    <path d="M79.3501 253.208C79.0917 255.336 78.6611 256.798 77.9505 257.271C75.7328 258.755 72.8046 260.582 69.5318 262.41C66.1299 260.346 59.1107 255.401 57.4743 249.574C55.3427 241.963 56.8284 232.589 56.8284 232.589L79.3501 253.208Z" fill="#DFEBFD"/>
    <path d="M55.4073 206.531C55.4073 206.531 56.5915 239.276 58.4647 245.747C61.6513 256.777 90.6324 260.711 90.6324 260.711C90.6324 260.711 92.3334 258.776 91.5798 255.573C91.5798 255.573 74.2471 241.92 73.7304 239.34C73.2136 236.739 77.4983 219.152 72.6107 212.745C67.7232 206.316 58.7016 200.769 55.4073 206.531Z" fill="white"/>
    <path d="M19.0625 336.885H18.9764C18.2013 336.864 17.5984 336.24 17.663 335.509L22.8736 283.565L27.4167 283.974L19.9453 336.197C19.8807 336.584 19.4932 336.885 19.0625 336.885Z" fill="#77A4E5"/>
    <path d="M45.8689 336.885H45.7828C45.0077 336.864 44.4048 336.24 44.4694 335.509L49.68 283.565L54.2231 283.974L46.7517 336.197C46.6871 336.584 46.2996 336.885 45.8689 336.885Z" fill="#77A4E5"/>
    <path d="M96.2091 336.885H96.2952C97.0703 336.864 97.6732 336.24 97.6086 335.509L92.398 283.565L87.8549 283.974L95.3263 336.197C95.3909 336.584 95.7569 336.885 96.2091 336.885Z" fill="#77A4E5"/>
    <path d="M20.5267 276.191L15.5745 232.804C14.9285 226.547 17.0171 220.42 26.0602 219.947L41.9503 218.98C51.3809 218.593 55.6226 226.419 56.8068 232.439L66.2375 280.125L20.5267 276.191Z" fill="#77A4E5"/>
    <path d="M23.1966 284.318H93.733C95.154 284.318 96.3167 283.157 96.3167 281.738V278.577C96.3167 277.158 95.154 275.997 93.733 275.997H20.6129V281.738C20.6129 283.157 21.7755 284.318 23.1966 284.318Z" fill="#77A4E5"/>
    <path d="M22.6153 284.318H64.2782C65.3763 284.318 66.2806 283.415 66.2806 282.318V277.997C66.2806 276.901 65.3763 275.997 64.2782 275.997H20.6129V282.318C20.6129 283.415 21.5172 284.318 22.6153 284.318Z" fill="#77A4E5"/>
    <path d="M132.317 144.418H107.901C106.781 144.418 105.855 143.493 105.855 142.375V118.832C105.855 117.714 106.781 116.79 107.901 116.79H132.317C133.437 116.79 134.362 117.714 134.362 118.832V142.375C134.362 143.493 133.437 144.418 132.317 144.418Z" fill="#77A4E5"/>
    <path d="M131.262 143.214H108.956C107.922 143.214 107.104 142.375 107.104 141.365V119.864C107.104 118.832 107.944 118.016 108.956 118.016H131.262C132.295 118.016 133.114 118.854 133.114 119.864V141.365C133.114 142.375 132.295 143.214 131.262 143.214Z" fill="#DFEBFD"/>
    <path d="M120.109 121.112C120.43 121.112 120.69 120.852 120.69 120.531C120.69 120.21 120.43 119.951 120.109 119.951C119.788 119.951 119.527 120.21 119.527 120.531C119.527 120.852 119.788 121.112 120.109 121.112Z" fill="#77A4E5"/>
    <path d="M125.319 121.912C125.475 121.631 125.373 121.278 125.093 121.122C124.812 120.966 124.458 121.067 124.302 121.348C124.146 121.628 124.247 121.981 124.528 122.137C124.809 122.293 125.163 122.192 125.319 121.912Z" fill="#77A4E5"/>
    <path d="M128.992 125.579C129.262 125.405 129.34 125.046 129.166 124.776C128.992 124.507 128.632 124.43 128.362 124.603C128.092 124.777 128.015 125.136 128.189 125.406C128.363 125.675 128.723 125.753 128.992 125.579Z" fill="#77A4E5"/>
    <path d="M130.379 130.765C130.7 130.765 130.96 130.505 130.96 130.185C130.96 129.864 130.7 129.604 130.379 129.604C130.058 129.604 129.798 129.864 129.798 130.185C129.798 130.505 130.058 130.765 130.379 130.765Z" fill="#77A4E5"/>
    <path d="M129.348 136.25C129.575 136.023 129.575 135.656 129.348 135.429C129.121 135.202 128.753 135.202 128.526 135.429C128.299 135.656 128.299 136.023 128.526 136.25C128.753 136.477 129.121 136.477 129.348 136.25Z" fill="#77A4E5"/>
    <path d="M125.634 139.949C125.861 139.723 125.861 139.355 125.634 139.128C125.407 138.902 125.039 138.902 124.812 139.128C124.585 139.355 124.585 139.723 124.812 139.949C125.039 140.176 125.407 140.176 125.634 139.949Z" fill="#77A4E5"/>
    <path d="M120.109 141.623C120.43 141.623 120.69 141.363 120.69 141.042C120.69 140.721 120.43 140.462 120.109 140.462C119.788 140.462 119.527 140.721 119.527 141.042C119.527 141.363 119.788 141.623 120.109 141.623Z" fill="#77A4E5"/>
    <path d="M115.683 122.17C115.964 122.015 116.065 121.661 115.909 121.381C115.753 121.101 115.399 121 115.119 121.156C114.838 121.311 114.737 121.665 114.893 121.945C115.049 122.225 115.403 122.326 115.683 122.17Z" fill="#77A4E5"/>
    <path d="M112.005 125.402C112.179 125.133 112.101 124.773 111.831 124.599C111.562 124.426 111.202 124.503 111.028 124.773C110.854 125.042 110.931 125.401 111.201 125.575C111.471 125.749 111.831 125.671 112.005 125.402Z" fill="#77A4E5"/>
    <path d="M109.817 130.765C110.138 130.765 110.398 130.505 110.398 130.184C110.398 129.864 110.138 129.604 109.817 129.604C109.496 129.604 109.235 129.864 109.235 130.184C109.235 130.505 109.496 130.765 109.817 130.765Z" fill="#77A4E5"/>
    <path d="M111.673 136.252C111.9 136.025 111.9 135.658 111.673 135.431C111.446 135.204 111.078 135.204 110.851 135.431C110.624 135.658 110.624 136.025 110.851 136.252C111.078 136.478 111.446 136.478 111.673 136.252Z" fill="#77A4E5"/>
    <path d="M115.368 139.956C115.595 139.729 115.595 139.362 115.368 139.135C115.141 138.908 114.773 138.908 114.546 139.135C114.319 139.362 114.319 139.729 114.546 139.956C114.773 140.183 115.141 140.183 115.368 139.956Z" fill="#77A4E5"/>
    <path d="M120.539 130.765C120.86 130.765 121.121 130.505 121.121 130.185C121.121 129.864 120.86 129.604 120.539 129.604C120.218 129.604 119.958 129.864 119.958 130.185C119.958 130.505 120.218 130.765 120.539 130.765Z" fill="#77A4E5"/>
    <path d="M120.604 122.832H120.453V130.206H120.604V122.832Z" fill="#77A4E5"/>
    <path d="M124.231 126.909L120.319 129.976L120.612 130.348L124.524 127.281L124.231 126.909Z" fill="#77A4E5"/>
</svg>
