<svg width="95" height="218" viewBox="0 0 95 218" fill="none" xmlns="http://www.w3.org/2000/svg">
    <path d="M89.6586 47.6558C89.6586 47.6558 73.7544 72.0067 69.4085 68.9512C69.4085 68.9512 62.4735 65.4329 64.9701 51.0816C64.9701 49.6928 64.9701 48.7669 64.9701 48.4891C64.9701 48.4891 63.8605 34.3231 61.5488 31.4528C61.2714 31.1751 60.5317 30.5269 60.6242 30.5269C67.7441 28.7677 70.5181 43.8597 72.4599 52.1001C72.5524 52.4704 85.96 42.0079 85.96 42.0079C85.96 42.0079 93.0799 32.6565 93.5422 33.212C94.282 33.9527 91.508 38.2118 91.508 38.2118C91.508 38.2118 91.6929 38.6747 92.2477 38.9525C92.8025 39.2303 93.0799 39.508 93.2648 40.2487C93.4498 40.9895 94.1895 41.3598 94.282 41.8227C94.282 42.1931 91.1381 46.5448 89.6586 47.6558Z"
          fill="#FEB38C"/>
    <path d="M86.1455 42.008C86.1455 42.008 87.5325 37.9341 88.1798 38.0267C88.7346 38.1193 91.4161 39.3229 91.3237 40.3414C91.2312 41.3599 89.012 40.5266 89.012 40.5266C89.012 40.5266 89.4743 42.8413 88.2722 43.1191C87.1626 43.3969 86.1455 42.008 86.1455 42.008Z"
          fill="#FEB38C"/>
    <path d="M89.659 40.3414C89.659 40.3414 89.5665 41.3599 90.3987 41.5451C90.3987 41.5451 90.5836 42.6562 91.6932 42.3784C91.6932 42.3784 91.4158 42.8413 92.0631 42.9339C92.0631 42.9339 89.2891 45.9894 89.659 40.3414Z"
          fill="#F79A88"/>
    <path d="M89.104 38.3046C89.6588 38.4897 90.2136 38.6749 90.7684 38.9527C91.0458 39.0453 91.3232 39.1379 91.6006 39.4156C91.6931 39.5082 91.878 39.6934 91.9705 39.8786C92.0629 40.0637 91.9705 40.3415 91.7855 40.5267C91.2307 40.9896 90.491 40.9896 89.9362 40.9896C89.7513 40.9896 89.5663 40.9896 89.5663 40.9896C89.5663 40.897 89.5663 41.1748 89.5663 41.2674L89.6588 42.1933L89.4739 41.2674C89.4739 41.0822 89.3814 40.9896 89.4739 40.8045C89.6588 40.7119 89.7513 40.7119 89.9362 40.7119C90.491 40.7119 91.1383 40.6193 91.6006 40.2489C91.6931 40.1563 91.7855 39.9712 91.6931 39.8786C91.6931 39.786 91.5081 39.6008 91.4157 39.5082C91.1383 39.323 90.8609 39.2304 90.6759 39.0453L89.104 38.3046Z"
          fill="#EC7A65"/>
    <path d="M91.5082 38.0267C91.5082 38.1193 91.5082 38.3045 91.4157 38.3971C91.3233 38.4897 91.3233 38.5823 91.2308 38.6749C91.1383 38.7674 91.0459 38.86 90.9534 38.86C90.8609 38.9526 90.7684 38.9526 90.5835 38.9526C90.8609 38.6749 91.2308 38.3045 91.5082 38.0267Z"
          fill="#EC7A65"/>
    <path d="M92.7098 39.6008C92.5249 39.8786 92.4324 40.1564 92.155 40.4341C91.9701 40.7119 91.6927 40.8971 91.4153 41.0823C91.1379 41.2674 90.8604 41.4526 90.583 41.5452C90.3981 41.6378 90.2132 41.6378 90.0283 41.6378C89.8433 41.6378 89.6584 41.4526 89.5659 41.36C89.7509 41.6378 90.1207 41.5452 90.3981 41.4526C90.6755 41.2674 90.9529 41.0822 91.1378 40.8971C91.8776 40.4341 92.3399 39.9712 92.7098 39.6008Z"
          fill="#EC7A65"/>
    <path d="M90.3984 41.5451C90.5834 41.9155 90.6758 42.1932 90.9532 42.2858C91.1382 42.3784 91.508 42.2858 91.693 42.1006C91.9704 41.9155 92.2478 41.6377 92.4327 41.4525C92.7101 41.1747 92.9875 40.9896 93.2649 40.7118C93.08 40.9896 92.8026 41.2673 92.5252 41.5451C92.2478 41.8229 92.0628 42.1006 91.7854 42.2858C91.508 42.471 91.1382 42.6562 90.7683 42.471C90.4909 42.2858 90.4909 41.8229 90.3984 41.5451Z"
          fill="#EC7A65"/>
    <path d="M91.693 42.1934C91.7855 42.3785 91.8779 42.5637 91.9704 42.7489C92.0629 42.8415 92.0629 42.9341 92.1554 42.9341C92.1554 42.9341 92.2478 42.9341 92.3403 42.9341C92.5252 42.9341 92.7101 42.9341 92.8951 42.8415C93.1725 42.8415 93.265 42.8415 93.5424 42.7489C93.4499 42.9341 93.1725 43.0267 92.9876 43.1193C92.8026 43.2118 92.5252 43.3044 92.3403 43.2118C92.2478 43.2118 92.0629 43.2118 92.0629 43.1193C91.9704 43.0267 91.9704 42.9341 91.878 42.8415C91.693 42.5637 91.6005 42.3785 91.693 42.1934Z"
          fill="#EC7A65"/>
    <path d="M44.9047 40.7117C44.9047 40.7117 35.4731 39.6006 36.5827 39.0451C37.6923 38.4895 45.6445 35.5267 47.1239 34.6008C48.6959 33.6749 49.713 33.8601 49.713 33.8601L60.9015 7.93526C61.0864 6.45384 58.3124 2.75028 57.0179 2.00957C53.3192 -0.119966 48.8808 -0.397729 44.7198 0.435569C31.2197 3.21323 9.85986 12.8425 2.64746 19.7866C2.64746 19.7866 34.9183 50.5261 45.4595 49.0446"
          fill="#18004C"/>
    <path d="M0.613299 17.5646C7.5483 14.1388 14.7607 10.9908 21.9731 8.21317C27.891 5.89846 33.9013 3.76891 40.0041 2.28749C42.2233 1.73196 44.4425 1.26902 46.6617 1.17643C47.2165 1.17643 47.2165 0.34314 46.6617 0.34314C42.0384 0.34314 37.3226 2.00972 32.9766 3.39855C26.0416 5.62068 19.1991 8.30576 12.449 11.176C8.28803 12.9352 4.2195 14.8795 0.150966 16.8239C-0.218901 17.1017 0.150966 17.7498 0.613299 17.5646Z"
          fill="#18004C"/>
    <path d="M46.754 13.7683C46.754 13.9535 46.5691 14.1387 46.3842 14.1387C45.552 14.1387 43.6102 13.9535 43.3328 16.1756C43.0554 18.3977 45.1821 19.694 46.4767 19.7866C46.8465 19.7866 47.6787 19.8792 47.9561 20.1569C48.6958 20.9902 49.0657 22.842 49.713 25.1567C51.0075 30.2491 47.0314 32.5638 47.0314 32.5638C47.0314 32.5638 60.3467 39.1376 60.1617 32.5638C60.1617 32.5638 59.1446 20.5273 59.1446 20.4347C60.1617 19.4162 64.2303 18.9533 61.6412 10.3425C59.3295 2.37989 53.5041 2.93542 52.0247 3.21319C50.8226 3.39837 46.4766 3.67614 46.754 13.7683Z"
          fill="#FEB38C"/>
    <path d="M56.1856 2.37996C56.1856 2.37996 48.0485 13.1202 46.6615 14.0461C46.569 14.0461 41.021 0.898539 56.1856 2.37996Z"
          fill="#18004C"/>
    <path d="M44.2578 16.8238C44.2578 16.8238 45.5523 14.0461 47.3092 17.7497L44.2578 16.8238Z" fill="#EC7A65"/>
    <path d="M54.1869 17.7416C55.31 17.7163 56.2 16.784 56.1747 15.6594C56.1494 14.5347 55.2183 13.6436 54.0952 13.6689C52.972 13.6943 52.082 14.6265 52.1074 15.7512C52.1327 16.8758 53.0637 17.767 54.1869 17.7416Z"
          fill="#F79A88"/>
    <path d="M62.4735 14.5091C61.5488 14.3239 60.9015 13.5832 60.8091 12.5647C60.8091 11.824 61.1789 11.1759 61.7337 10.8055C61.7337 10.8055 62.6584 13.0277 62.4735 14.5091Z"
          fill="#F79A88"/>
    <path d="M60.7164 13.4906L57.665 14.972C57.665 14.972 59.1445 16.0831 59.9767 15.435C60.8089 14.8794 60.7164 13.4906 60.7164 13.4906Z"
          fill="white"/>
    <path d="M58.4048 11.2686L58.8671 13.3981L59.8842 12.9351C60.0692 12.8426 60.0691 12.5648 59.9767 12.4722L58.4048 11.2686Z"
          fill="#EC7A65"/>
    <path d="M54.5213 10.4353C54.2439 10.8057 54.4288 9.50945 54.7987 9.23168C55.261 8.95391 55.8158 8.95391 56.0007 9.41686C56.0932 9.32427 55.1685 9.50945 54.5213 10.4353Z"
          fill="#1E274D"/>
    <path d="M60.2548 8.30565C60.7171 8.39824 59.7925 7.56494 59.2377 7.56494C58.6829 7.56494 58.313 8.02788 58.313 8.49082C58.4055 8.39823 59.2377 7.9353 60.2548 8.30565Z"
          fill="#1E274D"/>
    <path d="M56.9316 12.5927C57.121 12.5161 57.1506 12.1465 56.9976 11.7672C56.8446 11.3879 56.5671 11.1424 56.3777 11.219C56.1882 11.2956 56.1587 11.6652 56.3116 12.0445C56.4646 12.4239 56.7421 12.6693 56.9316 12.5927Z"
          fill="#1E274D"/>
    <path d="M59.6756 11.2254C59.8651 11.1488 59.9101 10.8177 59.7763 10.4857C59.6425 10.1538 59.3805 9.9468 59.1911 10.0234C59.0017 10.0999 58.9566 10.4311 59.0904 10.763C59.2242 11.0949 59.4862 11.3019 59.6756 11.2254Z"
          fill="#1E274D"/>
    <path d="M59.1444 20.3424C59.1444 20.3424 55.3533 21.0831 53.4115 20.8979C51.5622 20.8054 61.0862 31.8234 59.1444 20.3424Z"
          fill="#1E274D"/>
    <path d="M54.7987 3.39842C54.9836 5.9909 53.4117 8.67599 51.7473 10.5278C50.1754 12.2869 47.7712 13.5832 45.3671 13.398C44.8123 13.3054 44.9047 14.1387 45.3671 14.2313C47.9561 14.5091 50.6377 13.0277 52.3021 11.1759C54.1514 9.13893 55.8158 6.36126 55.6309 3.49101C55.6309 2.84289 54.7987 2.84288 54.7987 3.39842Z"
          fill="#18004C"/>
    <path d="M48.0489 24.2309C49.0192 24.2309 49.8057 23.4433 49.8057 22.4717C49.8057 21.5001 49.0192 20.7125 48.0489 20.7125C47.0786 20.7125 46.292 21.5001 46.292 22.4717C46.292 23.4433 47.0786 24.2309 48.0489 24.2309Z"
          fill="white"/>
    <path d="M48.0489 27.7491C49.0192 27.7491 49.8057 26.9615 49.8057 25.9899C49.8057 25.0183 49.0192 24.2307 48.0489 24.2307C47.0786 24.2307 46.292 25.0183 46.292 25.9899C46.292 26.9615 47.0786 27.7491 48.0489 27.7491Z"
          fill="white"/>
    <path d="M50.3606 18.7682L47.9565 22.194L45.7373 18.583L50.3606 18.7682Z" fill="#4F6AFF"/>
    <path d="M49.1587 195.613L50.6382 206.075C50.6382 206.075 52.9498 213.019 55.169 210.334C57.3882 207.649 59.5149 206.26 59.5149 206.26L60.2547 195.427L49.1587 195.613Z"
          fill="#F5836B"/>
    <path d="M54.8921 195.983L55.2619 210.149C55.2619 210.149 48.3269 211.167 50.916 206.538L49.4365 196.724L54.8921 195.983Z"
          fill="#FEB38C"/>
    <path d="M25.303 195.89L22.0667 206.26C22.0667 206.26 19.5701 208.39 18.7379 208.39C17.0735 208.297 16.2413 205.519 16.2413 205.519L15.9639 195.89H25.303Z"
          fill="#F5836B"/>
    <path d="M20.5862 193.113L18.2745 210.334C18.2745 210.334 13.6511 211.538 16.2402 206.908L15.6854 193.668L20.5862 193.113Z"
          fill="#FEB38C"/>
    <path d="M60.1619 206.075L68.8538 213.112C69.3161 213.482 68.9463 214.038 68.299 214.038L55.4462 214.13C55.1688 214.13 54.8914 214.038 54.7989 213.76L53.8742 211.723C53.5968 211.167 53.042 211.075 53.042 211.723L52.5797 213.667C52.5797 213.945 49.5283 213.852 49.5283 213.575C49.3434 211.908 49.7132 206.26 49.9906 204.686C49.9906 204.501 50.268 204.316 50.5454 204.223C50.8228 204.223 51.1002 204.223 51.2852 204.408C52.1174 205.242 54.8914 207.742 56.3708 207.279C57.388 206.908 58.6825 206.353 59.0523 205.982C59.4222 205.89 59.8845 205.89 60.1619 206.075Z"
          fill="#FF3040"/>
    <path d="M16.0558 205.149L11.0627 213.482C10.5079 214.316 10.7853 215.241 11.8024 215.797C13.3743 216.723 14.5764 218.575 15.5935 218.575C17.3504 218.667 20.1244 216.723 21.6963 216.075C22.8059 215.612 23.6381 214.964 23.4532 214.038L22.2511 205.705C22.2511 205.612 22.0662 205.52 21.9737 205.612L20.0319 207.371C19.3846 207.927 17.7203 207.834 17.3504 207.186C17.073 206.723 16.3332 205.149 16.3332 205.149C16.3332 205.057 16.1483 205.057 16.0558 205.149Z"
          fill="#FF3040"/>
    <path d="M40.4665 66.1737C36.6754 72.8401 34.7336 77.6547 32.6068 86.1728C30.1102 95.9872 6.9011 178.947 5.7915 196.816C8.8429 197.557 32.7918 197.464 34.7336 197.372C40.9288 179.595 49.2508 121.727 51.9324 110.524C52.3022 108.764 54.9838 109.135 54.7988 110.894C53.3194 123.671 43.9802 177.65 40.0042 197.372C41.6686 198.205 66.2647 198.02 68.114 197.742C70.1483 175.799 80.9669 92.5615 64.6928 65.6181C57.1105 64.5997 47.9563 65.9885 40.4665 66.1737Z"
          fill="#4F6AFF"/>
    <path d="M62.9359 66.7292C62.9359 66.7292 70.1483 84.9692 70.1483 108.209C70.1483 131.449 62.0112 197.001 62.0112 197.001"
          stroke="white" stroke-width="0.314" stroke-miterlimit="10"/>
    <path d="M10.5073 196.631L44.0727 67.7477" stroke="white" stroke-width="0.314" stroke-miterlimit="10"/>
    <path d="M48.7886 68.3959C48.7886 68.3959 48.6036 89.6913 39.0796 87.9321" stroke="white" stroke-width="0.314"
          stroke-miterlimit="10"/>
    <path d="M68.4845 88.9506C58.9604 90.6172 60.2549 67.933 60.2549 67.933" stroke="white" stroke-width="0.314"
          stroke-miterlimit="10"/>
    <path opacity="0.21"
          d="M64.6927 66.9143L33.8089 92.0985C33.8089 92.0985 33.6239 75.988 39.0795 65.7107L64.6927 66.9143Z"
          fill="#1E274D"/>
    <path d="M62.8437 31.5455C62.6587 32.1011 68.7615 47.2856 68.4841 52.4706C68.2067 57.6555 68.2992 65.1552 68.5766 65.8959C68.5766 65.8959 60.9019 70.4328 38.6174 66.9144C31.7749 60.8961 37.7852 40.5266 40.0969 34.138C40.0969 34.138 44.4428 31.9159 46.3846 31.8233C46.3846 31.7307 54.5217 34.9713 62.8437 31.5455Z"
          fill="#18004C"/>
    <path d="M46.3843 31.6376L49.5281 27.4711C49.5281 27.4711 53.3193 30.1561 58.9597 32.1005L58.8673 39.415C58.8673 39.6002 58.5899 39.7854 58.4049 39.6002C56.6481 38.7669 48.6959 35.1559 46.3843 31.6376Z"
          fill="white"/>
    <path d="M59.6994 27.2864C59.6994 27.2864 60.624 30.6196 58.8672 32.0084L61.3638 39.1377C61.5487 39.6933 61.9186 39.6933 62.011 39.4155C62.3809 37.5637 63.1206 33.675 62.6583 31.2677L59.6994 27.2864Z"
          fill="white"/>
    <path d="M60.3468 40.7119C60.6532 40.7119 60.9016 40.2973 60.9016 39.786C60.9016 39.2746 60.6532 38.8601 60.3468 38.8601C60.0404 38.8601 59.792 39.2746 59.792 39.786C59.792 40.2973 60.0404 40.7119 60.3468 40.7119Z"
          fill="white"/>
    <path d="M60.6246 44.7859C60.931 44.7859 61.1794 44.3713 61.1794 43.86C61.1794 43.3486 60.931 42.9341 60.6246 42.9341C60.3182 42.9341 60.0698 43.3486 60.0698 43.86C60.0698 44.3713 60.3182 44.7859 60.6246 44.7859Z"
          fill="white"/>
    <path d="M60.8092 49.3225C61.1156 49.3225 61.364 48.9079 61.364 48.3966C61.364 47.8852 61.1156 47.4707 60.8092 47.4707C60.5028 47.4707 60.2544 47.8852 60.2544 48.3966C60.2544 48.9079 60.5028 49.3225 60.8092 49.3225Z"
          fill="white"/>
    <path d="M60.8092 54.415C61.1156 54.415 61.364 54.0005 61.364 53.4891C61.364 52.9778 61.1156 52.5632 60.8092 52.5632C60.5028 52.5632 60.2544 52.9778 60.2544 53.4891C60.2544 54.0005 60.5028 54.415 60.8092 54.415Z"
          fill="white"/>
    <path d="M60.8092 59.4145C61.1156 59.4145 61.364 59 61.364 58.4886C61.364 57.9773 61.1156 57.5627 60.8092 57.5627C60.5028 57.5627 60.2544 57.9773 60.2544 58.4886C60.2544 59 60.5028 59.4145 60.8092 59.4145Z"
          fill="white"/>
    <path d="M60.8092 64.4144C61.1156 64.4144 61.364 63.9999 61.364 63.4885C61.364 62.9772 61.1156 62.5626 60.8092 62.5626C60.5028 62.5626 60.2544 62.9772 60.2544 63.4885C60.2544 63.9999 60.5028 64.4144 60.8092 64.4144Z"
          fill="white"/>
    <path d="M43.7952 113.394L15.0381 94.9687L26.9663 76.3584L51.7474 92.2836C53.8741 93.6725 54.5214 96.5427 53.1344 98.6723L43.7952 113.394Z"
          fill="#98CCFE"/>
    <path d="M35.3808 98.6721C37.5768 98.6721 39.3569 96.8896 39.3569 94.6908C39.3569 92.492 37.5768 90.7095 35.3808 90.7095C33.1849 90.7095 31.4048 92.492 31.4048 94.6908C31.4048 96.8896 33.1849 98.6721 35.3808 98.6721Z"
          fill="white"/>
    <path opacity="0.6"
          d="M33.6243 79.9691C33.6243 79.9691 29.001 82.0987 32.6072 95.2463C32.7922 95.987 32.9771 96.7277 32.7921 97.4684L31.9599 103.116C31.8675 103.764 31.775 104.505 32.2373 104.875C32.8846 105.338 36.4908 108.672 36.9531 108.857C37.8778 109.135 36.8607 104.69 37.0456 102.376C37.0456 101.913 37.1381 103.857 37.2305 104.69L37.323 106.542C38.4326 106.079 38.4326 103.95 38.5251 103.209C38.71 102.283 38.5251 101.635 38.4326 101.45C37.9703 100.431 36.9531 98.3017 36.8607 96.4499C36.7682 95.3388 37.5079 91.265 38.1552 83.7653L33.6243 79.9691Z"
          fill="#1E274D"/>
    <path d="M33.069 48.0262C24.4696 96.0797 30.0176 105.153 30.6648 105.524C31.4046 105.987 35.3806 109.69 35.843 109.875C36.8601 110.246 35.7505 105.339 35.9354 102.746C35.9354 102.283 36.0279 104.413 36.1204 105.339L36.2128 107.375C37.4149 106.82 37.4149 104.505 37.5998 103.765C37.8772 102.746 37.6923 102.005 37.5074 101.82C36.9526 100.709 35.9354 98.3944 35.7505 96.3574C35.658 95.1538 43.7951 56.1739 45.1821 50.4334C47.1239 42.656 44.7198 33.6749 41.9458 33.3971C38.5245 32.8416 33.7162 44.0448 33.069 48.0262Z"
          fill="#FEB38C"/>
</svg>
