<svg width="32" height="30" viewBox="0 0 32 30" fill="none" xmlns="http://www.w3.org/2000/svg">
    <path d="M20.9518 2.0351L18.2697 6.77271H23.6339L20.9518 2.0351Z" fill="#FFBF31"/>
    <path d="M16.6051 0.0379871C16.6051 0.0379871 22.8903 -0.311756 26.1444 2.5596C29.3985 5.43096 29.5681 8.39316 29.5681 8.39316C29.5681 8.39316 29.5776 9.02628 29.5011 9.48607C29.4246 9.94586 29.1782 10.4655 29.1782 10.4655L31.3565 14.3111C31.3565 14.3111 31.8054 15.0906 31.4911 15.5396C31.1767 15.9885 30.5478 15.9965 30.5478 15.9965C30.5478 15.9965 29.9356 15.9829 29.7806 16.3294C29.6255 16.6758 29.9471 17.0734 29.9471 17.0734C29.9471 17.0734 30.2021 17.3307 30.2021 17.5981C30.2021 17.8656 29.8517 18.1239 29.8517 18.1239C29.8517 18.1239 30.0475 18.3159 30.0183 18.5298C29.9891 18.7436 29.7806 18.9508 29.7806 18.9508C29.7806 18.9508 29.3474 19.4582 29.2254 19.8247C29.1034 20.1911 29.2254 20.4737 29.2254 20.4737C29.2254 20.4737 29.6191 21.5568 29.281 22.2131C28.9427 22.8695 28.0535 23.0447 28.0535 23.0447C28.0535 23.0447 27.4766 23.0966 26.9209 23.085C26.3651 23.0735 24.5109 23.0447 24.5109 23.0447C24.5109 23.0447 23.7741 23.25 23.029 24.8556C22.2838 26.4611 21.7835 29.5049 21.7835 29.5049C21.7835 29.5049 19.8561 29.5855 18.9635 29.4157C18.0711 29.2459 16.6051 28.5196 16.6051 28.5196L18.3331 25.4918L15.6729 21.0056H20.9523L18.2702 16.2613L20.9523 11.517L18.2702 6.77271L20.9523 2.03174L15.5449 2.03509L16.6051 0.0379871Z"
          fill="#8189AB"/>
    <path d="M16.6051 0.0379871C16.6051 0.0379871 22.8903 -0.311756 26.1444 2.5596C29.3985 5.43096 29.5681 8.39316 29.5681 8.39316C29.5681 8.39316 29.5776 9.02628 29.5011 9.48607C29.4246 9.94586 29.1782 10.4655 29.1782 10.4655L31.3565 14.3111C31.3565 14.3111 31.8054 15.0906 31.4911 15.5396C31.1767 15.9885 30.5478 15.9965 30.5478 15.9965C30.5478 15.9965 29.9356 15.9829 29.7806 16.3294C29.6255 16.6758 29.9471 17.0734 29.9471 17.0734C29.9471 17.0734 30.2021 17.3307 30.2021 17.5981C30.2021 17.8656 29.8517 18.1239 29.8517 18.1239C29.8517 18.1239 30.0475 18.3159 30.0183 18.5298C29.9891 18.7436 29.7806 18.9508 29.7806 18.9508C29.7806 18.9508 29.3474 19.4582 29.2254 19.8247C29.1034 20.1911 29.2254 20.4737 29.2254 20.4737C29.2254 20.4737 29.6191 21.5568 29.281 22.2131C28.9427 22.8695 28.0535 23.0447 28.0535 23.0447C28.0535 23.0447 27.4766 23.0966 26.9209 23.085C26.3651 23.0735 24.5109 23.0447 24.5109 23.0447C24.5109 23.0447 23.7741 23.25 23.029 24.8556C22.2838 26.4611 21.7835 29.5049 21.7835 29.5049C21.7835 29.5049 19.8561 29.5855 18.9635 29.4157C18.0711 29.2459 16.6051 28.5196 16.6051 28.5196L18.3331 25.4918L15.6729 21.0056H20.9523L18.2702 16.2613L20.9523 11.517L18.2702 6.77271L20.9523 2.03174L15.5449 2.03509L16.6051 0.0379871Z"
          fill="#F8EBD8"/>
    <path d="M16.6051 0.0379871C16.6051 0.0379871 22.8903 -0.311756 26.1444 2.5596C29.3985 5.43096 29.5681 8.39316 29.5681 8.39316C29.5681 8.39316 29.5776 9.02628 29.5011 9.48607C29.4246 9.94586 29.1782 10.4655 29.1782 10.4655L31.3565 14.3111C31.3565 14.3111 31.8054 15.0906 31.4911 15.5396C31.1767 15.9885 30.5478 15.9965 30.5478 15.9965C30.5478 15.9965 29.9356 15.9829 29.7806 16.3294C29.6255 16.6758 29.9471 17.0734 29.9471 17.0734C29.9471 17.0734 30.2021 17.3307 30.2021 17.5981C30.2021 17.8656 29.8517 18.1239 29.8517 18.1239C29.8517 18.1239 30.0475 18.3159 30.0183 18.5298C29.9891 18.7436 29.7806 18.9508 29.7806 18.9508C29.7806 18.9508 29.3474 19.4582 29.2254 19.8247C29.1034 20.1911 29.2254 20.4737 29.2254 20.4737C29.2254 20.4737 29.6191 21.5568 29.281 22.2131C28.9427 22.8695 28.0535 23.0447 28.0535 23.0447C28.0535 23.0447 27.4766 23.0966 26.9209 23.085C26.3651 23.0735 24.5109 23.0447 24.5109 23.0447C24.5109 23.0447 23.7741 23.25 23.029 24.8556C22.2838 26.4611 21.7835 29.5049 21.7835 29.5049C21.7835 29.5049 19.8561 29.5855 18.9635 29.4157C18.0711 29.2459 16.6051 28.5196 16.6051 28.5196L18.3331 25.4918L15.6729 21.0056H20.9523L18.2702 16.2613L20.9523 11.517L18.2702 6.77271L20.9523 2.03174L15.5449 2.03509L16.6051 0.0379871Z"
          fill="#646C9A"/>
    <path d="M16.6051 0.0379871C16.6051 0.0379871 22.8903 -0.311756 26.1444 2.5596C29.3985 5.43096 29.5681 8.39316 29.5681 8.39316C29.5681 8.39316 29.5776 9.02628 29.5011 9.48607C29.4246 9.94586 29.1782 10.4655 29.1782 10.4655L31.3565 14.3111C31.3565 14.3111 31.8054 15.0906 31.4911 15.5396C31.1767 15.9885 30.5478 15.9965 30.5478 15.9965C30.5478 15.9965 29.9356 15.9829 29.7806 16.3294C29.6255 16.6758 29.9471 17.0734 29.9471 17.0734C29.9471 17.0734 30.2021 17.3307 30.2021 17.5981C30.2021 17.8656 29.8517 18.1239 29.8517 18.1239C29.8517 18.1239 30.0475 18.3159 30.0183 18.5298C29.9891 18.7436 29.7806 18.9508 29.7806 18.9508C29.7806 18.9508 29.3474 19.4582 29.2254 19.8247C29.1034 20.1911 29.2254 20.4737 29.2254 20.4737C29.2254 20.4737 29.6191 21.5568 29.281 22.2131C28.9427 22.8695 28.0535 23.0447 28.0535 23.0447C28.0535 23.0447 27.4766 23.0966 26.9209 23.085C26.3651 23.0735 24.5109 23.0447 24.5109 23.0447C24.5109 23.0447 23.7741 23.25 23.029 24.8556C22.2838 26.4611 21.7835 29.5049 21.7835 29.5049C21.7835 29.5049 19.8561 29.5855 18.9635 29.4157C18.0711 29.2459 16.6051 28.5196 16.6051 28.5196L18.3331 25.4918L15.6729 21.0056H20.9523L18.2702 16.2613L20.9523 11.517L18.2702 6.77271L20.9523 2.03174L15.5449 2.03509L16.6051 0.0379871Z"
          fill="#867FFF"/>
    <path fill-rule="evenodd" clip-rule="evenodd"
          d="M16.6051 0.0379871C16.6051 0.0379871 22.8903 -0.311756 26.1444 2.5596C29.3985 5.43096 29.5681 8.39316 29.5681 8.39316C29.5681 8.39316 29.5776 9.02628 29.5011 9.48607C29.4246 9.94586 29.1782 10.4655 29.1782 10.4655L31.3565 14.3111C31.3565 14.3111 31.8054 15.0906 31.4911 15.5396C31.1767 15.9885 30.5478 15.9965 30.5478 15.9965C30.5478 15.9965 29.9356 15.9829 29.7806 16.3294C29.6255 16.6758 29.9471 17.0734 29.9471 17.0734C29.9471 17.0734 30.2021 17.3307 30.2021 17.5981C30.2021 17.8656 29.8517 18.1239 29.8517 18.1239C29.8517 18.1239 30.0475 18.3159 30.0183 18.5298C29.9891 18.7436 29.7806 18.9508 29.7806 18.9508C29.7806 18.9508 29.3474 19.4582 29.2254 19.8247C29.1034 20.1911 29.2254 20.4737 29.2254 20.4737C29.2254 20.4737 29.6191 21.5568 29.281 22.2131C28.9427 22.8695 28.0535 23.0447 28.0535 23.0447C28.0535 23.0447 27.4766 23.0966 26.9209 23.085C26.3651 23.0735 24.5109 23.0447 24.5109 23.0447C24.5109 23.0447 23.7741 23.25 23.029 24.8556C22.2838 26.4611 21.7835 29.5049 21.7835 29.5049C21.7835 29.5049 19.8561 29.5855 18.9635 29.4157C18.0711 29.2459 16.6051 28.5196 16.6051 28.5196L18.3331 25.4918L15.6729 21.0056H20.9523L18.2702 16.2613L20.9523 11.517L18.2702 6.77271L20.9523 2.03174L15.5449 2.03509L16.6051 0.0379871Z"
          fill="#000CC4"/>
    <path fill-rule="evenodd" clip-rule="evenodd"
          d="M16.6051 0.0379871C16.6051 0.0379871 22.8903 -0.311756 26.1444 2.5596C29.3985 5.43096 29.5681 8.39316 29.5681 8.39316C29.5681 8.39316 29.5776 9.02628 29.5011 9.48607C29.4246 9.94586 29.1782 10.4655 29.1782 10.4655L31.3565 14.3111C31.3565 14.3111 31.8054 15.0906 31.4911 15.5396C31.1767 15.9885 30.5478 15.9965 30.5478 15.9965C30.5478 15.9965 29.9356 15.9829 29.7806 16.3294C29.6255 16.6758 29.9471 17.0734 29.9471 17.0734C29.9471 17.0734 30.2021 17.3307 30.2021 17.5981C30.2021 17.8656 29.8517 18.1239 29.8517 18.1239C29.8517 18.1239 30.0475 18.3159 30.0183 18.5298C29.9891 18.7436 29.7806 18.9508 29.7806 18.9508C29.7806 18.9508 29.3474 19.4582 29.2254 19.8247C29.1034 20.1911 29.2254 20.4737 29.2254 20.4737C29.2254 20.4737 29.6191 21.5568 29.281 22.2131C28.9427 22.8695 28.0535 23.0447 28.0535 23.0447C28.0535 23.0447 27.4766 23.0966 26.9209 23.085C26.3651 23.0735 24.5109 23.0447 24.5109 23.0447C24.5109 23.0447 23.7741 23.25 23.029 24.8556C22.2838 26.4611 21.7835 29.5049 21.7835 29.5049C21.7835 29.5049 19.8561 29.5855 18.9635 29.4157C18.0711 29.2459 16.6051 28.5196 16.6051 28.5196L18.3331 25.4918L15.6729 21.0056H20.9523L18.2702 16.2613L20.9523 11.517L18.2702 6.77271L20.9523 2.03174L15.5449 2.03509L16.6051 0.0379871Z"
          fill="#867FFF"/>
    <path fill-rule="evenodd" clip-rule="evenodd"
          d="M16.6051 0.0379871C16.6051 0.0379871 22.8903 -0.311756 26.1444 2.5596C29.3985 5.43096 29.5681 8.39316 29.5681 8.39316C29.5681 8.39316 29.5776 9.02628 29.5011 9.48607C29.4246 9.94586 29.1782 10.4655 29.1782 10.4655L31.3565 14.3111C31.3565 14.3111 31.8054 15.0906 31.4911 15.5396C31.1767 15.9885 30.5478 15.9965 30.5478 15.9965C30.5478 15.9965 29.9356 15.9829 29.7806 16.3294C29.6255 16.6758 29.9471 17.0734 29.9471 17.0734C29.9471 17.0734 30.2021 17.3307 30.2021 17.5981C30.2021 17.8656 29.8517 18.1239 29.8517 18.1239C29.8517 18.1239 30.0475 18.3159 30.0183 18.5298C29.9891 18.7436 29.7806 18.9508 29.7806 18.9508C29.7806 18.9508 29.3474 19.4582 29.2254 19.8247C29.1034 20.1911 29.2254 20.4737 29.2254 20.4737C29.2254 20.4737 29.6191 21.5568 29.281 22.2131C28.9427 22.8695 28.0535 23.0447 28.0535 23.0447C28.0535 23.0447 27.4766 23.0966 26.9209 23.085C26.3651 23.0735 24.5109 23.0447 24.5109 23.0447C24.5109 23.0447 23.7741 23.25 23.029 24.8556C22.2838 26.4611 21.7835 29.5049 21.7835 29.5049C21.7835 29.5049 19.8561 29.5855 18.9635 29.4157C18.0711 29.2459 16.6051 28.5196 16.6051 28.5196L18.3331 25.4918L15.6729 21.0056H20.9523L18.2702 16.2613L20.9523 11.517L18.2702 6.77271L20.9523 2.03174L15.5449 2.03509L16.6051 0.0379871Z"
          fill="#FFBF2F"/>
    <path fill-rule="evenodd" clip-rule="evenodd"
          d="M16.6051 0.0379871C16.6051 0.0379871 22.8903 -0.311756 26.1444 2.5596C29.3985 5.43096 29.5681 8.39316 29.5681 8.39316C29.5681 8.39316 29.5776 9.02628 29.5011 9.48607C29.4246 9.94586 29.1782 10.4655 29.1782 10.4655L31.3565 14.3111C31.3565 14.3111 31.8054 15.0906 31.4911 15.5396C31.1767 15.9885 30.5478 15.9965 30.5478 15.9965C30.5478 15.9965 29.9356 15.9829 29.7806 16.3294C29.6255 16.6758 29.9471 17.0734 29.9471 17.0734C29.9471 17.0734 30.2021 17.3307 30.2021 17.5981C30.2021 17.8656 29.8517 18.1239 29.8517 18.1239C29.8517 18.1239 30.0475 18.3159 30.0183 18.5298C29.9891 18.7436 29.7806 18.9508 29.7806 18.9508C29.7806 18.9508 29.3474 19.4582 29.2254 19.8247C29.1034 20.1911 29.2254 20.4737 29.2254 20.4737C29.2254 20.4737 29.6191 21.5568 29.281 22.2131C28.9427 22.8695 28.0535 23.0447 28.0535 23.0447C28.0535 23.0447 27.4766 23.0966 26.9209 23.085C26.3651 23.0735 24.5109 23.0447 24.5109 23.0447C24.5109 23.0447 23.7741 23.25 23.029 24.8556C22.2838 26.4611 21.7835 29.5049 21.7835 29.5049C21.7835 29.5049 19.8561 29.5855 18.9635 29.4157C18.0711 29.2459 16.6051 28.5196 16.6051 28.5196L18.3331 25.4918L15.6729 21.0056H20.9523L18.2702 16.2613L20.9523 11.517L18.2702 6.77271L20.9523 2.03174L15.5449 2.03509L16.6051 0.0379871Z"
          fill="#FF9C78"/>
    <path fill-rule="evenodd" clip-rule="evenodd"
          d="M16.6051 0.0379871C16.6051 0.0379871 22.8903 -0.311756 26.1444 2.5596C29.3985 5.43096 29.5681 8.39316 29.5681 8.39316C29.5681 8.39316 29.5776 9.02628 29.5011 9.48607C29.4246 9.94586 29.1782 10.4655 29.1782 10.4655L31.3565 14.3111C31.3565 14.3111 31.8054 15.0906 31.4911 15.5396C31.1767 15.9885 30.5478 15.9965 30.5478 15.9965C30.5478 15.9965 29.9356 15.9829 29.7806 16.3294C29.6255 16.6758 29.9471 17.0734 29.9471 17.0734C29.9471 17.0734 30.2021 17.3307 30.2021 17.5981C30.2021 17.8656 29.8517 18.1239 29.8517 18.1239C29.8517 18.1239 30.0475 18.3159 30.0183 18.5298C29.9891 18.7436 29.7806 18.9508 29.7806 18.9508C29.7806 18.9508 29.3474 19.4582 29.2254 19.8247C29.1034 20.1911 29.2254 20.4737 29.2254 20.4737C29.2254 20.4737 29.6191 21.5568 29.281 22.2131C28.9427 22.8695 28.0535 23.0447 28.0535 23.0447C28.0535 23.0447 27.4766 23.0966 26.9209 23.085C26.3651 23.0735 24.5109 23.0447 24.5109 23.0447C24.5109 23.0447 23.7741 23.25 23.029 24.8556C22.2838 26.4611 21.7835 29.5049 21.7835 29.5049C21.7835 29.5049 19.8561 29.5855 18.9635 29.4157C18.0711 29.2459 16.6051 28.5196 16.6051 28.5196L18.3331 25.4918L15.6729 21.0056H20.9523L18.2702 16.2613L20.9523 11.517L18.2702 6.77271L20.9523 2.03174L15.5449 2.03509L16.6051 0.0379871Z"
          fill="#C24C22"/>
    <path fill-rule="evenodd" clip-rule="evenodd"
          d="M16.6051 0.0379871C16.6051 0.0379871 22.8903 -0.311756 26.1444 2.5596C29.3985 5.43096 29.5681 8.39316 29.5681 8.39316C29.5681 8.39316 29.5776 9.02628 29.5011 9.48607C29.4246 9.94586 29.1782 10.4655 29.1782 10.4655L31.3565 14.3111C31.3565 14.3111 31.8054 15.0906 31.4911 15.5396C31.1767 15.9885 30.5478 15.9965 30.5478 15.9965C30.5478 15.9965 29.9356 15.9829 29.7806 16.3294C29.6255 16.6758 29.9471 17.0734 29.9471 17.0734C29.9471 17.0734 30.2021 17.3307 30.2021 17.5981C30.2021 17.8656 29.8517 18.1239 29.8517 18.1239C29.8517 18.1239 30.0475 18.3159 30.0183 18.5298C29.9891 18.7436 29.7806 18.9508 29.7806 18.9508C29.7806 18.9508 29.3474 19.4582 29.2254 19.8247C29.1034 20.1911 29.2254 20.4737 29.2254 20.4737C29.2254 20.4737 29.6191 21.5568 29.281 22.2131C28.9427 22.8695 28.0535 23.0447 28.0535 23.0447C28.0535 23.0447 27.4766 23.0966 26.9209 23.085C26.3651 23.0735 24.5109 23.0447 24.5109 23.0447C24.5109 23.0447 23.7741 23.25 23.029 24.8556C22.2838 26.4611 21.7835 29.5049 21.7835 29.5049C21.7835 29.5049 19.8561 29.5855 18.9635 29.4157C18.0711 29.2459 16.6051 28.5196 16.6051 28.5196L18.3331 25.4918L15.6729 21.0056H20.9523L18.2702 16.2613L20.9523 11.517L18.2702 6.77271L20.9523 2.03174L15.5449 2.03509L16.6051 0.0379871Z"
          fill="#7F8098"/>
    <path fill-rule="evenodd" clip-rule="evenodd"
          d="M16.6051 0.0379871C16.6051 0.0379871 22.8903 -0.311756 26.1444 2.5596C29.3985 5.43096 29.5681 8.39316 29.5681 8.39316C29.5681 8.39316 29.5776 9.02628 29.5011 9.48607C29.4246 9.94586 29.1782 10.4655 29.1782 10.4655L31.3565 14.3111C31.3565 14.3111 31.8054 15.0906 31.4911 15.5396C31.1767 15.9885 30.5478 15.9965 30.5478 15.9965C30.5478 15.9965 29.9356 15.9829 29.7806 16.3294C29.6255 16.6758 29.9471 17.0734 29.9471 17.0734C29.9471 17.0734 30.2021 17.3307 30.2021 17.5981C30.2021 17.8656 29.8517 18.1239 29.8517 18.1239C29.8517 18.1239 30.0475 18.3159 30.0183 18.5298C29.9891 18.7436 29.7806 18.9508 29.7806 18.9508C29.7806 18.9508 29.3474 19.4582 29.2254 19.8247C29.1034 20.1911 29.2254 20.4737 29.2254 20.4737C29.2254 20.4737 29.6191 21.5568 29.281 22.2131C28.9427 22.8695 28.0535 23.0447 28.0535 23.0447C28.0535 23.0447 27.4766 23.0966 26.9209 23.085C26.3651 23.0735 24.5109 23.0447 24.5109 23.0447C24.5109 23.0447 23.7741 23.25 23.029 24.8556C22.2838 26.4611 21.7835 29.5049 21.7835 29.5049C21.7835 29.5049 19.8561 29.5855 18.9635 29.4157C18.0711 29.2459 16.6051 28.5196 16.6051 28.5196L18.3331 25.4918L15.6729 21.0056H20.9523L18.2702 16.2613L20.9523 11.517L18.2702 6.77271L20.9523 2.03174L15.5449 2.03509L16.6051 0.0379871Z"
          fill="#A6A7B9"/>
    <path fill-rule="evenodd" clip-rule="evenodd"
          d="M16.6051 0.0379871C16.6051 0.0379871 22.8903 -0.311756 26.1444 2.5596C29.3985 5.43096 29.5681 8.39316 29.5681 8.39316C29.5681 8.39316 29.5776 9.02628 29.5011 9.48607C29.4246 9.94586 29.1782 10.4655 29.1782 10.4655L31.3565 14.3111C31.3565 14.3111 31.8054 15.0906 31.4911 15.5396C31.1767 15.9885 30.5478 15.9965 30.5478 15.9965C30.5478 15.9965 29.9356 15.9829 29.7806 16.3294C29.6255 16.6758 29.9471 17.0734 29.9471 17.0734C29.9471 17.0734 30.2021 17.3307 30.2021 17.5981C30.2021 17.8656 29.8517 18.1239 29.8517 18.1239C29.8517 18.1239 30.0475 18.3159 30.0183 18.5298C29.9891 18.7436 29.7806 18.9508 29.7806 18.9508C29.7806 18.9508 29.3474 19.4582 29.2254 19.8247C29.1034 20.1911 29.2254 20.4737 29.2254 20.4737C29.2254 20.4737 29.6191 21.5568 29.281 22.2131C28.9427 22.8695 28.0535 23.0447 28.0535 23.0447C28.0535 23.0447 27.4766 23.0966 26.9209 23.085C26.3651 23.0735 24.5109 23.0447 24.5109 23.0447C24.5109 23.0447 23.7741 23.25 23.029 24.8556C22.2838 26.4611 21.7835 29.5049 21.7835 29.5049C21.7835 29.5049 19.8561 29.5855 18.9635 29.4157C18.0711 29.2459 16.6051 28.5196 16.6051 28.5196L18.3331 25.4918L15.6729 21.0056H20.9523L18.2702 16.2613L20.9523 11.517L18.2702 6.77271L20.9523 2.03174L15.5449 2.03509L16.6051 0.0379871Z"
          fill="#FFBF31"/>
    <path fill-rule="evenodd" clip-rule="evenodd"
          d="M16.6051 0.0379871C16.6051 0.0379871 22.8903 -0.311756 26.1444 2.5596C29.3985 5.43096 29.5681 8.39316 29.5681 8.39316C29.5681 8.39316 29.5776 9.02628 29.5011 9.48607C29.4246 9.94586 29.1782 10.4655 29.1782 10.4655L31.3565 14.3111C31.3565 14.3111 31.8054 15.0906 31.4911 15.5396C31.1767 15.9885 30.5478 15.9965 30.5478 15.9965C30.5478 15.9965 29.9356 15.9829 29.7806 16.3294C29.6255 16.6758 29.9471 17.0734 29.9471 17.0734C29.9471 17.0734 30.2021 17.3307 30.2021 17.5981C30.2021 17.8656 29.8517 18.1239 29.8517 18.1239C29.8517 18.1239 30.0475 18.3159 30.0183 18.5298C29.9891 18.7436 29.7806 18.9508 29.7806 18.9508C29.7806 18.9508 29.3474 19.4582 29.2254 19.8247C29.1034 20.1911 29.2254 20.4737 29.2254 20.4737C29.2254 20.4737 29.6191 21.5568 29.281 22.2131C28.9427 22.8695 28.0535 23.0447 28.0535 23.0447C28.0535 23.0447 27.4766 23.0966 26.9209 23.085C26.3651 23.0735 24.5109 23.0447 24.5109 23.0447C24.5109 23.0447 23.7741 23.25 23.029 24.8556C22.2838 26.4611 21.7835 29.5049 21.7835 29.5049C21.7835 29.5049 19.8561 29.5855 18.9635 29.4157C18.0711 29.2459 16.6051 28.5196 16.6051 28.5196L18.3331 25.4918L15.6729 21.0056H20.9523L18.2702 16.2613L20.9523 11.517L18.2702 6.77271L20.9523 2.03174L15.5449 2.03509L16.6051 0.0379871Z"
          fill="#8189AB"/>
    <path fill-rule="evenodd" clip-rule="evenodd"
          d="M16.6051 0.0379871C16.6051 0.0379871 22.8903 -0.311756 26.1444 2.5596C29.3985 5.43096 29.5681 8.39316 29.5681 8.39316C29.5681 8.39316 29.5776 9.02628 29.5011 9.48607C29.4246 9.94586 29.1782 10.4655 29.1782 10.4655L31.3565 14.3111C31.3565 14.3111 31.8054 15.0906 31.4911 15.5396C31.1767 15.9885 30.5478 15.9965 30.5478 15.9965C30.5478 15.9965 29.9356 15.9829 29.7806 16.3294C29.6255 16.6758 29.9471 17.0734 29.9471 17.0734C29.9471 17.0734 30.2021 17.3307 30.2021 17.5981C30.2021 17.8656 29.8517 18.1239 29.8517 18.1239C29.8517 18.1239 30.0475 18.3159 30.0183 18.5298C29.9891 18.7436 29.7806 18.9508 29.7806 18.9508C29.7806 18.9508 29.3474 19.4582 29.2254 19.8247C29.1034 20.1911 29.2254 20.4737 29.2254 20.4737C29.2254 20.4737 29.6191 21.5568 29.281 22.2131C28.9427 22.8695 28.0535 23.0447 28.0535 23.0447C28.0535 23.0447 27.4766 23.0966 26.9209 23.085C26.3651 23.0735 24.5109 23.0447 24.5109 23.0447C24.5109 23.0447 23.7741 23.25 23.029 24.8556C22.2838 26.4611 21.7835 29.5049 21.7835 29.5049C21.7835 29.5049 19.8561 29.5855 18.9635 29.4157C18.0711 29.2459 16.6051 28.5196 16.6051 28.5196L18.3331 25.4918L15.6729 21.0056H20.9523L18.2702 16.2613L20.9523 11.517L18.2702 6.77271L20.9523 2.03174L15.5449 2.03509L16.6051 0.0379871Z"
          fill="#8189AB"/>
    <path fill-rule="evenodd" clip-rule="evenodd"
          d="M16.6051 0.0379871C16.6051 0.0379871 22.8903 -0.311756 26.1444 2.5596C29.3985 5.43096 29.5681 8.39316 29.5681 8.39316C29.5681 8.39316 29.5776 9.02628 29.5011 9.48607C29.4246 9.94586 29.1782 10.4655 29.1782 10.4655L31.3565 14.3111C31.3565 14.3111 31.8054 15.0906 31.4911 15.5396C31.1767 15.9885 30.5478 15.9965 30.5478 15.9965C30.5478 15.9965 29.9356 15.9829 29.7806 16.3294C29.6255 16.6758 29.9471 17.0734 29.9471 17.0734C29.9471 17.0734 30.2021 17.3307 30.2021 17.5981C30.2021 17.8656 29.8517 18.1239 29.8517 18.1239C29.8517 18.1239 30.0475 18.3159 30.0183 18.5298C29.9891 18.7436 29.7806 18.9508 29.7806 18.9508C29.7806 18.9508 29.3474 19.4582 29.2254 19.8247C29.1034 20.1911 29.2254 20.4737 29.2254 20.4737C29.2254 20.4737 29.6191 21.5568 29.281 22.2131C28.9427 22.8695 28.0535 23.0447 28.0535 23.0447C28.0535 23.0447 27.4766 23.0966 26.9209 23.085C26.3651 23.0735 24.5109 23.0447 24.5109 23.0447C24.5109 23.0447 23.7741 23.25 23.029 24.8556C22.2838 26.4611 21.7835 29.5049 21.7835 29.5049C21.7835 29.5049 19.8561 29.5855 18.9635 29.4157C18.0711 29.2459 16.6051 28.5196 16.6051 28.5196L18.3331 25.4918L15.6729 21.0056H20.9523L18.2702 16.2613L20.9523 11.517L18.2702 6.77271L20.9523 2.03174L15.5449 2.03509L16.6051 0.0379871Z"
          fill="#464B60"/>
    <path fill-rule="evenodd" clip-rule="evenodd"
          d="M16.6051 0.0379871C16.6051 0.0379871 22.8903 -0.311756 26.1444 2.5596C29.3985 5.43096 29.5681 8.39316 29.5681 8.39316C29.5681 8.39316 29.5776 9.02628 29.5011 9.48607C29.4246 9.94586 29.1782 10.4655 29.1782 10.4655L31.3565 14.3111C31.3565 14.3111 31.8054 15.0906 31.4911 15.5396C31.1767 15.9885 30.5478 15.9965 30.5478 15.9965C30.5478 15.9965 29.9356 15.9829 29.7806 16.3294C29.6255 16.6758 29.9471 17.0734 29.9471 17.0734C29.9471 17.0734 30.2021 17.3307 30.2021 17.5981C30.2021 17.8656 29.8517 18.1239 29.8517 18.1239C29.8517 18.1239 30.0475 18.3159 30.0183 18.5298C29.9891 18.7436 29.7806 18.9508 29.7806 18.9508C29.7806 18.9508 29.3474 19.4582 29.2254 19.8247C29.1034 20.1911 29.2254 20.4737 29.2254 20.4737C29.2254 20.4737 29.6191 21.5568 29.281 22.2131C28.9427 22.8695 28.0535 23.0447 28.0535 23.0447C28.0535 23.0447 27.4766 23.0966 26.9209 23.085C26.3651 23.0735 24.5109 23.0447 24.5109 23.0447C24.5109 23.0447 23.7741 23.25 23.029 24.8556C22.2838 26.4611 21.7835 29.5049 21.7835 29.5049C21.7835 29.5049 19.8561 29.5855 18.9635 29.4157C18.0711 29.2459 16.6051 28.5196 16.6051 28.5196L18.3331 25.4918L15.6729 21.0056H20.9523L18.2702 16.2613L20.9523 11.517L18.2702 6.77271L20.9523 2.03174L15.5449 2.03509L16.6051 0.0379871Z"
          fill="#F8EBD8"/>
    <path fill-rule="evenodd" clip-rule="evenodd"
          d="M16.6051 0.0379871C16.6051 0.0379871 22.8903 -0.311756 26.1444 2.5596C29.3985 5.43096 29.5681 8.39316 29.5681 8.39316C29.5681 8.39316 29.5776 9.02628 29.5011 9.48607C29.4246 9.94586 29.1782 10.4655 29.1782 10.4655L31.3565 14.3111C31.3565 14.3111 31.8054 15.0906 31.4911 15.5396C31.1767 15.9885 30.5478 15.9965 30.5478 15.9965C30.5478 15.9965 29.9356 15.9829 29.7806 16.3294C29.6255 16.6758 29.9471 17.0734 29.9471 17.0734C29.9471 17.0734 30.2021 17.3307 30.2021 17.5981C30.2021 17.8656 29.8517 18.1239 29.8517 18.1239C29.8517 18.1239 30.0475 18.3159 30.0183 18.5298C29.9891 18.7436 29.7806 18.9508 29.7806 18.9508C29.7806 18.9508 29.3474 19.4582 29.2254 19.8247C29.1034 20.1911 29.2254 20.4737 29.2254 20.4737C29.2254 20.4737 29.6191 21.5568 29.281 22.2131C28.9427 22.8695 28.0535 23.0447 28.0535 23.0447C28.0535 23.0447 27.4766 23.0966 26.9209 23.085C26.3651 23.0735 24.5109 23.0447 24.5109 23.0447C24.5109 23.0447 23.7741 23.25 23.029 24.8556C22.2838 26.4611 21.7835 29.5049 21.7835 29.5049C21.7835 29.5049 19.8561 29.5855 18.9635 29.4157C18.0711 29.2459 16.6051 28.5196 16.6051 28.5196L18.3331 25.4918L15.6729 21.0056H20.9523L18.2702 16.2613L20.9523 11.517L18.2702 6.77271L20.9523 2.03174L15.5449 2.03509L16.6051 0.0379871Z"
          fill="#000CC4"/>
    <path d="M13.1879 0.639862L10.3646 5.65616H16.0111L13.1879 0.639862Z" fill="#FFBF31"/>
    <path d="M9.79599 9.121L9.18982 13.1949L12.904 11.8559L9.79599 9.121Z" fill="#FF7E4F"/>
    <path d="M10.5933 7.95255L10.2057 10.1683L12.3281 9.40307L10.5933 7.95255Z" fill="white"/>
    <path d="M6.28027 5.35403L5.62292 7.50647L7.82364 7.0032L6.28027 5.35403Z" fill="#FF9C78"/>
    <path d="M6.57507 15.6983L8.39216 17.0463L8.66742 14.8257L6.57507 15.6983Z" fill="#FB4A0A"/>
    <path d="M11.0027 15.4317L8.59821 19.5313L13.1127 19.6874L11.0027 15.4317Z" fill="#464B60"/>
    <path d="M11.9706 17.3328L15.6289 20.3903L16.5681 16.0135L11.9706 17.3328Z" fill="#F8EBD8"/>
    <path d="M13.835 12.4399L9.80243 16.9011L15.2812 18.2542L13.835 12.4399Z" fill="#BAB6FF"/>
    <path d="M4.82697 2.30256L8.55383 4.8714L8.94755 0.413818L4.82697 2.30256Z" fill="#4751EF"/>
    <path d="M1.08368 8.469L3.01928 11.8365L4.99556 8.44574L1.08368 8.469Z" fill="#F0D7B1"/>
    <path d="M4.9834 10.8243L5.63956 14.6445L8.66742 12.1278L4.9834 10.8243Z" fill="#8189AB"/>
    <path d="M13.1878 10.1222L10.9292 6.22064H15.4464L13.1878 10.1222Z" fill="#A6A7B9"/>
    <path d="M16.7341 5.98041L13.0743 10.4349L18.635 11.4062L16.7341 5.98041Z" fill="#FFDAA3"/>
    <path d="M19.9894 10.9046L15.1495 12.7025L19.0424 15.9382L19.9894 10.9046Z" fill="#ACB1FF"/>
    <path d="M17.2439 16.1457L15.5233 20.974L20.5279 20.0998L17.2439 16.1457Z" fill="#867FFF"/>
    <path d="M16.4114 27.8916L13.3997 25.4187L17.1138 24.0796L16.4114 27.8916Z" fill="#D4BFA0"/>
    <path d="M14.5978 2.77879L17.9942 7.43337L20.3806 2.36417L14.5978 2.77879Z" fill="#FF7E4F"/>
    <path d="M23.7755 6.77939L21.0934 11.517H26.4576L23.7755 6.77939Z" fill="#D4BFA0"/>
    <path d="M23.7755 16.2613L21.0934 11.5237H26.4576L23.7755 16.2613Z" fill="#9DA2BA"/>
    <path d="M20.9518 11.517L18.2697 6.77939H23.6339L20.9518 11.517Z" fill="#7A83B9"/>
    <path d="M20.9518 11.5237L18.2697 16.2613H23.6339L20.9518 11.5237Z" fill="#000CC4"/>
    <path d="M20.9518 21.0056L18.2697 16.268H23.6339L20.9518 21.0056Z" fill="white"/>
    <path d="M26.5992 21.0056L23.9171 16.268H29.2813L26.5992 21.0056Z" fill="#FB4A0A"/>
    <path d="M23.7755 16.268L21.0934 21.0056H26.4576L23.7755 16.268Z" fill="#FF7E4F"/>
    <path d="M18.1293 25.7499L15.4472 21.0123H20.8114L18.1293 25.7499Z" fill="#8189AB"/>
</svg>
