<svg width="292" height="112" viewBox="0 0 292 112" fill="none" xmlns="http://www.w3.org/2000/svg">
    <path opacity="0.16" d="M146 111.065C226.269 111.065 291.34 99.0189 291.34 84.1586C291.34 69.2984 226.269 57.2518 146 57.2518C65.7304 57.2518 0.65918 69.2984 0.65918 84.1586C0.65918 99.0189 65.7304 111.065 146 111.065Z" fill="#B8CFFF"/>
    <path d="M213.599 37.3389H59.3472L79.3622 0.753418H193.584L213.599 37.3389Z" fill="#7496E3"/>
    <path d="M213.599 37.3389H59.3472V41.6985H213.599V37.3389Z" fill="#3D62B0"/>
    <path d="M208.372 41.6985H64.5743V44.1813H208.372V41.6985Z" fill="#173B8A"/>
    <path d="M67.2807 41.6985H64.5743V106.731H67.2807V41.6985Z" fill="#173B8A"/>
    <path d="M208.372 41.6985H205.665V106.731H208.372V41.6985Z" fill="#173B8A"/>
    <path opacity="0.45" d="M154.153 12.6118L133.008 11.686L134.795 3.6568L153.065 4.45636L154.153 12.6118Z" fill="#C0D4FC"/>
    <path opacity="0.45" d="M151.455 13.504L130.31 12.5782L132.098 4.54892L150.376 5.34848L151.455 13.504Z" fill="#C0D4FC"/>
    <path d="M153.293 12.0143L132.148 11.0885L133.936 3.05923L152.205 3.85879L153.293 12.0143Z" fill="#FFDA85"/>
    <path d="M150.873 14.2278L129.72 13.302L131.516 5.27286L149.786 6.07239L150.873 14.2278Z" fill="#A6C3FC"/>
    <path opacity="0.45" d="M153.942 9.48099L136.06 8.69829L137.578 1.90634L153.023 2.57964L153.942 9.48099Z" fill="#C0D4FC"/>
    <path opacity="0.45" d="M151.666 10.2301L133.775 9.44735L135.293 2.65552L150.747 3.33722L151.666 10.2301Z" fill="#C0D4FC"/>
    <path d="M152.298 2.07467L153.217 8.96761L151.497 8.90027L135.327 8.19331L136.507 2.94154L136.844 1.40137L152.298 2.07467Z" fill="#DADFE8"/>
    <path opacity="0.21" d="M150.789 3.56444L151.497 8.90025L135.327 8.19331L136.507 2.94165L150.789 3.56444Z" fill="#DADFE8"/>
    <path d="M151.168 10.8444L133.278 10.0617L134.795 3.26965L150.249 3.95138L151.168 10.8444Z" fill="white"/>
    <path opacity="0.45" d="M199.687 25.8002L179.04 21.1207L182.244 13.5377L200.084 17.5859L199.687 25.8002Z" fill="#C0D4FC"/>
    <path opacity="0.45" d="M196.872 26.1957L176.233 21.5163L179.436 13.9332L197.268 17.9814L196.872 26.1957Z" fill="#C0D4FC"/>
    <path d="M198.946 25.0595L178.307 20.3716L181.511 12.797L199.342 16.8452L198.946 25.0595Z" fill="#FFDA85"/>
    <path d="M196.164 26.8101L175.525 22.1222L178.729 14.5392L196.56 18.5874L196.164 26.8101Z" fill="#C0D4FC"/>
    <path opacity="0.45" d="M200.042 22.6777L182.582 18.722L185.296 12.3088L200.379 15.7343L200.042 22.6777Z" fill="#C0D4FC"/>
    <path opacity="0.45" d="M197.664 23.0143L180.204 19.0503L182.91 12.6455L197.993 16.0625L197.664 23.0143Z" fill="#C0D4FC"/>
    <path d="M199.747 15.1031L199.418 22.0549L197.74 21.6678L181.958 18.0909L184.057 13.1337L184.664 11.6776L199.747 15.1031Z" fill="#DADFE8"/>
    <path opacity="0.21" d="M197.993 16.2982L197.74 21.6678L181.958 18.0908L184.057 13.1337L197.993 16.2982Z" fill="#DADFE8"/>
    <path d="M197.066 23.5278L179.606 19.5721L182.32 13.1589L197.403 16.5844L197.066 23.5278Z" fill="white"/>
    <path opacity="0.45" d="M96.5105 24.1758H73.3423L74.9189 15.3051H94.9339L96.5105 24.1758Z" fill="#C0D4FC"/>
    <path opacity="0.45" d="M93.6103 25.2784H70.4337L72.0103 16.4076H92.0337L93.6103 25.2784Z" fill="#C0D4FC"/>
    <path d="M95.541 23.5614H72.3728L73.9494 14.6907H93.9644L95.541 23.5614Z" fill="#C0D4FC"/>
    <path opacity="0.11" d="M94.0739 25.6066H72.0187L73.5194 16.7358H92.5732L94.0739 25.6066Z" fill="#172F62"/>
    <path d="M93.0033 26.0947H69.8267L71.4032 17.2324H91.4267L93.0033 26.0947Z" fill="white"/>
</svg>
