<svg width="113" height="84" viewBox="0 0 113 84" fill="none" xmlns="http://www.w3.org/2000/svg">
<path d="M95.6282 59.1843C91.8789 69.1741 74.986 77.798 72.0094 79.5684C56.675 88.681 29.5603 83.1287 17.7946 68.5056C10.2589 59.1431 12.9892 36.6186 13.0636 33.5669C13.4805 16.9953 28.4498 2.78799 46.4289 0.172253C66.3304 -2.7226 67.8995 31.8045 69.2245 33.5669C70.831 35.6989 102.155 41.7939 95.6282 59.1843Z" fill="white"/>
<path fill-rule="evenodd" clip-rule="evenodd" d="M105.11 56.7579C104.739 56.3397 104.294 55.9203 103.894 55.5322C103.355 55.0096 102.908 54.3733 102.336 53.8909C101.654 53.3155 100.815 53.1557 100.1 52.7038C99.9615 52.6165 99.7575 52.4699 99.6912 52.3514L99.5267 52.3055C99.4107 52.0405 99.0952 52.159 99.0164 52.3966C98.9496 52.5964 99.1003 52.8777 99.1218 53.0843C99.1856 53.7175 99.4314 54.0279 99.9445 54.4196C101.057 55.2698 101.985 56.3431 103.169 57.0822C103.68 57.4011 103.985 57.3437 104.548 57.3664C105.037 57.3861 105.679 57.4024 105.11 56.7579Z" fill="#D28A6D"/>
<path fill-rule="evenodd" clip-rule="evenodd" d="M100.8 64.3283C101.591 63.137 103.607 60.3492 103.343 58.4921C103.13 56.9955 105.271 54.8904 105.271 54.8904C105.271 54.8904 105.345 55.035 105.745 54.9817C106.145 54.928 106.966 53.4613 107.055 53.1104C107.121 52.8485 105.562 51.7659 104.759 51.229C104.03 50.5963 102.575 49.377 102.34 49.5094C102.025 49.6874 100.826 50.8656 100.879 51.2656C100.933 51.6655 101.092 51.6996 101.092 51.6996C101.092 51.6996 99.6247 54.3182 98.1245 54.5072C96.264 54.7407 94.1049 57.4201 93.1632 58.4956C92.2223 59.5716 83.5991 70.2136 83.5644 70.833C83.4323 73.2391 89.9711 77.7715 91.4248 76.8355C91.9458 76.5002 100.01 65.5202 100.8 64.3283Z" fill="#CDE0FB"/>
<path fill-rule="evenodd" clip-rule="evenodd" d="M100.738 50.7579L100.75 50.7456C100.746 50.7529 100.742 50.7576 100.738 50.7579ZM105.253 55.5614C105.483 55.5883 105.698 55.7867 105.942 55.6895C106.139 55.6105 106.322 55.2949 106.445 55.1167C106.733 54.6985 106.951 54.2218 107.202 53.7803C107.863 52.6195 106.886 52.1998 106.184 51.5266C105.433 50.8065 104.753 50.1362 103.829 49.6486C103.045 49.2343 102.408 48.526 101.595 49.1804C101.348 49.3791 101.138 49.6355 101.002 49.9318C100.813 50.1287 100.629 50.3411 100.511 50.5449C100.275 50.9535 100.644 51.3965 100.368 51.752C100.173 52.0028 99.6852 52.1848 99.3729 52.1578C99.3555 52.6169 99.6501 53.1689 99.9378 53.4888C100.15 53.7247 100.282 53.7749 100.592 53.8067C100.833 53.8313 101.071 53.7947 101.132 54.08C101.177 54.2933 100.989 54.4594 101.087 54.6854C101.173 54.8817 101.505 55.0666 101.679 55.186C101.879 55.3242 102.133 55.467 102.385 55.4763C102.646 55.4858 102.792 55.3722 103.002 55.5973C103.227 55.8386 103.17 55.8879 103.516 55.9806C103.817 56.0618 103.917 56.1311 104.065 56.4082C104.336 56.9166 104.845 56.9338 105.337 57.1748C105.349 56.6467 105.143 56.0882 105.253 55.5614Z" fill="#EEA081"/>
<path fill-rule="evenodd" clip-rule="evenodd" d="M105.004 51.2345C104.958 51.2469 104.893 51.2505 104.807 51.2425C104.433 51.2078 104.036 50.8465 103.728 50.6572C103.502 50.5188 103.241 50.3887 102.975 50.361C102.863 50.3493 102.776 50.3566 102.702 50.3765C102.548 50.4179 102.443 50.5137 102.267 50.6096C102.199 50.6466 102.138 50.6716 102.082 50.6865C101.568 50.8243 101.601 50.0636 101.844 49.6877C101.969 49.4929 102.116 49.3853 102.277 49.3421C102.747 49.2164 103.332 49.6393 103.832 50.0536C104.108 50.215 104.384 50.3734 104.65 50.5553C104.873 50.7072 105.304 51.1542 105.004 51.2345Z" fill="#FFBA9E"/>
<path fill-rule="evenodd" clip-rule="evenodd" d="M98.5298 56.4903C98.3917 56.5273 98.2558 56.5339 98.1279 56.4928C97.5828 56.3172 97.4817 55.5916 97.9226 55.257C98.3594 54.9248 99.0346 54.8221 99.5432 54.6394L99.3648 54.7246C99.6149 54.6797 99.8218 54.672 100.012 54.8646C100.439 55.296 99.9858 55.6533 99.5944 55.8861C99.3097 56.0551 98.9119 56.3879 98.5298 56.4903Z" fill="#EDFBFD"/>
<path fill-rule="evenodd" clip-rule="evenodd" d="M100.986 53.7634C100.79 53.816 100.585 53.7705 100.403 53.6215C100.211 53.4646 100.322 53.4225 100.513 53.3193C100.656 53.2417 100.806 53.1635 100.95 53.0943C101.134 53.0058 101.513 52.7208 101.776 52.6504C101.824 52.6376 101.867 52.6315 101.905 52.6353C102.015 52.6148 102.125 52.6447 102.116 52.7813C102.106 52.9244 101.785 53.101 101.697 53.1861C101.549 53.3288 101.419 53.4884 101.261 53.6178C101.174 53.6896 101.081 53.738 100.986 53.7634Z" fill="#D28A6D"/>
<path fill-rule="evenodd" clip-rule="evenodd" d="M102.427 55.4165C102.354 55.4362 102.27 55.4282 102.177 55.3805L102.223 55.3897C102.533 54.7802 102.517 53.9453 102.968 53.4095C103.281 53.5851 102.93 54.4628 102.877 54.7179C102.83 54.9422 102.686 55.3473 102.427 55.4165Z" fill="#D28A6D"/>
<path fill-rule="evenodd" clip-rule="evenodd" d="M103.609 55.9257C103.475 55.9616 103.351 55.8549 103.326 55.6943C103.278 55.3917 103.459 54.9212 103.51 54.6177C103.535 54.4691 103.523 54.2249 103.602 54.104C103.649 54.0325 103.695 53.994 103.737 53.9828C103.814 53.9622 103.876 54.032 103.904 54.1545C103.969 54.4388 104.054 55.5692 103.729 55.8512L103.732 55.8505C103.691 55.8904 103.65 55.9148 103.609 55.9257Z" fill="#D28A6D"/>
<path fill-rule="evenodd" clip-rule="evenodd" d="M102.11 52.9941C102.951 53.6381 103.879 54.0911 104.624 54.8723C104.814 55.0705 105.024 55.3406 105.266 55.5566C105.492 55.5882 105.705 55.7788 105.944 55.6828C106.142 55.6043 106.325 55.2887 106.448 55.1106C106.736 54.6925 106.976 54.2281 107.205 53.774C107.337 53.5104 107.392 53.2474 107.386 52.9907L107.379 52.9879C107.153 52.928 106.997 53.2279 106.868 53.3967C106.532 53.8367 106.266 54.2727 105.685 54.3189C104.983 54.3743 104.413 53.9098 103.894 53.479C102.957 52.7022 102.249 51.7097 101.156 51.1094C101.063 51.0586 100.735 50.8886 100.437 50.766C100.406 50.9973 100.49 51.2322 100.477 51.4503C100.859 52.0799 101.49 52.5191 102.11 52.9941Z" fill="#EEA081"/>
<path fill-rule="evenodd" clip-rule="evenodd" d="M105.553 55.6388C105.533 55.5163 105.354 55.3671 105.265 55.2919C104.861 54.9525 104.428 54.6528 104.026 54.3137C103.708 54.0467 103.421 53.7496 103.089 53.4975C102.477 53.0332 101.873 52.5395 101.289 52.0434C101.073 51.8592 100.851 51.6323 100.585 51.5334C100.475 51.4923 100.339 51.4387 100.228 51.5261C100.103 51.6247 100.299 51.7975 100.299 51.7975C100.321 51.8257 100.673 52.0274 100.844 52.1558C101.292 52.4915 101.743 52.8156 102.19 53.1565C102.636 53.4977 103.068 53.8426 103.475 54.2186C103.793 54.5131 104.169 54.7465 104.502 55.0287C104.775 55.2608 104.997 55.6439 105.3 55.8242C105.451 55.9144 105.591 55.8563 105.553 55.6388Z" fill="#724C41"/>
<path fill-rule="evenodd" clip-rule="evenodd" d="M102.588 58.2735C102.71 58.0457 102.832 57.8227 102.996 57.6079C103.314 57.1914 103.669 56.8194 103.894 56.3594C104.027 56.088 104.101 55.8073 104.197 55.5131C104.248 55.3562 104.351 54.7662 104.207 54.6636L103.751 54.2954C103.632 54.5253 103.41 54.7036 103.231 54.8961C102.879 55.2763 102.533 55.7058 102.282 56.1604C102.061 56.5629 101.85 56.9867 101.781 57.4429C101.739 57.7234 101.783 57.695 102.042 57.7321C101.929 56.7628 102.66 55.7388 103.325 55.0869C103.529 54.8862 103.769 54.714 104.013 54.558C104.175 54.7789 104.07 55.1541 104.02 55.3986C103.944 55.7684 103.782 56.1272 103.602 56.4556C103.368 56.8822 103.088 57.2934 102.77 57.6699C102.622 57.8444 102.477 58.0194 102.354 58.2142C102.284 58.3243 102.047 58.6301 102.072 58.7721C102.074 58.788 102.067 58.7926 102.064 58.8068C102.141 58.8711 102.267 58.9162 102.36 58.9328C102.344 58.7005 102.482 58.4691 102.588 58.2735Z" fill="#724C41"/>
<path fill-rule="evenodd" clip-rule="evenodd" d="M60.3526 29.8922C60.4181 29.9597 60.4829 30.0272 60.5477 30.0947C60.6259 30.1762 60.7529 30.0546 60.674 29.9731C60.6092 29.9056 60.5444 29.8381 60.4796 29.7706C60.4014 29.6891 60.2745 29.8107 60.3526 29.8922Z" fill="#FFF3AE"/>
<path fill-rule="evenodd" clip-rule="evenodd" d="M60.503 31.7839C60.3286 31.8053 60.1542 31.8267 59.9805 31.8481C59.8676 31.8621 59.9103 32.0325 60.0212 32.0185C60.1956 31.9971 60.37 31.9757 60.5438 31.9543C60.6567 31.941 60.6139 31.7706 60.503 31.7839Z" fill="#FFF3AE"/>
<path fill-rule="evenodd" clip-rule="evenodd" d="M59.945 31.202C59.8227 31.2254 59.7098 31.2749 59.5982 31.3277C59.4959 31.3764 59.5801 31.5301 59.6817 31.482C59.7806 31.4352 59.8781 31.3938 59.9857 31.3724C60.0973 31.3511 60.0552 31.1807 59.945 31.202Z" fill="#FFF3AE"/>
<path fill-rule="evenodd" clip-rule="evenodd" d="M58.1043 31.8211C58.1023 31.9079 58.101 31.9955 58.0609 32.075C58.0108 32.1752 58.1611 32.2661 58.2119 32.1645C58.266 32.0563 58.2774 31.9434 58.28 31.8244C58.282 31.7115 58.107 31.7075 58.1043 31.8211Z" fill="#FFF3AE"/>
<path fill-rule="evenodd" clip-rule="evenodd" d="M57.4154 32.8532C57.3887 32.9273 57.3626 33.0008 57.3359 33.075C57.3205 33.1198 57.3533 33.1712 57.3967 33.1832C57.4448 33.1966 57.4889 33.1679 57.5049 33.1224C57.5317 33.0489 57.5577 32.9748 57.5838 32.9006C57.5998 32.8558 57.5671 32.805 57.5236 32.7924C57.4755 32.779 57.4314 32.8077 57.4154 32.8532Z" fill="#FFF3AE"/>
<path fill-rule="evenodd" clip-rule="evenodd" d="M53.1027 31.2129C53.1842 31.2971 53.2651 31.3813 53.3459 31.4655C53.4248 31.5477 53.5511 31.4261 53.4729 31.3439C53.3914 31.2597 53.3105 31.1755 53.2297 31.0913C53.1508 31.0091 53.0245 31.1307 53.1027 31.2129Z" fill="#FFF3AE"/>
<path fill-rule="evenodd" clip-rule="evenodd" d="M53.6463 31.3228C53.6944 31.3762 53.7191 31.4457 53.7672 31.4992C53.8427 31.5834 53.969 31.4618 53.8935 31.3776C53.8461 31.3248 53.8213 31.2553 53.7732 31.2012C53.697 31.117 53.5708 31.2393 53.6463 31.3228Z" fill="#FFF3AE"/>
<path fill-rule="evenodd" clip-rule="evenodd" d="M54.6331 33.6287C54.5262 33.6662 54.446 33.743 54.3658 33.8198C54.2843 33.8987 54.4059 34.025 54.4875 33.9468C54.5416 33.8947 54.601 33.8252 54.6739 33.7991C54.7193 33.7831 54.7507 33.7437 54.7387 33.6936C54.7287 33.6508 54.6779 33.6127 54.6331 33.6287Z" fill="#FFF3AE"/>
<path fill-rule="evenodd" clip-rule="evenodd" d="M56.2165 34.1437C56.3201 34.2105 56.4056 34.2947 56.4905 34.3836C56.5693 34.4651 56.6956 34.3435 56.6174 34.2619C56.5212 34.1617 56.423 34.0682 56.306 33.9927C56.2112 33.9319 56.121 34.0829 56.2165 34.1437Z" fill="#FFF3AE"/>
<path fill-rule="evenodd" clip-rule="evenodd" d="M0.520508 45.2099C1.05839 44.8755 1.5642 44.4895 2.02792 44.0591C5.18105 47.057 8.33419 50.0548 11.4873 53.0528C12.1 53.6355 12.7415 54.2662 12.9366 55.0894C13.1317 55.9119 12.6486 56.9509 11.8047 57.0097C11.0831 57.0605 10.5198 56.4257 10.0808 55.8511C8.7097 54.0557 7.63995 52.1438 6.09712 50.5017C5.59599 49.968 0.961505 44.9357 0.520508 45.2099Z" fill="#568E4C"/>
<path fill-rule="evenodd" clip-rule="evenodd" d="M7.17512 44.3374C7.03012 43.8232 6.14879 42.6105 6.57376 42.286C7.05551 41.9174 7.7424 41.8169 8.24019 42.0109C10.0008 46.5287 11.7615 51.0463 13.5228 55.564C13.8622 56.4353 13.9952 58.4665 12.5493 57.7055C11.4969 57.1516 10.8775 55.1357 10.4425 54.1468C9.05203 50.9863 8.11057 47.6537 7.17512 44.3374Z" fill="#82B378"/>
<path fill-rule="evenodd" clip-rule="evenodd" d="M10.9168 45.3633C11.2696 45.2635 11.6224 45.1638 11.9752 45.064C13.484 49.9683 14.7308 54.9534 15.7084 59.9901C15.9836 61.4087 16.2376 62.8793 15.9075 64.2859C15.862 64.4803 15.7945 64.6874 15.6308 64.8004C14.4589 65.6055 12.2452 59.9821 11.998 58.9484C11.3832 56.3773 11.1534 53.5664 10.979 50.9368C10.9456 50.4351 10.556 45.4652 10.9168 45.3633Z" fill="#568E4C"/>
<path fill-rule="evenodd" clip-rule="evenodd" d="M2.81803 48.938C2.95634 48.5003 3.50893 48.3105 3.95527 48.4155C4.40228 48.5205 4.7651 48.8371 5.10721 49.143C6.191 50.1108 7.27545 51.0797 8.28039 52.1284C10.5308 54.4762 12.3536 57.1924 14.165 59.8938C15.0076 61.1507 16.3907 63.0289 16.058 64.6573C15.6938 66.4346 14.6087 65.0775 14.0962 64.2523C11.9747 60.84 9.76709 57.5151 7.30218 54.3372C6.56317 53.3848 5.80813 52.445 5.03705 51.5185C4.78248 51.2129 2.7325 49.2078 2.81803 48.938Z" fill="#82B378"/>
<path fill-rule="evenodd" clip-rule="evenodd" d="M5.91406 54.1944C6.63169 53.903 7.34864 53.6112 8.06626 53.3195C10.8967 56.4428 13.3322 59.9233 15.298 63.6524C13.8126 59.483 13.2079 55.0022 13.536 50.589C14.3238 50.5504 15.1115 50.5118 15.9 50.4731C15.743 52.7484 16.2234 55.0142 16.7011 57.2439C17.6653 61.7454 18.6455 66.2957 20.6334 70.4478C21.1472 71.5216 21.7352 72.59 21.9049 73.768C22.225 75.9877 19.9365 78.5902 17.8798 76.5129C17.2524 75.8788 17.1876 74.7863 16.9049 73.9818C16.4238 72.6107 15.7517 71.283 15.1316 69.9707C12.525 64.4576 9.43804 59.1716 5.91406 54.1944Z" fill="#568E4C"/>
<path fill-rule="evenodd" clip-rule="evenodd" d="M13.1258 57.8806C13.0637 55.5747 13.2761 53.2623 13.7552 51.0063C13.5347 54.4909 13.3309 58.0964 14.5463 61.3698C14.1381 60.864 13.6924 60.2887 13.3991 59.7054C13.1265 59.1641 13.1418 58.4739 13.1258 57.8806Z" fill="#82B378"/>
<path fill-rule="evenodd" clip-rule="evenodd" d="M91.9476 40.77C88.9621 51.1814 83.7526 58.8215 80.3118 57.8349C76.8709 56.8482 76.5016 47.6084 79.487 37.197C82.4724 26.7858 87.682 19.1456 91.1229 20.1322C94.5637 21.1188 94.9329 30.3588 91.9476 40.77Z" fill="#EAB86E"/>
<path fill-rule="evenodd" clip-rule="evenodd" d="M92.739 30.4485C92.7989 30.9968 90.7516 31.6684 88.1663 31.9488C85.581 32.229 83.4365 32.0118 83.3767 31.4635C83.3166 30.9152 85.3638 30.2435 87.9493 29.9632C90.5345 29.6828 92.679 29.9 92.739 30.4485Z" fill="#F1C37E"/>
<path fill-rule="evenodd" clip-rule="evenodd" d="M92.5471 30.1579C90.5935 31.2107 83.3613 31.4566 83.3613 31.4566C83.42 32.0103 85.5695 32.2247 88.1622 31.9354C90.7548 31.6461 92.8091 30.9628 92.7502 30.4092C92.7403 30.3153 92.669 30.2315 92.5471 30.1579Z" fill="#DAA14E"/>
<path fill-rule="evenodd" clip-rule="evenodd" d="M91.1696 35.8201C91.2296 36.3684 89.1822 37.04 86.5969 37.3204C84.0116 37.6006 81.8673 37.3834 81.8073 36.8352C81.7473 36.2867 83.7945 35.615 86.38 35.3347C88.9651 35.0544 91.1096 35.2716 91.1696 35.8201Z" fill="#F1C37E"/>
<path fill-rule="evenodd" clip-rule="evenodd" d="M90.9777 35.5295C89.0242 36.5822 81.792 36.8282 81.792 36.8282C81.8508 37.3819 84.0002 37.5962 86.5928 37.3071C89.1855 37.0177 91.2397 36.3344 91.1809 35.7808C91.171 35.6869 91.0997 35.603 90.9777 35.5295Z" fill="#DAA14E"/>
<path fill-rule="evenodd" clip-rule="evenodd" d="M89.6316 41.1317C89.6915 41.6799 87.6442 42.3515 85.0588 42.632C82.4736 42.9121 80.3292 42.6949 80.2692 42.1467C80.2092 41.5983 82.2564 40.9266 84.8418 40.6463C87.427 40.3659 89.5716 40.5831 89.6316 41.1317Z" fill="#F1C37E"/>
<path fill-rule="evenodd" clip-rule="evenodd" d="M89.4397 40.841C87.4861 41.8938 80.2539 42.1397 80.2539 42.1397C80.3127 42.6934 82.4621 42.9077 85.0547 42.6186C87.6474 42.3292 89.7016 41.6459 89.6428 41.0923C89.6329 40.9984 89.5616 40.9146 89.4397 40.841Z" fill="#DAA14E"/>
<path fill-rule="evenodd" clip-rule="evenodd" d="M88.0896 46.5931C88.1495 47.1413 86.1022 47.8128 83.5168 48.0933C80.9316 48.3736 78.787 48.1563 78.7272 47.608C78.6672 47.0598 80.7144 46.3879 83.2999 46.1076C85.885 45.8273 88.0296 46.0446 88.0896 46.5931Z" fill="#F1C37E"/>
<path fill-rule="evenodd" clip-rule="evenodd" d="M87.8977 46.3025C85.9442 47.3551 78.7119 47.6011 78.7119 47.6011C78.7706 48.1548 80.9201 48.3692 83.5127 48.08C86.1054 47.7906 88.1597 47.1073 88.1008 46.5537C88.0909 46.4599 88.0197 46.3759 87.8977 46.3025Z" fill="#DAA14E"/>
<path fill-rule="evenodd" clip-rule="evenodd" d="M36.0712 18.3927C36.3839 17.4215 37.7129 16.5781 37.7129 16.5781L37.3377 16.427C36.3724 17.2319 35.9906 17.8085 35.8386 18.2762C35.9133 18.3133 35.9907 18.3522 36.0712 18.3927Z" fill="#558949"/>
<path fill-rule="evenodd" clip-rule="evenodd" d="M36.4791 17.3857C36.4791 17.3857 34.05 16.3493 35.4326 13.3606C35.4326 13.3606 37.9707 15.0695 36.4791 17.3857Z" fill="#82B378"/>
<path fill-rule="evenodd" clip-rule="evenodd" d="M32.5486 24.4668C33.6852 25.1186 34.0181 26.0934 35.1376 25.9819C38.1445 25.6825 41.239 21.5598 39.6538 19.4312C38.7462 18.2126 37.4807 18.5311 36.3207 17.8659C35.1609 17.2007 34.7942 15.9461 33.2857 15.7791C30.6507 15.4873 28.6688 20.2481 29.9335 22.9973C30.4043 24.0208 31.412 23.8149 32.5486 24.4668Z" fill="#A8D29F"/>
<path fill-rule="evenodd" clip-rule="evenodd" d="M37.8236 21.5751C37.6806 21.3274 37.649 20.9551 37.7647 20.5745C37.9447 19.9831 38.4126 19.5962 38.8099 19.7104C38.9517 19.7512 39.0653 19.8502 39.1446 19.9876C39.2876 20.2353 39.3192 20.6078 39.2035 20.9882C39.0236 21.5797 38.5556 21.9666 38.1583 21.8523C38.0166 21.8116 37.903 21.7125 37.8236 21.5751Z" fill="#D1F2C9"/>
<path fill-rule="evenodd" clip-rule="evenodd" d="M33.2682 15.7712C33.2835 15.7728 33.2986 15.7747 33.3135 15.7767C33.2986 15.7747 33.2835 15.7728 33.2682 15.7712Z" fill="#EBEDE8"/>
<path fill-rule="evenodd" clip-rule="evenodd" d="M29.9994 23.1263C29.9734 23.0813 29.9487 23.0335 29.9254 22.9827C28.8987 20.7478 30.0371 17.1719 31.9223 16.0822C32.349 15.8356 32.814 15.7163 33.3008 15.7687C33.3023 15.7689 33.3038 15.7691 33.3052 15.7692L33.3052 15.7692C33.3257 15.7714 33.3459 15.7739 33.3659 15.7765C33.3663 15.7765 33.3666 15.7765 33.367 15.7766C33.368 15.7768 33.3692 15.7769 33.3703 15.7771C33.371 15.7772 33.3716 15.7772 33.3723 15.7773C33.3727 15.7774 33.373 15.7775 33.3734 15.7775C33.5836 15.8057 33.7709 15.8557 33.9413 15.9221C32.2952 17.0101 30.9304 19.3551 31.1521 21.3136C31.1781 21.5439 31.2423 21.7315 31.3355 21.8929C31.6942 22.514 32.4823 22.7456 33.1778 23.515C33.433 23.7974 33.6148 24.0846 33.7715 24.3559C33.8128 24.4275 33.8524 24.498 33.8911 24.567C33.9298 24.636 33.9677 24.7035 34.0055 24.7691C34.2791 25.243 34.554 25.6188 35.1644 25.7518C35.3543 25.7933 35.5496 25.8195 35.7484 25.8322C35.5422 25.8874 35.3349 25.9271 35.1281 25.9482C34.0234 26.0608 33.686 25.1185 32.5893 24.4713C32.573 24.4617 32.5565 24.4521 32.5398 24.4426C31.46 23.8272 30.4949 23.9847 29.9994 23.1263Z" fill="#95C38B"/>
<path fill-rule="evenodd" clip-rule="evenodd" d="M72.7353 17.9752C72.6437 16.9591 73.5375 15.6633 73.5375 15.6633L73.1331 15.6709C72.559 16.789 72.4329 17.4689 72.4757 17.9588C72.559 17.9639 72.6454 17.9694 72.7353 17.9752Z" fill="#558949"/>
<path fill-rule="evenodd" clip-rule="evenodd" d="M72.7161 16.8901C72.7161 16.8901 70.0753 16.8853 70.1801 13.5939C70.1801 13.5939 73.1842 14.1753 72.7161 16.8901Z" fill="#82B378"/>
<path fill-rule="evenodd" clip-rule="evenodd" d="M71.8651 24.9436C73.166 25.0995 73.8534 25.8667 74.8403 25.3267C77.4912 23.8762 78.7289 18.8721 76.4379 17.5321C75.1264 16.765 74.0859 17.5527 72.7582 17.3936C71.4306 17.2344 70.603 16.2228 69.1491 16.6585C66.6096 17.4195 66.6454 22.5762 68.8837 24.6127C69.717 25.3709 70.5642 24.7876 71.8651 24.9436Z" fill="#A8D29F"/>
<path fill-rule="evenodd" clip-rule="evenodd" d="M75.5898 20.2214C75.3613 20.0493 75.1868 19.7189 75.1446 19.3234C75.0792 18.7087 75.3587 18.1697 75.7691 18.1196C75.9155 18.1017 76.0588 18.1485 76.1854 18.244C76.4139 18.4161 76.5885 18.7466 76.6306 19.1421C76.6961 19.7568 76.4165 20.2958 76.0062 20.3458C75.8598 20.3637 75.7165 20.3169 75.5898 20.2214Z" fill="#D1F2C9"/>
<path fill-rule="evenodd" clip-rule="evenodd" d="M69.1284 16.6585C69.1431 16.6541 69.1578 16.6499 69.1723 16.6459C69.1578 16.6499 69.1431 16.6541 69.1284 16.6585Z" fill="#EBEDE8"/>
<path fill-rule="evenodd" clip-rule="evenodd" d="M68.9941 24.7055C68.9526 24.6743 68.9112 24.64 68.8699 24.6023C67.0516 22.9462 66.7023 19.2097 68.0119 17.4701C68.3083 17.0763 68.6897 16.7848 69.1583 16.6429C69.1597 16.6424 69.1611 16.642 69.1625 16.6416L69.1626 16.6416C69.1822 16.6356 69.2018 16.63 69.2213 16.6246C69.2216 16.6245 69.2219 16.6244 69.2223 16.6243C69.2233 16.624 69.2245 16.6237 69.2255 16.6234C69.2262 16.6232 69.2268 16.623 69.2275 16.6229C69.2278 16.6228 69.2282 16.6227 69.2285 16.6226C69.433 16.5664 69.625 16.5392 69.8078 16.5338C68.7177 18.1785 68.3776 20.8704 69.3469 22.5865C69.4609 22.7883 69.5932 22.936 69.7421 23.0482C70.315 23.4797 71.1309 23.385 72.0718 23.8215C72.4171 23.9817 72.6966 24.1749 72.9468 24.3635C73.0128 24.4132 73.0768 24.4627 73.1394 24.5111C73.202 24.5595 73.2632 24.6068 73.3237 24.6524C73.7608 24.9818 74.1606 25.2203 74.7745 25.1042C74.9655 25.0682 75.1555 25.016 75.3434 24.95C75.1752 25.0814 74.9999 25.1989 74.8178 25.2992C73.8449 25.8344 73.1661 25.0989 71.9037 24.9317C71.885 24.9292 71.866 24.9268 71.847 24.9246C70.6125 24.78 69.7857 25.3021 68.9941 24.7055Z" fill="#95C38B"/>
<path fill-rule="evenodd" clip-rule="evenodd" d="M10.5097 9.27487C10.7091 9.20676 10.9343 9.27491 11.1029 9.39972C11.2714 9.52429 11.3944 9.69938 11.5144 9.87119C11.6471 10.0612 11.781 10.2534 11.8701 10.4674C11.9592 10.6816 12.0012 10.9225 11.9437 11.1478C11.8988 11.3233 11.7969 11.479 11.6863 11.623C11.5551 11.7934 11.4092 11.9528 11.2507 12.0986C11.2053 12.1402 11.1606 12.1723 11.115 12.1997C10.9225 12.4459 10.682 12.7841 10.421 13.2226C9.69045 14.451 9.7918 15.773 9.7918 15.773L7.88168 14.3532C7.88168 14.3532 8.36774 13.1534 9.3125 12.0762C9.3525 12.0307 9.39178 11.9866 9.43064 11.943C9.52375 11.5427 9.61773 11.1379 9.52593 10.7434C9.505 10.6536 9.47441 10.5624 9.48882 10.4711C9.50179 10.3885 9.55027 10.3163 9.59857 10.248C9.7649 10.0122 9.9441 9.78536 10.1351 9.56877C10.2413 9.44843 10.3576 9.32667 10.5097 9.27487Z" fill="#FFC938"/>
<path fill-rule="evenodd" clip-rule="evenodd" d="M20.4789 32.4449L20.5697 33.3381L19.8108 34.2348C19.8108 34.2348 16.7088 35.7459 10.4226 31.0146C5.75289 27.4999 4.45942 21.1483 4.73813 18.913C5.09647 16.0391 6.75279 14.4188 7.97183 13.9582C8.80406 13.6439 10.1389 14.4479 10.732 16.1681C11.303 17.8244 10.3537 19.3432 12.0177 23.1997C13.6941 27.085 16.3819 29.5702 17.3303 30.3046C18.7951 31.4387 20.4789 32.4449 20.4789 32.4449Z" fill="#FFC938"/>
<path fill-rule="evenodd" clip-rule="evenodd" d="M4.65024 18.9557C5.01901 16.0757 6.68874 14.4477 7.91545 13.9827C8.00201 13.9501 8.09397 13.9298 8.18986 13.9208L8.66835 14.2177C8.66835 14.2177 7.59089 14.3477 6.38461 16.7853C5.63895 18.2925 5.85151 21.2137 6.90072 24.3548C7.63224 26.5448 9.77344 29.1827 14.0425 32.1314C16.5844 33.8871 19.2978 33.5224 19.2978 33.5224L19.9721 34.0036L19.7551 34.2589C19.7551 34.2589 16.6325 35.7819 10.328 31.0612C5.6446 27.5544 4.36341 21.1956 4.65024 18.9557Z" fill="#E8B134"/>
<path fill-rule="evenodd" clip-rule="evenodd" d="M9.46782 10.7045C9.44682 10.6141 9.41609 10.5224 9.4307 10.4304C9.44387 10.3473 9.49276 10.2746 9.54149 10.2059C9.70932 9.96838 9.89009 9.73992 10.0827 9.52178C10.1898 9.40056 10.3071 9.27792 10.4604 9.22562C10.6613 9.15689 10.8881 9.22526 11.0579 9.3507C11.1775 9.43905 11.2742 9.55273 11.3632 9.6727C11.0401 9.6336 10.7802 9.9322 10.5609 10.1889C10.5177 10.2396 10.4415 10.2773 10.4316 10.3429C10.4231 10.3996 10.4524 10.4534 10.4619 10.5099C10.5224 10.8717 10.5036 10.966 10.515 11.3253C10.2705 11.8055 10.0409 12.1107 9.75573 12.5991C9.50044 13.0362 9.30683 13.5355 8.94761 13.9038C8.69425 14.1637 8.2568 14.2637 7.91857 14.4212L7.80772 14.3388C7.80772 14.3388 8.29861 13.1309 9.25148 12.0459C9.2918 12.0001 9.33143 11.9557 9.37065 11.9118C9.46486 11.5089 9.55991 11.1014 9.46782 10.7045Z" fill="#E8B134"/>
<path fill-rule="evenodd" clip-rule="evenodd" d="M10.8086 16.5729C11.1262 18.0734 10.4911 19.6289 12.0161 23.1406C13.6982 27.0138 16.3619 29.5057 17.3006 30.2433C18.7503 31.3825 20.4142 32.3967 20.4142 32.3967L20.446 32.688C20.1267 32.903 19.6279 32.6332 19.3538 32.4695C15.7425 30.3129 12.5843 26.4824 11.4234 22.9415C10.6124 20.4678 10.8624 18.7612 10.8086 16.5729Z" fill="#FFD93B"/>
<path fill-rule="evenodd" clip-rule="evenodd" d="M20.4529 32.3491L20.5584 33.2484L19.8278 34.1358L19.3903 33.5784C19.3474 33.5237 19.3375 33.45 19.3647 33.3873L19.6015 32.8412C19.6177 32.8037 19.646 32.7731 19.6818 32.7543L20.4529 32.3491Z" fill="#776057"/>
<path fill-rule="evenodd" clip-rule="evenodd" d="M10.6332 12.383C10.6343 12.4659 10.5755 12.536 10.5219 12.5993C10.1887 12.9931 9.92981 13.4492 9.76286 13.9371C9.73718 14.0119 9.71253 14.0896 9.6617 14.1504C9.61087 14.2112 9.526 14.2514 9.45125 14.2248C9.37546 14.1981 9.33463 14.1108 9.33664 14.0305C9.33852 13.9499 9.37391 13.8745 9.40929 13.8022C9.6403 13.3298 9.90052 12.8717 10.188 12.4314C10.2559 12.3274 10.6296 12.1211 10.6332 12.383Z" fill="#FFD93B"/>
<path fill-rule="evenodd" clip-rule="evenodd" d="M20.5212 33.235L19.8306 34.0567C19.8306 34.0567 19.6484 33.8368 19.6475 33.6198C19.6466 33.4029 19.8042 33.3127 19.8024 33.1343C19.8007 32.9558 19.7493 32.9169 19.7626 32.8566C19.7759 32.7963 19.9994 32.6006 20.1363 32.6167C20.2733 32.6328 20.4564 32.6226 20.4564 32.6226L20.5212 33.235Z" fill="#3F332F"/>
<path fill-rule="evenodd" clip-rule="evenodd" d="M11.3733 9.63345C11.4776 9.77085 11.562 9.92192 11.6589 10.0642C11.7808 10.2432 11.9228 10.4089 12.0282 10.5977C12.0743 10.6804 12.1135 10.7682 12.129 10.8614C12.1514 10.9958 12.123 11.1349 12.0705 11.2601C12.0181 11.3856 11.9426 11.4997 11.8666 11.6123C11.7998 11.7114 11.7306 11.8119 11.6352 11.8839C11.5053 11.9816 11.3377 12.0182 11.2065 12.1142C11.2543 11.9845 11.354 11.8202 11.3146 11.6872C11.2027 11.3094 11.1438 11.1861 10.8241 10.6657C10.7588 10.5595 10.6487 10.3846 10.5824 10.2789C10.535 10.2033 10.4665 10.1382 10.4411 10.0524C10.4159 9.96708 10.4383 9.87392 10.4791 9.79509C10.5198 9.71604 10.5779 9.64783 10.6301 9.57617C10.6799 9.50717 10.7253 9.43378 10.7891 9.37763C10.8754 9.30158 10.9654 9.2777 11.0609 9.34024C11.183 9.4202 11.285 9.51712 11.3733 9.63345Z" fill="#937C69"/>
<path fill-rule="evenodd" clip-rule="evenodd" d="M11.1844 9.55485C11.1384 9.62307 11.0706 9.67311 11.0089 9.72635C10.895 9.82411 10.7918 9.94362 10.7111 10.0709C10.6793 10.121 10.6425 10.18 10.5949 10.2004C10.5607 10.215 10.5343 10.2031 10.5098 10.1925C10.2635 10.0878 9.89056 10.1769 9.55286 10.4212C9.53339 10.4354 9.51001 10.4511 9.49609 10.4444C9.48229 10.438 9.48698 10.4131 9.49374 10.3919C9.53161 10.2721 9.60298 10.1495 9.68101 10.0327C9.85627 9.77105 10.0718 9.52589 10.3074 9.32033C10.4191 9.22285 10.5459 9.12912 10.6559 9.1172C10.7132 9.11101 10.7603 9.12802 10.8046 9.14664C10.9067 9.18988 11.3387 9.32708 11.1844 9.55485Z" fill="#776057"/>
<path fill-rule="evenodd" clip-rule="evenodd" d="M50.7776 3.65234C50.7776 3.65234 52.6811 4.06127 52.0732 6.42007C52.0732 6.42007 50.0012 5.53935 50.7776 3.65234Z" fill="#82B378"/>
<path fill-rule="evenodd" clip-rule="evenodd" d="M51.4431 6.02914C51.0343 5.70293 50.5818 5.16912 50.6054 4.41455C50.9595 5.20026 51.8173 5.51544 52.1926 5.61834C52.1906 5.70213 52.1848 5.78926 52.1748 5.88007C52.1294 5.89577 52.0792 5.91394 52.0216 5.93212C51.8846 5.97522 51.7049 6.01831 51.4431 6.02914Z" fill="#79A86F"/>
<path fill-rule="evenodd" clip-rule="evenodd" d="M52.4858 10.7049C53.2408 9.69811 53.5365 8.77302 53.0825 7.59001C52.6284 6.40706 53.1315 6.29808 52.6718 5.95337C52.4045 5.75292 52.3049 5.84252 52.0203 5.93212C51.8153 5.99667 51.5143 6.06121 50.9857 6.01745C49.7228 5.91288 48.9175 6.45584 48.1624 7.46258C47.4074 8.4694 47.1116 9.39455 47.5657 10.5776C48.0197 11.7605 47.5167 11.8695 47.9764 12.2142C48.2436 12.4147 48.3432 12.325 48.628 12.2354C48.833 12.1709 49.1339 12.1064 49.6626 12.1501C50.9254 12.2547 51.7307 11.7117 52.4858 10.705V10.7049Z" fill="#FACB56"/>
<path fill-rule="evenodd" clip-rule="evenodd" d="M48.2644 12.3348C48.181 12.3348 48.0953 12.303 47.9766 12.214C47.6103 11.9393 47.8553 11.8142 47.7402 11.1762C47.8239 11.1639 47.9224 11.1533 48.0439 11.1533C48.2335 11.1533 48.4786 11.1792 48.8093 11.2658C49.0955 11.3408 49.3632 11.3767 49.6173 11.3767C50.451 11.3767 51.1363 10.9901 51.8396 10.3299C52.7572 9.46864 53.2082 8.60843 52.9653 7.36481C52.9567 7.32085 52.9493 7.27875 52.9425 7.23779C52.9725 7.34824 53.0118 7.47059 53.0645 7.60803C53.5186 8.79097 53.2229 9.71613 52.4678 10.7229C52.3056 10.9393 52.141 11.1342 51.9701 11.3059C51.4151 11.8564 50.792 12.1627 49.9635 12.1627C49.8662 12.1627 49.766 12.1585 49.6629 12.1499C49.5422 12.1399 49.4335 12.1355 49.3351 12.1355C49.0019 12.1355 48.7865 12.1854 48.6282 12.2352C48.47 12.285 48.3689 12.3348 48.2644 12.3348Z" fill="#F8C34F"/>
<path fill-rule="evenodd" clip-rule="evenodd" d="M49.2752 42.1865C49.2752 42.1865 49.1062 42.9623 47.5346 44.0547C46.4575 44.8038 42.7324 46.7007 42.7324 46.7007L49.1209 44.4403L49.479 43.2716L49.2752 42.1865Z" fill="#B7281D"/>
<path fill-rule="evenodd" clip-rule="evenodd" d="M66.1182 31.4597L66.65 30.1421L67.0676 31.3809L67.5066 30.4755L67.8207 31.3849L68.4895 30.5804L68.9292 31.417L69.2005 30.5383L69.723 31.3796C69.723 31.3796 70.1199 30.4755 70.1199 30.5597C70.1199 30.6432 70.4166 31.4871 70.4166 31.4871L70.8515 30.6432L71.2164 31.5346C71.2164 31.5346 69.89 32.4827 69.89 32.5455C69.89 32.6083 66.1182 31.4597 66.1182 31.4597Z" fill="#E0BD9D"/>
<path fill-rule="evenodd" clip-rule="evenodd" d="M25.8926 62.6289L26.2855 65.3751L30.8057 65.8702L31.673 63.6292L25.8926 62.6289Z" fill="#E0BD9D"/>
<path fill-rule="evenodd" clip-rule="evenodd" d="M66.1186 31.4594C66.7346 31.2429 71.2168 31.5343 71.2168 31.5343L71.7974 65.1603L72.1903 77.96H65.1444L63.6984 74.9057L57.1924 62.0386L59.9393 43.9657L66.1186 31.4594Z" fill="#E0BD9D"/>
<path fill-rule="evenodd" clip-rule="evenodd" d="M51.1626 34.1646L50.7624 34.5856L50.6187 34.8669L50.4316 34.7713L50.5753 34.49L50.6856 33.9214L50.8713 34.0156C50.8232 34.1826 50.7878 34.2929 50.7644 34.347C50.8179 34.2702 50.8887 34.1773 50.9769 34.0697L51.1626 34.1646Z" fill="#8C6B58"/>
<path fill-rule="evenodd" clip-rule="evenodd" d="M51.197 34.1826L51.5344 34.3543L51.4549 34.51L51.32 34.4412L51.2445 34.5889L51.3707 34.653L51.2959 34.8013L51.1696 34.7365L51.0821 34.9076L51.2304 34.9831L51.1509 35.1388L50.8008 34.9604L51.197 34.1826Z" fill="#8C6B58"/>
<path fill-rule="evenodd" clip-rule="evenodd" d="M51.8077 34.4935L51.491 35.1156L51.6139 35.1784L51.5344 35.3341L51.209 35.1684L51.6059 34.3906L51.8077 34.4935Z" fill="#8C6B58"/>
<path fill-rule="evenodd" clip-rule="evenodd" d="M52.1817 34.6846L51.865 35.306L51.9879 35.3688L51.9084 35.5245L51.583 35.3588L51.9799 34.5811L52.1817 34.6846Z" fill="#8C6B58"/>
<path fill-rule="evenodd" clip-rule="evenodd" d="M52.4982 35.0969C52.5163 35.0602 52.5263 35.0361 52.5276 35.0241C52.529 35.0121 52.523 35.0027 52.5103 34.9967C52.4996 34.9914 52.4895 34.9914 52.4802 34.996C52.4702 35.0014 52.4548 35.0241 52.4348 35.0642L52.2497 35.4277C52.2263 35.4724 52.2143 35.5012 52.2122 35.5139C52.2109 35.5266 52.2169 35.5359 52.2303 35.5426C52.2437 35.55 52.2557 35.5479 52.2657 35.5379C52.2757 35.5279 52.2924 35.4998 52.3158 35.4537L52.4982 35.0969ZM52.5697 35.4551C52.5303 35.5332 52.5002 35.588 52.4802 35.6181C52.4595 35.6488 52.4327 35.6729 52.4 35.6896C52.3666 35.707 52.3298 35.7143 52.2898 35.7116C52.2497 35.7096 52.2076 35.697 52.1635 35.6749C52.122 35.6535 52.088 35.6275 52.0619 35.5974C52.0358 35.5667 52.0191 35.5326 52.0131 35.4952C52.0064 35.4577 52.0098 35.4217 52.0225 35.3876C52.0345 35.3542 52.0612 35.2967 52.102 35.2165L52.1702 35.0836C52.2096 35.0054 52.2396 34.9513 52.2604 34.9205C52.2804 34.8898 52.3071 34.8664 52.3399 34.849C52.3733 34.8323 52.41 34.825 52.4501 34.827C52.4909 34.8297 52.533 34.8424 52.5764 34.8644C52.6185 34.8858 52.6519 34.9112 52.6786 34.9419C52.7047 34.9726 52.7207 35.0067 52.7267 35.0441C52.7334 35.0816 52.7301 35.117 52.7181 35.151C52.7054 35.1851 52.6786 35.2419 52.6379 35.3221L52.5697 35.4551Z" fill="#8C6B58"/>
<path fill-rule="evenodd" clip-rule="evenodd" d="M53.6374 35.4263L53.151 36.158L52.8984 36.0297C52.9365 35.8981 52.9853 35.7517 53.0454 35.5907C53.004 35.6515 52.9158 35.7785 52.7808 35.9696L52.5303 35.8419L52.8356 35.0181L53.0321 35.1183L52.8022 35.6729C52.8791 35.5413 52.988 35.3729 53.1303 35.1677L53.3401 35.2746C53.3314 35.2994 53.2953 35.3882 53.2319 35.5426L53.1029 35.8499C53.2105 35.6675 53.3234 35.4931 53.441 35.3261L53.6374 35.4263Z" fill="#8C6B58"/>
<path fill-rule="evenodd" clip-rule="evenodd" d="M50.2527 35.3864L49.8565 36.1642L49.6794 36.074L49.9474 35.5488L49.6093 36.0379L49.4837 35.9744L49.6707 35.4232L49.4095 35.9363L49.2324 35.8461L49.6287 35.0684L49.8906 35.202C49.8745 35.2528 49.8545 35.3116 49.8304 35.3797L49.7583 35.5915L49.9895 35.2528L50.2527 35.3864Z" fill="#8C6B58"/>
<path fill-rule="evenodd" clip-rule="evenodd" d="M50.7926 35.6626L50.5273 36.1825C50.4973 36.2413 50.4746 36.2814 50.4585 36.3034C50.4425 36.3255 50.4184 36.3442 50.387 36.3595C50.3549 36.3749 50.3202 36.3816 50.2828 36.3789C50.2454 36.3756 50.2059 36.3635 50.1638 36.3422C50.1171 36.3188 50.0803 36.29 50.0523 36.2566C50.0249 36.2232 50.0082 36.1898 50.0035 36.1557C49.9981 36.1223 50.0015 36.0909 50.0122 36.0622C50.0229 36.0328 50.0503 35.9747 50.095 35.8871L50.3296 35.4268L50.532 35.5297L50.2347 36.113C50.2173 36.1471 50.2079 36.1698 50.2073 36.1811C50.2059 36.1925 50.2113 36.2005 50.222 36.2065C50.2353 36.2132 50.246 36.2119 50.2547 36.2032C50.2641 36.1952 50.2781 36.1711 50.2981 36.1324L50.5901 35.5597L50.7926 35.6626Z" fill="#8C6B58"/>
<path fill-rule="evenodd" clip-rule="evenodd" d="M51.1804 36.1565L50.9927 36.0603L51.0221 36.0028C51.0361 35.9761 51.0421 35.9574 51.0414 35.948C51.0401 35.938 51.0341 35.93 51.0227 35.9247C51.0107 35.9186 50.9987 35.9186 50.9873 35.9253C50.9766 35.932 50.9653 35.9454 50.9552 35.9661C50.9419 35.9915 50.9359 36.0129 50.9359 36.0296C50.9359 36.0463 50.9472 36.0717 50.9686 36.1064C51.0314 36.206 51.0662 36.2788 51.0715 36.3249C51.0775 36.371 51.0615 36.4318 51.0221 36.508C50.994 36.5634 50.9666 36.6015 50.9405 36.6209C50.9145 36.6403 50.8777 36.6496 50.8316 36.6483C50.7855 36.6476 50.7374 36.6343 50.6886 36.6089C50.6345 36.5815 50.5931 36.5481 50.5657 36.508C50.5376 36.4679 50.5256 36.4291 50.5303 36.391C50.5343 36.3536 50.5517 36.3055 50.5811 36.2474L50.6071 36.1966L50.7949 36.2922L50.7468 36.3864C50.7321 36.4158 50.7247 36.4358 50.7261 36.4465C50.7274 36.4579 50.7341 36.4666 50.7481 36.4739C50.7615 36.4806 50.7742 36.4806 50.7862 36.4732C50.7976 36.4659 50.8089 36.4519 50.8196 36.4311C50.843 36.385 50.8523 36.3523 50.847 36.3316C50.841 36.3109 50.8216 36.2714 50.7882 36.2126C50.7548 36.1538 50.7341 36.1124 50.7254 36.089C50.7167 36.0663 50.7134 36.0383 50.7167 36.0062C50.7194 35.9741 50.7314 35.9374 50.7521 35.8959C50.7829 35.8365 50.8123 35.797 50.8417 35.777C50.8711 35.7576 50.9065 35.7483 50.9486 35.7503C50.99 35.7523 51.0354 35.765 51.0835 35.7897C51.1356 35.8164 51.1764 35.8478 51.2045 35.8832C51.2325 35.9193 51.2466 35.9534 51.2452 35.9848C51.2439 36.0169 51.2279 36.0636 51.1965 36.1258L51.1804 36.1565Z" fill="#8C6B58"/>
<path fill-rule="evenodd" clip-rule="evenodd" d="M51.7873 36.169L51.7078 36.3247L51.5875 36.2639L51.2708 36.886L51.0684 36.7824L51.3857 36.1603L51.2661 36.0995L51.345 35.9438L51.7873 36.169Z" fill="#8C6B58"/>
<path fill-rule="evenodd" clip-rule="evenodd" d="M51.7822 36.7963C51.8169 36.7028 51.8617 36.5885 51.9178 36.4542C51.8216 36.5925 51.7528 36.6948 51.7127 36.7609L51.7822 36.7963ZM52.1443 36.3507L51.863 37.1872L51.6566 37.0823L51.7174 36.9367L51.6445 36.8999L51.5617 37.0335L51.3525 36.9266L51.8517 36.2017L52.1443 36.3507Z" fill="#8C6B58"/>
<path fill-rule="evenodd" clip-rule="evenodd" d="M52.427 36.6636L52.3388 36.8367C52.3615 36.848 52.3796 36.8534 52.3916 36.8514C52.4043 36.85 52.419 36.832 52.4364 36.7979L52.4584 36.7551C52.4705 36.7304 52.4745 36.7117 52.4698 36.6997C52.4644 36.6877 52.4504 36.6756 52.427 36.6636ZM52.2927 36.4277L52.4357 36.5006C52.5313 36.5493 52.5941 36.5854 52.6241 36.6101C52.6542 36.6349 52.6722 36.6676 52.6783 36.709C52.6836 36.7498 52.6696 36.8039 52.6362 36.8701C52.6054 36.9309 52.5774 36.9676 52.5513 36.9803C52.5259 36.9937 52.4898 36.991 52.4437 36.9723C52.4785 37.003 52.4985 37.0298 52.5039 37.0538C52.5092 37.0772 52.5099 37.0973 52.5059 37.1126C52.5025 37.128 52.4845 37.1674 52.4524 37.2302L52.3482 37.4353L52.1597 37.3398L52.292 37.0812C52.3128 37.0398 52.3228 37.0124 52.3214 36.999C52.3201 36.9857 52.3054 36.9716 52.2773 36.9576L52.0989 37.3084L51.8965 37.2048L52.2927 36.4277Z" fill="#8C6B58"/>
<path fill-rule="evenodd" clip-rule="evenodd" d="M52.9583 36.9336L52.6977 37.4454C52.7271 37.4601 52.7478 37.4635 52.7605 37.4555C52.7732 37.4468 52.7926 37.4167 52.8193 37.3653L52.973 37.0632C52.991 37.0278 53.0017 37.0044 53.0044 36.9938C53.007 36.9824 53.0057 36.9724 52.9997 36.9637C52.9943 36.955 52.9803 36.945 52.9583 36.9336ZM52.824 36.6978L52.975 36.7746C53.0732 36.8247 53.1367 36.8628 53.1667 36.8895C53.1961 36.9156 53.2149 36.9436 53.2229 36.9737C53.2302 37.0031 53.2295 37.0318 53.2215 37.0592C53.2128 37.0866 53.1901 37.1367 53.1527 37.2109L53.0137 37.4829C52.9783 37.553 52.9509 37.5978 52.9322 37.6178C52.9142 37.6379 52.8928 37.6506 52.8701 37.6559C52.8467 37.6606 52.822 37.6599 52.7952 37.6526C52.7685 37.6459 52.7311 37.6299 52.683 37.6051L52.4277 37.4755L52.824 36.6978Z" fill="#8C6B58"/>
<path fill-rule="evenodd" clip-rule="evenodd" d="M52.887 38.9722L48.3 36.6336C48.143 36.5534 48.0808 36.361 48.161 36.204C48.2405 36.0463 48.4336 35.9841 48.5906 36.0643L53.1777 38.4029C53.3347 38.4831 53.3975 38.6755 53.3173 38.8326C53.2371 38.9903 53.0447 39.0524 52.887 38.9722Z" fill="#F6DC4B"/>
<path fill-rule="evenodd" clip-rule="evenodd" d="M55.4009 31.2596C55.4115 31.2395 55.4169 31.2262 55.4176 31.2202C55.4176 31.2142 55.4136 31.2088 55.4042 31.2041C55.3955 31.1995 55.3888 31.1995 55.3835 31.2028C55.3788 31.2068 55.3708 31.2188 55.3608 31.2389L55.2612 31.4353C55.2499 31.4574 55.2438 31.4714 55.2438 31.4767C55.2438 31.4821 55.2485 31.4874 55.2579 31.4921C55.2666 31.4968 55.2732 31.4968 55.2779 31.4935C55.2826 31.4894 55.2899 31.4781 55.3 31.4587L55.4009 31.2596ZM55.5071 31.3558L55.4389 31.4901C55.4209 31.5249 55.4042 31.5489 55.3888 31.5636C55.3735 31.5776 55.3514 31.5857 55.3233 31.5877C55.2953 31.5897 55.2632 31.5817 55.2278 31.5636C55.187 31.5429 55.159 31.5208 55.1436 31.4968C55.1282 31.4734 55.1216 31.4514 55.1229 31.43C55.1242 31.4093 55.1329 31.3825 55.149 31.3505L55.2204 31.2101C55.2398 31.1721 55.2585 31.146 55.2759 31.1313C55.2926 31.1173 55.316 31.1092 55.3441 31.1092C55.3728 31.1092 55.4029 31.1173 55.4363 31.134C55.473 31.1527 55.4997 31.1747 55.5158 31.1988C55.5318 31.2235 55.5392 31.2462 55.5378 31.2683C55.5358 31.2897 55.5258 31.3191 55.5071 31.3558ZM55.6394 30.7645L54.9238 31.4166L54.8496 31.3792L55.5659 30.7271L55.6394 30.7645ZM55.2325 30.6997C55.2425 30.6796 55.2478 30.6662 55.2485 30.6602C55.2485 30.6542 55.2445 30.6489 55.2351 30.6442C55.2265 30.6402 55.2191 30.6395 55.2144 30.6435C55.2091 30.6475 55.2017 30.6589 55.191 30.6789L55.0915 30.8747C55.0801 30.8974 55.0741 30.9115 55.0741 30.9168C55.0741 30.9228 55.0788 30.9282 55.0888 30.9329C55.0968 30.9369 55.1035 30.9369 55.1089 30.9335C55.1135 30.9295 55.1209 30.9181 55.1302 30.8988L55.2325 30.6997ZM55.338 30.7965L55.2699 30.9302C55.2519 30.9649 55.2352 30.9896 55.2198 31.0037C55.2044 31.0177 55.1824 31.0257 55.1543 31.0277C55.1262 31.0297 55.0942 31.0217 55.0587 31.0037C55.0173 30.9823 54.9893 30.9602 54.9746 30.9369C54.9592 30.9141 54.9525 30.8914 54.9538 30.8707C54.9545 30.8493 54.9639 30.8226 54.9799 30.7905L55.0514 30.6509C55.0708 30.6121 55.0895 30.5861 55.1069 30.5714C55.1236 30.5567 55.1469 30.55 55.175 30.5493C55.2031 30.5493 55.2338 30.558 55.2672 30.5747C55.3033 30.5934 55.33 30.6148 55.3461 30.6389C55.3621 30.6629 55.3695 30.6863 55.3681 30.7083C55.3668 30.7297 55.3568 30.7591 55.338 30.7965Z" fill="#8C6B58"/>
<path fill-rule="evenodd" clip-rule="evenodd" d="M52.5654 33.9151C52.8928 33.2763 53.2316 32.6429 53.581 32.0162C53.6264 31.934 53.5015 31.8605 53.4554 31.9427C53.1059 32.5694 52.7672 33.2029 52.4404 33.8416C52.3977 33.9252 52.5226 33.9987 52.5654 33.9151Z" fill="#8C6B58"/>
<path fill-rule="evenodd" clip-rule="evenodd" d="M53.4476 32.1355C53.3494 32.0286 53.3855 31.8589 53.4369 31.7239C53.4656 31.6491 53.4977 31.5749 53.5425 31.5081C53.6267 31.3831 53.7536 31.2882 53.8973 31.2441C53.9494 31.4513 53.8899 31.6778 53.789 31.8662C53.7155 32.0032 53.5772 32.1402 53.4242 32.1689L53.4476 32.1355Z" fill="#8C6B58"/>
<path fill-rule="evenodd" clip-rule="evenodd" d="M53.7257 32.2648C53.8928 32.2902 54.0518 32.3537 54.2015 32.4306C54.1607 32.5061 54.0758 32.5462 53.9943 32.5735C53.8714 32.6156 53.7397 32.639 53.6095 32.6263C53.5146 32.6176 53.3435 32.5876 53.3014 32.486C53.1999 32.2421 53.6021 32.2455 53.7257 32.2648Z" fill="#8C6B58"/>
<path fill-rule="evenodd" clip-rule="evenodd" d="M53.5115 32.7112C53.6779 32.7366 53.8369 32.7994 53.9866 32.8763C53.9459 32.9518 53.861 32.9925 53.7795 33.0199C53.6565 33.0613 53.5249 33.0854 53.3946 33.0727C53.2997 33.0633 53.1287 33.0339 53.0866 32.9324C52.985 32.6878 53.3873 32.6918 53.5115 32.7112Z" fill="#8C6B58"/>
<path fill-rule="evenodd" clip-rule="evenodd" d="M53.2375 33.2502C53.4038 33.2756 53.5629 33.3391 53.7132 33.4159C53.6718 33.4914 53.5876 33.5315 53.5054 33.5596C53.3825 33.601 53.2508 33.6244 53.1212 33.6117C53.0256 33.603 52.8553 33.5729 52.8132 33.4714C52.7116 33.2275 53.1132 33.2308 53.2375 33.2502Z" fill="#8C6B58"/>
<path fill-rule="evenodd" clip-rule="evenodd" d="M53.1916 31.9811C53.0773 31.8568 52.9364 31.7599 52.7894 31.6777C52.7493 31.7546 52.7626 31.8468 52.7853 31.9303C52.8194 32.0553 52.8729 32.1782 52.9557 32.2791C53.0159 32.3533 53.1361 32.4782 53.2437 32.4568C53.503 32.4054 53.2765 32.0733 53.1916 31.9811Z" fill="#8C6B58"/>
<path fill-rule="evenodd" clip-rule="evenodd" d="M52.9384 32.4062C52.8242 32.2826 52.6832 32.1857 52.5362 32.1035C52.4961 32.1797 52.5101 32.2726 52.5322 32.3554C52.5663 32.481 52.6197 32.6033 52.7026 32.7042C52.7634 32.7784 52.883 32.904 52.9912 32.8826C53.2505 32.8305 53.0233 32.4984 52.9384 32.4062Z" fill="#8C6B58"/>
<path fill-rule="evenodd" clip-rule="evenodd" d="M52.6448 32.9357C52.5306 32.8114 52.3896 32.7145 52.2419 32.6323C52.2025 32.7092 52.2159 32.8014 52.2386 32.8849C52.2727 33.0098 52.3261 33.1328 52.409 33.2337C52.4691 33.3072 52.5894 33.4328 52.6969 33.4114C52.9562 33.36 52.729 33.0279 52.6448 32.9357Z" fill="#8C6B58"/>
<path fill-rule="evenodd" clip-rule="evenodd" d="M26.1465 58.1817C26.2601 59.6183 25.8926 62.6291 25.8926 62.6291C25.8926 62.6291 29.0116 64.7145 30.4529 64.7298C29.5515 64.23 26.2855 65.3753 26.2855 65.3753C26.2855 65.3753 26.0476 67.4526 26.3683 69.1137C26.5641 70.1247 27.406 70.851 27.3646 71.2385C27.0946 73.7529 26.4412 75.4387 26.2487 77.9604C35.813 77.7165 42.2756 77.8168 48.4182 77.917C53.652 78.0025 58.6534 78.0874 65.1434 77.9604C66.0822 74.7051 67.4486 69.1806 67.4486 69.1806L66.6601 66.0976C66.6601 66.0976 64.3309 65.8838 62.341 65.7461C64.4685 65.0258 65.2509 64.5641 65.9372 64.2207C65.8583 63.5084 65.7795 62.7961 65.7006 62.0838C63.2798 61.9535 60.859 61.8226 58.4382 61.6916C60.7989 61.0943 63.2337 60.7902 65.6692 60.7889C64.4986 51.0515 64.6503 41.1565 66.1176 31.4599C66.1269 31.3977 42.1888 30.9173 39.9938 30.9681C37.5616 31.0236 25.8926 31.9797 25.8926 31.9797C25.8926 31.9797 27.3559 36.3296 27.1133 37.7154C26.7592 39.7386 26.4819 41.7759 26.2815 43.8205C25.8144 48.5913 25.767 53.4029 26.1465 58.1817Z" fill="#EBCFA8"/>
<path fill-rule="evenodd" clip-rule="evenodd" d="M26.3691 69.1138C26.4132 68.628 38.4451 68.1596 38.1558 68.2558C37.8665 68.352 27.3654 71.2386 27.3654 71.2386L26.3691 69.1138Z" fill="#E0BD9D"/>
<path fill-rule="evenodd" clip-rule="evenodd" d="M30.3796 52.2411C30.0889 52.2411 29.8076 52.189 29.557 52.0393C28.9984 51.7052 28.7946 51.0016 28.7051 50.3569C28.1198 46.1306 30.4337 41.9017 29.851 37.6748C29.851 36.0258 29.3025 34.7776 31.1212 33.925C31.6651 33.6698 32.1983 33.5869 32.7349 33.5869C33.3075 33.5869 33.8842 33.6811 34.4808 33.762C38.1237 34.2531 41.9043 34.1021 45.5793 34.1956C47.2083 34.2371 48.8747 34.2858 50.3968 34.8671C50.5906 34.9413 50.7971 35.0382 50.888 35.2246C51.0269 35.5093 50.8305 35.8407 50.622 36.0792C47.6493 39.4856 41.5021 38.2488 38.512 41.6391C37.8197 42.4242 37.3547 43.5154 37.6487 44.519C37.7783 44.962 38.0462 45.3555 38.3696 45.6849C39.9051 47.2505 42.3847 47.2866 44.3699 48.218C44.6692 48.3583 44.9679 48.528 45.167 48.7926C45.731 49.543 45.1877 50.7003 44.3485 51.1206C43.8427 51.3738 43.2821 51.442 42.7115 51.442C42.3346 51.442 41.9531 51.4126 41.5809 51.3865C40.7397 51.3291 39.8978 51.3003 39.0552 51.3003C36.4914 51.3003 33.9269 51.5669 31.4186 52.0968C31.0812 52.1683 30.7237 52.2411 30.3796 52.2411Z" fill="#EFD9BA"/>
<path fill-rule="evenodd" clip-rule="evenodd" d="M38.8242 61.7653C38.6351 61.7653 38.4453 61.7606 38.2555 61.7506C34.0307 61.5281 35.9423 56.756 38.448 55.3575C41.1989 53.822 44.6981 53.7345 47.5573 52.2057C49.0393 51.4132 50.4144 50.417 51.9552 49.7454C53.4185 49.108 55.1277 48.6864 56.0224 47.3647C57.2438 45.5586 56.3071 43.0804 56.8302 40.9642C57.0233 40.1831 57.4911 39.3947 58.2561 39.1475C58.4165 39.0953 58.5802 39.0713 58.7432 39.0713C59.4809 39.0713 60.2139 39.5631 60.6155 40.2099C61.1059 40.9997 61.2135 41.9618 61.2783 42.8893C61.5208 46.327 61.3498 49.7795 61.1794 53.2213C61.1186 54.4514 60.9756 55.8446 59.9967 56.5909C59.376 57.064 58.5561 57.1589 57.7817 57.2538C54.3533 57.6767 50.9683 58.4445 47.6936 59.5423C44.7897 60.5158 41.867 61.766 38.8242 61.7653Z" fill="#EFD9BA"/>
<path fill-rule="evenodd" clip-rule="evenodd" d="M57.3761 76.045C55.731 76.045 54.0786 75.9067 52.4356 75.7911C48.6697 75.7911 44.8892 75.3828 41.1146 75.3621C40.8427 75.3608 40.5701 75.3601 40.2981 75.3601C37.1523 75.3601 34.0099 75.4577 30.8674 75.606C30.4492 75.6254 30.0195 75.6742 29.6193 75.6742C28.8094 75.6742 28.1219 75.4764 27.9034 74.4427C27.733 73.6335 27.9943 73.1371 28.6344 72.6994C30.0188 71.754 32.9408 72.193 34.5678 71.8161C37.8138 71.0651 41.0258 70.1016 44.2457 69.2463C47.5639 68.3656 50.9014 67.481 54.3205 67.1729C55.1183 67.1008 55.9221 67.062 56.7259 67.062C59.3679 67.062 62.0092 67.4843 64.414 68.5554C63.228 69.6933 61.0036 69.0392 59.8784 70.2372C59.692 70.4356 59.5463 70.6889 59.5443 70.9615C59.5383 71.6156 60.304 71.9898 60.9562 72.0446C61.6076 72.1001 62.3279 72.0186 62.8538 72.4068C63.5908 72.9513 63.4792 74.1728 62.8471 74.8369C62.2157 75.5004 61.2595 75.731 60.3521 75.8572C59.3646 75.9942 58.3717 76.045 57.3761 76.045Z" fill="#EFD9BA"/>
<path fill-rule="evenodd" clip-rule="evenodd" d="M28.1884 33.2872L25.8926 31.9796L26.8995 30.7281L28.431 31.8459L29.319 30.964L30.6193 31.6535L32.1761 30.4989L33.1169 31.3796L34.4159 30.2717L35.3633 31.2626L37.0385 30.2717L38.1864 31.0588L39.9671 30.2717L41.5901 31.0588L43.2131 30.2717L44.6417 31.0588L47.1741 30.1421L48.181 31.0669L50.0305 30.3045L51.1664 31.1203L52.7574 30.1421L54.1873 31.1778L55.4521 30.3365L57.4319 31.3796L58.5685 30.2717L59.3476 31.3796L60.4835 30.3693L61.6501 31.3335L62.9832 30.3365L63.6006 31.3796L64.7685 30.3693L66.1176 31.4597L31.9162 34.6222L28.431 31.8459L28.1884 33.2872Z" fill="#EBCFA8"/>
</svg>
