<svg width="73" height="84" viewBox="0 0 73 84" fill="none" xmlns="http://www.w3.org/2000/svg">
<path d="M44.9142 2.0524C54.9962 2.23846 66.317 9.25782 70.8078 19.5303C72.1121 22.5151 75.0694 36.0791 64.7381 46.4163C63.2294 58.0644 68.6259 71.7413 64.7381 76.3588C54.9914 87.928 19.7842 87.5926 4.75184 66.7657C-3.44838 55.4051 -1.3522 39.9555 13.5194 29.1876C21.7737 14.4836 31.4175 1.80433 44.9142 2.0524Z" fill="#F4F7FA"/>
<path fill-rule="evenodd" clip-rule="evenodd" d="M62.6466 25.2216C62.2845 24.8125 61.8484 24.4022 61.4571 24.0226C60.9304 23.5114 60.4929 22.889 59.9334 22.417C59.2662 21.8541 58.4455 21.6978 57.7465 21.2558C57.6106 21.1704 57.4111 21.027 57.3462 20.911L57.1853 20.8662C57.0718 20.607 56.7632 20.7228 56.6861 20.9553C56.6207 21.1508 56.7682 21.4259 56.7892 21.628C56.8516 22.2474 57.092 22.5511 57.5939 22.9343C58.6823 23.7659 59.5902 24.8158 60.7482 25.5388C61.248 25.8508 61.5462 25.7946 62.0969 25.8169C62.5757 25.8361 63.2032 25.852 62.6466 25.2216Z" fill="#D28A6D"/>
<path fill-rule="evenodd" clip-rule="evenodd" d="M58.4313 32.6271C59.2045 31.4617 61.1771 28.7346 60.9184 26.918C60.7101 25.454 62.8042 23.3947 62.8042 23.3947C62.8042 23.3947 62.8773 23.5362 63.2687 23.4841C63.6592 23.4315 64.463 21.9967 64.5497 21.6535C64.6144 21.3973 63.0889 20.3383 62.304 19.813C61.5907 19.1942 60.1674 18.0014 59.9375 18.1309C59.6289 18.305 58.4565 19.4576 58.5086 19.8488C58.5613 20.24 58.7171 20.2734 58.7171 20.2734C58.7171 20.2734 57.2814 22.835 55.8138 23.0198C53.9938 23.2483 51.8818 25.8693 50.9605 26.9214C50.0401 27.974 41.6047 38.3842 41.5708 38.9901C41.4415 41.3438 47.838 45.7775 49.26 44.8619C49.7696 44.5339 57.6583 33.793 58.4313 32.6271Z" fill="#CDE0FB"/>
<path fill-rule="evenodd" clip-rule="evenodd" d="M54.2005 25.1159C54.2005 25.1159 43.2237 38.204 43.1892 38.9387C43.1552 39.6732 44.4273 40.9963 45.5559 41.7407C46.684 42.486 48.2999 43.8949 48.8326 43.6581C49.3645 43.4209 59.8193 29.4075 59.8193 29.4075L54.2005 25.1159Z" fill="#E5E5B7"/>
<path fill-rule="evenodd" clip-rule="evenodd" d="M57.5381 26.7114C56.2212 25.6858 54.5905 24.6584 54.2009 25.1161C53.8115 25.5743 55.0256 26.9515 56.4759 28.0381C57.9262 29.1247 59.5832 29.9244 59.8197 29.4077C60.0555 28.8911 58.9279 27.7945 57.5381 26.7114Z" fill="white"/>
<path fill-rule="evenodd" clip-rule="evenodd" d="M58.3705 19.3527L58.3822 19.3407C58.378 19.3478 58.3738 19.3523 58.3705 19.3527ZM62.787 24.0515C63.012 24.0779 63.2223 24.2719 63.4607 24.1769C63.6532 24.0996 63.833 23.7909 63.9534 23.6165C64.235 23.2075 64.4477 22.7411 64.6933 22.3092C65.3398 21.1737 64.3846 20.7631 63.6979 20.1047C62.9631 19.4002 62.2975 18.7445 61.3942 18.2675C60.6272 17.8623 60.0037 17.1693 59.2082 17.8095C58.9667 18.0039 58.7612 18.2547 58.6284 18.5445C58.4438 18.7371 58.264 18.9449 58.1483 19.1443C57.917 19.544 58.2788 19.9773 58.0086 20.3251C57.8178 20.5705 57.3404 20.7485 57.0349 20.722C57.0179 21.1712 57.306 21.7111 57.5875 22.0241C57.7948 22.2548 57.9244 22.304 58.2277 22.335C58.4636 22.3591 58.6956 22.3234 58.7554 22.6024C58.7999 22.8111 58.6153 22.9735 58.7118 23.1946C58.7957 23.3867 59.121 23.5675 59.291 23.6843C59.4862 23.8195 59.7348 23.9592 59.9815 23.9683C60.2371 23.9776 60.3792 23.8664 60.585 24.0867C60.8053 24.3227 60.7492 24.3709 61.0874 24.4616C61.3821 24.541 61.4801 24.6088 61.6251 24.8799C61.8904 25.3772 62.3882 25.394 62.8695 25.6298C62.8807 25.1132 62.6795 24.5669 62.787 24.0515Z" fill="#EEA081"/>
<path fill-rule="evenodd" clip-rule="evenodd" d="M62.5442 19.8187C62.4987 19.8309 62.4354 19.8343 62.3507 19.8265C61.985 19.7926 61.5967 19.4392 61.2953 19.254C61.075 19.1186 60.8196 18.9914 60.5586 18.9642C60.4493 18.9528 60.3646 18.96 60.292 18.9794C60.1411 19.0198 60.039 19.1136 59.8665 19.2074C59.7998 19.2436 59.74 19.2681 59.6857 19.2826C59.1825 19.4174 59.2152 18.6733 59.4523 18.3056C59.5752 18.115 59.7189 18.0098 59.8767 17.9675C60.3357 17.8445 60.9087 18.2583 61.3976 18.6635C61.6673 18.8214 61.9375 18.9764 62.1977 19.1543C62.4161 19.3029 62.8371 19.7402 62.5442 19.8187Z" fill="#FFBA9E"/>
<path fill-rule="evenodd" clip-rule="evenodd" d="M56.2105 24.9602C56.0753 24.9964 55.9424 25.0029 55.8173 24.9627C55.2841 24.7909 55.1852 24.0811 55.6165 23.7538C56.0437 23.4289 56.7043 23.3283 57.2019 23.1497L57.0273 23.233C57.272 23.1891 57.4743 23.1816 57.6601 23.37C58.0777 23.792 57.6347 24.1414 57.2519 24.3692C56.9734 24.5345 56.5842 24.86 56.2105 24.9602Z" fill="#BEEBF2"/>
<path fill-rule="evenodd" clip-rule="evenodd" d="M58.6141 22.2924C58.4221 22.3438 58.2221 22.2993 58.0437 22.1536C57.8564 22.0001 57.9644 21.9589 58.1519 21.8579C58.2912 21.782 58.4379 21.7055 58.5794 21.6378C58.7586 21.5512 59.1298 21.2724 59.3868 21.2036C59.4335 21.1911 59.4759 21.1851 59.5127 21.1888C59.6204 21.1687 59.7283 21.198 59.7195 21.3317C59.7096 21.4717 59.3959 21.6444 59.31 21.7276C59.1653 21.8672 59.0373 22.0233 58.8831 22.1499C58.7977 22.2201 58.7069 22.2675 58.6141 22.2924Z" fill="#D28A6D"/>
<path fill-rule="evenodd" clip-rule="evenodd" d="M60.0228 23.9098C59.9508 23.9291 59.8689 23.9212 59.7779 23.8746L59.8229 23.8835C60.126 23.2873 60.1108 22.4706 60.5516 21.9464C60.8575 22.1182 60.5144 22.9768 60.4622 23.2263C60.4161 23.4457 60.2753 23.8421 60.0228 23.9098Z" fill="#D28A6D"/>
<path fill-rule="evenodd" clip-rule="evenodd" d="M61.1799 24.4081C61.0486 24.4433 60.9279 24.3389 60.9034 24.1817C60.8565 23.8857 61.0337 23.4255 61.0834 23.1286C61.108 22.9833 61.0955 22.7444 61.1734 22.6261C61.2196 22.5562 61.2643 22.5185 61.3054 22.5075C61.3805 22.4874 61.4414 22.5557 61.4688 22.6755C61.5318 22.9537 61.615 24.0594 61.2977 24.3353L61.3003 24.3346C61.2606 24.3736 61.2197 24.3974 61.1799 24.4081Z" fill="#D28A6D"/>
<path fill-rule="evenodd" clip-rule="evenodd" d="M59.7113 21.5396C60.5345 22.1696 61.4415 22.6127 62.1707 23.3769C62.356 23.5708 62.5621 23.835 62.7987 24.0463C63.0195 24.0772 63.2278 24.2636 63.4618 24.1698C63.6551 24.093 63.8349 23.7843 63.9547 23.6101C64.2362 23.201 64.4718 22.7468 64.6952 22.3026C64.8243 22.0447 64.8779 21.7874 64.8728 21.5363L64.8653 21.5336C64.6446 21.475 64.4918 21.7683 64.3655 21.9335C64.0369 22.3639 63.7763 22.7903 63.2085 22.8356C62.5213 22.8898 61.9645 22.4354 61.4564 22.0139C60.5395 21.2541 59.847 20.2832 58.7781 19.696C58.687 19.6462 58.3663 19.4799 58.075 19.36C58.0443 19.5863 58.1269 19.8161 58.1143 20.0295C58.4878 20.6453 59.1043 21.0749 59.7113 21.5396Z" fill="#EEA081"/>
<path fill-rule="evenodd" clip-rule="evenodd" d="M63.0811 24.1268C63.0612 24.007 62.8861 23.8611 62.7994 23.7875C62.4045 23.4555 61.9809 23.1623 61.5875 22.8306C61.2766 22.5695 60.995 22.2788 60.6705 22.0322C60.0724 21.578 59.4808 21.095 58.9102 20.6098C58.6989 20.4296 58.4817 20.2076 58.2217 20.1109C58.1141 20.0707 57.9803 20.0183 57.8719 20.1037C57.7496 20.2001 57.9417 20.3693 57.9417 20.3693C57.9626 20.3968 58.3072 20.5941 58.4748 20.7197C58.9133 21.0482 59.3542 21.3651 59.7914 21.6987C60.2279 22.0324 60.6506 22.3698 61.0483 22.7376C61.3596 23.0257 61.7273 23.254 62.053 23.5301C62.3195 23.7571 62.537 24.1319 62.8333 24.3083C62.9815 24.3965 63.1178 24.3396 63.0811 24.1268Z" fill="#724C41"/>
<path fill-rule="evenodd" clip-rule="evenodd" d="M60.1791 26.7046C60.2987 26.4817 60.4182 26.2636 60.5784 26.0535C60.8895 25.646 61.2372 25.2822 61.457 24.8322C61.5868 24.5666 61.6594 24.2921 61.7535 24.0043C61.8037 23.8508 61.9042 23.2737 61.7637 23.1733L61.3173 22.8132C61.2003 23.0381 60.9838 23.2125 60.8089 23.4007C60.464 23.7726 60.1259 24.1928 59.8803 24.6375C59.6637 25.0312 59.4574 25.4458 59.3902 25.8921C59.3487 26.1665 59.392 26.1386 59.6453 26.175C59.5347 25.2268 60.2502 24.2251 60.9002 23.5874C61.1 23.3911 61.335 23.2226 61.5736 23.07C61.7316 23.2861 61.6297 23.6531 61.5807 23.8923C61.5058 24.2541 61.3474 24.6051 61.1716 24.9262C60.9424 25.3436 60.6685 25.7458 60.3572 26.1142C60.2127 26.2848 60.0712 26.4561 59.951 26.6466C59.8825 26.7543 59.65 27.0534 59.6744 27.1924C59.6772 27.2079 59.6703 27.2124 59.6665 27.2263C59.7423 27.2892 59.8657 27.3333 59.9567 27.3495C59.9411 27.1222 60.076 26.8959 60.1791 26.7046Z" fill="#724C41"/>
<path fill-rule="evenodd" clip-rule="evenodd" d="M49.1949 29.5311C49.2589 29.5971 49.3223 29.6631 49.3857 29.7291C49.4622 29.8089 49.5864 29.6899 49.5093 29.6102C49.4459 29.5442 49.3825 29.4781 49.3191 29.4121C49.2426 29.3324 49.1184 29.4513 49.1949 29.5311Z" fill="#FFF3AE"/>
<path fill-rule="evenodd" clip-rule="evenodd" d="M49.3427 31.3816C49.1721 31.4025 49.0015 31.4234 48.8316 31.4443C48.7211 31.4581 48.7629 31.6247 48.8714 31.611C49.042 31.5901 49.2127 31.5692 49.3826 31.5483C49.4931 31.5352 49.4512 31.3685 49.3427 31.3816Z" fill="#FFF3AE"/>
<path fill-rule="evenodd" clip-rule="evenodd" d="M48.7967 30.8119C48.6771 30.8347 48.5667 30.8831 48.4575 30.9347C48.3575 30.9825 48.4399 31.1328 48.5392 31.0857C48.6359 31.04 48.7314 30.9995 48.8366 30.9785C48.9458 30.9576 48.9046 30.791 48.7967 30.8119Z" fill="#FFF3AE"/>
<path fill-rule="evenodd" clip-rule="evenodd" d="M46.9957 31.4179C46.9937 31.5029 46.9924 31.5885 46.9532 31.6663C46.9042 31.7643 47.0513 31.8532 47.1009 31.7539C47.1539 31.648 47.165 31.5375 47.1676 31.4212C47.1696 31.3107 46.9983 31.3068 46.9957 31.4179Z" fill="#FFF3AE"/>
<path fill-rule="evenodd" clip-rule="evenodd" d="M46.3237 32.427C46.2976 32.4995 46.2721 32.5714 46.246 32.644C46.2309 32.6878 46.2629 32.7381 46.3054 32.7499C46.3525 32.7629 46.3956 32.7348 46.4113 32.6904C46.4375 32.6185 46.463 32.5459 46.4884 32.4734C46.5041 32.4296 46.4721 32.3799 46.4296 32.3675C46.3826 32.3544 46.3394 32.3825 46.3237 32.427Z" fill="#FFF3AE"/>
<path fill-rule="evenodd" clip-rule="evenodd" d="M42.1022 30.8234C42.1819 30.9058 42.261 30.9882 42.3401 31.0705C42.4172 31.1509 42.5408 31.0319 42.4643 30.9516C42.3845 30.8692 42.3055 30.7868 42.2264 30.7045C42.1492 30.6241 42.0257 30.743 42.1022 30.8234Z" fill="#FFF3AE"/>
<path fill-rule="evenodd" clip-rule="evenodd" d="M42.634 30.9304C42.6811 30.9827 42.7053 31.0506 42.7524 31.1029C42.8262 31.1853 42.9498 31.0663 42.8759 30.984C42.8295 30.9323 42.8053 30.8643 42.7582 30.8114C42.6837 30.7291 42.5602 30.8487 42.634 30.9304Z" fill="#FFF3AE"/>
<path fill-rule="evenodd" clip-rule="evenodd" d="M43.6003 33.1863C43.4957 33.2229 43.4173 33.298 43.3389 33.3732C43.2591 33.4503 43.3781 33.5739 43.4578 33.4974C43.5108 33.4464 43.569 33.3784 43.6402 33.353C43.6846 33.3373 43.7154 33.2987 43.7036 33.2497C43.6938 33.2078 43.6441 33.1706 43.6003 33.1863Z" fill="#FFF3AE"/>
<path fill-rule="evenodd" clip-rule="evenodd" d="M45.1492 33.6904C45.2505 33.7557 45.3342 33.8381 45.4172 33.925C45.4943 34.0048 45.6179 33.8858 45.5414 33.8061C45.4473 33.708 45.3512 33.6165 45.2368 33.5427C45.144 33.4832 45.0558 33.6309 45.1492 33.6904Z" fill="#FFF3AE"/>
<path fill-rule="evenodd" clip-rule="evenodd" d="M5.63281 12.5525C6.15898 12.2254 6.65378 11.8478 7.10739 11.4268C10.1919 14.3594 13.2763 17.2919 16.3608 20.2246C16.9602 20.7946 17.5876 21.4116 17.7785 22.2168C17.9694 23.0214 17.4968 24.0378 16.6713 24.0954C15.9653 24.145 15.4143 23.5241 14.9849 22.962C13.6437 21.2057 12.5972 19.3354 11.088 17.7291C10.5978 17.207 6.06421 12.2843 5.63281 12.5525Z" fill="#568E4C"/>
<path fill-rule="evenodd" clip-rule="evenodd" d="M12.1429 11.6991C12.0011 11.1962 11.1389 10.0099 11.5547 9.69244C12.0259 9.33184 12.6978 9.23353 13.1848 9.42334C14.9071 13.8427 16.6294 18.262 18.3524 22.6812C18.6844 23.5336 18.8145 25.5206 17.4 24.7761C16.3706 24.2343 15.7647 22.2623 15.3392 21.2949C13.979 18.2032 13.058 14.9432 12.1429 11.6991Z" fill="#82B378"/>
<path fill-rule="evenodd" clip-rule="evenodd" d="M15.8022 12.7025C16.1473 12.6049 16.4924 12.5073 16.8375 12.4097C18.3134 17.2072 19.5331 22.0837 20.4894 27.0108C20.7587 28.3984 21.007 29.837 20.6841 31.2129C20.6397 31.4031 20.5737 31.6058 20.4135 31.7162C19.2671 32.5038 17.1016 27.0029 16.8598 25.9918C16.2584 23.4766 16.0336 20.7269 15.863 18.1546C15.8303 17.6638 15.4492 12.8022 15.8022 12.7025Z" fill="#568E4C"/>
<path fill-rule="evenodd" clip-rule="evenodd" d="M7.88047 16.2004C8.01578 15.7723 8.55632 15.5866 8.99295 15.6893C9.43022 15.792 9.78514 16.1018 10.1198 16.401C11.18 17.3476 12.2408 18.2955 13.2239 19.3214C15.4253 21.618 17.2084 24.275 18.9804 26.9176C19.8046 28.1471 21.1576 29.9844 20.8321 31.5773C20.4758 33.316 19.4144 31.9885 18.913 31.1812C16.8378 27.8432 14.6782 24.5907 12.267 21.4821C11.544 20.5503 10.8055 19.6311 10.0512 18.7248C9.80213 18.4258 7.79681 16.4643 7.88047 16.2004Z" fill="#82B378"/>
<path fill-rule="evenodd" clip-rule="evenodd" d="M10.9082 21.3418C11.6102 21.0569 12.3115 20.7714 13.0135 20.486C15.7823 23.5413 18.1648 26.946 20.0877 30.5939C18.6347 26.5153 18.0432 22.1321 18.3641 17.815C19.1347 17.7772 19.9054 17.7394 20.6766 17.7017C20.523 19.9273 20.993 22.1438 21.4603 24.325C22.4035 28.7285 23.3624 33.1797 25.3069 37.2413C25.8096 38.2917 26.3848 39.3368 26.5508 40.4892C26.8639 42.6605 24.6252 45.2064 22.6133 43.1743C21.9996 42.554 21.9362 41.4853 21.6597 40.6983C21.1891 39.3571 20.5315 38.0583 19.925 36.7746C17.3752 31.3815 14.3554 26.2107 10.9082 21.3418Z" fill="#568E4C"/>
<path fill-rule="evenodd" clip-rule="evenodd" d="M17.9635 24.9477C17.9027 22.692 18.1105 20.4299 18.5792 18.2231C18.3635 21.6318 18.1641 25.1588 19.3531 28.3609C18.9537 27.8661 18.5177 27.3033 18.2308 26.7327C17.9641 26.2033 17.9791 25.5281 17.9635 24.9477Z" fill="#82B378"/>
<path fill-rule="evenodd" clip-rule="evenodd" d="M33.957 21.936C31.0366 32.1206 25.9405 39.5943 22.5747 38.6292C19.2087 37.664 18.8475 28.6254 21.7679 18.4408C24.6882 8.25631 29.7843 0.782436 33.1503 1.74761C36.5161 2.71274 36.8773 11.7515 33.957 21.936Z" fill="#EAB86E"/>
<path fill-rule="evenodd" clip-rule="evenodd" d="M34.7283 11.8401C34.787 12.3764 32.7842 13.0334 30.2552 13.3076C27.7262 13.5818 25.6284 13.3693 25.5699 12.8329C25.5111 12.2966 27.5138 11.6395 30.0429 11.3654C32.5718 11.091 34.6696 11.3035 34.7283 11.8401Z" fill="#F1C37E"/>
<path fill-rule="evenodd" clip-rule="evenodd" d="M34.5406 11.5558C32.6296 12.5857 25.5549 12.8262 25.5549 12.8262C25.6123 13.3678 27.715 13.5775 30.2512 13.2946C32.7874 13.0115 34.7969 12.3432 34.7394 11.8016C34.7296 11.7098 34.6599 11.6278 34.5406 11.5558Z" fill="#DAA14E"/>
<path fill-rule="evenodd" clip-rule="evenodd" d="M33.1942 17.0935C33.2528 17.6298 31.25 18.2868 28.721 18.5611C26.1921 18.8352 24.0944 18.6227 24.0357 18.0864C23.977 17.55 25.9797 16.8928 28.5088 16.6187C31.0376 16.3445 33.1355 16.5569 33.1942 17.0935Z" fill="#F1C37E"/>
<path fill-rule="evenodd" clip-rule="evenodd" d="M33.0064 16.8092C31.0955 17.839 24.0207 18.0796 24.0207 18.0796C24.0783 18.6213 26.1809 18.8309 28.717 18.5481C31.2532 18.265 33.2627 17.5966 33.2052 17.055C33.1954 16.9632 33.1258 16.8811 33.0064 16.8092Z" fill="#DAA14E"/>
<path fill-rule="evenodd" clip-rule="evenodd" d="M31.6893 22.2903C31.7479 22.8266 29.7452 23.4835 27.2161 23.7579C24.6872 24.032 22.5895 23.8195 22.5308 23.2832C22.4721 22.7468 24.4748 22.0897 27.0039 21.8155C29.5328 21.5412 31.6306 21.7537 31.6893 22.2903Z" fill="#F1C37E"/>
<path fill-rule="evenodd" clip-rule="evenodd" d="M31.5015 22.006C29.5905 23.0359 22.5158 23.2764 22.5158 23.2764C22.5734 23.818 24.676 24.0277 27.2121 23.7449C29.7483 23.4617 31.7578 22.7934 31.7003 22.2518C31.6906 22.16 31.6209 22.078 31.5015 22.006Z" fill="#DAA14E"/>
<path fill-rule="evenodd" clip-rule="evenodd" d="M30.1805 27.6326C30.2392 28.1689 28.2364 28.8258 25.7073 29.1002C23.1784 29.3743 21.0806 29.1618 21.0221 28.6254C20.9633 28.0891 22.966 27.4319 25.4951 27.1577C28.024 26.8835 30.1218 27.096 30.1805 27.6326Z" fill="#F1C37E"/>
<path fill-rule="evenodd" clip-rule="evenodd" d="M29.9928 27.3483C28.0818 28.378 21.0071 28.6186 21.0071 28.6186C21.0645 29.1603 23.1672 29.37 25.7033 29.0871C28.2396 28.804 30.2491 28.1356 30.1915 27.5941C30.1818 27.5023 30.1121 27.4202 29.9928 27.3483Z" fill="#DAA14E"/>
<path fill-rule="evenodd" clip-rule="evenodd" d="M48.9531 22.6235C49.2589 21.6735 50.5591 20.8484 50.5591 20.8484L50.192 20.7006C49.2477 21.488 48.8743 22.0521 48.7256 22.5095C48.7986 22.5459 48.8744 22.5839 48.9531 22.6235Z" fill="#558949"/>
<path fill-rule="evenodd" clip-rule="evenodd" d="M49.3509 21.6392C49.3509 21.6392 46.9748 20.6255 48.3272 17.7018C48.3272 17.7018 50.81 19.3735 49.3509 21.6392Z" fill="#82B378"/>
<path fill-rule="evenodd" clip-rule="evenodd" d="M45.5059 28.5657C46.6177 29.2034 46.9434 30.157 48.0385 30.0479C50.9799 29.755 54.0071 25.7221 52.4564 23.6398C51.5686 22.4478 50.3306 22.7594 49.1959 22.1086C48.0613 21.4579 47.7026 20.2306 46.2269 20.0673C43.6494 19.7819 41.7106 24.439 42.9477 27.1283C43.4083 28.1295 44.3941 27.9281 45.5059 28.5657Z" fill="#A8D29F"/>
<path fill-rule="evenodd" clip-rule="evenodd" d="M50.6635 25.7371C50.5236 25.4948 50.4927 25.1306 50.6059 24.7584C50.7819 24.1798 51.2396 23.8013 51.6283 23.9131C51.767 23.9529 51.8781 24.0498 51.9557 24.1842C52.0956 24.4265 52.1265 24.7909 52.0133 25.1631C51.8373 25.7416 51.3795 26.1201 50.9909 26.0083C50.8523 25.9685 50.7411 25.8715 50.6635 25.7371Z" fill="#D1F2C9"/>
<path fill-rule="evenodd" clip-rule="evenodd" d="M46.2089 20.0595C46.2236 20.0611 46.2381 20.0629 46.2524 20.0648C46.2381 20.0629 46.2236 20.0611 46.2089 20.0595Z" fill="#EBEDE8"/>
<path fill-rule="evenodd" clip-rule="evenodd" d="M43.0113 27.2542C42.9859 27.2102 42.9617 27.1635 42.9389 27.1138C41.9346 24.9276 43.0482 21.4295 44.8924 20.3636C45.3098 20.1223 45.7646 20.0056 46.2409 20.0569C46.2423 20.057 46.2437 20.0572 46.2451 20.0573L46.2452 20.0574C46.2652 20.0595 46.2849 20.062 46.3045 20.0645C46.3049 20.0645 46.3052 20.0646 46.3055 20.0647C46.3066 20.0648 46.3078 20.0649 46.3088 20.0651C46.3095 20.0652 46.3101 20.0652 46.3108 20.0653C46.3111 20.0654 46.3115 20.0654 46.3118 20.0655C46.5174 20.0931 46.7007 20.142 46.8673 20.207C45.2571 21.2713 43.922 23.5652 44.1389 25.481C44.1644 25.7063 44.2271 25.8898 44.3183 26.0477C44.6692 26.6553 45.4401 26.8819 46.1205 27.6345C46.3702 27.9107 46.548 28.1916 46.7013 28.4571C46.7417 28.5271 46.7804 28.5961 46.8182 28.6636C46.8562 28.7311 46.8932 28.7971 46.9302 28.8613C47.1979 29.3249 47.4667 29.6925 48.0639 29.8226C48.2496 29.8631 48.4406 29.8888 48.6351 29.9012C48.4334 29.9552 48.2306 29.9941 48.0283 30.0147C46.9477 30.1248 46.6176 29.2031 45.5448 28.57C45.5289 28.5606 45.5127 28.5512 45.4964 28.5419C44.4401 27.9398 43.496 28.094 43.0113 27.2542Z" fill="#95C38B"/>
<path fill-rule="evenodd" clip-rule="evenodd" d="M39.5412 18.3967C39.4515 17.4027 40.326 16.1352 40.326 16.1352L39.9303 16.1427C39.3688 17.2364 39.2454 17.9015 39.2873 18.3807C39.3687 18.3856 39.4533 18.3911 39.5412 18.3967Z" fill="#558949"/>
<path fill-rule="evenodd" clip-rule="evenodd" d="M39.5231 17.3349C39.5231 17.3349 36.9398 17.3302 37.0424 14.1104C37.0424 14.1104 39.981 14.6792 39.5231 17.3349Z" fill="#82B378"/>
<path fill-rule="evenodd" clip-rule="evenodd" d="M38.689 25.2128C39.9616 25.3653 40.634 26.1158 41.5994 25.5875C44.1925 24.1686 45.4033 19.2735 43.1622 17.9627C41.8793 17.2123 40.8614 17.9828 39.5626 17.8272C38.264 17.6715 37.4543 16.6819 36.0321 17.1082C33.5479 17.8526 33.583 22.897 35.7725 24.8891C36.5877 25.6308 37.4164 25.0602 38.689 25.2128Z" fill="#A8D29F"/>
<path fill-rule="evenodd" clip-rule="evenodd" d="M42.3329 20.5936C42.1095 20.4252 41.9387 20.1021 41.8974 19.7152C41.8334 19.1138 42.1069 18.5866 42.5083 18.5376C42.6515 18.5201 42.7917 18.5659 42.9156 18.6593C43.1391 18.8277 43.3099 19.151 43.3511 19.5378C43.4152 20.1391 43.1417 20.6664 42.7403 20.7153C42.5971 20.7328 42.4569 20.687 42.3329 20.5936Z" fill="#D1F2C9"/>
<path fill-rule="evenodd" clip-rule="evenodd" d="M36.0131 17.1081C36.0272 17.1038 36.0412 17.0998 36.0552 17.0959C36.0412 17.0998 36.0272 17.1038 36.0131 17.1081Z" fill="#EBEDE8"/>
<path fill-rule="evenodd" clip-rule="evenodd" d="M35.8814 24.9805C35.8409 24.9499 35.8004 24.9164 35.76 24.8796C33.9813 23.2595 33.6396 19.6044 34.9206 17.9026C35.2105 17.5174 35.5837 17.2323 36.0421 17.0935C36.0434 17.093 36.0448 17.0926 36.0462 17.0922L36.0462 17.0922C36.0655 17.0864 36.0846 17.0809 36.1037 17.0756C36.104 17.0755 36.1043 17.0753 36.1047 17.0753C36.1056 17.075 36.1068 17.0747 36.1078 17.0744C36.1085 17.0742 36.1091 17.074 36.1097 17.0739C36.11 17.0738 36.1104 17.0737 36.1107 17.0736C36.3108 17.0187 36.4986 16.9921 36.6774 16.9868C35.611 18.5957 35.2784 21.2289 36.2266 22.9077C36.3381 23.1051 36.4675 23.2495 36.6132 23.3592C37.1736 23.7814 37.9717 23.6887 38.8921 24.1157C39.2298 24.2724 39.5033 24.4615 39.7481 24.6459C39.8126 24.6946 39.8753 24.743 39.9365 24.7904C39.9977 24.8376 40.0576 24.884 40.1168 24.9286C40.5443 25.2507 40.9354 25.4841 41.5359 25.3705C41.7227 25.3352 41.9086 25.2843 42.0925 25.2197C41.9279 25.3482 41.7564 25.4632 41.5783 25.5613C40.6266 26.0848 39.9626 25.3654 38.7277 25.2017C38.7093 25.1993 38.6908 25.197 38.6722 25.1948C37.4646 25.0533 36.6558 25.5641 35.8814 24.9805Z" fill="#95C38B"/>
<path fill-rule="evenodd" clip-rule="evenodd" d="M31.7265 15.8004C31.9672 15.7792 32.2101 15.758 32.4471 15.8084C32.6845 15.8588 32.9191 15.987 33.0842 16.2261C33.2129 16.4123 33.2923 16.6538 33.3567 16.8974C33.4326 17.1858 33.4906 17.4843 33.53 17.7882C33.541 17.8749 33.5439 17.9541 33.5424 18.0305C33.6506 18.4511 33.8126 18.9995 34.0511 19.6477C34.7185 21.4633 35.933 22.3263 35.933 22.3263L33.6232 23.6144C33.6232 23.6144 32.8438 22.1205 32.4281 20.1544C32.4108 20.0714 32.3939 19.9899 32.3774 19.9097C32.0791 19.4962 31.7767 19.0782 31.38 18.8965C31.2897 18.8552 31.1926 18.8246 31.1208 18.7389C31.0558 18.6611 31.0198 18.5478 30.9867 18.4372C30.8731 18.0568 31.509 15.8196 31.7265 15.8004Z" fill="#E8B134"/>
<path fill-rule="evenodd" clip-rule="evenodd" d="M56.5409 21.72L57.3769 22.2707L57.7411 23.8571C57.7411 23.8571 57.3352 28.7478 49.6612 32.8927C43.9604 35.9718 37.653 32.8457 35.8438 30.8528C33.5173 28.2906 33.0189 25.0775 33.2957 23.2541C33.4844 22.0095 34.9377 20.9807 36.7815 21.5321C38.5569 22.063 39.3615 24.3412 43.6823 25.1709C48.0353 26.0063 51.723 24.5763 52.8989 23.9659C54.7148 23.0234 56.5409 21.72 56.5409 21.72Z" fill="#F4C034"/>
<path fill-rule="evenodd" clip-rule="evenodd" d="M46.6573 32.4478C46.986 32.099 47.3806 31.8861 47.7662 31.67C49.8015 30.5296 51.7705 29.1582 53.6427 27.5768C54.6284 26.7444 55.6025 25.8351 56.3924 24.6804C56.6794 24.2608 56.9914 23.3231 57.3678 23.0663C57.4129 23.0354 57.4585 23.0147 57.5041 23.0018L57.7014 23.8647C57.7014 23.8647 57.294 28.7705 49.6174 32.9304C49.0373 33.245 48.451 33.4938 47.8638 33.6872C47.5341 33.5945 47.2072 33.4906 46.8853 33.385C46.6809 33.318 46.4358 33.1859 46.4353 32.9052C46.435 32.7227 46.5459 32.566 46.6573 32.4478Z" fill="#C69B2E"/>
<path fill-rule="evenodd" clip-rule="evenodd" d="M53.5439 39.0878L54.058 40.1658L53.7255 41.8263C53.7255 41.8263 51.3449 45.8649 42.8256 44.1048C36.4969 42.7968 32.1939 35.572 31.4125 32.5304C30.4076 28.6191 31.293 25.4246 32.292 24.0075C32.9736 23.0402 34.6876 23.1578 36.0952 24.9494C37.4507 26.6744 37.223 29.2583 40.7128 33.0472C44.2287 36.8644 48.0905 38.207 49.3856 38.4989C51.3857 38.949 53.5439 39.0878 53.5439 39.0878Z" fill="#C69B2E"/>
<path fill-rule="evenodd" clip-rule="evenodd" d="M52.5808 41.569C52.9621 41.4088 53.4011 40.8792 53.776 41.0908C53.7976 41.1028 53.8185 41.1167 53.8388 41.1317L53.6919 41.8634C53.6919 41.8634 52.0069 44.7068 46.3904 44.5548C46.1894 44.4572 45.9911 44.3512 45.7961 44.2351C44.8213 43.6549 41.3725 41.7365 40.7495 40.6062C43.6987 41.8073 49.5408 42.8472 52.5808 41.569Z" fill="#BA8F2F"/>
<path fill-rule="evenodd" clip-rule="evenodd" d="M53.5775 39.0011L54.084 40.069L53.7552 41.7144L53.0719 41.3163C53.0049 41.2769 52.9621 41.1906 52.9611 41.0915L52.9521 40.2299C52.9515 40.1706 52.9659 40.1117 52.9931 40.0623L53.5775 39.0011Z" fill="#3F332F"/>
<path fill-rule="evenodd" clip-rule="evenodd" d="M56.5021 21.6807L57.3101 22.2324L57.6564 23.8298L56.9545 23.9576C56.8856 23.9701 56.8187 23.9264 56.7811 23.8443L56.4529 23.1301C56.4304 23.0808 56.4202 23.0221 56.4238 22.9625L56.5021 21.6807Z" fill="#776057"/>
<path fill-rule="evenodd" clip-rule="evenodd" d="M57.3816 22.2693L57.7081 23.7314C57.7081 23.7314 57.4192 23.7913 57.2324 23.6305C57.0455 23.47 57.0546 23.2088 56.9003 23.078C56.7461 22.9468 56.6845 22.9813 56.64 22.9197C56.5955 22.8586 56.5501 22.4377 56.6391 22.2811C56.7282 22.1246 56.82 21.892 56.82 21.892L57.3816 22.2693Z" fill="#3F332F"/>
<path fill-rule="evenodd" clip-rule="evenodd" d="M32.8151 19.9918C32.8591 20.0948 32.8324 20.2215 32.808 20.3363C32.6554 21.0495 32.6145 21.7918 32.688 22.5128C32.6992 22.6233 32.713 22.7368 32.6903 22.8468C32.6674 22.9564 32.5972 23.0626 32.5036 23.079C32.4089 23.096 32.3202 23.0138 32.2808 22.912C32.2411 22.8099 32.2398 22.6924 32.2404 22.5781C32.2431 21.8344 32.2847 21.0887 32.3642 20.3474C32.3833 20.1724 32.6761 19.6666 32.8151 19.9918Z" fill="#E29D39"/>
<path fill-rule="evenodd" clip-rule="evenodd" d="M30.9093 16.8037C31.0274 16.5315 33.1511 15.9924 33.2678 16.2851C33.3588 16.5131 33.6093 17.7979 33.6216 18.0598C33.6363 18.3698 33.63 18.6831 33.6035 18.9946C33.5959 19.0838 33.5817 19.1625 33.563 19.2371C33.5815 19.6878 33.6269 20.2828 33.729 21.0028C34.0139 23.0194 35.0685 24.2934 35.0685 24.2934L32.4194 24.7447C32.4194 24.7447 31.9489 23.0048 31.955 20.9291C31.9552 20.8415 31.9559 20.7559 31.9567 20.6711C31.7417 20.1605 31.5241 19.6441 31.1575 19.3262C31.0739 19.2537 30.9813 19.1898 30.9267 19.0803C30.877 18.9812 30.8649 18.8569 30.8554 18.7372C30.8226 18.3235 30.8072 17.9066 30.8092 17.4883C30.8104 17.2554 30.8193 17.0116 30.9093 16.8037Z" fill="#FFC938"/>
<path fill-rule="evenodd" clip-rule="evenodd" d="M56.0847 30.8679L56.8107 31.6996L56.831 33.3834C56.831 33.3834 55.3456 38.0405 46.6613 39.4327C40.2101 40.4668 34.5074 35.2011 33.1122 32.6151C31.3185 29.2902 31.5193 25.9634 32.2003 24.2708C32.6649 23.1152 34.3632 22.6124 36.1096 23.7962C37.7916 24.936 38.1062 27.4519 42.3009 29.7718C46.527 32.1092 50.5768 31.991 51.902 31.8024C53.9486 31.5105 56.0847 30.8679 56.0847 30.8679Z" fill="#FFC938"/>
<path fill-rule="evenodd" clip-rule="evenodd" d="M32.2135 24.2111C32.2585 24.099 32.3153 23.9932 32.3827 23.8943C32.5307 23.8209 32.6962 23.7277 32.6962 23.7277L33.772 23.3505C33.772 23.3505 33.5227 23.8431 34.2659 26.0228C34.9858 28.134 37.5292 32.8679 42.3171 34.3168C50.5421 36.8055 55.9506 32.3037 55.9506 32.3037C55.9506 32.3037 56.3661 32.0783 56.8282 32.0465L56.8435 33.3306C56.8435 33.3306 55.3576 37.9929 46.6731 39.3875C40.2217 40.4234 34.5195 35.1528 33.1245 32.5642C31.3312 29.236 31.5323 25.9057 32.2135 24.2111Z" fill="#F2BB40"/>
<path fill-rule="evenodd" clip-rule="evenodd" d="M33.1577 32.5552C31.3638 29.2322 31.5644 25.9073 32.2453 24.2157C32.2931 24.0966 32.355 23.9848 32.4279 23.8805L33.0425 23.7117C33.0425 23.7117 32.2415 24.9119 33.0168 28.6095C33.4959 30.8953 35.8034 33.6853 38.9666 35.8734C41.1721 37.3986 44.876 37.9892 50.5757 36.7925C53.9693 36.0802 55.9591 33.0202 55.9591 33.0202L56.8706 32.8473L56.8763 33.3245C56.8763 33.3245 55.3913 37.9788 46.7072 39.3696C40.256 40.4027 34.5531 35.1398 33.1577 32.5552Z" fill="#E8B134"/>
<path fill-rule="evenodd" clip-rule="evenodd" d="M31.1704 19.3942C31.0879 19.3224 30.9966 19.259 30.9428 19.1505C30.8939 19.0522 30.882 18.929 30.8727 18.8103C30.8405 18.4001 30.8256 17.9866 30.8279 17.5718C30.8291 17.3409 30.8381 17.0987 30.927 16.8929C31.0436 16.6229 31.28 16.4675 31.5102 16.4273C31.6725 16.399 31.8342 16.4194 31.9937 16.4537C31.6989 16.7349 31.6989 17.299 31.7024 17.7799C31.703 17.8746 31.6674 17.989 31.7065 18.0663C31.74 18.1326 31.803 18.1587 31.8513 18.207C32.1613 18.5175 32.2135 18.6328 32.4813 18.9895C32.6245 19.7243 32.6544 20.2652 32.7697 21.0489C32.8733 21.7503 33.0723 22.4543 33.0405 23.1887C33.0179 23.7065 32.7287 24.2435 32.5626 24.7408L32.412 24.7667C32.412 24.7667 31.3032 24.2055 31.3103 22.1472C31.3107 22.0599 31.957 20.8115 31.9579 20.7274C31.7461 20.2212 31.5318 19.7092 31.1704 19.3942Z" fill="#C69B2E"/>
<path fill-rule="evenodd" clip-rule="evenodd" d="M36.5627 24.1677C37.9214 25.4111 38.518 27.6836 42.3562 29.7953C46.5896 32.1248 50.6448 32.0101 51.9717 31.8227C54.0209 31.5334 56.1595 30.8955 56.1595 30.8955L56.3983 31.1671C56.2858 31.7173 55.6695 31.9446 55.3197 32.0533C50.7104 33.485 45.2652 32.7064 41.7123 30.1922C39.2302 28.436 38.1996 26.3982 36.5627 24.1677Z" fill="#FFD93B"/>
<path fill-rule="evenodd" clip-rule="evenodd" d="M56.1299 30.8618L56.8574 31.7124L56.8742 33.4374L56.1108 33.305C56.0358 33.2919 55.9751 33.2237 55.9535 33.1275L55.7644 32.2921C55.7514 32.2345 55.7534 32.1721 55.7702 32.1136L56.1299 30.8618Z" fill="#776057"/>
<path fill-rule="evenodd" clip-rule="evenodd" d="M56.7921 31.7163L56.8068 33.2456C56.8068 33.2456 56.5013 33.2033 56.3469 32.9823C56.1924 32.7618 56.258 32.5121 56.1302 32.3316C56.0024 32.1512 55.9326 32.1627 55.9008 32.0879C55.869 32.013 55.914 31.5894 56.0379 31.4693C56.1619 31.3487 56.3051 31.1555 56.3051 31.1555L56.7921 31.7163Z" fill="#3F332F"/>
<path fill-rule="evenodd" clip-rule="evenodd" d="M31.4697 15.8553C31.6709 15.6828 31.9336 15.691 32.1478 15.8004C32.3623 15.9098 32.5393 16.1071 32.7122 16.3011C32.9033 16.5158 33.0962 16.7328 33.2457 16.998C33.3951 17.2634 33.4996 17.5844 33.4918 17.9218C33.4855 18.1848 33.4121 18.4424 33.3264 18.6865C33.2247 18.976 33.1043 19.2553 32.9667 19.5206C32.9272 19.5965 32.8861 19.6585 32.843 19.7144C32.6928 20.1338 32.5128 20.7 32.3345 21.415C31.8357 23.4165 32.2683 25.2278 32.2683 25.2278L29.8371 23.9799C29.8371 23.9799 30.0758 22.1124 30.8451 20.2394C30.8775 20.16 30.9097 20.083 30.9417 20.0071C30.9457 19.411 30.9496 18.8079 30.7533 18.2913C30.7085 18.1735 30.6528 18.0578 30.6464 17.9245C30.6407 17.8038 30.6759 17.6839 30.7119 17.5696C30.8363 17.1753 30.9767 16.7885 31.1324 16.4116C31.219 16.202 31.3165 15.9867 31.4697 15.8553Z" fill="#FFC938"/>
<path fill-rule="evenodd" clip-rule="evenodd" d="M47.7623 44.397L48.0769 45.6113L47.4774 47.1553C47.4774 47.1553 44.5043 50.4537 36.5875 46.2388C30.7062 43.1076 27.7717 34.7191 27.5294 31.4866C27.2174 27.3305 28.6074 24.432 29.8082 23.3219C30.628 22.5647 32.2603 23.179 33.3164 25.3579C34.3333 27.456 33.68 29.9428 36.4077 34.7004C39.1559 39.4935 42.6532 41.9419 43.8526 42.6067C45.7051 43.633 47.7623 44.397 47.7623 44.397Z" fill="#FFC938"/>
<path fill-rule="evenodd" clip-rule="evenodd" d="M29.8712 23.3989C29.9503 23.3258 30.0372 23.2658 30.1302 23.2185C30.283 23.2451 30.4572 23.265 30.4572 23.265L31.5082 23.5995C31.5082 23.5995 31.1172 23.8884 30.9546 26.3237C30.7973 28.6834 31.2334 34.5573 34.7723 38.8723C40.8518 46.2848 47.085 45.6132 47.085 45.6132C47.085 45.6132 47.52 45.6707 47.924 45.9321L47.4695 47.1015C47.4695 47.1015 44.5094 50.3811 36.6253 46.1886C30.7683 43.074 27.8449 34.7318 27.6031 31.5172C27.2919 27.3844 28.6756 24.5022 29.8712 23.3989Z" fill="#F2BB40"/>
<path fill-rule="evenodd" clip-rule="evenodd" d="M27.5818 31.5295C27.27 27.3983 28.6541 24.5175 29.8502 23.4148C29.9346 23.3369 30.0277 23.2744 30.1279 23.2263L30.7116 23.4592C30.7116 23.4592 29.593 24.042 28.9022 27.8724C28.4748 30.241 29.4174 34.2122 31.3073 38.1758C32.6248 40.9396 35.5574 43.7977 40.8384 46.2921C43.9827 47.7776 46.7908 46.2588 46.7908 46.2588L47.6287 46.674L47.4594 47.1092C47.4594 47.1092 44.4982 50.3871 36.6098 46.1956C30.7496 43.0817 27.824 34.7427 27.5818 31.5295Z" fill="#E8B134"/>
<path fill-rule="evenodd" clip-rule="evenodd" d="M30.7806 18.3005C30.7355 18.1825 30.6794 18.0665 30.6729 17.933C30.6672 17.8121 30.7025 17.692 30.7387 17.5775C30.8636 17.1826 31.0047 16.7951 31.161 16.4175C31.2481 16.2076 31.346 15.992 31.5004 15.8604C31.7023 15.6877 31.9665 15.696 32.1819 15.8057C32.3343 15.883 32.4675 16.0044 32.5938 16.1373C32.232 16.2067 32.0218 16.722 31.8458 17.1635C31.8112 17.2507 31.7373 17.3326 31.7427 17.4279C31.7471 17.5101 31.7924 17.5738 31.8165 17.6487C31.9709 18.1296 31.9736 18.2682 32.0741 18.7643C31.9253 19.5266 31.7499 20.04 31.5587 20.8293C31.3874 21.5362 31.2987 22.3056 30.9976 22.9563C30.7849 23.4151 30.3328 23.7222 30.0027 24.0711L29.8615 23.9989C29.8615 23.9989 30.1008 22.1282 30.8737 20.2522C30.9063 20.1726 30.9386 20.0954 30.9707 20.0194C30.9746 19.4223 30.9782 18.8181 30.7806 18.3005Z" fill="#E8B134"/>
<path fill-rule="evenodd" clip-rule="evenodd" d="M33.6079 25.9067C34.3047 27.886 33.9772 30.3225 36.4587 34.6433C39.1957 39.4085 42.6781 41.8436 43.8724 42.5046C45.7169 43.5253 47.7653 44.2851 47.7653 44.2851L47.8681 44.6813C47.5709 45.1102 46.9648 44.9308 46.6282 44.8102C42.1927 43.2237 37.8589 39.1073 35.7669 34.6003C34.3054 31.4519 34.1784 28.9567 33.6079 25.9067Z" fill="#FFD93B"/>
<path fill-rule="evenodd" clip-rule="evenodd" d="M47.7626 44.3448L48.0728 45.5467L47.4806 47.0755L46.888 46.483C46.8298 46.4247 46.803 46.3269 46.8186 46.2289L46.954 45.3754C46.9633 45.3169 46.987 45.2629 47.0214 45.2221L47.7626 44.3448Z" fill="#776057"/>
<path fill-rule="evenodd" clip-rule="evenodd" d="M34.2809 34.3873C34.4516 34.4052 34.6463 34.2506 34.67 34.025C34.6851 33.8804 34.6312 33.7455 34.579 33.6221C34.4015 33.2018 34.2241 32.7819 34.0467 32.362C33.9484 32.1292 33.7422 31.8332 33.5338 31.8113C33.4147 31.7988 33.2949 31.8755 33.194 32.1047C33.0924 32.3354 33.1394 32.6244 33.2391 32.841C33.339 33.058 33.4846 33.2296 33.5946 33.4375C33.6921 33.6217 33.7602 33.8318 33.8587 34.0154C33.9572 34.1985 34.0968 34.3597 34.27 34.3858C34.2737 34.3861 34.2772 34.3869 34.2809 34.3873Z" fill="#FFE932"/>
<path fill-rule="evenodd" clip-rule="evenodd" d="M48.0753 45.584L47.527 46.973C47.527 46.973 47.2821 46.7438 47.2313 46.448C47.1805 46.1526 47.328 45.9681 47.2851 45.7256C47.2423 45.4827 47.1785 45.4498 47.1789 45.3622C47.1792 45.2749 47.3728 44.9211 47.5227 44.8899C47.6725 44.8586 47.8655 44.774 47.8655 44.774L48.0753 45.584Z" fill="#3F332F"/>
<path fill-rule="evenodd" clip-rule="evenodd" d="M43.5726 44.4762C43.7681 44.4968 43.8321 44.3555 43.7416 44.1365C43.6944 44.0224 43.3314 43.7573 43.2207 43.6731C42.7597 43.3223 42.2085 43.2239 41.7158 42.9658C41.3973 42.799 41.1013 42.5651 40.8414 42.2743C40.7121 42.1302 40.5844 41.9664 40.4175 41.9152C40.4008 41.9098 40.3835 41.9064 40.366 41.9046C40.2086 41.8881 40.0285 42.0028 39.9957 42.2097C39.9587 42.4423 40.116 42.6254 40.2594 42.7496C41.2358 43.5958 42.3451 44.1809 43.5095 44.4648C43.5318 44.4703 43.5529 44.4741 43.5726 44.4762Z" fill="#FFE932"/>
<path fill-rule="evenodd" clip-rule="evenodd" d="M48.7097 40.5069C48.9233 40.5294 49.1423 40.5225 49.3575 40.5133C49.9648 40.486 50.5724 40.4447 51.18 40.3896C51.4651 40.3638 52.5742 40.4167 52.1355 39.7548C52.0238 39.5858 51.8546 39.523 51.6731 39.5039C51.4646 39.482 51.2397 39.5181 51.0671 39.5171C50.4697 39.5144 49.8723 39.5025 49.2746 39.5014C48.8559 39.5004 48.4105 39.5093 48.0439 39.8131C47.9695 39.8746 47.8918 39.9691 47.8971 40.0824C47.9022 40.1888 47.9784 40.2557 48.0496 40.299C48.2556 40.4246 48.4795 40.4827 48.7097 40.5069Z" fill="#D0A92F"/>
<path fill-rule="evenodd" clip-rule="evenodd" d="M33.562 17.7034C33.5929 17.6858 33.6261 17.6657 33.6431 17.6278C33.6642 17.5814 33.6545 17.5248 33.6444 17.4744C33.552 17.0272 33.46 16.5797 33.3677 16.1323C33.3164 15.8831 33.2593 15.6211 33.1147 15.449C32.9863 15.2966 32.8059 15.2366 32.6289 15.2149C32.1482 15.1557 31.6392 15.354 31.2514 15.7616C31.1087 15.9117 30.9794 16.0949 30.9148 16.3155C30.8283 16.6113 30.869 16.9362 30.9471 17.2241C31.0598 17.6406 31.2492 18.0169 31.4954 18.315C31.8043 18.6889 32.0632 18.5626 32.4256 18.3546C32.8046 18.1375 33.1833 17.9208 33.562 17.7034Z" fill="#937C69"/>
<path fill-rule="evenodd" clip-rule="evenodd" d="M31.0399 19.3842C31.002 19.4147 30.9601 19.4467 30.9167 19.4414C30.8766 19.4363 30.8448 19.4001 30.8134 19.3686C30.5845 19.1384 30.2695 19.1065 30.0114 18.9347C29.5264 18.6118 29.3132 17.8257 29.3607 17.0944C29.3651 17.0247 29.3724 16.9522 29.4024 16.8926C29.4449 16.8074 29.5235 16.7674 29.5962 16.7335C30.0347 16.528 31.105 15.7562 31.2784 15.6675C31.2784 15.6675 31.0402 15.8983 31.0799 16.2037C31.1207 16.5158 31.1721 16.8221 31.2184 17.1325C31.3175 17.7934 31.6155 18.1793 31.9599 18.6144C31.7427 18.931 31.32 19.1585 31.0399 19.3842Z" fill="#776057"/>
<path fill-rule="evenodd" clip-rule="evenodd" d="M38.3593 41.5571C38.3593 41.5571 38.1939 42.316 36.6566 43.3847C35.6029 44.1174 31.959 45.973 31.959 45.973L38.2083 43.7618L38.5586 42.6186L38.3593 41.5571Z" fill="#B7281D"/>
<path fill-rule="evenodd" clip-rule="evenodd" d="M54.835 31.0643L55.3552 29.7754L55.7638 30.9872L56.1932 30.1016L56.5004 30.9911L57.1547 30.2042L57.5848 31.0225L57.8501 30.163L58.3613 30.9859C58.3613 30.9859 58.7495 30.1015 58.7495 30.1839C58.7495 30.2656 59.0397 31.0911 59.0397 31.0911L59.4653 30.2656L59.8221 31.1375C59.8221 31.1375 58.5247 32.065 58.5247 32.1265C58.5247 32.1879 54.835 31.0643 54.835 31.0643Z" fill="#E0BD9D"/>
<path fill-rule="evenodd" clip-rule="evenodd" d="M15.4863 61.5552L15.8707 64.2416L20.2924 64.7259L21.1408 62.5336L15.4863 61.5552Z" fill="#E0BD9D"/>
<path fill-rule="evenodd" clip-rule="evenodd" d="M54.8343 31.0646C55.437 30.8528 59.8215 31.1378 59.8215 31.1378L60.3895 64.0315L60.7738 76.5524H53.8813L52.4669 73.5647L46.1025 60.9778L48.7896 43.2985L54.8343 31.0646Z" fill="#E0BD9D"/>
<path fill-rule="evenodd" clip-rule="evenodd" d="M40.2043 33.7101L39.8128 34.1219L39.6723 34.397L39.4893 34.3036L39.6298 34.0284L39.7376 33.4722L39.9193 33.5643C39.8723 33.7277 39.8376 33.8356 39.8148 33.8885C39.8671 33.8134 39.9363 33.7225 40.0226 33.6173L40.2043 33.7101Z" fill="#8C6B58"/>
<path fill-rule="evenodd" clip-rule="evenodd" d="M40.2392 33.7275L40.5692 33.8955L40.4915 34.0478L40.3594 33.9805L40.2856 34.1249L40.4091 34.1877L40.3359 34.3328L40.2124 34.2694L40.1267 34.4367L40.2718 34.5106L40.1941 34.6629L39.8516 34.4884L40.2392 33.7275Z" fill="#8C6B58"/>
<path fill-rule="evenodd" clip-rule="evenodd" d="M40.8376 34.0323L40.5278 34.6408L40.648 34.7023L40.5703 34.8546L40.252 34.6925L40.6402 33.9316L40.8376 34.0323Z" fill="#8C6B58"/>
<path fill-rule="evenodd" clip-rule="evenodd" d="M41.2028 34.219L40.893 34.8269L41.0133 34.8883L40.9355 35.0406L40.6172 34.8785L41.0054 34.1177L41.2028 34.219Z" fill="#8C6B58"/>
<path fill-rule="evenodd" clip-rule="evenodd" d="M41.511 34.6218C41.5287 34.5859 41.5385 34.5623 41.5398 34.5506C41.5411 34.5388 41.5352 34.5296 41.5228 34.5238C41.5123 34.5185 41.5025 34.5185 41.4934 34.5231C41.4836 34.5283 41.4685 34.5506 41.4489 34.5898L41.2679 34.9453C41.245 34.9891 41.2332 35.0172 41.2313 35.0297C41.23 35.0421 41.2359 35.0512 41.2489 35.0578C41.262 35.065 41.2738 35.063 41.2836 35.0532C41.2934 35.0434 41.3097 35.0159 41.3326 34.9708L41.511 34.6218ZM41.581 34.9721C41.5424 35.0486 41.513 35.1022 41.4934 35.1316C41.4731 35.1617 41.447 35.1852 41.4149 35.2016C41.3823 35.2186 41.3463 35.2258 41.3071 35.2231C41.2679 35.2212 41.2267 35.2088 41.1836 35.1872C41.143 35.1663 41.1097 35.1408 41.0842 35.1114C41.0587 35.0813 41.0424 35.048 41.0365 35.0114C41.03 34.9748 41.0332 34.9395 41.0456 34.9061C41.0574 34.8735 41.0836 34.8172 41.1234 34.7388L41.1901 34.6087C41.2287 34.5323 41.2581 34.4793 41.2783 34.4492C41.2979 34.4192 41.3241 34.3963 41.3561 34.3793C41.3888 34.363 41.4248 34.3558 41.464 34.3577C41.5038 34.3604 41.545 34.3728 41.5875 34.3943C41.6287 34.4153 41.6614 34.4401 41.6875 34.4702C41.713 34.5002 41.7287 34.5336 41.7346 34.5702C41.7411 34.6068 41.7378 34.6414 41.7261 34.6747C41.7137 34.7081 41.6875 34.7636 41.6476 34.8421L41.581 34.9721Z" fill="#8C6B58"/>
<path fill-rule="evenodd" clip-rule="evenodd" d="M42.626 34.9443L42.1502 35.66L41.9031 35.5345C41.9404 35.4058 41.9881 35.2626 42.0469 35.1051C42.0064 35.1646 41.9201 35.2887 41.7881 35.4757L41.543 35.3508L41.8417 34.5449L42.0338 34.643L41.809 35.1855C41.8842 35.0567 41.9907 34.892 42.1299 34.6913L42.3352 34.7959C42.3267 34.8201 42.2914 34.907 42.2293 35.058L42.1031 35.3587C42.2084 35.1802 42.3188 35.0097 42.4339 34.8462L42.626 34.9443Z" fill="#8C6B58"/>
<path fill-rule="evenodd" clip-rule="evenodd" d="M39.3145 34.9059L38.9269 35.6667L38.7537 35.5784L39.0158 35.0647L38.685 35.5431L38.5622 35.481L38.7452 34.9418L38.4896 35.4438L38.3164 35.3555L38.704 34.5947L38.9602 34.7255C38.9445 34.7751 38.9249 34.8326 38.9014 34.8993L38.8308 35.1065L39.057 34.7751L39.3145 34.9059Z" fill="#8C6B58"/>
<path fill-rule="evenodd" clip-rule="evenodd" d="M39.8447 35.176L39.5852 35.6846C39.5558 35.7421 39.5336 35.7813 39.5179 35.8029C39.5022 35.8244 39.4787 35.8427 39.448 35.8578C39.4166 35.8728 39.3826 35.8793 39.346 35.8767C39.3094 35.8735 39.2708 35.8617 39.2296 35.8408C39.1839 35.8179 39.1479 35.7898 39.1205 35.7571C39.0937 35.7244 39.0773 35.6918 39.0728 35.6584C39.0675 35.6257 39.0708 35.595 39.0813 35.5669C39.0917 35.5381 39.1185 35.4813 39.1623 35.3957L39.3917 34.9453L39.5898 35.046L39.2989 35.6166C39.2819 35.6499 39.2728 35.6721 39.2721 35.6833C39.2708 35.6944 39.276 35.7022 39.2865 35.7081C39.2996 35.7146 39.31 35.7133 39.3185 35.7048C39.3277 35.697 39.3414 35.6734 39.361 35.6355L39.6467 35.0754L39.8447 35.176Z" fill="#8C6B58"/>
<path fill-rule="evenodd" clip-rule="evenodd" d="M40.2219 35.6589L40.0382 35.5648L40.067 35.5086C40.0807 35.4824 40.0866 35.4641 40.0859 35.455C40.0846 35.4452 40.0787 35.4373 40.0676 35.4321C40.0559 35.4262 40.0441 35.4262 40.033 35.4327C40.0225 35.4393 40.0114 35.4523 40.0016 35.4726C39.9885 35.4974 39.9827 35.5184 39.9827 35.5347C39.9827 35.551 39.9938 35.5759 40.0147 35.6099C40.0761 35.7073 40.1101 35.7785 40.1153 35.8236C40.1212 35.8687 40.1055 35.9282 40.067 36.0027C40.0395 36.0569 40.0127 36.0942 39.9872 36.1132C39.9618 36.1321 39.9258 36.1413 39.8807 36.14C39.8356 36.1393 39.7885 36.1262 39.7408 36.1014C39.6879 36.0746 39.6474 36.0419 39.6206 36.0027C39.5931 35.9635 39.5813 35.9256 39.5859 35.8883C39.5898 35.8517 39.6068 35.8047 39.6356 35.7478L39.6611 35.6981L39.8448 35.7916L39.7977 35.8837C39.7833 35.9125 39.7761 35.9321 39.7774 35.9426C39.7787 35.9537 39.7853 35.9622 39.799 35.9694C39.8121 35.9759 39.8245 35.9759 39.8363 35.9687C39.8474 35.9615 39.8585 35.9478 39.8689 35.9275C39.8918 35.8824 39.901 35.8504 39.8957 35.8301C39.8899 35.8099 39.8709 35.7713 39.8382 35.7138C39.8055 35.6563 39.7853 35.6158 39.7768 35.5929C39.7683 35.5707 39.765 35.5432 39.7683 35.5118C39.7709 35.4805 39.7827 35.4445 39.8029 35.404C39.833 35.3458 39.8617 35.3072 39.8905 35.2876C39.9193 35.2687 39.9539 35.2595 39.9951 35.2615C40.0356 35.2635 40.0801 35.2759 40.1271 35.3001C40.1781 35.3262 40.218 35.3569 40.2454 35.3916C40.2729 35.4269 40.2866 35.4602 40.2853 35.4909C40.284 35.5223 40.2683 35.568 40.2376 35.6288L40.2219 35.6589Z" fill="#8C6B58"/>
<path fill-rule="evenodd" clip-rule="evenodd" d="M40.8166 35.6714L40.7388 35.8237L40.6211 35.7643L40.3113 36.3728L40.1133 36.2715L40.4238 35.663L40.3068 35.6035L40.3839 35.4512L40.8166 35.6714Z" fill="#8C6B58"/>
<path fill-rule="evenodd" clip-rule="evenodd" d="M40.8109 36.2848C40.8449 36.1933 40.8887 36.0816 40.9436 35.9502C40.8495 36.0855 40.7821 36.1855 40.7429 36.2502L40.8109 36.2848ZM41.1652 35.8489L40.89 36.6672L40.688 36.5646L40.7475 36.4221L40.6763 36.3862L40.5952 36.5169L40.3906 36.4123L40.8789 35.7031L41.1652 35.8489Z" fill="#8C6B58"/>
<path fill-rule="evenodd" clip-rule="evenodd" d="M41.4428 36.155L41.3565 36.3243C41.3787 36.3354 41.3964 36.3407 41.4081 36.3387C41.4206 36.3374 41.4349 36.3198 41.4519 36.2864L41.4735 36.2446C41.4853 36.2204 41.4892 36.2021 41.4846 36.1903C41.4794 36.1786 41.4657 36.1668 41.4428 36.155ZM41.3114 35.9243L41.4513 35.9956C41.5447 36.0433 41.6062 36.0786 41.6356 36.1028C41.665 36.1269 41.6827 36.159 41.6885 36.1995C41.6938 36.2394 41.68 36.2923 41.6474 36.357C41.6173 36.4165 41.5898 36.4524 41.5644 36.4649C41.5395 36.4779 41.5042 36.4753 41.4591 36.457C41.4931 36.4871 41.5127 36.5132 41.518 36.5368C41.5232 36.5596 41.5238 36.5792 41.5199 36.5943C41.5166 36.6093 41.499 36.6479 41.4676 36.7093L41.3657 36.91L41.1813 36.8165L41.3108 36.5636C41.331 36.523 41.3408 36.4962 41.3395 36.4832C41.3382 36.4701 41.3238 36.4564 41.2964 36.4426L41.1219 36.7858L40.9238 36.6845L41.3114 35.9243Z" fill="#8C6B58"/>
<path fill-rule="evenodd" clip-rule="evenodd" d="M41.9614 36.4192L41.7065 36.9199C41.7352 36.9343 41.7555 36.9375 41.7679 36.9297C41.7803 36.9212 41.7993 36.8918 41.8254 36.8414L41.9757 36.546C41.9934 36.5114 42.0039 36.4885 42.0065 36.478C42.0091 36.4669 42.0078 36.4571 42.0019 36.4486C41.9967 36.4401 41.9829 36.4303 41.9614 36.4192ZM41.83 36.1885L41.9777 36.2636C42.0738 36.3127 42.1359 36.3499 42.1653 36.3761C42.1941 36.4016 42.2124 36.429 42.2202 36.4584C42.2274 36.4872 42.2267 36.5153 42.2189 36.5421C42.2104 36.5689 42.1882 36.6179 42.1516 36.6905L42.0156 36.9565C41.981 37.0251 41.9542 37.0689 41.9359 37.0885C41.9182 37.1081 41.8973 37.1205 41.8751 37.1258C41.8522 37.1304 41.828 37.1297 41.8019 37.1225C41.7757 37.116 41.7391 37.1003 41.6921 37.0761L41.4424 36.9493L41.83 36.1885Z" fill="#8C6B58"/>
<path fill-rule="evenodd" clip-rule="evenodd" d="M41.8927 38.4135L37.4056 36.1258C37.252 36.0474 37.1912 35.8591 37.2696 35.7055C37.3474 35.5513 37.5363 35.4905 37.6899 35.5689L42.177 37.8566C42.3306 37.935 42.3921 38.1233 42.3136 38.2769C42.2352 38.4311 42.047 38.4919 41.8927 38.4135Z" fill="#F6DC4B"/>
<path fill-rule="evenodd" clip-rule="evenodd" d="M44.3517 30.8681C44.3622 30.8485 44.3674 30.8355 44.3681 30.8296C44.3681 30.8237 44.3642 30.8185 44.355 30.8139C44.3465 30.8093 44.34 30.8093 44.3347 30.8126C44.3302 30.8165 44.3223 30.8283 44.3125 30.8479L44.2151 31.0401C44.204 31.0616 44.1981 31.0754 44.1981 31.0806C44.1981 31.0858 44.2027 31.091 44.2119 31.0956C44.2204 31.1002 44.2269 31.1002 44.2315 31.0969C44.2361 31.093 44.2432 31.0819 44.253 31.0629L44.3517 30.8681ZM44.4557 30.9623L44.389 31.0937C44.3713 31.1276 44.355 31.1512 44.34 31.1656C44.3249 31.1793 44.3034 31.1871 44.2759 31.1891C44.2485 31.191 44.2171 31.1832 44.1825 31.1656C44.1426 31.1453 44.1151 31.1237 44.1001 31.1002C44.0851 31.0773 44.0785 31.0557 44.0798 31.0348C44.0811 31.0146 44.0896 30.9884 44.1053 30.957L44.1753 30.8198C44.1942 30.7825 44.2125 30.757 44.2295 30.7427C44.2459 30.7289 44.2687 30.7211 44.2962 30.7211C44.3243 30.7211 44.3537 30.7289 44.3864 30.7453C44.4223 30.7636 44.4485 30.7851 44.4642 30.8087C44.4799 30.8329 44.487 30.8551 44.4857 30.8766C44.4838 30.8976 44.474 30.9263 44.4557 30.9623ZM44.5851 30.3838L43.8851 31.0218L43.8125 30.9852L44.5132 30.3472L44.5851 30.3838ZM44.187 30.3204C44.1968 30.3008 44.2021 30.2877 44.2027 30.2818C44.2027 30.276 44.1988 30.2707 44.1896 30.2662C44.1811 30.2622 44.174 30.2616 44.1694 30.2655C44.1642 30.2694 44.157 30.2805 44.1465 30.3001L44.0491 30.4917C44.038 30.5139 44.0321 30.5276 44.0321 30.5328C44.0321 30.5387 44.0367 30.5439 44.0465 30.5485C44.0543 30.5524 44.0609 30.5524 44.0661 30.5492C44.0707 30.5453 44.0779 30.5341 44.087 30.5152L44.187 30.3204ZM44.2903 30.4152L44.2236 30.5459C44.206 30.5799 44.1896 30.6041 44.1746 30.6178C44.1596 30.6315 44.138 30.6394 44.1106 30.6413C44.0831 30.6433 44.0517 30.6355 44.0171 30.6178C43.9766 30.5969 43.9491 30.5753 43.9347 30.5524C43.9197 30.5302 43.9132 30.508 43.9145 30.4877C43.9151 30.4668 43.9243 30.4407 43.94 30.4093L44.0099 30.2727C44.0289 30.2348 44.0472 30.2093 44.0641 30.1949C44.0805 30.1805 44.1034 30.174 44.1308 30.1733C44.1583 30.1733 44.1883 30.1818 44.221 30.1982C44.2563 30.2165 44.2825 30.2374 44.2981 30.2609C44.3138 30.2845 44.321 30.3073 44.3197 30.3289C44.3184 30.3498 44.3086 30.3786 44.2903 30.4152Z" fill="#8C6B58"/>
<path fill-rule="evenodd" clip-rule="evenodd" d="M41.5781 33.4666C41.8984 32.8417 42.2297 32.2221 42.5716 31.609C42.616 31.5286 42.4938 31.4567 42.4487 31.5371C42.1069 32.1502 41.7755 32.7698 41.4559 33.3947C41.414 33.4764 41.5363 33.5483 41.5781 33.4666Z" fill="#8C6B58"/>
<path fill-rule="evenodd" clip-rule="evenodd" d="M42.4414 31.725C42.3453 31.6204 42.3806 31.4544 42.4309 31.3223C42.459 31.2491 42.4904 31.1766 42.5342 31.1112C42.6166 30.989 42.7408 30.8962 42.8813 30.853C42.9323 31.0557 42.8741 31.2772 42.7754 31.4616C42.7035 31.5956 42.5682 31.7296 42.4185 31.7577L42.4414 31.725Z" fill="#8C6B58"/>
<path fill-rule="evenodd" clip-rule="evenodd" d="M42.7122 31.8521C42.8756 31.8769 43.0312 31.939 43.1776 32.0142C43.1377 32.088 43.0547 32.1273 42.975 32.1541C42.8547 32.1952 42.7259 32.2181 42.5985 32.2057C42.5057 32.1972 42.3383 32.1678 42.2972 32.0684C42.1978 31.8299 42.5913 31.8331 42.7122 31.8521Z" fill="#8C6B58"/>
<path fill-rule="evenodd" clip-rule="evenodd" d="M42.5049 32.2887C42.6676 32.3135 42.8232 32.375 42.9696 32.4501C42.9297 32.524 42.8467 32.5638 42.767 32.5906C42.6467 32.6312 42.5179 32.6547 42.3905 32.6423C42.2977 32.6331 42.1303 32.6044 42.0892 32.505C41.9898 32.2658 42.3833 32.2697 42.5049 32.2887Z" fill="#8C6B58"/>
<path fill-rule="evenodd" clip-rule="evenodd" d="M42.2357 32.8164C42.3984 32.8413 42.554 32.9034 42.701 32.9785C42.6605 33.0524 42.5782 33.0916 42.4978 33.1191C42.3775 33.1596 42.2487 33.1825 42.1219 33.17C42.0285 33.1616 41.8618 33.1321 41.8206 33.0328C41.7213 32.7942 42.1141 32.7975 42.2357 32.8164Z" fill="#8C6B58"/>
<path fill-rule="evenodd" clip-rule="evenodd" d="M42.1911 31.5741C42.0793 31.4525 41.9414 31.3577 41.7976 31.2773C41.7584 31.3525 41.7714 31.4427 41.7937 31.5244C41.827 31.6466 41.8793 31.7669 41.9603 31.8656C42.0192 31.9382 42.1368 32.0604 42.242 32.0395C42.4956 31.9891 42.2741 31.6643 42.1911 31.5741Z" fill="#8C6B58"/>
<path fill-rule="evenodd" clip-rule="evenodd" d="M41.9438 31.9904C41.832 31.8695 41.6941 31.7747 41.5503 31.6943C41.5111 31.7688 41.5248 31.8597 41.5464 31.9408C41.5797 32.0636 41.632 32.1833 41.713 32.2819C41.7725 32.3545 41.8895 32.4774 41.9954 32.4565C42.249 32.4055 42.0268 32.0806 41.9438 31.9904Z" fill="#8C6B58"/>
<path fill-rule="evenodd" clip-rule="evenodd" d="M41.656 32.5087C41.5443 32.3871 41.4063 32.2923 41.2619 32.2119C41.2233 32.2871 41.2364 32.3773 41.2586 32.459C41.2919 32.5812 41.3442 32.7015 41.4253 32.8002C41.4841 32.8721 41.6018 32.9949 41.707 32.974C41.9606 32.9237 41.7384 32.5989 41.656 32.5087Z" fill="#8C6B58"/>
<path fill-rule="evenodd" clip-rule="evenodd" d="M15.7347 57.2042C15.8458 58.6095 15.4863 61.5547 15.4863 61.5547C15.4863 61.5547 18.5375 63.5947 19.9473 63.6097C19.0656 63.1208 15.8707 64.2411 15.8707 64.2411C15.8707 64.2411 15.638 66.2732 15.9517 67.8982C16.1432 68.8871 16.9668 69.5976 16.9263 69.9767C16.6622 72.4363 16.023 74.0854 15.8347 76.5522C25.1907 76.3136 31.5126 76.4116 37.5214 76.5097C42.6412 76.5934 47.5336 76.6764 53.8823 76.5522C54.8006 73.3677 56.1373 67.9635 56.1373 67.9635L55.366 64.9477C55.366 64.9477 53.0875 64.7385 51.141 64.6039C53.2221 63.8993 53.9875 63.4476 54.6588 63.1116C54.5817 62.4149 54.5046 61.7181 54.4274 61.0214C52.0593 60.8939 49.6912 60.7658 47.3232 60.6377C49.6324 60.0533 52.0142 59.7559 54.3967 59.7546C53.2515 50.2293 53.3999 40.5498 54.8353 31.0643C54.8444 31.0035 31.4276 30.5336 29.2805 30.5833C26.9013 30.6375 15.4863 31.5728 15.4863 31.5728C15.4863 31.5728 16.9178 35.828 16.6805 37.1836C16.3341 39.1628 16.0628 41.1557 15.8667 43.1558C15.4099 47.8227 15.3634 52.5294 15.7347 57.2042Z" fill="#EBCFA8"/>
<path fill-rule="evenodd" clip-rule="evenodd" d="M15.9512 67.898C15.9943 67.4228 27.7642 66.9646 27.4811 67.0588C27.1981 67.1529 16.9257 69.9766 16.9257 69.9766L15.9512 67.898Z" fill="#E0BD9D"/>
<path fill-rule="evenodd" clip-rule="evenodd" d="M19.8742 51.393C19.5899 51.393 19.3147 51.342 19.0696 51.1956C18.5232 50.8687 18.3238 50.1805 18.2362 49.5497C17.6636 45.4155 19.9272 41.2787 19.3572 37.1439C19.3572 35.5308 18.8206 34.3098 20.5997 33.4758C21.1318 33.2261 21.6534 33.145 22.1782 33.145C22.7384 33.145 23.3025 33.2372 23.8862 33.3163C27.4497 33.7967 31.148 33.649 34.7429 33.7405C36.3364 33.781 37.9666 33.8287 39.4556 34.3974C39.6451 34.4699 39.8471 34.5647 39.936 34.7471C40.0719 35.0255 39.8798 35.3497 39.6758 35.583C36.7678 38.9152 30.7545 37.7054 27.8295 41.0219C27.1523 41.7899 26.6974 42.8573 26.985 43.839C27.1118 44.2724 27.3739 44.6573 27.6903 44.9796C29.1923 46.511 31.6179 46.5463 33.5598 47.4575C33.8527 47.5947 34.1448 47.7608 34.3396 48.0196C34.8913 48.7536 34.3599 49.8857 33.5389 50.2968C33.0441 50.5445 32.4957 50.6112 31.9375 50.6112C31.5689 50.6112 31.1957 50.5825 30.8316 50.557C30.0087 50.5008 29.1851 50.4727 28.3609 50.4727C25.8529 50.4727 23.3443 50.7335 20.8906 51.2518C20.5605 51.3217 20.2108 51.393 19.8742 51.393Z" fill="#EFD9BA"/>
<path fill-rule="evenodd" clip-rule="evenodd" d="M28.1346 60.71C27.9496 60.71 27.764 60.7054 27.5783 60.6956C23.4455 60.478 25.3155 55.8098 27.7666 54.4417C30.4576 52.9397 33.8806 52.8541 36.6775 51.3586C38.1272 50.5834 39.4724 49.6088 40.9796 48.9519C42.4111 48.3284 44.0831 47.9159 44.9583 46.6231C46.1531 44.8563 45.2367 42.432 45.7485 40.362C45.9374 39.5979 46.3949 38.8266 47.1433 38.5848C47.3002 38.5338 47.4603 38.5103 47.6198 38.5103C48.3414 38.5103 49.0585 38.9913 49.4513 39.624C49.9311 40.3966 50.0363 41.3378 50.0997 42.2451C50.337 45.608 50.1696 48.9853 50.003 52.3521C49.9435 53.5554 49.8036 54.9182 48.846 55.6483C48.2388 56.1111 47.4368 56.2039 46.6793 56.2967C43.3255 56.7105 40.0142 57.4615 36.8108 58.5354C33.9701 59.4877 31.1112 60.7107 28.1346 60.71Z" fill="#EFD9BA"/>
<path fill-rule="evenodd" clip-rule="evenodd" d="M46.2839 74.6789C44.6746 74.6789 43.0582 74.5436 41.451 74.4305C37.7671 74.4305 34.0689 74.0312 30.3766 74.0109C30.1105 74.0096 29.8439 74.009 29.5778 74.009C26.5006 74.009 23.4266 74.1044 20.3526 74.2495C19.9434 74.2685 19.5231 74.3162 19.1316 74.3162C18.3394 74.3162 17.6668 74.1227 17.4531 73.1115C17.2864 72.32 17.542 71.8344 18.1681 71.4062C19.5224 70.4814 22.3808 70.9108 23.9723 70.5421C27.1477 69.8075 30.2896 68.8649 33.4395 68.0283C36.6854 67.1668 39.9502 66.3014 43.2948 66.0001C44.0753 65.9295 44.8616 65.8916 45.6479 65.8916C48.2323 65.8916 50.8161 66.3047 53.1685 67.3525C52.0083 68.4656 49.8324 67.8257 48.7317 68.9976C48.5493 69.1917 48.4068 69.4395 48.4049 69.7062C48.399 70.3461 49.1481 70.7121 49.786 70.7657C50.4233 70.8199 51.1279 70.7402 51.6423 71.1199C52.3633 71.6526 52.2541 72.8475 51.6358 73.4972C51.0181 74.1462 50.0827 74.3717 49.1951 74.4953C48.2291 74.6292 47.2578 74.6789 46.2839 74.6789Z" fill="#EFD9BA"/>
<path fill-rule="evenodd" clip-rule="evenodd" d="M17.7322 32.852L15.4863 31.5729L16.4713 30.3486L17.9695 31.4421L18.8381 30.5794L20.1101 31.2539L21.633 30.1244L22.5533 30.9859L23.824 29.9022L24.7508 30.8715L26.3895 29.9022L27.5124 30.6722L29.2543 29.9022L30.842 30.6722L32.4296 29.9022L33.8271 30.6722L36.3043 29.7754L37.2893 30.68L39.0986 29.9342L40.2097 30.7323L41.766 29.7754L43.1648 30.7885L44.4021 29.9656L46.3388 30.9859L47.4506 29.9022L48.2127 30.9859L49.3239 29.9976L50.4651 30.9408L51.7691 29.9656L52.3731 30.9859L53.5156 29.9976L54.8353 31.0643L21.3788 34.158L17.9695 31.4421L17.7322 32.852Z" fill="#EBCFA8"/>
</svg>
