<svg width="89" height="83" viewBox="0 0 89 83" fill="none" xmlns="http://www.w3.org/2000/svg">
<path d="M56.9715 0.00362104C66.8419 0.192057 77.9251 7.30125 82.3216 17.7052C83.5985 20.7282 86.4938 34.4657 76.3793 44.9352C74.9023 56.7325 80.1856 70.5843 76.3793 75.261C66.8371 86.9783 32.369 86.6385 17.6521 65.5451C9.624 54.0391 11.6762 38.3918 26.2356 27.4861C34.3167 12.5939 43.7581 -0.247627 56.9715 0.00362104Z" fill="#F4F7FA"/>
<path d="M37.0575 58.8935L43.6441 56.2981C43.6441 56.2981 43.5536 52.4301 40.9984 50.6822C35.7874 47.116 39.2757 42.8004 40.4653 40.7758C42.2609 37.7202 42.5099 34.247 38.1917 34.4784C33.8736 34.7098 35.3775 27.2831 38.989 22.7688C42.5225 18.35 36.7054 9.52005 28.1822 18.3827C23.092 23.6742 26.6607 29.8761 27.717 33.4372C28.7733 36.9984 23.766 39.2996 27.1763 42.8155C30.0886 45.8183 33.9641 47.3172 32.767 50.642C31.5699 53.9668 32.4375 56.8237 37.0575 58.8935Z" fill="url(#paint0_linear)"/>
<path d="M37.0575 58.8935L43.6441 56.2981C43.6441 56.2981 43.5536 52.4301 40.9984 50.6822C35.7874 47.116 39.2757 42.8004 40.4653 40.7758C42.2609 37.7202 42.3691 34.6469 38.5765 34.1741C34.286 33.6384 35.3775 27.2857 38.989 22.7688C42.5225 18.35 36.7054 9.52005 28.1822 18.3827C23.092 23.6742 26.6607 29.8761 27.717 33.4372C28.7733 36.9984 23.766 39.2996 27.1763 42.8155C30.0886 45.8183 33.9641 47.3172 32.767 50.642C31.5699 53.9668 32.4375 56.8237 37.0575 58.8935Z" fill="url(#paint1_linear)"/>
<g opacity="0.5">
<path opacity="0.5" d="M40.1494 58.383L40.2752 58.305C40.2274 58.227 35.3585 50.3402 32.8888 41.0701C30.6153 32.5293 29.9689 21.0259 39.8175 14.7436L39.737 14.6178C35.3534 17.4144 32.6499 21.461 31.6992 26.6418C30.9397 30.7814 31.2918 35.6503 32.7479 41.1128C35.2226 50.4005 40.0991 58.3025 40.1494 58.383Z" fill="#BEB8F2"/>
<path opacity="0.5" d="M31.3942 28.8223L31.525 28.7519C29.1433 24.3834 28.3235 17.1705 28.3159 17.0976L28.1675 17.1152C28.1751 17.1881 29 24.4287 31.3942 28.8223Z" fill="#BEB8F2"/>
<path opacity="0.5" d="M32.1236 25.3869C35.6546 20.6261 40.5789 20.3016 40.6292 20.2991L40.6216 20.1507C40.5713 20.1532 35.5792 20.4802 32.0054 25.2988L32.1236 25.3869Z" fill="#BEB8F2"/>
<path opacity="0.5" d="M34.8342 47.0405C33.8056 39.8729 42.0873 34.7524 42.1728 34.7097L42.115 34.5714C42.027 34.6066 33.6497 39.8301 34.6883 47.0606L34.8342 47.0405Z" fill="#BEB8F2"/>
<path opacity="0.5" d="M33.6955 44.2817L33.8212 44.1987C31.2862 40.3357 25.5798 39.2392 25.5244 39.2266L25.4968 39.3725C25.5521 39.3851 31.1982 40.4715 33.6955 44.2817Z" fill="#BEB8F2"/>
<path opacity="0.5" d="M39.5389 57.045C38.7341 54.4144 41.581 50.9588 41.6087 50.9236L41.493 50.8281C41.3723 50.9714 38.5656 54.3792 39.3955 57.0878L39.5389 57.045Z" fill="#BEB8F2"/>
<path opacity="0.5" d="M38.3577 55.194L38.486 55.116C37.3593 53.255 33.4686 52.2213 32.191 51.8818C32.01 51.834 31.854 51.7913 31.8289 51.7787L31.761 51.912C31.7987 51.9296 31.9018 51.9572 32.1533 52.0251C33.4158 52.3622 37.2637 53.3857 38.3577 55.194Z" fill="#BEB8F2"/>
</g>
<path d="M42.3123 59.5701C44.201 59.2633 45.5692 60.5182 46.4167 61.5795C46.3589 61.7531 46.3714 61.8688 46.3513 62.0574C46.1828 63.76 45.7502 64.4491 45.3177 66.0989C45.2246 66.4535 44.6361 67.4142 44.3695 67.7915L43.8615 68.4856C43.8615 68.4856 39.4578 68.6566 39.0881 66.1769C38.7159 63.6971 34.5134 63.3274 32.3129 62.8571C30.9598 62.5679 30.4342 62.0046 29.9564 61.8185C24.8787 59.8518 22.8441 60.9206 21.5841 59.2658C20.1933 57.4399 22.2757 55.6141 20.8698 53.5493C19.2804 51.2154 15.5608 51.9775 14.5523 49.4323C14.3788 48.9973 14.2128 48.5446 14.2304 47.9183C14.2706 46.3742 15.4602 45.4914 14.6227 44.1107C12.9377 41.3367 13.2018 37.7454 16.3052 36.498C19.3684 35.2681 23.3647 39.106 25.2383 46.1981C27.1446 51.0897 28.0878 51.4443 30.5348 51.8467C32.25 52.1284 37.0837 51.7587 37.9992 54.6509C38.9121 57.5481 40.152 59.9222 42.3123 59.5701Z" fill="url(#paint2_linear)"/>
<g opacity="0.5">
<path opacity="0.5" d="M45.6615 65.2791L45.6087 65.3922C44.9774 65.103 44.3436 64.8037 43.7275 64.5045C39.1603 62.2712 34.988 59.6581 31.3238 56.7408C28.2178 54.2686 25.4337 51.5424 23.0471 48.6402C21.1281 46.3063 19.4557 43.8441 18.075 41.3216C17.1042 39.5486 16.2869 37.768 15.6481 36.0226C15.5374 35.7183 15.4393 35.4015 15.3438 35.0921C15.218 34.6822 15.0872 34.2572 14.9238 33.8648L15.0319 33.8095C15.1979 34.2069 15.3287 34.6344 15.4569 35.0468C15.55 35.3537 15.6481 35.6706 15.7587 35.9698C16.3975 37.7077 17.2124 39.4857 18.1781 41.2537C19.5538 43.7687 21.2237 46.2258 23.1376 48.5546C25.5192 51.4519 28.2983 54.173 31.3967 56.6402C35.0559 59.5525 39.2232 62.1605 43.7803 64.3913C44.399 64.6906 45.0302 64.9898 45.6615 65.2791Z" fill="#FCFDFE"/>
<path opacity="0.5" d="M26.1882 51.9524L26.1053 52.0454C22.4888 48.5572 13.8298 48.029 13.7418 48.024L13.7568 47.9008C13.8449 47.9058 22.5416 48.4365 26.1882 51.9524Z" fill="#FCFDFE"/>
<path opacity="0.5" d="M37.1892 60.727L37.1163 60.8301C34.3725 58.7779 34.043 51.8442 34.0405 51.7737L34.1587 51.7612C34.1612 51.8266 34.4882 58.7075 37.1892 60.727Z" fill="#FCFDFE"/>
<path opacity="0.5" d="M38.8487 61.7431L38.7934 61.8562C36.784 60.8855 33.4743 60.7144 29.4755 61.3809C29.2743 61.4136 29.2743 61.4136 29.2542 61.4061L29.3095 61.2929L29.2819 61.3507L29.2869 61.2904C29.2995 61.2904 29.3774 61.2778 29.4655 61.2627C33.4869 60.5887 36.8192 60.7622 38.8487 61.7431Z" fill="#FCFDFE"/>
<path opacity="0.5" d="M44.5171 64.7358L44.4341 64.8288C42.6484 63.1212 43.0106 59.2481 43.0156 59.2079L43.1338 59.2129C43.1288 59.2507 42.7717 63.0658 44.5171 64.7358Z" fill="#FCFDFE"/>
<path opacity="0.5" d="M45.6095 65.4601C43.6051 65.3444 41.4649 65.8298 39.0681 66.9439L39.0254 66.8307C41.4397 65.7091 43.5976 65.2187 45.6221 65.3343L45.6095 65.4601Z" fill="#FCFDFE"/>
<path opacity="0.5" d="M19.016 42.725L18.9279 42.813C17.0266 40.7507 14.5444 39.0733 13.727 38.5225C13.5283 38.3892 13.4604 38.3414 13.4378 38.3213L13.5233 38.2282C13.5409 38.2433 13.6516 38.3213 13.7949 38.4169C14.6148 38.9702 17.1071 40.6527 19.016 42.725Z" fill="#FCFDFE"/>
<path opacity="0.5" d="M21.601 46.5879L21.4929 46.6483C20.3712 44.2138 22.2096 38.8972 22.2876 38.6734L22.3983 38.7086C22.3781 38.7614 20.4995 44.2012 21.601 46.5879Z" fill="#FCFDFE"/>
</g>
<path d="M42.6865 55.6542C42.4401 56.0113 45.0682 59.3386 41.9622 59.1424C41.1851 59.0921 38.8361 58.2773 37.2643 61.0613C36.96 61.6021 36.6532 62.1428 36.3488 62.6835C34.865 62.515 33.4994 62.0824 33.8917 60.166C34.5004 57.1908 30.1721 54.9425 28.2583 54.8821C25.8892 54.8092 20.3839 54.525 21.2566 49.9126C21.9835 46.0723 23.2133 43.7032 19.2422 41.4221C15.2736 39.141 13.9381 35.517 16.2016 31.7421C18.5858 27.771 15.1327 21.8055 18.6134 19.3182C24.6795 14.9824 30.9417 24.7983 29.8603 33.2259C28.7788 41.651 33.3385 38.7915 36.7865 40.2753C37.0983 40.4312 37.5711 40.6978 38.0691 41.1178C41.1323 43.7007 39.8522 47.6315 41.3486 51.6957C43.3932 57.2336 43.104 55.0506 42.6865 55.6542Z" fill="url(#paint3_linear)"/>
<g opacity="0.5">
<path opacity="0.5" d="M38.6454 57.4775L38.5096 57.6486C26.7823 48.1949 19.9165 32.7153 20.5931 17.2534L20.8018 17.2509C20.1303 32.65 26.9659 48.0641 38.6454 57.4775Z" fill="#FCFDFE"/>
<path opacity="0.5" d="M32.7121 51.7384L32.6115 51.932C27.325 49.2612 20.7183 51.932 20.6529 51.9597L20.5825 51.761C20.6504 51.7334 27.3426 49.0248 32.7121 51.7384Z" fill="#FCFDFE"/>
<path opacity="0.5" d="M36.5356 55.6769L36.3596 55.8026C33.0398 50.7451 37.7227 40.1798 37.7705 40.0741L37.9616 40.1546C37.9138 40.2577 33.2813 50.7149 36.5356 55.6769Z" fill="#FCFDFE"/>
<path opacity="0.5" d="M24.8505 39.0882L24.6845 39.2291C21.7144 35.4818 14.3129 35.1222 14.2399 35.1171L14.26 34.9034C14.3355 34.9059 21.825 35.2705 24.8505 39.0882Z" fill="#FCFDFE"/>
<path opacity="0.5" d="M21.8677 29.7854L21.659 29.8081C21.3899 24.1897 26.3016 18.184 26.3519 18.1236L26.5103 18.2569C26.46 18.3172 21.6037 24.255 21.8677 29.7854Z" fill="#FCFDFE"/>
</g>
<path d="M76.2141 52.4577C77.4942 52.5659 78.6284 51.5297 78.7441 50.1414C78.8598 48.7557 77.9167 47.5435 76.6366 47.4354C76.5712 47.4303 76.5058 47.4303 76.4379 47.4303C76.3775 46.7136 76.2644 46.0119 76.1034 45.3303C76.1638 45.3052 76.2241 45.28 76.2845 45.2499C77.4514 44.6488 77.962 43.1474 77.4212 41.8924C76.8831 40.6374 75.4998 40.1068 74.3304 40.7079C74.27 40.738 74.2122 40.7733 74.1543 40.811C73.7721 40.2351 73.3521 39.6943 72.8918 39.1888C72.9346 39.1335 72.9748 39.0782 73.0151 39.0178C73.757 37.871 73.5055 36.3042 72.4542 35.517C71.403 34.7298 69.9518 35.0216 69.2099 36.1684C69.1722 36.2262 69.1395 36.2866 69.1043 36.3495C68.5108 36.0628 67.8921 35.8263 67.2508 35.6402C67.2634 35.5698 67.2734 35.4994 67.2785 35.429C67.3941 34.0432 67.6482 32.4764 66.3655 32.3884C63.4004 32.1847 62.7591 33.6509 62.6409 35.0366C62.6359 35.1096 62.6333 35.18 62.6333 35.2504C61.9694 35.3259 61.3205 35.4566 60.6868 35.6402C60.6641 35.5748 60.6415 35.5095 60.6138 35.4441C60.0756 34.1891 60.1712 33.3516 58.9464 33.8219C56.2755 34.848 55.848 36.362 56.3862 37.6145C56.4139 37.6799 56.4466 37.7427 56.4793 37.8031C55.9411 38.2231 55.4356 38.6858 54.9627 39.1913C54.9124 39.1461 54.8596 39.1008 54.8068 39.0606C53.7556 38.2734 52.3044 38.5651 51.5625 39.7119C50.8206 40.8588 51.0721 42.4256 52.1234 43.2128C52.1762 43.253 52.2315 43.2882 52.2894 43.3234C52.0177 43.9698 51.7889 44.6412 51.6103 45.3379C51.5449 45.3253 51.4821 45.3152 51.4142 45.3102C50.134 45.2021 48.9998 46.2382 48.8841 47.6265C48.7684 49.0122 49.7115 50.2244 50.9916 50.3326C51.057 50.3376 51.1224 50.3376 51.1878 50.3376C51.2482 51.0544 51.3613 51.756 51.5223 52.4376C51.4619 52.4627 51.4016 52.4879 51.3412 52.5181C50.1743 53.1191 49.6637 54.6206 50.2045 55.8755C50.7427 57.1305 52.1259 57.6611 53.2953 57.0601C53.3557 57.0299 53.4135 56.9947 53.4714 56.957C53.8537 57.5329 54.2736 58.0736 54.7339 58.5791C54.6911 58.6344 54.6509 58.6898 54.6107 58.7501C53.8687 59.8969 54.1202 61.4637 55.1715 62.2509C56.2227 63.0381 58.4963 62.6785 59.2382 61.5316C59.2759 61.4738 58.4887 61.4814 58.5214 61.4185C59.1149 61.7052 59.7336 61.9416 60.3749 62.1277C60.3623 62.1981 60.3523 62.2685 60.3473 62.3389C60.2316 63.7247 61.1747 64.9369 62.4548 65.045C63.7349 65.1532 64.8691 64.117 64.9848 62.7288C64.9899 62.6558 64.9924 62.5854 64.9924 62.515C65.6563 62.4395 66.3052 62.3088 66.9389 62.1252C66.9616 62.1906 66.9842 62.256 67.0119 62.3213C67.5501 63.5763 68.9333 64.107 70.1027 63.5059C71.2697 62.9048 71.7802 61.4034 71.2395 60.1484C71.2118 60.083 71.1791 60.0202 71.1464 59.9598C71.6846 59.5398 72.1901 59.0771 72.663 58.5715C72.7133 58.6168 72.7661 58.6621 72.8189 58.7023C73.8701 59.4895 75.3213 59.1978 76.0632 58.051C76.8051 56.9041 76.5536 55.3373 75.5023 54.5501C75.4495 54.5099 75.3942 54.4747 75.3364 54.4395C75.608 53.7931 75.8368 53.1217 76.0154 52.425C76.0833 52.4426 76.1487 52.4527 76.2141 52.4577ZM63.0483 58.0007C58.3982 57.6083 54.9753 53.2097 55.3978 48.1773C55.8229 43.1423 59.9348 39.38 64.5824 39.7723C69.2326 40.1646 72.6554 44.5633 72.2329 49.5957C71.8104 54.6281 67.6985 58.393 63.0483 58.0007Z" fill="#BFC6D1"/>
<path d="M76.2848 45.2499C77.4517 44.6488 77.9623 43.1474 77.4215 41.8924C76.8833 40.6375 75.5001 40.1068 74.3307 40.7079C74.2703 40.7381 74.2125 40.7733 74.1546 40.811C73.7723 40.2351 73.3524 39.6944 72.8921 39.1889C72.9349 39.1335 72.9751 39.0782 73.0153 39.0178C73.7573 37.871 74.3256 35.5975 73.2015 34.921C71.0663 33.6409 69.9521 35.0216 69.2127 36.1684C69.175 36.2263 69.1423 36.2866 69.1071 36.3495C68.5136 36.0628 67.8949 35.8264 67.2536 35.6403C67.2662 35.5698 67.2762 35.4994 67.2813 35.429C67.3441 34.6745 67.0926 33.9729 66.645 33.4724C66.3608 35.6403 66.0917 37.8107 65.8427 39.9836C69.8314 40.9871 72.6155 45.0311 72.2307 49.5957C71.9037 53.4662 69.3988 56.5823 66.147 57.6385C66.1546 58.061 66.1646 58.4861 66.1621 58.9086C66.152 60.0579 66.0766 61.2098 66.0012 62.3591C66.3155 62.2962 66.6299 62.2183 66.9367 62.1302C66.9594 62.1956 66.982 62.261 67.0096 62.3264C67.5478 63.5814 68.7525 64.3434 70.9003 63.3349C72.0873 62.7766 71.7755 61.4084 71.2373 60.1535C71.2096 60.0881 71.1769 60.0252 71.1442 59.9649C71.6824 59.5449 72.1879 59.0821 72.6607 58.5766C72.711 58.6219 72.7639 58.6671 72.8167 58.7074C73.8679 59.4946 76.2244 59.0519 76.9663 57.9051C77.7082 56.7583 76.5539 55.3399 75.5026 54.5552C75.4498 54.515 75.3945 54.4798 75.3366 54.4445C75.6083 53.7982 75.8371 53.1267 76.0157 52.4301C76.0811 52.4426 76.1439 52.4527 76.2119 52.4577C77.492 52.5659 78.6262 51.5297 78.7419 50.1415C78.8576 48.7557 77.9145 47.5435 76.6344 47.4354C76.569 47.4304 76.5036 47.4304 76.4357 47.4304C76.3753 46.7136 76.2621 46.0119 76.1012 45.3304C76.1641 45.3077 76.2244 45.2826 76.2848 45.2499Z" fill="#BFC6D1"/>
<path d="M77.4078 52.1258C78.688 52.2339 79.8222 51.1978 79.9379 49.8095C80.0536 48.4238 79.1105 47.2116 77.8304 47.1034C77.765 47.0984 77.6996 47.0984 77.6342 47.0984C77.5738 46.3816 77.4607 45.68 77.2997 44.9984C77.3601 44.9733 77.4204 44.9481 77.4808 44.9179C78.6477 44.3169 79.1582 42.8154 78.6175 41.5605C78.0793 40.3055 76.6961 39.7749 75.5267 40.3759C75.4663 40.4061 75.4085 40.4413 75.3506 40.479C74.9683 39.9031 74.5483 39.3624 74.0881 38.8569C74.1309 38.8016 74.1711 38.7462 74.2113 38.6859C74.9533 37.5391 74.7018 35.9722 73.6505 35.1851C72.5993 34.3979 71.1481 34.6896 70.4062 35.8364C70.3685 35.8943 70.3358 35.9546 70.3006 36.0175C69.7071 35.7308 69.0884 35.4944 68.4471 35.3083C68.4597 35.2379 68.4697 35.1675 68.4747 35.097C68.5904 33.7113 67.6473 32.4991 66.3672 32.391C65.0871 32.2828 63.9554 33.319 63.8372 34.7072C63.8321 34.7802 63.8296 34.8506 63.8296 34.921C63.1657 34.9964 62.5168 35.1272 61.8831 35.3108C61.8604 35.2454 61.8378 35.18 61.8101 35.1146C61.2719 33.8597 59.8887 33.329 58.7193 33.9301C57.5523 34.5312 57.0418 36.0326 57.5825 37.2876C57.6102 37.353 57.6429 37.4158 57.6756 37.4762C57.1374 37.8962 56.6318 38.3589 56.159 38.8644C56.1087 38.8192 56.0559 38.7739 56.0031 38.7337C54.9519 37.9465 53.5007 38.2382 52.7588 39.385C52.0169 40.5319 52.2684 42.0987 53.3197 42.8858C53.3725 42.9261 53.4278 42.9613 53.4856 42.9965C53.214 43.6428 52.9852 44.3143 52.8066 45.011C52.7412 44.9984 52.6783 44.9883 52.6104 44.9833C51.3303 44.8752 50.1961 45.9113 50.0804 47.2996C49.9647 48.6853 50.9078 49.8975 52.1879 50.0057C52.2533 50.0107 52.3187 50.0107 52.3841 50.0107C52.4445 50.7275 52.5576 51.4291 52.7186 52.1107C52.6582 52.1358 52.5979 52.161 52.5375 52.1912C51.3706 52.7922 50.86 54.2937 51.4008 55.5486C51.9389 56.8036 53.3222 57.3342 54.4916 56.7332C54.552 56.703 54.6098 56.6678 54.6677 56.63C55.0499 57.206 55.4699 57.7467 55.9302 58.2522C55.8874 58.3075 55.8472 58.3628 55.8069 58.4232C55.065 59.57 55.3165 61.1368 56.3678 61.924C57.419 62.7112 58.8702 62.4195 59.6121 61.2726C59.6498 61.2148 59.6825 61.1544 59.7177 61.0916C60.3112 61.3783 60.9299 61.6147 61.5712 61.8008C61.5586 61.8712 61.5486 61.9416 61.5435 62.012C61.4279 63.3978 62.371 64.61 63.6511 64.7181C64.9312 64.8263 66.0654 63.7901 66.1811 62.4019C66.1861 62.3289 66.1887 62.2585 66.1887 62.1881C66.8526 62.1126 67.5015 61.9819 68.1352 61.7983C68.1579 61.8637 68.1805 61.929 68.2082 61.9944C68.7464 63.2494 70.1296 63.78 71.299 63.179C72.466 62.5804 72.9765 61.0765 72.4358 59.8215C72.4081 59.7561 72.3754 59.6933 72.3427 59.6329C72.8809 59.2129 73.3864 58.7501 73.8593 58.2446C73.9095 58.2899 73.9624 58.3352 74.0152 58.3754C75.0664 59.1626 76.5175 58.8709 77.2595 57.724C78.0014 56.5772 77.7499 55.0104 76.6986 54.2232C76.6458 54.183 76.5905 54.1478 76.5326 54.1126C76.8043 53.4662 77.0331 52.7947 77.2117 52.0981C77.2771 52.1082 77.3425 52.1182 77.4078 52.1258ZM64.2421 57.6662C59.5919 57.2739 56.1691 52.8752 56.5916 47.8428C57.0166 42.8079 61.1286 39.0455 65.7762 39.4378C70.4263 39.8302 73.8492 44.2288 73.4267 49.2612C73.0042 54.2962 68.8922 58.0585 64.2421 57.6662Z" fill="#D8DEE8"/>
<path d="M57.8219 20.9212L64.4035 75.6063C64.5016 76.4262 63.9383 77.1605 63.1461 77.241L35.7432 80.2489C34.0657 80.3545 33.1452 79.4944 33.0421 78.6242L26.131 20.4836C26.0279 19.616 26.8528 18.8313 28.5378 18.8313L56.1897 19.4148C56.992 19.4273 57.7238 20.1039 57.8219 20.9212Z" fill="url(#paint4_linear)"/>
<path d="M59.056 20.8245L65.6703 75.7837C65.7684 76.6086 65.2025 77.3455 64.4078 77.426L35.999 80.2553C35.1087 80.3433 34.2913 79.6995 34.1882 78.8243L27.2419 20.3819C27.1388 19.5092 27.7927 18.8101 28.693 18.8252L57.4188 19.3105C58.2211 19.3231 58.9579 20.0047 59.056 20.8245Z" fill="url(#paint5_linear)"/>
<path d="M58.5187 23.8575L64.6501 74.8154C64.7432 75.585 64.2125 76.2741 63.4681 76.347L36.7493 78.945C35.9218 79.0255 35.1623 78.4244 35.0642 77.607L28.6461 23.6211C28.5505 22.8088 29.1566 22.1524 29.9941 22.1625L56.9845 22.4492C57.7365 22.4567 58.4256 23.0905 58.5187 23.8575Z" fill="#D8DEE8"/>
<path d="M44.1908 20.7868C44.226 21.0785 44.0147 21.3124 43.7205 21.3099C43.4262 21.3074 43.1571 21.066 43.1244 20.7717C43.0892 20.4775 43.3005 20.2436 43.5947 20.2486C43.889 20.2536 44.1556 20.4951 44.1908 20.7868Z" fill="white"/>
<path d="M53.8979 58.0637C48.4278 47.9511 40.2568 44.9231 37.7971 34.5011C36.4667 28.8676 37.3721 23.4756 38.8987 18.999L28.693 18.828C27.7927 18.8129 27.1388 19.512 27.2419 20.3847L34.1882 78.8246C34.2913 79.6998 35.1087 80.3462 35.999 80.2556L58.3317 78.0324C58.4977 68.9685 56.3348 62.5705 53.8979 58.0637Z" fill="white"/>
<path d="M26.3886 53.4109C26.3886 53.4109 25.1889 53.8108 22.4099 54.1981C19.6309 54.5854 15.3077 58.7476 14.093 63.4984C14.093 63.4984 12.6192 64.522 13.6981 65.6235C13.6981 65.6235 15.5114 70.9703 20.0333 71.8656C24.5552 72.7634 27.6938 72.2881 28.227 72.5899C28.7627 72.8917 27.9554 71.687 27.802 71.3249C27.6486 70.9627 27.5706 71.0306 26.625 70.6559C25.6794 70.2812 23.7932 66.4132 20.6696 66.2397C20.6696 66.2397 24.6658 65.4022 26.7432 62.5854C28.823 59.7662 26.3886 53.4109 26.3886 53.4109Z" fill="url(#paint6_linear)"/>
<path d="M24.9152 60.5785C22.8656 62.1101 20.587 61.0815 18.3638 63.1689C16.9554 64.4893 16.2211 66.4484 16.6888 66.9263C17.0862 67.3312 18.1324 66.4535 19.9356 66.2145C20.2953 66.1667 20.6474 66.1517 20.9894 66.1592C21.9702 65.8976 25.0234 64.9244 26.7486 62.5829C27.9432 60.9608 27.644 58.1692 27.1762 56.0893C26.7788 58.6797 25.793 59.9196 24.9152 60.5785Z" fill="url(#paint7_linear)"/>
<path d="M56.6013 51.3713C54.7729 48.0214 49.899 45.6749 49.1319 45.3354C48.3649 44.9959 46.2925 43.6806 45.7191 43.8591C45.1457 44.0352 44.2881 44.596 44.3862 45.2021C44.4868 45.8082 45.6311 46.1125 46.2372 45.7655C46.8408 45.4184 47.2256 45.8384 48.0027 46.4822C48.7798 47.1261 48.5862 48.0314 48.7798 49.1959C48.8829 49.807 49.4312 50.1968 49.9291 50.4282C49.7129 50.3502 49.4438 50.2547 49.1068 50.1339C47.0998 49.4121 44.5044 49.7592 43.34 50.232C42.1781 50.7048 40.2567 50.1339 40.2567 50.1339C40.2567 50.1339 42.3793 62.3717 42.8144 61.494C43.2494 60.6137 46.295 58.5917 50.2159 58.3528C54.1367 58.1139 56.7824 53.5744 56.7824 53.5744C58.0499 52.415 56.6013 51.3713 56.6013 51.3713ZM50.7188 50.7023C50.7616 50.7124 50.7867 50.7174 50.7867 50.7174C50.7867 50.7174 50.8647 50.7501 50.7188 50.7023Z" fill="url(#paint8_linear)"/>
<path d="M56.7924 51.5348C56.7572 51.741 56.6666 51.902 56.5032 51.9951C56.0354 52.2591 55.4117 51.7209 54.4183 51.7712C52.5295 51.8693 52.439 53.9416 50.5075 54.5201C48.7772 55.0381 47.5726 53.7555 43.4481 52.8854C42.4194 52.6691 41.4789 52.5333 40.6741 52.4477C41.3154 55.9511 42.505 62.1228 42.8168 61.489C43.2519 60.6088 46.2975 58.5867 50.2183 58.3478C54.1391 58.1089 56.7848 53.5694 56.7848 53.5694C57.7481 52.6892 57.1369 51.8743 56.7924 51.5348Z" fill="url(#paint9_linear)"/>
<path d="M24.2983 53.8661C24.2983 53.8661 30.0978 49.5554 41.4704 50.2999C42.001 51.3436 42.4135 52.2062 42.6851 52.7897C45.2629 58.3276 45.7131 61.0312 45.8665 62.1755C45.8665 62.1755 45.9495 62.437 45.9344 62.7338C45.8891 63.6367 43.7766 76.81 42.1771 80.0895C42.1771 80.0895 35.9878 84.981 29.2829 81.2841C29.2829 81.2841 29.7809 77.7204 29.303 74.7905C28.8252 71.8631 25.7494 63.951 25.7494 63.951C25.7494 63.951 27.4395 60.9331 24.2983 53.8661Z" fill="url(#paint10_linear)"/>
<path opacity="0.3" d="M36.745 67.4845C34.4564 63.0356 30.5783 63.4958 28.2143 58.8507C27.0499 56.5646 26.8587 54.2358 26.9417 52.4527C25.1863 53.2097 24.301 53.8686 24.301 53.8686C27.4397 60.9331 25.7522 63.9561 25.7522 63.9561C25.7522 63.9561 28.8279 71.8656 29.3058 74.7955C29.7836 77.7229 29.2857 81.2891 29.2857 81.2891C33.9081 83.8367 38.2867 82.3026 40.5602 81.1055C39.9314 80.2705 39.3304 79.3073 38.8299 78.2033C36.6595 73.4248 38.7444 71.3727 36.745 67.4845Z" fill="url(#paint11_linear)"/>
<path d="M27.3472 71.2143C27.3472 71.2143 28.7531 70.3089 29.6811 70.2762C30.6091 70.246 31.1523 72.1524 31.3083 72.4843C31.4642 72.8163 30.0357 72.3636 29.329 72.5397C28.6223 72.7157 27.9961 72.688 27.6088 72.17C27.224 71.6494 27.3472 71.2143 27.3472 71.2143Z" fill="url(#paint12_linear)"/>
<path d="M31.7651 47.0456C31.7651 47.0456 31.5086 49.7516 30.5453 50.5439C29.5846 51.3361 28.4604 51.8617 28.4604 51.8617L32.082 52.9029C33.6412 53.3505 35.3212 52.9029 36.4504 51.7385L37.9116 50.2295C37.9116 50.2295 35.7437 50.0258 35.5727 49.8221C35.4017 49.6209 34.7478 47.043 34.7478 47.043H31.7651V47.0456Z" fill="url(#paint13_linear)"/>
<path d="M36.2946 45.2449C36.9308 44.7343 37.2578 44.1634 37.3936 43.9195C37.7054 43.3561 38.2185 42.4357 37.9343 41.5152C37.6074 40.4489 36.3323 39.7698 35.2609 39.7547C34.0663 39.7371 33.9858 40.5595 32.072 41.0877C30.6686 41.4775 30.0499 41.2184 29.645 41.7868C29.1798 42.4382 29.4715 43.5121 29.6023 43.9975C29.7532 44.5533 30.1053 45.3606 30.1908 45.5442C30.5202 46.2609 30.4951 46.2332 30.5957 46.442C30.8421 46.945 31.3376 47.8076 32.336 48.8815C32.4593 48.5671 32.6303 48.1823 32.8793 47.7749C32.9748 47.6165 33.3571 47.0028 33.8727 46.5199C34.7705 45.6825 35.3011 46.0396 36.2946 45.2449Z" fill="url(#paint14_linear)"/>
<path d="M31.1939 47.5661C31.1939 47.5661 32.0717 49.5605 34.3276 49.7139C36.3471 49.8522 37.2424 45.3982 36.0906 44.274C35.7058 43.8993 34.8683 43.6529 34.149 43.7535C33.724 43.8138 33.5605 43.9647 32.8639 44.0502C32.22 44.1282 32.0541 44.0351 31.8453 44.1684C31.5838 44.3344 31.3474 44.7972 31.5636 46.1628C31.2342 45.7252 30.7941 45.5139 30.4495 45.6246C30.3942 45.6422 30.2433 45.7176 30.1477 45.8484C29.7982 46.3237 30.1779 47.043 31.1939 47.5661Z" fill="url(#paint15_linear)"/>
<path d="M53.4943 67.4368C53.4943 74.8459 57.7848 80.5297 62.948 80.1373C67.9729 79.7551 71.949 73.7343 71.949 66.6773C71.949 59.6204 67.9729 53.9265 62.948 53.9592C57.7848 53.9919 53.4943 60.0278 53.4943 67.4368ZM56.6732 76.0908C55.0611 73.8198 54.1734 70.7465 54.1734 67.4368C54.1734 65.694 54.4173 64.0014 54.8951 62.4044C55.3529 60.8753 56.0093 59.5022 56.8392 58.3227C57.6566 57.1633 58.5997 56.2528 59.6434 55.6166C60.6997 54.9753 61.8113 54.6458 62.948 54.6383H62.9857C65.1738 54.6383 67.2335 55.858 68.7852 58.0686C70.3847 60.3472 71.265 63.4029 71.265 66.6748C71.265 69.9644 70.3772 73.108 68.7626 75.5299C67.1882 77.894 65.1033 79.2873 62.8927 79.4558C62.7418 79.4684 62.5909 79.4734 62.4425 79.4734C60.2721 79.4759 58.2224 78.2737 56.6732 76.0908Z" fill="url(#paint16_linear)"/>
<path d="M71.6313 66.6798C71.6313 60.1208 68.1934 54.7363 63.674 54.0371C63.9909 53.9893 69.4735 53.9617 69.7979 53.9617C74.8228 53.929 78.7989 59.6253 78.7989 66.6798C78.7989 73.7367 74.8228 79.7575 69.7979 80.1398C69.2874 80.1775 63.6262 80.1574 63.1358 80.0819C67.9192 79.3476 71.6313 73.4953 71.6313 66.6798Z" fill="url(#paint17_linear)"/>
<path d="M69.9595 53.9441C68.7347 54.2761 66.2776 55.1261 64.1726 57.3519C61.1396 60.5559 61.2427 64.2906 61.1421 65.9379C61.0591 67.2784 60.282 74.3152 65.2264 77.9443C67.1554 79.3602 69.1799 79.7752 70.367 79.9185C69.4037 79.9915 63.9111 80.0644 62.9479 80.1373C61.8111 79.9663 60.1764 79.5564 58.5844 78.4548C53.1094 74.6648 53.811 66.6119 53.9217 65.5204C54.0902 63.8631 54.5379 59.4795 58.1418 56.3987C59.9098 54.8872 61.7834 54.251 62.9479 53.9617C63.7728 53.9542 69.1321 53.9492 69.9595 53.9441Z" fill="url(#paint18_linear)"/>
<path d="M60.7555 67.3563C60.7555 74.7377 65.0007 80.3964 70.1111 80.0091C75.0857 79.6318 79.0216 73.6337 79.0216 66.6044C79.0216 59.5751 75.0857 53.9014 70.1111 53.9341C65.0007 53.9667 60.7555 59.9775 60.7555 67.3563ZM63.9092 75.9776C62.3148 73.7167 61.4345 70.6534 61.4345 67.3563C61.4345 65.621 61.676 63.9335 62.1488 62.344C62.604 60.8225 63.2503 59.4544 64.0727 58.2799C64.88 57.1255 65.8156 56.2201 66.8467 55.5864C67.8904 54.9476 68.9894 54.6206 70.1136 54.6131H70.1513C72.3142 54.6131 74.3488 55.8253 75.8854 58.0284C77.4673 60.2969 78.34 63.3425 78.34 66.6019C78.34 69.8788 77.4598 73.0099 75.8628 75.4218C74.306 77.7733 72.2438 79.1615 70.0583 79.3275C69.9099 79.3376 69.7615 79.3451 69.6157 79.3451C67.4679 79.3476 65.4434 78.1505 63.9092 75.9776Z" fill="url(#paint19_linear)"/>
<path d="M54.4506 58.0489L63.0945 57.9735C63.9395 57.9659 64.6336 58.6601 64.6336 59.5227V73.5335C64.6336 74.3961 64.2966 74.8614 63.0945 75.0902L62.1463 75.1531C61.422 75.06 53.1453 73.2669 53.1453 72.4822V59.485C53.1453 58.6978 53.7263 58.054 54.4506 58.0489Z" fill="url(#paint20_linear)"/>
<path d="M53.3306 58.0491L61.9518 57.9736C62.7943 57.9661 63.4859 58.6577 63.4859 59.5203V73.7751C63.4859 74.6377 62.7943 75.2463 61.9518 75.1407L53.3306 74.0467C52.6088 73.9561 52.0278 73.2444 52.0278 72.4623V59.4826C52.0278 58.6954 52.6088 58.0541 53.3306 58.0491Z" fill="url(#paint21_linear)"/>
<path d="M53.3305 58.7654L61.9517 58.7403C62.3717 58.7403 62.7137 59.0848 62.7137 59.5124V73.6816C62.7137 74.1092 62.3692 74.416 61.9517 74.3657L53.3305 73.3245C52.9683 73.2817 52.6766 72.9246 52.6766 72.5323V59.4822C52.6766 59.0899 52.9683 58.768 53.3305 58.7654Z" fill="#D8DEE8"/>
<g opacity="0.5">
<path opacity="0.5" d="M58.6909 67.1452C59.7296 64.1122 57.9591 62.2461 58.9047 59.2784C59.0531 58.8157 59.2467 58.3882 59.4731 57.9933L61.9503 57.9707C62.7928 57.9631 63.4844 58.6547 63.4844 59.5174V73.7721C63.4844 74.6347 62.7928 75.2433 61.9503 75.1377L53.7465 74.0965C54.0257 73.1534 54.4029 72.409 54.7953 71.813C56.2489 69.6149 57.8484 69.6048 58.6909 67.1452Z" fill="white"/>
</g>
<path d="M53.5273 66.4082C53.5273 68.639 55.2576 70.6258 57.4984 70.8572C59.87 71.1011 61.8946 69.3105 61.8946 66.8408C61.8946 64.3711 59.87 62.3692 57.4984 62.3692C55.2551 62.3692 53.5273 64.1775 53.5273 66.4082Z" fill="white"/>
<path d="M60.2182 65.8373C60.2182 65.4374 60.0673 65.0677 59.7932 64.7911C59.514 64.5144 59.1393 64.3635 58.7344 64.3736C58.3572 64.3836 57.995 64.5295 57.7058 64.7885C57.4166 64.5572 57.0519 64.4364 56.6621 64.444C56.2345 64.4541 55.8246 64.62 55.5027 64.9168C55.4901 64.9294 55.4775 64.942 55.465 64.952C54.801 65.6034 54.7759 66.6119 55.4096 67.223L56.9714 68.6037C57.1676 68.7747 57.4266 68.8527 57.7008 68.8225C57.9699 68.7923 58.2239 68.6616 58.41 68.4553L59.7907 66.9288C59.7907 66.9263 59.7932 66.9263 59.7932 66.9263C59.7982 66.9212 59.8033 66.9162 59.8083 66.9112L59.8536 66.8609H59.851C60.09 66.5666 60.2182 66.207 60.2182 65.8373ZM59.2751 66.7225L58.5508 66.7728C58.5307 66.7754 58.5081 66.7301 58.493 66.72L58.1811 66.4987L57.9648 66.8533L57.3864 67.8015C57.3663 67.8341 57.3336 67.8467 57.2959 67.8492C57.2858 67.8492 57.2456 67.8518 57.2355 67.8492C57.1902 67.8392 57.1274 67.804 57.1274 67.7562V65.9328L56.8884 66.3654L56.6923 66.71C56.6721 66.7427 56.652 66.7703 56.6143 66.7728L55.226 66.8659C55.1632 66.8709 55.1129 66.8181 55.1129 66.7577C55.1129 66.6974 55.1657 66.637 55.2286 66.6345L56.559 66.549L56.7275 66.2749L57.2028 65.5078C57.228 65.4676 57.2707 65.4475 57.316 65.4575C57.3612 65.4676 57.3864 65.5078 57.3864 65.5556V67.3739L57.7636 66.7628L58.0554 66.2849C58.0705 66.2598 58.0956 66.2422 58.1233 66.2346C58.1509 66.2271 58.1811 66.2648 58.2037 66.2799L58.5785 66.554L59.2701 66.5088C59.3254 66.5063 59.3682 66.554 59.3682 66.6094C59.3732 66.6647 59.3304 66.72 59.2751 66.7225Z" fill="url(#paint22_linear)"/>
<path d="M43.2019 33.8395C43.2019 36.941 45.8602 39.6145 49.1825 39.8152C52.5525 40.0188 55.3214 37.6079 55.3214 34.4238C55.3214 31.2398 52.5525 28.5603 49.1825 28.4393C45.8602 28.3213 43.2019 30.7411 43.2019 33.8395Z" fill="url(#paint23_linear)"/>
<path d="M47.0386 35.7401L45.59 35.6574V32.8895L47.0386 32.9249V35.7401Z" fill="white"/>
<path d="M49.1687 35.861L47.6044 35.7725V31.5497L49.1687 31.5556V35.861Z" fill="white"/>
<path d="M51.407 35.9908L49.7798 35.8964V30.3132L51.407 30.3014V35.9908Z" fill="white"/>
<path d="M51.7019 37.2805L45.2988 36.8231V36.2034L51.7019 36.6136V37.2805Z" fill="white"/>
<g opacity="0.2">
<path opacity="0.2" d="M47.7151 38.2839C48.442 36.6491 47.7076 35.0437 48.6909 34.008C49.6944 32.9515 51.0072 34.0404 52.4256 33.2053C52.9764 32.8807 53.5901 32.2374 54.0478 30.877C54.845 31.8774 55.3204 33.1109 55.3204 34.427C55.3204 37.6111 52.5514 40.022 49.1814 39.8184C48.4168 39.7711 47.6875 39.5941 47.016 39.3108C47.348 38.9744 47.5668 38.6203 47.7151 38.2839Z" fill="url(#paint24_linear)"/>
</g>
<path d="M76.5719 42.0732C76.5719 47.2295 72.2512 51.2679 67.1031 51.1023C66.4165 51.0802 65.7476 50.9836 65.1088 50.8208C61.1427 49.8105 58.2631 46.2496 58.2631 42.1063C58.2631 37.2923 62.1461 33.2539 67.1031 33.0772C70.5662 32.953 73.6546 34.7334 75.3044 37.4827C76.1091 38.8188 76.5719 40.3839 76.5719 42.0732Z" fill="url(#paint25_linear)"/>
<path d="M64.6315 44.861C64.6315 45.5124 64.1864 46.0203 63.6432 46.001L63.6004 45.9982C63.0622 45.9761 62.6296 45.4434 62.6296 44.803V39.401C62.6296 38.7606 63.0622 38.2306 63.6004 38.2168H63.6432C64.1864 38.203 64.6315 38.7164 64.6315 39.3679V44.861Z" fill="white"/>
<path d="M62.1169 43.3262C62.1169 43.9197 61.7195 44.3917 61.2316 44.3806C60.7488 44.3696 60.3615 43.8838 60.3615 43.2986V40.875C60.3615 40.2898 60.7488 39.8095 61.2316 39.804C61.7195 39.7985 62.1169 40.2732 62.1169 40.8667V43.3262Z" fill="white"/>
<path d="M71.1637 39.2575C71.1637 38.573 70.6708 38.0292 70.0672 38.0457H70.0194C69.4208 38.0623 68.9405 38.6199 68.9405 39.2934V44.9825C68.9405 45.656 69.4208 46.2191 70.0194 46.244L70.0672 46.2467C70.6708 46.2688 71.1637 45.7333 71.1637 45.0487V39.2575Z" fill="white"/>
<path d="M73.8795 40.817C73.8795 40.1628 73.3991 39.6411 72.8106 39.6494C72.2272 39.6577 71.7594 40.1849 71.7594 40.8281V43.4891C71.7594 44.1322 72.2272 44.665 72.8106 44.6788C73.3991 44.6926 73.8795 44.1764 73.8795 43.5222V40.817Z" fill="white"/>
<path d="M68.2788 43.0503L65.2533 43.0116V41.2229L68.2788 41.2174V43.0503Z" fill="white"/>
<g opacity="0.2">
<path opacity="0.2" d="M76.5708 42.0733C76.5708 47.2296 72.2501 51.268 67.102 51.1024C66.4154 51.0803 65.7465 50.9837 65.1077 50.8208C65.5805 50.2605 65.8974 49.6946 66.1187 49.1619C67.2353 46.4622 66.1061 43.9669 67.6151 42.2361C69.1291 40.4971 71.0731 42.123 73.1329 40.729C73.8697 40.2321 74.6771 39.3102 75.3058 37.4773C76.1081 38.8188 76.5708 40.3839 76.5708 42.0733Z" fill="url(#paint26_linear)"/>
</g>
<path d="M68.1279 25.0801C68.1279 28.7935 64.949 31.6625 61.1439 31.6085C61.0559 31.6085 60.9679 31.6056 60.8773 31.5999C60.7968 31.5971 60.7164 31.5914 60.6359 31.5829C60.5554 31.5772 60.4724 31.5686 60.3919 31.5601C60.3743 31.5573 60.3592 31.5573 60.3416 31.5544C60.2888 31.5487 60.2385 31.5431 60.1857 31.5345C60.1354 31.526 60.0851 31.5203 60.0323 31.5118C59.9594 31.5004 59.8864 31.4862 59.8135 31.472C59.7682 31.4634 59.7255 31.4549 59.6827 31.4464C59.2476 31.3497 58.8276 31.2189 58.4277 31.0512C58.3045 31 58.1838 30.946 58.0656 30.8862C57.2331 30.4796 56.4988 29.9224 55.9027 29.2542C54.8616 28.0884 54.2404 26.5871 54.2404 24.9749C54.2404 21.4975 57.1401 18.5774 60.8748 18.4495C61.1665 18.4381 61.4532 18.4466 61.7349 18.4694C64.773 18.7167 67.303 20.8237 67.9594 23.6414C67.977 23.7125 67.9921 23.7836 68.0047 23.8547C68.0097 23.8774 68.0122 23.9002 68.0173 23.9229C68.0273 23.9798 68.0374 24.0366 68.0474 24.0935C68.06 24.1788 68.0726 24.2641 68.0826 24.3494V24.3522C68.0852 24.3835 68.0902 24.4176 68.0927 24.4489C68.0977 24.4887 68.1002 24.5285 68.1028 24.5712C68.1053 24.6167 68.1103 24.6622 68.1128 24.7048C68.1128 24.719 68.1153 24.7333 68.1153 24.7475C68.1179 24.7987 68.1204 24.8498 68.1204 24.9039C68.1279 24.9636 68.1279 25.0233 68.1279 25.0801Z" fill="url(#paint27_linear)"/>
<path d="M68.1279 25.0801C68.1279 28.7935 64.949 31.6625 61.1439 31.6085C61.0559 31.6085 60.9679 31.6056 60.8773 31.5999C60.7968 31.5971 60.7164 31.5914 60.6359 31.5829C60.5554 31.5772 60.4724 31.5686 60.3919 31.5601C60.3743 31.5573 60.3592 31.5573 60.3416 31.5544C60.2888 31.5487 60.2385 31.5431 60.1857 31.5345C60.1354 31.526 60.0851 31.5203 60.0323 31.5118C59.9594 31.5004 59.8864 31.4862 59.8135 31.472C59.7682 31.4634 59.7255 31.4549 59.6827 31.4464C59.2476 31.3497 58.8276 31.2189 58.4277 31.0512C58.3045 31 58.1838 30.946 58.0656 30.8862C57.2331 30.4796 56.4988 29.9224 55.9027 29.2542C54.8616 28.0884 54.2404 26.5871 54.2404 24.9749C54.2404 21.4975 57.1401 18.5774 60.8748 18.4495C61.1665 18.4381 61.4532 18.4466 61.7349 18.4694C64.773 18.7167 67.303 20.8237 67.9594 23.6414C67.977 23.7125 67.9921 23.7836 68.0047 23.8547C68.0097 23.8774 68.0122 23.9002 68.0173 23.9229C68.0273 23.9798 68.0374 24.0366 68.0474 24.0935C68.06 24.1788 68.0726 24.2641 68.0826 24.3494V24.3522C68.0852 24.3835 68.0902 24.4176 68.0927 24.4489C68.0977 24.4887 68.1002 24.5285 68.1028 24.5712C68.1053 24.6167 68.1103 24.6622 68.1128 24.7048C68.1128 24.719 68.1153 24.7333 68.1153 24.7475C68.1179 24.7987 68.1204 24.8498 68.1204 24.9039C68.1279 24.9636 68.1279 25.0233 68.1279 25.0801Z" fill="url(#paint28_linear)"/>
<path d="M64.3335 22.2169C64.3335 21.5317 63.8431 20.9772 63.237 20.9772H58.3404C57.7343 20.9772 57.2439 21.5317 57.2439 22.2169V27.8524C57.2439 28.5377 57.7343 29.0921 58.3404 29.0921H63.237C63.8431 29.0921 64.3335 28.5377 64.3335 27.8524V22.2169Z" fill="white"/>
<path d="M62.8592 23.235C62.4719 22.4815 61.7073 21.9725 60.8271 21.9725C59.9469 21.9725 59.1823 22.4815 58.795 23.235C58.7749 23.2748 58.7825 23.326 58.8152 23.3544L59.7205 24.1136C59.7356 24.1249 59.7532 24.105 59.7708 24.105H60.5957H61.061H61.8859C61.9035 24.105 61.9211 24.1249 61.9362 24.1136L62.8416 23.343C62.8718 23.3117 62.8818 23.2748 62.8592 23.235Z" fill="url(#paint29_linear)"/>
<path d="M60.3924 23.8603L59.8894 22.6718C59.8844 22.6604 59.8718 22.6519 59.8592 22.6548C59.8467 22.6576 59.8391 22.6718 59.8391 22.686L59.912 23.8774C59.912 23.8916 59.9246 23.9087 59.9372 23.9087H60.3673C60.3773 23.9087 60.3849 23.9001 60.3899 23.8916C60.3974 23.8831 60.3974 23.8689 60.3924 23.8603Z" fill="white"/>
<defs>
<linearGradient id="paint0_linear" x1="28.0828" y1="55.1333" x2="43.7406" y2="17.7692" gradientUnits="userSpaceOnUse">
<stop stop-color="#FFC444"/>
<stop offset="0.9964" stop-color="#F36F56"/>
</linearGradient>
<linearGradient id="paint1_linear" x1="33.6049" y1="15.9714" x2="35.1803" y2="58.3998" gradientUnits="userSpaceOnUse">
<stop offset="0.00359712" stop-color="#E38DDD"/>
<stop offset="1" stop-color="#9571F6"/>
</linearGradient>
<linearGradient id="paint2_linear" x1="11.9279" y1="40.1479" x2="48.83" y2="73.711" gradientUnits="userSpaceOnUse">
<stop offset="0.00359712" stop-color="#E38DDD"/>
<stop offset="1" stop-color="#9571F6"/>
</linearGradient>
<linearGradient id="paint3_linear" x1="17.3577" y1="25.5907" x2="39.3012" y2="61.75" gradientUnits="userSpaceOnUse">
<stop stop-color="#FF9085"/>
<stop offset="1" stop-color="#FB6FBB"/>
</linearGradient>
<linearGradient id="paint4_linear" x1="44.928" y1="48.1291" x2="34.1285" y2="49.3072" gradientUnits="userSpaceOnUse">
<stop stop-color="#444B8C"/>
<stop offset="0.9964" stop-color="#26264F"/>
</linearGradient>
<linearGradient id="paint5_linear" x1="54.4426" y1="20.9057" x2="27.7386" y2="111.817" gradientUnits="userSpaceOnUse">
<stop stop-color="#444B8C"/>
<stop offset="0.9964" stop-color="#26264F"/>
</linearGradient>
<linearGradient id="paint6_linear" x1="19.7576" y1="71.1541" x2="26.4374" y2="43.9731" gradientUnits="userSpaceOnUse">
<stop stop-color="#FFCFA3"/>
<stop offset="0.9964" stop-color="#E9856B"/>
</linearGradient>
<linearGradient id="paint7_linear" x1="21.2649" y1="66.187" x2="24.2932" y2="50.3636" gradientUnits="userSpaceOnUse">
<stop stop-color="#FFCFA3"/>
<stop offset="0.9964" stop-color="#E9856B"/>
</linearGradient>
<linearGradient id="paint8_linear" x1="47.5402" y1="60.1733" x2="55.4516" y2="22.6979" gradientUnits="userSpaceOnUse">
<stop stop-color="#FFCFA3"/>
<stop offset="1" stop-color="#E9856B"/>
</linearGradient>
<linearGradient id="paint9_linear" x1="47.7795" y1="60.7626" x2="49.4967" y2="45.9721" gradientUnits="userSpaceOnUse">
<stop stop-color="#FFCFA3"/>
<stop offset="0.9964" stop-color="#E9856B"/>
</linearGradient>
<linearGradient id="paint10_linear" x1="34.858" y1="55.1324" x2="36.5458" y2="75.1872" gradientUnits="userSpaceOnUse">
<stop stop-color="#AB316D"/>
<stop offset="1" stop-color="#792D3D"/>
</linearGradient>
<linearGradient id="paint11_linear" x1="24.2996" y1="67.5591" x2="40.5579" y2="67.5591" gradientUnits="userSpaceOnUse">
<stop stop-color="#AB316D"/>
<stop offset="1" stop-color="#792D3D"/>
</linearGradient>
<linearGradient id="paint12_linear" x1="29.034" y1="72.4551" x2="29.6535" y2="67.3058" gradientUnits="userSpaceOnUse">
<stop stop-color="#FFCFA3"/>
<stop offset="1" stop-color="#E9856B"/>
</linearGradient>
<linearGradient id="paint13_linear" x1="32.4989" y1="52.6083" x2="34.2011" y2="39.4891" gradientUnits="userSpaceOnUse">
<stop stop-color="#FFCFA3"/>
<stop offset="1" stop-color="#E9856B"/>
</linearGradient>
<linearGradient id="paint14_linear" x1="31.3122" y1="52.0608" x2="33.8513" y2="41.8031" gradientUnits="userSpaceOnUse">
<stop stop-color="#311944"/>
<stop offset="1" stop-color="#A03976"/>
</linearGradient>
<linearGradient id="paint15_linear" x1="32.8318" y1="49.2551" x2="35.2008" y2="36.4517" gradientUnits="userSpaceOnUse">
<stop stop-color="#FFCFA3"/>
<stop offset="1" stop-color="#E9856B"/>
</linearGradient>
<linearGradient id="paint16_linear" x1="71.9483" y1="67.0581" x2="53.4947" y2="67.0581" gradientUnits="userSpaceOnUse">
<stop stop-color="#AA80F9"/>
<stop offset="0.9964" stop-color="#6165D7"/>
</linearGradient>
<linearGradient id="paint17_linear" x1="78.7987" y1="67.058" x2="63.1362" y2="67.058" gradientUnits="userSpaceOnUse">
<stop stop-color="#AA80F9"/>
<stop offset="0.9964" stop-color="#6165D7"/>
</linearGradient>
<linearGradient id="paint18_linear" x1="70.3662" y1="67.0408" x2="53.8326" y2="67.0408" gradientUnits="userSpaceOnUse">
<stop stop-color="#AA80F9"/>
<stop offset="0.9964" stop-color="#6165D7"/>
</linearGradient>
<linearGradient id="paint19_linear" x1="65.6361" y1="60.3344" x2="81.2215" y2="84.7252" gradientUnits="userSpaceOnUse">
<stop stop-color="#FF9085"/>
<stop offset="1" stop-color="#FB6FBB"/>
</linearGradient>
<linearGradient id="paint20_linear" x1="46.3091" y1="63.2329" x2="59.0872" y2="65.8318" gradientUnits="userSpaceOnUse">
<stop stop-color="#FF9085"/>
<stop offset="1" stop-color="#FB6FBB"/>
</linearGradient>
<linearGradient id="paint21_linear" x1="68.0436" y1="75.3978" x2="52.6224" y2="61.3224" gradientUnits="userSpaceOnUse">
<stop stop-color="#AA80F9"/>
<stop offset="0.9964" stop-color="#6165D7"/>
</linearGradient>
<linearGradient id="paint22_linear" x1="54.9492" y1="66.602" x2="60.2183" y2="66.602" gradientUnits="userSpaceOnUse">
<stop stop-color="#FF9085"/>
<stop offset="1" stop-color="#FB6FBB"/>
</linearGradient>
<linearGradient id="paint23_linear" x1="51.3908" y1="29.5055" x2="41.4121" y2="45.2787" gradientUnits="userSpaceOnUse">
<stop offset="0.00359712" stop-color="#E38DDD"/>
<stop offset="1" stop-color="#9571F6"/>
</linearGradient>
<linearGradient id="paint24_linear" x1="53.6944" y1="30.6363" x2="43.8256" y2="47.5147" gradientUnits="userSpaceOnUse">
<stop offset="0.00359712" stop-color="#E38DDD"/>
<stop offset="1" stop-color="#9571F6"/>
</linearGradient>
<linearGradient id="paint25_linear" x1="63.8571" y1="34.8271" x2="79.0464" y2="60.4942" gradientUnits="userSpaceOnUse">
<stop stop-color="#FFD568"/>
<stop offset="0.9964" stop-color="#E9856B"/>
</linearGradient>
<linearGradient id="paint26_linear" x1="68.8092" y1="41.0036" x2="76.873" y2="55.747" gradientUnits="userSpaceOnUse">
<stop stop-color="#FFC444"/>
<stop offset="0.9964" stop-color="#F36F56"/>
</linearGradient>
<linearGradient id="paint27_linear" x1="58.6039" y1="19.6011" x2="70.1129" y2="38.4816" gradientUnits="userSpaceOnUse">
<stop stop-color="#FF9085"/>
<stop offset="1" stop-color="#FB6FBB"/>
</linearGradient>
<linearGradient id="paint28_linear" x1="58.6039" y1="19.6011" x2="70.1129" y2="38.4816" gradientUnits="userSpaceOnUse">
<stop stop-color="#FF9085"/>
<stop offset="1" stop-color="#FB6FBB"/>
</linearGradient>
<linearGradient id="paint29_linear" x1="60.2448" y1="21.9585" x2="62.6368" y2="26.2044" gradientUnits="userSpaceOnUse">
<stop stop-color="#FF9085"/>
<stop offset="1" stop-color="#FB6FBB"/>
</linearGradient>
</defs>
</svg>
