<svg width="89" height="79" viewBox="0 0 89 79" fill="none" xmlns="http://www.w3.org/2000/svg">
<g clip-path="url(#clip0)">
<path d="M84.2477 47.1137C99.7278 30.2596 75.8365 -4.41959 54.5336 0.0789296C54.5336 0.0789296 43.4421 -1.51133 32.5065 0.899506C26.0177 2.33133 20.3255 6.58997 16.726 12.7134C13.124 18.8367 16.8621 26.5858 18.3211 33.7023C19.2691 38.326 18.4958 42.3655 18.3206 47.1137C18.0999 53.1041 14.1559 59.864 16.402 65.4526C21.8769 79.0752 47.4181 80.626 59.3645 76.8193C80.743 70.0075 71.9298 60.5251 84.2477 47.1137Z" fill="#F4F7FA"/>
<path d="M27 44.6046C27 44.6046 25.7193 41.5182 20.3931 42.7009C15.067 43.8808 6.00317 42.0072 4 39C4 39 4.32864 48.9146 11.298 48.9993C18.2648 49.0812 24.2587 42.2202 27 44.6046Z" fill="url(#paint0_linear)"/>
<path d="M11.8901 45.9921C17.0519 45.7954 23.1762 41.1468 27 44.6073C24.2587 42.2229 18.2648 49.0839 11.2981 48.9992C4.32864 48.9146 4 39 4 39C4 39 6.73088 46.1887 11.8901 45.9921Z" fill="url(#paint1_linear)"/>
<path d="M13.4244 36.5006C13.4244 36.5006 12.6889 33.2838 13.1544 32.0428C13.7293 31.6525 13.5547 34.0617 13.5547 34.0617C13.5547 34.0617 13.7828 36.3902 13.969 36.8559C14.1575 37.3244 13.4244 36.5006 13.4244 36.5006Z" fill="url(#paint2_linear)"/>
<path d="M13.0001 34.1873C13.0054 34.3251 13.0185 34.4445 13.0317 34.5718C13.0475 34.6964 13.066 34.8237 13.0897 34.9457C13.1372 35.1922 13.1925 35.4389 13.2638 35.6802C13.4061 36.1628 13.588 36.6375 13.8174 37.0883C14.2709 37.9926 14.8905 38.8146 15.6339 39.5041C16.0057 39.8461 16.4064 40.1591 16.8256 40.4428C17.0392 40.5781 17.2501 40.716 17.4742 40.8327L17.6403 40.9228L17.722 40.9679L17.8064 41.0103L18.1465 41.1774C18.2018 41.2065 18.2598 41.2304 18.3178 41.2542L18.4918 41.3285C18.6078 41.3762 18.7212 41.432 18.8399 41.4717C19.0745 41.5593 19.3092 41.6521 19.5438 41.7263C20.0105 41.8854 20.4851 42.0259 20.957 42.1612C21.4316 42.2938 21.9088 42.4158 22.3886 42.5298C22.8684 42.6385 23.3483 42.7393 23.8307 42.8347C24.3106 42.9276 24.7931 43.0204 25.2703 43.1079C25.7501 43.1954 26.2247 43.2856 26.6966 43.3889C27.1686 43.4924 27.6326 43.6064 28.0887 43.747C28.5448 43.8875 28.9877 44.0599 29.4122 44.2667C29.8393 44.4736 30.2427 44.7202 30.625 45.0039C31.0073 45.2877 31.3658 45.6032 31.7034 45.9479C31.7692 46.0169 31.88 46.0169 31.9485 45.9506C32.0144 45.887 32.0171 45.7809 31.9564 45.712C31.6295 45.3354 31.2762 44.9801 30.886 44.6618C30.4984 44.3436 30.0766 44.0625 29.6337 43.8239C29.1907 43.5826 28.7267 43.3889 28.2548 43.2246C27.7829 43.0602 27.303 42.9276 26.8258 42.8109C25.8661 42.5802 24.9064 42.3972 23.9573 42.1983C23.0082 41.9968 22.067 41.7714 21.1389 41.5088C20.6749 41.3736 20.2135 41.2331 19.7574 41.0766C19.5254 41.0024 19.3065 40.9175 19.0825 40.8353C18.9691 40.7982 18.8636 40.7451 18.7529 40.7L18.5894 40.6311C18.5341 40.6072 18.4814 40.5861 18.4286 40.5595C17.9988 40.3633 17.5876 40.1299 17.1842 39.8806C16.7887 39.6234 16.4117 39.3397 16.0584 39.0267C15.9714 38.9472 15.8817 38.8703 15.7974 38.7881L15.5469 38.5389L15.307 38.279C15.2306 38.1888 15.1541 38.0986 15.0803 38.0084C14.785 37.6399 14.5161 37.2501 14.2841 36.8338C14.0546 36.4174 13.8543 35.9852 13.6935 35.537C13.6118 35.3142 13.5432 35.0836 13.4825 34.8528C13.4535 34.7388 13.4245 34.6221 13.4008 34.5054C13.3771 34.3915 13.356 34.2695 13.3428 34.1607V34.1528C13.3322 34.0573 13.2452 33.9883 13.1504 34.0016C13.0634 34.0202 12.9974 34.0998 13.0001 34.1873Z" fill="url(#paint3_linear)"/>
<path d="M13.491 32C13.491 32 11.7325 26.166 14.8713 25.1179C18.0157 24.0699 13.6042 30.3058 13.491 32Z" fill="url(#paint4_linear)"/>
<path d="M11.4431 30.9865C12.0313 32.341 12.9821 33.22 13.5649 32.9519C14.1477 32.6837 14.145 31.368 13.5568 30.0135C12.9686 28.659 12.0179 27.78 11.4351 28.0481C10.8523 28.3162 10.855 29.632 11.4431 30.9865Z" fill="url(#paint5_linear)"/>
<path d="M11.2937 34.9243C12.3254 35.9033 13.4811 36.2832 13.8705 35.7739C14.26 35.2647 13.7416 34.0576 12.7073 33.0757C11.6755 32.0967 10.5199 31.7168 10.1305 32.2261C9.73851 32.7382 10.2594 33.9451 11.2937 34.9243Z" fill="url(#paint6_linear)"/>
<path d="M16.5161 31.0233C15.9067 32.3743 14.9573 33.2339 14.3975 32.9437C13.8352 32.6562 13.8744 31.3276 14.4838 29.9767C15.0932 28.6257 16.0428 27.7661 16.6025 28.0563C17.1648 28.3438 17.1256 29.6724 16.5161 31.0233Z" fill="url(#paint7_linear)"/>
<path d="M15.4642 34.0721C14.8298 35.4145 13.8846 36.2499 13.3514 35.9327C12.8181 35.6184 12.9015 34.2732 13.5358 32.9279C14.1702 31.5855 15.1154 30.7501 15.6486 31.0673C16.1819 31.3844 16.0985 32.7296 15.4642 34.0721Z" fill="url(#paint8_linear)"/>
<path d="M12.6048 38.5482C13.6885 39.1411 14.7433 39.1518 14.9605 38.5723C15.1777 37.9927 14.4774 37.042 13.3959 36.4518C12.3123 35.8589 11.2574 35.8482 11.0402 36.4277C10.8208 37.0046 11.5211 37.9554 12.6048 38.5482Z" fill="url(#paint9_linear)"/>
<path d="M14.5929 41.9823C15.9736 41.8795 17.0498 41.3564 16.9982 40.8149C16.9465 40.2735 15.7852 39.9148 14.4071 40.0176C13.0264 40.1204 11.9502 40.6436 12.0018 41.185C12.0508 41.7287 13.2122 42.0851 14.5929 41.9823Z" fill="url(#paint10_linear)"/>
<path d="M16.7955 36.8719C16.4607 38.2363 15.8319 39.1762 15.3939 38.9722C14.9539 38.768 14.8703 37.495 15.2051 36.128C15.5399 34.7637 16.1687 33.8237 16.6067 34.0279C17.0447 34.2346 17.1303 35.5076 16.7955 36.8719Z" fill="url(#paint11_linear)"/>
<path d="M18.795 38.872C18.4602 40.2363 17.8317 41.1763 17.3938 40.9721C16.9539 40.7681 16.8703 39.495 17.205 38.128C17.5398 36.7637 18.1683 35.8237 18.6062 36.0279C19.0461 36.2319 19.1297 37.5049 18.795 38.872Z" fill="url(#paint12_linear)"/>
<path d="M24.1297 49.9411C24.2506 49.8177 24.3535 49.6993 24.459 49.5733C24.5619 49.4473 24.6622 49.3212 24.7574 49.1901C24.9477 48.9277 25.1304 48.6551 25.3001 48.3721C25.6345 47.8063 25.9277 47.207 26.1669 46.5793C26.648 45.3241 26.9283 43.966 26.9875 42.5951C27.0158 41.9109 26.9952 41.2241 26.9335 40.5425C26.8923 40.2029 26.8589 39.8634 26.7946 39.5291L26.7509 39.277L26.7303 39.151L26.7046 39.0275L26.5966 38.5311C26.5785 38.4487 26.558 38.3665 26.5374 38.2841L26.4731 38.0398C26.4293 37.8777 26.3907 37.7106 26.3393 37.551C26.239 37.2295 26.1438 36.9055 26.0306 36.5968C25.8171 35.9717 25.5831 35.357 25.3439 34.7449C25.0995 34.1353 24.8474 33.5308 24.5799 32.934C24.3124 32.3399 24.0345 31.7508 23.7516 31.167C23.4686 30.5831 23.1832 30.0044 22.895 29.4282C22.6095 28.8521 22.324 28.2785 22.0565 27.6971C21.7889 27.1158 21.5343 26.5319 21.3157 25.9352C21.0944 25.3385 20.9118 24.7289 20.7729 24.1038C20.6366 23.4814 20.5517 22.8435 20.5157 22.2005C20.4822 21.5574 20.4977 20.9092 20.5543 20.261V20.2585C20.5645 20.1299 20.4822 20.0141 20.3665 20.0013C20.2559 19.9884 20.1581 20.0758 20.1401 20.1968C20.0449 20.8629 19.9909 21.5394 20.0013 22.221C20.0063 22.9001 20.0732 23.5843 20.1942 24.2504C20.315 24.9192 20.4925 25.5725 20.706 26.2053C20.9195 26.8381 21.1639 27.4554 21.4262 28.0546C21.951 29.2559 22.522 30.4133 23.0674 31.5785C23.6127 32.7437 24.1297 33.9192 24.6005 35.1153C24.832 35.7146 25.0583 36.319 25.2667 36.9311C25.3747 37.2373 25.4673 37.5382 25.5625 37.8417C25.6139 37.9935 25.65 38.1478 25.6911 38.3021L25.7528 38.5336C25.7734 38.6108 25.794 38.688 25.812 38.7651C25.9612 39.385 26.0641 40.0152 26.1464 40.6479C26.2158 41.2833 26.2467 41.9212 26.2287 42.5591C26.221 42.7185 26.2184 42.878 26.2107 43.0375L26.1747 43.5133L26.1181 43.9892C26.095 44.1461 26.0692 44.303 26.0435 44.4599C25.9329 45.0849 25.7811 45.7048 25.5779 46.3042C25.3722 46.9008 25.1304 47.4873 24.8397 48.0403C24.6956 48.3181 24.5413 48.5882 24.3741 48.8506C24.2918 48.9817 24.2069 49.1103 24.1169 49.2364C24.0294 49.3598 23.9343 49.4885 23.8442 49.5939L23.8365 49.6016C23.7567 49.6968 23.7619 49.846 23.8442 49.9334C23.9265 50.0209 24.05 50.0209 24.1297 49.9411Z" fill="url(#paint13_linear)"/>
<path d="M17.8115 25.1341C19.1383 26.0443 20.5226 26.2735 20.9027 25.6465C21.2829 25.0195 20.5155 23.7744 19.1862 22.8643C17.8593 21.9564 16.475 21.7271 16.0973 22.3519C15.7172 22.9789 16.4846 24.224 17.8115 25.1341Z" fill="url(#paint14_linear)"/>
<path d="M23.1104 23.8489C22.1909 25.4371 20.9499 26.346 20.337 25.8762C19.724 25.4064 19.9702 23.7392 20.8897 22.151C21.8091 20.563 23.0501 19.654 23.6631 20.1238C24.276 20.5911 24.0298 22.2609 23.1104 23.8489Z" fill="url(#paint15_linear)"/>
<path d="M21.9709 19.6389C21.8069 21.5698 21.0175 23.0725 20.2031 22.9973C19.3887 22.922 18.8661 21.2921 19.0301 19.3611C19.1941 17.4302 19.9835 15.9275 20.7979 16.0027C21.6068 16.0806 22.1321 17.7079 21.9709 19.6389Z" fill="url(#paint16_linear)"/>
<path d="M19.5264 29.6652C21.1628 30.1869 22.6991 30.0879 22.9622 29.4445C23.2226 28.8011 22.1098 27.8566 20.4735 27.3348C18.8372 26.813 17.3008 26.912 17.0377 27.5555C16.7773 28.1989 17.8927 29.1435 19.5264 29.6652Z" fill="url(#paint17_linear)"/>
<path d="M25.1103 27.8489C24.1909 29.4371 22.9499 30.346 22.337 29.8762C21.724 29.4064 21.9702 27.7392 22.8896 26.151C23.8091 24.563 25.05 23.654 25.6631 24.1238C26.276 24.5936 26.0298 26.2609 25.1103 27.8489Z" fill="url(#paint18_linear)"/>
<path d="M21.5265 33.5536C23.1628 34.2493 24.6992 34.1173 24.9622 33.2594C25.2226 32.4015 24.1098 31.1421 22.4735 30.4464C20.8372 29.7507 19.3009 29.8827 19.0378 30.7406C18.7774 31.5985 19.8902 32.8579 21.5265 33.5536Z" fill="url(#paint19_linear)"/>
<path d="M26.5464 30.596C25.9532 32.2204 25.003 33.269 24.425 32.9394C23.847 32.6098 23.86 31.0284 24.4553 29.404C25.0484 27.7796 25.9987 26.7309 26.5766 27.0606C27.1524 27.3902 27.1395 28.9716 26.5464 30.596Z" fill="url(#paint20_linear)"/>
<path d="M22.5264 38.5535C24.1628 39.2493 25.6991 39.1173 25.9622 38.2594C26.2226 37.4014 25.1098 36.142 23.4735 35.4464C21.8372 34.7507 20.3008 34.8827 20.0378 35.7406C19.7772 36.5985 20.8927 37.8579 22.5264 38.5535Z" fill="url(#paint21_linear)"/>
<path d="M28.3942 35.1954C27.6036 37.0905 26.3369 38.3139 25.5664 37.9293C24.7961 37.5448 24.8133 35.6998 25.6069 33.8047C26.3975 31.9095 27.6642 30.6861 28.4346 31.0707C29.205 31.4525 29.1848 33.3002 28.3942 35.1954Z" fill="url(#paint22_linear)"/>
<path d="M52 25.2854C52.3285 24.7442 66.5691 14 66.5691 14L69.7584 16.7864C70.6882 17.5995 71.1306 18.8166 70.9664 20.101L69.6657 30.2108L62.9427 63.5334C62.6514 64.981 61.6209 66.2784 60.2091 66.9827L56.1482 69L52 25.2854Z" fill="#97A6B7"/>
<path d="M64.6233 13.0079L30.5815 15.2147C28.8663 15.3256 27.2983 16.9516 27.0658 18.8442L25.6864 30.0523C25.6734 30.1474 25.6657 30.2424 25.6631 30.3375L24.0047 64.0304C23.9168 65.8334 25.0767 67.3301 26.6861 67.4752L54.5849 69.9856C56.4913 70.1572 58.2841 68.7819 58.6871 66.818L66.3695 29.4981C66.3902 29.3925 66.4083 29.2842 66.4212 29.1787L67.9712 16.6058C68.2294 14.4835 66.7235 12.8733 64.6233 13.0079Z" fill="url(#paint23_linear)"/>
<path d="M26.0608 66.5533C24.8363 66.448 23.9376 65.3127 24.0034 63.9692L25.6877 30.2719C25.6902 30.2008 25.6982 30.1296 25.706 30.0585L27.1144 18.8472C27.2931 17.4247 28.4992 16.2024 29.8103 16.1234L64.4261 14.0055C66.0263 13.908 67.1771 15.1197 66.9775 16.7056L65.4062 29.2208C65.3956 29.2999 65.3825 29.3815 65.3667 29.4606L57.5786 66.6113C57.2738 68.0707 55.8917 69.1138 54.4465 68.99L26.0608 66.5533Z" fill="#D8DEE8"/>
<path d="M58.372 19.005L34.1936 20.2122C32.247 20.3089 30.4738 22.1144 30.2139 24.2465L29.4827 30.2066C29.47 30.3136 29.4598 30.4208 29.4547 30.5253L28.005 60.5998C27.9081 62.6247 29.2254 64.297 31.0547 64.446L50.0153 65.9875C52.079 66.1548 54.0229 64.6262 54.4637 62.4653L61.1109 29.8956C61.1338 29.778 61.1541 29.6631 61.1669 29.5454L61.9669 23.0185C62.2548 20.6903 60.6319 18.8927 58.372 19.005Z" fill="white" fill-opacity="0.4"/>
<path d="M59.7216 17.899C50.5075 16.3244 41.4957 16.837 32.6704 19.2894C31.0183 19.7493 29.8179 21.5315 30.0228 23.2164L31.1707 32.7079C31.3361 34.0668 32.3631 35.0104 33.6816 34.9999L54.1768 34.8711C55.6661 34.8606 57.1107 33.8329 57.6833 32.3635L61.7492 21.9336C62.4821 20.0517 61.5496 18.2117 59.7216 17.899Z" fill="#D8DEE8"/>
<path d="M34.2574 32.9999C33.6795 33.0075 33.2254 32.6002 33.1532 32.0121L32.0103 22.781C31.9664 22.4297 32.0644 22.058 32.2837 21.7347C32.5056 21.4089 32.8229 21.1797 33.1764 21.083C37.3274 19.9654 41.5766 19.2831 45.8051 19.0718C50.1367 18.8554 54.5793 19.1278 59.0065 19.8966C59.3934 19.9628 59.6979 20.1843 59.8681 20.5153C60.0359 20.8462 60.0436 21.2434 59.8913 21.6329L55.9286 31.6939C55.6809 32.3252 55.0514 32.7683 54.4013 32.7759L34.2574 32.9999Z" fill="white"/>
<path d="M44.77 27.5511C47.0196 27.4906 48.9896 28.3262 50.4083 29.7608L56 23.7726C53.3698 21.2422 49.7663 19.8233 45.7045 20.0177C41.7334 20.2096 37.9849 21.9122 35 24.5372L38.746 30C40.4338 28.5364 42.5488 27.6114 44.77 27.5511Z" fill="url(#paint24_linear)"/>
<path d="M45.4448 32.98L43 33L45.7389 23.0973C45.7752 22.9727 46.0065 22.9652 45.9999 23.0899L45.4448 32.98Z" fill="url(#paint25_linear)"/>
<path d="M36.0272 65.8286C35.8527 65.884 35.6652 65.9104 35.4699 65.8998C34.6628 65.8576 34.0093 65.2006 33.9624 64.3827C33.9285 63.7838 34.2175 63.2508 34.6706 62.9447C34.9076 62.7838 34.9856 62.4698 34.8555 62.2139C33.6005 59.7627 32.2101 57.1427 31.0566 55.2166C28.6065 51.1216 25.6877 46.5386 24.654 44.9238C24.4118 44.5465 24.0056 44.317 23.563 44.3064L10.4766 44.0003C9.96884 43.9898 9.4923 44.2457 9.21898 44.6784C7.97175 46.6467 4.44627 52.6308 2.20184 60.6017C1.34 63.6624 3.32926 66.7943 6.43294 67.2877L23.5005 70L37.4879 69.2111C37.8758 69.1901 38.1153 68.7732 37.9435 68.4222C37.6884 67.8919 37.3056 67.1109 36.8421 66.1716C36.6937 65.8682 36.3474 65.7257 36.0272 65.8286Z" fill="url(#paint26_linear)"/>
<path d="M16.7288 53.5507C14.8548 50.5616 12.511 46.9209 11.5009 45.359C11.2895 45.0292 11.5244 44.5939 11.9133 44.5992C14.4529 44.6335 21.6383 44.7312 24.9608 44.8287L24.9556 44.8182C24.7546 44.5069 24.4154 44.3143 24.0499 44.3064L10.8119 44.0003C10.3029 43.9898 9.8253 44.2457 9.55123 44.6783C8.22792 46.7652 4.33636 53.3581 2.12828 62.0511C1.53841 64.37 3.0444 66.6969 5.38298 67.069L23.8646 70L25 69.9367C24.0577 65.4042 21.5991 61.1672 21.3851 60.8084C21.1189 60.36 19.1848 57.4737 16.7288 53.5507Z" fill="white" fill-opacity="0.4"/>
<path d="M25 61C26.1046 61 27 60.1046 27 59C27 57.8954 26.1046 57 25 57C23.8954 57 23 57.8954 23 59C23 60.1046 23.8954 61 25 61Z" fill="url(#paint27_linear)"/>
<path d="M24.4365 58C23.7923 58 23.2422 58.4322 23 59.0522C23.1952 60.1638 24.0557 61 25.0878 61C25.257 61 25.4216 60.9781 25.5791 60.9342C25.8401 60.6211 26 60.2046 26 59.7442C26 58.7797 25.3017 58 24.4365 58Z" fill="url(#paint28_linear)"/>
<path d="M16.4618 50.0218C16.084 50.1193 16.0181 50.5334 16.009 50.5971C15.8981 51.2957 16.8367 52.074 17.3885 51.9944C17.8413 51.9306 18.1652 51.2778 17.9102 50.7703C17.6764 50.3045 16.9236 49.9004 16.4618 50.0218Z" fill="url(#paint29_linear)"/>
<path d="M20.2104 45.5103C19.8178 46.0937 20.0333 47.175 20.378 47.8203C20.8378 48.6895 21.7906 49.2699 22.7029 48.8722C23.5097 48.5216 24.1155 47.4815 23.9813 46.683C23.7347 45.2128 20.9479 44.4142 20.2104 45.5103Z" fill="url(#paint30_linear)"/>
<path d="M10.592 50.0447C10.1645 50.0961 8.71268 50.2736 8.18844 51.3282C7.62117 52.4728 8.38739 54.1551 9.78001 54.7622C11.2425 55.4001 13.0143 54.685 13.6811 53.4477C14.0359 52.7918 14.1838 51.786 13.6487 50.999C12.8153 49.7746 10.9549 50.0009 10.592 50.0447Z" fill="url(#paint31_linear)"/>
<path d="M13.628 51.0137C13.0837 50.2442 12.129 50.0341 11.3823 50C10.9407 50.2416 10.479 50.604 10.2196 51.137C9.67247 52.261 10.1569 53.8577 11.5704 55C12.4653 54.7873 13.2547 54.2385 13.6593 53.5137C14.0384 52.844 14.1951 51.8199 13.628 51.0137Z" fill="url(#paint32_linear)"/>
<path d="M16.0406 50C16.0203 50.0944 16.0117 50.1695 16.0087 50.1972C15.9306 50.9083 16.3909 51.6778 16.854 52C17.3344 50.8917 16.5153 50.2583 16.0406 50Z" fill="url(#paint33_linear)"/>
<path d="M23 47.7191C23 46.7695 22.2355 46 21.2929 46C20.7765 46 20.3142 46.232 20 46.5976C20.012 47.056 20.1441 47.5527 20.3142 47.9074C20.6985 48.7124 21.495 49.25 22.2575 48.8816C22.4937 48.7697 22.7078 48.576 22.8839 48.344C22.96 48.1502 23 47.9402 23 47.7191Z" fill="url(#paint34_linear)"/>
<path d="M7.29639 58.0272C7.08311 58.0592 6.35662 58.1651 6.09447 58.7976C5.8101 59.4844 6.19444 60.4936 6.88983 60.8579C7.62076 61.2394 8.50719 60.8111 8.84049 60.0702C9.01819 59.6764 9.0915 59.0733 8.82488 58.6008C8.40945 57.8648 7.47857 58.0001 7.29639 58.0272Z" fill="url(#paint35_linear)"/>
<path d="M8.81355 58.6086C8.5429 58.1459 8.06274 58.0201 7.69082 58C7.46957 58.1459 7.2389 58.3621 7.10945 58.6815C6.83642 59.3554 7.07885 60.316 7.78498 61C8.23222 60.8718 8.62761 60.5423 8.83002 60.1073C9.01836 59.7075 9.09835 59.0914 8.81355 58.6086Z" fill="url(#paint36_linear)"/>
<path d="M53.9668 38.2295L53.4611 38.2326C52.7832 38.6888 51.4885 39 50.0003 39C48.5149 39 47.2201 38.6918 46.5396 38.2326H46.0339V38.2295C45.9836 38.003 45.9942 37.6797 46.0339 37.4502V37.3263H46.0604C46.2881 36.58 47.9641 36 49.9977 36C52.0312 36 53.7073 36.58 53.935 37.3263C53.935 37.3292 53.9377 37.3353 53.9377 37.3384C53.9403 37.3444 53.9403 37.3534 53.943 37.3595C54.0039 37.5891 54.0224 37.9697 53.9668 38.2295Z" fill="url(#paint37_linear)"/>
<path d="M50 39C52.2092 39 54 38.5523 54 38C54 37.4477 52.2092 37 50 37C47.7909 37 46 37.4477 46 38C46 38.5523 47.7909 39 50 39Z" fill="url(#paint38_linear)"/>
<path d="M46.4417 38L45.1727 38.8992C45.0851 38.9604 45.024 39.0678 45.0057 39.1904C44.9874 39.313 45.0138 39.4407 45.077 39.5378C45.4253 40.0717 46.0893 40.953 46.678 40.9989C47.5213 41.0654 46.4417 38 46.4417 38Z" fill="url(#paint39_linear)"/>
<path d="M55.0724 50.8247C54.0965 50.4743 53.4486 49.5521 53.4486 48.5193V37.9195H53.4089C53.4142 37.8984 53.4195 37.88 53.4195 37.859C53.4195 37.3847 51.8856 37 49.9947 37C48.1037 37 46.5699 37.3847 46.5699 37.859C46.5699 37.88 46.5726 37.8984 46.5805 37.9195H46.5487V48.5193C46.5487 49.5521 45.9008 50.4743 44.925 50.8247C38.5752 53.0985 34 59.3429 34 65.0946C34 72.2929 41.1642 76 50 76C58.8357 76 66 72.2929 66 65.0946C66 59.3403 61.4221 53.0985 55.0724 50.8247Z" fill="white"/>
<path d="M49.5 76C47.3167 76 45.2604 75.7704 43.3867 75.314C41.492 74.8522 39.83 74.1714 38.4512 73.2905C37.0328 72.3856 35.9345 71.2805 35.1856 70.0071C34.3969 68.6672 34 67.1402 34 65.4665C34 62.7277 35.0585 59.8021 36.9798 57.2261C38.9408 54.5993 41.6428 52.5627 44.5935 51.4948C45.7686 51.0677 46.5571 49.9359 46.5571 48.6733L46.6181 37.4458C46.933 37.267 47.9466 37 49.4974 37C51.0481 37 52.0617 37.267 52.3767 37.4458L52.4428 48.6733C52.4428 49.9333 53.2314 51.0677 54.4064 51.4948C57.3545 52.5653 60.0592 54.5993 62.0202 57.2261C63.9415 59.8021 65 62.7277 65 65.4665C65 67.1402 64.6004 68.6672 63.8144 70.0071C63.0655 71.2805 61.9672 72.3856 60.5487 73.2905C59.17 74.1714 57.5081 74.8522 55.6132 75.314C53.7422 75.7704 51.6859 76 49.5 76Z" fill="url(#paint40_linear)"/>
<path d="M62.2748 46.1051C61.1275 43.4977 58.7635 41.8108 55.4425 41.2216C54.0457 40.9737 52.7775 40.9788 51.9544 41.0244C51.9286 41.0269 51.9029 41.0269 51.8798 41.0294C51.7408 41.0471 51.6148 41.1205 51.5016 41.2393C51.3524 41.3911 51.2289 41.6136 51.144 41.8842V41.8867H51.1415C51.0514 42.1447 51 42.4836 51 42.83C51 43.6065 51.2572 44.2665 51.6225 44.5219C51.7125 44.5826 51.8077 44.6282 51.9055 44.6282C51.9209 44.6282 51.9337 44.6307 51.9492 44.6307C51.9647 44.6307 51.9826 44.6282 51.9981 44.6282H52.0006C53.2226 44.5422 57.2587 44.4385 58.5809 47.4353C59.8876 50.4044 58.0509 52.7387 56.24 54.1903L56.2374 54.1928C56.1088 54.2232 56.0008 54.2788 55.9261 54.3699C55.5943 54.772 56.0059 55.6394 56.8445 56.307C57.5159 56.8432 58.2542 57.086 58.6941 56.9596L58.7327 57L58.7712 56.9697C62.6812 53.8868 63.9572 49.9264 62.2748 46.1051Z" fill="url(#paint41_linear)"/>
<path d="M49.5 59C54.7467 59 59 58.3284 59 57.5C59 56.6716 54.7467 56 49.5 56C44.2533 56 40 56.6716 40 57.5C40 58.3284 44.2533 59 49.5 59Z" fill="url(#paint42_linear)"/>
<path d="M59.4872 57.7186L50.2801 57.1045L50.2748 57L49.5 57.051L48.7252 57L48.7199 57.1045L39.5128 57.7186C39.5128 57.7186 29.9623 71.2075 48.0995 72.9328C49.0155 73.0194 49.9686 73.0245 50.8846 72.9353C50.8898 72.9353 50.8951 72.9353 50.9005 72.9353C69.0377 71.1743 59.4872 57.7186 59.4872 57.7186Z" fill="url(#paint43_linear)"/>
<path d="M65.9974 64.7647C65.9974 64.7435 65.9947 64.725 65.9947 64.7039C65.9921 64.6219 65.9894 64.54 65.9841 64.4554C65.9841 64.4396 65.9815 64.4263 65.9815 64.4105C65.9762 64.3206 65.9709 64.2281 65.963 64.1383C65.963 64.1303 65.963 64.125 65.9603 64.1171C65.9524 64.0167 65.9418 63.9162 65.9312 63.8185C63.4506 66.5883 58.2698 71.2664 51.3858 71.2453C49.598 71.24 45.9088 71.2268 43.0711 68.4755C41.3547 66.8104 39.2125 63.43 40.2466 60.6363C41.8148 56.3996 49.4446 56.8859 49.9735 53.3734C50.2142 51.7743 48.6645 51.4916 48.2995 48.7217C47.9002 45.669 49.5795 44.4559 49.5557 41.6675C49.5478 40.8192 48.966 38.6043 48.2492 37C47.2443 37.1507 46.5725 37.4256 46.5725 37.7401C46.5725 37.7612 46.5752 37.7797 46.5831 37.8008H46.5513V48.4336C46.5513 48.8856 46.4271 49.319 46.205 49.6917C46.1891 49.7181 46.1732 49.7445 46.1547 49.771C46.1203 49.8238 46.0859 49.8741 46.0489 49.9216C45.9563 50.0458 45.8506 50.1595 45.7342 50.2626C45.6892 50.3049 45.639 50.3445 45.5914 50.3815C45.5676 50.4 45.5411 50.4185 45.5147 50.437C45.3349 50.5639 45.1391 50.6669 44.9249 50.7436C38.5752 53.0245 34 59.2884 34 65.058C34 65.51 34.0291 65.946 34.082 66.3716C34.1375 66.7945 34.2168 67.2068 34.3253 67.6032C34.3782 67.8014 34.439 67.997 34.5051 68.1873C34.6373 68.5706 34.7933 68.9379 34.9732 69.2948C35.3778 70.093 35.8988 70.8224 36.5229 71.4779C37.0783 72.062 37.713 72.5905 38.4191 73.0637C38.5064 73.1218 38.5964 73.18 38.6862 73.2381C41.5821 75.0697 45.5808 76 50 76C54.4191 76 58.4178 75.0697 61.3137 73.2381C61.4036 73.18 61.4935 73.1218 61.5808 73.0637C62.2869 72.5905 62.9243 72.062 63.477 71.4779C64.1012 70.8198 64.6222 70.093 65.0268 69.2948C65.2066 68.9406 65.3626 68.5706 65.4949 68.1873C65.561 67.997 65.6191 67.8014 65.6747 67.6032C65.7805 67.2068 65.8625 66.7971 65.918 66.3716C65.9735 65.9487 66 65.51 66 65.058C66 64.9629 66 64.8625 65.9974 64.7647Z" fill="white" fill-opacity="0.4"/>
<path d="M28 62.4715C28 66.0598 25.7613 68 23 68C20.2387 68 18 66.0626 18 62.4715C18 58.8803 20.2387 55 23 55C25.7613 55 28 58.8803 28 62.4715Z" fill="url(#paint44_linear)"/>
<g opacity="0.6">
<path opacity="0.6" d="M24.8384 64.3726C24.2496 64.1478 24.2548 63.4267 23.059 61.9923C21.9492 60.6624 21.2953 60.5056 20.8837 59.9099C20.4434 59.275 20.2871 58.1594 21.1911 56.0561C19.4613 57.2658 18.2472 59.9961 18.2472 62.5671C18.2472 66.0029 20.4121 67.8606 23.0825 67.8606C25.7528 67.8606 27.9178 66.0055 27.9178 62.5671C27.9178 62.5619 27.9178 62.5567 27.9178 62.5514C26.2791 64.3202 25.3751 64.579 24.8384 64.3726Z" fill="url(#paint45_linear)"/>
</g>
<path d="M18 62.4715C18 66.0598 15.7613 68 13 68C10.2387 68 8 66.0626 8 62.4715C8 58.8803 10.2387 55 13 55C15.7613 55 18 58.8803 18 62.4715Z" fill="url(#paint46_linear)"/>
<g opacity="0.6">
<path opacity="0.6" d="M14.9121 64.3726C14.3233 64.1478 14.3286 63.4267 13.1328 61.9923C12.023 60.6624 11.369 60.5056 10.9574 59.9099C10.5171 59.275 10.3608 58.1594 11.2648 56.0561C9.535 57.2658 8.32092 59.9961 8.32092 62.5671C8.32092 66.0029 10.4859 67.8606 13.1562 67.8606C15.8265 67.8606 17.9915 66.0055 17.9915 62.5671C17.9915 62.5619 17.9915 62.5567 17.9915 62.5514C16.3528 64.3202 15.4488 64.579 14.9121 64.3726Z" fill="url(#paint47_linear)"/>
</g>
<path d="M0 65.2227L10.0143 70L35 65.6011L24.2285 65L0 65.2227Z" fill="url(#paint48_linear)"/>
<path d="M32 63.4715C32 67.0598 29.9852 69 27.5 69C25.0148 69 23 67.0625 23 63.4715C23 59.8803 25.0148 56 27.5 56C29.9852 56 32 59.8831 32 63.4715Z" fill="white"/>
<g opacity="0.6">
<path opacity="0.6" d="M29.3238 65.415C28.735 65.1903 28.7402 64.4692 27.5445 63.0348C26.4346 61.7049 25.7807 61.5481 25.3691 60.9523C24.9288 60.3174 24.7725 59.2018 25.6765 57.0985C23.9467 58.3082 22.7326 61.0385 22.7326 63.6096C22.7326 67.0454 24.8976 68.9031 27.5679 68.9031C30.2382 68.9031 32.4032 67.048 32.4032 63.6096C32.4032 63.6043 32.4032 63.5991 32.4032 63.5939C30.7671 65.3628 29.8605 65.6214 29.3238 65.415Z" fill="url(#paint49_linear)"/>
</g>
<path d="M22 63.4715C22 67.0598 19.9852 69 17.5 69C15.0148 69 13 67.0625 13 63.4715C13 59.8803 15.0148 56 17.5 56C19.9852 56 22 59.8831 22 63.4715Z" fill="white"/>
<g opacity="0.6">
<path opacity="0.6" d="M19.3975 65.415C18.8087 65.1903 18.814 64.4692 17.6182 63.0348C16.5084 61.7049 15.8544 61.5481 15.4428 60.9523C15.0025 60.3174 14.8462 59.2018 15.7502 57.0985C14.0203 58.3082 12.8063 61.0385 12.8063 63.6096C12.8063 67.0454 14.9713 68.9031 17.6416 68.9031C20.312 68.9031 22.4769 67.048 22.4769 63.6096C22.4769 63.6043 22.4769 63.5991 22.4769 63.5939C20.8382 65.3628 19.9342 65.6214 19.3975 65.415Z" fill="url(#paint50_linear)"/>
</g>
<path d="M13 63.4715C13 67.0598 10.7613 69 7.99998 69C5.23868 69 3 67.0625 3 63.4715C3 59.8803 5.23868 56 7.99998 56C10.7613 56.0028 13 59.8831 13 63.4715Z" fill="white"/>
<g opacity="0.6">
<path opacity="0.6" d="M9.46885 65.415C8.88007 65.1903 8.88529 64.4692 7.68947 63.0348C6.57964 61.7049 5.92573 61.5481 5.51411 60.9523C5.07383 60.3174 4.91751 59.2018 5.82153 57.0985C4.09166 58.3082 2.87762 61.0385 2.87762 63.6096C2.87762 67.0454 5.04256 68.9031 7.71291 68.9031C10.3833 68.9031 12.5482 67.048 12.5482 63.6096C12.5482 63.6043 12.5482 63.5991 12.5482 63.5939C10.9095 65.3628 10.0055 65.6214 9.46885 65.415Z" fill="url(#paint51_linear)"/>
</g>
<path d="M0.349599 65.0024C0.136218 64.9752 -0.0365198 65.182 0.00666456 65.4052L0.971964 70.2605C1.14216 71.0688 1.71625 71.7112 2.46309 71.9262L10 74L7.82303 65.925L0.349599 65.0024Z" fill="url(#paint52_linear)"/>
<path d="M31.606 72.632L10.9569 73.9965C10.1162 74.0526 9.3665 73.4249 9.21035 72.5312L8 65.5604L34.7399 65C34.9143 64.9972 35.0419 65.1793 34.9872 65.3586L33.1443 71.3516C32.9231 72.0801 32.314 72.5844 31.606 72.632Z" fill="url(#paint53_linear)"/>
<path d="M35.3256 67.3037C34.9636 66.4072 34.4566 65.5745 33.7674 64.8837C33.0833 64.1979 32.2243 63.7349 31.3029 63.4386C28.9682 62.6866 26.1115 62.9096 23.9566 64.046C21.1824 65.5671 20.221 67.3747 20.0337 69.3195C19.8589 71.1369 20.3658 72.9029 21.5095 74.3504C22.0738 75.0656 22.768 75.6731 23.572 76.1213C24.426 76.5965 25.3998 76.8464 26.3712 76.9394C29.7747 77.2652 34.4291 76.3369 35.6677 72.6947C36.262 70.9459 36.0048 68.9888 35.3256 67.3037Z" fill="url(#paint54_linear)"/>
<path opacity="0.25" d="M34.4601 73.3755C33.7973 73.0309 33.8636 72.0659 33.3334 71.6523C32.2731 70.825 30.8153 71.7901 29.5562 71.928C27.3693 72.1348 25.58 70.6872 24.3897 68.9639C23.3957 67.5163 24.0584 65.6552 24.5222 64.0722C24.6375 63.6944 24.7849 63.3395 24.9591 63C24.5885 63.1404 24.2277 63.3063 23.889 63.4978C21.1622 65.0832 20.2172 66.9674 20.0331 68.9946C19.8613 70.8889 20.3596 72.7296 21.4837 74.2384C22.0384 74.9839 22.7207 75.6171 23.511 76.0843C24.3504 76.5796 25.3076 76.84 26.2624 76.937C29.3107 77.2459 33.3825 76.4699 35 73.4547C34.8159 73.4598 34.6343 73.4343 34.4601 73.3755Z" fill="url(#paint55_linear)"/>
<path d="M35.3289 67.4661C34.9685 66.5357 34.464 65.6713 33.7782 64.9545C33.0973 64.2427 32.2424 63.7622 31.3254 63.4546C29.3771 62.8013 27.0611 62.8572 25.1003 63.5894C24.9264 63.9275 24.7747 64.2834 24.658 64.6571C24.1883 66.2358 23.5174 68.089 24.5238 69.5278C25.7315 71.2437 27.5431 72.6851 29.7549 72.4792C31.0297 72.3419 32.5058 71.381 33.5794 72.2047C34.1162 72.6164 34.049 73.5774 34.72 73.9206C34.8939 73.9791 35.0803 74.0045 35.2642 73.9994C35.4233 73.7071 35.5599 73.3969 35.6693 73.0613C36.2608 71.2463 36.0048 69.2151 35.3289 67.4661Z" fill="url(#paint56_linear)"/>
<path d="M24 65.9513C24 65.9513 24.8273 65.1958 26.0544 65.1037C27.6592 64.98 28.1784 65.6749 28.1784 65.6749C28.1784 65.6749 28.3672 65.3985 27.1823 64.0614C25.9973 62.7241 26.6159 61 26.6159 61C26.6159 61 26.9363 62.2951 27.4704 63.1137C28.0045 63.9323 28.8864 63.7928 29.2342 65.0431C29.2342 65.0431 29.9397 64.2298 29.7037 63.4559C29.4677 62.682 29.7932 61.5159 29.7932 61.5159C29.7932 61.5159 29.9322 62.3557 30.6651 63.3532C31.4004 64.3509 30.5955 65.5775 30.3397 65.9276C30.3397 65.9276 31.0427 65.3933 32.1382 66.0066C33.2363 66.6199 35 65.3275 35 65.3275C35 65.3275 34.1479 66.6805 33.1642 66.8384C31.1446 67.3227 30.1633 66.6989 30.1633 66.6989C30.1633 66.6989 29.8056 66.9673 31.075 67.9965C32.3469 69.0284 31.0278 70.6551 31.0278 70.6551C31.0278 70.6551 31.0154 69.0784 30.0937 68.3467C29.1721 67.6175 28.792 67.2385 28.792 67.2385C28.792 67.2385 26.586 67.6043 26.8071 69.1258C26.9885 70.0445 27.5623 71 27.5623 71C27.5623 71 25.719 70.2656 25.8159 68.8863C25.9128 67.507 27.5574 66.5436 27.5574 66.5436C27.5574 66.5436 26.8221 66.0197 25.9699 65.9013C25.1229 65.7855 24 65.9513 24 65.9513Z" fill="url(#paint57_linear)"/>
<path d="M29 65.6295C29 65.6295 30.9858 62.57 33.4906 62C34.1358 62.2722 33.9846 62.9539 33.9846 62.9539C33.9846 62.9539 30.9631 64.1986 29.8896 65.7667C29.4511 66.3623 29 65.6295 29 65.6295Z" fill="url(#paint58_linear)"/>
<path d="M61.8155 71.0025C61.9058 71.0051 61.9856 71.0714 61.9985 71.1632C62.0114 71.2652 61.9393 71.3595 61.8362 71.3722C61.7305 71.385 51.1203 72.7721 46.2675 74.9827C46.1747 75.0261 46.0613 74.9852 46.0175 74.8908C45.9737 74.7966 46.0149 74.6869 46.1103 74.6435C51.0147 72.4075 61.679 71.0153 61.7872 71C61.7975 71.0025 61.8052 71.0025 61.8155 71.0025Z" fill="url(#paint59_linear)"/>
<path d="M48.0407 73.3727C48.3064 72.8348 49.782 73.0374 49.782 73.0374C55.3914 72.7597 57 77.6659 57 77.6659C53.0669 79.2746 48.5831 74.551 48.5831 74.551C48.0352 73.9731 47.9268 73.6053 48.0407 73.3727Z" fill="url(#paint60_linear)"/>
<path opacity="0.4" d="M48.0407 74C51.4665 75.3949 57 77.7112 57 77.7112C53.0669 79.1018 48.5831 75.0186 48.5831 75.0186C48.0352 74.519 47.9268 74.2011 48.0407 74Z" fill="url(#paint61_linear)"/>
<path d="M48.2217 73.9144C47.744 73.5473 48.187 72.1463 48.187 72.1463C48.8577 66.602 53.8966 66 53.8966 66C54.8024 70.165 49.4591 73.6147 49.4591 73.6147C48.8033 74.0358 48.4271 74.0709 48.2217 73.9144Z" fill="url(#paint62_linear)"/>
<path opacity="0.4" d="M48 73.9144C50.2255 70.8804 53.8926 66 53.8926 66C54.8332 70.165 49.2849 73.6147 49.2849 73.6147C48.6039 74.0358 48.2133 74.0709 48 73.9144Z" fill="url(#paint63_linear)"/>
<path d="M57.0325 72.2976C57.2382 71.8675 58.3868 72.0302 58.3868 72.0302C62.7485 71.8094 64 75.7332 64 75.7332C60.9436 77.0187 57.4586 73.2413 57.4586 73.2413C57.0276 72.7764 56.9419 72.4835 57.0325 72.2976Z" fill="url(#paint64_linear)"/>
<path opacity="0.4" d="M57.0325 72C59.6981 73.3972 64 75.7116 64 75.7116C60.9426 77.1012 57.4564 73.0177 57.4564 73.0177C57.0276 72.5176 56.9419 72.201 57.0325 72Z" fill="url(#paint65_linear)"/>
<path d="M57.1845 71.9229C56.7868 71.602 57.1558 70.3759 57.1558 70.3759C57.714 65.5266 61.9139 65 61.9139 65C62.6686 68.6452 58.2148 71.6623 58.2148 71.6623C57.6685 72.0326 57.3546 72.0628 57.1845 71.9229Z" fill="url(#paint66_linear)"/>
<path opacity="0.4" d="M57 71.9231C58.8558 69.2718 61.9106 65 61.9106 65C62.6942 68.6438 58.0697 71.6598 58.0697 71.6598C57.5025 72.0327 57.1766 72.0629 57 71.9231Z" fill="url(#paint67_linear)"/>
<path d="M61.0142 71.3074C60.8683 70.7127 61.8927 69.941 61.8927 69.941C65.1864 66.1715 69 69.0535 69 69.0535C67.5043 72.817 62.0259 71.9021 62.0259 71.9021C61.3574 71.7861 61.0757 71.5635 61.0142 71.3074Z" fill="url(#paint68_linear)"/>
<path opacity="0.4" d="M61 71.2979C64.0455 70.3973 69 69 69 69C67.5016 72.8319 62.0135 71.9003 62.0135 71.9003C61.3438 71.7854 61.0616 71.5587 61 71.2979Z" fill="url(#paint69_linear)"/>
<path d="M38.037 72.0514C39.9527 71.7745 41.7117 72.6445 41.969 73.9961C42.2238 75.3475 40.8786 76.6688 38.963 76.948C37.0473 77.2271 35.2883 76.3548 35.031 75.0033C34.7762 73.6518 36.1214 72.3282 38.037 72.0514Z" fill="url(#paint70_linear)"/>
<path opacity="0.3" d="M38.9364 75.7203C37.2816 75.9832 35.7464 75.5059 35 74.6049C35.0053 74.6739 35.0133 74.7402 35.0239 74.8092C35.2789 76.2921 37.0399 77.2492 38.9603 76.9429C40.7504 76.6596 42.0439 75.3758 41.9989 74C41.4198 74.8346 40.3016 75.5033 38.9364 75.7203Z" fill="url(#paint71_linear)"/>
<path d="M37.8392 72.0572C39.1054 71.7881 40.0845 72.5323 39.9942 72.969C39.9149 73.4196 39.0371 73.4895 38.0553 73.7095C37.0681 73.9017 36.2203 74.2021 36.0316 73.8039C35.8347 73.4301 36.5731 72.3226 37.8392 72.0572Z" fill="white"/>
<path d="M46.4428 77.938C44.8364 79.3248 42.662 79.3574 41.5891 78.0122C40.5161 76.664 40.9499 74.4488 42.5564 73.062C44.1629 71.6752 46.3373 71.6426 47.4102 72.9878C48.4831 74.336 48.0522 76.5512 46.4428 77.938Z" fill="url(#paint72_linear)"/>
<path opacity="0.3" d="M46.793 77.3248C45.1963 78.8913 42.9503 78.8075 41.7762 77.1335C41.3452 76.5197 41.1182 75.7749 41.087 75C40.8829 76.0467 41.0332 77.0966 41.5862 77.8816C42.6525 79.4046 44.8135 79.3677 46.4101 77.7977C46.6285 77.5831 46.8242 77.3516 47 77.1034C46.9347 77.1805 46.8667 77.2543 46.793 77.3248Z" fill="url(#paint73_linear)"/>
<path opacity="0.3" d="M42.9393 73.7289C43.8524 72.8536 44.9042 72.8711 44.99 73.237C45.0909 73.6059 44.4123 74.127 43.7086 74.8148C42.9897 75.4822 42.4197 76.1555 42.1271 75.9682C41.8345 75.7985 42.0237 74.6012 42.9393 73.7289Z" fill="white"/>
</g>
<defs>
<linearGradient id="paint0_linear" x1="26.9994" y1="43.9978" x2="3.99937" y2="43.9978" gradientUnits="userSpaceOnUse">
<stop stop-color="#FFC444"/>
<stop offset="0.3138" stop-color="#FBA94A"/>
<stop offset="0.9964" stop-color="#F36F56"/>
</linearGradient>
<linearGradient id="paint1_linear" x1="15.0074" y1="45.7747" x2="13.695" y2="55.3838" gradientUnits="userSpaceOnUse">
<stop stop-color="#FFC444"/>
<stop offset="0.3138" stop-color="#FBA94A"/>
<stop offset="0.9964" stop-color="#F36F56"/>
</linearGradient>
<linearGradient id="paint2_linear" x1="11.6429" y1="28.7705" x2="13.6174" y2="33.3415" gradientUnits="userSpaceOnUse">
<stop stop-color="#FFC444"/>
<stop offset="0.3138" stop-color="#FBA94A"/>
<stop offset="0.9964" stop-color="#F36F56"/>
</linearGradient>
<linearGradient id="paint3_linear" x1="19.2067" y1="31.5458" x2="25.5915" y2="48.5427" gradientUnits="userSpaceOnUse">
<stop stop-color="#FFC444"/>
<stop offset="0.3138" stop-color="#FBA94A"/>
<stop offset="0.9964" stop-color="#F36F56"/>
</linearGradient>
<linearGradient id="paint4_linear" x1="16.4003" y1="28.2414" x2="12.9036" y2="28.7508" gradientUnits="userSpaceOnUse">
<stop stop-color="#FFC444"/>
<stop offset="0.3138" stop-color="#FBA94A"/>
<stop offset="0.9964" stop-color="#F36F56"/>
</linearGradient>
<linearGradient id="paint5_linear" x1="11.2364" y1="28.7507" x2="16.846" y2="36.0732" gradientUnits="userSpaceOnUse">
<stop stop-color="#FFC444"/>
<stop offset="0.3138" stop-color="#FBA94A"/>
<stop offset="0.9964" stop-color="#F36F56"/>
</linearGradient>
<linearGradient id="paint6_linear" x1="10.236" y1="32.9639" x2="18.1056" y2="36.701" gradientUnits="userSpaceOnUse">
<stop stop-color="#FFC444"/>
<stop offset="0.3138" stop-color="#FBA94A"/>
<stop offset="0.9964" stop-color="#F36F56"/>
</linearGradient>
<linearGradient id="paint7_linear" x1="16.78" y1="28.7712" x2="10.8705" y2="35.7841" gradientUnits="userSpaceOnUse">
<stop stop-color="#FFC444"/>
<stop offset="0.3138" stop-color="#FBA94A"/>
<stop offset="0.9964" stop-color="#F36F56"/>
</linearGradient>
<linearGradient id="paint8_linear" x1="15.7956" y1="31.8" x2="9.52612" y2="38.36" gradientUnits="userSpaceOnUse">
<stop stop-color="#FFC444"/>
<stop offset="0.3138" stop-color="#FBA94A"/>
<stop offset="0.9964" stop-color="#F36F56"/>
</linearGradient>
<linearGradient id="paint9_linear" x1="11.2875" y1="37.0664" x2="18.6986" y2="38.3548" gradientUnits="userSpaceOnUse">
<stop stop-color="#FFC444"/>
<stop offset="0.3138" stop-color="#FBA94A"/>
<stop offset="0.9964" stop-color="#F36F56"/>
</linearGradient>
<linearGradient id="paint10_linear" x1="12.5561" y1="41.5392" x2="20.6618" y2="38.6736" gradientUnits="userSpaceOnUse">
<stop stop-color="#FFC444"/>
<stop offset="0.3138" stop-color="#FBA94A"/>
<stop offset="0.9964" stop-color="#F36F56"/>
</linearGradient>
<linearGradient id="paint11_linear" x1="16.7974" y1="34.6892" x2="11.5788" y2="40.9107" gradientUnits="userSpaceOnUse">
<stop stop-color="#FFC444"/>
<stop offset="0.3138" stop-color="#FBA94A"/>
<stop offset="0.9964" stop-color="#F36F56"/>
</linearGradient>
<linearGradient id="paint12_linear" x1="18.7972" y1="36.6882" x2="13.5782" y2="42.9081" gradientUnits="userSpaceOnUse">
<stop stop-color="#FFC444"/>
<stop offset="0.3138" stop-color="#FBA94A"/>
<stop offset="0.9964" stop-color="#F36F56"/>
</linearGradient>
<linearGradient id="paint13_linear" x1="16.1261" y1="45.8081" x2="28.4062" y2="24.307" gradientUnits="userSpaceOnUse">
<stop stop-color="#FFC444"/>
<stop offset="0.3138" stop-color="#FBA94A"/>
<stop offset="0.9964" stop-color="#F36F56"/>
</linearGradient>
<linearGradient id="paint14_linear" x1="12.2003" y1="21.818" x2="21.5835" y2="25.4953" gradientUnits="userSpaceOnUse">
<stop stop-color="#FFC444"/>
<stop offset="0.3138" stop-color="#FBA94A"/>
<stop offset="0.9964" stop-color="#F36F56"/>
</linearGradient>
<linearGradient id="paint15_linear" x1="23.8926" y1="21.1546" x2="15.6793" y2="28.9072" gradientUnits="userSpaceOnUse">
<stop stop-color="#FFC444"/>
<stop offset="0.3138" stop-color="#FBA94A"/>
<stop offset="0.9964" stop-color="#F36F56"/>
</linearGradient>
<linearGradient id="paint16_linear" x1="22.9506" y1="12.3273" x2="19.4669" y2="24.0181" gradientUnits="userSpaceOnUse">
<stop stop-color="#FFC444"/>
<stop offset="0.3138" stop-color="#FBA94A"/>
<stop offset="0.9964" stop-color="#F36F56"/>
</linearGradient>
<linearGradient id="paint17_linear" x1="14.8454" y1="27.989" x2="25.6284" y2="29.7292" gradientUnits="userSpaceOnUse">
<stop stop-color="#FFC444"/>
<stop offset="0.3138" stop-color="#FBA94A"/>
<stop offset="0.9964" stop-color="#F36F56"/>
</linearGradient>
<linearGradient id="paint18_linear" x1="25.8929" y1="25.1548" x2="17.6795" y2="32.9073" gradientUnits="userSpaceOnUse">
<stop stop-color="#FFC444"/>
<stop offset="0.3138" stop-color="#FBA94A"/>
<stop offset="0.9964" stop-color="#F36F56"/>
</linearGradient>
<linearGradient id="paint19_linear" x1="19.4513" y1="31.6627" x2="30.3555" y2="32.9825" gradientUnits="userSpaceOnUse">
<stop stop-color="#FFC444"/>
<stop offset="0.3138" stop-color="#FBA94A"/>
<stop offset="0.9964" stop-color="#F36F56"/>
</linearGradient>
<linearGradient id="paint20_linear" x1="26.8891" y1="27.9743" x2="20.1909" y2="35.994" gradientUnits="userSpaceOnUse">
<stop stop-color="#FFC444"/>
<stop offset="0.3138" stop-color="#FBA94A"/>
<stop offset="0.9964" stop-color="#F36F56"/>
</linearGradient>
<linearGradient id="paint21_linear" x1="20.4523" y1="36.662" x2="31.3565" y2="37.9817" gradientUnits="userSpaceOnUse">
<stop stop-color="#FFC444"/>
<stop offset="0.3138" stop-color="#FBA94A"/>
<stop offset="0.9964" stop-color="#F36F56"/>
</linearGradient>
<linearGradient id="paint22_linear" x1="28.8521" y1="32.136" x2="21.285" y2="42.4875" gradientUnits="userSpaceOnUse">
<stop stop-color="#FFC444"/>
<stop offset="0.3138" stop-color="#FBA94A"/>
<stop offset="0.9964" stop-color="#F36F56"/>
</linearGradient>
<linearGradient id="paint23_linear" x1="31.3212" y1="67.0363" x2="64.9158" y2="-0.67857" gradientUnits="userSpaceOnUse">
<stop stop-color="#D8DEE8"/>
<stop offset="1" stop-color="white"/>
</linearGradient>
<linearGradient id="paint24_linear" x1="47.7153" y1="19.519" x2="35.4609" y2="52.7369" gradientUnits="userSpaceOnUse">
<stop stop-color="#FF9085"/>
<stop offset="1" stop-color="#FB6FBB"/>
</linearGradient>
<linearGradient id="paint25_linear" x1="33.7437" y1="53.0296" x2="40.1492" y2="16.2792" gradientUnits="userSpaceOnUse">
<stop stop-color="#444B8C"/>
<stop offset="0.9964" stop-color="#26264F"/>
</linearGradient>
<linearGradient id="paint26_linear" x1="1.9991" y1="57.0016" x2="37.9992" y2="57.0016" gradientUnits="userSpaceOnUse">
<stop stop-color="#FFC444"/>
<stop offset="0.9964" stop-color="#F36F56"/>
</linearGradient>
<linearGradient id="paint27_linear" x1="26.2581" y1="56.0368" x2="19.5986" y2="67.5139" gradientUnits="userSpaceOnUse">
<stop stop-color="#FFC444"/>
<stop offset="0.9964" stop-color="#F36F56"/>
</linearGradient>
<linearGradient id="paint28_linear" x1="25.9173" y1="45.2046" x2="23.0513" y2="61.4502" gradientUnits="userSpaceOnUse">
<stop stop-color="#FFC444"/>
<stop offset="0.9964" stop-color="#F36F56"/>
</linearGradient>
<linearGradient id="paint29_linear" x1="18.1932" y1="50.2286" x2="14.7909" y2="55.0477" gradientUnits="userSpaceOnUse">
<stop stop-color="#FFC444"/>
<stop offset="0.9964" stop-color="#F36F56"/>
</linearGradient>
<linearGradient id="paint30_linear" x1="22.0797" y1="45.6934" x2="19.8207" y2="62.8266" gradientUnits="userSpaceOnUse">
<stop stop-color="#FFC444"/>
<stop offset="0.9964" stop-color="#F36F56"/>
</linearGradient>
<linearGradient id="paint31_linear" x1="7.99995" y1="52.4992" x2="13.9996" y2="52.4992" gradientUnits="userSpaceOnUse">
<stop stop-color="#FFC444"/>
<stop offset="0.9964" stop-color="#F36F56"/>
</linearGradient>
<linearGradient id="paint32_linear" x1="19.0734" y1="58.1106" x2="11.6042" y2="51.1058" gradientUnits="userSpaceOnUse">
<stop stop-color="#FFC444"/>
<stop offset="0.9964" stop-color="#F36F56"/>
</linearGradient>
<linearGradient id="paint33_linear" x1="18.7681" y1="48.4981" x2="16.3316" y2="51.3488" gradientUnits="userSpaceOnUse">
<stop stop-color="#FFC444"/>
<stop offset="0.9964" stop-color="#F36F56"/>
</linearGradient>
<linearGradient id="paint34_linear" x1="24.0836" y1="40.2713" x2="20.6568" y2="45.2978" gradientUnits="userSpaceOnUse">
<stop stop-color="#FFC444"/>
<stop offset="0.9964" stop-color="#F36F56"/>
</linearGradient>
<linearGradient id="paint35_linear" x1="6.0003" y1="59.5006" x2="9.00101" y2="59.5006" gradientUnits="userSpaceOnUse">
<stop stop-color="#FFC444"/>
<stop offset="0.9964" stop-color="#F36F56"/>
</linearGradient>
<linearGradient id="paint36_linear" x1="11.6037" y1="62.8208" x2="7.27671" y2="59.3207" gradientUnits="userSpaceOnUse">
<stop stop-color="#FFC444"/>
<stop offset="0.9964" stop-color="#F36F56"/>
</linearGradient>
<linearGradient id="paint37_linear" x1="49.9386" y1="35.1583" x2="50.2025" y2="43.9491" gradientUnits="userSpaceOnUse">
<stop stop-color="white"/>
<stop offset="1" stop-color="#D8DEE8"/>
</linearGradient>
<linearGradient id="paint38_linear" x1="49.9581" y1="39.9832" x2="50.0289" y2="35.7042" gradientUnits="userSpaceOnUse">
<stop stop-color="white"/>
<stop offset="1" stop-color="#D8DEE8"/>
</linearGradient>
<linearGradient id="paint39_linear" x1="44.9996" y1="39.5001" x2="47" y2="39.5001" gradientUnits="userSpaceOnUse">
<stop stop-color="white"/>
<stop offset="1" stop-color="#D8DEE8"/>
</linearGradient>
<linearGradient id="paint40_linear" x1="34.0015" y1="56.5028" x2="65.0006" y2="56.5028" gradientUnits="userSpaceOnUse">
<stop offset="0.00359712" stop-color="#EBEFF2"/>
<stop offset="1" stop-color="white"/>
</linearGradient>
<linearGradient id="paint41_linear" x1="57.3188" y1="42.1793" x2="54.5392" y2="78.2904" gradientUnits="userSpaceOnUse">
<stop stop-color="white"/>
<stop offset="1" stop-color="#D8DEE8"/>
</linearGradient>
<linearGradient id="paint42_linear" x1="50.9089" y1="63.3986" x2="64.5067" y2="106.597" gradientUnits="userSpaceOnUse">
<stop stop-color="#A1F094"/>
<stop offset="1" stop-color="#4FC3BA"/>
</linearGradient>
<linearGradient id="paint43_linear" x1="49.0918" y1="63.3857" x2="59.3134" y2="102.326" gradientUnits="userSpaceOnUse">
<stop stop-color="#A1F094"/>
<stop offset="1" stop-color="#4FC3BA"/>
</linearGradient>
<linearGradient id="paint44_linear" x1="23.8202" y1="51.3119" x2="22.5086" y2="68.7158" gradientUnits="userSpaceOnUse">
<stop offset="0.00359712" stop-color="#EBEFF2"/>
<stop offset="1" stop-color="white"/>
</linearGradient>
<linearGradient id="paint45_linear" x1="20.9089" y1="68.2963" x2="27.0732" y2="51.6417" gradientUnits="userSpaceOnUse">
<stop offset="0.00359712" stop-color="#EBEFF2"/>
<stop offset="1" stop-color="white"/>
</linearGradient>
<linearGradient id="paint46_linear" x1="13.8753" y1="50.5425" x2="12.5636" y2="67.9464" gradientUnits="userSpaceOnUse">
<stop offset="0.00359712" stop-color="#EBEFF2"/>
<stop offset="1" stop-color="white"/>
</linearGradient>
<linearGradient id="paint47_linear" x1="10.9812" y1="68.2963" x2="17.1454" y2="51.6417" gradientUnits="userSpaceOnUse">
<stop offset="0.00359712" stop-color="#EBEFF2"/>
<stop offset="1" stop-color="white"/>
</linearGradient>
<linearGradient id="paint48_linear" x1="17.4992" y1="66.9616" x2="17.4992" y2="66.2571" gradientUnits="userSpaceOnUse">
<stop stop-color="#AA80F9"/>
<stop offset="0.9964" stop-color="#6165D7"/>
</linearGradient>
<linearGradient id="paint49_linear" x1="25.3952" y1="69.3379" x2="31.5595" y2="52.6833" gradientUnits="userSpaceOnUse">
<stop offset="0.00359712" stop-color="#EBEFF2"/>
<stop offset="1" stop-color="white"/>
</linearGradient>
<linearGradient id="paint50_linear" x1="15.4674" y1="69.3379" x2="21.6317" y2="52.6833" gradientUnits="userSpaceOnUse">
<stop offset="0.00359712" stop-color="#EBEFF2"/>
<stop offset="1" stop-color="white"/>
</linearGradient>
<linearGradient id="paint51_linear" x1="5.5398" y1="69.3379" x2="11.7041" y2="52.6833" gradientUnits="userSpaceOnUse">
<stop offset="0.00359712" stop-color="#EBEFF2"/>
<stop offset="1" stop-color="white"/>
</linearGradient>
<linearGradient id="paint52_linear" x1="8.30761" y1="69.8307" x2="1.61847" y2="68.5639" gradientUnits="userSpaceOnUse">
<stop stop-color="#AA80F9"/>
<stop offset="0.9964" stop-color="#6165D7"/>
</linearGradient>
<linearGradient id="paint53_linear" x1="7.99962" y1="69.5013" x2="34.9999" y2="69.5013" gradientUnits="userSpaceOnUse">
<stop stop-color="#AA80F9"/>
<stop offset="0.9964" stop-color="#6165D7"/>
</linearGradient>
<linearGradient id="paint54_linear" x1="25.4704" y1="72.3064" x2="38.4721" y2="61.2832" gradientUnits="userSpaceOnUse">
<stop stop-color="#FF9085"/>
<stop offset="1" stop-color="#FB6FBB"/>
</linearGradient>
<linearGradient id="paint55_linear" x1="24.4109" y1="72.9406" x2="33.9051" y2="65.35" gradientUnits="userSpaceOnUse">
<stop stop-color="#FF9085"/>
<stop offset="1" stop-color="#FB6FBB"/>
</linearGradient>
<linearGradient id="paint56_linear" x1="28.6267" y1="70.1174" x2="37.2566" y2="63.1017" gradientUnits="userSpaceOnUse">
<stop stop-color="#FF9085"/>
<stop offset="1" stop-color="#FB6FBB"/>
</linearGradient>
<linearGradient id="paint57_linear" x1="31.751" y1="56.2861" x2="29.2652" y2="65.4888" gradientUnits="userSpaceOnUse">
<stop stop-color="#AA80F9"/>
<stop offset="0.9964" stop-color="#6165D7"/>
</linearGradient>
<linearGradient id="paint58_linear" x1="30.1052" y1="60.3036" x2="33.4956" y2="71.1805" gradientUnits="userSpaceOnUse">
<stop stop-color="#AA80F9"/>
<stop offset="0.9964" stop-color="#6165D7"/>
</linearGradient>
<linearGradient id="paint59_linear" x1="54.9297" y1="69.3032" x2="53.1085" y2="76.7079" gradientUnits="userSpaceOnUse">
<stop stop-color="#24ABB5"/>
<stop offset="1" stop-color="#40CF9F"/>
</linearGradient>
<linearGradient id="paint60_linear" x1="54.6519" y1="74.0956" x2="50.5876" y2="77.2086" gradientUnits="userSpaceOnUse">
<stop stop-color="#24ABB5"/>
<stop offset="1" stop-color="#40CF9F"/>
</linearGradient>
<linearGradient id="paint61_linear" x1="54.4115" y1="74.7908" x2="51.016" y2="77.7994" gradientUnits="userSpaceOnUse">
<stop stop-color="#24ABB5"/>
<stop offset="1" stop-color="#40CF9F"/>
</linearGradient>
<linearGradient id="paint62_linear" x1="50.031" y1="67.5881" x2="52.3403" y2="72.1989" gradientUnits="userSpaceOnUse">
<stop stop-color="#24ABB5"/>
<stop offset="1" stop-color="#40CF9F"/>
</linearGradient>
<linearGradient id="paint63_linear" x1="50.0307" y1="67.8613" x2="52.1519" y2="72.2591" gradientUnits="userSpaceOnUse">
<stop stop-color="#24ABB5"/>
<stop offset="1" stop-color="#40CF9F"/>
</linearGradient>
<linearGradient id="paint64_linear" x1="62.1718" y1="72.8756" x2="58.9458" y2="75.2768" gradientUnits="userSpaceOnUse">
<stop stop-color="#24ABB5"/>
<stop offset="1" stop-color="#40CF9F"/>
</linearGradient>
<linearGradient id="paint65_linear" x1="61.9867" y1="72.7908" x2="58.7895" y2="74.9929" gradientUnits="userSpaceOnUse">
<stop stop-color="#24ABB5"/>
<stop offset="1" stop-color="#40CF9F"/>
</linearGradient>
<linearGradient id="paint66_linear" x1="58.6918" y1="66.39" x2="60.7703" y2="70.3435" gradientUnits="userSpaceOnUse">
<stop stop-color="#24ABB5"/>
<stop offset="1" stop-color="#40CF9F"/>
</linearGradient>
<linearGradient id="paint67_linear" x1="58.6918" y1="66.6312" x2="60.602" y2="70.4055" gradientUnits="userSpaceOnUse">
<stop stop-color="#24ABB5"/>
<stop offset="1" stop-color="#40CF9F"/>
</linearGradient>
<linearGradient id="paint68_linear" x1="65.4995" y1="67.6991" x2="64.0694" y2="72.5298" gradientUnits="userSpaceOnUse">
<stop stop-color="#24ABB5"/>
<stop offset="1" stop-color="#40CF9F"/>
</linearGradient>
<linearGradient id="paint69_linear" x1="65.4557" y1="67.9342" x2="64.0684" y2="72.5449" gradientUnits="userSpaceOnUse">
<stop stop-color="#24ABB5"/>
<stop offset="1" stop-color="#40CF9F"/>
</linearGradient>
<linearGradient id="paint70_linear" x1="35.394" y1="74.7342" x2="51.6434" y2="73.1401" gradientUnits="userSpaceOnUse">
<stop stop-color="#893976"/>
<stop offset="1" stop-color="#311944"/>
</linearGradient>
<linearGradient id="paint71_linear" x1="35.5112" y1="75.8889" x2="51.7928" y2="74.4317" gradientUnits="userSpaceOnUse">
<stop stop-color="#893976"/>
<stop offset="1" stop-color="#311944"/>
</linearGradient>
<linearGradient id="paint72_linear" x1="47.2391" y1="73.4902" x2="32.4982" y2="83.481" gradientUnits="userSpaceOnUse">
<stop stop-color="#893976"/>
<stop offset="1" stop-color="#311944"/>
</linearGradient>
<linearGradient id="paint73_linear" x1="44.0624" y1="75.4885" x2="43.2581" y2="84.1738" gradientUnits="userSpaceOnUse">
<stop stop-color="#893976"/>
<stop offset="1" stop-color="#311944"/>
</linearGradient>
<clipPath id="clip0">
<rect width="89" height="79" fill="white"/>
</clipPath>
</defs>
</svg>
