<svg width="89" height="81" viewBox="0 0 89 81" fill="none" xmlns="http://www.w3.org/2000/svg">
<path d="M88.1158 57.1269C84.4943 66.7073 68.1765 74.9777 65.3013 76.6756C50.4891 85.4145 24.2977 80.0899 12.9327 66.0662C5.65355 57.0874 8.29094 35.4861 8.36278 32.5594C8.76544 16.667 23.225 3.04201 40.5919 0.53348C59.8157 -2.24273 61.3314 30.8693 62.6113 32.5594C64.1631 34.604 94.42 40.4492 88.1158 57.1269Z" fill="#F4F7FA"/>
<path d="M50.6694 27.2451C51.0311 26.6435 66.6461 14.6642 66.6461 14.6642L70.1421 17.7718C71.1629 18.6794 71.6477 20.0356 71.4656 21.4683L70.0395 32.7363L62.668 69.8824C62.3474 71.4962 61.2188 72.9442 59.6723 73.7268L55.2222 75.9778L50.6694 27.2451Z" fill="#97A6B7"/>
<path d="M64.3132 14.0776L26.0424 16.4918C24.1137 16.6143 22.3515 18.3911 22.0899 20.4612L20.5382 32.7183C20.5254 32.8228 20.5151 32.9248 20.51 33.0293L18.6453 69.8747C18.5452 71.8453 19.8482 73.4819 21.659 73.64L53.0251 76.3856C55.1693 76.5743 57.1828 75.0701 57.6394 72.9211L66.2779 32.109C66.3036 31.9917 66.3215 31.877 66.3369 31.7598L68.0784 18.0113C68.3683 15.6888 66.6755 13.9273 64.3132 14.0776Z" fill="url(#paint0_linear)"/>
<path d="M21.7746 72.6916C20.423 72.5768 19.4277 71.3328 19.5021 69.8593L21.3642 32.9324C21.3694 32.8559 21.3745 32.7769 21.3848 32.6979L22.9416 20.4127C23.1391 18.8551 24.4703 17.5167 25.922 17.4274L64.1825 15.1076C65.9523 15.0005 67.2219 16.3287 67.0013 18.0673L65.2649 31.7801C65.2546 31.8668 65.2392 31.956 65.2213 32.0427L56.6135 72.7528C56.275 74.3512 54.7514 75.4933 53.1509 75.3582L21.7746 72.6916Z" fill="#D8DEE8"/>
<path d="M57.7741 20.5479L30.2119 21.8811C27.9932 21.9883 25.9721 23.9843 25.6745 26.3374L24.841 32.9223C24.8256 33.0396 24.8153 33.1594 24.8102 33.2766L23.1584 66.5019C23.0481 68.7402 24.5486 70.586 26.6338 70.7517L48.2482 72.4571C50.6001 72.6433 52.8162 70.953 53.319 68.5669L60.8956 32.5858C60.9238 32.4558 60.9444 32.3283 60.9598 32.1983L61.8728 24.9888C62.1986 22.4115 60.3493 20.423 57.7741 20.5479Z" fill="white"/>
<path d="M59.1665 19.3853C48.9788 17.6544 39.0141 18.2203 29.2547 20.9124C27.4286 21.4171 26.1025 23.375 26.3257 25.2258L27.5953 35.65C27.7774 37.1439 28.9136 38.1764 30.373 38.1687L53.0365 38.0285C54.6857 38.0183 56.2785 36.889 56.912 35.2753L61.4057 23.8186C62.2188 21.7485 61.1902 19.7295 59.1665 19.3853Z" fill="#D8DEE8"/>
<path d="M30.615 36.2568C29.9635 36.2644 29.4557 35.803 29.3736 35.1376L28.086 24.6701C28.0373 24.2699 28.1475 23.8493 28.3938 23.4847C28.6426 23.1176 28.9991 22.8551 29.3966 22.7454C34.0699 21.4784 38.8534 20.7034 43.6138 20.4637C48.4897 20.219 53.4912 20.5249 58.4748 21.3994C58.9109 21.4758 59.2546 21.7257 59.4443 22.103C59.6342 22.4777 59.6418 22.929 59.47 23.37L55.0097 34.7756C54.7301 35.4895 54.0222 35.9943 53.2912 36.0044L30.615 36.2568Z" fill="white"/>
<path d="M39.6417 30.5131C40.5317 30.2352 41.4602 30.0721 42.404 30.0465C42.9658 30.0312 43.5121 30.0669 44.0379 30.146C45.2537 27.4845 46.6079 24.512 47.7057 22.1054C46.3565 21.8199 44.9304 21.7026 43.4531 21.7715C41.4756 21.8658 39.5493 22.2864 37.7231 22.9773C38.3387 25.4348 39.0261 28.1345 39.6417 30.5131Z" fill="url(#paint1_linear)"/>
<path d="M48.4263 22.2737C47.5568 24.1831 46.1179 27.3392 44.7713 30.2862C46.3076 30.6507 47.6568 31.413 48.7264 32.4735L55.0001 25.8937C53.179 24.1806 50.9424 22.9289 48.4263 22.2737Z" fill="url(#paint2_linear)"/>
<path d="M38.5368 29.139C37.9853 26.9849 37.4364 24.8179 37.0415 23.2502C35.0126 24.1041 33.1198 25.2947 31.4449 26.7402L35.6487 32.7387C36.6388 31.9 37.7571 31.2219 38.9549 30.7553C38.8189 30.2429 38.6805 29.705 38.5368 29.139Z" fill="url(#paint3_linear)"/>
<path d="M42.7067 36.1215L40.5573 36.1445L42.9657 24.6828C42.9965 24.5375 43.2017 24.5298 43.1966 24.6726L42.7067 36.1215Z" fill="url(#paint4_linear)"/>
<path d="M58.8532 42.1204C58.7711 40.3307 57.6272 39.1861 57.3424 38.9083C55.6368 37.2512 53.2284 37.3174 52.4589 37.3379C49.7247 37.4118 49.1066 38.7604 47.1983 38.2581C45.5824 37.8325 45.4593 36.7184 44.0691 36.6419C42.6148 36.5628 41.0913 37.6922 40.4808 38.9746C39.3036 41.4474 41.14 45.3045 43.7588 46.467C46.4801 47.6754 47.9524 45.047 52.9436 45.8245C54.7647 46.1075 55.8291 46.653 57.009 45.9902C58.3042 45.2637 58.9199 43.5454 58.8532 42.1204Z" fill="url(#paint5_linear)"/>
<path d="M40.6168 77.7623C40.6168 77.7623 40.7604 77.9 40.7604 78.1371C40.7604 78.2085 40.7271 78.2773 40.6681 78.3206C40.5399 78.4201 40.2551 78.6138 39.8166 78.7923C39.1933 79.0447 38.983 79.0191 38.9573 78.9172C38.9317 78.8152 39.2548 78.5348 39.5293 78.2926C39.8038 78.0504 40.6168 77.7623 40.6168 77.7623Z" fill="url(#paint6_linear)"/>
<path d="M47.57 78.1424C47.57 78.1424 47.7316 78.2571 47.7623 78.4942C47.7726 78.5655 47.7495 78.637 47.6956 78.6905C47.5828 78.8052 47.3288 79.0372 46.9159 79.2743C46.3337 79.6108 46.1234 79.6133 46.0823 79.5165C46.0439 79.417 46.3235 79.0984 46.562 78.818C46.803 78.5401 47.57 78.1424 47.57 78.1424Z" fill="url(#paint7_linear)"/>
<path d="M48.3116 53.9416C55.0727 46.5155 45.934 42.2403 45.4389 42.0159C45.4313 42.0108 45.4235 42.0057 45.4185 42.0057C43.7743 41.9777 41.6403 42.0491 41.5737 42.0567C41.1581 42.1154 40.3887 42.1587 40.3297 42.2198C39.0934 42.8419 32.004 46.8341 37.7879 53.9416L38.4291 53.1998C38.4291 53.1998 36.249 47.7825 40.3323 44.9808C40.3887 45.0445 40.4425 45.1134 40.4938 45.1847C41.5147 46.6404 40.6041 48.7232 40.0194 50.8773C39.6064 52.4019 38.7523 53.7403 38.5009 55.9326H47.9218C47.9038 55.7746 47.8782 55.6089 47.8499 55.4406C47.6114 54.0895 47.2395 53.7733 46.0622 51.0482C45.5775 49.9239 44.6976 47.7289 45.2132 46.2121C45.226 46.1764 45.2363 46.1483 45.2466 46.1229C45.4748 45.5773 45.6518 45.251 45.934 44.9833C50.52 47.6142 47.7935 53.5746 47.7935 53.5746L48.3116 53.9416Z" fill="url(#paint8_linear)"/>
<path d="M39.1292 66.8973C39.1343 66.989 39.1445 67.3103 39.1753 67.7462C39.2472 68.7226 39.3292 69.4619 39.3677 69.7805C39.6216 71.876 39.8191 73.1125 39.9576 74.3871C40.05 75.2513 40.1577 76.521 40.1782 78.0887C40.2013 78.1117 40.2731 78.1703 40.3783 78.1831C40.5373 78.201 40.6475 78.1041 40.6655 78.0887C40.6809 77.9485 40.6963 77.7012 40.7425 77.4005C40.999 75.7536 41.1092 74.4075 41.1631 73.4668C41.2939 71.2184 41.158 70.3694 41.4966 68.7786C41.5761 68.4039 41.6094 68.3248 41.8249 67.5473C42.2737 65.9234 42.9355 63.4964 43.2664 60.8885C43.5715 58.4718 43.7255 57.1104 42.9277 56.4909C42.4738 56.1391 42.1762 56.3889 40.686 55.8612C39.4934 55.4381 39.106 55.0786 38.7649 55.2902C38.4264 55.4992 38.4264 56.1289 38.4264 57.2634C38.4264 57.9696 38.4828 58.4284 38.4828 58.4284C38.824 61.197 39.083 65.88 39.1292 66.8973Z" fill="url(#paint9_linear)"/>
<path d="M42.9324 56.4909C42.4785 56.1391 42.1809 56.3889 40.6907 55.8612C40.1674 55.6751 39.7981 55.5018 39.5211 55.3845C40.5522 56.4756 41.614 57.5234 42.1681 58.9051C42.6785 60.3225 41.2524 61.2326 40.9446 62.5507C40.9446 62.854 40.742 63.1574 40.842 63.4608C41.6577 64.9801 41.3524 66.4969 40.842 68.1184C40.2316 69.8391 40.3316 71.8633 40.4342 73.686C40.4342 75.0244 40.7112 76.6356 40.1777 77.9561C40.1777 77.9995 40.1803 78.0428 40.1803 78.0862C40.2033 78.1091 40.2752 78.1678 40.3804 78.1805C40.5394 78.1984 40.6497 78.1015 40.6676 78.0862C40.683 77.946 40.6984 77.6987 40.7445 77.3979C41.0011 75.751 41.1113 74.4049 41.1652 73.4643C41.296 71.2158 41.1601 70.3668 41.4986 68.7761C41.5781 68.4014 41.6115 68.3223 41.8269 67.5447C42.2758 65.9209 42.9376 63.4939 43.2684 60.886C43.5762 58.4717 43.7301 57.1104 42.9324 56.4909Z" fill="url(#paint10_linear)"/>
<path d="M47.1952 78.5373C47.2106 78.5526 47.3132 78.6571 47.467 78.647C47.5799 78.6393 47.6517 78.5781 47.6748 78.5577C47.6723 78.5093 47.6748 78.4481 47.6799 78.3767C48.6059 76.5743 48.9111 75.032 49.0213 74.0123C49.1163 73.1302 49.0855 72.2915 49.0213 70.614C48.988 69.7243 48.9342 69.008 48.7777 68.1616C48.6417 67.4274 48.4905 66.9149 48.434 66.711C47.9262 64.8653 48.5212 63.8328 48.4443 60.6589C48.3904 58.4257 48.0364 56.5214 47.898 55.7923C47.8133 55.3461 47.7338 54.9791 47.6748 54.719C47.4876 54.7368 46.9977 54.8414 46.4232 55.0861C45.6998 55.392 45.5357 55.7515 44.6431 56.2945C43.8608 56.7713 44.284 56.4296 44.0532 56.654C43.2427 57.4392 43.3889 59.5347 43.9455 61.2325C44.3968 62.6091 45.0407 64.6716 45.7486 67.328C46.5283 69.1609 47.385 71.8606 47.4311 75.1722C47.4491 76.4112 47.349 77.5406 47.1952 78.5373Z" fill="url(#paint11_linear)"/>
<path d="M47.5749 54.2474C47.0363 54.6196 46.313 55.0352 45.487 55.2952C42.3886 56.2716 39.5878 54.923 38.7696 54.4896C38.6465 54.7701 38.5132 55.155 38.4567 55.6291C38.4208 55.9147 38.4208 56.1722 38.4362 56.3889C38.9492 56.3455 39.7879 56.3455 40.7292 56.6795C42.3477 57.2531 43.2146 58.436 43.507 58.8821C43.7276 58.4614 44.1226 57.8471 44.7996 57.299C46.0462 56.2843 47.4902 56.1645 48.0058 56.1466C48.0084 55.8866 47.9237 55.5476 47.8365 55.1627C47.757 54.8058 47.6826 54.4718 47.5749 54.2474Z" fill="url(#paint12_linear)"/>
<path d="M45.0706 41.9879L44.5269 41.9625L45.0706 45.2485L45.3246 45.789L45.617 45.5341L45.0706 41.9879Z" fill="url(#paint13_linear)"/>
<path d="M41.1478 42.0874L40.7476 42.0976L40.386 45.1006L40.7682 45.789L41.1478 42.0874Z" fill="url(#paint14_linear)"/>
<path d="M45.0799 47.2752C45.2031 46.7271 45.3441 46.2504 45.5365 45.7431C45.5622 45.6742 45.5878 45.6054 45.6135 45.5365C45.4749 45.3836 45.2544 45.0879 44.9389 44.9349C44.231 44.5907 43.5462 44.8304 43.3256 44.8865H42.8896C42.4253 44.7999 42.056 44.7055 41.7994 44.6341C41.5122 44.5526 41.3916 44.5092 41.2173 44.527C40.8299 44.5653 40.5478 44.8737 40.3811 45.1058C40.5375 45.636 40.7248 46.1663 40.8838 46.6939C41.5328 46.7067 42.2355 46.7577 43.0332 46.8749C43.7463 46.9744 44.5106 47.1222 45.0799 47.2752Z" fill="url(#paint15_linear)"/>
<path d="M43.362 40.0707C43.362 40.0707 43.3364 41.4244 43.7185 41.7124C44.1007 42.0006 44.5264 41.9623 44.5264 41.9623C44.5264 41.9623 43.5005 42.5002 41.5717 42.0566L41.8923 41.9368C42.2616 41.7991 42.5207 41.4651 42.5592 41.0751L42.6233 40.425L43.362 40.0707Z" fill="url(#paint16_linear)"/>
<path d="M43.4745 40.2697C43.4745 40.2697 43.0591 40.7744 42.4358 40.596C41.8792 40.4379 42.0382 39.0358 42.4486 38.8165C42.5846 38.7426 42.8333 38.7528 43.018 38.8522C43.1283 38.9109 43.1565 38.9721 43.3387 39.0664C43.5053 39.1531 43.5592 39.1404 43.6028 39.2015C43.6592 39.2754 43.6823 39.436 43.5002 39.8185C43.6285 39.7216 43.767 39.7012 43.8491 39.7675C43.8619 39.7776 43.8952 39.8159 43.9106 39.8643C43.9619 40.0376 43.7952 40.2136 43.4745 40.2697Z" fill="url(#paint17_linear)"/>
<path d="M37.7849 53.9416C37.7849 53.9416 38.3953 52.8938 38.8031 53.006C39.2109 53.1182 39.6187 53.8167 39.7957 53.9416C39.9752 54.0691 38.7595 53.8142 38.4261 54.0691C38.09 54.3214 37.7849 53.9416 37.7849 53.9416Z" fill="url(#paint18_linear)"/>
<path d="M48.3179 53.9416C48.3179 53.9416 47.7075 52.8938 47.2996 53.006C46.8918 53.1182 46.484 53.8167 46.307 53.9416C46.1275 54.0691 47.3433 53.8142 47.6767 54.0691C48.0101 54.324 48.3179 53.9416 48.3179 53.9416Z" fill="url(#paint19_linear)"/>
<path d="M21.1143 76.7811C21.1143 76.7811 21.0502 77.2858 21.0937 77.454C21.1374 77.6223 22.6148 77.7446 23.1149 77.686C23.6151 77.6274 22.8173 77.1175 22.4968 77.0232C22.1787 76.9288 21.1143 76.7811 21.1143 76.7811Z" fill="url(#paint20_linear)"/>
<path d="M21.8567 75.9371L21.7003 76.9491C21.7003 76.9491 21.3027 77.1276 21.1129 76.9517L21.0924 75.8911L21.8567 75.9371Z" fill="url(#paint21_linear)"/>
<path d="M13.532 75.8912C13.532 75.8912 13.845 76.1232 13.7629 76.3985C13.6782 76.6764 12.9472 77.7853 12.4265 78.0989C11.9059 78.4125 12.07 77.7573 12.2214 77.3494C12.3726 76.9415 12.76 76.0416 12.9113 75.8912C13.0626 75.7408 13.532 75.8912 13.532 75.8912Z" fill="url(#paint22_linear)"/>
<path d="M14.0976 74.7798C13.9464 75.2004 13.8002 75.5446 13.6873 75.7995C13.4359 76.3629 13.2974 76.5745 13.141 76.7581C13.005 76.9187 12.6819 77.2577 12.5972 77.2016C12.51 77.143 12.746 76.73 13.1999 75.5191C13.2666 75.3431 13.4744 74.7824 13.4744 74.7824H14.0976V74.7798Z" fill="url(#paint23_linear)"/>
<path d="M24.9495 57.243C25.0572 58.2984 25.1623 59.935 25.0058 61.9235C24.8033 64.5136 24.2825 66.1503 23.6285 68.9113C23.2284 70.5989 22.6923 73.0819 22.205 76.187C22.0922 76.2507 21.7587 76.419 21.3329 76.3578C21.0944 76.3221 20.9149 76.2278 20.8097 76.1589C19.5324 72.2814 19.9094 69.8774 20.525 68.3784C20.7866 67.741 21.1072 67.2363 21.2765 66.2549C21.5022 64.9572 21.2227 64.2307 20.8251 61.2225C20.5429 59.0785 20.5917 58.7471 20.7789 58.4259C21.533 57.141 23.8363 57.1665 24.9495 57.243Z" fill="url(#paint24_linear)"/>
<path d="M20.5543 57.6941C19.772 61.7093 19.0052 63.8201 18.4229 65.0132C18.2793 65.3064 17.8022 66.2573 17.3507 67.6186C16.9507 68.8219 16.7839 69.709 16.6993 70.0991C16.43 71.3304 15.7631 73.1277 13.9703 75.4858C13.9472 75.4985 13.642 75.6719 13.3495 75.5164C13.2008 75.4399 13.129 75.315 13.0982 75.2564C13.3316 73.0027 13.6009 71.1087 13.8343 69.6478C13.883 69.3419 14.0985 68.001 14.437 66.2267C14.5704 65.5333 14.7628 64.5161 14.9962 63.4734C15.286 62.1733 15.7297 60.4066 16.4146 58.2881C17.7945 58.0892 19.1744 57.8904 20.5543 57.6941Z" fill="url(#paint25_linear)"/>
<path opacity="0.3" d="M20.525 68.3785C20.7866 67.7411 21.1072 67.2364 21.2765 66.2549C21.5022 64.9572 21.2227 64.2307 20.8251 61.2225C20.5429 59.0785 20.5917 58.7471 20.7789 58.4259C21.1893 57.7274 22.0562 57.4164 22.9411 57.2915C22.9283 57.3373 22.9181 57.3807 22.9078 57.4265C22.4435 59.5348 24.2158 60.8197 23.4156 63.137C23.0206 64.2791 22.3923 64.5417 22.2461 65.8674C22.1075 67.1088 22.6077 67.3664 22.5 68.4957C22.341 70.1834 21.1354 70.5913 20.8225 71.8812C20.6199 72.7199 20.7892 73.9487 22.2793 75.723C22.2537 75.876 22.2306 76.0289 22.205 76.187C22.0922 76.2508 21.7587 76.419 21.3329 76.3578C21.0944 76.3221 20.9149 76.2278 20.8097 76.1589C19.5324 72.2789 19.9094 69.8749 20.525 68.3785Z" fill="url(#paint26_linear)"/>
<path d="M14.2281 37.0395C14.7436 37.2536 15.1489 37.3938 15.6721 37.455C16.5775 37.5621 17.1367 37.3505 18.4166 37.0573C20.0479 36.6826 20.8635 36.4964 21.2405 36.6418C22.5153 37.1338 23.0283 39.2956 22.7794 40.945C22.564 42.3701 21.4252 44.073 20.0581 44.4886C18.9885 44.8149 18.2448 44.2796 17.5676 44.9551C16.9571 45.5644 17.4163 46.3546 16.7724 47.0124C16.3108 47.4866 15.9183 47.4229 15.013 47.8026C13.4176 48.4731 13.4586 49.2635 12.3608 49.7198C11.0194 50.2806 10.4347 49.3221 7.95951 49.1436C5.30741 48.955 4.80469 49.9721 3.35296 49.4852C1.3703 48.8199 0.357172 46.2705 0.0904227 44.6365C-0.520021 40.866 2.03974 36.9553 5.3741 35.4691C6.31541 35.0485 8.41092 34.1128 10.3038 34.8955C11.3118 35.3161 12.0505 36.1344 14.2281 37.0395Z" fill="url(#paint27_linear)"/>
<path d="M34.3701 46.4746C34.3701 46.4746 34.6676 45.8397 35.0216 45.4191C35.3755 44.9985 36.3476 45.4854 36.6913 45.4981C36.7554 45.5007 36.7913 45.5185 36.8041 45.5441C36.8375 45.6104 36.581 45.7378 36.0912 45.9927C35.296 46.4083 35.2319 46.4567 35.0344 46.4746C34.7779 46.5 34.3701 46.4746 34.3701 46.4746Z" fill="url(#paint28_linear)"/>
<path d="M34.2876 45.9928C34.4595 46.2197 34.6313 46.4465 34.8032 46.676C34.6878 47.1527 34.3082 48.4453 33.0873 49.4904C32.918 49.6358 31.4586 50.8467 29.3708 50.7702C26.2005 50.6529 24.536 47.6855 24.4539 47.53C23.9563 46.5333 22.1609 42.8214 23.115 42.0796C23.7793 41.5646 25.6311 42.5945 26.6828 43.4384C28.3423 44.7665 28.1729 45.7532 29.8555 46.7627C30.448 47.1196 31.6843 47.8614 32.8873 47.3872C33.6926 47.066 34.1133 46.3471 34.2876 45.9928Z" fill="white"/>
<path opacity="0.33" d="M34.2876 45.9928C34.4595 46.2197 34.6313 46.4465 34.8032 46.676C34.6878 47.1527 34.3082 48.4453 33.0873 49.4904C32.918 49.6358 31.4586 50.8467 29.3708 50.7702C26.2005 50.6529 24.536 47.6855 24.4539 47.53C23.9563 46.5333 22.1609 42.8214 23.115 42.0796C23.7793 41.5646 25.6311 42.5945 26.6828 43.4384C28.3423 44.7665 28.1729 45.7532 29.8555 46.7627C30.448 47.1196 31.6843 47.8614 32.8873 47.3872C33.6926 47.066 34.1133 46.3471 34.2876 45.9928Z" fill="url(#paint29_linear)"/>
<path d="M25.9676 59.7744C26.5396 59.4047 26.6448 58.6221 26.6858 58.1582C26.9346 55.3615 25.8753 53.0314 25.7112 49.6587C25.6624 48.639 25.7368 48.4197 25.6547 46.8162C25.4829 43.5225 25.0827 42.9234 24.739 42.5818C23.9105 41.7584 22.7051 41.7405 21.9946 41.7277C21.7125 41.7227 19.1014 41.7176 18.0704 43.339C17.2906 44.5677 18.3396 45.2739 18.0191 47.553C17.6266 50.3343 15.5927 52.6236 15.131 53.1232C14.4641 53.8421 13.8357 54.3189 13.3022 55.4252C12.7764 56.5139 13.0278 56.7892 12.5301 57.6993C11.6171 59.3666 10.0884 59.6826 10.2423 60.2843C10.3603 60.7483 11.3606 60.9293 12.0146 60.9089C12.9842 60.8808 13.2458 60.4092 14.0794 60.1976C15.6952 59.7846 16.2313 61.1587 17.8754 60.9956C19.7196 60.812 19.8529 59.0045 21.5073 59.0631C22.4127 59.0963 22.7461 59.652 24.6518 59.9146C25.1879 59.9911 25.606 60.0089 25.9676 59.7744Z" fill="#EFEFEF"/>
<path opacity="0.15" d="M25.9676 59.7745C26.5396 59.4047 26.6448 58.6221 26.6858 58.1582C26.9346 55.3615 25.8753 53.0314 25.7112 49.6587C25.6624 48.639 25.7368 48.4197 25.6547 46.8163C25.5187 44.1955 25.4649 43.2191 24.739 42.5818C24.4056 42.2886 23.7669 41.9139 23.3951 42.128C22.7077 42.5232 23.8618 44.3918 23.0796 45.8501C22.4153 47.0916 21.1584 46.518 19.2476 47.7824C17.1624 49.1616 17.9703 50.3037 15.131 53.1258C14.5154 53.7376 13.8357 54.324 13.3022 55.4278C12.7764 56.5164 13.0278 56.7918 12.5301 57.7018C11.6171 59.3691 10.0884 59.6852 10.2423 60.2868C10.3603 60.7508 11.3606 60.9318 12.0146 60.9114C12.9842 60.8834 13.2458 60.4118 14.0794 60.2002C15.6952 59.7872 16.2313 61.1613 17.8754 60.9981C19.7196 60.8146 19.8529 59.0071 21.5073 59.0657C22.4127 59.0988 22.7461 59.6546 24.6518 59.9172C25.1879 59.9912 25.606 60.0089 25.9676 59.7745Z" fill="url(#paint30_linear)"/>
<path opacity="0.15" d="M11.4422 60.343C12.5528 60.009 12.7451 59.0607 14.043 58.8083C15.2716 58.5713 15.6486 59.3131 16.6438 58.9792C17.8365 58.5814 17.6108 57.4164 18.7599 56.904C20.2475 56.2412 21.6812 57.7198 22.561 56.9881C23.1202 56.5241 22.6046 55.8715 23.2176 54.8008C23.8896 53.6256 24.8642 53.7887 25.3618 52.8123C25.8363 51.8793 25.2875 51.0584 25.0463 49.7149C24.8642 48.7054 24.8309 47.2318 25.5337 45.2842C25.5773 45.7176 25.6158 46.2223 25.6466 46.8163C25.7312 48.4198 25.6542 48.6365 25.703 49.6588C25.8671 53.0315 26.9265 55.3591 26.6777 58.1583C26.6366 58.6223 26.5315 59.4049 25.9595 59.7745C25.5978 60.009 25.1797 59.9912 24.6437 59.9173C22.7354 59.6521 22.4045 59.0964 21.4992 59.0658C19.8447 59.0072 19.7139 60.8146 17.8672 60.9982C16.2231 61.1614 15.6871 59.7873 14.0712 60.2003C13.2376 60.4144 12.9786 60.8835 12.0064 60.9115C11.4165 60.9294 10.547 60.7841 10.2957 60.4144C10.7651 60.4807 11.1395 60.4348 11.4422 60.343Z" fill="url(#paint31_linear)"/>
<path d="M21.0015 40.1675C21.0015 40.1675 21.0785 41.4294 20.763 41.6665C20.563 41.8169 20.2398 41.9699 20.0269 42.0616C19.9628 42.0897 19.973 42.1815 20.0397 42.1968L21.8634 42.6047C21.9506 42.625 22.0429 42.6047 22.1096 42.5486L22.8098 41.9648C22.8585 41.9239 22.8329 41.8475 22.7688 41.8449L22.1737 41.8118C21.9069 41.7557 21.6992 41.5467 21.6453 41.2816L21.476 40.4428L21.0015 40.1675Z" fill="url(#paint32_linear)"/>
<path d="M21.0256 40.6009C21.0256 40.6009 21.3513 41.0445 21.8592 40.8585C22.3158 40.6927 22.0439 39.5225 21.6822 39.39C21.5617 39.3467 21.3411 39.3645 21.1923 39.4563C21.0872 39.5201 20.8101 39.8642 20.9692 40.2491C20.8538 40.216 20.7538 40.2466 20.7281 40.3027C20.6947 40.374 20.7922 40.4735 20.8153 40.4939C20.8897 40.5729 20.982 40.5959 21.0256 40.6009Z" fill="url(#paint33_linear)"/>
<path d="M24.7636 46.5869L24.5507 45.7277C24.5174 45.5952 24.5738 45.4575 24.7021 45.3632C25.0098 45.1388 25.0868 44.9629 25.269 44.9145C25.6023 44.8253 25.7665 45.0701 25.5203 45.1694C25.2766 45.2714 25.0893 45.4703 25.1894 45.822C25.292 46.1713 25.1022 46.4722 24.7636 46.5869Z" fill="url(#paint34_linear)"/>
<path d="M25.317 46.6072C25.0245 46.4236 24.7322 46.2401 24.4398 46.0565C24.3064 46.3497 23.8627 47.2241 22.8573 47.7059C21.9749 48.1291 20.5693 48.2923 19.9409 47.6116C19.292 46.9106 19.3997 45.6333 19.5588 44.1828C19.6768 43.1044 19.9051 42.4875 19.6152 42.2988C19.3254 42.1076 18.7355 42.4926 18.0917 42.9158C17.7377 43.1477 17.0837 43.576 16.64 44.1114C15.6397 45.3249 15.2908 47.6295 16.4322 49.4701C17.2914 50.8569 18.9124 51.8435 20.6232 51.7568C22.9881 51.6344 25.1246 49.4854 25.317 46.6072Z" fill="#EFEFEF"/>
<defs>
<linearGradient id="paint0_linear" x1="26.873" y1="73.1601" x2="62.9913" y2="-1.68731" gradientUnits="userSpaceOnUse">
<stop stop-color="#D8DEE8"/>
<stop offset="1" stop-color="white"/>
</linearGradient>
<linearGradient id="paint1_linear" x1="43.4047" y1="20.5945" x2="33.788" y2="47.9738" gradientUnits="userSpaceOnUse">
<stop stop-color="#FFC444"/>
<stop offset="0.9964" stop-color="#F36F56"/>
</linearGradient>
<linearGradient id="paint2_linear" x1="51.5817" y1="23.3259" x2="42.8961" y2="48.0542" gradientUnits="userSpaceOnUse">
<stop stop-color="#FF9085"/>
<stop offset="1" stop-color="#FB6FBB"/>
</linearGradient>
<linearGradient id="paint3_linear" x1="37.1395" y1="23.2837" x2="28.6022" y2="47.5899" gradientUnits="userSpaceOnUse">
<stop offset="0.00359712" stop-color="#E38DDD"/>
<stop offset="1" stop-color="#9571F6"/>
</linearGradient>
<linearGradient id="paint4_linear" x1="32.4204" y1="59.3307" x2="41.9772" y2="17.6908" gradientUnits="userSpaceOnUse">
<stop stop-color="#444B8C"/>
<stop offset="0.9964" stop-color="#26264F"/>
</linearGradient>
<linearGradient id="paint5_linear" x1="55.6661" y1="57.6134" x2="47.6243" y2="36.5401" gradientUnits="userSpaceOnUse">
<stop stop-color="#444B8C"/>
<stop offset="0.9964" stop-color="#26264F"/>
</linearGradient>
<linearGradient id="paint6_linear" x1="40.7578" y1="78.3845" x2="38.9598" y2="78.3691" gradientUnits="userSpaceOnUse">
<stop stop-color="#311944"/>
<stop offset="1" stop-color="#893976"/>
</linearGradient>
<linearGradient id="paint7_linear" x1="47.7613" y1="78.8643" x2="46.0867" y2="78.8499" gradientUnits="userSpaceOnUse">
<stop stop-color="#311944"/>
<stop offset="1" stop-color="#893976"/>
</linearGradient>
<linearGradient id="paint8_linear" x1="42.0615" y1="54.8573" x2="44.1292" y2="43.1432" gradientUnits="userSpaceOnUse">
<stop stop-color="#FFCFA3"/>
<stop offset="1" stop-color="#FFCEB1"/>
</linearGradient>
<linearGradient id="paint9_linear" x1="40.6001" y1="76.4136" x2="57.6455" y2="56.8499" gradientUnits="userSpaceOnUse">
<stop stop-color="#FFCFA3"/>
<stop offset="0.9964" stop-color="#E9856B"/>
</linearGradient>
<linearGradient id="paint10_linear" x1="41.2289" y1="76.4233" x2="66.1694" y2="54.9216" gradientUnits="userSpaceOnUse">
<stop stop-color="#FFCFA3"/>
<stop offset="1" stop-color="#E9856B"/>
</linearGradient>
<linearGradient id="paint11_linear" x1="45.8773" y1="76.801" x2="72.0871" y2="46.6633" gradientUnits="userSpaceOnUse">
<stop stop-color="#FFCFA3"/>
<stop offset="1" stop-color="#E9856B"/>
</linearGradient>
<linearGradient id="paint12_linear" x1="111.733" y1="87.0708" x2="38.3751" y2="52.8452" gradientUnits="userSpaceOnUse">
<stop stop-color="#311944"/>
<stop offset="1" stop-color="#893976"/>
</linearGradient>
<linearGradient id="paint13_linear" x1="110.652" y1="74.0556" x2="43.9219" y2="42.9225" gradientUnits="userSpaceOnUse">
<stop stop-color="#311944"/>
<stop offset="1" stop-color="#893976"/>
</linearGradient>
<linearGradient id="paint14_linear" x1="109.848" y1="75.6902" x2="43.1327" y2="44.5642" gradientUnits="userSpaceOnUse">
<stop stop-color="#311944"/>
<stop offset="1" stop-color="#893976"/>
</linearGradient>
<linearGradient id="paint15_linear" x1="110.645" y1="77.0278" x2="42.8404" y2="45.3934" gradientUnits="userSpaceOnUse">
<stop stop-color="#311944"/>
<stop offset="1" stop-color="#893976"/>
</linearGradient>
<linearGradient id="paint16_linear" x1="42.8342" y1="42.0652" x2="43.2828" y2="38.8887" gradientUnits="userSpaceOnUse">
<stop stop-color="#FFCFA3"/>
<stop offset="0.9964" stop-color="#E9856B"/>
</linearGradient>
<linearGradient id="paint17_linear" x1="42.8642" y1="40.4902" x2="43.3909" y2="37.796" gradientUnits="userSpaceOnUse">
<stop stop-color="#FFCFA3"/>
<stop offset="0.9964" stop-color="#E9856B"/>
</linearGradient>
<linearGradient id="paint18_linear" x1="38.6518" y1="54.0663" x2="38.8407" y2="52.3511" gradientUnits="userSpaceOnUse">
<stop stop-color="#FFCFA3"/>
<stop offset="0.9964" stop-color="#E9856B"/>
</linearGradient>
<linearGradient id="paint19_linear" x1="47.156" y1="54.0673" x2="47.3453" y2="52.3505" gradientUnits="userSpaceOnUse">
<stop stop-color="#FFCFA3"/>
<stop offset="0.9964" stop-color="#E9856B"/>
</linearGradient>
<linearGradient id="paint20_linear" x1="22.3942" y1="73.5323" x2="21.8898" y2="82.6658" gradientUnits="userSpaceOnUse">
<stop stop-color="#444B8C"/>
<stop offset="0.9964" stop-color="#26264F"/>
</linearGradient>
<linearGradient id="paint21_linear" x1="21.4286" y1="78.0333" x2="21.6965" y2="65.7017" gradientUnits="userSpaceOnUse">
<stop stop-color="#FFC444"/>
<stop offset="0.9964" stop-color="#F36F56"/>
</linearGradient>
<linearGradient id="paint22_linear" x1="13.1538" y1="73.0222" x2="12.6496" y2="82.1555" gradientUnits="userSpaceOnUse">
<stop stop-color="#444B8C"/>
<stop offset="0.9964" stop-color="#26264F"/>
</linearGradient>
<linearGradient id="paint23_linear" x1="13.296" y1="77.8566" x2="13.5639" y2="65.5253" gradientUnits="userSpaceOnUse">
<stop stop-color="#FFC444"/>
<stop offset="0.9964" stop-color="#F36F56"/>
</linearGradient>
<linearGradient id="paint24_linear" x1="26.5999" y1="70.4812" x2="22.1493" y2="62.1162" gradientUnits="userSpaceOnUse">
<stop stop-color="#80BFF9"/>
<stop offset="0.9964" stop-color="#6165D7"/>
</linearGradient>
<linearGradient id="paint25_linear" x1="22.7566" y1="70.0819" x2="19.6909" y2="61.1084" gradientUnits="userSpaceOnUse">
<stop stop-color="#80BFF9"/>
<stop offset="0.9964" stop-color="#6165D7"/>
</linearGradient>
<linearGradient id="paint26_linear" x1="24.7099" y1="70.5053" x2="19.5976" y2="63.6022" gradientUnits="userSpaceOnUse">
<stop stop-color="#80BFF9"/>
<stop offset="0.9964" stop-color="#6165D7"/>
</linearGradient>
<linearGradient id="paint27_linear" x1="3.51815" y1="33.6832" x2="13.4104" y2="44.6047" gradientUnits="userSpaceOnUse">
<stop stop-color="#444B8C"/>
<stop offset="0.9964" stop-color="#3E4177"/>
</linearGradient>
<linearGradient id="paint28_linear" x1="35.4114" y1="46.3904" x2="35.6911" y2="43.6816" gradientUnits="userSpaceOnUse">
<stop stop-color="#FFCFA3"/>
<stop offset="1" stop-color="#E9856B"/>
</linearGradient>
<linearGradient id="paint29_linear" x1="34.8011" y1="46.3541" x2="22.8388" y2="46.3541" gradientUnits="userSpaceOnUse">
<stop stop-color="#AA80F9"/>
<stop offset="0.9964" stop-color="#6165D7"/>
</linearGradient>
<linearGradient id="paint30_linear" x1="26.7229" y1="51.5372" x2="10.232" y2="51.5372" gradientUnits="userSpaceOnUse">
<stop stop-color="#AA80F9"/>
<stop offset="0.9964" stop-color="#6165D7"/>
</linearGradient>
<linearGradient id="paint31_linear" x1="26.7225" y1="53.1474" x2="10.3034" y2="53.1474" gradientUnits="userSpaceOnUse">
<stop stop-color="#AA80F9"/>
<stop offset="0.9964" stop-color="#6165D7"/>
</linearGradient>
<linearGradient id="paint32_linear" x1="21.2023" y1="42.4237" x2="22.1174" y2="37.175" gradientUnits="userSpaceOnUse">
<stop stop-color="#FFCFA3"/>
<stop offset="1" stop-color="#E9856B"/>
</linearGradient>
<linearGradient id="paint33_linear" x1="21.31" y1="40.7855" x2="22.043" y2="37.5528" gradientUnits="userSpaceOnUse">
<stop stop-color="#FFCFA3"/>
<stop offset="1" stop-color="#E9856B"/>
</linearGradient>
<linearGradient id="paint34_linear" x1="25.0103" y1="46.4563" x2="26.0782" y2="43.0493" gradientUnits="userSpaceOnUse">
<stop stop-color="#FFCFA3"/>
<stop offset="1" stop-color="#E9856B"/>
</linearGradient>
</defs>
</svg>
