<svg width="203" height="221" viewBox="0 0 203 221" fill="none" xmlns="http://www.w3.org/2000/svg">
<mask id="mask0" mask-type="alpha" maskUnits="userSpaceOnUse" x="0" y="0" width="203" height="221">
<rect width="203" height="221" fill="white"/>
</mask>
<g mask="url(#mask0)">
<path d="M204.567 91.4475C208.325 113.921 186.389 147.859 182.792 154.303C164.251 187.486 132.257 196.249 71.0129 191.549C40.096 185.766 30.4835 159.558 14.7607 132.04C3.24076 91.5423 20.4626 58.6222 50.8187 34.6436C84.4214 8.10212 124.195 70.3101 128.52 72.1603C133.76 74.3945 198.026 52.3257 204.567 91.4475Z" fill="#F4F7FA"/>
<path d="M95.35 115.762C95.35 112.158 101.334 110.628 101.334 105.528C101.334 103.488 100.586 101.89 99.124 100.734C97.662 99.578 95.894 99 93.888 99C90.318 99 87.258 100.802 86 104.032L89.366 105.936C90.046 103.93 91.644 102.808 93.786 102.808C95.996 102.808 97.424 103.862 97.424 105.766C97.424 109.404 91.44 110.798 91.44 115.762H95.35ZM93.412 118.55C91.95 118.55 90.862 119.706 90.862 121.1C90.862 122.494 92.018 123.65 93.412 123.65C94.806 123.65 95.962 122.494 95.962 121.1C95.962 119.706 94.806 118.55 93.412 118.55Z" fill="#E9856B"/>
<path fill-rule="evenodd" clip-rule="evenodd" d="M5 117.275C6.51361 116.333 7.93698 115.247 9.24188 114.036C18.1149 122.472 26.9878 130.908 35.8608 139.345C37.585 140.984 39.3901 142.759 39.9391 145.076C40.4882 147.39 39.1287 150.314 36.754 150.479C34.7233 150.622 33.1382 148.836 31.9029 147.219C28.0446 142.167 25.0342 136.787 20.6927 132.166C19.2825 130.664 6.24098 116.503 5 117.275Z" fill="#D2DCE6"/>
<path fill-rule="evenodd" clip-rule="evenodd" d="M23.7261 114.819C23.3181 113.372 20.8381 109.96 22.0339 109.047C23.3896 108.009 25.3225 107.726 26.7233 108.273C31.6778 120.986 36.6323 133.698 41.5887 146.411C42.5439 148.863 42.918 154.579 38.8491 152.437C35.8877 150.879 34.1447 145.206 32.9207 142.423C29.0078 133.529 26.3585 124.151 23.7261 114.819Z" fill="#DDE6EF"/>
<path fill-rule="evenodd" clip-rule="evenodd" d="M34.2603 117.706C35.2531 117.426 36.2459 117.145 37.2387 116.864C41.4843 130.665 44.9929 144.693 47.7437 158.867C48.5184 162.858 49.2329 166.997 48.304 170.955C48.1762 171.502 47.9863 172.085 47.5256 172.403C44.2276 174.668 37.9983 158.844 37.3026 155.935C35.5728 148.7 34.9259 140.79 34.4352 133.39C34.3412 131.978 33.245 117.993 34.2603 117.706Z" fill="#D2DCE6"/>
<path fill-rule="evenodd" clip-rule="evenodd" d="M11.4604 127.766C11.8497 126.535 13.4046 126.001 14.6607 126.296C15.9186 126.591 16.9395 127.482 17.9022 128.343C20.952 131.066 24.0037 133.793 26.8316 136.744C33.1644 143.351 38.2937 150.994 43.3911 158.596C45.7622 162.133 49.6543 167.418 48.7179 172.001C47.6932 177.002 44.6396 173.183 43.1975 170.861C37.2276 161.259 31.0152 151.902 24.0789 142.96C21.9993 140.28 19.8746 137.635 17.7048 135.028C16.9884 134.168 11.2198 128.525 11.4604 127.766Z" fill="#DDE6EF"/>
<path fill-rule="evenodd" clip-rule="evenodd" d="M20.1797 142.558C22.1991 141.738 24.2166 140.916 26.236 140.095C34.2008 148.885 41.0544 158.679 46.5862 169.173C42.4063 157.44 40.7047 144.831 41.6279 132.412C43.8447 132.303 46.0616 132.195 48.2803 132.086C47.8384 138.488 49.1903 144.865 50.5347 151.139C53.2479 163.806 56.0063 176.611 61.6001 188.295C63.046 191.317 64.7007 194.323 65.1782 197.638C66.0789 203.884 59.639 211.208 53.8515 205.362C52.0859 203.578 51.9036 200.504 51.1082 198.24C49.7544 194.381 47.8629 190.645 46.118 186.953C38.7831 171.438 30.0962 156.564 20.1797 142.558Z" fill="#D2DCE6"/>
<path fill-rule="evenodd" clip-rule="evenodd" d="M41.6117 147.042C41.4369 140.554 42.0348 134.046 43.383 127.698C42.7625 137.504 42.189 147.65 45.6092 156.861C44.4603 155.438 43.2062 153.819 42.3808 152.177C41.6136 150.654 41.6569 148.712 41.6117 147.042Z" fill="#DDE6EF"/>
<path fill-rule="evenodd" clip-rule="evenodd" d="M180.783 176.811C165.819 205.247 146.595 225.092 137.845 221.136C129.095 217.181 134.132 190.923 149.097 162.487C164.06 134.052 183.285 114.207 192.035 118.162C200.785 122.117 195.747 148.376 180.783 176.811Z" fill="#DDE6EF"/>
<path fill-rule="evenodd" clip-rule="evenodd" d="M190.107 148.776C189.887 150.526 183.097 151.87 174.941 151.779C166.785 151.687 160.351 150.193 160.571 148.443C160.79 146.693 167.58 145.348 175.737 145.44C183.893 145.532 190.327 147.025 190.107 148.776Z" fill="#EAF2FB"/>
<path fill-rule="evenodd" clip-rule="evenodd" d="M189.731 147.788C182.948 150.368 160.529 148.415 160.529 148.415C160.301 150.182 166.753 151.669 174.938 151.735C183.124 151.801 189.944 150.423 190.171 148.656C190.209 148.357 190.052 148.066 189.731 147.788Z" fill="#D2DCE6"/>
<path fill-rule="evenodd" clip-rule="evenodd" d="M183.142 162.853C182.923 164.603 176.132 165.947 167.976 165.855C159.82 165.763 153.386 164.27 153.606 162.52C153.825 160.769 160.615 159.425 168.772 159.517C176.928 159.608 183.362 161.102 183.142 162.853Z" fill="#EAF2FB"/>
<path fill-rule="evenodd" clip-rule="evenodd" d="M182.766 161.864C175.984 164.445 153.564 162.492 153.564 162.492C153.337 164.259 159.788 165.745 167.973 165.812C176.159 165.878 182.979 164.5 183.206 162.733C183.244 162.433 183.087 162.142 182.766 161.864Z" fill="#D2DCE6"/>
<path fill-rule="evenodd" clip-rule="evenodd" d="M176.287 176.781C176.067 178.531 169.277 179.875 161.12 179.784C152.964 179.691 146.531 178.198 146.75 176.448C146.97 174.698 153.76 173.353 161.916 173.445C170.072 173.537 176.506 175.03 176.287 176.781Z" fill="#EAF2FB"/>
<path fill-rule="evenodd" clip-rule="evenodd" d="M175.911 175.793C169.128 178.373 146.708 176.421 146.708 176.421C146.481 178.187 152.933 179.673 161.118 179.74C169.303 179.806 176.123 178.428 176.35 176.661C176.389 176.362 176.232 176.071 175.911 175.793Z" fill="#D2DCE6"/>
<path fill-rule="evenodd" clip-rule="evenodd" d="M169.384 191.132C169.165 192.882 162.375 194.226 154.218 194.135C146.062 194.043 139.628 192.55 139.848 190.8C140.067 189.049 146.858 187.704 155.014 187.796C163.17 187.888 169.604 189.381 169.384 191.132Z" fill="#EAF2FB"/>
<path fill-rule="evenodd" clip-rule="evenodd" d="M169.008 190.144C162.226 192.724 139.806 190.772 139.806 190.772C139.578 192.539 146.03 194.025 154.215 194.092C162.401 194.157 169.221 192.779 169.448 191.013C169.487 190.713 169.329 190.422 169.008 190.144Z" fill="#D2DCE6"/>
<path fill-rule="evenodd" clip-rule="evenodd" d="M166.194 50.6148C162.359 46.3792 161.99 37.5718 161.99 37.5718L160.207 38.9689C161.408 45.9039 163.135 49.3697 164.978 51.4164C165.367 51.1584 165.772 50.8917 166.194 50.6148Z" fill="#D2DCE6"/>
<path fill-rule="evenodd" clip-rule="evenodd" d="M162.451 45.8076C162.451 45.8076 150.623 54.6861 140 39.6124C140 39.6124 155.395 32.0886 162.451 45.8076Z" fill="#DDE6EF"/>
<path fill-rule="evenodd" clip-rule="evenodd" d="M187.385 81.6382C193.729 77.9513 199.388 79.0661 201.983 73.3246C208.949 57.9039 197.62 31.3526 182.858 33.0803C174.407 34.0696 172.408 41.0992 165.934 44.8621C159.461 48.6244 152.35 46.8896 147.316 53.7382C138.523 65.6999 156.062 88.6418 172.936 90.2063C179.218 90.7887 181.041 85.3251 187.385 81.6382Z" fill="#DDE6EF"/>
<path fill-rule="evenodd" clip-rule="evenodd" d="M186.524 51.0309C184.922 51.0309 183.028 50.1418 181.506 48.5152C179.142 45.9861 178.575 42.6338 180.242 41.0266C180.836 40.4533 181.635 40.1797 182.523 40.1797C184.125 40.1797 186.02 41.0692 187.541 42.6959C189.906 45.2244 190.472 48.5773 188.805 50.1839C188.211 50.7573 187.412 51.0309 186.524 51.0309Z" fill="#DDE6EF"/>
<path fill-rule="evenodd" clip-rule="evenodd" d="M145.629 56.8684C145.68 56.799 145.731 56.7312 145.783 56.6641C145.731 56.7312 145.68 56.799 145.629 56.8684Z" fill="#EBEDE8"/>
<path fill-rule="evenodd" clip-rule="evenodd" d="M172.145 93.3107C171.854 93.3107 171.553 93.2969 171.241 93.2678C157.528 91.9889 143.373 76.4553 143.367 64.2614C143.366 61.5016 144.089 58.9126 145.707 56.6984C145.711 56.6918 145.716 56.6851 145.721 56.6785H145.721C145.789 56.5854 145.858 56.4944 145.927 56.4044C145.928 56.4029 145.929 56.4013 145.93 56.3998C145.934 56.3952 145.938 56.3896 145.941 56.385C145.944 56.3819 145.946 56.3788 145.949 56.3758C145.95 56.3742 145.951 56.3727 145.952 56.3712C146.678 55.4308 147.444 54.6622 148.244 54.022C148.911 65.0515 156.462 78.2364 166.581 82.6448C167.771 83.1633 168.861 83.3776 169.904 83.3776C173.921 83.3771 177.251 80.2036 182.93 78.9845C185.014 78.5376 186.915 78.4598 188.67 78.4598C189.133 78.4598 189.586 78.4655 190.029 78.4711C190.472 78.4762 190.905 78.4818 191.329 78.4818C194.394 78.4818 196.986 78.2011 199.34 75.6131C200.073 74.8082 200.747 73.9348 201.365 73.0062C201.055 74.1603 200.667 75.2771 200.191 76.3392C197.644 82.0117 192.129 81.01 185.919 84.5164C185.827 84.5685 185.735 84.6217 185.642 84.6759C179.634 88.1895 177.695 93.3112 172.145 93.3107Z" fill="#D2DCE6"/>
<path fill-rule="evenodd" clip-rule="evenodd" d="M26.9701 14.9661C27.4671 14.8316 28.0681 15.0754 28.5382 15.4592C29.0079 15.8423 29.374 16.3515 29.7312 16.851C30.1264 17.4035 30.5252 17.9621 30.8139 18.5687C31.103 19.176 31.2774 19.8438 31.1902 20.4438C31.1223 20.9109 30.9014 21.3094 30.6548 21.6738C30.362 22.105 30.0283 22.5021 29.6583 22.859C29.5524 22.961 29.4456 23.0371 29.335 23.0999C28.9045 23.722 28.3753 24.5828 27.8203 25.7118C26.267 28.8748 26.8905 32.5071 26.8905 32.5071L21.5631 28.1433C21.5631 28.1433 22.4919 24.9953 24.6404 22.2998C24.7314 22.186 24.8208 22.0757 24.9094 21.9668C25.0408 20.899 25.1731 19.8188 24.8278 18.7192C24.7492 18.4687 24.6451 18.2121 24.6574 17.9667C24.6684 17.7448 24.774 17.5604 24.8802 17.3865C25.2459 16.786 25.6472 16.2133 26.0818 15.6716C26.3236 15.3706 26.5911 15.0684 26.9701 14.9661Z" fill="#DDE6EF"/>
<path fill-rule="evenodd" clip-rule="evenodd" d="M54.2444 78.5968L54.6974 80.9561L53.0731 83.115C53.0731 83.115 45.8767 86.3037 29.278 72.3754C16.9474 62.0285 12.141 45.0916 12.2447 39.3122C12.3778 31.8814 16.01 28.0506 18.8725 27.146C20.8268 26.529 24.2995 28.9616 26.195 33.6083C28.0201 38.0825 26.091 41.8223 31.1582 52.3222C36.2635 62.9006 43.4802 70.0656 45.9898 72.2207C49.8658 75.5489 54.2444 78.5968 54.2444 78.5968Z" fill="#DDE6EF"/>
<path fill-rule="evenodd" clip-rule="evenodd" d="M11.9535 39.6162C12.1097 32.199 15.7498 28.3651 18.612 27.4541C18.814 27.3903 19.0323 27.36 19.263 27.3601L20.5024 28.2516C20.5024 28.2516 17.9169 28.3258 15.6113 34.3842C14.1862 38.1302 15.4537 45.7978 18.8112 54.244C21.1521 60.1329 27.0346 67.5356 38.1691 76.2713C44.7988 81.4727 51.3003 81.1885 51.3003 81.1885L53.0629 82.6087L52.601 83.221C52.601 83.221 45.4026 86.424 28.8653 72.569C16.5804 62.2765 11.832 45.3851 11.9535 39.6162Z" fill="#D2DCE6"/>
<path fill-rule="evenodd" clip-rule="evenodd" d="M24.8605 18.7359C24.7796 18.4775 24.6726 18.2128 24.6855 17.9595C24.6971 17.7304 24.8062 17.54 24.916 17.3605C25.2938 16.7403 25.7084 16.1489 26.1571 15.5894C26.4068 15.2786 26.6831 14.9664 27.0741 14.8605C27.5868 14.7212 28.2064 14.9722 28.6909 15.3679C29.0323 15.6466 29.3199 15.9901 29.5893 16.3492C28.7229 16.1546 28.1185 16.9214 27.6099 17.5818C27.5096 17.7122 27.3184 17.7974 27.3107 17.9785C27.3039 18.1348 27.3967 18.2931 27.4375 18.4535C27.699 19.4816 27.6756 19.7405 27.8065 20.7487C27.2936 22.0274 26.7712 22.8208 26.153 24.1118C25.5996 25.2675 25.2268 26.6132 24.3789 27.5489C23.781 28.2091 22.6509 28.3733 21.7997 28.7247L21.4832 28.4652C21.4832 28.4652 22.4445 25.2154 24.6633 22.4316C24.7572 22.314 24.8497 22.2001 24.9412 22.0876C25.0778 20.9854 25.2154 19.8705 24.8605 18.7359Z" fill="#D2DCE6"/>
<path fill-rule="evenodd" clip-rule="evenodd" d="M27.5869 34.3528C28.7102 38.2826 27.6 42.1231 32.0738 51.5094C37.0081 61.8621 43.9137 68.9053 46.312 71.0264C50.0163 74.3024 54.1945 77.3092 54.1945 77.3092L54.3423 78.0651C53.6426 78.5398 52.3986 77.7264 51.7112 77.2398C42.6537 70.8282 34.2477 60.2281 30.6257 50.8548C28.0954 44.3066 28.2595 39.9849 27.5869 34.3528Z" fill="#E6EEF7"/>
<path fill-rule="evenodd" clip-rule="evenodd" d="M54.0552 76.3562L54.5784 78.8585L52.9172 81.1113L51.6221 79.4638C51.4949 79.3021 51.4488 79.0966 51.5024 78.9311L51.9695 77.4896C52.0016 77.3907 52.067 77.3139 52.1552 77.2714L54.0552 76.3562Z" fill="#D2DCE6"/>
<path fill-rule="evenodd" clip-rule="evenodd" d="M54.4673 78.8117L52.8991 80.885C52.8991 80.885 52.3652 80.2354 52.3033 79.6406C52.2414 79.0458 52.6259 78.8393 52.5724 78.35C52.5188 77.8606 52.3746 77.7408 52.3926 77.5789C52.4105 77.417 52.9374 76.9384 53.2977 77.0179C53.6579 77.0975 54.1307 77.1169 54.1307 77.1169L54.4673 78.8117Z" fill="#CDD7E1"/>
<path fill-rule="evenodd" clip-rule="evenodd" d="M29.9209 16.0739C30.2179 16.4645 30.4687 16.8864 30.7486 17.288C31.1006 17.7935 31.4991 18.2684 31.8124 18.7958C31.9496 19.0266 32.0708 19.2695 32.1341 19.5205C32.2255 19.8827 32.1915 20.2445 32.0933 20.5636C31.9955 20.8833 31.8369 21.1673 31.6768 21.4469C31.536 21.6932 31.3895 21.9426 31.1701 22.1096C30.8714 22.3365 30.4621 22.3915 30.1596 22.6135C30.2448 22.2814 30.4506 21.8703 30.3169 21.5076C29.9373 20.4775 29.7576 20.1355 28.821 18.6752C28.6298 18.3771 28.3084 17.8855 28.1148 17.5886C27.9762 17.3762 27.788 17.1864 27.7018 16.9523C27.6161 16.7196 27.6475 16.4781 27.7287 16.2792C27.8094 16.0796 27.9367 15.9132 28.0482 15.7361C28.1544 15.5655 28.2486 15.3822 28.393 15.2492C28.5886 15.069 28.8073 15.0281 29.0626 15.2179C29.389 15.4606 29.6694 15.7432 29.9209 16.0739Z" fill="#DDE6EF"/>
<path fill-rule="evenodd" clip-rule="evenodd" d="M29.6495 16.0059C29.5454 16.1875 29.3779 16.3116 29.2276 16.4464C28.9502 16.6939 28.7073 17.0059 28.5273 17.3462C28.4562 17.48 28.3742 17.638 28.2526 17.6833C28.1651 17.7157 28.0909 17.6745 28.0223 17.6381C27.3323 17.2744 26.3581 17.4278 25.5223 18.0319C25.4741 18.0668 25.4159 18.1053 25.3767 18.0825C25.3379 18.0605 25.3434 17.9912 25.3555 17.9328C25.423 17.6021 25.5796 17.2728 25.7556 16.9617C26.1512 16.2648 26.6593 15.6255 27.2326 15.1042C27.5043 14.857 27.8177 14.6246 28.1091 14.6201C28.261 14.6179 28.392 14.6789 28.516 14.7437C28.8019 14.8939 29.9985 15.3997 29.6495 16.0059Z" fill="#D2DCE6"/>
<path fill-rule="evenodd" clip-rule="evenodd" d="M112.09 0.304491C112.09 0.304491 120.484 5.32662 111.958 18.7939C111.958 18.7939 103.844 10.6899 112.09 0.304491Z" fill="#DDE6EF"/>
<path fill-rule="evenodd" clip-rule="evenodd" d="M109.791 15.6721C108.489 13.0761 107.472 9.12594 109.45 4.45556C109.34 9.8402 112.981 12.9859 114.66 14.144C114.444 14.6636 114.2 15.1986 113.925 15.7508C113.652 15.786 113.35 15.8303 113.008 15.8642C112.197 15.9441 111.166 15.9652 109.791 15.6721Z" fill="#D2DCE6"/>
<path fill-rule="evenodd" clip-rule="evenodd" d="M105.272 43.8C111.598 38.5886 115.374 33.2544 115.943 25.2923C116.512 17.3305 119.353 17.3441 117.843 14.5751C116.965 12.965 116.236 13.3844 114.56 13.55C113.353 13.6695 111.655 13.6572 109.056 12.661C102.848 10.2809 97.398 12.5454 91.0715 17.7564C84.7448 22.9678 80.9687 28.3023 80.3997 36.2644C79.8309 44.2262 76.9898 44.2127 78.4998 46.9817C79.3773 48.5917 80.1065 48.1719 81.7832 48.0064C82.9901 47.8874 84.6884 47.8996 87.2872 48.8959C93.495 51.2759 98.9449 49.0114 105.271 43.8004L105.272 43.8Z" fill="#DDE6EF"/>
<path fill-rule="evenodd" clip-rule="evenodd" d="M79.9533 48.0391C79.5203 47.9235 79.1548 47.6052 78.7597 46.8823C77.5402 44.6514 79.1211 44.2062 80.1056 40.0441C80.5701 40.0829 81.1077 40.1529 81.7379 40.3213C82.7213 40.5841 83.9287 41.087 85.4293 42.0885C86.7285 42.9557 88.0286 43.5519 89.3465 43.9041C93.6716 45.0597 98.1854 43.5845 103.47 40.4181C110.365 36.2869 114.837 31.5157 116.659 23.3774C116.724 23.0897 116.79 22.8153 116.856 22.549C116.738 23.2834 116.639 24.1055 116.572 25.0408C115.995 33.0912 112.168 38.4851 105.755 43.754C104.377 44.8868 103.04 45.8814 101.728 46.7213C97.4842 49.4059 93.4926 50.4636 89.1944 49.3146C88.6897 49.1798 88.1801 49.0144 87.6665 48.8179C87.0656 48.5878 86.5124 48.4099 86.0018 48.2734C84.2731 47.8115 83.0319 47.8256 82.0877 47.9185C81.1429 48.0118 80.4951 48.1839 79.9533 48.0391Z" fill="#D2DCE6"/>
<path fill-rule="evenodd" clip-rule="evenodd" d="M111.29 138.177L106.182 140.84L101.602 132.026L106.709 129.364L111.29 138.177Z" fill="#FFA28A"/>
<path fill-rule="evenodd" clip-rule="evenodd" d="M92.2247 132.018C92.2242 132.018 92.2242 132.018 92.2242 132.018C91.2757 131.949 90.3345 131.816 89.4077 131.622C88.6865 131.471 87.9741 131.283 87.2726 131.058C86.8351 130.919 86.4023 130.765 85.9747 130.597C85.9741 130.597 85.9741 130.597 85.9736 130.597L85.678 128.765C87.6656 129.656 89.7903 130.216 91.9653 130.417L92.2247 132.019V132.018ZM80.3899 96.0588L80.0938 94.2264C81.2483 93.2671 82.5204 92.4141 83.9058 91.6924C84.4561 91.4056 85.0137 91.1443 85.5781 90.9099L85.8369 92.5121C85.4626 92.677 85.0909 92.8538 84.7223 93.0436L84.6317 93.0898C83.0572 93.9106 81.6397 94.9129 80.3899 96.0588Z" fill="#736E92"/>
<path fill-rule="evenodd" clip-rule="evenodd" d="M105.522 126.801C105.508 126.754 105.494 126.706 105.48 126.659C105.556 126.604 105.631 126.548 105.705 126.492C105.644 126.595 105.583 126.698 105.522 126.801Z" fill="#AAAECC"/>
<path fill-rule="evenodd" clip-rule="evenodd" d="M100.621 130.946V129.274C101.394 128.987 102.159 128.649 102.909 128.257L102.999 128.209C103.876 127.747 104.704 127.228 105.481 126.659C105.494 126.706 105.508 126.753 105.522 126.801C105.583 126.697 105.644 126.595 105.705 126.492C106.441 125.936 107.131 125.334 107.771 124.693L108.075 126.576C106.761 127.76 105.278 128.799 103.636 129.655C103.623 129.661 103.61 129.668 103.598 129.675C102.624 130.18 101.629 130.603 100.621 130.946Z" fill="#EFA89C"/>
<path fill-rule="evenodd" clip-rule="evenodd" d="M102.411 92.8367C101.826 92.5536 101.229 92.299 100.621 92.075V90.4043C100.649 90.4141 100.677 90.4235 100.705 90.4333C101.256 90.6226 101.8 90.8341 102.335 91.068L102.539 92.3285C102.494 92.4976 102.451 92.6671 102.411 92.8367Z" fill="#FAF8FA"/>
<path fill-rule="evenodd" clip-rule="evenodd" d="M102.638 92.9493C102.562 92.9114 102.486 92.8736 102.41 92.8368C102.451 92.6672 102.494 92.4977 102.538 92.3286L102.638 92.9493Z" fill="#8F8DB6"/>
<path fill-rule="evenodd" clip-rule="evenodd" d="M92.0803 90.9184L91.8281 89.3592C92.1662 89.3281 92.5043 89.3058 92.8418 89.2913V90.8681C92.5882 90.88 92.3345 90.8966 92.0803 90.9184Z" fill="#736E92"/>
<path fill-rule="evenodd" clip-rule="evenodd" d="M108.074 126.576C106.76 127.761 105.276 128.8 103.635 129.655C102.016 130.499 100.34 131.114 98.6422 131.514C96.5138 132.013 94.3502 132.175 92.2244 132.018C90.0768 131.86 87.9692 131.379 85.9749 130.597C81.3308 128.777 77.3003 125.33 74.8173 120.553C70.0909 111.457 72.5289 100.524 80.094 94.2264C81.2485 93.2671 82.5206 92.4142 83.906 91.6924C84.4564 91.4057 85.014 91.1443 85.5783 90.91C87.6145 90.0596 89.7196 89.5504 91.8273 89.3586C95.44 89.0288 99.0574 89.6354 102.334 91.0686C106.651 92.9571 110.378 96.2823 112.723 100.794C117.316 109.633 115.144 120.206 108.074 126.576ZM116.908 98.612C110.272 85.8435 94.5806 80.8616 81.818 87.4535L81.7264 87.5007C68.9478 94.1611 63.9801 109.936 70.6319 122.735C77.2827 135.534 93.0331 140.509 105.812 133.848L105.903 133.799C118.615 127.111 123.545 111.381 116.908 98.612Z" fill="#E9856B"/>
<path fill-rule="evenodd" clip-rule="evenodd" d="M100.621 125.827V121.428C100.709 121.42 100.798 121.416 100.886 121.416C101.344 121.416 101.797 121.526 102.223 121.718C101.596 123.049 101.061 124.423 100.621 125.827Z" fill="#FFFFFE"/>
<path fill-rule="evenodd" clip-rule="evenodd" d="M113.302 136.379L127.14 163.007C128.533 165.689 127.567 169.028 124.918 170.472L124.894 170.486C122.193 171.941 118.8 170.889 117.388 168.172L103.517 141.48C102.872 140.24 103.353 138.711 104.592 138.065L109.892 135.303C111.131 134.657 112.657 135.139 113.302 136.379Z" fill="#E9856B"/>
<path fill-rule="evenodd" clip-rule="evenodd" d="M102.996 128.21L102.907 128.257C93.2102 133.312 81.2573 129.536 76.211 119.826C71.1647 110.114 74.9333 98.1437 84.6304 93.0897L84.721 93.0436C94.4015 88.0585 106.295 91.8401 111.326 101.521C116.357 111.202 112.626 123.13 102.996 128.21ZM112.722 100.794C110.376 96.2822 106.65 92.957 102.333 91.0685C99.0559 89.6354 95.4385 89.0287 91.8258 89.3585C89.7181 89.5503 87.613 90.0595 85.5768 90.9099C85.0124 91.1442 84.4548 91.4056 83.9045 91.6923C82.5191 92.4141 81.247 93.2671 80.0925 94.2263C72.5274 100.524 70.0894 111.457 74.8157 120.553C77.2988 125.33 81.3293 128.777 85.9734 130.597C87.9676 131.379 90.0753 131.861 92.2229 132.018C94.3487 132.175 96.5123 132.013 98.6407 131.513C100.339 131.114 102.015 130.499 103.633 129.655C105.275 128.8 106.758 127.761 108.073 126.576C115.142 120.206 117.315 109.633 112.722 100.794Z" fill="#D97B62"/>
</g>
</svg>
